G04 #@! TF.GenerationSoftware,KiCad,Pcbnew,(5.0.2)-1*
G04 #@! TF.CreationDate,2019-03-16T10:07:27-05:00*
G04 #@! TF.ProjectId,ClockingBoard_Hardware,436c6f63-6b69-46e6-9742-6f6172645f48,rev?*
G04 #@! TF.SameCoordinates,Original*
G04 #@! TF.FileFunction,Soldermask,Bot*
G04 #@! TF.FilePolarity,Negative*
%FSLAX46Y46*%
G04 Gerber Fmt 4.6, Leading zero omitted, Abs format (unit mm)*
G04 Created by KiCad (PCBNEW (5.0.2)-1) date 3/16/2019 10:07:27 AM*
%MOMM*%
%LPD*%
G01*
G04 APERTURE LIST*
%ADD10C,0.100000*%
G04 APERTURE END LIST*
D10*
G36*
X100566560Y-46210166D02*
X100714153Y-46271301D01*
X100845213Y-46358873D01*
X100846985Y-46360057D01*
X100959943Y-46473015D01*
X101048700Y-46605849D01*
X101109834Y-46753440D01*
X101141000Y-46910122D01*
X101141000Y-47069878D01*
X101109834Y-47226560D01*
X101048700Y-47374151D01*
X100959943Y-47506985D01*
X100846985Y-47619943D01*
X100846982Y-47619945D01*
X100714153Y-47708699D01*
X100714152Y-47708700D01*
X100714151Y-47708700D01*
X100566560Y-47769834D01*
X100409878Y-47801000D01*
X100250122Y-47801000D01*
X100093440Y-47769834D01*
X99945849Y-47708700D01*
X99945848Y-47708700D01*
X99945847Y-47708699D01*
X99813018Y-47619945D01*
X99813015Y-47619943D01*
X99700057Y-47506985D01*
X99611300Y-47374151D01*
X99550166Y-47226560D01*
X99519000Y-47069878D01*
X99519000Y-46910122D01*
X99550166Y-46753440D01*
X99611300Y-46605849D01*
X99700057Y-46473015D01*
X99813015Y-46360057D01*
X99814787Y-46358873D01*
X99945847Y-46271301D01*
X100093440Y-46210166D01*
X100250122Y-46179000D01*
X100409878Y-46179000D01*
X100566560Y-46210166D01*
X100566560Y-46210166D01*
G37*
G36*
X123426560Y-46210166D02*
X123574153Y-46271301D01*
X123705213Y-46358873D01*
X123706985Y-46360057D01*
X123819943Y-46473015D01*
X123908700Y-46605849D01*
X123969834Y-46753440D01*
X124001000Y-46910122D01*
X124001000Y-47069878D01*
X123969834Y-47226560D01*
X123908700Y-47374151D01*
X123819943Y-47506985D01*
X123706985Y-47619943D01*
X123706982Y-47619945D01*
X123574153Y-47708699D01*
X123574152Y-47708700D01*
X123574151Y-47708700D01*
X123426560Y-47769834D01*
X123269878Y-47801000D01*
X123110122Y-47801000D01*
X122953440Y-47769834D01*
X122805849Y-47708700D01*
X122805848Y-47708700D01*
X122805847Y-47708699D01*
X122673018Y-47619945D01*
X122673015Y-47619943D01*
X122560057Y-47506985D01*
X122471300Y-47374151D01*
X122410166Y-47226560D01*
X122379000Y-47069878D01*
X122379000Y-46910122D01*
X122410166Y-46753440D01*
X122471300Y-46605849D01*
X122560057Y-46473015D01*
X122673015Y-46360057D01*
X122674787Y-46358873D01*
X122805847Y-46271301D01*
X122953440Y-46210166D01*
X123110122Y-46179000D01*
X123269878Y-46179000D01*
X123426560Y-46210166D01*
X123426560Y-46210166D01*
G37*
G36*
X37066560Y-46210166D02*
X37214153Y-46271301D01*
X37345213Y-46358873D01*
X37346985Y-46360057D01*
X37459943Y-46473015D01*
X37548700Y-46605849D01*
X37609834Y-46753440D01*
X37641000Y-46910122D01*
X37641000Y-47069878D01*
X37609834Y-47226560D01*
X37548700Y-47374151D01*
X37459943Y-47506985D01*
X37346985Y-47619943D01*
X37346982Y-47619945D01*
X37214153Y-47708699D01*
X37214152Y-47708700D01*
X37214151Y-47708700D01*
X37066560Y-47769834D01*
X36909878Y-47801000D01*
X36750122Y-47801000D01*
X36593440Y-47769834D01*
X36445849Y-47708700D01*
X36445848Y-47708700D01*
X36445847Y-47708699D01*
X36313018Y-47619945D01*
X36313015Y-47619943D01*
X36200057Y-47506985D01*
X36111300Y-47374151D01*
X36050166Y-47226560D01*
X36019000Y-47069878D01*
X36019000Y-46910122D01*
X36050166Y-46753440D01*
X36111300Y-46605849D01*
X36200057Y-46473015D01*
X36313015Y-46360057D01*
X36314787Y-46358873D01*
X36445847Y-46271301D01*
X36593440Y-46210166D01*
X36750122Y-46179000D01*
X36909878Y-46179000D01*
X37066560Y-46210166D01*
X37066560Y-46210166D01*
G37*
G36*
X39606560Y-46210166D02*
X39754153Y-46271301D01*
X39885213Y-46358873D01*
X39886985Y-46360057D01*
X39999943Y-46473015D01*
X40088700Y-46605849D01*
X40149834Y-46753440D01*
X40181000Y-46910122D01*
X40181000Y-47069878D01*
X40149834Y-47226560D01*
X40088700Y-47374151D01*
X39999943Y-47506985D01*
X39886985Y-47619943D01*
X39886982Y-47619945D01*
X39754153Y-47708699D01*
X39754152Y-47708700D01*
X39754151Y-47708700D01*
X39606560Y-47769834D01*
X39449878Y-47801000D01*
X39290122Y-47801000D01*
X39133440Y-47769834D01*
X38985849Y-47708700D01*
X38985848Y-47708700D01*
X38985847Y-47708699D01*
X38853018Y-47619945D01*
X38853015Y-47619943D01*
X38740057Y-47506985D01*
X38651300Y-47374151D01*
X38590166Y-47226560D01*
X38559000Y-47069878D01*
X38559000Y-46910122D01*
X38590166Y-46753440D01*
X38651300Y-46605849D01*
X38740057Y-46473015D01*
X38853015Y-46360057D01*
X38854787Y-46358873D01*
X38985847Y-46271301D01*
X39133440Y-46210166D01*
X39290122Y-46179000D01*
X39449878Y-46179000D01*
X39606560Y-46210166D01*
X39606560Y-46210166D01*
G37*
G36*
X47226560Y-46210166D02*
X47374153Y-46271301D01*
X47505213Y-46358873D01*
X47506985Y-46360057D01*
X47619943Y-46473015D01*
X47708700Y-46605849D01*
X47769834Y-46753440D01*
X47801000Y-46910122D01*
X47801000Y-47069878D01*
X47769834Y-47226560D01*
X47708700Y-47374151D01*
X47619943Y-47506985D01*
X47506985Y-47619943D01*
X47506982Y-47619945D01*
X47374153Y-47708699D01*
X47374152Y-47708700D01*
X47374151Y-47708700D01*
X47226560Y-47769834D01*
X47069878Y-47801000D01*
X46910122Y-47801000D01*
X46753440Y-47769834D01*
X46605849Y-47708700D01*
X46605848Y-47708700D01*
X46605847Y-47708699D01*
X46473018Y-47619945D01*
X46473015Y-47619943D01*
X46360057Y-47506985D01*
X46271300Y-47374151D01*
X46210166Y-47226560D01*
X46179000Y-47069878D01*
X46179000Y-46910122D01*
X46210166Y-46753440D01*
X46271300Y-46605849D01*
X46360057Y-46473015D01*
X46473015Y-46360057D01*
X46474787Y-46358873D01*
X46605847Y-46271301D01*
X46753440Y-46210166D01*
X46910122Y-46179000D01*
X47069878Y-46179000D01*
X47226560Y-46210166D01*
X47226560Y-46210166D01*
G37*
G36*
X44686560Y-46210166D02*
X44834153Y-46271301D01*
X44965213Y-46358873D01*
X44966985Y-46360057D01*
X45079943Y-46473015D01*
X45168700Y-46605849D01*
X45229834Y-46753440D01*
X45261000Y-46910122D01*
X45261000Y-47069878D01*
X45229834Y-47226560D01*
X45168700Y-47374151D01*
X45079943Y-47506985D01*
X44966985Y-47619943D01*
X44966982Y-47619945D01*
X44834153Y-47708699D01*
X44834152Y-47708700D01*
X44834151Y-47708700D01*
X44686560Y-47769834D01*
X44529878Y-47801000D01*
X44370122Y-47801000D01*
X44213440Y-47769834D01*
X44065849Y-47708700D01*
X44065848Y-47708700D01*
X44065847Y-47708699D01*
X43933018Y-47619945D01*
X43933015Y-47619943D01*
X43820057Y-47506985D01*
X43731300Y-47374151D01*
X43670166Y-47226560D01*
X43639000Y-47069878D01*
X43639000Y-46910122D01*
X43670166Y-46753440D01*
X43731300Y-46605849D01*
X43820057Y-46473015D01*
X43933015Y-46360057D01*
X43934787Y-46358873D01*
X44065847Y-46271301D01*
X44213440Y-46210166D01*
X44370122Y-46179000D01*
X44529878Y-46179000D01*
X44686560Y-46210166D01*
X44686560Y-46210166D01*
G37*
G36*
X42146560Y-46210166D02*
X42294153Y-46271301D01*
X42425213Y-46358873D01*
X42426985Y-46360057D01*
X42539943Y-46473015D01*
X42628700Y-46605849D01*
X42689834Y-46753440D01*
X42721000Y-46910122D01*
X42721000Y-47069878D01*
X42689834Y-47226560D01*
X42628700Y-47374151D01*
X42539943Y-47506985D01*
X42426985Y-47619943D01*
X42426982Y-47619945D01*
X42294153Y-47708699D01*
X42294152Y-47708700D01*
X42294151Y-47708700D01*
X42146560Y-47769834D01*
X41989878Y-47801000D01*
X41830122Y-47801000D01*
X41673440Y-47769834D01*
X41525849Y-47708700D01*
X41525848Y-47708700D01*
X41525847Y-47708699D01*
X41393018Y-47619945D01*
X41393015Y-47619943D01*
X41280057Y-47506985D01*
X41191300Y-47374151D01*
X41130166Y-47226560D01*
X41099000Y-47069878D01*
X41099000Y-46910122D01*
X41130166Y-46753440D01*
X41191300Y-46605849D01*
X41280057Y-46473015D01*
X41393015Y-46360057D01*
X41394787Y-46358873D01*
X41525847Y-46271301D01*
X41673440Y-46210166D01*
X41830122Y-46179000D01*
X41989878Y-46179000D01*
X42146560Y-46210166D01*
X42146560Y-46210166D01*
G37*
G36*
X49766560Y-46210166D02*
X49914153Y-46271301D01*
X50045213Y-46358873D01*
X50046985Y-46360057D01*
X50159943Y-46473015D01*
X50248700Y-46605849D01*
X50309834Y-46753440D01*
X50341000Y-46910122D01*
X50341000Y-47069878D01*
X50309834Y-47226560D01*
X50248700Y-47374151D01*
X50159943Y-47506985D01*
X50046985Y-47619943D01*
X50046982Y-47619945D01*
X49914153Y-47708699D01*
X49914152Y-47708700D01*
X49914151Y-47708700D01*
X49766560Y-47769834D01*
X49609878Y-47801000D01*
X49450122Y-47801000D01*
X49293440Y-47769834D01*
X49145849Y-47708700D01*
X49145848Y-47708700D01*
X49145847Y-47708699D01*
X49013018Y-47619945D01*
X49013015Y-47619943D01*
X48900057Y-47506985D01*
X48811300Y-47374151D01*
X48750166Y-47226560D01*
X48719000Y-47069878D01*
X48719000Y-46910122D01*
X48750166Y-46753440D01*
X48811300Y-46605849D01*
X48900057Y-46473015D01*
X49013015Y-46360057D01*
X49014787Y-46358873D01*
X49145847Y-46271301D01*
X49293440Y-46210166D01*
X49450122Y-46179000D01*
X49609878Y-46179000D01*
X49766560Y-46210166D01*
X49766560Y-46210166D01*
G37*
G36*
X52306560Y-46210166D02*
X52454153Y-46271301D01*
X52585213Y-46358873D01*
X52586985Y-46360057D01*
X52699943Y-46473015D01*
X52788700Y-46605849D01*
X52849834Y-46753440D01*
X52881000Y-46910122D01*
X52881000Y-47069878D01*
X52849834Y-47226560D01*
X52788700Y-47374151D01*
X52699943Y-47506985D01*
X52586985Y-47619943D01*
X52586982Y-47619945D01*
X52454153Y-47708699D01*
X52454152Y-47708700D01*
X52454151Y-47708700D01*
X52306560Y-47769834D01*
X52149878Y-47801000D01*
X51990122Y-47801000D01*
X51833440Y-47769834D01*
X51685849Y-47708700D01*
X51685848Y-47708700D01*
X51685847Y-47708699D01*
X51553018Y-47619945D01*
X51553015Y-47619943D01*
X51440057Y-47506985D01*
X51351300Y-47374151D01*
X51290166Y-47226560D01*
X51259000Y-47069878D01*
X51259000Y-46910122D01*
X51290166Y-46753440D01*
X51351300Y-46605849D01*
X51440057Y-46473015D01*
X51553015Y-46360057D01*
X51554787Y-46358873D01*
X51685847Y-46271301D01*
X51833440Y-46210166D01*
X51990122Y-46179000D01*
X52149878Y-46179000D01*
X52306560Y-46210166D01*
X52306560Y-46210166D01*
G37*
G36*
X59926560Y-46210166D02*
X60074153Y-46271301D01*
X60205213Y-46358873D01*
X60206985Y-46360057D01*
X60319943Y-46473015D01*
X60408700Y-46605849D01*
X60469834Y-46753440D01*
X60501000Y-46910122D01*
X60501000Y-47069878D01*
X60469834Y-47226560D01*
X60408700Y-47374151D01*
X60319943Y-47506985D01*
X60206985Y-47619943D01*
X60206982Y-47619945D01*
X60074153Y-47708699D01*
X60074152Y-47708700D01*
X60074151Y-47708700D01*
X59926560Y-47769834D01*
X59769878Y-47801000D01*
X59610122Y-47801000D01*
X59453440Y-47769834D01*
X59305849Y-47708700D01*
X59305848Y-47708700D01*
X59305847Y-47708699D01*
X59173018Y-47619945D01*
X59173015Y-47619943D01*
X59060057Y-47506985D01*
X58971300Y-47374151D01*
X58910166Y-47226560D01*
X58879000Y-47069878D01*
X58879000Y-46910122D01*
X58910166Y-46753440D01*
X58971300Y-46605849D01*
X59060057Y-46473015D01*
X59173015Y-46360057D01*
X59174787Y-46358873D01*
X59305847Y-46271301D01*
X59453440Y-46210166D01*
X59610122Y-46179000D01*
X59769878Y-46179000D01*
X59926560Y-46210166D01*
X59926560Y-46210166D01*
G37*
G36*
X57386560Y-46210166D02*
X57534153Y-46271301D01*
X57665213Y-46358873D01*
X57666985Y-46360057D01*
X57779943Y-46473015D01*
X57868700Y-46605849D01*
X57929834Y-46753440D01*
X57961000Y-46910122D01*
X57961000Y-47069878D01*
X57929834Y-47226560D01*
X57868700Y-47374151D01*
X57779943Y-47506985D01*
X57666985Y-47619943D01*
X57666982Y-47619945D01*
X57534153Y-47708699D01*
X57534152Y-47708700D01*
X57534151Y-47708700D01*
X57386560Y-47769834D01*
X57229878Y-47801000D01*
X57070122Y-47801000D01*
X56913440Y-47769834D01*
X56765849Y-47708700D01*
X56765848Y-47708700D01*
X56765847Y-47708699D01*
X56633018Y-47619945D01*
X56633015Y-47619943D01*
X56520057Y-47506985D01*
X56431300Y-47374151D01*
X56370166Y-47226560D01*
X56339000Y-47069878D01*
X56339000Y-46910122D01*
X56370166Y-46753440D01*
X56431300Y-46605849D01*
X56520057Y-46473015D01*
X56633015Y-46360057D01*
X56634787Y-46358873D01*
X56765847Y-46271301D01*
X56913440Y-46210166D01*
X57070122Y-46179000D01*
X57229878Y-46179000D01*
X57386560Y-46210166D01*
X57386560Y-46210166D01*
G37*
G36*
X120886560Y-46210166D02*
X121034153Y-46271301D01*
X121165213Y-46358873D01*
X121166985Y-46360057D01*
X121279943Y-46473015D01*
X121368700Y-46605849D01*
X121429834Y-46753440D01*
X121461000Y-46910122D01*
X121461000Y-47069878D01*
X121429834Y-47226560D01*
X121368700Y-47374151D01*
X121279943Y-47506985D01*
X121166985Y-47619943D01*
X121166982Y-47619945D01*
X121034153Y-47708699D01*
X121034152Y-47708700D01*
X121034151Y-47708700D01*
X120886560Y-47769834D01*
X120729878Y-47801000D01*
X120570122Y-47801000D01*
X120413440Y-47769834D01*
X120265849Y-47708700D01*
X120265848Y-47708700D01*
X120265847Y-47708699D01*
X120133018Y-47619945D01*
X120133015Y-47619943D01*
X120020057Y-47506985D01*
X119931300Y-47374151D01*
X119870166Y-47226560D01*
X119839000Y-47069878D01*
X119839000Y-46910122D01*
X119870166Y-46753440D01*
X119931300Y-46605849D01*
X120020057Y-46473015D01*
X120133015Y-46360057D01*
X120134787Y-46358873D01*
X120265847Y-46271301D01*
X120413440Y-46210166D01*
X120570122Y-46179000D01*
X120729878Y-46179000D01*
X120886560Y-46210166D01*
X120886560Y-46210166D01*
G37*
G36*
X54846560Y-46210166D02*
X54994153Y-46271301D01*
X55125213Y-46358873D01*
X55126985Y-46360057D01*
X55239943Y-46473015D01*
X55328700Y-46605849D01*
X55389834Y-46753440D01*
X55421000Y-46910122D01*
X55421000Y-47069878D01*
X55389834Y-47226560D01*
X55328700Y-47374151D01*
X55239943Y-47506985D01*
X55126985Y-47619943D01*
X55126982Y-47619945D01*
X54994153Y-47708699D01*
X54994152Y-47708700D01*
X54994151Y-47708700D01*
X54846560Y-47769834D01*
X54689878Y-47801000D01*
X54530122Y-47801000D01*
X54373440Y-47769834D01*
X54225849Y-47708700D01*
X54225848Y-47708700D01*
X54225847Y-47708699D01*
X54093018Y-47619945D01*
X54093015Y-47619943D01*
X53980057Y-47506985D01*
X53891300Y-47374151D01*
X53830166Y-47226560D01*
X53799000Y-47069878D01*
X53799000Y-46910122D01*
X53830166Y-46753440D01*
X53891300Y-46605849D01*
X53980057Y-46473015D01*
X54093015Y-46360057D01*
X54094787Y-46358873D01*
X54225847Y-46271301D01*
X54373440Y-46210166D01*
X54530122Y-46179000D01*
X54689878Y-46179000D01*
X54846560Y-46210166D01*
X54846560Y-46210166D01*
G37*
G36*
X103106560Y-46210166D02*
X103254153Y-46271301D01*
X103385213Y-46358873D01*
X103386985Y-46360057D01*
X103499943Y-46473015D01*
X103588700Y-46605849D01*
X103649834Y-46753440D01*
X103681000Y-46910122D01*
X103681000Y-47069878D01*
X103649834Y-47226560D01*
X103588700Y-47374151D01*
X103499943Y-47506985D01*
X103386985Y-47619943D01*
X103386982Y-47619945D01*
X103254153Y-47708699D01*
X103254152Y-47708700D01*
X103254151Y-47708700D01*
X103106560Y-47769834D01*
X102949878Y-47801000D01*
X102790122Y-47801000D01*
X102633440Y-47769834D01*
X102485849Y-47708700D01*
X102485848Y-47708700D01*
X102485847Y-47708699D01*
X102353018Y-47619945D01*
X102353015Y-47619943D01*
X102240057Y-47506985D01*
X102151300Y-47374151D01*
X102090166Y-47226560D01*
X102059000Y-47069878D01*
X102059000Y-46910122D01*
X102090166Y-46753440D01*
X102151300Y-46605849D01*
X102240057Y-46473015D01*
X102353015Y-46360057D01*
X102354787Y-46358873D01*
X102485847Y-46271301D01*
X102633440Y-46210166D01*
X102790122Y-46179000D01*
X102949878Y-46179000D01*
X103106560Y-46210166D01*
X103106560Y-46210166D01*
G37*
G36*
X105646560Y-46210166D02*
X105794153Y-46271301D01*
X105925213Y-46358873D01*
X105926985Y-46360057D01*
X106039943Y-46473015D01*
X106128700Y-46605849D01*
X106189834Y-46753440D01*
X106221000Y-46910122D01*
X106221000Y-47069878D01*
X106189834Y-47226560D01*
X106128700Y-47374151D01*
X106039943Y-47506985D01*
X105926985Y-47619943D01*
X105926982Y-47619945D01*
X105794153Y-47708699D01*
X105794152Y-47708700D01*
X105794151Y-47708700D01*
X105646560Y-47769834D01*
X105489878Y-47801000D01*
X105330122Y-47801000D01*
X105173440Y-47769834D01*
X105025849Y-47708700D01*
X105025848Y-47708700D01*
X105025847Y-47708699D01*
X104893018Y-47619945D01*
X104893015Y-47619943D01*
X104780057Y-47506985D01*
X104691300Y-47374151D01*
X104630166Y-47226560D01*
X104599000Y-47069878D01*
X104599000Y-46910122D01*
X104630166Y-46753440D01*
X104691300Y-46605849D01*
X104780057Y-46473015D01*
X104893015Y-46360057D01*
X104894787Y-46358873D01*
X105025847Y-46271301D01*
X105173440Y-46210166D01*
X105330122Y-46179000D01*
X105489878Y-46179000D01*
X105646560Y-46210166D01*
X105646560Y-46210166D01*
G37*
G36*
X108186560Y-46210166D02*
X108334153Y-46271301D01*
X108465213Y-46358873D01*
X108466985Y-46360057D01*
X108579943Y-46473015D01*
X108668700Y-46605849D01*
X108729834Y-46753440D01*
X108761000Y-46910122D01*
X108761000Y-47069878D01*
X108729834Y-47226560D01*
X108668700Y-47374151D01*
X108579943Y-47506985D01*
X108466985Y-47619943D01*
X108466982Y-47619945D01*
X108334153Y-47708699D01*
X108334152Y-47708700D01*
X108334151Y-47708700D01*
X108186560Y-47769834D01*
X108029878Y-47801000D01*
X107870122Y-47801000D01*
X107713440Y-47769834D01*
X107565849Y-47708700D01*
X107565848Y-47708700D01*
X107565847Y-47708699D01*
X107433018Y-47619945D01*
X107433015Y-47619943D01*
X107320057Y-47506985D01*
X107231300Y-47374151D01*
X107170166Y-47226560D01*
X107139000Y-47069878D01*
X107139000Y-46910122D01*
X107170166Y-46753440D01*
X107231300Y-46605849D01*
X107320057Y-46473015D01*
X107433015Y-46360057D01*
X107434787Y-46358873D01*
X107565847Y-46271301D01*
X107713440Y-46210166D01*
X107870122Y-46179000D01*
X108029878Y-46179000D01*
X108186560Y-46210166D01*
X108186560Y-46210166D01*
G37*
G36*
X110726560Y-46210166D02*
X110874153Y-46271301D01*
X111005213Y-46358873D01*
X111006985Y-46360057D01*
X111119943Y-46473015D01*
X111208700Y-46605849D01*
X111269834Y-46753440D01*
X111301000Y-46910122D01*
X111301000Y-47069878D01*
X111269834Y-47226560D01*
X111208700Y-47374151D01*
X111119943Y-47506985D01*
X111006985Y-47619943D01*
X111006982Y-47619945D01*
X110874153Y-47708699D01*
X110874152Y-47708700D01*
X110874151Y-47708700D01*
X110726560Y-47769834D01*
X110569878Y-47801000D01*
X110410122Y-47801000D01*
X110253440Y-47769834D01*
X110105849Y-47708700D01*
X110105848Y-47708700D01*
X110105847Y-47708699D01*
X109973018Y-47619945D01*
X109973015Y-47619943D01*
X109860057Y-47506985D01*
X109771300Y-47374151D01*
X109710166Y-47226560D01*
X109679000Y-47069878D01*
X109679000Y-46910122D01*
X109710166Y-46753440D01*
X109771300Y-46605849D01*
X109860057Y-46473015D01*
X109973015Y-46360057D01*
X109974787Y-46358873D01*
X110105847Y-46271301D01*
X110253440Y-46210166D01*
X110410122Y-46179000D01*
X110569878Y-46179000D01*
X110726560Y-46210166D01*
X110726560Y-46210166D01*
G37*
G36*
X113266560Y-46210166D02*
X113414153Y-46271301D01*
X113545213Y-46358873D01*
X113546985Y-46360057D01*
X113659943Y-46473015D01*
X113748700Y-46605849D01*
X113809834Y-46753440D01*
X113841000Y-46910122D01*
X113841000Y-47069878D01*
X113809834Y-47226560D01*
X113748700Y-47374151D01*
X113659943Y-47506985D01*
X113546985Y-47619943D01*
X113546982Y-47619945D01*
X113414153Y-47708699D01*
X113414152Y-47708700D01*
X113414151Y-47708700D01*
X113266560Y-47769834D01*
X113109878Y-47801000D01*
X112950122Y-47801000D01*
X112793440Y-47769834D01*
X112645849Y-47708700D01*
X112645848Y-47708700D01*
X112645847Y-47708699D01*
X112513018Y-47619945D01*
X112513015Y-47619943D01*
X112400057Y-47506985D01*
X112311300Y-47374151D01*
X112250166Y-47226560D01*
X112219000Y-47069878D01*
X112219000Y-46910122D01*
X112250166Y-46753440D01*
X112311300Y-46605849D01*
X112400057Y-46473015D01*
X112513015Y-46360057D01*
X112514787Y-46358873D01*
X112645847Y-46271301D01*
X112793440Y-46210166D01*
X112950122Y-46179000D01*
X113109878Y-46179000D01*
X113266560Y-46210166D01*
X113266560Y-46210166D01*
G37*
G36*
X115806560Y-46210166D02*
X115954153Y-46271301D01*
X116085213Y-46358873D01*
X116086985Y-46360057D01*
X116199943Y-46473015D01*
X116288700Y-46605849D01*
X116349834Y-46753440D01*
X116381000Y-46910122D01*
X116381000Y-47069878D01*
X116349834Y-47226560D01*
X116288700Y-47374151D01*
X116199943Y-47506985D01*
X116086985Y-47619943D01*
X116086982Y-47619945D01*
X115954153Y-47708699D01*
X115954152Y-47708700D01*
X115954151Y-47708700D01*
X115806560Y-47769834D01*
X115649878Y-47801000D01*
X115490122Y-47801000D01*
X115333440Y-47769834D01*
X115185849Y-47708700D01*
X115185848Y-47708700D01*
X115185847Y-47708699D01*
X115053018Y-47619945D01*
X115053015Y-47619943D01*
X114940057Y-47506985D01*
X114851300Y-47374151D01*
X114790166Y-47226560D01*
X114759000Y-47069878D01*
X114759000Y-46910122D01*
X114790166Y-46753440D01*
X114851300Y-46605849D01*
X114940057Y-46473015D01*
X115053015Y-46360057D01*
X115054787Y-46358873D01*
X115185847Y-46271301D01*
X115333440Y-46210166D01*
X115490122Y-46179000D01*
X115649878Y-46179000D01*
X115806560Y-46210166D01*
X115806560Y-46210166D01*
G37*
G36*
X118346560Y-46210166D02*
X118494153Y-46271301D01*
X118625213Y-46358873D01*
X118626985Y-46360057D01*
X118739943Y-46473015D01*
X118828700Y-46605849D01*
X118889834Y-46753440D01*
X118921000Y-46910122D01*
X118921000Y-47069878D01*
X118889834Y-47226560D01*
X118828700Y-47374151D01*
X118739943Y-47506985D01*
X118626985Y-47619943D01*
X118626982Y-47619945D01*
X118494153Y-47708699D01*
X118494152Y-47708700D01*
X118494151Y-47708700D01*
X118346560Y-47769834D01*
X118189878Y-47801000D01*
X118030122Y-47801000D01*
X117873440Y-47769834D01*
X117725849Y-47708700D01*
X117725848Y-47708700D01*
X117725847Y-47708699D01*
X117593018Y-47619945D01*
X117593015Y-47619943D01*
X117480057Y-47506985D01*
X117391300Y-47374151D01*
X117330166Y-47226560D01*
X117299000Y-47069878D01*
X117299000Y-46910122D01*
X117330166Y-46753440D01*
X117391300Y-46605849D01*
X117480057Y-46473015D01*
X117593015Y-46360057D01*
X117594787Y-46358873D01*
X117725847Y-46271301D01*
X117873440Y-46210166D01*
X118030122Y-46179000D01*
X118189878Y-46179000D01*
X118346560Y-46210166D01*
X118346560Y-46210166D01*
G37*
G36*
X44686560Y-43670166D02*
X44834153Y-43731301D01*
X44965213Y-43818873D01*
X44966985Y-43820057D01*
X45079943Y-43933015D01*
X45168700Y-44065849D01*
X45229834Y-44213440D01*
X45261000Y-44370122D01*
X45261000Y-44529878D01*
X45229834Y-44686560D01*
X45168700Y-44834151D01*
X45079943Y-44966985D01*
X44966985Y-45079943D01*
X44966982Y-45079945D01*
X44834153Y-45168699D01*
X44834152Y-45168700D01*
X44834151Y-45168700D01*
X44686560Y-45229834D01*
X44529878Y-45261000D01*
X44370122Y-45261000D01*
X44213440Y-45229834D01*
X44065849Y-45168700D01*
X44065848Y-45168700D01*
X44065847Y-45168699D01*
X43933018Y-45079945D01*
X43933015Y-45079943D01*
X43820057Y-44966985D01*
X43731300Y-44834151D01*
X43670166Y-44686560D01*
X43639000Y-44529878D01*
X43639000Y-44370122D01*
X43670166Y-44213440D01*
X43731300Y-44065849D01*
X43820057Y-43933015D01*
X43933015Y-43820057D01*
X43934787Y-43818873D01*
X44065847Y-43731301D01*
X44213440Y-43670166D01*
X44370122Y-43639000D01*
X44529878Y-43639000D01*
X44686560Y-43670166D01*
X44686560Y-43670166D01*
G37*
G36*
X42146560Y-43670166D02*
X42294153Y-43731301D01*
X42425213Y-43818873D01*
X42426985Y-43820057D01*
X42539943Y-43933015D01*
X42628700Y-44065849D01*
X42689834Y-44213440D01*
X42721000Y-44370122D01*
X42721000Y-44529878D01*
X42689834Y-44686560D01*
X42628700Y-44834151D01*
X42539943Y-44966985D01*
X42426985Y-45079943D01*
X42426982Y-45079945D01*
X42294153Y-45168699D01*
X42294152Y-45168700D01*
X42294151Y-45168700D01*
X42146560Y-45229834D01*
X41989878Y-45261000D01*
X41830122Y-45261000D01*
X41673440Y-45229834D01*
X41525849Y-45168700D01*
X41525848Y-45168700D01*
X41525847Y-45168699D01*
X41393018Y-45079945D01*
X41393015Y-45079943D01*
X41280057Y-44966985D01*
X41191300Y-44834151D01*
X41130166Y-44686560D01*
X41099000Y-44529878D01*
X41099000Y-44370122D01*
X41130166Y-44213440D01*
X41191300Y-44065849D01*
X41280057Y-43933015D01*
X41393015Y-43820057D01*
X41394787Y-43818873D01*
X41525847Y-43731301D01*
X41673440Y-43670166D01*
X41830122Y-43639000D01*
X41989878Y-43639000D01*
X42146560Y-43670166D01*
X42146560Y-43670166D01*
G37*
G36*
X39606560Y-43670166D02*
X39754153Y-43731301D01*
X39885213Y-43818873D01*
X39886985Y-43820057D01*
X39999943Y-43933015D01*
X40088700Y-44065849D01*
X40149834Y-44213440D01*
X40181000Y-44370122D01*
X40181000Y-44529878D01*
X40149834Y-44686560D01*
X40088700Y-44834151D01*
X39999943Y-44966985D01*
X39886985Y-45079943D01*
X39886982Y-45079945D01*
X39754153Y-45168699D01*
X39754152Y-45168700D01*
X39754151Y-45168700D01*
X39606560Y-45229834D01*
X39449878Y-45261000D01*
X39290122Y-45261000D01*
X39133440Y-45229834D01*
X38985849Y-45168700D01*
X38985848Y-45168700D01*
X38985847Y-45168699D01*
X38853018Y-45079945D01*
X38853015Y-45079943D01*
X38740057Y-44966985D01*
X38651300Y-44834151D01*
X38590166Y-44686560D01*
X38559000Y-44529878D01*
X38559000Y-44370122D01*
X38590166Y-44213440D01*
X38651300Y-44065849D01*
X38740057Y-43933015D01*
X38853015Y-43820057D01*
X38854787Y-43818873D01*
X38985847Y-43731301D01*
X39133440Y-43670166D01*
X39290122Y-43639000D01*
X39449878Y-43639000D01*
X39606560Y-43670166D01*
X39606560Y-43670166D01*
G37*
G36*
X37066560Y-43670166D02*
X37214153Y-43731301D01*
X37345213Y-43818873D01*
X37346985Y-43820057D01*
X37459943Y-43933015D01*
X37548700Y-44065849D01*
X37609834Y-44213440D01*
X37641000Y-44370122D01*
X37641000Y-44529878D01*
X37609834Y-44686560D01*
X37548700Y-44834151D01*
X37459943Y-44966985D01*
X37346985Y-45079943D01*
X37346982Y-45079945D01*
X37214153Y-45168699D01*
X37214152Y-45168700D01*
X37214151Y-45168700D01*
X37066560Y-45229834D01*
X36909878Y-45261000D01*
X36750122Y-45261000D01*
X36593440Y-45229834D01*
X36445849Y-45168700D01*
X36445848Y-45168700D01*
X36445847Y-45168699D01*
X36313018Y-45079945D01*
X36313015Y-45079943D01*
X36200057Y-44966985D01*
X36111300Y-44834151D01*
X36050166Y-44686560D01*
X36019000Y-44529878D01*
X36019000Y-44370122D01*
X36050166Y-44213440D01*
X36111300Y-44065849D01*
X36200057Y-43933015D01*
X36313015Y-43820057D01*
X36314787Y-43818873D01*
X36445847Y-43731301D01*
X36593440Y-43670166D01*
X36750122Y-43639000D01*
X36909878Y-43639000D01*
X37066560Y-43670166D01*
X37066560Y-43670166D01*
G37*
G36*
X49766560Y-43670166D02*
X49914153Y-43731301D01*
X50045213Y-43818873D01*
X50046985Y-43820057D01*
X50159943Y-43933015D01*
X50248700Y-44065849D01*
X50309834Y-44213440D01*
X50341000Y-44370122D01*
X50341000Y-44529878D01*
X50309834Y-44686560D01*
X50248700Y-44834151D01*
X50159943Y-44966985D01*
X50046985Y-45079943D01*
X50046982Y-45079945D01*
X49914153Y-45168699D01*
X49914152Y-45168700D01*
X49914151Y-45168700D01*
X49766560Y-45229834D01*
X49609878Y-45261000D01*
X49450122Y-45261000D01*
X49293440Y-45229834D01*
X49145849Y-45168700D01*
X49145848Y-45168700D01*
X49145847Y-45168699D01*
X49013018Y-45079945D01*
X49013015Y-45079943D01*
X48900057Y-44966985D01*
X48811300Y-44834151D01*
X48750166Y-44686560D01*
X48719000Y-44529878D01*
X48719000Y-44370122D01*
X48750166Y-44213440D01*
X48811300Y-44065849D01*
X48900057Y-43933015D01*
X49013015Y-43820057D01*
X49014787Y-43818873D01*
X49145847Y-43731301D01*
X49293440Y-43670166D01*
X49450122Y-43639000D01*
X49609878Y-43639000D01*
X49766560Y-43670166D01*
X49766560Y-43670166D01*
G37*
G36*
X52306560Y-43670166D02*
X52454153Y-43731301D01*
X52585213Y-43818873D01*
X52586985Y-43820057D01*
X52699943Y-43933015D01*
X52788700Y-44065849D01*
X52849834Y-44213440D01*
X52881000Y-44370122D01*
X52881000Y-44529878D01*
X52849834Y-44686560D01*
X52788700Y-44834151D01*
X52699943Y-44966985D01*
X52586985Y-45079943D01*
X52586982Y-45079945D01*
X52454153Y-45168699D01*
X52454152Y-45168700D01*
X52454151Y-45168700D01*
X52306560Y-45229834D01*
X52149878Y-45261000D01*
X51990122Y-45261000D01*
X51833440Y-45229834D01*
X51685849Y-45168700D01*
X51685848Y-45168700D01*
X51685847Y-45168699D01*
X51553018Y-45079945D01*
X51553015Y-45079943D01*
X51440057Y-44966985D01*
X51351300Y-44834151D01*
X51290166Y-44686560D01*
X51259000Y-44529878D01*
X51259000Y-44370122D01*
X51290166Y-44213440D01*
X51351300Y-44065849D01*
X51440057Y-43933015D01*
X51553015Y-43820057D01*
X51554787Y-43818873D01*
X51685847Y-43731301D01*
X51833440Y-43670166D01*
X51990122Y-43639000D01*
X52149878Y-43639000D01*
X52306560Y-43670166D01*
X52306560Y-43670166D01*
G37*
G36*
X123426560Y-43670166D02*
X123574153Y-43731301D01*
X123705213Y-43818873D01*
X123706985Y-43820057D01*
X123819943Y-43933015D01*
X123908700Y-44065849D01*
X123969834Y-44213440D01*
X124001000Y-44370122D01*
X124001000Y-44529878D01*
X123969834Y-44686560D01*
X123908700Y-44834151D01*
X123819943Y-44966985D01*
X123706985Y-45079943D01*
X123706982Y-45079945D01*
X123574153Y-45168699D01*
X123574152Y-45168700D01*
X123574151Y-45168700D01*
X123426560Y-45229834D01*
X123269878Y-45261000D01*
X123110122Y-45261000D01*
X122953440Y-45229834D01*
X122805849Y-45168700D01*
X122805848Y-45168700D01*
X122805847Y-45168699D01*
X122673018Y-45079945D01*
X122673015Y-45079943D01*
X122560057Y-44966985D01*
X122471300Y-44834151D01*
X122410166Y-44686560D01*
X122379000Y-44529878D01*
X122379000Y-44370122D01*
X122410166Y-44213440D01*
X122471300Y-44065849D01*
X122560057Y-43933015D01*
X122673015Y-43820057D01*
X122674787Y-43818873D01*
X122805847Y-43731301D01*
X122953440Y-43670166D01*
X123110122Y-43639000D01*
X123269878Y-43639000D01*
X123426560Y-43670166D01*
X123426560Y-43670166D01*
G37*
G36*
X120886560Y-43670166D02*
X121034153Y-43731301D01*
X121165213Y-43818873D01*
X121166985Y-43820057D01*
X121279943Y-43933015D01*
X121368700Y-44065849D01*
X121429834Y-44213440D01*
X121461000Y-44370122D01*
X121461000Y-44529878D01*
X121429834Y-44686560D01*
X121368700Y-44834151D01*
X121279943Y-44966985D01*
X121166985Y-45079943D01*
X121166982Y-45079945D01*
X121034153Y-45168699D01*
X121034152Y-45168700D01*
X121034151Y-45168700D01*
X120886560Y-45229834D01*
X120729878Y-45261000D01*
X120570122Y-45261000D01*
X120413440Y-45229834D01*
X120265849Y-45168700D01*
X120265848Y-45168700D01*
X120265847Y-45168699D01*
X120133018Y-45079945D01*
X120133015Y-45079943D01*
X120020057Y-44966985D01*
X119931300Y-44834151D01*
X119870166Y-44686560D01*
X119839000Y-44529878D01*
X119839000Y-44370122D01*
X119870166Y-44213440D01*
X119931300Y-44065849D01*
X120020057Y-43933015D01*
X120133015Y-43820057D01*
X120134787Y-43818873D01*
X120265847Y-43731301D01*
X120413440Y-43670166D01*
X120570122Y-43639000D01*
X120729878Y-43639000D01*
X120886560Y-43670166D01*
X120886560Y-43670166D01*
G37*
G36*
X118346560Y-43670166D02*
X118494153Y-43731301D01*
X118625213Y-43818873D01*
X118626985Y-43820057D01*
X118739943Y-43933015D01*
X118828700Y-44065849D01*
X118889834Y-44213440D01*
X118921000Y-44370122D01*
X118921000Y-44529878D01*
X118889834Y-44686560D01*
X118828700Y-44834151D01*
X118739943Y-44966985D01*
X118626985Y-45079943D01*
X118626982Y-45079945D01*
X118494153Y-45168699D01*
X118494152Y-45168700D01*
X118494151Y-45168700D01*
X118346560Y-45229834D01*
X118189878Y-45261000D01*
X118030122Y-45261000D01*
X117873440Y-45229834D01*
X117725849Y-45168700D01*
X117725848Y-45168700D01*
X117725847Y-45168699D01*
X117593018Y-45079945D01*
X117593015Y-45079943D01*
X117480057Y-44966985D01*
X117391300Y-44834151D01*
X117330166Y-44686560D01*
X117299000Y-44529878D01*
X117299000Y-44370122D01*
X117330166Y-44213440D01*
X117391300Y-44065849D01*
X117480057Y-43933015D01*
X117593015Y-43820057D01*
X117594787Y-43818873D01*
X117725847Y-43731301D01*
X117873440Y-43670166D01*
X118030122Y-43639000D01*
X118189878Y-43639000D01*
X118346560Y-43670166D01*
X118346560Y-43670166D01*
G37*
G36*
X115806560Y-43670166D02*
X115954153Y-43731301D01*
X116085213Y-43818873D01*
X116086985Y-43820057D01*
X116199943Y-43933015D01*
X116288700Y-44065849D01*
X116349834Y-44213440D01*
X116381000Y-44370122D01*
X116381000Y-44529878D01*
X116349834Y-44686560D01*
X116288700Y-44834151D01*
X116199943Y-44966985D01*
X116086985Y-45079943D01*
X116086982Y-45079945D01*
X115954153Y-45168699D01*
X115954152Y-45168700D01*
X115954151Y-45168700D01*
X115806560Y-45229834D01*
X115649878Y-45261000D01*
X115490122Y-45261000D01*
X115333440Y-45229834D01*
X115185849Y-45168700D01*
X115185848Y-45168700D01*
X115185847Y-45168699D01*
X115053018Y-45079945D01*
X115053015Y-45079943D01*
X114940057Y-44966985D01*
X114851300Y-44834151D01*
X114790166Y-44686560D01*
X114759000Y-44529878D01*
X114759000Y-44370122D01*
X114790166Y-44213440D01*
X114851300Y-44065849D01*
X114940057Y-43933015D01*
X115053015Y-43820057D01*
X115054787Y-43818873D01*
X115185847Y-43731301D01*
X115333440Y-43670166D01*
X115490122Y-43639000D01*
X115649878Y-43639000D01*
X115806560Y-43670166D01*
X115806560Y-43670166D01*
G37*
G36*
X47226560Y-43670166D02*
X47374153Y-43731301D01*
X47505213Y-43818873D01*
X47506985Y-43820057D01*
X47619943Y-43933015D01*
X47708700Y-44065849D01*
X47769834Y-44213440D01*
X47801000Y-44370122D01*
X47801000Y-44529878D01*
X47769834Y-44686560D01*
X47708700Y-44834151D01*
X47619943Y-44966985D01*
X47506985Y-45079943D01*
X47506982Y-45079945D01*
X47374153Y-45168699D01*
X47374152Y-45168700D01*
X47374151Y-45168700D01*
X47226560Y-45229834D01*
X47069878Y-45261000D01*
X46910122Y-45261000D01*
X46753440Y-45229834D01*
X46605849Y-45168700D01*
X46605848Y-45168700D01*
X46605847Y-45168699D01*
X46473018Y-45079945D01*
X46473015Y-45079943D01*
X46360057Y-44966985D01*
X46271300Y-44834151D01*
X46210166Y-44686560D01*
X46179000Y-44529878D01*
X46179000Y-44370122D01*
X46210166Y-44213440D01*
X46271300Y-44065849D01*
X46360057Y-43933015D01*
X46473015Y-43820057D01*
X46474787Y-43818873D01*
X46605847Y-43731301D01*
X46753440Y-43670166D01*
X46910122Y-43639000D01*
X47069878Y-43639000D01*
X47226560Y-43670166D01*
X47226560Y-43670166D01*
G37*
G36*
X110726560Y-43670166D02*
X110874153Y-43731301D01*
X111005213Y-43818873D01*
X111006985Y-43820057D01*
X111119943Y-43933015D01*
X111208700Y-44065849D01*
X111269834Y-44213440D01*
X111301000Y-44370122D01*
X111301000Y-44529878D01*
X111269834Y-44686560D01*
X111208700Y-44834151D01*
X111119943Y-44966985D01*
X111006985Y-45079943D01*
X111006982Y-45079945D01*
X110874153Y-45168699D01*
X110874152Y-45168700D01*
X110874151Y-45168700D01*
X110726560Y-45229834D01*
X110569878Y-45261000D01*
X110410122Y-45261000D01*
X110253440Y-45229834D01*
X110105849Y-45168700D01*
X110105848Y-45168700D01*
X110105847Y-45168699D01*
X109973018Y-45079945D01*
X109973015Y-45079943D01*
X109860057Y-44966985D01*
X109771300Y-44834151D01*
X109710166Y-44686560D01*
X109679000Y-44529878D01*
X109679000Y-44370122D01*
X109710166Y-44213440D01*
X109771300Y-44065849D01*
X109860057Y-43933015D01*
X109973015Y-43820057D01*
X109974787Y-43818873D01*
X110105847Y-43731301D01*
X110253440Y-43670166D01*
X110410122Y-43639000D01*
X110569878Y-43639000D01*
X110726560Y-43670166D01*
X110726560Y-43670166D01*
G37*
G36*
X59926560Y-43670166D02*
X60074153Y-43731301D01*
X60205213Y-43818873D01*
X60206985Y-43820057D01*
X60319943Y-43933015D01*
X60408700Y-44065849D01*
X60469834Y-44213440D01*
X60501000Y-44370122D01*
X60501000Y-44529878D01*
X60469834Y-44686560D01*
X60408700Y-44834151D01*
X60319943Y-44966985D01*
X60206985Y-45079943D01*
X60206982Y-45079945D01*
X60074153Y-45168699D01*
X60074152Y-45168700D01*
X60074151Y-45168700D01*
X59926560Y-45229834D01*
X59769878Y-45261000D01*
X59610122Y-45261000D01*
X59453440Y-45229834D01*
X59305849Y-45168700D01*
X59305848Y-45168700D01*
X59305847Y-45168699D01*
X59173018Y-45079945D01*
X59173015Y-45079943D01*
X59060057Y-44966985D01*
X58971300Y-44834151D01*
X58910166Y-44686560D01*
X58879000Y-44529878D01*
X58879000Y-44370122D01*
X58910166Y-44213440D01*
X58971300Y-44065849D01*
X59060057Y-43933015D01*
X59173015Y-43820057D01*
X59174787Y-43818873D01*
X59305847Y-43731301D01*
X59453440Y-43670166D01*
X59610122Y-43639000D01*
X59769878Y-43639000D01*
X59926560Y-43670166D01*
X59926560Y-43670166D01*
G37*
G36*
X57386560Y-43670166D02*
X57534153Y-43731301D01*
X57665213Y-43818873D01*
X57666985Y-43820057D01*
X57779943Y-43933015D01*
X57868700Y-44065849D01*
X57929834Y-44213440D01*
X57961000Y-44370122D01*
X57961000Y-44529878D01*
X57929834Y-44686560D01*
X57868700Y-44834151D01*
X57779943Y-44966985D01*
X57666985Y-45079943D01*
X57666982Y-45079945D01*
X57534153Y-45168699D01*
X57534152Y-45168700D01*
X57534151Y-45168700D01*
X57386560Y-45229834D01*
X57229878Y-45261000D01*
X57070122Y-45261000D01*
X56913440Y-45229834D01*
X56765849Y-45168700D01*
X56765848Y-45168700D01*
X56765847Y-45168699D01*
X56633018Y-45079945D01*
X56633015Y-45079943D01*
X56520057Y-44966985D01*
X56431300Y-44834151D01*
X56370166Y-44686560D01*
X56339000Y-44529878D01*
X56339000Y-44370122D01*
X56370166Y-44213440D01*
X56431300Y-44065849D01*
X56520057Y-43933015D01*
X56633015Y-43820057D01*
X56634787Y-43818873D01*
X56765847Y-43731301D01*
X56913440Y-43670166D01*
X57070122Y-43639000D01*
X57229878Y-43639000D01*
X57386560Y-43670166D01*
X57386560Y-43670166D01*
G37*
G36*
X54846560Y-43670166D02*
X54994153Y-43731301D01*
X55125213Y-43818873D01*
X55126985Y-43820057D01*
X55239943Y-43933015D01*
X55328700Y-44065849D01*
X55389834Y-44213440D01*
X55421000Y-44370122D01*
X55421000Y-44529878D01*
X55389834Y-44686560D01*
X55328700Y-44834151D01*
X55239943Y-44966985D01*
X55126985Y-45079943D01*
X55126982Y-45079945D01*
X54994153Y-45168699D01*
X54994152Y-45168700D01*
X54994151Y-45168700D01*
X54846560Y-45229834D01*
X54689878Y-45261000D01*
X54530122Y-45261000D01*
X54373440Y-45229834D01*
X54225849Y-45168700D01*
X54225848Y-45168700D01*
X54225847Y-45168699D01*
X54093018Y-45079945D01*
X54093015Y-45079943D01*
X53980057Y-44966985D01*
X53891300Y-44834151D01*
X53830166Y-44686560D01*
X53799000Y-44529878D01*
X53799000Y-44370122D01*
X53830166Y-44213440D01*
X53891300Y-44065849D01*
X53980057Y-43933015D01*
X54093015Y-43820057D01*
X54094787Y-43818873D01*
X54225847Y-43731301D01*
X54373440Y-43670166D01*
X54530122Y-43639000D01*
X54689878Y-43639000D01*
X54846560Y-43670166D01*
X54846560Y-43670166D01*
G37*
G36*
X100566560Y-43670166D02*
X100714153Y-43731301D01*
X100845213Y-43818873D01*
X100846985Y-43820057D01*
X100959943Y-43933015D01*
X101048700Y-44065849D01*
X101109834Y-44213440D01*
X101141000Y-44370122D01*
X101141000Y-44529878D01*
X101109834Y-44686560D01*
X101048700Y-44834151D01*
X100959943Y-44966985D01*
X100846985Y-45079943D01*
X100846982Y-45079945D01*
X100714153Y-45168699D01*
X100714152Y-45168700D01*
X100714151Y-45168700D01*
X100566560Y-45229834D01*
X100409878Y-45261000D01*
X100250122Y-45261000D01*
X100093440Y-45229834D01*
X99945849Y-45168700D01*
X99945848Y-45168700D01*
X99945847Y-45168699D01*
X99813018Y-45079945D01*
X99813015Y-45079943D01*
X99700057Y-44966985D01*
X99611300Y-44834151D01*
X99550166Y-44686560D01*
X99519000Y-44529878D01*
X99519000Y-44370122D01*
X99550166Y-44213440D01*
X99611300Y-44065849D01*
X99700057Y-43933015D01*
X99813015Y-43820057D01*
X99814787Y-43818873D01*
X99945847Y-43731301D01*
X100093440Y-43670166D01*
X100250122Y-43639000D01*
X100409878Y-43639000D01*
X100566560Y-43670166D01*
X100566560Y-43670166D01*
G37*
G36*
X103106560Y-43670166D02*
X103254153Y-43731301D01*
X103385213Y-43818873D01*
X103386985Y-43820057D01*
X103499943Y-43933015D01*
X103588700Y-44065849D01*
X103649834Y-44213440D01*
X103681000Y-44370122D01*
X103681000Y-44529878D01*
X103649834Y-44686560D01*
X103588700Y-44834151D01*
X103499943Y-44966985D01*
X103386985Y-45079943D01*
X103386982Y-45079945D01*
X103254153Y-45168699D01*
X103254152Y-45168700D01*
X103254151Y-45168700D01*
X103106560Y-45229834D01*
X102949878Y-45261000D01*
X102790122Y-45261000D01*
X102633440Y-45229834D01*
X102485849Y-45168700D01*
X102485848Y-45168700D01*
X102485847Y-45168699D01*
X102353018Y-45079945D01*
X102353015Y-45079943D01*
X102240057Y-44966985D01*
X102151300Y-44834151D01*
X102090166Y-44686560D01*
X102059000Y-44529878D01*
X102059000Y-44370122D01*
X102090166Y-44213440D01*
X102151300Y-44065849D01*
X102240057Y-43933015D01*
X102353015Y-43820057D01*
X102354787Y-43818873D01*
X102485847Y-43731301D01*
X102633440Y-43670166D01*
X102790122Y-43639000D01*
X102949878Y-43639000D01*
X103106560Y-43670166D01*
X103106560Y-43670166D01*
G37*
G36*
X105646560Y-43670166D02*
X105794153Y-43731301D01*
X105925213Y-43818873D01*
X105926985Y-43820057D01*
X106039943Y-43933015D01*
X106128700Y-44065849D01*
X106189834Y-44213440D01*
X106221000Y-44370122D01*
X106221000Y-44529878D01*
X106189834Y-44686560D01*
X106128700Y-44834151D01*
X106039943Y-44966985D01*
X105926985Y-45079943D01*
X105926982Y-45079945D01*
X105794153Y-45168699D01*
X105794152Y-45168700D01*
X105794151Y-45168700D01*
X105646560Y-45229834D01*
X105489878Y-45261000D01*
X105330122Y-45261000D01*
X105173440Y-45229834D01*
X105025849Y-45168700D01*
X105025848Y-45168700D01*
X105025847Y-45168699D01*
X104893018Y-45079945D01*
X104893015Y-45079943D01*
X104780057Y-44966985D01*
X104691300Y-44834151D01*
X104630166Y-44686560D01*
X104599000Y-44529878D01*
X104599000Y-44370122D01*
X104630166Y-44213440D01*
X104691300Y-44065849D01*
X104780057Y-43933015D01*
X104893015Y-43820057D01*
X104894787Y-43818873D01*
X105025847Y-43731301D01*
X105173440Y-43670166D01*
X105330122Y-43639000D01*
X105489878Y-43639000D01*
X105646560Y-43670166D01*
X105646560Y-43670166D01*
G37*
G36*
X108186560Y-43670166D02*
X108334153Y-43731301D01*
X108465213Y-43818873D01*
X108466985Y-43820057D01*
X108579943Y-43933015D01*
X108668700Y-44065849D01*
X108729834Y-44213440D01*
X108761000Y-44370122D01*
X108761000Y-44529878D01*
X108729834Y-44686560D01*
X108668700Y-44834151D01*
X108579943Y-44966985D01*
X108466985Y-45079943D01*
X108466982Y-45079945D01*
X108334153Y-45168699D01*
X108334152Y-45168700D01*
X108334151Y-45168700D01*
X108186560Y-45229834D01*
X108029878Y-45261000D01*
X107870122Y-45261000D01*
X107713440Y-45229834D01*
X107565849Y-45168700D01*
X107565848Y-45168700D01*
X107565847Y-45168699D01*
X107433018Y-45079945D01*
X107433015Y-45079943D01*
X107320057Y-44966985D01*
X107231300Y-44834151D01*
X107170166Y-44686560D01*
X107139000Y-44529878D01*
X107139000Y-44370122D01*
X107170166Y-44213440D01*
X107231300Y-44065849D01*
X107320057Y-43933015D01*
X107433015Y-43820057D01*
X107434787Y-43818873D01*
X107565847Y-43731301D01*
X107713440Y-43670166D01*
X107870122Y-43639000D01*
X108029878Y-43639000D01*
X108186560Y-43670166D01*
X108186560Y-43670166D01*
G37*
G36*
X113266560Y-43670166D02*
X113414153Y-43731301D01*
X113545213Y-43818873D01*
X113546985Y-43820057D01*
X113659943Y-43933015D01*
X113748700Y-44065849D01*
X113809834Y-44213440D01*
X113841000Y-44370122D01*
X113841000Y-44529878D01*
X113809834Y-44686560D01*
X113748700Y-44834151D01*
X113659943Y-44966985D01*
X113546985Y-45079943D01*
X113546982Y-45079945D01*
X113414153Y-45168699D01*
X113414152Y-45168700D01*
X113414151Y-45168700D01*
X113266560Y-45229834D01*
X113109878Y-45261000D01*
X112950122Y-45261000D01*
X112793440Y-45229834D01*
X112645849Y-45168700D01*
X112645848Y-45168700D01*
X112645847Y-45168699D01*
X112513018Y-45079945D01*
X112513015Y-45079943D01*
X112400057Y-44966985D01*
X112311300Y-44834151D01*
X112250166Y-44686560D01*
X112219000Y-44529878D01*
X112219000Y-44370122D01*
X112250166Y-44213440D01*
X112311300Y-44065849D01*
X112400057Y-43933015D01*
X112513015Y-43820057D01*
X112514787Y-43818873D01*
X112645847Y-43731301D01*
X112793440Y-43670166D01*
X112950122Y-43639000D01*
X113109878Y-43639000D01*
X113266560Y-43670166D01*
X113266560Y-43670166D01*
G37*
G36*
X76788908Y-35829380D02*
X76955767Y-35862570D01*
X77427299Y-36057885D01*
X77637746Y-36198502D01*
X77851669Y-36341441D01*
X78212559Y-36702331D01*
X78212561Y-36702334D01*
X78496115Y-37126701D01*
X78691430Y-37598233D01*
X78791000Y-38098809D01*
X78791000Y-38609191D01*
X78691430Y-39109767D01*
X78496115Y-39581299D01*
X78214474Y-40002803D01*
X78212559Y-40005669D01*
X77851669Y-40366559D01*
X77851666Y-40366561D01*
X77427299Y-40650115D01*
X76955767Y-40845430D01*
X76788908Y-40878620D01*
X76455193Y-40945000D01*
X75944807Y-40945000D01*
X75611092Y-40878620D01*
X75444233Y-40845430D01*
X74972701Y-40650115D01*
X74548334Y-40366561D01*
X74548331Y-40366559D01*
X74187441Y-40005669D01*
X74185526Y-40002803D01*
X73903885Y-39581299D01*
X73708570Y-39109767D01*
X73609000Y-38609191D01*
X73609000Y-38098809D01*
X73708570Y-37598233D01*
X73903885Y-37126701D01*
X74187439Y-36702334D01*
X74187441Y-36702331D01*
X74548331Y-36341441D01*
X74762254Y-36198502D01*
X74972701Y-36057885D01*
X75444233Y-35862570D01*
X75611092Y-35829380D01*
X75944807Y-35763000D01*
X76455193Y-35763000D01*
X76788908Y-35829380D01*
X76788908Y-35829380D01*
G37*
G36*
X67547142Y-36048242D02*
X67695102Y-36109530D01*
X67828258Y-36198502D01*
X67941498Y-36311742D01*
X68030470Y-36444898D01*
X68091758Y-36592858D01*
X68123000Y-36749925D01*
X68123000Y-36910075D01*
X68091758Y-37067142D01*
X68030470Y-37215102D01*
X67941498Y-37348258D01*
X67828258Y-37461498D01*
X67695102Y-37550470D01*
X67547142Y-37611758D01*
X67390075Y-37643000D01*
X67229925Y-37643000D01*
X67072858Y-37611758D01*
X66924898Y-37550470D01*
X66791742Y-37461498D01*
X66678502Y-37348258D01*
X66589530Y-37215102D01*
X66528242Y-37067142D01*
X66497000Y-36910075D01*
X66497000Y-36749925D01*
X66528242Y-36592858D01*
X66589530Y-36444898D01*
X66678502Y-36311742D01*
X66791742Y-36198502D01*
X66924898Y-36109530D01*
X67072858Y-36048242D01*
X67229925Y-36017000D01*
X67390075Y-36017000D01*
X67547142Y-36048242D01*
X67547142Y-36048242D01*
G37*
G36*
X67547142Y-33508242D02*
X67695102Y-33569530D01*
X67828258Y-33658502D01*
X67941498Y-33771742D01*
X68030470Y-33904898D01*
X68091758Y-34052858D01*
X68123000Y-34209925D01*
X68123000Y-34370075D01*
X68091758Y-34527142D01*
X68030470Y-34675102D01*
X67941498Y-34808258D01*
X67828258Y-34921498D01*
X67695102Y-35010470D01*
X67547142Y-35071758D01*
X67390075Y-35103000D01*
X67229925Y-35103000D01*
X67072858Y-35071758D01*
X66924898Y-35010470D01*
X66791742Y-34921498D01*
X66678502Y-34808258D01*
X66589530Y-34675102D01*
X66528242Y-34527142D01*
X66497000Y-34370075D01*
X66497000Y-34209925D01*
X66528242Y-34052858D01*
X66589530Y-33904898D01*
X66678502Y-33771742D01*
X66791742Y-33658502D01*
X66924898Y-33569530D01*
X67072858Y-33508242D01*
X67229925Y-33477000D01*
X67390075Y-33477000D01*
X67547142Y-33508242D01*
X67547142Y-33508242D01*
G37*
G36*
X45415377Y-31393007D02*
X45562613Y-31422294D01*
X45839999Y-31537191D01*
X46038649Y-31669925D01*
X46089644Y-31703999D01*
X46301941Y-31916296D01*
X46301943Y-31916299D01*
X46468749Y-32165941D01*
X46583646Y-32443327D01*
X46642220Y-32737799D01*
X46642220Y-33038041D01*
X46583646Y-33332513D01*
X46468749Y-33609899D01*
X46360608Y-33771743D01*
X46301941Y-33859544D01*
X46089644Y-34071841D01*
X46089641Y-34071843D01*
X45839999Y-34238649D01*
X45562613Y-34353546D01*
X45415377Y-34382833D01*
X45268142Y-34412120D01*
X44967898Y-34412120D01*
X44820663Y-34382833D01*
X44673427Y-34353546D01*
X44396041Y-34238649D01*
X44146399Y-34071843D01*
X44146396Y-34071841D01*
X43934099Y-33859544D01*
X43875432Y-33771743D01*
X43767291Y-33609899D01*
X43652394Y-33332513D01*
X43593820Y-33038041D01*
X43593820Y-32737799D01*
X43652394Y-32443327D01*
X43767291Y-32165941D01*
X43934097Y-31916299D01*
X43934099Y-31916296D01*
X44146396Y-31703999D01*
X44197391Y-31669925D01*
X44396041Y-31537191D01*
X44673427Y-31422294D01*
X44820663Y-31393007D01*
X44967898Y-31363720D01*
X45268142Y-31363720D01*
X45415377Y-31393007D01*
X45415377Y-31393007D01*
G37*
G36*
X76788908Y-27955380D02*
X76955767Y-27988570D01*
X77427299Y-28183885D01*
X77848803Y-28465526D01*
X77851669Y-28467441D01*
X78212559Y-28828331D01*
X78212561Y-28828334D01*
X78496115Y-29252701D01*
X78496115Y-29252702D01*
X78691430Y-29724234D01*
X78791000Y-30224807D01*
X78791000Y-30735193D01*
X78732453Y-31029529D01*
X78691430Y-31235767D01*
X78496115Y-31707299D01*
X78214474Y-32128803D01*
X78212559Y-32131669D01*
X77851669Y-32492559D01*
X77851666Y-32492561D01*
X77427299Y-32776115D01*
X76955767Y-32971430D01*
X76788908Y-33004620D01*
X76455193Y-33071000D01*
X75944807Y-33071000D01*
X75611092Y-33004620D01*
X75444233Y-32971430D01*
X74972701Y-32776115D01*
X74548334Y-32492561D01*
X74548331Y-32492559D01*
X74187441Y-32131669D01*
X74185526Y-32128803D01*
X73903885Y-31707299D01*
X73708570Y-31235767D01*
X73667547Y-31029529D01*
X73609000Y-30735193D01*
X73609000Y-30224807D01*
X73708570Y-29724234D01*
X73903885Y-29252702D01*
X73903885Y-29252701D01*
X74187439Y-28828334D01*
X74187441Y-28828331D01*
X74548331Y-28467441D01*
X74551197Y-28465526D01*
X74972701Y-28183885D01*
X75444233Y-27988570D01*
X75611092Y-27955380D01*
X75944807Y-27889000D01*
X76455193Y-27889000D01*
X76788908Y-27955380D01*
X76788908Y-27955380D01*
G37*
G36*
X67547142Y-30968242D02*
X67695102Y-31029530D01*
X67762130Y-31074317D01*
X67828257Y-31118501D01*
X67941499Y-31231743D01*
X67985683Y-31297870D01*
X68030470Y-31364898D01*
X68091758Y-31512858D01*
X68123000Y-31669925D01*
X68123000Y-31830075D01*
X68091758Y-31987142D01*
X68030470Y-32135102D01*
X67941498Y-32268258D01*
X67828258Y-32381498D01*
X67695102Y-32470470D01*
X67547142Y-32531758D01*
X67390075Y-32563000D01*
X67229925Y-32563000D01*
X67072858Y-32531758D01*
X66924898Y-32470470D01*
X66791742Y-32381498D01*
X66678502Y-32268258D01*
X66589530Y-32135102D01*
X66528242Y-31987142D01*
X66497000Y-31830075D01*
X66497000Y-31669925D01*
X66528242Y-31512858D01*
X66589530Y-31364898D01*
X66634317Y-31297870D01*
X66678501Y-31231743D01*
X66791743Y-31118501D01*
X66857870Y-31074317D01*
X66924898Y-31029530D01*
X67072858Y-30968242D01*
X67229925Y-30937000D01*
X67390075Y-30937000D01*
X67547142Y-30968242D01*
X67547142Y-30968242D01*
G37*
G36*
X96757142Y-22078242D02*
X96905102Y-22139530D01*
X97038258Y-22228502D01*
X97151498Y-22341742D01*
X97240470Y-22474898D01*
X97301758Y-22622858D01*
X97333000Y-22779925D01*
X97333000Y-22940075D01*
X97301758Y-23097142D01*
X97240470Y-23245102D01*
X97151498Y-23378258D01*
X97038258Y-23491498D01*
X96905102Y-23580470D01*
X96757142Y-23641758D01*
X96600075Y-23673000D01*
X96439925Y-23673000D01*
X96282858Y-23641758D01*
X96134898Y-23580470D01*
X96001742Y-23491498D01*
X95888502Y-23378258D01*
X95799530Y-23245102D01*
X95738242Y-23097142D01*
X95707000Y-22940075D01*
X95707000Y-22779925D01*
X95738242Y-22622858D01*
X95799530Y-22474898D01*
X95888502Y-22341742D01*
X96001742Y-22228502D01*
X96134898Y-22139530D01*
X96282858Y-22078242D01*
X96439925Y-22047000D01*
X96600075Y-22047000D01*
X96757142Y-22078242D01*
X96757142Y-22078242D01*
G37*
G36*
X50228677Y-19640427D02*
X50375913Y-19669714D01*
X50653299Y-19784611D01*
X50878219Y-19934898D01*
X50902944Y-19951419D01*
X51115241Y-20163716D01*
X51115243Y-20163719D01*
X51282049Y-20413361D01*
X51282049Y-20413362D01*
X51396946Y-20690748D01*
X51448813Y-20951498D01*
X51455520Y-20985219D01*
X51455520Y-21285461D01*
X51396946Y-21579933D01*
X51282049Y-21857319D01*
X51155308Y-22047000D01*
X51115241Y-22106964D01*
X50902944Y-22319261D01*
X50902941Y-22319263D01*
X50653299Y-22486069D01*
X50375913Y-22600966D01*
X50265859Y-22622857D01*
X50081442Y-22659540D01*
X49781198Y-22659540D01*
X49596781Y-22622857D01*
X49486727Y-22600966D01*
X49209341Y-22486069D01*
X48959699Y-22319263D01*
X48959696Y-22319261D01*
X48747399Y-22106964D01*
X48707332Y-22047000D01*
X48580591Y-21857319D01*
X48465694Y-21579933D01*
X48407120Y-21285461D01*
X48407120Y-20985219D01*
X48413828Y-20951498D01*
X48465694Y-20690748D01*
X48580591Y-20413362D01*
X48580591Y-20413361D01*
X48747397Y-20163719D01*
X48747399Y-20163716D01*
X48959696Y-19951419D01*
X48984421Y-19934898D01*
X49209341Y-19784611D01*
X49486727Y-19669714D01*
X49633963Y-19640427D01*
X49781198Y-19611140D01*
X50081442Y-19611140D01*
X50228677Y-19640427D01*
X50228677Y-19640427D01*
G37*
G36*
X96757142Y-19538242D02*
X96905102Y-19599530D01*
X97038258Y-19688502D01*
X97151498Y-19801742D01*
X97240470Y-19934898D01*
X97301758Y-20082858D01*
X97333000Y-20239925D01*
X97333000Y-20400075D01*
X97301758Y-20557142D01*
X97254354Y-20671583D01*
X97240471Y-20705100D01*
X97151499Y-20838257D01*
X97038257Y-20951499D01*
X96987791Y-20985219D01*
X96905102Y-21040470D01*
X96757142Y-21101758D01*
X96600075Y-21133000D01*
X96439925Y-21133000D01*
X96282858Y-21101758D01*
X96134898Y-21040470D01*
X96052209Y-20985219D01*
X96001743Y-20951499D01*
X95888501Y-20838257D01*
X95799529Y-20705100D01*
X95785646Y-20671583D01*
X95738242Y-20557142D01*
X95707000Y-20400075D01*
X95707000Y-20239925D01*
X95738242Y-20082858D01*
X95799530Y-19934898D01*
X95888502Y-19801742D01*
X96001742Y-19688502D01*
X96134898Y-19599530D01*
X96282858Y-19538242D01*
X96439925Y-19507000D01*
X96600075Y-19507000D01*
X96757142Y-19538242D01*
X96757142Y-19538242D01*
G37*
G36*
X96757142Y-16998242D02*
X96905102Y-17059530D01*
X97038258Y-17148502D01*
X97151498Y-17261742D01*
X97240470Y-17394898D01*
X97301758Y-17542858D01*
X97333000Y-17699925D01*
X97333000Y-17860075D01*
X97301758Y-18017142D01*
X97240470Y-18165102D01*
X97151498Y-18298258D01*
X97038258Y-18411498D01*
X96905102Y-18500470D01*
X96757142Y-18561758D01*
X96600075Y-18593000D01*
X96439925Y-18593000D01*
X96282858Y-18561758D01*
X96134898Y-18500470D01*
X96001742Y-18411498D01*
X95888502Y-18298258D01*
X95799530Y-18165102D01*
X95738242Y-18017142D01*
X95707000Y-17860075D01*
X95707000Y-17699925D01*
X95738242Y-17542858D01*
X95799530Y-17394898D01*
X95888502Y-17261742D01*
X96001742Y-17148502D01*
X96134898Y-17059530D01*
X96282858Y-16998242D01*
X96439925Y-16967000D01*
X96600075Y-16967000D01*
X96757142Y-16998242D01*
X96757142Y-16998242D01*
G37*
G36*
X3104057Y-14067667D02*
X3251293Y-14096954D01*
X3528679Y-14211851D01*
X3776638Y-14377533D01*
X3778324Y-14378659D01*
X3990621Y-14590956D01*
X3990623Y-14590959D01*
X4157429Y-14840601D01*
X4224638Y-15002858D01*
X4272326Y-15117988D01*
X4330900Y-15412458D01*
X4330900Y-15712702D01*
X4321838Y-15758258D01*
X4272326Y-16007173D01*
X4157429Y-16284559D01*
X3991747Y-16532518D01*
X3990621Y-16534204D01*
X3778324Y-16746501D01*
X3778321Y-16746503D01*
X3528679Y-16913309D01*
X3251293Y-17028206D01*
X3104057Y-17057493D01*
X2956822Y-17086780D01*
X2656578Y-17086780D01*
X2509343Y-17057493D01*
X2362107Y-17028206D01*
X2084721Y-16913309D01*
X1835079Y-16746503D01*
X1835076Y-16746501D01*
X1622779Y-16534204D01*
X1621653Y-16532518D01*
X1455971Y-16284559D01*
X1341074Y-16007173D01*
X1291562Y-15758258D01*
X1282500Y-15712702D01*
X1282500Y-15412458D01*
X1341074Y-15117988D01*
X1388762Y-15002858D01*
X1455971Y-14840601D01*
X1622777Y-14590959D01*
X1622779Y-14590956D01*
X1835076Y-14378659D01*
X1836762Y-14377533D01*
X2084721Y-14211851D01*
X2362107Y-14096954D01*
X2509343Y-14067667D01*
X2656578Y-14038380D01*
X2956822Y-14038380D01*
X3104057Y-14067667D01*
X3104057Y-14067667D01*
G37*
G36*
X96757142Y-14458242D02*
X96905102Y-14519530D01*
X97038258Y-14608502D01*
X97151498Y-14721742D01*
X97240470Y-14854898D01*
X97301758Y-15002858D01*
X97333000Y-15159925D01*
X97333000Y-15320075D01*
X97301758Y-15477142D01*
X97240470Y-15625102D01*
X97151498Y-15758258D01*
X97038258Y-15871498D01*
X96905102Y-15960470D01*
X96757142Y-16021758D01*
X96600075Y-16053000D01*
X96439925Y-16053000D01*
X96282858Y-16021758D01*
X96134898Y-15960470D01*
X96001742Y-15871498D01*
X95888502Y-15758258D01*
X95799530Y-15625102D01*
X95738242Y-15477142D01*
X95707000Y-15320075D01*
X95707000Y-15159925D01*
X95738242Y-15002858D01*
X95799530Y-14854898D01*
X95888502Y-14721742D01*
X96001742Y-14608502D01*
X96134898Y-14519530D01*
X96282858Y-14458242D01*
X96439925Y-14427000D01*
X96600075Y-14427000D01*
X96757142Y-14458242D01*
X96757142Y-14458242D01*
G37*
G36*
X96757142Y-11918242D02*
X96905102Y-11979530D01*
X97038258Y-12068502D01*
X97151498Y-12181742D01*
X97240470Y-12314898D01*
X97301758Y-12462858D01*
X97333000Y-12619925D01*
X97333000Y-12780075D01*
X97301758Y-12937142D01*
X97240470Y-13085102D01*
X97151498Y-13218258D01*
X97038258Y-13331498D01*
X96905102Y-13420470D01*
X96757142Y-13481758D01*
X96600075Y-13513000D01*
X96439925Y-13513000D01*
X96282858Y-13481758D01*
X96134898Y-13420470D01*
X96001742Y-13331498D01*
X95888502Y-13218258D01*
X95799530Y-13085102D01*
X95738242Y-12937142D01*
X95707000Y-12780075D01*
X95707000Y-12619925D01*
X95738242Y-12462858D01*
X95799530Y-12314898D01*
X95888502Y-12181742D01*
X96001742Y-12068502D01*
X96134898Y-11979530D01*
X96282858Y-11918242D01*
X96439925Y-11887000D01*
X96600075Y-11887000D01*
X96757142Y-11918242D01*
X96757142Y-11918242D01*
G37*
G36*
X96757142Y-9378242D02*
X96905102Y-9439530D01*
X97038258Y-9528502D01*
X97151498Y-9641742D01*
X97240470Y-9774898D01*
X97301758Y-9922858D01*
X97333000Y-10079925D01*
X97333000Y-10240075D01*
X97301758Y-10397142D01*
X97240470Y-10545102D01*
X97151498Y-10678258D01*
X97038258Y-10791498D01*
X96905102Y-10880470D01*
X96757142Y-10941758D01*
X96600075Y-10973000D01*
X96439925Y-10973000D01*
X96282858Y-10941758D01*
X96134898Y-10880470D01*
X96001742Y-10791498D01*
X95888502Y-10678258D01*
X95799530Y-10545102D01*
X95738242Y-10397142D01*
X95707000Y-10240075D01*
X95707000Y-10079925D01*
X95738242Y-9922858D01*
X95799530Y-9774898D01*
X95888502Y-9641742D01*
X96001742Y-9528502D01*
X96134898Y-9439530D01*
X96282858Y-9378242D01*
X96439925Y-9347000D01*
X96600075Y-9347000D01*
X96757142Y-9378242D01*
X96757142Y-9378242D01*
G37*
G36*
X96757142Y-6838242D02*
X96905102Y-6899530D01*
X97038258Y-6988502D01*
X97151498Y-7101742D01*
X97240470Y-7234898D01*
X97301758Y-7382858D01*
X97333000Y-7539925D01*
X97333000Y-7700075D01*
X97301758Y-7857142D01*
X97240470Y-8005102D01*
X97151498Y-8138258D01*
X97038258Y-8251498D01*
X96905102Y-8340470D01*
X96757142Y-8401758D01*
X96600075Y-8433000D01*
X96439925Y-8433000D01*
X96282858Y-8401758D01*
X96134898Y-8340470D01*
X96001742Y-8251498D01*
X95888502Y-8138258D01*
X95799530Y-8005102D01*
X95738242Y-7857142D01*
X95707000Y-7700075D01*
X95707000Y-7539925D01*
X95738242Y-7382858D01*
X95799530Y-7234898D01*
X95888502Y-7101742D01*
X96001742Y-6988502D01*
X96134898Y-6899530D01*
X96282858Y-6838242D01*
X96439925Y-6807000D01*
X96600075Y-6807000D01*
X96757142Y-6838242D01*
X96757142Y-6838242D01*
G37*
G36*
X7917357Y-2315087D02*
X8064593Y-2344374D01*
X8341979Y-2459271D01*
X8589938Y-2624953D01*
X8591624Y-2626079D01*
X8803921Y-2838376D01*
X8803923Y-2838379D01*
X8970729Y-3088021D01*
X9085626Y-3365407D01*
X9144200Y-3659879D01*
X9144200Y-3960121D01*
X9085626Y-4254593D01*
X8970729Y-4531979D01*
X8805047Y-4779938D01*
X8803921Y-4781624D01*
X8591624Y-4993921D01*
X8591621Y-4993923D01*
X8341979Y-5160729D01*
X8064593Y-5275626D01*
X7917357Y-5304913D01*
X7770122Y-5334200D01*
X7469878Y-5334200D01*
X7322643Y-5304913D01*
X7175407Y-5275626D01*
X6898021Y-5160729D01*
X6648379Y-4993923D01*
X6648376Y-4993921D01*
X6436079Y-4781624D01*
X6434953Y-4779938D01*
X6269271Y-4531979D01*
X6154374Y-4254593D01*
X6095800Y-3960121D01*
X6095800Y-3659879D01*
X6154374Y-3365407D01*
X6269271Y-3088021D01*
X6436077Y-2838379D01*
X6436079Y-2838376D01*
X6648376Y-2626079D01*
X6650062Y-2624953D01*
X6898021Y-2459271D01*
X7175407Y-2344374D01*
X7322643Y-2315087D01*
X7469878Y-2285800D01*
X7770122Y-2285800D01*
X7917357Y-2315087D01*
X7917357Y-2315087D01*
G37*
G36*
X113266560Y-3030166D02*
X113406235Y-3088021D01*
X113414153Y-3091301D01*
X113545213Y-3178873D01*
X113546985Y-3180057D01*
X113659943Y-3293015D01*
X113748700Y-3425849D01*
X113809834Y-3573440D01*
X113841000Y-3730122D01*
X113841000Y-3889878D01*
X113809834Y-4046560D01*
X113748700Y-4194151D01*
X113659943Y-4326985D01*
X113546985Y-4439943D01*
X113546982Y-4439945D01*
X113414153Y-4528699D01*
X113414152Y-4528700D01*
X113414151Y-4528700D01*
X113266560Y-4589834D01*
X113109878Y-4621000D01*
X112950122Y-4621000D01*
X112793440Y-4589834D01*
X112645849Y-4528700D01*
X112645848Y-4528700D01*
X112645847Y-4528699D01*
X112513018Y-4439945D01*
X112513015Y-4439943D01*
X112400057Y-4326985D01*
X112311300Y-4194151D01*
X112250166Y-4046560D01*
X112219000Y-3889878D01*
X112219000Y-3730122D01*
X112250166Y-3573440D01*
X112311300Y-3425849D01*
X112400057Y-3293015D01*
X112513015Y-3180057D01*
X112514787Y-3178873D01*
X112645847Y-3091301D01*
X112653766Y-3088021D01*
X112793440Y-3030166D01*
X112950122Y-2999000D01*
X113109878Y-2999000D01*
X113266560Y-3030166D01*
X113266560Y-3030166D01*
G37*
G36*
X52306560Y-3030166D02*
X52446235Y-3088021D01*
X52454153Y-3091301D01*
X52585213Y-3178873D01*
X52586985Y-3180057D01*
X52699943Y-3293015D01*
X52788700Y-3425849D01*
X52849834Y-3573440D01*
X52881000Y-3730122D01*
X52881000Y-3889878D01*
X52849834Y-4046560D01*
X52788700Y-4194151D01*
X52699943Y-4326985D01*
X52586985Y-4439943D01*
X52586982Y-4439945D01*
X52454153Y-4528699D01*
X52454152Y-4528700D01*
X52454151Y-4528700D01*
X52306560Y-4589834D01*
X52149878Y-4621000D01*
X51990122Y-4621000D01*
X51833440Y-4589834D01*
X51685849Y-4528700D01*
X51685848Y-4528700D01*
X51685847Y-4528699D01*
X51553018Y-4439945D01*
X51553015Y-4439943D01*
X51440057Y-4326985D01*
X51351300Y-4194151D01*
X51290166Y-4046560D01*
X51259000Y-3889878D01*
X51259000Y-3730122D01*
X51290166Y-3573440D01*
X51351300Y-3425849D01*
X51440057Y-3293015D01*
X51553015Y-3180057D01*
X51554787Y-3178873D01*
X51685847Y-3091301D01*
X51693766Y-3088021D01*
X51833440Y-3030166D01*
X51990122Y-2999000D01*
X52149878Y-2999000D01*
X52306560Y-3030166D01*
X52306560Y-3030166D01*
G37*
G36*
X110726560Y-3030166D02*
X110866235Y-3088021D01*
X110874153Y-3091301D01*
X111005213Y-3178873D01*
X111006985Y-3180057D01*
X111119943Y-3293015D01*
X111208700Y-3425849D01*
X111269834Y-3573440D01*
X111301000Y-3730122D01*
X111301000Y-3889878D01*
X111269834Y-4046560D01*
X111208700Y-4194151D01*
X111119943Y-4326985D01*
X111006985Y-4439943D01*
X111006982Y-4439945D01*
X110874153Y-4528699D01*
X110874152Y-4528700D01*
X110874151Y-4528700D01*
X110726560Y-4589834D01*
X110569878Y-4621000D01*
X110410122Y-4621000D01*
X110253440Y-4589834D01*
X110105849Y-4528700D01*
X110105848Y-4528700D01*
X110105847Y-4528699D01*
X109973018Y-4439945D01*
X109973015Y-4439943D01*
X109860057Y-4326985D01*
X109771300Y-4194151D01*
X109710166Y-4046560D01*
X109679000Y-3889878D01*
X109679000Y-3730122D01*
X109710166Y-3573440D01*
X109771300Y-3425849D01*
X109860057Y-3293015D01*
X109973015Y-3180057D01*
X109974787Y-3178873D01*
X110105847Y-3091301D01*
X110113766Y-3088021D01*
X110253440Y-3030166D01*
X110410122Y-2999000D01*
X110569878Y-2999000D01*
X110726560Y-3030166D01*
X110726560Y-3030166D01*
G37*
G36*
X108186560Y-3030166D02*
X108326235Y-3088021D01*
X108334153Y-3091301D01*
X108465213Y-3178873D01*
X108466985Y-3180057D01*
X108579943Y-3293015D01*
X108668700Y-3425849D01*
X108729834Y-3573440D01*
X108761000Y-3730122D01*
X108761000Y-3889878D01*
X108729834Y-4046560D01*
X108668700Y-4194151D01*
X108579943Y-4326985D01*
X108466985Y-4439943D01*
X108466982Y-4439945D01*
X108334153Y-4528699D01*
X108334152Y-4528700D01*
X108334151Y-4528700D01*
X108186560Y-4589834D01*
X108029878Y-4621000D01*
X107870122Y-4621000D01*
X107713440Y-4589834D01*
X107565849Y-4528700D01*
X107565848Y-4528700D01*
X107565847Y-4528699D01*
X107433018Y-4439945D01*
X107433015Y-4439943D01*
X107320057Y-4326985D01*
X107231300Y-4194151D01*
X107170166Y-4046560D01*
X107139000Y-3889878D01*
X107139000Y-3730122D01*
X107170166Y-3573440D01*
X107231300Y-3425849D01*
X107320057Y-3293015D01*
X107433015Y-3180057D01*
X107434787Y-3178873D01*
X107565847Y-3091301D01*
X107573766Y-3088021D01*
X107713440Y-3030166D01*
X107870122Y-2999000D01*
X108029878Y-2999000D01*
X108186560Y-3030166D01*
X108186560Y-3030166D01*
G37*
G36*
X105646560Y-3030166D02*
X105786235Y-3088021D01*
X105794153Y-3091301D01*
X105925213Y-3178873D01*
X105926985Y-3180057D01*
X106039943Y-3293015D01*
X106128700Y-3425849D01*
X106189834Y-3573440D01*
X106221000Y-3730122D01*
X106221000Y-3889878D01*
X106189834Y-4046560D01*
X106128700Y-4194151D01*
X106039943Y-4326985D01*
X105926985Y-4439943D01*
X105926982Y-4439945D01*
X105794153Y-4528699D01*
X105794152Y-4528700D01*
X105794151Y-4528700D01*
X105646560Y-4589834D01*
X105489878Y-4621000D01*
X105330122Y-4621000D01*
X105173440Y-4589834D01*
X105025849Y-4528700D01*
X105025848Y-4528700D01*
X105025847Y-4528699D01*
X104893018Y-4439945D01*
X104893015Y-4439943D01*
X104780057Y-4326985D01*
X104691300Y-4194151D01*
X104630166Y-4046560D01*
X104599000Y-3889878D01*
X104599000Y-3730122D01*
X104630166Y-3573440D01*
X104691300Y-3425849D01*
X104780057Y-3293015D01*
X104893015Y-3180057D01*
X104894787Y-3178873D01*
X105025847Y-3091301D01*
X105033766Y-3088021D01*
X105173440Y-3030166D01*
X105330122Y-2999000D01*
X105489878Y-2999000D01*
X105646560Y-3030166D01*
X105646560Y-3030166D01*
G37*
G36*
X103106560Y-3030166D02*
X103246235Y-3088021D01*
X103254153Y-3091301D01*
X103385213Y-3178873D01*
X103386985Y-3180057D01*
X103499943Y-3293015D01*
X103588700Y-3425849D01*
X103649834Y-3573440D01*
X103681000Y-3730122D01*
X103681000Y-3889878D01*
X103649834Y-4046560D01*
X103588700Y-4194151D01*
X103499943Y-4326985D01*
X103386985Y-4439943D01*
X103386982Y-4439945D01*
X103254153Y-4528699D01*
X103254152Y-4528700D01*
X103254151Y-4528700D01*
X103106560Y-4589834D01*
X102949878Y-4621000D01*
X102790122Y-4621000D01*
X102633440Y-4589834D01*
X102485849Y-4528700D01*
X102485848Y-4528700D01*
X102485847Y-4528699D01*
X102353018Y-4439945D01*
X102353015Y-4439943D01*
X102240057Y-4326985D01*
X102151300Y-4194151D01*
X102090166Y-4046560D01*
X102059000Y-3889878D01*
X102059000Y-3730122D01*
X102090166Y-3573440D01*
X102151300Y-3425849D01*
X102240057Y-3293015D01*
X102353015Y-3180057D01*
X102354787Y-3178873D01*
X102485847Y-3091301D01*
X102493766Y-3088021D01*
X102633440Y-3030166D01*
X102790122Y-2999000D01*
X102949878Y-2999000D01*
X103106560Y-3030166D01*
X103106560Y-3030166D01*
G37*
G36*
X100566560Y-3030166D02*
X100706235Y-3088021D01*
X100714153Y-3091301D01*
X100845213Y-3178873D01*
X100846985Y-3180057D01*
X100959943Y-3293015D01*
X101048700Y-3425849D01*
X101109834Y-3573440D01*
X101141000Y-3730122D01*
X101141000Y-3889878D01*
X101109834Y-4046560D01*
X101048700Y-4194151D01*
X100959943Y-4326985D01*
X100846985Y-4439943D01*
X100846982Y-4439945D01*
X100714153Y-4528699D01*
X100714152Y-4528700D01*
X100714151Y-4528700D01*
X100566560Y-4589834D01*
X100409878Y-4621000D01*
X100250122Y-4621000D01*
X100093440Y-4589834D01*
X99945849Y-4528700D01*
X99945848Y-4528700D01*
X99945847Y-4528699D01*
X99813018Y-4439945D01*
X99813015Y-4439943D01*
X99700057Y-4326985D01*
X99611300Y-4194151D01*
X99550166Y-4046560D01*
X99519000Y-3889878D01*
X99519000Y-3730122D01*
X99550166Y-3573440D01*
X99611300Y-3425849D01*
X99700057Y-3293015D01*
X99813015Y-3180057D01*
X99814787Y-3178873D01*
X99945847Y-3091301D01*
X99953766Y-3088021D01*
X100093440Y-3030166D01*
X100250122Y-2999000D01*
X100409878Y-2999000D01*
X100566560Y-3030166D01*
X100566560Y-3030166D01*
G37*
G36*
X54846560Y-3030166D02*
X54986235Y-3088021D01*
X54994153Y-3091301D01*
X55125213Y-3178873D01*
X55126985Y-3180057D01*
X55239943Y-3293015D01*
X55328700Y-3425849D01*
X55389834Y-3573440D01*
X55421000Y-3730122D01*
X55421000Y-3889878D01*
X55389834Y-4046560D01*
X55328700Y-4194151D01*
X55239943Y-4326985D01*
X55126985Y-4439943D01*
X55126982Y-4439945D01*
X54994153Y-4528699D01*
X54994152Y-4528700D01*
X54994151Y-4528700D01*
X54846560Y-4589834D01*
X54689878Y-4621000D01*
X54530122Y-4621000D01*
X54373440Y-4589834D01*
X54225849Y-4528700D01*
X54225848Y-4528700D01*
X54225847Y-4528699D01*
X54093018Y-4439945D01*
X54093015Y-4439943D01*
X53980057Y-4326985D01*
X53891300Y-4194151D01*
X53830166Y-4046560D01*
X53799000Y-3889878D01*
X53799000Y-3730122D01*
X53830166Y-3573440D01*
X53891300Y-3425849D01*
X53980057Y-3293015D01*
X54093015Y-3180057D01*
X54094787Y-3178873D01*
X54225847Y-3091301D01*
X54233766Y-3088021D01*
X54373440Y-3030166D01*
X54530122Y-2999000D01*
X54689878Y-2999000D01*
X54846560Y-3030166D01*
X54846560Y-3030166D01*
G37*
G36*
X57386560Y-3030166D02*
X57526235Y-3088021D01*
X57534153Y-3091301D01*
X57665213Y-3178873D01*
X57666985Y-3180057D01*
X57779943Y-3293015D01*
X57868700Y-3425849D01*
X57929834Y-3573440D01*
X57961000Y-3730122D01*
X57961000Y-3889878D01*
X57929834Y-4046560D01*
X57868700Y-4194151D01*
X57779943Y-4326985D01*
X57666985Y-4439943D01*
X57666982Y-4439945D01*
X57534153Y-4528699D01*
X57534152Y-4528700D01*
X57534151Y-4528700D01*
X57386560Y-4589834D01*
X57229878Y-4621000D01*
X57070122Y-4621000D01*
X56913440Y-4589834D01*
X56765849Y-4528700D01*
X56765848Y-4528700D01*
X56765847Y-4528699D01*
X56633018Y-4439945D01*
X56633015Y-4439943D01*
X56520057Y-4326985D01*
X56431300Y-4194151D01*
X56370166Y-4046560D01*
X56339000Y-3889878D01*
X56339000Y-3730122D01*
X56370166Y-3573440D01*
X56431300Y-3425849D01*
X56520057Y-3293015D01*
X56633015Y-3180057D01*
X56634787Y-3178873D01*
X56765847Y-3091301D01*
X56773766Y-3088021D01*
X56913440Y-3030166D01*
X57070122Y-2999000D01*
X57229878Y-2999000D01*
X57386560Y-3030166D01*
X57386560Y-3030166D01*
G37*
G36*
X59926560Y-3030166D02*
X60066235Y-3088021D01*
X60074153Y-3091301D01*
X60205213Y-3178873D01*
X60206985Y-3180057D01*
X60319943Y-3293015D01*
X60408700Y-3425849D01*
X60469834Y-3573440D01*
X60501000Y-3730122D01*
X60501000Y-3889878D01*
X60469834Y-4046560D01*
X60408700Y-4194151D01*
X60319943Y-4326985D01*
X60206985Y-4439943D01*
X60206982Y-4439945D01*
X60074153Y-4528699D01*
X60074152Y-4528700D01*
X60074151Y-4528700D01*
X59926560Y-4589834D01*
X59769878Y-4621000D01*
X59610122Y-4621000D01*
X59453440Y-4589834D01*
X59305849Y-4528700D01*
X59305848Y-4528700D01*
X59305847Y-4528699D01*
X59173018Y-4439945D01*
X59173015Y-4439943D01*
X59060057Y-4326985D01*
X58971300Y-4194151D01*
X58910166Y-4046560D01*
X58879000Y-3889878D01*
X58879000Y-3730122D01*
X58910166Y-3573440D01*
X58971300Y-3425849D01*
X59060057Y-3293015D01*
X59173015Y-3180057D01*
X59174787Y-3178873D01*
X59305847Y-3091301D01*
X59313766Y-3088021D01*
X59453440Y-3030166D01*
X59610122Y-2999000D01*
X59769878Y-2999000D01*
X59926560Y-3030166D01*
X59926560Y-3030166D01*
G37*
G36*
X118346560Y-3030166D02*
X118486235Y-3088021D01*
X118494153Y-3091301D01*
X118625213Y-3178873D01*
X118626985Y-3180057D01*
X118739943Y-3293015D01*
X118828700Y-3425849D01*
X118889834Y-3573440D01*
X118921000Y-3730122D01*
X118921000Y-3889878D01*
X118889834Y-4046560D01*
X118828700Y-4194151D01*
X118739943Y-4326985D01*
X118626985Y-4439943D01*
X118626982Y-4439945D01*
X118494153Y-4528699D01*
X118494152Y-4528700D01*
X118494151Y-4528700D01*
X118346560Y-4589834D01*
X118189878Y-4621000D01*
X118030122Y-4621000D01*
X117873440Y-4589834D01*
X117725849Y-4528700D01*
X117725848Y-4528700D01*
X117725847Y-4528699D01*
X117593018Y-4439945D01*
X117593015Y-4439943D01*
X117480057Y-4326985D01*
X117391300Y-4194151D01*
X117330166Y-4046560D01*
X117299000Y-3889878D01*
X117299000Y-3730122D01*
X117330166Y-3573440D01*
X117391300Y-3425849D01*
X117480057Y-3293015D01*
X117593015Y-3180057D01*
X117594787Y-3178873D01*
X117725847Y-3091301D01*
X117733766Y-3088021D01*
X117873440Y-3030166D01*
X118030122Y-2999000D01*
X118189878Y-2999000D01*
X118346560Y-3030166D01*
X118346560Y-3030166D01*
G37*
G36*
X115806560Y-3030166D02*
X115946235Y-3088021D01*
X115954153Y-3091301D01*
X116085213Y-3178873D01*
X116086985Y-3180057D01*
X116199943Y-3293015D01*
X116288700Y-3425849D01*
X116349834Y-3573440D01*
X116381000Y-3730122D01*
X116381000Y-3889878D01*
X116349834Y-4046560D01*
X116288700Y-4194151D01*
X116199943Y-4326985D01*
X116086985Y-4439943D01*
X116086982Y-4439945D01*
X115954153Y-4528699D01*
X115954152Y-4528700D01*
X115954151Y-4528700D01*
X115806560Y-4589834D01*
X115649878Y-4621000D01*
X115490122Y-4621000D01*
X115333440Y-4589834D01*
X115185849Y-4528700D01*
X115185848Y-4528700D01*
X115185847Y-4528699D01*
X115053018Y-4439945D01*
X115053015Y-4439943D01*
X114940057Y-4326985D01*
X114851300Y-4194151D01*
X114790166Y-4046560D01*
X114759000Y-3889878D01*
X114759000Y-3730122D01*
X114790166Y-3573440D01*
X114851300Y-3425849D01*
X114940057Y-3293015D01*
X115053015Y-3180057D01*
X115054787Y-3178873D01*
X115185847Y-3091301D01*
X115193766Y-3088021D01*
X115333440Y-3030166D01*
X115490122Y-2999000D01*
X115649878Y-2999000D01*
X115806560Y-3030166D01*
X115806560Y-3030166D01*
G37*
G36*
X49766560Y-3030166D02*
X49906235Y-3088021D01*
X49914153Y-3091301D01*
X50045213Y-3178873D01*
X50046985Y-3180057D01*
X50159943Y-3293015D01*
X50248700Y-3425849D01*
X50309834Y-3573440D01*
X50341000Y-3730122D01*
X50341000Y-3889878D01*
X50309834Y-4046560D01*
X50248700Y-4194151D01*
X50159943Y-4326985D01*
X50046985Y-4439943D01*
X50046982Y-4439945D01*
X49914153Y-4528699D01*
X49914152Y-4528700D01*
X49914151Y-4528700D01*
X49766560Y-4589834D01*
X49609878Y-4621000D01*
X49450122Y-4621000D01*
X49293440Y-4589834D01*
X49145849Y-4528700D01*
X49145848Y-4528700D01*
X49145847Y-4528699D01*
X49013018Y-4439945D01*
X49013015Y-4439943D01*
X48900057Y-4326985D01*
X48811300Y-4194151D01*
X48750166Y-4046560D01*
X48719000Y-3889878D01*
X48719000Y-3730122D01*
X48750166Y-3573440D01*
X48811300Y-3425849D01*
X48900057Y-3293015D01*
X49013015Y-3180057D01*
X49014787Y-3178873D01*
X49145847Y-3091301D01*
X49153766Y-3088021D01*
X49293440Y-3030166D01*
X49450122Y-2999000D01*
X49609878Y-2999000D01*
X49766560Y-3030166D01*
X49766560Y-3030166D01*
G37*
G36*
X37066560Y-3030166D02*
X37206235Y-3088021D01*
X37214153Y-3091301D01*
X37345213Y-3178873D01*
X37346985Y-3180057D01*
X37459943Y-3293015D01*
X37548700Y-3425849D01*
X37609834Y-3573440D01*
X37641000Y-3730122D01*
X37641000Y-3889878D01*
X37609834Y-4046560D01*
X37548700Y-4194151D01*
X37459943Y-4326985D01*
X37346985Y-4439943D01*
X37346982Y-4439945D01*
X37214153Y-4528699D01*
X37214152Y-4528700D01*
X37214151Y-4528700D01*
X37066560Y-4589834D01*
X36909878Y-4621000D01*
X36750122Y-4621000D01*
X36593440Y-4589834D01*
X36445849Y-4528700D01*
X36445848Y-4528700D01*
X36445847Y-4528699D01*
X36313018Y-4439945D01*
X36313015Y-4439943D01*
X36200057Y-4326985D01*
X36111300Y-4194151D01*
X36050166Y-4046560D01*
X36019000Y-3889878D01*
X36019000Y-3730122D01*
X36050166Y-3573440D01*
X36111300Y-3425849D01*
X36200057Y-3293015D01*
X36313015Y-3180057D01*
X36314787Y-3178873D01*
X36445847Y-3091301D01*
X36453766Y-3088021D01*
X36593440Y-3030166D01*
X36750122Y-2999000D01*
X36909878Y-2999000D01*
X37066560Y-3030166D01*
X37066560Y-3030166D01*
G37*
G36*
X39606560Y-3030166D02*
X39746235Y-3088021D01*
X39754153Y-3091301D01*
X39885213Y-3178873D01*
X39886985Y-3180057D01*
X39999943Y-3293015D01*
X40088700Y-3425849D01*
X40149834Y-3573440D01*
X40181000Y-3730122D01*
X40181000Y-3889878D01*
X40149834Y-4046560D01*
X40088700Y-4194151D01*
X39999943Y-4326985D01*
X39886985Y-4439943D01*
X39886982Y-4439945D01*
X39754153Y-4528699D01*
X39754152Y-4528700D01*
X39754151Y-4528700D01*
X39606560Y-4589834D01*
X39449878Y-4621000D01*
X39290122Y-4621000D01*
X39133440Y-4589834D01*
X38985849Y-4528700D01*
X38985848Y-4528700D01*
X38985847Y-4528699D01*
X38853018Y-4439945D01*
X38853015Y-4439943D01*
X38740057Y-4326985D01*
X38651300Y-4194151D01*
X38590166Y-4046560D01*
X38559000Y-3889878D01*
X38559000Y-3730122D01*
X38590166Y-3573440D01*
X38651300Y-3425849D01*
X38740057Y-3293015D01*
X38853015Y-3180057D01*
X38854787Y-3178873D01*
X38985847Y-3091301D01*
X38993766Y-3088021D01*
X39133440Y-3030166D01*
X39290122Y-2999000D01*
X39449878Y-2999000D01*
X39606560Y-3030166D01*
X39606560Y-3030166D01*
G37*
G36*
X42146560Y-3030166D02*
X42286235Y-3088021D01*
X42294153Y-3091301D01*
X42425213Y-3178873D01*
X42426985Y-3180057D01*
X42539943Y-3293015D01*
X42628700Y-3425849D01*
X42689834Y-3573440D01*
X42721000Y-3730122D01*
X42721000Y-3889878D01*
X42689834Y-4046560D01*
X42628700Y-4194151D01*
X42539943Y-4326985D01*
X42426985Y-4439943D01*
X42426982Y-4439945D01*
X42294153Y-4528699D01*
X42294152Y-4528700D01*
X42294151Y-4528700D01*
X42146560Y-4589834D01*
X41989878Y-4621000D01*
X41830122Y-4621000D01*
X41673440Y-4589834D01*
X41525849Y-4528700D01*
X41525848Y-4528700D01*
X41525847Y-4528699D01*
X41393018Y-4439945D01*
X41393015Y-4439943D01*
X41280057Y-4326985D01*
X41191300Y-4194151D01*
X41130166Y-4046560D01*
X41099000Y-3889878D01*
X41099000Y-3730122D01*
X41130166Y-3573440D01*
X41191300Y-3425849D01*
X41280057Y-3293015D01*
X41393015Y-3180057D01*
X41394787Y-3178873D01*
X41525847Y-3091301D01*
X41533766Y-3088021D01*
X41673440Y-3030166D01*
X41830122Y-2999000D01*
X41989878Y-2999000D01*
X42146560Y-3030166D01*
X42146560Y-3030166D01*
G37*
G36*
X44686560Y-3030166D02*
X44826235Y-3088021D01*
X44834153Y-3091301D01*
X44965213Y-3178873D01*
X44966985Y-3180057D01*
X45079943Y-3293015D01*
X45168700Y-3425849D01*
X45229834Y-3573440D01*
X45261000Y-3730122D01*
X45261000Y-3889878D01*
X45229834Y-4046560D01*
X45168700Y-4194151D01*
X45079943Y-4326985D01*
X44966985Y-4439943D01*
X44966982Y-4439945D01*
X44834153Y-4528699D01*
X44834152Y-4528700D01*
X44834151Y-4528700D01*
X44686560Y-4589834D01*
X44529878Y-4621000D01*
X44370122Y-4621000D01*
X44213440Y-4589834D01*
X44065849Y-4528700D01*
X44065848Y-4528700D01*
X44065847Y-4528699D01*
X43933018Y-4439945D01*
X43933015Y-4439943D01*
X43820057Y-4326985D01*
X43731300Y-4194151D01*
X43670166Y-4046560D01*
X43639000Y-3889878D01*
X43639000Y-3730122D01*
X43670166Y-3573440D01*
X43731300Y-3425849D01*
X43820057Y-3293015D01*
X43933015Y-3180057D01*
X43934787Y-3178873D01*
X44065847Y-3091301D01*
X44073766Y-3088021D01*
X44213440Y-3030166D01*
X44370122Y-2999000D01*
X44529878Y-2999000D01*
X44686560Y-3030166D01*
X44686560Y-3030166D01*
G37*
G36*
X47226560Y-3030166D02*
X47366235Y-3088021D01*
X47374153Y-3091301D01*
X47505213Y-3178873D01*
X47506985Y-3180057D01*
X47619943Y-3293015D01*
X47708700Y-3425849D01*
X47769834Y-3573440D01*
X47801000Y-3730122D01*
X47801000Y-3889878D01*
X47769834Y-4046560D01*
X47708700Y-4194151D01*
X47619943Y-4326985D01*
X47506985Y-4439943D01*
X47506982Y-4439945D01*
X47374153Y-4528699D01*
X47374152Y-4528700D01*
X47374151Y-4528700D01*
X47226560Y-4589834D01*
X47069878Y-4621000D01*
X46910122Y-4621000D01*
X46753440Y-4589834D01*
X46605849Y-4528700D01*
X46605848Y-4528700D01*
X46605847Y-4528699D01*
X46473018Y-4439945D01*
X46473015Y-4439943D01*
X46360057Y-4326985D01*
X46271300Y-4194151D01*
X46210166Y-4046560D01*
X46179000Y-3889878D01*
X46179000Y-3730122D01*
X46210166Y-3573440D01*
X46271300Y-3425849D01*
X46360057Y-3293015D01*
X46473015Y-3180057D01*
X46474787Y-3178873D01*
X46605847Y-3091301D01*
X46613766Y-3088021D01*
X46753440Y-3030166D01*
X46910122Y-2999000D01*
X47069878Y-2999000D01*
X47226560Y-3030166D01*
X47226560Y-3030166D01*
G37*
G36*
X123426560Y-3030166D02*
X123566235Y-3088021D01*
X123574153Y-3091301D01*
X123705213Y-3178873D01*
X123706985Y-3180057D01*
X123819943Y-3293015D01*
X123908700Y-3425849D01*
X123969834Y-3573440D01*
X124001000Y-3730122D01*
X124001000Y-3889878D01*
X123969834Y-4046560D01*
X123908700Y-4194151D01*
X123819943Y-4326985D01*
X123706985Y-4439943D01*
X123706982Y-4439945D01*
X123574153Y-4528699D01*
X123574152Y-4528700D01*
X123574151Y-4528700D01*
X123426560Y-4589834D01*
X123269878Y-4621000D01*
X123110122Y-4621000D01*
X122953440Y-4589834D01*
X122805849Y-4528700D01*
X122805848Y-4528700D01*
X122805847Y-4528699D01*
X122673018Y-4439945D01*
X122673015Y-4439943D01*
X122560057Y-4326985D01*
X122471300Y-4194151D01*
X122410166Y-4046560D01*
X122379000Y-3889878D01*
X122379000Y-3730122D01*
X122410166Y-3573440D01*
X122471300Y-3425849D01*
X122560057Y-3293015D01*
X122673015Y-3180057D01*
X122674787Y-3178873D01*
X122805847Y-3091301D01*
X122813766Y-3088021D01*
X122953440Y-3030166D01*
X123110122Y-2999000D01*
X123269878Y-2999000D01*
X123426560Y-3030166D01*
X123426560Y-3030166D01*
G37*
G36*
X120886560Y-3030166D02*
X121026235Y-3088021D01*
X121034153Y-3091301D01*
X121165213Y-3178873D01*
X121166985Y-3180057D01*
X121279943Y-3293015D01*
X121368700Y-3425849D01*
X121429834Y-3573440D01*
X121461000Y-3730122D01*
X121461000Y-3889878D01*
X121429834Y-4046560D01*
X121368700Y-4194151D01*
X121279943Y-4326985D01*
X121166985Y-4439943D01*
X121166982Y-4439945D01*
X121034153Y-4528699D01*
X121034152Y-4528700D01*
X121034151Y-4528700D01*
X120886560Y-4589834D01*
X120729878Y-4621000D01*
X120570122Y-4621000D01*
X120413440Y-4589834D01*
X120265849Y-4528700D01*
X120265848Y-4528700D01*
X120265847Y-4528699D01*
X120133018Y-4439945D01*
X120133015Y-4439943D01*
X120020057Y-4326985D01*
X119931300Y-4194151D01*
X119870166Y-4046560D01*
X119839000Y-3889878D01*
X119839000Y-3730122D01*
X119870166Y-3573440D01*
X119931300Y-3425849D01*
X120020057Y-3293015D01*
X120133015Y-3180057D01*
X120134787Y-3178873D01*
X120265847Y-3091301D01*
X120273766Y-3088021D01*
X120413440Y-3030166D01*
X120570122Y-2999000D01*
X120729878Y-2999000D01*
X120886560Y-3030166D01*
X120886560Y-3030166D01*
G37*
G36*
X115806560Y-490166D02*
X115954153Y-551301D01*
X116085213Y-638873D01*
X116086985Y-640057D01*
X116199943Y-753015D01*
X116288700Y-885849D01*
X116349834Y-1033440D01*
X116381000Y-1190122D01*
X116381000Y-1349878D01*
X116349834Y-1506560D01*
X116288700Y-1654151D01*
X116199943Y-1786985D01*
X116086985Y-1899943D01*
X116086982Y-1899945D01*
X115954153Y-1988699D01*
X115954152Y-1988700D01*
X115954151Y-1988700D01*
X115806560Y-2049834D01*
X115649878Y-2081000D01*
X115490122Y-2081000D01*
X115333440Y-2049834D01*
X115185849Y-1988700D01*
X115185848Y-1988700D01*
X115185847Y-1988699D01*
X115053018Y-1899945D01*
X115053015Y-1899943D01*
X114940057Y-1786985D01*
X114851300Y-1654151D01*
X114790166Y-1506560D01*
X114759000Y-1349878D01*
X114759000Y-1190122D01*
X114790166Y-1033440D01*
X114851300Y-885849D01*
X114940057Y-753015D01*
X115053015Y-640057D01*
X115054787Y-638873D01*
X115185847Y-551301D01*
X115333440Y-490166D01*
X115490122Y-459000D01*
X115649878Y-459000D01*
X115806560Y-490166D01*
X115806560Y-490166D01*
G37*
G36*
X105646560Y-490166D02*
X105794153Y-551301D01*
X105925213Y-638873D01*
X105926985Y-640057D01*
X106039943Y-753015D01*
X106128700Y-885849D01*
X106189834Y-1033440D01*
X106221000Y-1190122D01*
X106221000Y-1349878D01*
X106189834Y-1506560D01*
X106128700Y-1654151D01*
X106039943Y-1786985D01*
X105926985Y-1899943D01*
X105926982Y-1899945D01*
X105794153Y-1988699D01*
X105794152Y-1988700D01*
X105794151Y-1988700D01*
X105646560Y-2049834D01*
X105489878Y-2081000D01*
X105330122Y-2081000D01*
X105173440Y-2049834D01*
X105025849Y-1988700D01*
X105025848Y-1988700D01*
X105025847Y-1988699D01*
X104893018Y-1899945D01*
X104893015Y-1899943D01*
X104780057Y-1786985D01*
X104691300Y-1654151D01*
X104630166Y-1506560D01*
X104599000Y-1349878D01*
X104599000Y-1190122D01*
X104630166Y-1033440D01*
X104691300Y-885849D01*
X104780057Y-753015D01*
X104893015Y-640057D01*
X104894787Y-638873D01*
X105025847Y-551301D01*
X105173440Y-490166D01*
X105330122Y-459000D01*
X105489878Y-459000D01*
X105646560Y-490166D01*
X105646560Y-490166D01*
G37*
G36*
X110726560Y-490166D02*
X110874153Y-551301D01*
X111005213Y-638873D01*
X111006985Y-640057D01*
X111119943Y-753015D01*
X111208700Y-885849D01*
X111269834Y-1033440D01*
X111301000Y-1190122D01*
X111301000Y-1349878D01*
X111269834Y-1506560D01*
X111208700Y-1654151D01*
X111119943Y-1786985D01*
X111006985Y-1899943D01*
X111006982Y-1899945D01*
X110874153Y-1988699D01*
X110874152Y-1988700D01*
X110874151Y-1988700D01*
X110726560Y-2049834D01*
X110569878Y-2081000D01*
X110410122Y-2081000D01*
X110253440Y-2049834D01*
X110105849Y-1988700D01*
X110105848Y-1988700D01*
X110105847Y-1988699D01*
X109973018Y-1899945D01*
X109973015Y-1899943D01*
X109860057Y-1786985D01*
X109771300Y-1654151D01*
X109710166Y-1506560D01*
X109679000Y-1349878D01*
X109679000Y-1190122D01*
X109710166Y-1033440D01*
X109771300Y-885849D01*
X109860057Y-753015D01*
X109973015Y-640057D01*
X109974787Y-638873D01*
X110105847Y-551301D01*
X110253440Y-490166D01*
X110410122Y-459000D01*
X110569878Y-459000D01*
X110726560Y-490166D01*
X110726560Y-490166D01*
G37*
G36*
X113266560Y-490166D02*
X113414153Y-551301D01*
X113545213Y-638873D01*
X113546985Y-640057D01*
X113659943Y-753015D01*
X113748700Y-885849D01*
X113809834Y-1033440D01*
X113841000Y-1190122D01*
X113841000Y-1349878D01*
X113809834Y-1506560D01*
X113748700Y-1654151D01*
X113659943Y-1786985D01*
X113546985Y-1899943D01*
X113546982Y-1899945D01*
X113414153Y-1988699D01*
X113414152Y-1988700D01*
X113414151Y-1988700D01*
X113266560Y-2049834D01*
X113109878Y-2081000D01*
X112950122Y-2081000D01*
X112793440Y-2049834D01*
X112645849Y-1988700D01*
X112645848Y-1988700D01*
X112645847Y-1988699D01*
X112513018Y-1899945D01*
X112513015Y-1899943D01*
X112400057Y-1786985D01*
X112311300Y-1654151D01*
X112250166Y-1506560D01*
X112219000Y-1349878D01*
X112219000Y-1190122D01*
X112250166Y-1033440D01*
X112311300Y-885849D01*
X112400057Y-753015D01*
X112513015Y-640057D01*
X112514787Y-638873D01*
X112645847Y-551301D01*
X112793440Y-490166D01*
X112950122Y-459000D01*
X113109878Y-459000D01*
X113266560Y-490166D01*
X113266560Y-490166D01*
G37*
G36*
X123426560Y-490166D02*
X123574153Y-551301D01*
X123705213Y-638873D01*
X123706985Y-640057D01*
X123819943Y-753015D01*
X123908700Y-885849D01*
X123969834Y-1033440D01*
X124001000Y-1190122D01*
X124001000Y-1349878D01*
X123969834Y-1506560D01*
X123908700Y-1654151D01*
X123819943Y-1786985D01*
X123706985Y-1899943D01*
X123706982Y-1899945D01*
X123574153Y-1988699D01*
X123574152Y-1988700D01*
X123574151Y-1988700D01*
X123426560Y-2049834D01*
X123269878Y-2081000D01*
X123110122Y-2081000D01*
X122953440Y-2049834D01*
X122805849Y-1988700D01*
X122805848Y-1988700D01*
X122805847Y-1988699D01*
X122673018Y-1899945D01*
X122673015Y-1899943D01*
X122560057Y-1786985D01*
X122471300Y-1654151D01*
X122410166Y-1506560D01*
X122379000Y-1349878D01*
X122379000Y-1190122D01*
X122410166Y-1033440D01*
X122471300Y-885849D01*
X122560057Y-753015D01*
X122673015Y-640057D01*
X122674787Y-638873D01*
X122805847Y-551301D01*
X122953440Y-490166D01*
X123110122Y-459000D01*
X123269878Y-459000D01*
X123426560Y-490166D01*
X123426560Y-490166D01*
G37*
G36*
X120886560Y-490166D02*
X121034153Y-551301D01*
X121165213Y-638873D01*
X121166985Y-640057D01*
X121279943Y-753015D01*
X121368700Y-885849D01*
X121429834Y-1033440D01*
X121461000Y-1190122D01*
X121461000Y-1349878D01*
X121429834Y-1506560D01*
X121368700Y-1654151D01*
X121279943Y-1786985D01*
X121166985Y-1899943D01*
X121166982Y-1899945D01*
X121034153Y-1988699D01*
X121034152Y-1988700D01*
X121034151Y-1988700D01*
X120886560Y-2049834D01*
X120729878Y-2081000D01*
X120570122Y-2081000D01*
X120413440Y-2049834D01*
X120265849Y-1988700D01*
X120265848Y-1988700D01*
X120265847Y-1988699D01*
X120133018Y-1899945D01*
X120133015Y-1899943D01*
X120020057Y-1786985D01*
X119931300Y-1654151D01*
X119870166Y-1506560D01*
X119839000Y-1349878D01*
X119839000Y-1190122D01*
X119870166Y-1033440D01*
X119931300Y-885849D01*
X120020057Y-753015D01*
X120133015Y-640057D01*
X120134787Y-638873D01*
X120265847Y-551301D01*
X120413440Y-490166D01*
X120570122Y-459000D01*
X120729878Y-459000D01*
X120886560Y-490166D01*
X120886560Y-490166D01*
G37*
G36*
X118346560Y-490166D02*
X118494153Y-551301D01*
X118625213Y-638873D01*
X118626985Y-640057D01*
X118739943Y-753015D01*
X118828700Y-885849D01*
X118889834Y-1033440D01*
X118921000Y-1190122D01*
X118921000Y-1349878D01*
X118889834Y-1506560D01*
X118828700Y-1654151D01*
X118739943Y-1786985D01*
X118626985Y-1899943D01*
X118626982Y-1899945D01*
X118494153Y-1988699D01*
X118494152Y-1988700D01*
X118494151Y-1988700D01*
X118346560Y-2049834D01*
X118189878Y-2081000D01*
X118030122Y-2081000D01*
X117873440Y-2049834D01*
X117725849Y-1988700D01*
X117725848Y-1988700D01*
X117725847Y-1988699D01*
X117593018Y-1899945D01*
X117593015Y-1899943D01*
X117480057Y-1786985D01*
X117391300Y-1654151D01*
X117330166Y-1506560D01*
X117299000Y-1349878D01*
X117299000Y-1190122D01*
X117330166Y-1033440D01*
X117391300Y-885849D01*
X117480057Y-753015D01*
X117593015Y-640057D01*
X117594787Y-638873D01*
X117725847Y-551301D01*
X117873440Y-490166D01*
X118030122Y-459000D01*
X118189878Y-459000D01*
X118346560Y-490166D01*
X118346560Y-490166D01*
G37*
G36*
X37066560Y-490166D02*
X37214153Y-551301D01*
X37345213Y-638873D01*
X37346985Y-640057D01*
X37459943Y-753015D01*
X37548700Y-885849D01*
X37609834Y-1033440D01*
X37641000Y-1190122D01*
X37641000Y-1349878D01*
X37609834Y-1506560D01*
X37548700Y-1654151D01*
X37459943Y-1786985D01*
X37346985Y-1899943D01*
X37346982Y-1899945D01*
X37214153Y-1988699D01*
X37214152Y-1988700D01*
X37214151Y-1988700D01*
X37066560Y-2049834D01*
X36909878Y-2081000D01*
X36750122Y-2081000D01*
X36593440Y-2049834D01*
X36445849Y-1988700D01*
X36445848Y-1988700D01*
X36445847Y-1988699D01*
X36313018Y-1899945D01*
X36313015Y-1899943D01*
X36200057Y-1786985D01*
X36111300Y-1654151D01*
X36050166Y-1506560D01*
X36019000Y-1349878D01*
X36019000Y-1190122D01*
X36050166Y-1033440D01*
X36111300Y-885849D01*
X36200057Y-753015D01*
X36313015Y-640057D01*
X36314787Y-638873D01*
X36445847Y-551301D01*
X36593440Y-490166D01*
X36750122Y-459000D01*
X36909878Y-459000D01*
X37066560Y-490166D01*
X37066560Y-490166D01*
G37*
G36*
X42146560Y-490166D02*
X42294153Y-551301D01*
X42425213Y-638873D01*
X42426985Y-640057D01*
X42539943Y-753015D01*
X42628700Y-885849D01*
X42689834Y-1033440D01*
X42721000Y-1190122D01*
X42721000Y-1349878D01*
X42689834Y-1506560D01*
X42628700Y-1654151D01*
X42539943Y-1786985D01*
X42426985Y-1899943D01*
X42426982Y-1899945D01*
X42294153Y-1988699D01*
X42294152Y-1988700D01*
X42294151Y-1988700D01*
X42146560Y-2049834D01*
X41989878Y-2081000D01*
X41830122Y-2081000D01*
X41673440Y-2049834D01*
X41525849Y-1988700D01*
X41525848Y-1988700D01*
X41525847Y-1988699D01*
X41393018Y-1899945D01*
X41393015Y-1899943D01*
X41280057Y-1786985D01*
X41191300Y-1654151D01*
X41130166Y-1506560D01*
X41099000Y-1349878D01*
X41099000Y-1190122D01*
X41130166Y-1033440D01*
X41191300Y-885849D01*
X41280057Y-753015D01*
X41393015Y-640057D01*
X41394787Y-638873D01*
X41525847Y-551301D01*
X41673440Y-490166D01*
X41830122Y-459000D01*
X41989878Y-459000D01*
X42146560Y-490166D01*
X42146560Y-490166D01*
G37*
G36*
X47226560Y-490166D02*
X47374153Y-551301D01*
X47505213Y-638873D01*
X47506985Y-640057D01*
X47619943Y-753015D01*
X47708700Y-885849D01*
X47769834Y-1033440D01*
X47801000Y-1190122D01*
X47801000Y-1349878D01*
X47769834Y-1506560D01*
X47708700Y-1654151D01*
X47619943Y-1786985D01*
X47506985Y-1899943D01*
X47506982Y-1899945D01*
X47374153Y-1988699D01*
X47374152Y-1988700D01*
X47374151Y-1988700D01*
X47226560Y-2049834D01*
X47069878Y-2081000D01*
X46910122Y-2081000D01*
X46753440Y-2049834D01*
X46605849Y-1988700D01*
X46605848Y-1988700D01*
X46605847Y-1988699D01*
X46473018Y-1899945D01*
X46473015Y-1899943D01*
X46360057Y-1786985D01*
X46271300Y-1654151D01*
X46210166Y-1506560D01*
X46179000Y-1349878D01*
X46179000Y-1190122D01*
X46210166Y-1033440D01*
X46271300Y-885849D01*
X46360057Y-753015D01*
X46473015Y-640057D01*
X46474787Y-638873D01*
X46605847Y-551301D01*
X46753440Y-490166D01*
X46910122Y-459000D01*
X47069878Y-459000D01*
X47226560Y-490166D01*
X47226560Y-490166D01*
G37*
G36*
X49766560Y-490166D02*
X49914153Y-551301D01*
X50045213Y-638873D01*
X50046985Y-640057D01*
X50159943Y-753015D01*
X50248700Y-885849D01*
X50309834Y-1033440D01*
X50341000Y-1190122D01*
X50341000Y-1349878D01*
X50309834Y-1506560D01*
X50248700Y-1654151D01*
X50159943Y-1786985D01*
X50046985Y-1899943D01*
X50046982Y-1899945D01*
X49914153Y-1988699D01*
X49914152Y-1988700D01*
X49914151Y-1988700D01*
X49766560Y-2049834D01*
X49609878Y-2081000D01*
X49450122Y-2081000D01*
X49293440Y-2049834D01*
X49145849Y-1988700D01*
X49145848Y-1988700D01*
X49145847Y-1988699D01*
X49013018Y-1899945D01*
X49013015Y-1899943D01*
X48900057Y-1786985D01*
X48811300Y-1654151D01*
X48750166Y-1506560D01*
X48719000Y-1349878D01*
X48719000Y-1190122D01*
X48750166Y-1033440D01*
X48811300Y-885849D01*
X48900057Y-753015D01*
X49013015Y-640057D01*
X49014787Y-638873D01*
X49145847Y-551301D01*
X49293440Y-490166D01*
X49450122Y-459000D01*
X49609878Y-459000D01*
X49766560Y-490166D01*
X49766560Y-490166D01*
G37*
G36*
X52306560Y-490166D02*
X52454153Y-551301D01*
X52585213Y-638873D01*
X52586985Y-640057D01*
X52699943Y-753015D01*
X52788700Y-885849D01*
X52849834Y-1033440D01*
X52881000Y-1190122D01*
X52881000Y-1349878D01*
X52849834Y-1506560D01*
X52788700Y-1654151D01*
X52699943Y-1786985D01*
X52586985Y-1899943D01*
X52586982Y-1899945D01*
X52454153Y-1988699D01*
X52454152Y-1988700D01*
X52454151Y-1988700D01*
X52306560Y-2049834D01*
X52149878Y-2081000D01*
X51990122Y-2081000D01*
X51833440Y-2049834D01*
X51685849Y-1988700D01*
X51685848Y-1988700D01*
X51685847Y-1988699D01*
X51553018Y-1899945D01*
X51553015Y-1899943D01*
X51440057Y-1786985D01*
X51351300Y-1654151D01*
X51290166Y-1506560D01*
X51259000Y-1349878D01*
X51259000Y-1190122D01*
X51290166Y-1033440D01*
X51351300Y-885849D01*
X51440057Y-753015D01*
X51553015Y-640057D01*
X51554787Y-638873D01*
X51685847Y-551301D01*
X51833440Y-490166D01*
X51990122Y-459000D01*
X52149878Y-459000D01*
X52306560Y-490166D01*
X52306560Y-490166D01*
G37*
G36*
X54846560Y-490166D02*
X54994153Y-551301D01*
X55125213Y-638873D01*
X55126985Y-640057D01*
X55239943Y-753015D01*
X55328700Y-885849D01*
X55389834Y-1033440D01*
X55421000Y-1190122D01*
X55421000Y-1349878D01*
X55389834Y-1506560D01*
X55328700Y-1654151D01*
X55239943Y-1786985D01*
X55126985Y-1899943D01*
X55126982Y-1899945D01*
X54994153Y-1988699D01*
X54994152Y-1988700D01*
X54994151Y-1988700D01*
X54846560Y-2049834D01*
X54689878Y-2081000D01*
X54530122Y-2081000D01*
X54373440Y-2049834D01*
X54225849Y-1988700D01*
X54225848Y-1988700D01*
X54225847Y-1988699D01*
X54093018Y-1899945D01*
X54093015Y-1899943D01*
X53980057Y-1786985D01*
X53891300Y-1654151D01*
X53830166Y-1506560D01*
X53799000Y-1349878D01*
X53799000Y-1190122D01*
X53830166Y-1033440D01*
X53891300Y-885849D01*
X53980057Y-753015D01*
X54093015Y-640057D01*
X54094787Y-638873D01*
X54225847Y-551301D01*
X54373440Y-490166D01*
X54530122Y-459000D01*
X54689878Y-459000D01*
X54846560Y-490166D01*
X54846560Y-490166D01*
G37*
G36*
X57386560Y-490166D02*
X57534153Y-551301D01*
X57665213Y-638873D01*
X57666985Y-640057D01*
X57779943Y-753015D01*
X57868700Y-885849D01*
X57929834Y-1033440D01*
X57961000Y-1190122D01*
X57961000Y-1349878D01*
X57929834Y-1506560D01*
X57868700Y-1654151D01*
X57779943Y-1786985D01*
X57666985Y-1899943D01*
X57666982Y-1899945D01*
X57534153Y-1988699D01*
X57534152Y-1988700D01*
X57534151Y-1988700D01*
X57386560Y-2049834D01*
X57229878Y-2081000D01*
X57070122Y-2081000D01*
X56913440Y-2049834D01*
X56765849Y-1988700D01*
X56765848Y-1988700D01*
X56765847Y-1988699D01*
X56633018Y-1899945D01*
X56633015Y-1899943D01*
X56520057Y-1786985D01*
X56431300Y-1654151D01*
X56370166Y-1506560D01*
X56339000Y-1349878D01*
X56339000Y-1190122D01*
X56370166Y-1033440D01*
X56431300Y-885849D01*
X56520057Y-753015D01*
X56633015Y-640057D01*
X56634787Y-638873D01*
X56765847Y-551301D01*
X56913440Y-490166D01*
X57070122Y-459000D01*
X57229878Y-459000D01*
X57386560Y-490166D01*
X57386560Y-490166D01*
G37*
G36*
X59926560Y-490166D02*
X60074153Y-551301D01*
X60205213Y-638873D01*
X60206985Y-640057D01*
X60319943Y-753015D01*
X60408700Y-885849D01*
X60469834Y-1033440D01*
X60501000Y-1190122D01*
X60501000Y-1349878D01*
X60469834Y-1506560D01*
X60408700Y-1654151D01*
X60319943Y-1786985D01*
X60206985Y-1899943D01*
X60206982Y-1899945D01*
X60074153Y-1988699D01*
X60074152Y-1988700D01*
X60074151Y-1988700D01*
X59926560Y-2049834D01*
X59769878Y-2081000D01*
X59610122Y-2081000D01*
X59453440Y-2049834D01*
X59305849Y-1988700D01*
X59305848Y-1988700D01*
X59305847Y-1988699D01*
X59173018Y-1899945D01*
X59173015Y-1899943D01*
X59060057Y-1786985D01*
X58971300Y-1654151D01*
X58910166Y-1506560D01*
X58879000Y-1349878D01*
X58879000Y-1190122D01*
X58910166Y-1033440D01*
X58971300Y-885849D01*
X59060057Y-753015D01*
X59173015Y-640057D01*
X59174787Y-638873D01*
X59305847Y-551301D01*
X59453440Y-490166D01*
X59610122Y-459000D01*
X59769878Y-459000D01*
X59926560Y-490166D01*
X59926560Y-490166D01*
G37*
G36*
X108186560Y-490166D02*
X108334153Y-551301D01*
X108465213Y-638873D01*
X108466985Y-640057D01*
X108579943Y-753015D01*
X108668700Y-885849D01*
X108729834Y-1033440D01*
X108761000Y-1190122D01*
X108761000Y-1349878D01*
X108729834Y-1506560D01*
X108668700Y-1654151D01*
X108579943Y-1786985D01*
X108466985Y-1899943D01*
X108466982Y-1899945D01*
X108334153Y-1988699D01*
X108334152Y-1988700D01*
X108334151Y-1988700D01*
X108186560Y-2049834D01*
X108029878Y-2081000D01*
X107870122Y-2081000D01*
X107713440Y-2049834D01*
X107565849Y-1988700D01*
X107565848Y-1988700D01*
X107565847Y-1988699D01*
X107433018Y-1899945D01*
X107433015Y-1899943D01*
X107320057Y-1786985D01*
X107231300Y-1654151D01*
X107170166Y-1506560D01*
X107139000Y-1349878D01*
X107139000Y-1190122D01*
X107170166Y-1033440D01*
X107231300Y-885849D01*
X107320057Y-753015D01*
X107433015Y-640057D01*
X107434787Y-638873D01*
X107565847Y-551301D01*
X107713440Y-490166D01*
X107870122Y-459000D01*
X108029878Y-459000D01*
X108186560Y-490166D01*
X108186560Y-490166D01*
G37*
G36*
X103106560Y-490166D02*
X103254153Y-551301D01*
X103385213Y-638873D01*
X103386985Y-640057D01*
X103499943Y-753015D01*
X103588700Y-885849D01*
X103649834Y-1033440D01*
X103681000Y-1190122D01*
X103681000Y-1349878D01*
X103649834Y-1506560D01*
X103588700Y-1654151D01*
X103499943Y-1786985D01*
X103386985Y-1899943D01*
X103386982Y-1899945D01*
X103254153Y-1988699D01*
X103254152Y-1988700D01*
X103254151Y-1988700D01*
X103106560Y-2049834D01*
X102949878Y-2081000D01*
X102790122Y-2081000D01*
X102633440Y-2049834D01*
X102485849Y-1988700D01*
X102485848Y-1988700D01*
X102485847Y-1988699D01*
X102353018Y-1899945D01*
X102353015Y-1899943D01*
X102240057Y-1786985D01*
X102151300Y-1654151D01*
X102090166Y-1506560D01*
X102059000Y-1349878D01*
X102059000Y-1190122D01*
X102090166Y-1033440D01*
X102151300Y-885849D01*
X102240057Y-753015D01*
X102353015Y-640057D01*
X102354787Y-638873D01*
X102485847Y-551301D01*
X102633440Y-490166D01*
X102790122Y-459000D01*
X102949878Y-459000D01*
X103106560Y-490166D01*
X103106560Y-490166D01*
G37*
G36*
X39606560Y-490166D02*
X39754153Y-551301D01*
X39885213Y-638873D01*
X39886985Y-640057D01*
X39999943Y-753015D01*
X40088700Y-885849D01*
X40149834Y-1033440D01*
X40181000Y-1190122D01*
X40181000Y-1349878D01*
X40149834Y-1506560D01*
X40088700Y-1654151D01*
X39999943Y-1786985D01*
X39886985Y-1899943D01*
X39886982Y-1899945D01*
X39754153Y-1988699D01*
X39754152Y-1988700D01*
X39754151Y-1988700D01*
X39606560Y-2049834D01*
X39449878Y-2081000D01*
X39290122Y-2081000D01*
X39133440Y-2049834D01*
X38985849Y-1988700D01*
X38985848Y-1988700D01*
X38985847Y-1988699D01*
X38853018Y-1899945D01*
X38853015Y-1899943D01*
X38740057Y-1786985D01*
X38651300Y-1654151D01*
X38590166Y-1506560D01*
X38559000Y-1349878D01*
X38559000Y-1190122D01*
X38590166Y-1033440D01*
X38651300Y-885849D01*
X38740057Y-753015D01*
X38853015Y-640057D01*
X38854787Y-638873D01*
X38985847Y-551301D01*
X39133440Y-490166D01*
X39290122Y-459000D01*
X39449878Y-459000D01*
X39606560Y-490166D01*
X39606560Y-490166D01*
G37*
G36*
X100566560Y-490166D02*
X100714153Y-551301D01*
X100845213Y-638873D01*
X100846985Y-640057D01*
X100959943Y-753015D01*
X101048700Y-885849D01*
X101109834Y-1033440D01*
X101141000Y-1190122D01*
X101141000Y-1349878D01*
X101109834Y-1506560D01*
X101048700Y-1654151D01*
X100959943Y-1786985D01*
X100846985Y-1899943D01*
X100846982Y-1899945D01*
X100714153Y-1988699D01*
X100714152Y-1988700D01*
X100714151Y-1988700D01*
X100566560Y-2049834D01*
X100409878Y-2081000D01*
X100250122Y-2081000D01*
X100093440Y-2049834D01*
X99945849Y-1988700D01*
X99945848Y-1988700D01*
X99945847Y-1988699D01*
X99813018Y-1899945D01*
X99813015Y-1899943D01*
X99700057Y-1786985D01*
X99611300Y-1654151D01*
X99550166Y-1506560D01*
X99519000Y-1349878D01*
X99519000Y-1190122D01*
X99550166Y-1033440D01*
X99611300Y-885849D01*
X99700057Y-753015D01*
X99813015Y-640057D01*
X99814787Y-638873D01*
X99945847Y-551301D01*
X100093440Y-490166D01*
X100250122Y-459000D01*
X100409878Y-459000D01*
X100566560Y-490166D01*
X100566560Y-490166D01*
G37*
G36*
X44686560Y-490166D02*
X44834153Y-551301D01*
X44965213Y-638873D01*
X44966985Y-640057D01*
X45079943Y-753015D01*
X45168700Y-885849D01*
X45229834Y-1033440D01*
X45261000Y-1190122D01*
X45261000Y-1349878D01*
X45229834Y-1506560D01*
X45168700Y-1654151D01*
X45079943Y-1786985D01*
X44966985Y-1899943D01*
X44966982Y-1899945D01*
X44834153Y-1988699D01*
X44834152Y-1988700D01*
X44834151Y-1988700D01*
X44686560Y-2049834D01*
X44529878Y-2081000D01*
X44370122Y-2081000D01*
X44213440Y-2049834D01*
X44065849Y-1988700D01*
X44065848Y-1988700D01*
X44065847Y-1988699D01*
X43933018Y-1899945D01*
X43933015Y-1899943D01*
X43820057Y-1786985D01*
X43731300Y-1654151D01*
X43670166Y-1506560D01*
X43639000Y-1349878D01*
X43639000Y-1190122D01*
X43670166Y-1033440D01*
X43731300Y-885849D01*
X43820057Y-753015D01*
X43933015Y-640057D01*
X43934787Y-638873D01*
X44065847Y-551301D01*
X44213440Y-490166D01*
X44370122Y-459000D01*
X44529878Y-459000D01*
X44686560Y-490166D01*
X44686560Y-490166D01*
G37*
M02*
