G04 #@! TF.GenerationSoftware,KiCad,Pcbnew,(5.0.2)-1*
G04 #@! TF.CreationDate,2019-03-16T10:10:26-05:00*
G04 #@! TF.ProjectId,ClockingBoard_Hardware,436c6f63-6b69-46e6-9742-6f6172645f48,rev?*
G04 #@! TF.SameCoordinates,Original*
G04 #@! TF.FileFunction,Paste,Top*
G04 #@! TF.FilePolarity,Positive*
%FSLAX46Y46*%
G04 Gerber Fmt 4.6, Leading zero omitted, Abs format (unit mm)*
G04 Created by KiCad (PCBNEW (5.0.2)-1) date 3/16/2019 10:10:26 AM*
%MOMM*%
%LPD*%
G01*
G04 APERTURE LIST*
%ADD10C,0.100000*%
%ADD11C,0.950000*%
%ADD12C,5.080000*%
%ADD13C,1.520000*%
G04 APERTURE END LIST*
D10*
G04 #@! TO.C,C1*
G36*
X70110779Y-30436144D02*
X70133834Y-30439563D01*
X70156443Y-30445227D01*
X70178387Y-30453079D01*
X70199457Y-30463044D01*
X70219448Y-30475026D01*
X70238168Y-30488910D01*
X70255438Y-30504562D01*
X70271090Y-30521832D01*
X70284974Y-30540552D01*
X70296956Y-30560543D01*
X70306921Y-30581613D01*
X70314773Y-30603557D01*
X70320437Y-30626166D01*
X70323856Y-30649221D01*
X70325000Y-30672500D01*
X70325000Y-31247500D01*
X70323856Y-31270779D01*
X70320437Y-31293834D01*
X70314773Y-31316443D01*
X70306921Y-31338387D01*
X70296956Y-31359457D01*
X70284974Y-31379448D01*
X70271090Y-31398168D01*
X70255438Y-31415438D01*
X70238168Y-31431090D01*
X70219448Y-31444974D01*
X70199457Y-31456956D01*
X70178387Y-31466921D01*
X70156443Y-31474773D01*
X70133834Y-31480437D01*
X70110779Y-31483856D01*
X70087500Y-31485000D01*
X69612500Y-31485000D01*
X69589221Y-31483856D01*
X69566166Y-31480437D01*
X69543557Y-31474773D01*
X69521613Y-31466921D01*
X69500543Y-31456956D01*
X69480552Y-31444974D01*
X69461832Y-31431090D01*
X69444562Y-31415438D01*
X69428910Y-31398168D01*
X69415026Y-31379448D01*
X69403044Y-31359457D01*
X69393079Y-31338387D01*
X69385227Y-31316443D01*
X69379563Y-31293834D01*
X69376144Y-31270779D01*
X69375000Y-31247500D01*
X69375000Y-30672500D01*
X69376144Y-30649221D01*
X69379563Y-30626166D01*
X69385227Y-30603557D01*
X69393079Y-30581613D01*
X69403044Y-30560543D01*
X69415026Y-30540552D01*
X69428910Y-30521832D01*
X69444562Y-30504562D01*
X69461832Y-30488910D01*
X69480552Y-30475026D01*
X69500543Y-30463044D01*
X69521613Y-30453079D01*
X69543557Y-30445227D01*
X69566166Y-30439563D01*
X69589221Y-30436144D01*
X69612500Y-30435000D01*
X70087500Y-30435000D01*
X70110779Y-30436144D01*
X70110779Y-30436144D01*
G37*
D11*
X69850000Y-30960000D03*
D10*
G36*
X70110779Y-28686144D02*
X70133834Y-28689563D01*
X70156443Y-28695227D01*
X70178387Y-28703079D01*
X70199457Y-28713044D01*
X70219448Y-28725026D01*
X70238168Y-28738910D01*
X70255438Y-28754562D01*
X70271090Y-28771832D01*
X70284974Y-28790552D01*
X70296956Y-28810543D01*
X70306921Y-28831613D01*
X70314773Y-28853557D01*
X70320437Y-28876166D01*
X70323856Y-28899221D01*
X70325000Y-28922500D01*
X70325000Y-29497500D01*
X70323856Y-29520779D01*
X70320437Y-29543834D01*
X70314773Y-29566443D01*
X70306921Y-29588387D01*
X70296956Y-29609457D01*
X70284974Y-29629448D01*
X70271090Y-29648168D01*
X70255438Y-29665438D01*
X70238168Y-29681090D01*
X70219448Y-29694974D01*
X70199457Y-29706956D01*
X70178387Y-29716921D01*
X70156443Y-29724773D01*
X70133834Y-29730437D01*
X70110779Y-29733856D01*
X70087500Y-29735000D01*
X69612500Y-29735000D01*
X69589221Y-29733856D01*
X69566166Y-29730437D01*
X69543557Y-29724773D01*
X69521613Y-29716921D01*
X69500543Y-29706956D01*
X69480552Y-29694974D01*
X69461832Y-29681090D01*
X69444562Y-29665438D01*
X69428910Y-29648168D01*
X69415026Y-29629448D01*
X69403044Y-29609457D01*
X69393079Y-29588387D01*
X69385227Y-29566443D01*
X69379563Y-29543834D01*
X69376144Y-29520779D01*
X69375000Y-29497500D01*
X69375000Y-28922500D01*
X69376144Y-28899221D01*
X69379563Y-28876166D01*
X69385227Y-28853557D01*
X69393079Y-28831613D01*
X69403044Y-28810543D01*
X69415026Y-28790552D01*
X69428910Y-28771832D01*
X69444562Y-28754562D01*
X69461832Y-28738910D01*
X69480552Y-28725026D01*
X69500543Y-28713044D01*
X69521613Y-28703079D01*
X69543557Y-28695227D01*
X69566166Y-28689563D01*
X69589221Y-28686144D01*
X69612500Y-28685000D01*
X70087500Y-28685000D01*
X70110779Y-28686144D01*
X70110779Y-28686144D01*
G37*
D11*
X69850000Y-29210000D03*
G04 #@! TD*
D10*
G04 #@! TO.C,C2*
G36*
X70110779Y-38846144D02*
X70133834Y-38849563D01*
X70156443Y-38855227D01*
X70178387Y-38863079D01*
X70199457Y-38873044D01*
X70219448Y-38885026D01*
X70238168Y-38898910D01*
X70255438Y-38914562D01*
X70271090Y-38931832D01*
X70284974Y-38950552D01*
X70296956Y-38970543D01*
X70306921Y-38991613D01*
X70314773Y-39013557D01*
X70320437Y-39036166D01*
X70323856Y-39059221D01*
X70325000Y-39082500D01*
X70325000Y-39657500D01*
X70323856Y-39680779D01*
X70320437Y-39703834D01*
X70314773Y-39726443D01*
X70306921Y-39748387D01*
X70296956Y-39769457D01*
X70284974Y-39789448D01*
X70271090Y-39808168D01*
X70255438Y-39825438D01*
X70238168Y-39841090D01*
X70219448Y-39854974D01*
X70199457Y-39866956D01*
X70178387Y-39876921D01*
X70156443Y-39884773D01*
X70133834Y-39890437D01*
X70110779Y-39893856D01*
X70087500Y-39895000D01*
X69612500Y-39895000D01*
X69589221Y-39893856D01*
X69566166Y-39890437D01*
X69543557Y-39884773D01*
X69521613Y-39876921D01*
X69500543Y-39866956D01*
X69480552Y-39854974D01*
X69461832Y-39841090D01*
X69444562Y-39825438D01*
X69428910Y-39808168D01*
X69415026Y-39789448D01*
X69403044Y-39769457D01*
X69393079Y-39748387D01*
X69385227Y-39726443D01*
X69379563Y-39703834D01*
X69376144Y-39680779D01*
X69375000Y-39657500D01*
X69375000Y-39082500D01*
X69376144Y-39059221D01*
X69379563Y-39036166D01*
X69385227Y-39013557D01*
X69393079Y-38991613D01*
X69403044Y-38970543D01*
X69415026Y-38950552D01*
X69428910Y-38931832D01*
X69444562Y-38914562D01*
X69461832Y-38898910D01*
X69480552Y-38885026D01*
X69500543Y-38873044D01*
X69521613Y-38863079D01*
X69543557Y-38855227D01*
X69566166Y-38849563D01*
X69589221Y-38846144D01*
X69612500Y-38845000D01*
X70087500Y-38845000D01*
X70110779Y-38846144D01*
X70110779Y-38846144D01*
G37*
D11*
X69850000Y-39370000D03*
D10*
G36*
X70110779Y-37096144D02*
X70133834Y-37099563D01*
X70156443Y-37105227D01*
X70178387Y-37113079D01*
X70199457Y-37123044D01*
X70219448Y-37135026D01*
X70238168Y-37148910D01*
X70255438Y-37164562D01*
X70271090Y-37181832D01*
X70284974Y-37200552D01*
X70296956Y-37220543D01*
X70306921Y-37241613D01*
X70314773Y-37263557D01*
X70320437Y-37286166D01*
X70323856Y-37309221D01*
X70325000Y-37332500D01*
X70325000Y-37907500D01*
X70323856Y-37930779D01*
X70320437Y-37953834D01*
X70314773Y-37976443D01*
X70306921Y-37998387D01*
X70296956Y-38019457D01*
X70284974Y-38039448D01*
X70271090Y-38058168D01*
X70255438Y-38075438D01*
X70238168Y-38091090D01*
X70219448Y-38104974D01*
X70199457Y-38116956D01*
X70178387Y-38126921D01*
X70156443Y-38134773D01*
X70133834Y-38140437D01*
X70110779Y-38143856D01*
X70087500Y-38145000D01*
X69612500Y-38145000D01*
X69589221Y-38143856D01*
X69566166Y-38140437D01*
X69543557Y-38134773D01*
X69521613Y-38126921D01*
X69500543Y-38116956D01*
X69480552Y-38104974D01*
X69461832Y-38091090D01*
X69444562Y-38075438D01*
X69428910Y-38058168D01*
X69415026Y-38039448D01*
X69403044Y-38019457D01*
X69393079Y-37998387D01*
X69385227Y-37976443D01*
X69379563Y-37953834D01*
X69376144Y-37930779D01*
X69375000Y-37907500D01*
X69375000Y-37332500D01*
X69376144Y-37309221D01*
X69379563Y-37286166D01*
X69385227Y-37263557D01*
X69393079Y-37241613D01*
X69403044Y-37220543D01*
X69415026Y-37200552D01*
X69428910Y-37181832D01*
X69444562Y-37164562D01*
X69461832Y-37148910D01*
X69480552Y-37135026D01*
X69500543Y-37123044D01*
X69521613Y-37113079D01*
X69543557Y-37105227D01*
X69566166Y-37099563D01*
X69589221Y-37096144D01*
X69612500Y-37095000D01*
X70087500Y-37095000D01*
X70110779Y-37096144D01*
X70110779Y-37096144D01*
G37*
D11*
X69850000Y-37620000D03*
G04 #@! TD*
D12*
G04 #@! TO.C,Conn1*
X76200000Y-30480000D03*
X76200000Y-38354000D03*
G04 #@! TD*
D13*
G04 #@! TO.C,U2*
X59690000Y-1270000D03*
X36830000Y-46990000D03*
X39370000Y-46990000D03*
X46990000Y-46990000D03*
X49530000Y-3810000D03*
X44450000Y-46990000D03*
X41910000Y-46990000D03*
X44450000Y-1270000D03*
X39370000Y-3810000D03*
X49530000Y-46990000D03*
X52070000Y-46990000D03*
X39370000Y-1270000D03*
X44450000Y-3810000D03*
X46990000Y-3810000D03*
X59690000Y-3810000D03*
X57150000Y-3810000D03*
X54610000Y-3810000D03*
X52070000Y-3810000D03*
X41910000Y-3810000D03*
X36830000Y-3810000D03*
X57150000Y-1270000D03*
X54610000Y-1270000D03*
X52070000Y-1270000D03*
X49530000Y-1270000D03*
X46990000Y-1270000D03*
X41910000Y-1270000D03*
X36830000Y-1270000D03*
X59690000Y-44450000D03*
X57150000Y-44450000D03*
X54610000Y-44450000D03*
X52070000Y-44450000D03*
X49530000Y-44450000D03*
X46990000Y-44450000D03*
X44450000Y-44450000D03*
X41910000Y-44450000D03*
X39370000Y-44450000D03*
X36830000Y-44450000D03*
X59690000Y-46990000D03*
X57150000Y-46990000D03*
X54610000Y-46990000D03*
X123190000Y-3810000D03*
X120650000Y-3810000D03*
X118110000Y-3810000D03*
X115570000Y-3810000D03*
X113030000Y-3810000D03*
X110490000Y-3810000D03*
X107950000Y-3810000D03*
X105410000Y-3810000D03*
X102870000Y-3810000D03*
X100330000Y-3810000D03*
X123190000Y-1270000D03*
X120650000Y-1270000D03*
X118110000Y-1270000D03*
X115570000Y-1270000D03*
X113030000Y-1270000D03*
X110490000Y-1270000D03*
X107950000Y-1270000D03*
X105410000Y-1270000D03*
X102870000Y-1270000D03*
X100330000Y-1270000D03*
X123190000Y-44450000D03*
X120650000Y-44450000D03*
X118110000Y-44450000D03*
X115570000Y-44450000D03*
X113030000Y-44450000D03*
X110490000Y-44450000D03*
X107950000Y-44450000D03*
X105410000Y-44450000D03*
X102870000Y-44450000D03*
X100330000Y-44450000D03*
X123190000Y-46990000D03*
X120650000Y-46990000D03*
X118110000Y-46990000D03*
X115570000Y-46990000D03*
X113030000Y-46990000D03*
X110490000Y-46990000D03*
X107950000Y-46990000D03*
X105410000Y-46990000D03*
X102870000Y-46990000D03*
X100330000Y-46990000D03*
G04 #@! TD*
M02*
