M48
;DRILL file {KiCad (5.0.2)-1} date 3/16/2019 10:07:30 AM
;FORMAT={-:-/ absolute / inch / decimal}
FMAT,2
INCH,TZ
T1C0.0350
T2C0.0354
T3C0.0394
T4C0.1598
%
G90
G05
T1
X2.65Y-1.25
X2.65Y-1.35
X2.65Y-1.45
T2
X3.8Y-0.3
X3.8Y-0.4
X3.8Y-0.5
X3.8Y-0.6
X3.8Y-0.7
X3.8Y-0.8
X3.8Y-0.9
T3
X1.45Y-0.05
X1.45Y-0.15
X1.45Y-1.75
X1.45Y-1.85
X1.55Y-0.05
X1.55Y-0.15
X1.55Y-1.75
X1.55Y-1.85
X1.65Y-0.05
X1.65Y-0.15
X1.65Y-1.75
X1.65Y-1.85
X1.75Y-0.05
X1.75Y-0.15
X1.75Y-1.75
X1.75Y-1.85
X1.85Y-0.05
X1.85Y-0.15
X1.85Y-1.75
X1.85Y-1.85
X1.95Y-0.05
X1.95Y-0.15
X1.95Y-1.75
X1.95Y-1.85
X2.05Y-0.05
X2.05Y-0.15
X2.05Y-1.75
X2.05Y-1.85
X2.15Y-0.05
X2.15Y-0.15
X2.15Y-1.75
X2.15Y-1.85
X2.25Y-0.05
X2.25Y-0.15
X2.25Y-1.75
X2.25Y-1.85
X2.35Y-0.05
X2.35Y-0.15
X2.35Y-1.75
X2.35Y-1.85
X3.95Y-0.05
X3.95Y-0.15
X3.95Y-1.75
X3.95Y-1.85
X4.05Y-0.05
X4.05Y-0.15
X4.05Y-1.75
X4.05Y-1.85
X4.15Y-0.05
X4.15Y-0.15
X4.15Y-1.75
X4.15Y-1.85
X4.25Y-0.05
X4.25Y-0.15
X4.25Y-1.75
X4.25Y-1.85
X4.35Y-0.05
X4.35Y-0.15
X4.35Y-1.75
X4.35Y-1.85
X4.45Y-0.05
X4.45Y-0.15
X4.45Y-1.75
X4.45Y-1.85
X4.55Y-0.05
X4.55Y-0.15
X4.55Y-1.75
X4.55Y-1.85
X4.65Y-0.05
X4.65Y-0.15
X4.65Y-1.75
X4.65Y-1.85
X4.75Y-0.05
X4.75Y-0.15
X4.75Y-1.75
X4.75Y-1.85
X4.85Y-0.05
X4.85Y-0.15
X4.85Y-1.75
X4.85Y-1.85
T4
X3.Y-1.2
X3.Y-1.51
T0
M30
