G04 #@! TF.GenerationSoftware,KiCad,Pcbnew,(5.0.2)-1*
G04 #@! TF.CreationDate,2019-03-16T10:07:27-05:00*
G04 #@! TF.ProjectId,ClockingBoard_Hardware,436c6f63-6b69-46e6-9742-6f6172645f48,rev?*
G04 #@! TF.SameCoordinates,Original*
G04 #@! TF.FileFunction,Copper,L1,Top*
G04 #@! TF.FilePolarity,Positive*
%FSLAX46Y46*%
G04 Gerber Fmt 4.6, Leading zero omitted, Abs format (unit mm)*
G04 Created by KiCad (PCBNEW (5.0.2)-1) date 3/16/2019 10:07:27 AM*
%MOMM*%
%LPD*%
G01*
G04 APERTURE LIST*
G04 #@! TA.AperFunction,Conductor*
%ADD10C,0.100000*%
G04 #@! TD*
G04 #@! TA.AperFunction,SMDPad,CuDef*
%ADD11C,0.950000*%
G04 #@! TD*
G04 #@! TA.AperFunction,ComponentPad*
%ADD12C,5.080000*%
G04 #@! TD*
G04 #@! TA.AperFunction,ComponentPad*
%ADD13C,1.524000*%
G04 #@! TD*
G04 #@! TA.AperFunction,ComponentPad*
%ADD14C,1.520000*%
G04 #@! TD*
G04 #@! TA.AperFunction,Conductor*
%ADD15C,0.762000*%
G04 #@! TD*
G04 #@! TA.AperFunction,Conductor*
%ADD16C,0.381000*%
G04 #@! TD*
G04 #@! TA.AperFunction,Conductor*
%ADD17C,0.254000*%
G04 #@! TD*
G04 APERTURE END LIST*
D10*
G04 #@! TO.N,GND*
G04 #@! TO.C,C1*
G36*
X70110779Y-30436144D02*
X70133834Y-30439563D01*
X70156443Y-30445227D01*
X70178387Y-30453079D01*
X70199457Y-30463044D01*
X70219448Y-30475026D01*
X70238168Y-30488910D01*
X70255438Y-30504562D01*
X70271090Y-30521832D01*
X70284974Y-30540552D01*
X70296956Y-30560543D01*
X70306921Y-30581613D01*
X70314773Y-30603557D01*
X70320437Y-30626166D01*
X70323856Y-30649221D01*
X70325000Y-30672500D01*
X70325000Y-31247500D01*
X70323856Y-31270779D01*
X70320437Y-31293834D01*
X70314773Y-31316443D01*
X70306921Y-31338387D01*
X70296956Y-31359457D01*
X70284974Y-31379448D01*
X70271090Y-31398168D01*
X70255438Y-31415438D01*
X70238168Y-31431090D01*
X70219448Y-31444974D01*
X70199457Y-31456956D01*
X70178387Y-31466921D01*
X70156443Y-31474773D01*
X70133834Y-31480437D01*
X70110779Y-31483856D01*
X70087500Y-31485000D01*
X69612500Y-31485000D01*
X69589221Y-31483856D01*
X69566166Y-31480437D01*
X69543557Y-31474773D01*
X69521613Y-31466921D01*
X69500543Y-31456956D01*
X69480552Y-31444974D01*
X69461832Y-31431090D01*
X69444562Y-31415438D01*
X69428910Y-31398168D01*
X69415026Y-31379448D01*
X69403044Y-31359457D01*
X69393079Y-31338387D01*
X69385227Y-31316443D01*
X69379563Y-31293834D01*
X69376144Y-31270779D01*
X69375000Y-31247500D01*
X69375000Y-30672500D01*
X69376144Y-30649221D01*
X69379563Y-30626166D01*
X69385227Y-30603557D01*
X69393079Y-30581613D01*
X69403044Y-30560543D01*
X69415026Y-30540552D01*
X69428910Y-30521832D01*
X69444562Y-30504562D01*
X69461832Y-30488910D01*
X69480552Y-30475026D01*
X69500543Y-30463044D01*
X69521613Y-30453079D01*
X69543557Y-30445227D01*
X69566166Y-30439563D01*
X69589221Y-30436144D01*
X69612500Y-30435000D01*
X70087500Y-30435000D01*
X70110779Y-30436144D01*
X70110779Y-30436144D01*
G37*
D11*
G04 #@! TD*
G04 #@! TO.P,C1,2*
G04 #@! TO.N,GND*
X69850000Y-30960000D03*
D10*
G04 #@! TO.N,/+12V*
G04 #@! TO.C,C1*
G36*
X70110779Y-28686144D02*
X70133834Y-28689563D01*
X70156443Y-28695227D01*
X70178387Y-28703079D01*
X70199457Y-28713044D01*
X70219448Y-28725026D01*
X70238168Y-28738910D01*
X70255438Y-28754562D01*
X70271090Y-28771832D01*
X70284974Y-28790552D01*
X70296956Y-28810543D01*
X70306921Y-28831613D01*
X70314773Y-28853557D01*
X70320437Y-28876166D01*
X70323856Y-28899221D01*
X70325000Y-28922500D01*
X70325000Y-29497500D01*
X70323856Y-29520779D01*
X70320437Y-29543834D01*
X70314773Y-29566443D01*
X70306921Y-29588387D01*
X70296956Y-29609457D01*
X70284974Y-29629448D01*
X70271090Y-29648168D01*
X70255438Y-29665438D01*
X70238168Y-29681090D01*
X70219448Y-29694974D01*
X70199457Y-29706956D01*
X70178387Y-29716921D01*
X70156443Y-29724773D01*
X70133834Y-29730437D01*
X70110779Y-29733856D01*
X70087500Y-29735000D01*
X69612500Y-29735000D01*
X69589221Y-29733856D01*
X69566166Y-29730437D01*
X69543557Y-29724773D01*
X69521613Y-29716921D01*
X69500543Y-29706956D01*
X69480552Y-29694974D01*
X69461832Y-29681090D01*
X69444562Y-29665438D01*
X69428910Y-29648168D01*
X69415026Y-29629448D01*
X69403044Y-29609457D01*
X69393079Y-29588387D01*
X69385227Y-29566443D01*
X69379563Y-29543834D01*
X69376144Y-29520779D01*
X69375000Y-29497500D01*
X69375000Y-28922500D01*
X69376144Y-28899221D01*
X69379563Y-28876166D01*
X69385227Y-28853557D01*
X69393079Y-28831613D01*
X69403044Y-28810543D01*
X69415026Y-28790552D01*
X69428910Y-28771832D01*
X69444562Y-28754562D01*
X69461832Y-28738910D01*
X69480552Y-28725026D01*
X69500543Y-28713044D01*
X69521613Y-28703079D01*
X69543557Y-28695227D01*
X69566166Y-28689563D01*
X69589221Y-28686144D01*
X69612500Y-28685000D01*
X70087500Y-28685000D01*
X70110779Y-28686144D01*
X70110779Y-28686144D01*
G37*
D11*
G04 #@! TD*
G04 #@! TO.P,C1,1*
G04 #@! TO.N,/+12V*
X69850000Y-29210000D03*
D10*
G04 #@! TO.N,+3V3*
G04 #@! TO.C,C2*
G36*
X70110779Y-38846144D02*
X70133834Y-38849563D01*
X70156443Y-38855227D01*
X70178387Y-38863079D01*
X70199457Y-38873044D01*
X70219448Y-38885026D01*
X70238168Y-38898910D01*
X70255438Y-38914562D01*
X70271090Y-38931832D01*
X70284974Y-38950552D01*
X70296956Y-38970543D01*
X70306921Y-38991613D01*
X70314773Y-39013557D01*
X70320437Y-39036166D01*
X70323856Y-39059221D01*
X70325000Y-39082500D01*
X70325000Y-39657500D01*
X70323856Y-39680779D01*
X70320437Y-39703834D01*
X70314773Y-39726443D01*
X70306921Y-39748387D01*
X70296956Y-39769457D01*
X70284974Y-39789448D01*
X70271090Y-39808168D01*
X70255438Y-39825438D01*
X70238168Y-39841090D01*
X70219448Y-39854974D01*
X70199457Y-39866956D01*
X70178387Y-39876921D01*
X70156443Y-39884773D01*
X70133834Y-39890437D01*
X70110779Y-39893856D01*
X70087500Y-39895000D01*
X69612500Y-39895000D01*
X69589221Y-39893856D01*
X69566166Y-39890437D01*
X69543557Y-39884773D01*
X69521613Y-39876921D01*
X69500543Y-39866956D01*
X69480552Y-39854974D01*
X69461832Y-39841090D01*
X69444562Y-39825438D01*
X69428910Y-39808168D01*
X69415026Y-39789448D01*
X69403044Y-39769457D01*
X69393079Y-39748387D01*
X69385227Y-39726443D01*
X69379563Y-39703834D01*
X69376144Y-39680779D01*
X69375000Y-39657500D01*
X69375000Y-39082500D01*
X69376144Y-39059221D01*
X69379563Y-39036166D01*
X69385227Y-39013557D01*
X69393079Y-38991613D01*
X69403044Y-38970543D01*
X69415026Y-38950552D01*
X69428910Y-38931832D01*
X69444562Y-38914562D01*
X69461832Y-38898910D01*
X69480552Y-38885026D01*
X69500543Y-38873044D01*
X69521613Y-38863079D01*
X69543557Y-38855227D01*
X69566166Y-38849563D01*
X69589221Y-38846144D01*
X69612500Y-38845000D01*
X70087500Y-38845000D01*
X70110779Y-38846144D01*
X70110779Y-38846144D01*
G37*
D11*
G04 #@! TD*
G04 #@! TO.P,C2,1*
G04 #@! TO.N,+3V3*
X69850000Y-39370000D03*
D10*
G04 #@! TO.N,GND*
G04 #@! TO.C,C2*
G36*
X70110779Y-37096144D02*
X70133834Y-37099563D01*
X70156443Y-37105227D01*
X70178387Y-37113079D01*
X70199457Y-37123044D01*
X70219448Y-37135026D01*
X70238168Y-37148910D01*
X70255438Y-37164562D01*
X70271090Y-37181832D01*
X70284974Y-37200552D01*
X70296956Y-37220543D01*
X70306921Y-37241613D01*
X70314773Y-37263557D01*
X70320437Y-37286166D01*
X70323856Y-37309221D01*
X70325000Y-37332500D01*
X70325000Y-37907500D01*
X70323856Y-37930779D01*
X70320437Y-37953834D01*
X70314773Y-37976443D01*
X70306921Y-37998387D01*
X70296956Y-38019457D01*
X70284974Y-38039448D01*
X70271090Y-38058168D01*
X70255438Y-38075438D01*
X70238168Y-38091090D01*
X70219448Y-38104974D01*
X70199457Y-38116956D01*
X70178387Y-38126921D01*
X70156443Y-38134773D01*
X70133834Y-38140437D01*
X70110779Y-38143856D01*
X70087500Y-38145000D01*
X69612500Y-38145000D01*
X69589221Y-38143856D01*
X69566166Y-38140437D01*
X69543557Y-38134773D01*
X69521613Y-38126921D01*
X69500543Y-38116956D01*
X69480552Y-38104974D01*
X69461832Y-38091090D01*
X69444562Y-38075438D01*
X69428910Y-38058168D01*
X69415026Y-38039448D01*
X69403044Y-38019457D01*
X69393079Y-37998387D01*
X69385227Y-37976443D01*
X69379563Y-37953834D01*
X69376144Y-37930779D01*
X69375000Y-37907500D01*
X69375000Y-37332500D01*
X69376144Y-37309221D01*
X69379563Y-37286166D01*
X69385227Y-37263557D01*
X69393079Y-37241613D01*
X69403044Y-37220543D01*
X69415026Y-37200552D01*
X69428910Y-37181832D01*
X69444562Y-37164562D01*
X69461832Y-37148910D01*
X69480552Y-37135026D01*
X69500543Y-37123044D01*
X69521613Y-37113079D01*
X69543557Y-37105227D01*
X69566166Y-37099563D01*
X69589221Y-37096144D01*
X69612500Y-37095000D01*
X70087500Y-37095000D01*
X70110779Y-37096144D01*
X70110779Y-37096144D01*
G37*
D11*
G04 #@! TD*
G04 #@! TO.P,C2,2*
G04 #@! TO.N,GND*
X69850000Y-37620000D03*
D12*
G04 #@! TO.P,Conn1,2*
G04 #@! TO.N,/+12V*
X76200000Y-30480000D03*
G04 #@! TO.P,Conn1,1*
G04 #@! TO.N,GND*
X76200000Y-38354000D03*
G04 #@! TD*
D13*
G04 #@! TO.P,U1,1*
G04 #@! TO.N,/+12V*
X67310000Y-31750000D03*
G04 #@! TO.P,U1,2*
G04 #@! TO.N,GND*
X67310000Y-34290000D03*
G04 #@! TO.P,U1,3*
G04 #@! TO.N,+3V3*
X67310000Y-36830000D03*
G04 #@! TD*
G04 #@! TO.P,Conn2,1*
G04 #@! TO.N,+3V3*
X96520000Y-22860000D03*
G04 #@! TO.P,Conn2,2*
G04 #@! TO.N,Sync2*
X96520000Y-20320000D03*
G04 #@! TO.P,Conn2,3*
G04 #@! TO.N,Sync1*
X96520000Y-17780000D03*
G04 #@! TO.P,Conn2,4*
G04 #@! TO.N,ICG*
X96520000Y-15240000D03*
G04 #@! TO.P,Conn2,5*
G04 #@! TO.N,SH*
X96520000Y-12700000D03*
G04 #@! TO.P,Conn2,6*
G04 #@! TO.N,M*
X96520000Y-10160000D03*
G04 #@! TO.P,Conn2,7*
G04 #@! TO.N,GND*
X96520000Y-7620000D03*
G04 #@! TD*
D14*
G04 #@! TO.P,U2,+3V3'*
G04 #@! TO.N,+3V3*
X59690000Y-1270000D03*
G04 #@! TO.P,U2,PM6*
G04 #@! TO.N,N/C*
X36830000Y-46990000D03*
G04 #@! TO.P,U2,PQ1*
X39370000Y-46990000D03*
G04 #@! TO.P,U2,PQ2*
X46990000Y-46990000D03*
G04 #@! TO.P,U2,PK0*
X49530000Y-3810000D03*
G04 #@! TO.P,U2,PQ3*
X44450000Y-46990000D03*
G04 #@! TO.P,U2,PP3*
X41910000Y-46990000D03*
G04 #@! TO.P,U2,PQ0*
G04 #@! TO.N,Net-(U2-PadPQ0)*
X44450000Y-1270000D03*
G04 #@! TO.P,U2,PA4*
G04 #@! TO.N,N/C*
X39370000Y-3810000D03*
G04 #@! TO.P,U2,Rese`*
X49530000Y-46990000D03*
G04 #@! TO.P,U2,PA7*
X52070000Y-46990000D03*
G04 #@! TO.P,U2,PN5*
G04 #@! TO.N,Net-(U2-PadPN5)*
X39370000Y-1270000D03*
G04 #@! TO.P,U2,PK2*
G04 #@! TO.N,N/C*
X44450000Y-3810000D03*
G04 #@! TO.P,U2,PK1*
X46990000Y-3810000D03*
G04 #@! TO.P,U2,+5V`*
X59690000Y-3810000D03*
G04 #@! TO.P,U2,GND*
G04 #@! TO.N,GND*
X57150000Y-3810000D03*
G04 #@! TO.P,U2,PB4*
G04 #@! TO.N,N/C*
X54610000Y-3810000D03*
G04 #@! TO.P,U2,PB5*
X52070000Y-3810000D03*
G04 #@! TO.P,U2,PK3*
X41910000Y-3810000D03*
G04 #@! TO.P,U2,PA5*
X36830000Y-3810000D03*
G04 #@! TO.P,U2,PD2*
G04 #@! TO.N,Net-(U2-PadPD2)*
X57150000Y-1270000D03*
G04 #@! TO.P,U2,PP0*
G04 #@! TO.N,Net-(U2-PadPP0)*
X54610000Y-1270000D03*
G04 #@! TO.P,U2,PP1*
G04 #@! TO.N,Net-(U2-PadPP1)*
X52070000Y-1270000D03*
G04 #@! TO.P,U2,PD4*
G04 #@! TO.N,Net-(U2-PadPD4)*
X49530000Y-1270000D03*
G04 #@! TO.P,U2,PD5*
G04 #@! TO.N,Net-(U2-PadPD5)*
X46990000Y-1270000D03*
G04 #@! TO.P,U2,PP4*
G04 #@! TO.N,Net-(U2-PadPP4)*
X41910000Y-1270000D03*
G04 #@! TO.P,U2,PN4*
G04 #@! TO.N,Net-(U2-PadPN4)*
X36830000Y-1270000D03*
G04 #@! TO.P,U2,PG1*
G04 #@! TO.N,N/C*
X59690000Y-44450000D03*
G04 #@! TO.P,U2,PK4*
X57150000Y-44450000D03*
G04 #@! TO.P,U2,PK5*
X54610000Y-44450000D03*
G04 #@! TO.P,U2,PM0*
X52070000Y-44450000D03*
G04 #@! TO.P,U2,PM1*
X49530000Y-44450000D03*
G04 #@! TO.P,U2,PM2*
X46990000Y-44450000D03*
G04 #@! TO.P,U2,PH0*
X44450000Y-44450000D03*
G04 #@! TO.P,U2,PH1*
X41910000Y-44450000D03*
G04 #@! TO.P,U2,PK6*
X39370000Y-44450000D03*
G04 #@! TO.P,U2,PK7*
X36830000Y-44450000D03*
G04 #@! TO.P,U2,GND*
G04 #@! TO.N,GND*
X59690000Y-46990000D03*
G04 #@! TO.P,U2,PM7*
G04 #@! TO.N,N/C*
X57150000Y-46990000D03*
G04 #@! TO.P,U2,PP5*
X54610000Y-46990000D03*
G04 #@! TO.P,U2,+5V*
G04 #@! TO.N,Net-(U2-Pad+5V)*
X123190000Y-3810000D03*
G04 #@! TO.P,U2,GND*
G04 #@! TO.N,GND*
X120650000Y-3810000D03*
G04 #@! TO.P,U2,PE0*
G04 #@! TO.N,M*
X118110000Y-3810000D03*
G04 #@! TO.P,U2,PE1*
G04 #@! TO.N,ICG*
X115570000Y-3810000D03*
G04 #@! TO.P,U2,PE2*
G04 #@! TO.N,Sync1*
X113030000Y-3810000D03*
G04 #@! TO.P,U2,PE3*
G04 #@! TO.N,SH*
X110490000Y-3810000D03*
G04 #@! TO.P,U2,PD7*
G04 #@! TO.N,Net-(U2-PadPD7)*
X107950000Y-3810000D03*
G04 #@! TO.P,U2,PA6*
G04 #@! TO.N,Net-(U2-PadPA6)*
X105410000Y-3810000D03*
G04 #@! TO.P,U2,PM4*
G04 #@! TO.N,Net-(U2-PadPM4)*
X102870000Y-3810000D03*
G04 #@! TO.P,U2,PM5*
G04 #@! TO.N,Net-(U2-PadPM5)*
X100330000Y-3810000D03*
G04 #@! TO.P,U2,+3V3*
G04 #@! TO.N,Net-(U2-Pad+3V3)*
X123190000Y-1270000D03*
G04 #@! TO.P,U2,PE4*
G04 #@! TO.N,Sync2*
X120650000Y-1270000D03*
G04 #@! TO.P,U2,PC4*
G04 #@! TO.N,Net-(U2-PadPC4)*
X118110000Y-1270000D03*
G04 #@! TO.P,U2,PC5*
G04 #@! TO.N,Net-(U2-PadPC5)*
X115570000Y-1270000D03*
G04 #@! TO.P,U2,PC6*
G04 #@! TO.N,Net-(U2-PadPC6)*
X113030000Y-1270000D03*
G04 #@! TO.P,U2,PE5*
G04 #@! TO.N,Net-(U2-PadPE5)*
X110490000Y-1270000D03*
G04 #@! TO.P,U2,PD3*
G04 #@! TO.N,Net-(U2-PadPD3)*
X107950000Y-1270000D03*
G04 #@! TO.P,U2,PC7*
G04 #@! TO.N,Net-(U2-PadPC7)*
X105410000Y-1270000D03*
G04 #@! TO.P,U2,PB2*
G04 #@! TO.N,Net-(U2-PadPB2)*
X102870000Y-1270000D03*
G04 #@! TO.P,U2,PB3*
G04 #@! TO.N,Net-(U2-PadPB3)*
X100330000Y-1270000D03*
G04 #@! TO.P,U2,PF1*
G04 #@! TO.N,Net-(U2-PadPF1)*
X123190000Y-44450000D03*
G04 #@! TO.P,U2,PF2*
G04 #@! TO.N,Net-(U2-PadPF2)*
X120650000Y-44450000D03*
G04 #@! TO.P,U2,PF3*
G04 #@! TO.N,Net-(U2-PadPF3)*
X118110000Y-44450000D03*
G04 #@! TO.P,U2,PG0*
G04 #@! TO.N,Net-(U2-PadPG0)*
X115570000Y-44450000D03*
G04 #@! TO.P,U2,PL4*
G04 #@! TO.N,Net-(U2-PadPL4)*
X113030000Y-44450000D03*
G04 #@! TO.P,U2,PL5*
G04 #@! TO.N,Net-(U2-PadPL5)*
X110490000Y-44450000D03*
G04 #@! TO.P,U2,PL0*
G04 #@! TO.N,Net-(U2-PadPL0)*
X107950000Y-44450000D03*
G04 #@! TO.P,U2,PL1*
G04 #@! TO.N,Net-(U2-PadPL1)*
X105410000Y-44450000D03*
G04 #@! TO.P,U2,PL2*
G04 #@! TO.N,Net-(U2-PadPL2)*
X102870000Y-44450000D03*
G04 #@! TO.P,U2,PL3*
G04 #@! TO.N,Net-(U2-PadPL3)*
X100330000Y-44450000D03*
G04 #@! TO.P,U2,GND*
G04 #@! TO.N,GND*
X123190000Y-46990000D03*
G04 #@! TO.P,U2,PM3*
G04 #@! TO.N,Net-(U2-PadPM3)*
X120650000Y-46990000D03*
G04 #@! TO.P,U2,PH2*
G04 #@! TO.N,Net-(U2-PadPH2)*
X118110000Y-46990000D03*
G04 #@! TO.P,U2,PH3*
G04 #@! TO.N,Net-(U2-PadPH3)*
X115570000Y-46990000D03*
G04 #@! TO.P,U2,Rese*
G04 #@! TO.N,Net-(U2-PadRese)*
X113030000Y-46990000D03*
G04 #@! TO.P,U2,PD1*
G04 #@! TO.N,Net-(U2-PadPD1)*
X110490000Y-46990000D03*
G04 #@! TO.P,U2,PD0*
G04 #@! TO.N,Net-(U2-PadPD0)*
X107950000Y-46990000D03*
G04 #@! TO.P,U2,PN2*
G04 #@! TO.N,Net-(U2-PadPN2)*
X105410000Y-46990000D03*
G04 #@! TO.P,U2,PN3*
G04 #@! TO.N,Net-(U2-PadPN3)*
X102870000Y-46990000D03*
G04 #@! TO.P,U2,PP2*
G04 #@! TO.N,Net-(U2-PadPP2)*
X100330000Y-46990000D03*
G04 #@! TD*
D15*
G04 #@! TO.N,/+12V*
X67310000Y-31750000D02*
X69850000Y-29210000D01*
X74930000Y-29210000D02*
X76200000Y-30480000D01*
X69850000Y-29210000D02*
X74930000Y-29210000D01*
G04 #@! TO.N,+3V3*
X67310000Y-36830000D02*
X69850000Y-39370000D01*
X67310000Y-36830000D02*
X69850000Y-34290000D01*
X69850000Y-34290000D02*
X93980000Y-34290000D01*
X96520000Y-31750000D02*
X96520000Y-22860000D01*
X93980000Y-34290000D02*
X96520000Y-31750000D01*
X66232370Y-36830000D02*
X65532000Y-36129630D01*
X67310000Y-36830000D02*
X66232370Y-36830000D01*
X65532000Y-36129630D02*
X65532000Y-2286000D01*
X64516000Y-1270000D02*
X59690000Y-1270000D01*
X65532000Y-2286000D02*
X64516000Y-1270000D01*
D16*
G04 #@! TO.N,Sync2*
X96520000Y-20320000D02*
X118618000Y-20320000D01*
X118618000Y-20320000D02*
X119380000Y-19558000D01*
X119380000Y-2540000D02*
X120650000Y-1270000D01*
X119380000Y-19558000D02*
X119380000Y-2540000D01*
G04 #@! TO.N,ICG*
X115570000Y-3810000D02*
X115570000Y-14478000D01*
X115570000Y-14478000D02*
X114808000Y-15240000D01*
X114808000Y-15240000D02*
X96520000Y-15240000D01*
G04 #@! TO.N,SH*
X110490000Y-11938000D02*
X110490000Y-3810000D01*
X96520000Y-12700000D02*
X109728000Y-12700000D01*
X109728000Y-12700000D02*
X110490000Y-11938000D01*
G04 #@! TO.N,M*
X98298000Y-10160000D02*
X96520000Y-10160000D01*
X99060000Y-9398000D02*
X98298000Y-10160000D01*
X99060000Y-3048000D02*
X99060000Y-9398000D01*
X99568000Y-2540000D02*
X99060000Y-3048000D01*
X118110000Y-3810000D02*
X116840000Y-2540000D01*
X116840000Y-2540000D02*
X99568000Y-2540000D01*
G04 #@! TD*
D17*
G04 #@! TO.N,GND*
G36*
X35435000Y-992517D02*
X35435000Y-1547483D01*
X35647376Y-2060204D01*
X36039796Y-2452624D01*
X36250740Y-2540000D01*
X36039796Y-2627376D01*
X35647376Y-3019796D01*
X35435000Y-3532517D01*
X35435000Y-4087483D01*
X35647376Y-4600204D01*
X36039796Y-4992624D01*
X36552517Y-5205000D01*
X37107483Y-5205000D01*
X37620204Y-4992624D01*
X38012624Y-4600204D01*
X38100000Y-4389260D01*
X38187376Y-4600204D01*
X38579796Y-4992624D01*
X39092517Y-5205000D01*
X39647483Y-5205000D01*
X40160204Y-4992624D01*
X40552624Y-4600204D01*
X40640000Y-4389260D01*
X40727376Y-4600204D01*
X41119796Y-4992624D01*
X41632517Y-5205000D01*
X42187483Y-5205000D01*
X42700204Y-4992624D01*
X43092624Y-4600204D01*
X43180000Y-4389260D01*
X43267376Y-4600204D01*
X43659796Y-4992624D01*
X44172517Y-5205000D01*
X44727483Y-5205000D01*
X45240204Y-4992624D01*
X45632624Y-4600204D01*
X45720000Y-4389260D01*
X45807376Y-4600204D01*
X46199796Y-4992624D01*
X46712517Y-5205000D01*
X47267483Y-5205000D01*
X47780204Y-4992624D01*
X48172624Y-4600204D01*
X48260000Y-4389260D01*
X48347376Y-4600204D01*
X48739796Y-4992624D01*
X49252517Y-5205000D01*
X49807483Y-5205000D01*
X50320204Y-4992624D01*
X50712624Y-4600204D01*
X50800000Y-4389260D01*
X50887376Y-4600204D01*
X51279796Y-4992624D01*
X51792517Y-5205000D01*
X52347483Y-5205000D01*
X52860204Y-4992624D01*
X53252624Y-4600204D01*
X53340000Y-4389260D01*
X53427376Y-4600204D01*
X53819796Y-4992624D01*
X54332517Y-5205000D01*
X54887483Y-5205000D01*
X55400204Y-4992624D01*
X55792624Y-4600204D01*
X56005000Y-4087483D01*
X56005000Y-3532517D01*
X55792624Y-3019796D01*
X55400204Y-2627376D01*
X55189260Y-2540000D01*
X55400204Y-2452624D01*
X55792624Y-2060204D01*
X55880000Y-1849260D01*
X55967376Y-2060204D01*
X56359796Y-2452624D01*
X56872517Y-2665000D01*
X57427483Y-2665000D01*
X57940204Y-2452624D01*
X58332624Y-2060204D01*
X58420000Y-1849260D01*
X58507376Y-2060204D01*
X58899796Y-2452624D01*
X59110740Y-2540000D01*
X58899796Y-2627376D01*
X58507376Y-3019796D01*
X58295000Y-3532517D01*
X58295000Y-4087483D01*
X58507376Y-4600204D01*
X58899796Y-4992624D01*
X59412517Y-5205000D01*
X59967483Y-5205000D01*
X60480204Y-4992624D01*
X60872624Y-4600204D01*
X61085000Y-4087483D01*
X61085000Y-3532517D01*
X60872624Y-3019796D01*
X60480204Y-2627376D01*
X60269260Y-2540000D01*
X60480204Y-2452624D01*
X60646828Y-2286000D01*
X64095160Y-2286000D01*
X64516001Y-2706842D01*
X64516000Y-36029567D01*
X64496096Y-36129630D01*
X64516000Y-36229693D01*
X64516000Y-36229694D01*
X64574949Y-36526052D01*
X64799505Y-36862125D01*
X64884339Y-36918809D01*
X65443192Y-37477663D01*
X65499875Y-37562495D01*
X65835947Y-37787051D01*
X66132305Y-37846000D01*
X66132306Y-37846000D01*
X66232370Y-37865904D01*
X66332434Y-37846000D01*
X66350343Y-37846000D01*
X66518663Y-38014320D01*
X67032119Y-38227000D01*
X67270160Y-38227000D01*
X68734240Y-39691080D01*
X68794922Y-39996152D01*
X68986753Y-40283247D01*
X69273848Y-40475078D01*
X69612500Y-40542440D01*
X70087500Y-40542440D01*
X70426152Y-40475078D01*
X70713247Y-40283247D01*
X70905078Y-39996152D01*
X70972440Y-39657500D01*
X70972440Y-39082500D01*
X70905078Y-38743848D01*
X70713247Y-38456753D01*
X70426152Y-38264922D01*
X70121080Y-38204240D01*
X68746840Y-36830000D01*
X70270841Y-35306000D01*
X93879937Y-35306000D01*
X93980000Y-35325904D01*
X94080063Y-35306000D01*
X94080065Y-35306000D01*
X94376423Y-35247051D01*
X94712495Y-35022495D01*
X94769180Y-34937660D01*
X97167664Y-32539177D01*
X97252495Y-32482495D01*
X97477051Y-32146423D01*
X97536000Y-31850065D01*
X97536000Y-31850064D01*
X97555904Y-31750001D01*
X97536000Y-31649937D01*
X97536000Y-23819657D01*
X97704320Y-23651337D01*
X97917000Y-23137881D01*
X97917000Y-22582119D01*
X97704320Y-22068663D01*
X97311337Y-21675680D01*
X97104487Y-21590000D01*
X97311337Y-21504320D01*
X97670157Y-21145500D01*
X118536699Y-21145500D01*
X118618000Y-21161672D01*
X118699301Y-21145500D01*
X118699303Y-21145500D01*
X118940094Y-21097604D01*
X119213152Y-20915152D01*
X119259209Y-20846223D01*
X119906226Y-20199207D01*
X119975152Y-20153152D01*
X120116814Y-19941141D01*
X120157604Y-19880095D01*
X120221672Y-19558000D01*
X120205500Y-19476697D01*
X120205500Y-2881932D01*
X120422432Y-2665000D01*
X120927483Y-2665000D01*
X121440204Y-2452624D01*
X121832624Y-2060204D01*
X121920000Y-1849260D01*
X122007376Y-2060204D01*
X122399796Y-2452624D01*
X122610740Y-2540000D01*
X122399796Y-2627376D01*
X122007376Y-3019796D01*
X121795000Y-3532517D01*
X121795000Y-4087483D01*
X122007376Y-4600204D01*
X122399796Y-4992624D01*
X122912517Y-5205000D01*
X123467483Y-5205000D01*
X123750001Y-5087977D01*
X123750000Y-43172022D01*
X123467483Y-43055000D01*
X122912517Y-43055000D01*
X122399796Y-43267376D01*
X122007376Y-43659796D01*
X121920000Y-43870740D01*
X121832624Y-43659796D01*
X121440204Y-43267376D01*
X120927483Y-43055000D01*
X120372517Y-43055000D01*
X119859796Y-43267376D01*
X119467376Y-43659796D01*
X119380000Y-43870740D01*
X119292624Y-43659796D01*
X118900204Y-43267376D01*
X118387483Y-43055000D01*
X117832517Y-43055000D01*
X117319796Y-43267376D01*
X116927376Y-43659796D01*
X116840000Y-43870740D01*
X116752624Y-43659796D01*
X116360204Y-43267376D01*
X115847483Y-43055000D01*
X115292517Y-43055000D01*
X114779796Y-43267376D01*
X114387376Y-43659796D01*
X114300000Y-43870740D01*
X114212624Y-43659796D01*
X113820204Y-43267376D01*
X113307483Y-43055000D01*
X112752517Y-43055000D01*
X112239796Y-43267376D01*
X111847376Y-43659796D01*
X111760000Y-43870740D01*
X111672624Y-43659796D01*
X111280204Y-43267376D01*
X110767483Y-43055000D01*
X110212517Y-43055000D01*
X109699796Y-43267376D01*
X109307376Y-43659796D01*
X109220000Y-43870740D01*
X109132624Y-43659796D01*
X108740204Y-43267376D01*
X108227483Y-43055000D01*
X107672517Y-43055000D01*
X107159796Y-43267376D01*
X106767376Y-43659796D01*
X106680000Y-43870740D01*
X106592624Y-43659796D01*
X106200204Y-43267376D01*
X105687483Y-43055000D01*
X105132517Y-43055000D01*
X104619796Y-43267376D01*
X104227376Y-43659796D01*
X104140000Y-43870740D01*
X104052624Y-43659796D01*
X103660204Y-43267376D01*
X103147483Y-43055000D01*
X102592517Y-43055000D01*
X102079796Y-43267376D01*
X101687376Y-43659796D01*
X101600000Y-43870740D01*
X101512624Y-43659796D01*
X101120204Y-43267376D01*
X100607483Y-43055000D01*
X100052517Y-43055000D01*
X99539796Y-43267376D01*
X99147376Y-43659796D01*
X98935000Y-44172517D01*
X98935000Y-44727483D01*
X99147376Y-45240204D01*
X99539796Y-45632624D01*
X99750740Y-45720000D01*
X99539796Y-45807376D01*
X99147376Y-46199796D01*
X98935000Y-46712517D01*
X98935000Y-47267483D01*
X99147376Y-47780204D01*
X99539796Y-48172624D01*
X100052517Y-48385000D01*
X100607483Y-48385000D01*
X101120204Y-48172624D01*
X101512624Y-47780204D01*
X101600000Y-47569260D01*
X101687376Y-47780204D01*
X102079796Y-48172624D01*
X102592517Y-48385000D01*
X103147483Y-48385000D01*
X103660204Y-48172624D01*
X104052624Y-47780204D01*
X104140000Y-47569260D01*
X104227376Y-47780204D01*
X104619796Y-48172624D01*
X105132517Y-48385000D01*
X105687483Y-48385000D01*
X106200204Y-48172624D01*
X106592624Y-47780204D01*
X106680000Y-47569260D01*
X106767376Y-47780204D01*
X107159796Y-48172624D01*
X107672517Y-48385000D01*
X108227483Y-48385000D01*
X108740204Y-48172624D01*
X109132624Y-47780204D01*
X109220000Y-47569260D01*
X109307376Y-47780204D01*
X109699796Y-48172624D01*
X110212517Y-48385000D01*
X110767483Y-48385000D01*
X111280204Y-48172624D01*
X111672624Y-47780204D01*
X111760000Y-47569260D01*
X111847376Y-47780204D01*
X112239796Y-48172624D01*
X112752517Y-48385000D01*
X113307483Y-48385000D01*
X113820204Y-48172624D01*
X114212624Y-47780204D01*
X114300000Y-47569260D01*
X114387376Y-47780204D01*
X114779796Y-48172624D01*
X115292517Y-48385000D01*
X115847483Y-48385000D01*
X116360204Y-48172624D01*
X116752624Y-47780204D01*
X116840000Y-47569260D01*
X116927376Y-47780204D01*
X117319796Y-48172624D01*
X117832517Y-48385000D01*
X118387483Y-48385000D01*
X118900204Y-48172624D01*
X119292624Y-47780204D01*
X119380000Y-47569260D01*
X119467376Y-47780204D01*
X119859796Y-48172624D01*
X120372517Y-48385000D01*
X120927483Y-48385000D01*
X121440204Y-48172624D01*
X121832624Y-47780204D01*
X122045000Y-47267483D01*
X122045000Y-46712517D01*
X121832624Y-46199796D01*
X121440204Y-45807376D01*
X121229260Y-45720000D01*
X121440204Y-45632624D01*
X121832624Y-45240204D01*
X121920000Y-45029260D01*
X122007376Y-45240204D01*
X122399796Y-45632624D01*
X122912517Y-45845000D01*
X123467483Y-45845000D01*
X123750000Y-45727978D01*
X123750000Y-54547881D01*
X123705935Y-54797787D01*
X123610596Y-54962919D01*
X123464524Y-55085488D01*
X123255532Y-55161555D01*
X123159004Y-55170000D01*
X1332119Y-55170000D01*
X1082213Y-55125935D01*
X917081Y-55030596D01*
X794512Y-54884524D01*
X718445Y-54675532D01*
X710000Y-54579004D01*
X710000Y-44172517D01*
X35435000Y-44172517D01*
X35435000Y-44727483D01*
X35647376Y-45240204D01*
X36039796Y-45632624D01*
X36250740Y-45720000D01*
X36039796Y-45807376D01*
X35647376Y-46199796D01*
X35435000Y-46712517D01*
X35435000Y-47267483D01*
X35647376Y-47780204D01*
X36039796Y-48172624D01*
X36552517Y-48385000D01*
X37107483Y-48385000D01*
X37620204Y-48172624D01*
X38012624Y-47780204D01*
X38100000Y-47569260D01*
X38187376Y-47780204D01*
X38579796Y-48172624D01*
X39092517Y-48385000D01*
X39647483Y-48385000D01*
X40160204Y-48172624D01*
X40552624Y-47780204D01*
X40640000Y-47569260D01*
X40727376Y-47780204D01*
X41119796Y-48172624D01*
X41632517Y-48385000D01*
X42187483Y-48385000D01*
X42700204Y-48172624D01*
X43092624Y-47780204D01*
X43180000Y-47569260D01*
X43267376Y-47780204D01*
X43659796Y-48172624D01*
X44172517Y-48385000D01*
X44727483Y-48385000D01*
X45240204Y-48172624D01*
X45632624Y-47780204D01*
X45720000Y-47569260D01*
X45807376Y-47780204D01*
X46199796Y-48172624D01*
X46712517Y-48385000D01*
X47267483Y-48385000D01*
X47780204Y-48172624D01*
X48172624Y-47780204D01*
X48260000Y-47569260D01*
X48347376Y-47780204D01*
X48739796Y-48172624D01*
X49252517Y-48385000D01*
X49807483Y-48385000D01*
X50320204Y-48172624D01*
X50712624Y-47780204D01*
X50800000Y-47569260D01*
X50887376Y-47780204D01*
X51279796Y-48172624D01*
X51792517Y-48385000D01*
X52347483Y-48385000D01*
X52860204Y-48172624D01*
X53252624Y-47780204D01*
X53340000Y-47569260D01*
X53427376Y-47780204D01*
X53819796Y-48172624D01*
X54332517Y-48385000D01*
X54887483Y-48385000D01*
X55400204Y-48172624D01*
X55792624Y-47780204D01*
X55880000Y-47569260D01*
X55967376Y-47780204D01*
X56359796Y-48172624D01*
X56872517Y-48385000D01*
X57427483Y-48385000D01*
X57940204Y-48172624D01*
X58332624Y-47780204D01*
X58545000Y-47267483D01*
X58545000Y-46712517D01*
X58332624Y-46199796D01*
X57940204Y-45807376D01*
X57729260Y-45720000D01*
X57940204Y-45632624D01*
X58332624Y-45240204D01*
X58420000Y-45029260D01*
X58507376Y-45240204D01*
X58899796Y-45632624D01*
X59412517Y-45845000D01*
X59967483Y-45845000D01*
X60480204Y-45632624D01*
X60872624Y-45240204D01*
X61085000Y-44727483D01*
X61085000Y-44172517D01*
X60872624Y-43659796D01*
X60480204Y-43267376D01*
X59967483Y-43055000D01*
X59412517Y-43055000D01*
X58899796Y-43267376D01*
X58507376Y-43659796D01*
X58420000Y-43870740D01*
X58332624Y-43659796D01*
X57940204Y-43267376D01*
X57427483Y-43055000D01*
X56872517Y-43055000D01*
X56359796Y-43267376D01*
X55967376Y-43659796D01*
X55880000Y-43870740D01*
X55792624Y-43659796D01*
X55400204Y-43267376D01*
X54887483Y-43055000D01*
X54332517Y-43055000D01*
X53819796Y-43267376D01*
X53427376Y-43659796D01*
X53340000Y-43870740D01*
X53252624Y-43659796D01*
X52860204Y-43267376D01*
X52347483Y-43055000D01*
X51792517Y-43055000D01*
X51279796Y-43267376D01*
X50887376Y-43659796D01*
X50800000Y-43870740D01*
X50712624Y-43659796D01*
X50320204Y-43267376D01*
X49807483Y-43055000D01*
X49252517Y-43055000D01*
X48739796Y-43267376D01*
X48347376Y-43659796D01*
X48260000Y-43870740D01*
X48172624Y-43659796D01*
X47780204Y-43267376D01*
X47267483Y-43055000D01*
X46712517Y-43055000D01*
X46199796Y-43267376D01*
X45807376Y-43659796D01*
X45720000Y-43870740D01*
X45632624Y-43659796D01*
X45240204Y-43267376D01*
X44727483Y-43055000D01*
X44172517Y-43055000D01*
X43659796Y-43267376D01*
X43267376Y-43659796D01*
X43180000Y-43870740D01*
X43092624Y-43659796D01*
X42700204Y-43267376D01*
X42187483Y-43055000D01*
X41632517Y-43055000D01*
X41119796Y-43267376D01*
X40727376Y-43659796D01*
X40640000Y-43870740D01*
X40552624Y-43659796D01*
X40160204Y-43267376D01*
X39647483Y-43055000D01*
X39092517Y-43055000D01*
X38579796Y-43267376D01*
X38187376Y-43659796D01*
X38100000Y-43870740D01*
X38012624Y-43659796D01*
X37620204Y-43267376D01*
X37107483Y-43055000D01*
X36552517Y-43055000D01*
X36039796Y-43267376D01*
X35647376Y-43659796D01*
X35435000Y-44172517D01*
X710000Y-44172517D01*
X710000Y-32468573D01*
X43009820Y-32468573D01*
X43009820Y-33307267D01*
X43330774Y-34082119D01*
X43923821Y-34675166D01*
X44698673Y-34996120D01*
X45537367Y-34996120D01*
X46312219Y-34675166D01*
X46905266Y-34082119D01*
X47226220Y-33307267D01*
X47226220Y-32468573D01*
X46905266Y-31693721D01*
X46312219Y-31100674D01*
X45537367Y-30779720D01*
X44698673Y-30779720D01*
X43923821Y-31100674D01*
X43330774Y-31693721D01*
X43009820Y-32468573D01*
X710000Y-32468573D01*
X710000Y-20715993D01*
X47823120Y-20715993D01*
X47823120Y-21554687D01*
X48144074Y-22329539D01*
X48737121Y-22922586D01*
X49511973Y-23243540D01*
X50350667Y-23243540D01*
X51125519Y-22922586D01*
X51718566Y-22329539D01*
X52039520Y-21554687D01*
X52039520Y-20715993D01*
X51718566Y-19941141D01*
X51125519Y-19348094D01*
X50350667Y-19027140D01*
X49511973Y-19027140D01*
X48737121Y-19348094D01*
X48144074Y-19941141D01*
X47823120Y-20715993D01*
X710000Y-20715993D01*
X710000Y-16009690D01*
X1019454Y-16756779D01*
X1612501Y-17349826D01*
X2387353Y-17670780D01*
X3226047Y-17670780D01*
X4000899Y-17349826D01*
X4593946Y-16756779D01*
X4914900Y-15981927D01*
X4914900Y-15143233D01*
X4593946Y-14368381D01*
X4000899Y-13775334D01*
X3226047Y-13454380D01*
X2387353Y-13454380D01*
X1612501Y-13775334D01*
X1019454Y-14368381D01*
X710000Y-15115470D01*
X710000Y-3390653D01*
X5511800Y-3390653D01*
X5511800Y-4229347D01*
X5832754Y-5004199D01*
X6425801Y-5597246D01*
X7200653Y-5918200D01*
X8039347Y-5918200D01*
X8814199Y-5597246D01*
X9407246Y-5004199D01*
X9728200Y-4229347D01*
X9728200Y-3390653D01*
X9407246Y-2615801D01*
X8814199Y-2022754D01*
X8039347Y-1701800D01*
X7200653Y-1701800D01*
X6425801Y-2022754D01*
X5832754Y-2615801D01*
X5511800Y-3390653D01*
X710000Y-3390653D01*
X710000Y-1332119D01*
X754065Y-1082213D01*
X849405Y-917080D01*
X995477Y-794512D01*
X1204465Y-718445D01*
X1300996Y-710000D01*
X35552022Y-710000D01*
X35435000Y-992517D01*
X35435000Y-992517D01*
G37*
X35435000Y-992517D02*
X35435000Y-1547483D01*
X35647376Y-2060204D01*
X36039796Y-2452624D01*
X36250740Y-2540000D01*
X36039796Y-2627376D01*
X35647376Y-3019796D01*
X35435000Y-3532517D01*
X35435000Y-4087483D01*
X35647376Y-4600204D01*
X36039796Y-4992624D01*
X36552517Y-5205000D01*
X37107483Y-5205000D01*
X37620204Y-4992624D01*
X38012624Y-4600204D01*
X38100000Y-4389260D01*
X38187376Y-4600204D01*
X38579796Y-4992624D01*
X39092517Y-5205000D01*
X39647483Y-5205000D01*
X40160204Y-4992624D01*
X40552624Y-4600204D01*
X40640000Y-4389260D01*
X40727376Y-4600204D01*
X41119796Y-4992624D01*
X41632517Y-5205000D01*
X42187483Y-5205000D01*
X42700204Y-4992624D01*
X43092624Y-4600204D01*
X43180000Y-4389260D01*
X43267376Y-4600204D01*
X43659796Y-4992624D01*
X44172517Y-5205000D01*
X44727483Y-5205000D01*
X45240204Y-4992624D01*
X45632624Y-4600204D01*
X45720000Y-4389260D01*
X45807376Y-4600204D01*
X46199796Y-4992624D01*
X46712517Y-5205000D01*
X47267483Y-5205000D01*
X47780204Y-4992624D01*
X48172624Y-4600204D01*
X48260000Y-4389260D01*
X48347376Y-4600204D01*
X48739796Y-4992624D01*
X49252517Y-5205000D01*
X49807483Y-5205000D01*
X50320204Y-4992624D01*
X50712624Y-4600204D01*
X50800000Y-4389260D01*
X50887376Y-4600204D01*
X51279796Y-4992624D01*
X51792517Y-5205000D01*
X52347483Y-5205000D01*
X52860204Y-4992624D01*
X53252624Y-4600204D01*
X53340000Y-4389260D01*
X53427376Y-4600204D01*
X53819796Y-4992624D01*
X54332517Y-5205000D01*
X54887483Y-5205000D01*
X55400204Y-4992624D01*
X55792624Y-4600204D01*
X56005000Y-4087483D01*
X56005000Y-3532517D01*
X55792624Y-3019796D01*
X55400204Y-2627376D01*
X55189260Y-2540000D01*
X55400204Y-2452624D01*
X55792624Y-2060204D01*
X55880000Y-1849260D01*
X55967376Y-2060204D01*
X56359796Y-2452624D01*
X56872517Y-2665000D01*
X57427483Y-2665000D01*
X57940204Y-2452624D01*
X58332624Y-2060204D01*
X58420000Y-1849260D01*
X58507376Y-2060204D01*
X58899796Y-2452624D01*
X59110740Y-2540000D01*
X58899796Y-2627376D01*
X58507376Y-3019796D01*
X58295000Y-3532517D01*
X58295000Y-4087483D01*
X58507376Y-4600204D01*
X58899796Y-4992624D01*
X59412517Y-5205000D01*
X59967483Y-5205000D01*
X60480204Y-4992624D01*
X60872624Y-4600204D01*
X61085000Y-4087483D01*
X61085000Y-3532517D01*
X60872624Y-3019796D01*
X60480204Y-2627376D01*
X60269260Y-2540000D01*
X60480204Y-2452624D01*
X60646828Y-2286000D01*
X64095160Y-2286000D01*
X64516001Y-2706842D01*
X64516000Y-36029567D01*
X64496096Y-36129630D01*
X64516000Y-36229693D01*
X64516000Y-36229694D01*
X64574949Y-36526052D01*
X64799505Y-36862125D01*
X64884339Y-36918809D01*
X65443192Y-37477663D01*
X65499875Y-37562495D01*
X65835947Y-37787051D01*
X66132305Y-37846000D01*
X66132306Y-37846000D01*
X66232370Y-37865904D01*
X66332434Y-37846000D01*
X66350343Y-37846000D01*
X66518663Y-38014320D01*
X67032119Y-38227000D01*
X67270160Y-38227000D01*
X68734240Y-39691080D01*
X68794922Y-39996152D01*
X68986753Y-40283247D01*
X69273848Y-40475078D01*
X69612500Y-40542440D01*
X70087500Y-40542440D01*
X70426152Y-40475078D01*
X70713247Y-40283247D01*
X70905078Y-39996152D01*
X70972440Y-39657500D01*
X70972440Y-39082500D01*
X70905078Y-38743848D01*
X70713247Y-38456753D01*
X70426152Y-38264922D01*
X70121080Y-38204240D01*
X68746840Y-36830000D01*
X70270841Y-35306000D01*
X93879937Y-35306000D01*
X93980000Y-35325904D01*
X94080063Y-35306000D01*
X94080065Y-35306000D01*
X94376423Y-35247051D01*
X94712495Y-35022495D01*
X94769180Y-34937660D01*
X97167664Y-32539177D01*
X97252495Y-32482495D01*
X97477051Y-32146423D01*
X97536000Y-31850065D01*
X97536000Y-31850064D01*
X97555904Y-31750001D01*
X97536000Y-31649937D01*
X97536000Y-23819657D01*
X97704320Y-23651337D01*
X97917000Y-23137881D01*
X97917000Y-22582119D01*
X97704320Y-22068663D01*
X97311337Y-21675680D01*
X97104487Y-21590000D01*
X97311337Y-21504320D01*
X97670157Y-21145500D01*
X118536699Y-21145500D01*
X118618000Y-21161672D01*
X118699301Y-21145500D01*
X118699303Y-21145500D01*
X118940094Y-21097604D01*
X119213152Y-20915152D01*
X119259209Y-20846223D01*
X119906226Y-20199207D01*
X119975152Y-20153152D01*
X120116814Y-19941141D01*
X120157604Y-19880095D01*
X120221672Y-19558000D01*
X120205500Y-19476697D01*
X120205500Y-2881932D01*
X120422432Y-2665000D01*
X120927483Y-2665000D01*
X121440204Y-2452624D01*
X121832624Y-2060204D01*
X121920000Y-1849260D01*
X122007376Y-2060204D01*
X122399796Y-2452624D01*
X122610740Y-2540000D01*
X122399796Y-2627376D01*
X122007376Y-3019796D01*
X121795000Y-3532517D01*
X121795000Y-4087483D01*
X122007376Y-4600204D01*
X122399796Y-4992624D01*
X122912517Y-5205000D01*
X123467483Y-5205000D01*
X123750001Y-5087977D01*
X123750000Y-43172022D01*
X123467483Y-43055000D01*
X122912517Y-43055000D01*
X122399796Y-43267376D01*
X122007376Y-43659796D01*
X121920000Y-43870740D01*
X121832624Y-43659796D01*
X121440204Y-43267376D01*
X120927483Y-43055000D01*
X120372517Y-43055000D01*
X119859796Y-43267376D01*
X119467376Y-43659796D01*
X119380000Y-43870740D01*
X119292624Y-43659796D01*
X118900204Y-43267376D01*
X118387483Y-43055000D01*
X117832517Y-43055000D01*
X117319796Y-43267376D01*
X116927376Y-43659796D01*
X116840000Y-43870740D01*
X116752624Y-43659796D01*
X116360204Y-43267376D01*
X115847483Y-43055000D01*
X115292517Y-43055000D01*
X114779796Y-43267376D01*
X114387376Y-43659796D01*
X114300000Y-43870740D01*
X114212624Y-43659796D01*
X113820204Y-43267376D01*
X113307483Y-43055000D01*
X112752517Y-43055000D01*
X112239796Y-43267376D01*
X111847376Y-43659796D01*
X111760000Y-43870740D01*
X111672624Y-43659796D01*
X111280204Y-43267376D01*
X110767483Y-43055000D01*
X110212517Y-43055000D01*
X109699796Y-43267376D01*
X109307376Y-43659796D01*
X109220000Y-43870740D01*
X109132624Y-43659796D01*
X108740204Y-43267376D01*
X108227483Y-43055000D01*
X107672517Y-43055000D01*
X107159796Y-43267376D01*
X106767376Y-43659796D01*
X106680000Y-43870740D01*
X106592624Y-43659796D01*
X106200204Y-43267376D01*
X105687483Y-43055000D01*
X105132517Y-43055000D01*
X104619796Y-43267376D01*
X104227376Y-43659796D01*
X104140000Y-43870740D01*
X104052624Y-43659796D01*
X103660204Y-43267376D01*
X103147483Y-43055000D01*
X102592517Y-43055000D01*
X102079796Y-43267376D01*
X101687376Y-43659796D01*
X101600000Y-43870740D01*
X101512624Y-43659796D01*
X101120204Y-43267376D01*
X100607483Y-43055000D01*
X100052517Y-43055000D01*
X99539796Y-43267376D01*
X99147376Y-43659796D01*
X98935000Y-44172517D01*
X98935000Y-44727483D01*
X99147376Y-45240204D01*
X99539796Y-45632624D01*
X99750740Y-45720000D01*
X99539796Y-45807376D01*
X99147376Y-46199796D01*
X98935000Y-46712517D01*
X98935000Y-47267483D01*
X99147376Y-47780204D01*
X99539796Y-48172624D01*
X100052517Y-48385000D01*
X100607483Y-48385000D01*
X101120204Y-48172624D01*
X101512624Y-47780204D01*
X101600000Y-47569260D01*
X101687376Y-47780204D01*
X102079796Y-48172624D01*
X102592517Y-48385000D01*
X103147483Y-48385000D01*
X103660204Y-48172624D01*
X104052624Y-47780204D01*
X104140000Y-47569260D01*
X104227376Y-47780204D01*
X104619796Y-48172624D01*
X105132517Y-48385000D01*
X105687483Y-48385000D01*
X106200204Y-48172624D01*
X106592624Y-47780204D01*
X106680000Y-47569260D01*
X106767376Y-47780204D01*
X107159796Y-48172624D01*
X107672517Y-48385000D01*
X108227483Y-48385000D01*
X108740204Y-48172624D01*
X109132624Y-47780204D01*
X109220000Y-47569260D01*
X109307376Y-47780204D01*
X109699796Y-48172624D01*
X110212517Y-48385000D01*
X110767483Y-48385000D01*
X111280204Y-48172624D01*
X111672624Y-47780204D01*
X111760000Y-47569260D01*
X111847376Y-47780204D01*
X112239796Y-48172624D01*
X112752517Y-48385000D01*
X113307483Y-48385000D01*
X113820204Y-48172624D01*
X114212624Y-47780204D01*
X114300000Y-47569260D01*
X114387376Y-47780204D01*
X114779796Y-48172624D01*
X115292517Y-48385000D01*
X115847483Y-48385000D01*
X116360204Y-48172624D01*
X116752624Y-47780204D01*
X116840000Y-47569260D01*
X116927376Y-47780204D01*
X117319796Y-48172624D01*
X117832517Y-48385000D01*
X118387483Y-48385000D01*
X118900204Y-48172624D01*
X119292624Y-47780204D01*
X119380000Y-47569260D01*
X119467376Y-47780204D01*
X119859796Y-48172624D01*
X120372517Y-48385000D01*
X120927483Y-48385000D01*
X121440204Y-48172624D01*
X121832624Y-47780204D01*
X122045000Y-47267483D01*
X122045000Y-46712517D01*
X121832624Y-46199796D01*
X121440204Y-45807376D01*
X121229260Y-45720000D01*
X121440204Y-45632624D01*
X121832624Y-45240204D01*
X121920000Y-45029260D01*
X122007376Y-45240204D01*
X122399796Y-45632624D01*
X122912517Y-45845000D01*
X123467483Y-45845000D01*
X123750000Y-45727978D01*
X123750000Y-54547881D01*
X123705935Y-54797787D01*
X123610596Y-54962919D01*
X123464524Y-55085488D01*
X123255532Y-55161555D01*
X123159004Y-55170000D01*
X1332119Y-55170000D01*
X1082213Y-55125935D01*
X917081Y-55030596D01*
X794512Y-54884524D01*
X718445Y-54675532D01*
X710000Y-54579004D01*
X710000Y-44172517D01*
X35435000Y-44172517D01*
X35435000Y-44727483D01*
X35647376Y-45240204D01*
X36039796Y-45632624D01*
X36250740Y-45720000D01*
X36039796Y-45807376D01*
X35647376Y-46199796D01*
X35435000Y-46712517D01*
X35435000Y-47267483D01*
X35647376Y-47780204D01*
X36039796Y-48172624D01*
X36552517Y-48385000D01*
X37107483Y-48385000D01*
X37620204Y-48172624D01*
X38012624Y-47780204D01*
X38100000Y-47569260D01*
X38187376Y-47780204D01*
X38579796Y-48172624D01*
X39092517Y-48385000D01*
X39647483Y-48385000D01*
X40160204Y-48172624D01*
X40552624Y-47780204D01*
X40640000Y-47569260D01*
X40727376Y-47780204D01*
X41119796Y-48172624D01*
X41632517Y-48385000D01*
X42187483Y-48385000D01*
X42700204Y-48172624D01*
X43092624Y-47780204D01*
X43180000Y-47569260D01*
X43267376Y-47780204D01*
X43659796Y-48172624D01*
X44172517Y-48385000D01*
X44727483Y-48385000D01*
X45240204Y-48172624D01*
X45632624Y-47780204D01*
X45720000Y-47569260D01*
X45807376Y-47780204D01*
X46199796Y-48172624D01*
X46712517Y-48385000D01*
X47267483Y-48385000D01*
X47780204Y-48172624D01*
X48172624Y-47780204D01*
X48260000Y-47569260D01*
X48347376Y-47780204D01*
X48739796Y-48172624D01*
X49252517Y-48385000D01*
X49807483Y-48385000D01*
X50320204Y-48172624D01*
X50712624Y-47780204D01*
X50800000Y-47569260D01*
X50887376Y-47780204D01*
X51279796Y-48172624D01*
X51792517Y-48385000D01*
X52347483Y-48385000D01*
X52860204Y-48172624D01*
X53252624Y-47780204D01*
X53340000Y-47569260D01*
X53427376Y-47780204D01*
X53819796Y-48172624D01*
X54332517Y-48385000D01*
X54887483Y-48385000D01*
X55400204Y-48172624D01*
X55792624Y-47780204D01*
X55880000Y-47569260D01*
X55967376Y-47780204D01*
X56359796Y-48172624D01*
X56872517Y-48385000D01*
X57427483Y-48385000D01*
X57940204Y-48172624D01*
X58332624Y-47780204D01*
X58545000Y-47267483D01*
X58545000Y-46712517D01*
X58332624Y-46199796D01*
X57940204Y-45807376D01*
X57729260Y-45720000D01*
X57940204Y-45632624D01*
X58332624Y-45240204D01*
X58420000Y-45029260D01*
X58507376Y-45240204D01*
X58899796Y-45632624D01*
X59412517Y-45845000D01*
X59967483Y-45845000D01*
X60480204Y-45632624D01*
X60872624Y-45240204D01*
X61085000Y-44727483D01*
X61085000Y-44172517D01*
X60872624Y-43659796D01*
X60480204Y-43267376D01*
X59967483Y-43055000D01*
X59412517Y-43055000D01*
X58899796Y-43267376D01*
X58507376Y-43659796D01*
X58420000Y-43870740D01*
X58332624Y-43659796D01*
X57940204Y-43267376D01*
X57427483Y-43055000D01*
X56872517Y-43055000D01*
X56359796Y-43267376D01*
X55967376Y-43659796D01*
X55880000Y-43870740D01*
X55792624Y-43659796D01*
X55400204Y-43267376D01*
X54887483Y-43055000D01*
X54332517Y-43055000D01*
X53819796Y-43267376D01*
X53427376Y-43659796D01*
X53340000Y-43870740D01*
X53252624Y-43659796D01*
X52860204Y-43267376D01*
X52347483Y-43055000D01*
X51792517Y-43055000D01*
X51279796Y-43267376D01*
X50887376Y-43659796D01*
X50800000Y-43870740D01*
X50712624Y-43659796D01*
X50320204Y-43267376D01*
X49807483Y-43055000D01*
X49252517Y-43055000D01*
X48739796Y-43267376D01*
X48347376Y-43659796D01*
X48260000Y-43870740D01*
X48172624Y-43659796D01*
X47780204Y-43267376D01*
X47267483Y-43055000D01*
X46712517Y-43055000D01*
X46199796Y-43267376D01*
X45807376Y-43659796D01*
X45720000Y-43870740D01*
X45632624Y-43659796D01*
X45240204Y-43267376D01*
X44727483Y-43055000D01*
X44172517Y-43055000D01*
X43659796Y-43267376D01*
X43267376Y-43659796D01*
X43180000Y-43870740D01*
X43092624Y-43659796D01*
X42700204Y-43267376D01*
X42187483Y-43055000D01*
X41632517Y-43055000D01*
X41119796Y-43267376D01*
X40727376Y-43659796D01*
X40640000Y-43870740D01*
X40552624Y-43659796D01*
X40160204Y-43267376D01*
X39647483Y-43055000D01*
X39092517Y-43055000D01*
X38579796Y-43267376D01*
X38187376Y-43659796D01*
X38100000Y-43870740D01*
X38012624Y-43659796D01*
X37620204Y-43267376D01*
X37107483Y-43055000D01*
X36552517Y-43055000D01*
X36039796Y-43267376D01*
X35647376Y-43659796D01*
X35435000Y-44172517D01*
X710000Y-44172517D01*
X710000Y-32468573D01*
X43009820Y-32468573D01*
X43009820Y-33307267D01*
X43330774Y-34082119D01*
X43923821Y-34675166D01*
X44698673Y-34996120D01*
X45537367Y-34996120D01*
X46312219Y-34675166D01*
X46905266Y-34082119D01*
X47226220Y-33307267D01*
X47226220Y-32468573D01*
X46905266Y-31693721D01*
X46312219Y-31100674D01*
X45537367Y-30779720D01*
X44698673Y-30779720D01*
X43923821Y-31100674D01*
X43330774Y-31693721D01*
X43009820Y-32468573D01*
X710000Y-32468573D01*
X710000Y-20715993D01*
X47823120Y-20715993D01*
X47823120Y-21554687D01*
X48144074Y-22329539D01*
X48737121Y-22922586D01*
X49511973Y-23243540D01*
X50350667Y-23243540D01*
X51125519Y-22922586D01*
X51718566Y-22329539D01*
X52039520Y-21554687D01*
X52039520Y-20715993D01*
X51718566Y-19941141D01*
X51125519Y-19348094D01*
X50350667Y-19027140D01*
X49511973Y-19027140D01*
X48737121Y-19348094D01*
X48144074Y-19941141D01*
X47823120Y-20715993D01*
X710000Y-20715993D01*
X710000Y-16009690D01*
X1019454Y-16756779D01*
X1612501Y-17349826D01*
X2387353Y-17670780D01*
X3226047Y-17670780D01*
X4000899Y-17349826D01*
X4593946Y-16756779D01*
X4914900Y-15981927D01*
X4914900Y-15143233D01*
X4593946Y-14368381D01*
X4000899Y-13775334D01*
X3226047Y-13454380D01*
X2387353Y-13454380D01*
X1612501Y-13775334D01*
X1019454Y-14368381D01*
X710000Y-15115470D01*
X710000Y-3390653D01*
X5511800Y-3390653D01*
X5511800Y-4229347D01*
X5832754Y-5004199D01*
X6425801Y-5597246D01*
X7200653Y-5918200D01*
X8039347Y-5918200D01*
X8814199Y-5597246D01*
X9407246Y-5004199D01*
X9728200Y-4229347D01*
X9728200Y-3390653D01*
X9407246Y-2615801D01*
X8814199Y-2022754D01*
X8039347Y-1701800D01*
X7200653Y-1701800D01*
X6425801Y-2022754D01*
X5832754Y-2615801D01*
X5511800Y-3390653D01*
X710000Y-3390653D01*
X710000Y-1332119D01*
X754065Y-1082213D01*
X849405Y-917080D01*
X995477Y-794512D01*
X1204465Y-718445D01*
X1300996Y-710000D01*
X35552022Y-710000D01*
X35435000Y-992517D01*
G36*
X73025000Y-31111547D02*
X73508365Y-32278493D01*
X74401507Y-33171635D01*
X74648638Y-33274000D01*
X69950063Y-33274000D01*
X69849999Y-33254096D01*
X69749935Y-33274000D01*
X69453577Y-33332949D01*
X69453576Y-33332950D01*
X69453575Y-33332950D01*
X69359375Y-33395893D01*
X69117505Y-33557505D01*
X69060822Y-33642337D01*
X67270160Y-35433000D01*
X67032119Y-35433000D01*
X66548000Y-35633528D01*
X66548000Y-32946472D01*
X67032119Y-33147000D01*
X67587881Y-33147000D01*
X68101337Y-32934320D01*
X68494320Y-32541337D01*
X68707000Y-32027881D01*
X68707000Y-31789840D01*
X70121080Y-30375760D01*
X70426152Y-30315078D01*
X70559466Y-30226000D01*
X73025000Y-30226000D01*
X73025000Y-31111547D01*
X73025000Y-31111547D01*
G37*
X73025000Y-31111547D02*
X73508365Y-32278493D01*
X74401507Y-33171635D01*
X74648638Y-33274000D01*
X69950063Y-33274000D01*
X69849999Y-33254096D01*
X69749935Y-33274000D01*
X69453577Y-33332949D01*
X69453576Y-33332950D01*
X69453575Y-33332950D01*
X69359375Y-33395893D01*
X69117505Y-33557505D01*
X69060822Y-33642337D01*
X67270160Y-35433000D01*
X67032119Y-35433000D01*
X66548000Y-35633528D01*
X66548000Y-32946472D01*
X67032119Y-33147000D01*
X67587881Y-33147000D01*
X68101337Y-32934320D01*
X68494320Y-32541337D01*
X68707000Y-32027881D01*
X68707000Y-31789840D01*
X70121080Y-30375760D01*
X70426152Y-30315078D01*
X70559466Y-30226000D01*
X73025000Y-30226000D01*
X73025000Y-31111547D01*
G36*
X98935000Y-992517D02*
X98935000Y-1547483D01*
X99072119Y-1878517D01*
X98972848Y-1944848D01*
X98926793Y-2013774D01*
X98533776Y-2406791D01*
X98464848Y-2452848D01*
X98282396Y-2725907D01*
X98255307Y-2862094D01*
X98218328Y-3048000D01*
X98234500Y-3129302D01*
X98234501Y-9056066D01*
X97956068Y-9334500D01*
X97670157Y-9334500D01*
X97311337Y-8975680D01*
X96797881Y-8763000D01*
X96242119Y-8763000D01*
X95728663Y-8975680D01*
X95335680Y-9368663D01*
X95123000Y-9882119D01*
X95123000Y-10437881D01*
X95335680Y-10951337D01*
X95728663Y-11344320D01*
X95935513Y-11430000D01*
X95728663Y-11515680D01*
X95335680Y-11908663D01*
X95123000Y-12422119D01*
X95123000Y-12977881D01*
X95335680Y-13491337D01*
X95728663Y-13884320D01*
X95935513Y-13970000D01*
X95728663Y-14055680D01*
X95335680Y-14448663D01*
X95123000Y-14962119D01*
X95123000Y-15517881D01*
X95335680Y-16031337D01*
X95728663Y-16424320D01*
X95935513Y-16510000D01*
X95728663Y-16595680D01*
X95335680Y-16988663D01*
X95123000Y-17502119D01*
X95123000Y-18057881D01*
X95335680Y-18571337D01*
X95728663Y-18964320D01*
X95935513Y-19050000D01*
X95728663Y-19135680D01*
X95335680Y-19528663D01*
X95123000Y-20042119D01*
X95123000Y-20597881D01*
X95335680Y-21111337D01*
X95728663Y-21504320D01*
X95935513Y-21590000D01*
X95728663Y-21675680D01*
X95335680Y-22068663D01*
X95123000Y-22582119D01*
X95123000Y-23137881D01*
X95335680Y-23651337D01*
X95504001Y-23819658D01*
X95504000Y-31329159D01*
X93559160Y-33274000D01*
X77751362Y-33274000D01*
X77998493Y-33171635D01*
X78891635Y-32278493D01*
X79375000Y-31111547D01*
X79375000Y-29848453D01*
X78891635Y-28681507D01*
X77998493Y-27788365D01*
X76831547Y-27305000D01*
X75568453Y-27305000D01*
X74401507Y-27788365D01*
X73995872Y-28194000D01*
X70559466Y-28194000D01*
X70426152Y-28104922D01*
X70087500Y-28037560D01*
X69612500Y-28037560D01*
X69273848Y-28104922D01*
X68986753Y-28296753D01*
X68794922Y-28583848D01*
X68734240Y-28888920D01*
X67270160Y-30353000D01*
X67032119Y-30353000D01*
X66548000Y-30553528D01*
X66548000Y-2386063D01*
X66567904Y-2286000D01*
X66548000Y-2185935D01*
X66489051Y-1889577D01*
X66264495Y-1553505D01*
X66179663Y-1496822D01*
X65392840Y-710000D01*
X99052022Y-710000D01*
X98935000Y-992517D01*
X98935000Y-992517D01*
G37*
X98935000Y-992517D02*
X98935000Y-1547483D01*
X99072119Y-1878517D01*
X98972848Y-1944848D01*
X98926793Y-2013774D01*
X98533776Y-2406791D01*
X98464848Y-2452848D01*
X98282396Y-2725907D01*
X98255307Y-2862094D01*
X98218328Y-3048000D01*
X98234500Y-3129302D01*
X98234501Y-9056066D01*
X97956068Y-9334500D01*
X97670157Y-9334500D01*
X97311337Y-8975680D01*
X96797881Y-8763000D01*
X96242119Y-8763000D01*
X95728663Y-8975680D01*
X95335680Y-9368663D01*
X95123000Y-9882119D01*
X95123000Y-10437881D01*
X95335680Y-10951337D01*
X95728663Y-11344320D01*
X95935513Y-11430000D01*
X95728663Y-11515680D01*
X95335680Y-11908663D01*
X95123000Y-12422119D01*
X95123000Y-12977881D01*
X95335680Y-13491337D01*
X95728663Y-13884320D01*
X95935513Y-13970000D01*
X95728663Y-14055680D01*
X95335680Y-14448663D01*
X95123000Y-14962119D01*
X95123000Y-15517881D01*
X95335680Y-16031337D01*
X95728663Y-16424320D01*
X95935513Y-16510000D01*
X95728663Y-16595680D01*
X95335680Y-16988663D01*
X95123000Y-17502119D01*
X95123000Y-18057881D01*
X95335680Y-18571337D01*
X95728663Y-18964320D01*
X95935513Y-19050000D01*
X95728663Y-19135680D01*
X95335680Y-19528663D01*
X95123000Y-20042119D01*
X95123000Y-20597881D01*
X95335680Y-21111337D01*
X95728663Y-21504320D01*
X95935513Y-21590000D01*
X95728663Y-21675680D01*
X95335680Y-22068663D01*
X95123000Y-22582119D01*
X95123000Y-23137881D01*
X95335680Y-23651337D01*
X95504001Y-23819658D01*
X95504000Y-31329159D01*
X93559160Y-33274000D01*
X77751362Y-33274000D01*
X77998493Y-33171635D01*
X78891635Y-32278493D01*
X79375000Y-31111547D01*
X79375000Y-29848453D01*
X78891635Y-28681507D01*
X77998493Y-27788365D01*
X76831547Y-27305000D01*
X75568453Y-27305000D01*
X74401507Y-27788365D01*
X73995872Y-28194000D01*
X70559466Y-28194000D01*
X70426152Y-28104922D01*
X70087500Y-28037560D01*
X69612500Y-28037560D01*
X69273848Y-28104922D01*
X68986753Y-28296753D01*
X68794922Y-28583848D01*
X68734240Y-28888920D01*
X67270160Y-30353000D01*
X67032119Y-30353000D01*
X66548000Y-30553528D01*
X66548000Y-2386063D01*
X66567904Y-2286000D01*
X66548000Y-2185935D01*
X66489051Y-1889577D01*
X66264495Y-1553505D01*
X66179663Y-1496822D01*
X65392840Y-710000D01*
X99052022Y-710000D01*
X98935000Y-992517D01*
G04 #@! TD*
M02*
