G04 #@! TF.GenerationSoftware,KiCad,Pcbnew,(5.0.2)-1*
G04 #@! TF.CreationDate,2019-03-16T10:13:35-05:00*
G04 #@! TF.ProjectId,CCDBoard_Hardware,43434442-6f61-4726-945f-486172647761,rev?*
G04 #@! TF.SameCoordinates,Original*
G04 #@! TF.FileFunction,Legend,Top*
G04 #@! TF.FilePolarity,Positive*
%FSLAX46Y46*%
G04 Gerber Fmt 4.6, Leading zero omitted, Abs format (unit mm)*
G04 Created by KiCad (PCBNEW (5.0.2)-1) date 3/16/2019 10:13:35 AM*
%MOMM*%
%LPD*%
G01*
G04 APERTURE LIST*
%ADD10C,0.200000*%
%ADD11C,0.300000*%
%ADD12C,0.150000*%
G04 APERTURE END LIST*
D10*
X10160000Y17780000D02*
X10160000Y11684000D01*
X12700000Y17780000D02*
X12700000Y11684000D01*
X15240000Y17780000D02*
X15240000Y11684000D01*
X17780000Y17780000D02*
X17780000Y11684000D01*
X20320000Y17780000D02*
X20320000Y11684000D01*
X22860000Y17780000D02*
X22860000Y11684000D01*
X25400000Y17780000D02*
X25400000Y11684000D01*
X43180000Y17780000D02*
X43180000Y11684000D01*
X40640000Y17780000D02*
X40640000Y11684000D01*
X33020000Y17780000D02*
X33020000Y11684000D01*
X35560000Y17780000D02*
X35560000Y11684000D01*
X38100000Y17780000D02*
X38100000Y11684000D01*
D11*
X10981428Y11274714D02*
X10981428Y10346142D01*
X10410000Y10846142D01*
X10410000Y10631857D01*
X10338571Y10489000D01*
X10267142Y10417571D01*
X10124285Y10346142D01*
X9767142Y10346142D01*
X9624285Y10417571D01*
X9552857Y10489000D01*
X9481428Y10631857D01*
X9481428Y11060428D01*
X9552857Y11203285D01*
X9624285Y11274714D01*
X10981428Y9917571D02*
X9481428Y9417571D01*
X10981428Y8917571D01*
X10981428Y8560428D02*
X10981428Y7631857D01*
X10410000Y8131857D01*
X10410000Y7917571D01*
X10338571Y7774714D01*
X10267142Y7703285D01*
X10124285Y7631857D01*
X9767142Y7631857D01*
X9624285Y7703285D01*
X9552857Y7774714D01*
X9481428Y7917571D01*
X9481428Y8346142D01*
X9552857Y8489000D01*
X9624285Y8560428D01*
X12092857Y11203285D02*
X12021428Y10989000D01*
X12021428Y10631857D01*
X12092857Y10489000D01*
X12164285Y10417571D01*
X12307142Y10346142D01*
X12450000Y10346142D01*
X12592857Y10417571D01*
X12664285Y10489000D01*
X12735714Y10631857D01*
X12807142Y10917571D01*
X12878571Y11060428D01*
X12950000Y11131857D01*
X13092857Y11203285D01*
X13235714Y11203285D01*
X13378571Y11131857D01*
X13450000Y11060428D01*
X13521428Y10917571D01*
X13521428Y10560428D01*
X13450000Y10346142D01*
X13378571Y9774714D02*
X13450000Y9703285D01*
X13521428Y9560428D01*
X13521428Y9203285D01*
X13450000Y9060428D01*
X13378571Y8989000D01*
X13235714Y8917571D01*
X13092857Y8917571D01*
X12878571Y8989000D01*
X12021428Y9846142D01*
X12021428Y8917571D01*
X14632857Y11203285D02*
X14561428Y10989000D01*
X14561428Y10631857D01*
X14632857Y10489000D01*
X14704285Y10417571D01*
X14847142Y10346142D01*
X14990000Y10346142D01*
X15132857Y10417571D01*
X15204285Y10489000D01*
X15275714Y10631857D01*
X15347142Y10917571D01*
X15418571Y11060428D01*
X15490000Y11131857D01*
X15632857Y11203285D01*
X15775714Y11203285D01*
X15918571Y11131857D01*
X15990000Y11060428D01*
X16061428Y10917571D01*
X16061428Y10560428D01*
X15990000Y10346142D01*
X14561428Y8917571D02*
X14561428Y9774714D01*
X14561428Y9346142D02*
X16061428Y9346142D01*
X15847142Y9489000D01*
X15704285Y9631857D01*
X15632857Y9774714D01*
X17101428Y11131857D02*
X18601428Y11131857D01*
X17244285Y9560428D02*
X17172857Y9631857D01*
X17101428Y9846142D01*
X17101428Y9989000D01*
X17172857Y10203285D01*
X17315714Y10346142D01*
X17458571Y10417571D01*
X17744285Y10489000D01*
X17958571Y10489000D01*
X18244285Y10417571D01*
X18387142Y10346142D01*
X18530000Y10203285D01*
X18601428Y9989000D01*
X18601428Y9846142D01*
X18530000Y9631857D01*
X18458571Y9560428D01*
X18530000Y8131857D02*
X18601428Y8274714D01*
X18601428Y8489000D01*
X18530000Y8703285D01*
X18387142Y8846142D01*
X18244285Y8917571D01*
X17958571Y8989000D01*
X17744285Y8989000D01*
X17458571Y8917571D01*
X17315714Y8846142D01*
X17172857Y8703285D01*
X17101428Y8489000D01*
X17101428Y8346142D01*
X17172857Y8131857D01*
X17244285Y8060428D01*
X17744285Y8060428D01*
X17744285Y8346142D01*
X19712857Y11203285D02*
X19641428Y10989000D01*
X19641428Y10631857D01*
X19712857Y10489000D01*
X19784285Y10417571D01*
X19927142Y10346142D01*
X20070000Y10346142D01*
X20212857Y10417571D01*
X20284285Y10489000D01*
X20355714Y10631857D01*
X20427142Y10917571D01*
X20498571Y11060428D01*
X20570000Y11131857D01*
X20712857Y11203285D01*
X20855714Y11203285D01*
X20998571Y11131857D01*
X21070000Y11060428D01*
X21141428Y10917571D01*
X21141428Y10560428D01*
X21070000Y10346142D01*
X19641428Y9703285D02*
X21141428Y9703285D01*
X20427142Y9703285D02*
X20427142Y8846142D01*
X19641428Y8846142D02*
X21141428Y8846142D01*
X22181428Y11131857D02*
X23681428Y11131857D01*
X22610000Y10631857D01*
X23681428Y10131857D01*
X22181428Y10131857D01*
X26150000Y10346142D02*
X26221428Y10489000D01*
X26221428Y10703285D01*
X26150000Y10917571D01*
X26007142Y11060428D01*
X25864285Y11131857D01*
X25578571Y11203285D01*
X25364285Y11203285D01*
X25078571Y11131857D01*
X24935714Y11060428D01*
X24792857Y10917571D01*
X24721428Y10703285D01*
X24721428Y10560428D01*
X24792857Y10346142D01*
X24864285Y10274714D01*
X25364285Y10274714D01*
X25364285Y10560428D01*
X24721428Y9631857D02*
X26221428Y9631857D01*
X24721428Y8774714D01*
X26221428Y8774714D01*
X24721428Y8060428D02*
X26221428Y8060428D01*
X26221428Y7703285D01*
X26150000Y7489000D01*
X26007142Y7346142D01*
X25864285Y7274714D01*
X25578571Y7203285D01*
X25364285Y7203285D01*
X25078571Y7274714D01*
X24935714Y7346142D01*
X24792857Y7489000D01*
X24721428Y7703285D01*
X24721428Y8060428D01*
X43930000Y10346142D02*
X44001428Y10489000D01*
X44001428Y10703285D01*
X43930000Y10917571D01*
X43787142Y11060428D01*
X43644285Y11131857D01*
X43358571Y11203285D01*
X43144285Y11203285D01*
X42858571Y11131857D01*
X42715714Y11060428D01*
X42572857Y10917571D01*
X42501428Y10703285D01*
X42501428Y10560428D01*
X42572857Y10346142D01*
X42644285Y10274714D01*
X43144285Y10274714D01*
X43144285Y10560428D01*
X42501428Y9631857D02*
X44001428Y9631857D01*
X42501428Y8774714D01*
X44001428Y8774714D01*
X42501428Y8060428D02*
X44001428Y8060428D01*
X44001428Y7703285D01*
X43930000Y7489000D01*
X43787142Y7346142D01*
X43644285Y7274714D01*
X43358571Y7203285D01*
X43144285Y7203285D01*
X42858571Y7274714D01*
X42715714Y7346142D01*
X42572857Y7489000D01*
X42501428Y7703285D01*
X42501428Y8060428D01*
X41461428Y10846142D02*
X41461428Y10560428D01*
X41390000Y10417571D01*
X41247142Y10274714D01*
X40961428Y10203285D01*
X40461428Y10203285D01*
X40175714Y10274714D01*
X40032857Y10417571D01*
X39961428Y10560428D01*
X39961428Y10846142D01*
X40032857Y10989000D01*
X40175714Y11131857D01*
X40461428Y11203285D01*
X40961428Y11203285D01*
X41247142Y11131857D01*
X41390000Y10989000D01*
X41461428Y10846142D01*
X40032857Y9631857D02*
X39961428Y9417571D01*
X39961428Y9060428D01*
X40032857Y8917571D01*
X40104285Y8846142D01*
X40247142Y8774714D01*
X40390000Y8774714D01*
X40532857Y8846142D01*
X40604285Y8917571D01*
X40675714Y9060428D01*
X40747142Y9346142D01*
X40818571Y9489000D01*
X40890000Y9560428D01*
X41032857Y9631857D01*
X41175714Y9631857D01*
X41318571Y9560428D01*
X41390000Y9489000D01*
X41461428Y9346142D01*
X41461428Y8989000D01*
X41390000Y8774714D01*
X33841428Y11274714D02*
X33841428Y10346142D01*
X33270000Y10846142D01*
X33270000Y10631857D01*
X33198571Y10489000D01*
X33127142Y10417571D01*
X32984285Y10346142D01*
X32627142Y10346142D01*
X32484285Y10417571D01*
X32412857Y10489000D01*
X32341428Y10631857D01*
X32341428Y11060428D01*
X32412857Y11203285D01*
X32484285Y11274714D01*
X33841428Y9917571D02*
X32341428Y9417571D01*
X33841428Y8917571D01*
X33841428Y8560428D02*
X33841428Y7631857D01*
X33270000Y8131857D01*
X33270000Y7917571D01*
X33198571Y7774714D01*
X33127142Y7703285D01*
X32984285Y7631857D01*
X32627142Y7631857D01*
X32484285Y7703285D01*
X32412857Y7774714D01*
X32341428Y7917571D01*
X32341428Y8346142D01*
X32412857Y8489000D01*
X32484285Y8560428D01*
X34952857Y11203285D02*
X34881428Y10989000D01*
X34881428Y10631857D01*
X34952857Y10489000D01*
X35024285Y10417571D01*
X35167142Y10346142D01*
X35310000Y10346142D01*
X35452857Y10417571D01*
X35524285Y10489000D01*
X35595714Y10631857D01*
X35667142Y10917571D01*
X35738571Y11060428D01*
X35810000Y11131857D01*
X35952857Y11203285D01*
X36095714Y11203285D01*
X36238571Y11131857D01*
X36310000Y11060428D01*
X36381428Y10917571D01*
X36381428Y10560428D01*
X36310000Y10346142D01*
X36238571Y9774714D02*
X36310000Y9703285D01*
X36381428Y9560428D01*
X36381428Y9203285D01*
X36310000Y9060428D01*
X36238571Y8989000D01*
X36095714Y8917571D01*
X35952857Y8917571D01*
X35738571Y8989000D01*
X34881428Y9846142D01*
X34881428Y8917571D01*
X37492857Y11203285D02*
X37421428Y10989000D01*
X37421428Y10631857D01*
X37492857Y10489000D01*
X37564285Y10417571D01*
X37707142Y10346142D01*
X37850000Y10346142D01*
X37992857Y10417571D01*
X38064285Y10489000D01*
X38135714Y10631857D01*
X38207142Y10917571D01*
X38278571Y11060428D01*
X38350000Y11131857D01*
X38492857Y11203285D01*
X38635714Y11203285D01*
X38778571Y11131857D01*
X38850000Y11060428D01*
X38921428Y10917571D01*
X38921428Y10560428D01*
X38850000Y10346142D01*
X37421428Y8917571D02*
X37421428Y9774714D01*
X37421428Y9346142D02*
X38921428Y9346142D01*
X38707142Y9489000D01*
X38564285Y9631857D01*
X38492857Y9774714D01*
D12*
G04 #@! TO.C,REF\002A\002A*
X52278283Y12700000D02*
G75*
G03X52278283Y12700000I-4018283J0D01*
G01*
X52278283Y2540000D02*
G75*
G03X52278283Y2540000I-4018283J0D01*
G01*
X6558283Y12700000D02*
G75*
G03X6558283Y12700000I-4018283J0D01*
G01*
X6558283Y2540000D02*
G75*
G03X6558283Y2540000I-4018283J0D01*
G01*
G04 #@! TO.C,Conn1*
X45720000Y21844000D02*
X30480000Y21844000D01*
X45720000Y20320000D02*
X45720000Y21844000D01*
X30480000Y21844000D02*
X30480000Y20320000D01*
X45720000Y15240000D02*
X30480000Y15240000D01*
X30480000Y20320000D02*
X45720000Y20320000D01*
X45720000Y15240000D02*
X45720000Y20320000D01*
X30480000Y15240000D02*
X30480000Y20320000D01*
G04 #@! TO.C,Conn2*
X27940000Y21844000D02*
X7620000Y21844000D01*
X27940000Y20320000D02*
X27940000Y21844000D01*
X7620000Y21844000D02*
X7620000Y20320000D01*
X27940000Y15240000D02*
X7620000Y15240000D01*
X7620000Y20320000D02*
X27940000Y20320000D01*
X27940000Y15240000D02*
X27940000Y20320000D01*
X7620000Y15240000D02*
X7620000Y20320000D01*
G04 #@! TD*
M02*
