G04 #@! TF.GenerationSoftware,KiCad,Pcbnew,(5.1.4)-1*
G04 #@! TF.CreationDate,2019-10-15T19:11:32-05:00*
G04 #@! TF.ProjectId,CCDBoard_Hardware,43434442-6f61-4726-945f-486172647761,rev?*
G04 #@! TF.SameCoordinates,Original*
G04 #@! TF.FileFunction,Soldermask,Bot*
G04 #@! TF.FilePolarity,Negative*
%FSLAX46Y46*%
G04 Gerber Fmt 4.6, Leading zero omitted, Abs format (unit mm)*
G04 Created by KiCad (PCBNEW (5.1.4)-1) date 2019-10-15 19:11:32*
%MOMM*%
%LPD*%
G04 APERTURE LIST*
%ADD10C,0.100000*%
G04 APERTURE END LIST*
D10*
G36*
X161333357Y-108741087D02*
G01*
X161480593Y-108770374D01*
X161757979Y-108885271D01*
X161904026Y-108982857D01*
X162007620Y-109052076D01*
X162219924Y-109264380D01*
X162275273Y-109347216D01*
X162386729Y-109514021D01*
X162501626Y-109791407D01*
X162560200Y-110085879D01*
X162560200Y-110386121D01*
X162501626Y-110680593D01*
X162386729Y-110957979D01*
X162219923Y-111207621D01*
X162007621Y-111419923D01*
X161757979Y-111586729D01*
X161480593Y-111701626D01*
X161333357Y-111730913D01*
X161186122Y-111760200D01*
X160885878Y-111760200D01*
X160738643Y-111730913D01*
X160591407Y-111701626D01*
X160314021Y-111586729D01*
X160064379Y-111419923D01*
X159852077Y-111207621D01*
X159685271Y-110957979D01*
X159570374Y-110680593D01*
X159511800Y-110386121D01*
X159511800Y-110085879D01*
X159570374Y-109791407D01*
X159685271Y-109514021D01*
X159796727Y-109347216D01*
X159852076Y-109264380D01*
X160064380Y-109052076D01*
X160167974Y-108982857D01*
X160314021Y-108885271D01*
X160591407Y-108770374D01*
X160738643Y-108741087D01*
X160885878Y-108711800D01*
X161186122Y-108711800D01*
X161333357Y-108741087D01*
X161333357Y-108741087D01*
G37*
G36*
X105961357Y-108741087D02*
G01*
X106108593Y-108770374D01*
X106385979Y-108885271D01*
X106532026Y-108982857D01*
X106635620Y-109052076D01*
X106847924Y-109264380D01*
X106903273Y-109347216D01*
X107014729Y-109514021D01*
X107129626Y-109791407D01*
X107188200Y-110085879D01*
X107188200Y-110386121D01*
X107129626Y-110680593D01*
X107014729Y-110957979D01*
X106847923Y-111207621D01*
X106635621Y-111419923D01*
X106385979Y-111586729D01*
X106108593Y-111701626D01*
X105961357Y-111730913D01*
X105814122Y-111760200D01*
X105513878Y-111760200D01*
X105366643Y-111730913D01*
X105219407Y-111701626D01*
X104942021Y-111586729D01*
X104692379Y-111419923D01*
X104480077Y-111207621D01*
X104313271Y-110957979D01*
X104198374Y-110680593D01*
X104139800Y-110386121D01*
X104139800Y-110085879D01*
X104198374Y-109791407D01*
X104313271Y-109514021D01*
X104424727Y-109347216D01*
X104480076Y-109264380D01*
X104692380Y-109052076D01*
X104795974Y-108982857D01*
X104942021Y-108885271D01*
X105219407Y-108770374D01*
X105366643Y-108741087D01*
X105513878Y-108711800D01*
X105814122Y-108711800D01*
X105961357Y-108741087D01*
X105961357Y-108741087D01*
G37*
G36*
X139937142Y-108438242D02*
G01*
X140085101Y-108499529D01*
X140218255Y-108588499D01*
X140331501Y-108701745D01*
X140420471Y-108834899D01*
X140481758Y-108982858D01*
X140513000Y-109139925D01*
X140513000Y-109300075D01*
X140481758Y-109457142D01*
X140420471Y-109605101D01*
X140331501Y-109738255D01*
X140218255Y-109851501D01*
X140085101Y-109940471D01*
X139937142Y-110001758D01*
X139780075Y-110033000D01*
X139619925Y-110033000D01*
X139462858Y-110001758D01*
X139314899Y-109940471D01*
X139181745Y-109851501D01*
X139068499Y-109738255D01*
X138979529Y-109605101D01*
X138918242Y-109457142D01*
X138887000Y-109300075D01*
X138887000Y-109139925D01*
X138918242Y-108982858D01*
X138979529Y-108834899D01*
X139068499Y-108701745D01*
X139181745Y-108588499D01*
X139314899Y-108499529D01*
X139462858Y-108438242D01*
X139619925Y-108407000D01*
X139780075Y-108407000D01*
X139937142Y-108438242D01*
X139937142Y-108438242D01*
G37*
G36*
X137397142Y-108438242D02*
G01*
X137545101Y-108499529D01*
X137678255Y-108588499D01*
X137791501Y-108701745D01*
X137880471Y-108834899D01*
X137941758Y-108982858D01*
X137973000Y-109139925D01*
X137973000Y-109300075D01*
X137941758Y-109457142D01*
X137880471Y-109605101D01*
X137791501Y-109738255D01*
X137678255Y-109851501D01*
X137545101Y-109940471D01*
X137397142Y-110001758D01*
X137240075Y-110033000D01*
X137079925Y-110033000D01*
X136922858Y-110001758D01*
X136774899Y-109940471D01*
X136641745Y-109851501D01*
X136528499Y-109738255D01*
X136439529Y-109605101D01*
X136378242Y-109457142D01*
X136347000Y-109300075D01*
X136347000Y-109139925D01*
X136378242Y-108982858D01*
X136439529Y-108834899D01*
X136528499Y-108701745D01*
X136641745Y-108588499D01*
X136774899Y-108499529D01*
X136922858Y-108438242D01*
X137079925Y-108407000D01*
X137240075Y-108407000D01*
X137397142Y-108438242D01*
X137397142Y-108438242D01*
G37*
G36*
X150097142Y-108438242D02*
G01*
X150245101Y-108499529D01*
X150378255Y-108588499D01*
X150491501Y-108701745D01*
X150580471Y-108834899D01*
X150641758Y-108982858D01*
X150673000Y-109139925D01*
X150673000Y-109300075D01*
X150641758Y-109457142D01*
X150580471Y-109605101D01*
X150491501Y-109738255D01*
X150378255Y-109851501D01*
X150245101Y-109940471D01*
X150097142Y-110001758D01*
X149940075Y-110033000D01*
X149779925Y-110033000D01*
X149622858Y-110001758D01*
X149474899Y-109940471D01*
X149341745Y-109851501D01*
X149228499Y-109738255D01*
X149139529Y-109605101D01*
X149078242Y-109457142D01*
X149047000Y-109300075D01*
X149047000Y-109139925D01*
X149078242Y-108982858D01*
X149139529Y-108834899D01*
X149228499Y-108701745D01*
X149341745Y-108588499D01*
X149474899Y-108499529D01*
X149622858Y-108438242D01*
X149779925Y-108407000D01*
X149940075Y-108407000D01*
X150097142Y-108438242D01*
X150097142Y-108438242D01*
G37*
G36*
X147557142Y-108438242D02*
G01*
X147705101Y-108499529D01*
X147838255Y-108588499D01*
X147951501Y-108701745D01*
X148040471Y-108834899D01*
X148101758Y-108982858D01*
X148133000Y-109139925D01*
X148133000Y-109300075D01*
X148101758Y-109457142D01*
X148040471Y-109605101D01*
X147951501Y-109738255D01*
X147838255Y-109851501D01*
X147705101Y-109940471D01*
X147557142Y-110001758D01*
X147400075Y-110033000D01*
X147239925Y-110033000D01*
X147082858Y-110001758D01*
X146934899Y-109940471D01*
X146801745Y-109851501D01*
X146688499Y-109738255D01*
X146599529Y-109605101D01*
X146538242Y-109457142D01*
X146507000Y-109300075D01*
X146507000Y-109139925D01*
X146538242Y-108982858D01*
X146599529Y-108834899D01*
X146688499Y-108701745D01*
X146801745Y-108588499D01*
X146934899Y-108499529D01*
X147082858Y-108438242D01*
X147239925Y-108407000D01*
X147400075Y-108407000D01*
X147557142Y-108438242D01*
X147557142Y-108438242D01*
G37*
G36*
X142477142Y-108438242D02*
G01*
X142625101Y-108499529D01*
X142758255Y-108588499D01*
X142871501Y-108701745D01*
X142960471Y-108834899D01*
X143021758Y-108982858D01*
X143053000Y-109139925D01*
X143053000Y-109300075D01*
X143021758Y-109457142D01*
X142960471Y-109605101D01*
X142871501Y-109738255D01*
X142758255Y-109851501D01*
X142625101Y-109940471D01*
X142477142Y-110001758D01*
X142320075Y-110033000D01*
X142159925Y-110033000D01*
X142002858Y-110001758D01*
X141854899Y-109940471D01*
X141721745Y-109851501D01*
X141608499Y-109738255D01*
X141519529Y-109605101D01*
X141458242Y-109457142D01*
X141427000Y-109300075D01*
X141427000Y-109139925D01*
X141458242Y-108982858D01*
X141519529Y-108834899D01*
X141608499Y-108701745D01*
X141721745Y-108588499D01*
X141854899Y-108499529D01*
X142002858Y-108438242D01*
X142159925Y-108407000D01*
X142320075Y-108407000D01*
X142477142Y-108438242D01*
X142477142Y-108438242D01*
G37*
G36*
X122157142Y-108438242D02*
G01*
X122305101Y-108499529D01*
X122438255Y-108588499D01*
X122551501Y-108701745D01*
X122640471Y-108834899D01*
X122701758Y-108982858D01*
X122733000Y-109139925D01*
X122733000Y-109300075D01*
X122701758Y-109457142D01*
X122640471Y-109605101D01*
X122551501Y-109738255D01*
X122438255Y-109851501D01*
X122305101Y-109940471D01*
X122157142Y-110001758D01*
X122000075Y-110033000D01*
X121839925Y-110033000D01*
X121682858Y-110001758D01*
X121534899Y-109940471D01*
X121401745Y-109851501D01*
X121288499Y-109738255D01*
X121199529Y-109605101D01*
X121138242Y-109457142D01*
X121107000Y-109300075D01*
X121107000Y-109139925D01*
X121138242Y-108982858D01*
X121199529Y-108834899D01*
X121288499Y-108701745D01*
X121401745Y-108588499D01*
X121534899Y-108499529D01*
X121682858Y-108438242D01*
X121839925Y-108407000D01*
X122000075Y-108407000D01*
X122157142Y-108438242D01*
X122157142Y-108438242D01*
G37*
G36*
X124697142Y-108438242D02*
G01*
X124845101Y-108499529D01*
X124978255Y-108588499D01*
X125091501Y-108701745D01*
X125180471Y-108834899D01*
X125241758Y-108982858D01*
X125273000Y-109139925D01*
X125273000Y-109300075D01*
X125241758Y-109457142D01*
X125180471Y-109605101D01*
X125091501Y-109738255D01*
X124978255Y-109851501D01*
X124845101Y-109940471D01*
X124697142Y-110001758D01*
X124540075Y-110033000D01*
X124379925Y-110033000D01*
X124222858Y-110001758D01*
X124074899Y-109940471D01*
X123941745Y-109851501D01*
X123828499Y-109738255D01*
X123739529Y-109605101D01*
X123678242Y-109457142D01*
X123647000Y-109300075D01*
X123647000Y-109139925D01*
X123678242Y-108982858D01*
X123739529Y-108834899D01*
X123828499Y-108701745D01*
X123941745Y-108588499D01*
X124074899Y-108499529D01*
X124222858Y-108438242D01*
X124379925Y-108407000D01*
X124540075Y-108407000D01*
X124697142Y-108438242D01*
X124697142Y-108438242D01*
G37*
G36*
X127237142Y-108438242D02*
G01*
X127385101Y-108499529D01*
X127518255Y-108588499D01*
X127631501Y-108701745D01*
X127720471Y-108834899D01*
X127781758Y-108982858D01*
X127813000Y-109139925D01*
X127813000Y-109300075D01*
X127781758Y-109457142D01*
X127720471Y-109605101D01*
X127631501Y-109738255D01*
X127518255Y-109851501D01*
X127385101Y-109940471D01*
X127237142Y-110001758D01*
X127080075Y-110033000D01*
X126919925Y-110033000D01*
X126762858Y-110001758D01*
X126614899Y-109940471D01*
X126481745Y-109851501D01*
X126368499Y-109738255D01*
X126279529Y-109605101D01*
X126218242Y-109457142D01*
X126187000Y-109300075D01*
X126187000Y-109139925D01*
X126218242Y-108982858D01*
X126279529Y-108834899D01*
X126368499Y-108701745D01*
X126481745Y-108588499D01*
X126614899Y-108499529D01*
X126762858Y-108438242D01*
X126919925Y-108407000D01*
X127080075Y-108407000D01*
X127237142Y-108438242D01*
X127237142Y-108438242D01*
G37*
G36*
X129777142Y-108438242D02*
G01*
X129925101Y-108499529D01*
X130058255Y-108588499D01*
X130171501Y-108701745D01*
X130260471Y-108834899D01*
X130321758Y-108982858D01*
X130353000Y-109139925D01*
X130353000Y-109300075D01*
X130321758Y-109457142D01*
X130260471Y-109605101D01*
X130171501Y-109738255D01*
X130058255Y-109851501D01*
X129925101Y-109940471D01*
X129777142Y-110001758D01*
X129620075Y-110033000D01*
X129459925Y-110033000D01*
X129302858Y-110001758D01*
X129154899Y-109940471D01*
X129021745Y-109851501D01*
X128908499Y-109738255D01*
X128819529Y-109605101D01*
X128758242Y-109457142D01*
X128727000Y-109300075D01*
X128727000Y-109139925D01*
X128758242Y-108982858D01*
X128819529Y-108834899D01*
X128908499Y-108701745D01*
X129021745Y-108588499D01*
X129154899Y-108499529D01*
X129302858Y-108438242D01*
X129459925Y-108407000D01*
X129620075Y-108407000D01*
X129777142Y-108438242D01*
X129777142Y-108438242D01*
G37*
G36*
X132317142Y-108438242D02*
G01*
X132465101Y-108499529D01*
X132598255Y-108588499D01*
X132711501Y-108701745D01*
X132800471Y-108834899D01*
X132861758Y-108982858D01*
X132893000Y-109139925D01*
X132893000Y-109300075D01*
X132861758Y-109457142D01*
X132800471Y-109605101D01*
X132711501Y-109738255D01*
X132598255Y-109851501D01*
X132465101Y-109940471D01*
X132317142Y-110001758D01*
X132160075Y-110033000D01*
X131999925Y-110033000D01*
X131842858Y-110001758D01*
X131694899Y-109940471D01*
X131561745Y-109851501D01*
X131448499Y-109738255D01*
X131359529Y-109605101D01*
X131298242Y-109457142D01*
X131267000Y-109300075D01*
X131267000Y-109139925D01*
X131298242Y-108982858D01*
X131359529Y-108834899D01*
X131448499Y-108701745D01*
X131561745Y-108588499D01*
X131694899Y-108499529D01*
X131842858Y-108438242D01*
X131999925Y-108407000D01*
X132160075Y-108407000D01*
X132317142Y-108438242D01*
X132317142Y-108438242D01*
G37*
G36*
X134857142Y-108438242D02*
G01*
X135005101Y-108499529D01*
X135138255Y-108588499D01*
X135251501Y-108701745D01*
X135340471Y-108834899D01*
X135401758Y-108982858D01*
X135433000Y-109139925D01*
X135433000Y-109300075D01*
X135401758Y-109457142D01*
X135340471Y-109605101D01*
X135251501Y-109738255D01*
X135138255Y-109851501D01*
X135005101Y-109940471D01*
X134857142Y-110001758D01*
X134700075Y-110033000D01*
X134539925Y-110033000D01*
X134382858Y-110001758D01*
X134234899Y-109940471D01*
X134101745Y-109851501D01*
X133988499Y-109738255D01*
X133899529Y-109605101D01*
X133838242Y-109457142D01*
X133807000Y-109300075D01*
X133807000Y-109139925D01*
X133838242Y-108982858D01*
X133899529Y-108834899D01*
X133988499Y-108701745D01*
X134101745Y-108588499D01*
X134234899Y-108499529D01*
X134382858Y-108438242D01*
X134539925Y-108407000D01*
X134700075Y-108407000D01*
X134857142Y-108438242D01*
X134857142Y-108438242D01*
G37*
G36*
X145017142Y-108438242D02*
G01*
X145165101Y-108499529D01*
X145298255Y-108588499D01*
X145411501Y-108701745D01*
X145500471Y-108834899D01*
X145561758Y-108982858D01*
X145593000Y-109139925D01*
X145593000Y-109300075D01*
X145561758Y-109457142D01*
X145500471Y-109605101D01*
X145411501Y-109738255D01*
X145298255Y-109851501D01*
X145165101Y-109940471D01*
X145017142Y-110001758D01*
X144860075Y-110033000D01*
X144699925Y-110033000D01*
X144542858Y-110001758D01*
X144394899Y-109940471D01*
X144261745Y-109851501D01*
X144148499Y-109738255D01*
X144059529Y-109605101D01*
X143998242Y-109457142D01*
X143967000Y-109300075D01*
X143967000Y-109139925D01*
X143998242Y-108982858D01*
X144059529Y-108834899D01*
X144148499Y-108701745D01*
X144261745Y-108588499D01*
X144394899Y-108499529D01*
X144542858Y-108438242D01*
X144699925Y-108407000D01*
X144860075Y-108407000D01*
X145017142Y-108438242D01*
X145017142Y-108438242D01*
G37*
G36*
X132317142Y-98428242D02*
G01*
X132465101Y-98489529D01*
X132598255Y-98578499D01*
X132711501Y-98691745D01*
X132800471Y-98824899D01*
X132861758Y-98972858D01*
X132893000Y-99129925D01*
X132893000Y-99290075D01*
X132861758Y-99447142D01*
X132800471Y-99595101D01*
X132711501Y-99728255D01*
X132598255Y-99841501D01*
X132465101Y-99930471D01*
X132317142Y-99991758D01*
X132160075Y-100023000D01*
X131999925Y-100023000D01*
X131842858Y-99991758D01*
X131694899Y-99930471D01*
X131561745Y-99841501D01*
X131448499Y-99728255D01*
X131359529Y-99595101D01*
X131298242Y-99447142D01*
X131267000Y-99290075D01*
X131267000Y-99129925D01*
X131298242Y-98972858D01*
X131359529Y-98824899D01*
X131448499Y-98691745D01*
X131561745Y-98578499D01*
X131694899Y-98489529D01*
X131842858Y-98428242D01*
X131999925Y-98397000D01*
X132160075Y-98397000D01*
X132317142Y-98428242D01*
X132317142Y-98428242D01*
G37*
G36*
X139937142Y-98428242D02*
G01*
X140085101Y-98489529D01*
X140218255Y-98578499D01*
X140331501Y-98691745D01*
X140420471Y-98824899D01*
X140481758Y-98972858D01*
X140513000Y-99129925D01*
X140513000Y-99290075D01*
X140481758Y-99447142D01*
X140420471Y-99595101D01*
X140331501Y-99728255D01*
X140218255Y-99841501D01*
X140085101Y-99930471D01*
X139937142Y-99991758D01*
X139780075Y-100023000D01*
X139619925Y-100023000D01*
X139462858Y-99991758D01*
X139314899Y-99930471D01*
X139181745Y-99841501D01*
X139068499Y-99728255D01*
X138979529Y-99595101D01*
X138918242Y-99447142D01*
X138887000Y-99290075D01*
X138887000Y-99129925D01*
X138918242Y-98972858D01*
X138979529Y-98824899D01*
X139068499Y-98691745D01*
X139181745Y-98578499D01*
X139314899Y-98489529D01*
X139462858Y-98428242D01*
X139619925Y-98397000D01*
X139780075Y-98397000D01*
X139937142Y-98428242D01*
X139937142Y-98428242D01*
G37*
G36*
X137397142Y-98428242D02*
G01*
X137545101Y-98489529D01*
X137678255Y-98578499D01*
X137791501Y-98691745D01*
X137880471Y-98824899D01*
X137941758Y-98972858D01*
X137973000Y-99129925D01*
X137973000Y-99290075D01*
X137941758Y-99447142D01*
X137880471Y-99595101D01*
X137791501Y-99728255D01*
X137678255Y-99841501D01*
X137545101Y-99930471D01*
X137397142Y-99991758D01*
X137240075Y-100023000D01*
X137079925Y-100023000D01*
X136922858Y-99991758D01*
X136774899Y-99930471D01*
X136641745Y-99841501D01*
X136528499Y-99728255D01*
X136439529Y-99595101D01*
X136378242Y-99447142D01*
X136347000Y-99290075D01*
X136347000Y-99129925D01*
X136378242Y-98972858D01*
X136439529Y-98824899D01*
X136528499Y-98691745D01*
X136641745Y-98578499D01*
X136774899Y-98489529D01*
X136922858Y-98428242D01*
X137079925Y-98397000D01*
X137240075Y-98397000D01*
X137397142Y-98428242D01*
X137397142Y-98428242D01*
G37*
G36*
X129777142Y-98428242D02*
G01*
X129925101Y-98489529D01*
X130058255Y-98578499D01*
X130171501Y-98691745D01*
X130260471Y-98824899D01*
X130321758Y-98972858D01*
X130353000Y-99129925D01*
X130353000Y-99290075D01*
X130321758Y-99447142D01*
X130260471Y-99595101D01*
X130171501Y-99728255D01*
X130058255Y-99841501D01*
X129925101Y-99930471D01*
X129777142Y-99991758D01*
X129620075Y-100023000D01*
X129459925Y-100023000D01*
X129302858Y-99991758D01*
X129154899Y-99930471D01*
X129021745Y-99841501D01*
X128908499Y-99728255D01*
X128819529Y-99595101D01*
X128758242Y-99447142D01*
X128727000Y-99290075D01*
X128727000Y-99129925D01*
X128758242Y-98972858D01*
X128819529Y-98824899D01*
X128908499Y-98691745D01*
X129021745Y-98578499D01*
X129154899Y-98489529D01*
X129302858Y-98428242D01*
X129459925Y-98397000D01*
X129620075Y-98397000D01*
X129777142Y-98428242D01*
X129777142Y-98428242D01*
G37*
G36*
X127237142Y-98428242D02*
G01*
X127385101Y-98489529D01*
X127518255Y-98578499D01*
X127631501Y-98691745D01*
X127720471Y-98824899D01*
X127781758Y-98972858D01*
X127813000Y-99129925D01*
X127813000Y-99290075D01*
X127781758Y-99447142D01*
X127720471Y-99595101D01*
X127631501Y-99728255D01*
X127518255Y-99841501D01*
X127385101Y-99930471D01*
X127237142Y-99991758D01*
X127080075Y-100023000D01*
X126919925Y-100023000D01*
X126762858Y-99991758D01*
X126614899Y-99930471D01*
X126481745Y-99841501D01*
X126368499Y-99728255D01*
X126279529Y-99595101D01*
X126218242Y-99447142D01*
X126187000Y-99290075D01*
X126187000Y-99129925D01*
X126218242Y-98972858D01*
X126279529Y-98824899D01*
X126368499Y-98691745D01*
X126481745Y-98578499D01*
X126614899Y-98489529D01*
X126762858Y-98428242D01*
X126919925Y-98397000D01*
X127080075Y-98397000D01*
X127237142Y-98428242D01*
X127237142Y-98428242D01*
G37*
G36*
X124697142Y-98428242D02*
G01*
X124845101Y-98489529D01*
X124978255Y-98578499D01*
X125091501Y-98691745D01*
X125180471Y-98824899D01*
X125241758Y-98972858D01*
X125273000Y-99129925D01*
X125273000Y-99290075D01*
X125241758Y-99447142D01*
X125180471Y-99595101D01*
X125091501Y-99728255D01*
X124978255Y-99841501D01*
X124845101Y-99930471D01*
X124697142Y-99991758D01*
X124540075Y-100023000D01*
X124379925Y-100023000D01*
X124222858Y-99991758D01*
X124074899Y-99930471D01*
X123941745Y-99841501D01*
X123828499Y-99728255D01*
X123739529Y-99595101D01*
X123678242Y-99447142D01*
X123647000Y-99290075D01*
X123647000Y-99129925D01*
X123678242Y-98972858D01*
X123739529Y-98824899D01*
X123828499Y-98691745D01*
X123941745Y-98578499D01*
X124074899Y-98489529D01*
X124222858Y-98428242D01*
X124379925Y-98397000D01*
X124540075Y-98397000D01*
X124697142Y-98428242D01*
X124697142Y-98428242D01*
G37*
G36*
X145017142Y-98428242D02*
G01*
X145165101Y-98489529D01*
X145298255Y-98578499D01*
X145411501Y-98691745D01*
X145500471Y-98824899D01*
X145561758Y-98972858D01*
X145593000Y-99129925D01*
X145593000Y-99290075D01*
X145561758Y-99447142D01*
X145500471Y-99595101D01*
X145411501Y-99728255D01*
X145298255Y-99841501D01*
X145165101Y-99930471D01*
X145017142Y-99991758D01*
X144860075Y-100023000D01*
X144699925Y-100023000D01*
X144542858Y-99991758D01*
X144394899Y-99930471D01*
X144261745Y-99841501D01*
X144148499Y-99728255D01*
X144059529Y-99595101D01*
X143998242Y-99447142D01*
X143967000Y-99290075D01*
X143967000Y-99129925D01*
X143998242Y-98972858D01*
X144059529Y-98824899D01*
X144148499Y-98691745D01*
X144261745Y-98578499D01*
X144394899Y-98489529D01*
X144542858Y-98428242D01*
X144699925Y-98397000D01*
X144860075Y-98397000D01*
X145017142Y-98428242D01*
X145017142Y-98428242D01*
G37*
G36*
X122157142Y-98428242D02*
G01*
X122305101Y-98489529D01*
X122438255Y-98578499D01*
X122551501Y-98691745D01*
X122640471Y-98824899D01*
X122701758Y-98972858D01*
X122733000Y-99129925D01*
X122733000Y-99290075D01*
X122701758Y-99447142D01*
X122640471Y-99595101D01*
X122551501Y-99728255D01*
X122438255Y-99841501D01*
X122305101Y-99930471D01*
X122157142Y-99991758D01*
X122000075Y-100023000D01*
X121839925Y-100023000D01*
X121682858Y-99991758D01*
X121534899Y-99930471D01*
X121401745Y-99841501D01*
X121288499Y-99728255D01*
X121199529Y-99595101D01*
X121138242Y-99447142D01*
X121107000Y-99290075D01*
X121107000Y-99129925D01*
X121138242Y-98972858D01*
X121199529Y-98824899D01*
X121288499Y-98691745D01*
X121401745Y-98578499D01*
X121534899Y-98489529D01*
X121682858Y-98428242D01*
X121839925Y-98397000D01*
X122000075Y-98397000D01*
X122157142Y-98428242D01*
X122157142Y-98428242D01*
G37*
G36*
X147557142Y-98428242D02*
G01*
X147705101Y-98489529D01*
X147838255Y-98578499D01*
X147951501Y-98691745D01*
X148040471Y-98824899D01*
X148101758Y-98972858D01*
X148133000Y-99129925D01*
X148133000Y-99290075D01*
X148101758Y-99447142D01*
X148040471Y-99595101D01*
X147951501Y-99728255D01*
X147838255Y-99841501D01*
X147705101Y-99930471D01*
X147557142Y-99991758D01*
X147400075Y-100023000D01*
X147239925Y-100023000D01*
X147082858Y-99991758D01*
X146934899Y-99930471D01*
X146801745Y-99841501D01*
X146688499Y-99728255D01*
X146599529Y-99595101D01*
X146538242Y-99447142D01*
X146507000Y-99290075D01*
X146507000Y-99129925D01*
X146538242Y-98972858D01*
X146599529Y-98824899D01*
X146688499Y-98691745D01*
X146801745Y-98578499D01*
X146934899Y-98489529D01*
X147082858Y-98428242D01*
X147239925Y-98397000D01*
X147400075Y-98397000D01*
X147557142Y-98428242D01*
X147557142Y-98428242D01*
G37*
G36*
X150097142Y-98428242D02*
G01*
X150245101Y-98489529D01*
X150378255Y-98578499D01*
X150491501Y-98691745D01*
X150580471Y-98824899D01*
X150641758Y-98972858D01*
X150673000Y-99129925D01*
X150673000Y-99290075D01*
X150641758Y-99447142D01*
X150580471Y-99595101D01*
X150491501Y-99728255D01*
X150378255Y-99841501D01*
X150245101Y-99930471D01*
X150097142Y-99991758D01*
X149940075Y-100023000D01*
X149779925Y-100023000D01*
X149622858Y-99991758D01*
X149474899Y-99930471D01*
X149341745Y-99841501D01*
X149228499Y-99728255D01*
X149139529Y-99595101D01*
X149078242Y-99447142D01*
X149047000Y-99290075D01*
X149047000Y-99129925D01*
X149078242Y-98972858D01*
X149139529Y-98824899D01*
X149228499Y-98691745D01*
X149341745Y-98578499D01*
X149474899Y-98489529D01*
X149622858Y-98428242D01*
X149779925Y-98397000D01*
X149940075Y-98397000D01*
X150097142Y-98428242D01*
X150097142Y-98428242D01*
G37*
G36*
X134857142Y-98428242D02*
G01*
X135005101Y-98489529D01*
X135138255Y-98578499D01*
X135251501Y-98691745D01*
X135340471Y-98824899D01*
X135401758Y-98972858D01*
X135433000Y-99129925D01*
X135433000Y-99290075D01*
X135401758Y-99447142D01*
X135340471Y-99595101D01*
X135251501Y-99728255D01*
X135138255Y-99841501D01*
X135005101Y-99930471D01*
X134857142Y-99991758D01*
X134700075Y-100023000D01*
X134539925Y-100023000D01*
X134382858Y-99991758D01*
X134234899Y-99930471D01*
X134101745Y-99841501D01*
X133988499Y-99728255D01*
X133899529Y-99595101D01*
X133838242Y-99447142D01*
X133807000Y-99290075D01*
X133807000Y-99129925D01*
X133838242Y-98972858D01*
X133899529Y-98824899D01*
X133988499Y-98691745D01*
X134101745Y-98578499D01*
X134234899Y-98489529D01*
X134382858Y-98428242D01*
X134539925Y-98397000D01*
X134700075Y-98397000D01*
X134857142Y-98428242D01*
X134857142Y-98428242D01*
G37*
G36*
X142477142Y-98428242D02*
G01*
X142625101Y-98489529D01*
X142758255Y-98578499D01*
X142871501Y-98691745D01*
X142960471Y-98824899D01*
X143021758Y-98972858D01*
X143053000Y-99129925D01*
X143053000Y-99290075D01*
X143021758Y-99447142D01*
X142960471Y-99595101D01*
X142871501Y-99728255D01*
X142758255Y-99841501D01*
X142625101Y-99930471D01*
X142477142Y-99991758D01*
X142320075Y-100023000D01*
X142159925Y-100023000D01*
X142002858Y-99991758D01*
X141854899Y-99930471D01*
X141721745Y-99841501D01*
X141608499Y-99728255D01*
X141519529Y-99595101D01*
X141458242Y-99447142D01*
X141427000Y-99290075D01*
X141427000Y-99129925D01*
X141458242Y-98972858D01*
X141519529Y-98824899D01*
X141608499Y-98691745D01*
X141721745Y-98578499D01*
X141854899Y-98489529D01*
X142002858Y-98428242D01*
X142159925Y-98397000D01*
X142320075Y-98397000D01*
X142477142Y-98428242D01*
X142477142Y-98428242D01*
G37*
G36*
X106409142Y-95738242D02*
G01*
X106557101Y-95799529D01*
X106690255Y-95888499D01*
X106803501Y-96001745D01*
X106892471Y-96134899D01*
X106953758Y-96282858D01*
X106985000Y-96439925D01*
X106985000Y-96600075D01*
X106953758Y-96757142D01*
X106892471Y-96905101D01*
X106803501Y-97038255D01*
X106690255Y-97151501D01*
X106557101Y-97240471D01*
X106409142Y-97301758D01*
X106252075Y-97333000D01*
X106091925Y-97333000D01*
X105934858Y-97301758D01*
X105786899Y-97240471D01*
X105653745Y-97151501D01*
X105540499Y-97038255D01*
X105451529Y-96905101D01*
X105390242Y-96757142D01*
X105359000Y-96600075D01*
X105359000Y-96439925D01*
X105390242Y-96282858D01*
X105451529Y-96134899D01*
X105540499Y-96001745D01*
X105653745Y-95888499D01*
X105786899Y-95799529D01*
X105934858Y-95738242D01*
X106091925Y-95707000D01*
X106252075Y-95707000D01*
X106409142Y-95738242D01*
X106409142Y-95738242D01*
G37*
G36*
X112251142Y-95484242D02*
G01*
X112399101Y-95545529D01*
X112532255Y-95634499D01*
X112645501Y-95747745D01*
X112734471Y-95880899D01*
X112795758Y-96028858D01*
X112827000Y-96185925D01*
X112827000Y-96346075D01*
X112795758Y-96503142D01*
X112734471Y-96651101D01*
X112645501Y-96784255D01*
X112532255Y-96897501D01*
X112399101Y-96986471D01*
X112251142Y-97047758D01*
X112094075Y-97079000D01*
X111933925Y-97079000D01*
X111776858Y-97047758D01*
X111628899Y-96986471D01*
X111495745Y-96897501D01*
X111382499Y-96784255D01*
X111293529Y-96651101D01*
X111232242Y-96503142D01*
X111201000Y-96346075D01*
X111201000Y-96185925D01*
X111232242Y-96028858D01*
X111293529Y-95880899D01*
X111382499Y-95747745D01*
X111495745Y-95634499D01*
X111628899Y-95545529D01*
X111776858Y-95484242D01*
X111933925Y-95453000D01*
X112094075Y-95453000D01*
X112251142Y-95484242D01*
X112251142Y-95484242D01*
G37*
G36*
X150859142Y-94722242D02*
G01*
X151007101Y-94783529D01*
X151140255Y-94872499D01*
X151253501Y-94985745D01*
X151342471Y-95118899D01*
X151403758Y-95266858D01*
X151435000Y-95423925D01*
X151435000Y-95584075D01*
X151403758Y-95741142D01*
X151342471Y-95889101D01*
X151253501Y-96022255D01*
X151140255Y-96135501D01*
X151007101Y-96224471D01*
X150859142Y-96285758D01*
X150702075Y-96317000D01*
X150541925Y-96317000D01*
X150384858Y-96285758D01*
X150236899Y-96224471D01*
X150103745Y-96135501D01*
X149990499Y-96022255D01*
X149901529Y-95889101D01*
X149840242Y-95741142D01*
X149809000Y-95584075D01*
X149809000Y-95423925D01*
X149840242Y-95266858D01*
X149901529Y-95118899D01*
X149990499Y-94985745D01*
X150103745Y-94872499D01*
X150236899Y-94783529D01*
X150384858Y-94722242D01*
X150541925Y-94691000D01*
X150702075Y-94691000D01*
X150859142Y-94722242D01*
X150859142Y-94722242D01*
G37*
G36*
X106409142Y-93198242D02*
G01*
X106557101Y-93259529D01*
X106690255Y-93348499D01*
X106803501Y-93461745D01*
X106892471Y-93594899D01*
X106953758Y-93742858D01*
X106985000Y-93899925D01*
X106985000Y-94060075D01*
X106953758Y-94217142D01*
X106892471Y-94365101D01*
X106803501Y-94498255D01*
X106690255Y-94611501D01*
X106557101Y-94700471D01*
X106409142Y-94761758D01*
X106252075Y-94793000D01*
X106091925Y-94793000D01*
X105934858Y-94761758D01*
X105786899Y-94700471D01*
X105653745Y-94611501D01*
X105540499Y-94498255D01*
X105451529Y-94365101D01*
X105390242Y-94217142D01*
X105359000Y-94060075D01*
X105359000Y-93899925D01*
X105390242Y-93742858D01*
X105451529Y-93594899D01*
X105540499Y-93461745D01*
X105653745Y-93348499D01*
X105786899Y-93259529D01*
X105934858Y-93198242D01*
X106091925Y-93167000D01*
X106252075Y-93167000D01*
X106409142Y-93198242D01*
X106409142Y-93198242D01*
G37*
G36*
X106409142Y-90658242D02*
G01*
X106557101Y-90719529D01*
X106690255Y-90808499D01*
X106803501Y-90921745D01*
X106892471Y-91054899D01*
X106953758Y-91202858D01*
X106985000Y-91359925D01*
X106985000Y-91520075D01*
X106953758Y-91677142D01*
X106892471Y-91825101D01*
X106803501Y-91958255D01*
X106690255Y-92071501D01*
X106557101Y-92160471D01*
X106409142Y-92221758D01*
X106252075Y-92253000D01*
X106091925Y-92253000D01*
X105934858Y-92221758D01*
X105786899Y-92160471D01*
X105653745Y-92071501D01*
X105540499Y-91958255D01*
X105451529Y-91825101D01*
X105390242Y-91677142D01*
X105359000Y-91520075D01*
X105359000Y-91359925D01*
X105390242Y-91202858D01*
X105451529Y-91054899D01*
X105540499Y-90921745D01*
X105653745Y-90808499D01*
X105786899Y-90719529D01*
X105934858Y-90658242D01*
X106091925Y-90627000D01*
X106252075Y-90627000D01*
X106409142Y-90658242D01*
X106409142Y-90658242D01*
G37*
G36*
X112251142Y-89896242D02*
G01*
X112399101Y-89957529D01*
X112532255Y-90046499D01*
X112645501Y-90159745D01*
X112734471Y-90292899D01*
X112795758Y-90440858D01*
X112827000Y-90597925D01*
X112827000Y-90758075D01*
X112795758Y-90915142D01*
X112734471Y-91063101D01*
X112645501Y-91196255D01*
X112532255Y-91309501D01*
X112399101Y-91398471D01*
X112251142Y-91459758D01*
X112094075Y-91491000D01*
X111933925Y-91491000D01*
X111776858Y-91459758D01*
X111628899Y-91398471D01*
X111495745Y-91309501D01*
X111382499Y-91196255D01*
X111293529Y-91063101D01*
X111232242Y-90915142D01*
X111201000Y-90758075D01*
X111201000Y-90597925D01*
X111232242Y-90440858D01*
X111293529Y-90292899D01*
X111382499Y-90159745D01*
X111495745Y-90046499D01*
X111628899Y-89957529D01*
X111776858Y-89896242D01*
X111933925Y-89865000D01*
X112094075Y-89865000D01*
X112251142Y-89896242D01*
X112251142Y-89896242D01*
G37*
G36*
X106409142Y-88118242D02*
G01*
X106557101Y-88179529D01*
X106690255Y-88268499D01*
X106803501Y-88381745D01*
X106892471Y-88514899D01*
X106953758Y-88662858D01*
X106985000Y-88819925D01*
X106985000Y-88980075D01*
X106953758Y-89137142D01*
X106892471Y-89285101D01*
X106803501Y-89418255D01*
X106690255Y-89531501D01*
X106557101Y-89620471D01*
X106409142Y-89681758D01*
X106252075Y-89713000D01*
X106091925Y-89713000D01*
X105934858Y-89681758D01*
X105786899Y-89620471D01*
X105653745Y-89531501D01*
X105540499Y-89418255D01*
X105451529Y-89285101D01*
X105390242Y-89137142D01*
X105359000Y-88980075D01*
X105359000Y-88819925D01*
X105390242Y-88662858D01*
X105451529Y-88514899D01*
X105540499Y-88381745D01*
X105653745Y-88268499D01*
X105786899Y-88179529D01*
X105934858Y-88118242D01*
X106091925Y-88087000D01*
X106252075Y-88087000D01*
X106409142Y-88118242D01*
X106409142Y-88118242D01*
G37*
G36*
X136889142Y-84054242D02*
G01*
X137037101Y-84115529D01*
X137170255Y-84204499D01*
X137283501Y-84317745D01*
X137372471Y-84450899D01*
X137433758Y-84598858D01*
X137465000Y-84755925D01*
X137465000Y-84916075D01*
X137433758Y-85073142D01*
X137372471Y-85221101D01*
X137283501Y-85354255D01*
X137170255Y-85467501D01*
X137037101Y-85556471D01*
X136889142Y-85617758D01*
X136732075Y-85649000D01*
X136571925Y-85649000D01*
X136414858Y-85617758D01*
X136266899Y-85556471D01*
X136133745Y-85467501D01*
X136020499Y-85354255D01*
X135931529Y-85221101D01*
X135870242Y-85073142D01*
X135839000Y-84916075D01*
X135839000Y-84755925D01*
X135870242Y-84598858D01*
X135931529Y-84450899D01*
X136020499Y-84317745D01*
X136133745Y-84204499D01*
X136266899Y-84115529D01*
X136414858Y-84054242D01*
X136571925Y-84023000D01*
X136732075Y-84023000D01*
X136889142Y-84054242D01*
X136889142Y-84054242D01*
G37*
G36*
X161271873Y-78756857D02*
G01*
X161480593Y-78798374D01*
X161757979Y-78913271D01*
X161924784Y-79024727D01*
X161998639Y-79074075D01*
X162007621Y-79080077D01*
X162219923Y-79292379D01*
X162386729Y-79542021D01*
X162501626Y-79819407D01*
X162560200Y-80113879D01*
X162560200Y-80414121D01*
X162501626Y-80708593D01*
X162386729Y-80985979D01*
X162219923Y-81235621D01*
X162007621Y-81447923D01*
X161757979Y-81614729D01*
X161480593Y-81729626D01*
X161333357Y-81758913D01*
X161186122Y-81788200D01*
X160885878Y-81788200D01*
X160738643Y-81758913D01*
X160591407Y-81729626D01*
X160314021Y-81614729D01*
X160064379Y-81447923D01*
X159852077Y-81235621D01*
X159685271Y-80985979D01*
X159570374Y-80708593D01*
X159511800Y-80414121D01*
X159511800Y-80113879D01*
X159570374Y-79819407D01*
X159685271Y-79542021D01*
X159852077Y-79292379D01*
X160064379Y-79080077D01*
X160073362Y-79074075D01*
X160147216Y-79024727D01*
X160314021Y-78913271D01*
X160591407Y-78798374D01*
X160800127Y-78756857D01*
X160885878Y-78739800D01*
X161186122Y-78739800D01*
X161271873Y-78756857D01*
X161271873Y-78756857D01*
G37*
G36*
X128634142Y-79863242D02*
G01*
X128782101Y-79924529D01*
X128915255Y-80013499D01*
X129028501Y-80126745D01*
X129117471Y-80259899D01*
X129178758Y-80407858D01*
X129210000Y-80564925D01*
X129210000Y-80725075D01*
X129178758Y-80882142D01*
X129117471Y-81030101D01*
X129028501Y-81163255D01*
X128915255Y-81276501D01*
X128782101Y-81365471D01*
X128634142Y-81426758D01*
X128477075Y-81458000D01*
X128316925Y-81458000D01*
X128159858Y-81426758D01*
X128011899Y-81365471D01*
X127878745Y-81276501D01*
X127765499Y-81163255D01*
X127676529Y-81030101D01*
X127615242Y-80882142D01*
X127584000Y-80725075D01*
X127584000Y-80564925D01*
X127615242Y-80407858D01*
X127676529Y-80259899D01*
X127765499Y-80126745D01*
X127878745Y-80013499D01*
X128011899Y-79924529D01*
X128159858Y-79863242D01*
X128316925Y-79832000D01*
X128477075Y-79832000D01*
X128634142Y-79863242D01*
X128634142Y-79863242D01*
G37*
G36*
X126094142Y-79863242D02*
G01*
X126242101Y-79924529D01*
X126375255Y-80013499D01*
X126488501Y-80126745D01*
X126577471Y-80259899D01*
X126638758Y-80407858D01*
X126670000Y-80564925D01*
X126670000Y-80725075D01*
X126638758Y-80882142D01*
X126577471Y-81030101D01*
X126488501Y-81163255D01*
X126375255Y-81276501D01*
X126242101Y-81365471D01*
X126094142Y-81426758D01*
X125937075Y-81458000D01*
X125776925Y-81458000D01*
X125619858Y-81426758D01*
X125471899Y-81365471D01*
X125338745Y-81276501D01*
X125225499Y-81163255D01*
X125136529Y-81030101D01*
X125075242Y-80882142D01*
X125044000Y-80725075D01*
X125044000Y-80564925D01*
X125075242Y-80407858D01*
X125136529Y-80259899D01*
X125225499Y-80126745D01*
X125338745Y-80013499D01*
X125471899Y-79924529D01*
X125619858Y-79863242D01*
X125776925Y-79832000D01*
X125937075Y-79832000D01*
X126094142Y-79863242D01*
X126094142Y-79863242D01*
G37*
G36*
X123554142Y-79863242D02*
G01*
X123702101Y-79924529D01*
X123835255Y-80013499D01*
X123948501Y-80126745D01*
X124037471Y-80259899D01*
X124098758Y-80407858D01*
X124130000Y-80564925D01*
X124130000Y-80725075D01*
X124098758Y-80882142D01*
X124037471Y-81030101D01*
X123948501Y-81163255D01*
X123835255Y-81276501D01*
X123702101Y-81365471D01*
X123554142Y-81426758D01*
X123397075Y-81458000D01*
X123236925Y-81458000D01*
X123079858Y-81426758D01*
X122931899Y-81365471D01*
X122798745Y-81276501D01*
X122685499Y-81163255D01*
X122596529Y-81030101D01*
X122535242Y-80882142D01*
X122504000Y-80725075D01*
X122504000Y-80564925D01*
X122535242Y-80407858D01*
X122596529Y-80259899D01*
X122685499Y-80126745D01*
X122798745Y-80013499D01*
X122931899Y-79924529D01*
X123079858Y-79863242D01*
X123236925Y-79832000D01*
X123397075Y-79832000D01*
X123554142Y-79863242D01*
X123554142Y-79863242D01*
G37*
G36*
X121014142Y-79863242D02*
G01*
X121162101Y-79924529D01*
X121295255Y-80013499D01*
X121408501Y-80126745D01*
X121497471Y-80259899D01*
X121558758Y-80407858D01*
X121590000Y-80564925D01*
X121590000Y-80725075D01*
X121558758Y-80882142D01*
X121497471Y-81030101D01*
X121408501Y-81163255D01*
X121295255Y-81276501D01*
X121162101Y-81365471D01*
X121014142Y-81426758D01*
X120857075Y-81458000D01*
X120696925Y-81458000D01*
X120539858Y-81426758D01*
X120391899Y-81365471D01*
X120258745Y-81276501D01*
X120145499Y-81163255D01*
X120056529Y-81030101D01*
X119995242Y-80882142D01*
X119964000Y-80725075D01*
X119964000Y-80564925D01*
X119995242Y-80407858D01*
X120056529Y-80259899D01*
X120145499Y-80126745D01*
X120258745Y-80013499D01*
X120391899Y-79924529D01*
X120539858Y-79863242D01*
X120696925Y-79832000D01*
X120857075Y-79832000D01*
X121014142Y-79863242D01*
X121014142Y-79863242D01*
G37*
G36*
X116315142Y-78212242D02*
G01*
X116463101Y-78273529D01*
X116596255Y-78362499D01*
X116709501Y-78475745D01*
X116798471Y-78608899D01*
X116859758Y-78756858D01*
X116891000Y-78913925D01*
X116891000Y-79074075D01*
X116859758Y-79231142D01*
X116798471Y-79379101D01*
X116709501Y-79512255D01*
X116596255Y-79625501D01*
X116463101Y-79714471D01*
X116315142Y-79775758D01*
X116158075Y-79807000D01*
X115997925Y-79807000D01*
X115840858Y-79775758D01*
X115692899Y-79714471D01*
X115559745Y-79625501D01*
X115446499Y-79512255D01*
X115357529Y-79379101D01*
X115296242Y-79231142D01*
X115265000Y-79074075D01*
X115265000Y-78913925D01*
X115296242Y-78756858D01*
X115357529Y-78608899D01*
X115446499Y-78475745D01*
X115559745Y-78362499D01*
X115692899Y-78273529D01*
X115840858Y-78212242D01*
X115997925Y-78181000D01*
X116158075Y-78181000D01*
X116315142Y-78212242D01*
X116315142Y-78212242D01*
G37*
G36*
X133333142Y-78212242D02*
G01*
X133481101Y-78273529D01*
X133614255Y-78362499D01*
X133727501Y-78475745D01*
X133816471Y-78608899D01*
X133877758Y-78756858D01*
X133909000Y-78913925D01*
X133909000Y-79074075D01*
X133877758Y-79231142D01*
X133816471Y-79379101D01*
X133727501Y-79512255D01*
X133614255Y-79625501D01*
X133481101Y-79714471D01*
X133333142Y-79775758D01*
X133176075Y-79807000D01*
X133015925Y-79807000D01*
X132858858Y-79775758D01*
X132710899Y-79714471D01*
X132577745Y-79625501D01*
X132464499Y-79512255D01*
X132375529Y-79379101D01*
X132314242Y-79231142D01*
X132283000Y-79074075D01*
X132283000Y-78913925D01*
X132314242Y-78756858D01*
X132375529Y-78608899D01*
X132464499Y-78475745D01*
X132577745Y-78362499D01*
X132710899Y-78273529D01*
X132858858Y-78212242D01*
X133015925Y-78181000D01*
X133176075Y-78181000D01*
X133333142Y-78212242D01*
X133333142Y-78212242D01*
G37*
M02*
