M48
; DRILL file {KiCad (5.1.4)-1} date 10/15/2019 7:11:35 PM
; FORMAT={-:-/ absolute / inch / decimal}
; #@! TF.CreationDate,2019-10-15T19:11:35-05:00
; #@! TF.GenerationSoftware,Kicad,Pcbnew,(5.1.4)-1
; #@! TF.FileFunction,Plated,1,2,PTH
FMAT,2
INCH
T1C0.0157
T2C0.0300
T3C0.0354
%
G90
G05
T1
X4.52Y-3.46
X4.6Y-3.63
X4.72Y-3.31
X5.38Y-3.8
T2
X5.38Y-3.34
X4.57Y-3.11
X5.93Y-3.76
X4.41Y-3.57
X4.8Y-3.9059
X4.8Y-4.3
X4.9Y-3.9059
X4.9Y-4.3
X5.0Y-3.9059
X5.0Y-4.3
X5.1Y-3.9059
X5.1Y-4.3
X5.2Y-3.9059
X5.2Y-4.3
X5.3Y-3.9059
X5.3Y-4.3
X5.4Y-3.9059
X5.4Y-4.3
X5.5Y-3.9059
X5.5Y-4.3
X5.6Y-3.9059
X5.6Y-4.3
X5.7Y-3.9059
X5.7Y-4.3
X5.8Y-3.9059
X5.8Y-4.3
X5.9Y-3.9059
X5.9Y-4.3
X5.24Y-3.11
X4.41Y-3.79
T3
X4.755Y-3.175
X4.755Y-3.175
X4.855Y-3.175
X4.955Y-3.175
X5.055Y-3.175
X4.18Y-3.5
X4.18Y-3.6
X4.18Y-3.7
X4.18Y-3.8
X4.18Y-3.8
T0
M30
