G04 #@! TF.GenerationSoftware,KiCad,Pcbnew,(5.0.2)-1*
G04 #@! TF.CreationDate,2019-03-16T10:11:32-05:00*
G04 #@! TF.ProjectId,CCDBoard_Hardware,43434442-6f61-4726-945f-486172647761,rev?*
G04 #@! TF.SameCoordinates,Original*
G04 #@! TF.FileFunction,Soldermask,Bot*
G04 #@! TF.FilePolarity,Negative*
%FSLAX46Y46*%
G04 Gerber Fmt 4.6, Leading zero omitted, Abs format (unit mm)*
G04 Created by KiCad (PCBNEW (5.0.2)-1) date 3/16/2019 10:11:32 AM*
%MOMM*%
%LPD*%
G01*
G04 APERTURE LIST*
%ADD10C,0.100000*%
G04 APERTURE END LIST*
D10*
G36*
X48557357Y4034913D02*
X48704593Y4005626D01*
X48981979Y3890729D01*
X49229938Y3725047D01*
X49231624Y3723921D01*
X49443921Y3511624D01*
X49443923Y3511621D01*
X49610729Y3261979D01*
X49670818Y3116911D01*
X49725626Y2984592D01*
X49784200Y2690122D01*
X49784200Y2389878D01*
X49754913Y2242643D01*
X49725626Y2095407D01*
X49610729Y1818021D01*
X49445047Y1570062D01*
X49443921Y1568376D01*
X49231624Y1356079D01*
X49231621Y1356077D01*
X48981979Y1189271D01*
X48704593Y1074374D01*
X48557357Y1045087D01*
X48410122Y1015800D01*
X48109878Y1015800D01*
X47962643Y1045087D01*
X47815407Y1074374D01*
X47538021Y1189271D01*
X47288379Y1356077D01*
X47288376Y1356079D01*
X47076079Y1568376D01*
X47074953Y1570062D01*
X46909271Y1818021D01*
X46794374Y2095407D01*
X46765087Y2242643D01*
X46735800Y2389878D01*
X46735800Y2690122D01*
X46794374Y2984592D01*
X46849182Y3116911D01*
X46909271Y3261979D01*
X47076077Y3511621D01*
X47076079Y3511624D01*
X47288376Y3723921D01*
X47290062Y3725047D01*
X47538021Y3890729D01*
X47815407Y4005626D01*
X47962643Y4034913D01*
X48109878Y4064200D01*
X48410122Y4064200D01*
X48557357Y4034913D01*
X48557357Y4034913D01*
G37*
G36*
X2837357Y4034913D02*
X2984593Y4005626D01*
X3261979Y3890729D01*
X3509938Y3725047D01*
X3511624Y3723921D01*
X3723921Y3511624D01*
X3723923Y3511621D01*
X3890729Y3261979D01*
X3950818Y3116911D01*
X4005626Y2984592D01*
X4064200Y2690122D01*
X4064200Y2389878D01*
X4034913Y2242643D01*
X4005626Y2095407D01*
X3890729Y1818021D01*
X3725047Y1570062D01*
X3723921Y1568376D01*
X3511624Y1356079D01*
X3511621Y1356077D01*
X3261979Y1189271D01*
X2984593Y1074374D01*
X2837357Y1045087D01*
X2690122Y1015800D01*
X2389878Y1015800D01*
X2242643Y1045087D01*
X2095407Y1074374D01*
X1818021Y1189271D01*
X1568379Y1356077D01*
X1568376Y1356079D01*
X1356079Y1568376D01*
X1354953Y1570062D01*
X1189271Y1818021D01*
X1074374Y2095407D01*
X1045087Y2242643D01*
X1015800Y2389878D01*
X1015800Y2690122D01*
X1074374Y2984592D01*
X1129182Y3116911D01*
X1189271Y3261979D01*
X1356077Y3511621D01*
X1356079Y3511624D01*
X1568376Y3723921D01*
X1570062Y3725047D01*
X1818021Y3890729D01*
X2095407Y4005626D01*
X2242643Y4034913D01*
X2389878Y4064200D01*
X2690122Y4064200D01*
X2837357Y4034913D01*
X2837357Y4034913D01*
G37*
G36*
X20509890Y3165983D02*
X20628361Y3116911D01*
X20734992Y3045662D01*
X20825662Y2954992D01*
X20896911Y2848361D01*
X20945983Y2729890D01*
X20971000Y2604119D01*
X20971000Y2475881D01*
X20945983Y2350110D01*
X20896911Y2231639D01*
X20825662Y2125008D01*
X20734992Y2034338D01*
X20628361Y1963089D01*
X20509890Y1914017D01*
X20384119Y1889000D01*
X20255881Y1889000D01*
X20130110Y1914017D01*
X20011639Y1963089D01*
X19905008Y2034338D01*
X19814338Y2125008D01*
X19743089Y2231639D01*
X19694017Y2350110D01*
X19669000Y2475881D01*
X19669000Y2604119D01*
X19694017Y2729890D01*
X19743089Y2848361D01*
X19814338Y2954992D01*
X19905008Y3045662D01*
X20011639Y3116911D01*
X20130110Y3165983D01*
X20255881Y3191000D01*
X20384119Y3191000D01*
X20509890Y3165983D01*
X20509890Y3165983D01*
G37*
G36*
X15429890Y3165983D02*
X15548361Y3116911D01*
X15654992Y3045662D01*
X15745662Y2954992D01*
X15816911Y2848361D01*
X15865983Y2729890D01*
X15891000Y2604119D01*
X15891000Y2475881D01*
X15865983Y2350110D01*
X15816911Y2231639D01*
X15745662Y2125008D01*
X15654992Y2034338D01*
X15548361Y1963089D01*
X15429890Y1914017D01*
X15304119Y1889000D01*
X15175881Y1889000D01*
X15050110Y1914017D01*
X14931639Y1963089D01*
X14825008Y2034338D01*
X14734338Y2125008D01*
X14663089Y2231639D01*
X14614017Y2350110D01*
X14589000Y2475881D01*
X14589000Y2604119D01*
X14614017Y2729890D01*
X14663089Y2848361D01*
X14734338Y2954992D01*
X14825008Y3045662D01*
X14931639Y3116911D01*
X15050110Y3165983D01*
X15175881Y3191000D01*
X15304119Y3191000D01*
X15429890Y3165983D01*
X15429890Y3165983D01*
G37*
G36*
X17969890Y3165983D02*
X18088361Y3116911D01*
X18194992Y3045662D01*
X18285662Y2954992D01*
X18356911Y2848361D01*
X18405983Y2729890D01*
X18431000Y2604119D01*
X18431000Y2475881D01*
X18405983Y2350110D01*
X18356911Y2231639D01*
X18285662Y2125008D01*
X18194992Y2034338D01*
X18088361Y1963089D01*
X17969890Y1914017D01*
X17844119Y1889000D01*
X17715881Y1889000D01*
X17590110Y1914017D01*
X17471639Y1963089D01*
X17365008Y2034338D01*
X17274338Y2125008D01*
X17203089Y2231639D01*
X17154017Y2350110D01*
X17129000Y2475881D01*
X17129000Y2604119D01*
X17154017Y2729890D01*
X17203089Y2848361D01*
X17274338Y2954992D01*
X17365008Y3045662D01*
X17471639Y3116911D01*
X17590110Y3165983D01*
X17715881Y3191000D01*
X17844119Y3191000D01*
X17969890Y3165983D01*
X17969890Y3165983D01*
G37*
G36*
X23049890Y3165983D02*
X23168361Y3116911D01*
X23274992Y3045662D01*
X23365662Y2954992D01*
X23436911Y2848361D01*
X23485983Y2729890D01*
X23511000Y2604119D01*
X23511000Y2475881D01*
X23485983Y2350110D01*
X23436911Y2231639D01*
X23365662Y2125008D01*
X23274992Y2034338D01*
X23168361Y1963089D01*
X23049890Y1914017D01*
X22924119Y1889000D01*
X22795881Y1889000D01*
X22670110Y1914017D01*
X22551639Y1963089D01*
X22445008Y2034338D01*
X22354338Y2125008D01*
X22283089Y2231639D01*
X22234017Y2350110D01*
X22209000Y2475881D01*
X22209000Y2604119D01*
X22234017Y2729890D01*
X22283089Y2848361D01*
X22354338Y2954992D01*
X22445008Y3045662D01*
X22551639Y3116911D01*
X22670110Y3165983D01*
X22795881Y3191000D01*
X22924119Y3191000D01*
X23049890Y3165983D01*
X23049890Y3165983D01*
G37*
G36*
X25589890Y3165983D02*
X25708361Y3116911D01*
X25814992Y3045662D01*
X25905662Y2954992D01*
X25976911Y2848361D01*
X26025983Y2729890D01*
X26051000Y2604119D01*
X26051000Y2475881D01*
X26025983Y2350110D01*
X25976911Y2231639D01*
X25905662Y2125008D01*
X25814992Y2034338D01*
X25708361Y1963089D01*
X25589890Y1914017D01*
X25464119Y1889000D01*
X25335881Y1889000D01*
X25210110Y1914017D01*
X25091639Y1963089D01*
X24985008Y2034338D01*
X24894338Y2125008D01*
X24823089Y2231639D01*
X24774017Y2350110D01*
X24749000Y2475881D01*
X24749000Y2604119D01*
X24774017Y2729890D01*
X24823089Y2848361D01*
X24894338Y2954992D01*
X24985008Y3045662D01*
X25091639Y3116911D01*
X25210110Y3165983D01*
X25335881Y3191000D01*
X25464119Y3191000D01*
X25589890Y3165983D01*
X25589890Y3165983D01*
G37*
G36*
X28129890Y3165983D02*
X28248361Y3116911D01*
X28354992Y3045662D01*
X28445662Y2954992D01*
X28516911Y2848361D01*
X28565983Y2729890D01*
X28591000Y2604119D01*
X28591000Y2475881D01*
X28565983Y2350110D01*
X28516911Y2231639D01*
X28445662Y2125008D01*
X28354992Y2034338D01*
X28248361Y1963089D01*
X28129890Y1914017D01*
X28004119Y1889000D01*
X27875881Y1889000D01*
X27750110Y1914017D01*
X27631639Y1963089D01*
X27525008Y2034338D01*
X27434338Y2125008D01*
X27363089Y2231639D01*
X27314017Y2350110D01*
X27289000Y2475881D01*
X27289000Y2604119D01*
X27314017Y2729890D01*
X27363089Y2848361D01*
X27434338Y2954992D01*
X27525008Y3045662D01*
X27631639Y3116911D01*
X27750110Y3165983D01*
X27875881Y3191000D01*
X28004119Y3191000D01*
X28129890Y3165983D01*
X28129890Y3165983D01*
G37*
G36*
X30669890Y3165983D02*
X30788361Y3116911D01*
X30894992Y3045662D01*
X30985662Y2954992D01*
X31056911Y2848361D01*
X31105983Y2729890D01*
X31131000Y2604119D01*
X31131000Y2475881D01*
X31105983Y2350110D01*
X31056911Y2231639D01*
X30985662Y2125008D01*
X30894992Y2034338D01*
X30788361Y1963089D01*
X30669890Y1914017D01*
X30544119Y1889000D01*
X30415881Y1889000D01*
X30290110Y1914017D01*
X30171639Y1963089D01*
X30065008Y2034338D01*
X29974338Y2125008D01*
X29903089Y2231639D01*
X29854017Y2350110D01*
X29829000Y2475881D01*
X29829000Y2604119D01*
X29854017Y2729890D01*
X29903089Y2848361D01*
X29974338Y2954992D01*
X30065008Y3045662D01*
X30171639Y3116911D01*
X30290110Y3165983D01*
X30415881Y3191000D01*
X30544119Y3191000D01*
X30669890Y3165983D01*
X30669890Y3165983D01*
G37*
G36*
X33209890Y3165983D02*
X33328361Y3116911D01*
X33434992Y3045662D01*
X33525662Y2954992D01*
X33596911Y2848361D01*
X33645983Y2729890D01*
X33671000Y2604119D01*
X33671000Y2475881D01*
X33645983Y2350110D01*
X33596911Y2231639D01*
X33525662Y2125008D01*
X33434992Y2034338D01*
X33328361Y1963089D01*
X33209890Y1914017D01*
X33084119Y1889000D01*
X32955881Y1889000D01*
X32830110Y1914017D01*
X32711639Y1963089D01*
X32605008Y2034338D01*
X32514338Y2125008D01*
X32443089Y2231639D01*
X32394017Y2350110D01*
X32369000Y2475881D01*
X32369000Y2604119D01*
X32394017Y2729890D01*
X32443089Y2848361D01*
X32514338Y2954992D01*
X32605008Y3045662D01*
X32711639Y3116911D01*
X32830110Y3165983D01*
X32955881Y3191000D01*
X33084119Y3191000D01*
X33209890Y3165983D01*
X33209890Y3165983D01*
G37*
G36*
X35749890Y3165983D02*
X35868361Y3116911D01*
X35974992Y3045662D01*
X36065662Y2954992D01*
X36136911Y2848361D01*
X36185983Y2729890D01*
X36211000Y2604119D01*
X36211000Y2475881D01*
X36185983Y2350110D01*
X36136911Y2231639D01*
X36065662Y2125008D01*
X35974992Y2034338D01*
X35868361Y1963089D01*
X35749890Y1914017D01*
X35624119Y1889000D01*
X35495881Y1889000D01*
X35370110Y1914017D01*
X35251639Y1963089D01*
X35145008Y2034338D01*
X35054338Y2125008D01*
X34983089Y2231639D01*
X34934017Y2350110D01*
X34909000Y2475881D01*
X34909000Y2604119D01*
X34934017Y2729890D01*
X34983089Y2848361D01*
X35054338Y2954992D01*
X35145008Y3045662D01*
X35251639Y3116911D01*
X35370110Y3165983D01*
X35495881Y3191000D01*
X35624119Y3191000D01*
X35749890Y3165983D01*
X35749890Y3165983D01*
G37*
G36*
X38289890Y3165983D02*
X38408361Y3116911D01*
X38514992Y3045662D01*
X38605662Y2954992D01*
X38676911Y2848361D01*
X38725983Y2729890D01*
X38751000Y2604119D01*
X38751000Y2475881D01*
X38725983Y2350110D01*
X38676911Y2231639D01*
X38605662Y2125008D01*
X38514992Y2034338D01*
X38408361Y1963089D01*
X38289890Y1914017D01*
X38164119Y1889000D01*
X38035881Y1889000D01*
X37910110Y1914017D01*
X37791639Y1963089D01*
X37685008Y2034338D01*
X37594338Y2125008D01*
X37523089Y2231639D01*
X37474017Y2350110D01*
X37449000Y2475881D01*
X37449000Y2604119D01*
X37474017Y2729890D01*
X37523089Y2848361D01*
X37594338Y2954992D01*
X37685008Y3045662D01*
X37791639Y3116911D01*
X37910110Y3165983D01*
X38035881Y3191000D01*
X38164119Y3191000D01*
X38289890Y3165983D01*
X38289890Y3165983D01*
G37*
G36*
X12889890Y3165983D02*
X13008361Y3116911D01*
X13114992Y3045662D01*
X13205662Y2954992D01*
X13276911Y2848361D01*
X13325983Y2729890D01*
X13351000Y2604119D01*
X13351000Y2475881D01*
X13325983Y2350110D01*
X13276911Y2231639D01*
X13205662Y2125008D01*
X13114992Y2034338D01*
X13008361Y1963089D01*
X12889890Y1914017D01*
X12764119Y1889000D01*
X12635881Y1889000D01*
X12510110Y1914017D01*
X12391639Y1963089D01*
X12285008Y2034338D01*
X12194338Y2125008D01*
X12123089Y2231639D01*
X12074017Y2350110D01*
X12049000Y2475881D01*
X12049000Y2604119D01*
X12074017Y2729890D01*
X12123089Y2848361D01*
X12194338Y2954992D01*
X12285008Y3045662D01*
X12391639Y3116911D01*
X12510110Y3165983D01*
X12635881Y3191000D01*
X12764119Y3191000D01*
X12889890Y3165983D01*
X12889890Y3165983D01*
G37*
G36*
X2837357Y14194913D02*
X2984593Y14165626D01*
X3261979Y14050729D01*
X3509938Y13885047D01*
X3511624Y13883921D01*
X3723921Y13671624D01*
X3723923Y13671621D01*
X3890729Y13421979D01*
X3950818Y13276911D01*
X4005626Y13144592D01*
X4064200Y12850122D01*
X4064200Y12549878D01*
X4034913Y12402643D01*
X4005626Y12255407D01*
X3890729Y11978021D01*
X3725047Y11730062D01*
X3723921Y11728376D01*
X3511624Y11516079D01*
X3511621Y11516077D01*
X3261979Y11349271D01*
X2984593Y11234374D01*
X2837357Y11205087D01*
X2690122Y11175800D01*
X2389878Y11175800D01*
X2242643Y11205087D01*
X2095407Y11234374D01*
X1818021Y11349271D01*
X1568379Y11516077D01*
X1568376Y11516079D01*
X1356079Y11728376D01*
X1354953Y11730062D01*
X1189271Y11978021D01*
X1074374Y12255407D01*
X1045087Y12402643D01*
X1015800Y12549878D01*
X1015800Y12850122D01*
X1074374Y13144592D01*
X1129182Y13276911D01*
X1189271Y13421979D01*
X1356077Y13671621D01*
X1356079Y13671624D01*
X1568376Y13883921D01*
X1570062Y13885047D01*
X1818021Y14050729D01*
X2095407Y14165626D01*
X2242643Y14194913D01*
X2389878Y14224200D01*
X2690122Y14224200D01*
X2837357Y14194913D01*
X2837357Y14194913D01*
G37*
G36*
X48557357Y14194913D02*
X48704593Y14165626D01*
X48981979Y14050729D01*
X49229938Y13885047D01*
X49231624Y13883921D01*
X49443921Y13671624D01*
X49443923Y13671621D01*
X49610729Y13421979D01*
X49670818Y13276911D01*
X49725626Y13144592D01*
X49784200Y12850122D01*
X49784200Y12549878D01*
X49754913Y12402643D01*
X49725626Y12255407D01*
X49610729Y11978021D01*
X49445047Y11730062D01*
X49443921Y11728376D01*
X49231624Y11516079D01*
X49231621Y11516077D01*
X48981979Y11349271D01*
X48704593Y11234374D01*
X48557357Y11205087D01*
X48410122Y11175800D01*
X48109878Y11175800D01*
X47962643Y11205087D01*
X47815407Y11234374D01*
X47538021Y11349271D01*
X47288379Y11516077D01*
X47288376Y11516079D01*
X47076079Y11728376D01*
X47074953Y11730062D01*
X46909271Y11978021D01*
X46794374Y12255407D01*
X46765087Y12402643D01*
X46735800Y12549878D01*
X46735800Y12850122D01*
X46794374Y13144592D01*
X46849182Y13276911D01*
X46909271Y13421979D01*
X47076077Y13671621D01*
X47076079Y13671624D01*
X47288376Y13883921D01*
X47290062Y13885047D01*
X47538021Y14050729D01*
X47815407Y14165626D01*
X47962643Y14194913D01*
X48109878Y14224200D01*
X48410122Y14224200D01*
X48557357Y14194913D01*
X48557357Y14194913D01*
G37*
G36*
X25589890Y13325983D02*
X25708361Y13276911D01*
X25814992Y13205662D01*
X25905662Y13114992D01*
X25976911Y13008361D01*
X26025983Y12889890D01*
X26051000Y12764119D01*
X26051000Y12635881D01*
X26025983Y12510110D01*
X25976911Y12391639D01*
X25905662Y12285008D01*
X25814992Y12194338D01*
X25708361Y12123089D01*
X25589890Y12074017D01*
X25464119Y12049000D01*
X25335881Y12049000D01*
X25210110Y12074017D01*
X25091639Y12123089D01*
X24985008Y12194338D01*
X24894338Y12285008D01*
X24823089Y12391639D01*
X24774017Y12510110D01*
X24749000Y12635881D01*
X24749000Y12764119D01*
X24774017Y12889890D01*
X24823089Y13008361D01*
X24894338Y13114992D01*
X24985008Y13205662D01*
X25091639Y13276911D01*
X25210110Y13325983D01*
X25335881Y13351000D01*
X25464119Y13351000D01*
X25589890Y13325983D01*
X25589890Y13325983D01*
G37*
G36*
X28129890Y13325983D02*
X28248361Y13276911D01*
X28354992Y13205662D01*
X28445662Y13114992D01*
X28516911Y13008361D01*
X28565983Y12889890D01*
X28591000Y12764119D01*
X28591000Y12635881D01*
X28565983Y12510110D01*
X28516911Y12391639D01*
X28445662Y12285008D01*
X28354992Y12194338D01*
X28248361Y12123089D01*
X28129890Y12074017D01*
X28004119Y12049000D01*
X27875881Y12049000D01*
X27750110Y12074017D01*
X27631639Y12123089D01*
X27525008Y12194338D01*
X27434338Y12285008D01*
X27363089Y12391639D01*
X27314017Y12510110D01*
X27289000Y12635881D01*
X27289000Y12764119D01*
X27314017Y12889890D01*
X27363089Y13008361D01*
X27434338Y13114992D01*
X27525008Y13205662D01*
X27631639Y13276911D01*
X27750110Y13325983D01*
X27875881Y13351000D01*
X28004119Y13351000D01*
X28129890Y13325983D01*
X28129890Y13325983D01*
G37*
G36*
X30669890Y13325983D02*
X30788361Y13276911D01*
X30894992Y13205662D01*
X30985662Y13114992D01*
X31056911Y13008361D01*
X31105983Y12889890D01*
X31131000Y12764119D01*
X31131000Y12635881D01*
X31105983Y12510110D01*
X31056911Y12391639D01*
X30985662Y12285008D01*
X30894992Y12194338D01*
X30788361Y12123089D01*
X30669890Y12074017D01*
X30544119Y12049000D01*
X30415881Y12049000D01*
X30290110Y12074017D01*
X30171639Y12123089D01*
X30065008Y12194338D01*
X29974338Y12285008D01*
X29903089Y12391639D01*
X29854017Y12510110D01*
X29829000Y12635881D01*
X29829000Y12764119D01*
X29854017Y12889890D01*
X29903089Y13008361D01*
X29974338Y13114992D01*
X30065008Y13205662D01*
X30171639Y13276911D01*
X30290110Y13325983D01*
X30415881Y13351000D01*
X30544119Y13351000D01*
X30669890Y13325983D01*
X30669890Y13325983D01*
G37*
G36*
X33209890Y13325983D02*
X33328361Y13276911D01*
X33434992Y13205662D01*
X33525662Y13114992D01*
X33596911Y13008361D01*
X33645983Y12889890D01*
X33671000Y12764119D01*
X33671000Y12635881D01*
X33645983Y12510110D01*
X33596911Y12391639D01*
X33525662Y12285008D01*
X33434992Y12194338D01*
X33328361Y12123089D01*
X33209890Y12074017D01*
X33084119Y12049000D01*
X32955881Y12049000D01*
X32830110Y12074017D01*
X32711639Y12123089D01*
X32605008Y12194338D01*
X32514338Y12285008D01*
X32443089Y12391639D01*
X32394017Y12510110D01*
X32369000Y12635881D01*
X32369000Y12764119D01*
X32394017Y12889890D01*
X32443089Y13008361D01*
X32514338Y13114992D01*
X32605008Y13205662D01*
X32711639Y13276911D01*
X32830110Y13325983D01*
X32955881Y13351000D01*
X33084119Y13351000D01*
X33209890Y13325983D01*
X33209890Y13325983D01*
G37*
G36*
X38289890Y13325983D02*
X38408361Y13276911D01*
X38514992Y13205662D01*
X38605662Y13114992D01*
X38676911Y13008361D01*
X38725983Y12889890D01*
X38751000Y12764119D01*
X38751000Y12635881D01*
X38725983Y12510110D01*
X38676911Y12391639D01*
X38605662Y12285008D01*
X38514992Y12194338D01*
X38408361Y12123089D01*
X38289890Y12074017D01*
X38164119Y12049000D01*
X38035881Y12049000D01*
X37910110Y12074017D01*
X37791639Y12123089D01*
X37685008Y12194338D01*
X37594338Y12285008D01*
X37523089Y12391639D01*
X37474017Y12510110D01*
X37449000Y12635881D01*
X37449000Y12764119D01*
X37474017Y12889890D01*
X37523089Y13008361D01*
X37594338Y13114992D01*
X37685008Y13205662D01*
X37791639Y13276911D01*
X37910110Y13325983D01*
X38035881Y13351000D01*
X38164119Y13351000D01*
X38289890Y13325983D01*
X38289890Y13325983D01*
G37*
G36*
X23049890Y13325983D02*
X23168361Y13276911D01*
X23274992Y13205662D01*
X23365662Y13114992D01*
X23436911Y13008361D01*
X23485983Y12889890D01*
X23511000Y12764119D01*
X23511000Y12635881D01*
X23485983Y12510110D01*
X23436911Y12391639D01*
X23365662Y12285008D01*
X23274992Y12194338D01*
X23168361Y12123089D01*
X23049890Y12074017D01*
X22924119Y12049000D01*
X22795881Y12049000D01*
X22670110Y12074017D01*
X22551639Y12123089D01*
X22445008Y12194338D01*
X22354338Y12285008D01*
X22283089Y12391639D01*
X22234017Y12510110D01*
X22209000Y12635881D01*
X22209000Y12764119D01*
X22234017Y12889890D01*
X22283089Y13008361D01*
X22354338Y13114992D01*
X22445008Y13205662D01*
X22551639Y13276911D01*
X22670110Y13325983D01*
X22795881Y13351000D01*
X22924119Y13351000D01*
X23049890Y13325983D01*
X23049890Y13325983D01*
G37*
G36*
X15429890Y13325983D02*
X15548361Y13276911D01*
X15654992Y13205662D01*
X15745662Y13114992D01*
X15816911Y13008361D01*
X15865983Y12889890D01*
X15891000Y12764119D01*
X15891000Y12635881D01*
X15865983Y12510110D01*
X15816911Y12391639D01*
X15745662Y12285008D01*
X15654992Y12194338D01*
X15548361Y12123089D01*
X15429890Y12074017D01*
X15304119Y12049000D01*
X15175881Y12049000D01*
X15050110Y12074017D01*
X14931639Y12123089D01*
X14825008Y12194338D01*
X14734338Y12285008D01*
X14663089Y12391639D01*
X14614017Y12510110D01*
X14589000Y12635881D01*
X14589000Y12764119D01*
X14614017Y12889890D01*
X14663089Y13008361D01*
X14734338Y13114992D01*
X14825008Y13205662D01*
X14931639Y13276911D01*
X15050110Y13325983D01*
X15175881Y13351000D01*
X15304119Y13351000D01*
X15429890Y13325983D01*
X15429890Y13325983D01*
G37*
G36*
X12889890Y13325983D02*
X13008361Y13276911D01*
X13114992Y13205662D01*
X13205662Y13114992D01*
X13276911Y13008361D01*
X13325983Y12889890D01*
X13351000Y12764119D01*
X13351000Y12635881D01*
X13325983Y12510110D01*
X13276911Y12391639D01*
X13205662Y12285008D01*
X13114992Y12194338D01*
X13008361Y12123089D01*
X12889890Y12074017D01*
X12764119Y12049000D01*
X12635881Y12049000D01*
X12510110Y12074017D01*
X12391639Y12123089D01*
X12285008Y12194338D01*
X12194338Y12285008D01*
X12123089Y12391639D01*
X12074017Y12510110D01*
X12049000Y12635881D01*
X12049000Y12764119D01*
X12074017Y12889890D01*
X12123089Y13008361D01*
X12194338Y13114992D01*
X12285008Y13205662D01*
X12391639Y13276911D01*
X12510110Y13325983D01*
X12635881Y13351000D01*
X12764119Y13351000D01*
X12889890Y13325983D01*
X12889890Y13325983D01*
G37*
G36*
X35749890Y13325983D02*
X35868361Y13276911D01*
X35974992Y13205662D01*
X36065662Y13114992D01*
X36136911Y13008361D01*
X36185983Y12889890D01*
X36211000Y12764119D01*
X36211000Y12635881D01*
X36185983Y12510110D01*
X36136911Y12391639D01*
X36065662Y12285008D01*
X35974992Y12194338D01*
X35868361Y12123089D01*
X35749890Y12074017D01*
X35624119Y12049000D01*
X35495881Y12049000D01*
X35370110Y12074017D01*
X35251639Y12123089D01*
X35145008Y12194338D01*
X35054338Y12285008D01*
X34983089Y12391639D01*
X34934017Y12510110D01*
X34909000Y12635881D01*
X34909000Y12764119D01*
X34934017Y12889890D01*
X34983089Y13008361D01*
X35054338Y13114992D01*
X35145008Y13205662D01*
X35251639Y13276911D01*
X35370110Y13325983D01*
X35495881Y13351000D01*
X35624119Y13351000D01*
X35749890Y13325983D01*
X35749890Y13325983D01*
G37*
G36*
X17969890Y13325983D02*
X18088361Y13276911D01*
X18194992Y13205662D01*
X18285662Y13114992D01*
X18356911Y13008361D01*
X18405983Y12889890D01*
X18431000Y12764119D01*
X18431000Y12635881D01*
X18405983Y12510110D01*
X18356911Y12391639D01*
X18285662Y12285008D01*
X18194992Y12194338D01*
X18088361Y12123089D01*
X17969890Y12074017D01*
X17844119Y12049000D01*
X17715881Y12049000D01*
X17590110Y12074017D01*
X17471639Y12123089D01*
X17365008Y12194338D01*
X17274338Y12285008D01*
X17203089Y12391639D01*
X17154017Y12510110D01*
X17129000Y12635881D01*
X17129000Y12764119D01*
X17154017Y12889890D01*
X17203089Y13008361D01*
X17274338Y13114992D01*
X17365008Y13205662D01*
X17471639Y13276911D01*
X17590110Y13325983D01*
X17715881Y13351000D01*
X17844119Y13351000D01*
X17969890Y13325983D01*
X17969890Y13325983D01*
G37*
G36*
X20509890Y13325983D02*
X20628361Y13276911D01*
X20734992Y13205662D01*
X20825662Y13114992D01*
X20896911Y13008361D01*
X20945983Y12889890D01*
X20971000Y12764119D01*
X20971000Y12635881D01*
X20945983Y12510110D01*
X20896911Y12391639D01*
X20825662Y12285008D01*
X20734992Y12194338D01*
X20628361Y12123089D01*
X20509890Y12074017D01*
X20384119Y12049000D01*
X20255881Y12049000D01*
X20130110Y12074017D01*
X20011639Y12123089D01*
X19905008Y12194338D01*
X19814338Y12285008D01*
X19743089Y12391639D01*
X19694017Y12510110D01*
X19669000Y12635881D01*
X19669000Y12764119D01*
X19694017Y12889890D01*
X19743089Y13008361D01*
X19814338Y13114992D01*
X19905008Y13205662D01*
X20011639Y13276911D01*
X20130110Y13325983D01*
X20255881Y13351000D01*
X20384119Y13351000D01*
X20509890Y13325983D01*
X20509890Y13325983D01*
G37*
G36*
X33257142Y18561758D02*
X33405102Y18500470D01*
X33538258Y18411498D01*
X33651498Y18298258D01*
X33740470Y18165102D01*
X33801758Y18017142D01*
X33833000Y17860075D01*
X33833000Y17699925D01*
X33801758Y17542858D01*
X33740470Y17394898D01*
X33651498Y17261742D01*
X33538258Y17148502D01*
X33405102Y17059530D01*
X33257142Y16998242D01*
X33100075Y16967000D01*
X32939925Y16967000D01*
X32782858Y16998242D01*
X32634898Y17059530D01*
X32501742Y17148502D01*
X32388502Y17261742D01*
X32299530Y17394898D01*
X32238242Y17542858D01*
X32207000Y17699925D01*
X32207000Y17860075D01*
X32238242Y18017142D01*
X32299530Y18165102D01*
X32388502Y18298258D01*
X32501742Y18411498D01*
X32634898Y18500470D01*
X32782858Y18561758D01*
X32939925Y18593000D01*
X33100075Y18593000D01*
X33257142Y18561758D01*
X33257142Y18561758D01*
G37*
G36*
X23097142Y18561758D02*
X23245102Y18500470D01*
X23378258Y18411498D01*
X23491498Y18298258D01*
X23580470Y18165102D01*
X23641758Y18017142D01*
X23673000Y17860075D01*
X23673000Y17699925D01*
X23641758Y17542858D01*
X23580470Y17394898D01*
X23491498Y17261742D01*
X23378258Y17148502D01*
X23245102Y17059530D01*
X23097142Y16998242D01*
X22940075Y16967000D01*
X22779925Y16967000D01*
X22622858Y16998242D01*
X22474898Y17059530D01*
X22341742Y17148502D01*
X22228502Y17261742D01*
X22139530Y17394898D01*
X22078242Y17542858D01*
X22047000Y17699925D01*
X22047000Y17860075D01*
X22078242Y18017142D01*
X22139530Y18165102D01*
X22228502Y18298258D01*
X22341742Y18411498D01*
X22474898Y18500470D01*
X22622858Y18561758D01*
X22779925Y18593000D01*
X22940075Y18593000D01*
X23097142Y18561758D01*
X23097142Y18561758D01*
G37*
G36*
X20557142Y18561758D02*
X20705102Y18500470D01*
X20838258Y18411498D01*
X20951498Y18298258D01*
X21040470Y18165102D01*
X21101758Y18017142D01*
X21133000Y17860075D01*
X21133000Y17699925D01*
X21101758Y17542858D01*
X21040470Y17394898D01*
X20951498Y17261742D01*
X20838258Y17148502D01*
X20705102Y17059530D01*
X20557142Y16998242D01*
X20400075Y16967000D01*
X20239925Y16967000D01*
X20082858Y16998242D01*
X19934898Y17059530D01*
X19801742Y17148502D01*
X19688502Y17261742D01*
X19599530Y17394898D01*
X19538242Y17542858D01*
X19507000Y17699925D01*
X19507000Y17860075D01*
X19538242Y18017142D01*
X19599530Y18165102D01*
X19688502Y18298258D01*
X19801742Y18411498D01*
X19934898Y18500470D01*
X20082858Y18561758D01*
X20239925Y18593000D01*
X20400075Y18593000D01*
X20557142Y18561758D01*
X20557142Y18561758D01*
G37*
G36*
X18017142Y18561758D02*
X18165102Y18500470D01*
X18298258Y18411498D01*
X18411498Y18298258D01*
X18500470Y18165102D01*
X18561758Y18017142D01*
X18593000Y17860075D01*
X18593000Y17699925D01*
X18561758Y17542858D01*
X18500470Y17394898D01*
X18411498Y17261742D01*
X18298258Y17148502D01*
X18165102Y17059530D01*
X18017142Y16998242D01*
X17860075Y16967000D01*
X17699925Y16967000D01*
X17542858Y16998242D01*
X17394898Y17059530D01*
X17261742Y17148502D01*
X17148502Y17261742D01*
X17059530Y17394898D01*
X16998242Y17542858D01*
X16967000Y17699925D01*
X16967000Y17860075D01*
X16998242Y18017142D01*
X17059530Y18165102D01*
X17148502Y18298258D01*
X17261742Y18411498D01*
X17394898Y18500470D01*
X17542858Y18561758D01*
X17699925Y18593000D01*
X17860075Y18593000D01*
X18017142Y18561758D01*
X18017142Y18561758D01*
G37*
G36*
X15477142Y18561758D02*
X15625102Y18500470D01*
X15758258Y18411498D01*
X15871498Y18298258D01*
X15960470Y18165102D01*
X16021758Y18017142D01*
X16053000Y17860075D01*
X16053000Y17699925D01*
X16021758Y17542858D01*
X15960470Y17394898D01*
X15871498Y17261742D01*
X15758258Y17148502D01*
X15625102Y17059530D01*
X15477142Y16998242D01*
X15320075Y16967000D01*
X15159925Y16967000D01*
X15002858Y16998242D01*
X14854898Y17059530D01*
X14721742Y17148502D01*
X14608502Y17261742D01*
X14519530Y17394898D01*
X14458242Y17542858D01*
X14427000Y17699925D01*
X14427000Y17860075D01*
X14458242Y18017142D01*
X14519530Y18165102D01*
X14608502Y18298258D01*
X14721742Y18411498D01*
X14854898Y18500470D01*
X15002858Y18561758D01*
X15159925Y18593000D01*
X15320075Y18593000D01*
X15477142Y18561758D01*
X15477142Y18561758D01*
G37*
G36*
X12937142Y18561758D02*
X13085102Y18500470D01*
X13218258Y18411498D01*
X13331498Y18298258D01*
X13420470Y18165102D01*
X13481758Y18017142D01*
X13513000Y17860075D01*
X13513000Y17699925D01*
X13481758Y17542858D01*
X13420470Y17394898D01*
X13331498Y17261742D01*
X13218258Y17148502D01*
X13085102Y17059530D01*
X12937142Y16998242D01*
X12780075Y16967000D01*
X12619925Y16967000D01*
X12462858Y16998242D01*
X12314898Y17059530D01*
X12181742Y17148502D01*
X12068502Y17261742D01*
X11979530Y17394898D01*
X11918242Y17542858D01*
X11887000Y17699925D01*
X11887000Y17860075D01*
X11918242Y18017142D01*
X11979530Y18165102D01*
X12068502Y18298258D01*
X12181742Y18411498D01*
X12314898Y18500470D01*
X12462858Y18561758D01*
X12619925Y18593000D01*
X12780075Y18593000D01*
X12937142Y18561758D01*
X12937142Y18561758D01*
G37*
G36*
X10397142Y18561758D02*
X10545102Y18500470D01*
X10678258Y18411498D01*
X10791498Y18298258D01*
X10880470Y18165102D01*
X10941758Y18017142D01*
X10973000Y17860075D01*
X10973000Y17699925D01*
X10941758Y17542858D01*
X10880470Y17394898D01*
X10791498Y17261742D01*
X10678258Y17148502D01*
X10545102Y17059530D01*
X10397142Y16998242D01*
X10240075Y16967000D01*
X10079925Y16967000D01*
X9922858Y16998242D01*
X9774898Y17059530D01*
X9641742Y17148502D01*
X9528502Y17261742D01*
X9439530Y17394898D01*
X9378242Y17542858D01*
X9347000Y17699925D01*
X9347000Y17860075D01*
X9378242Y18017142D01*
X9439530Y18165102D01*
X9528502Y18298258D01*
X9641742Y18411498D01*
X9774898Y18500470D01*
X9922858Y18561758D01*
X10079925Y18593000D01*
X10240075Y18593000D01*
X10397142Y18561758D01*
X10397142Y18561758D01*
G37*
G36*
X43417142Y18561758D02*
X43565102Y18500470D01*
X43698258Y18411498D01*
X43811498Y18298258D01*
X43900470Y18165102D01*
X43961758Y18017142D01*
X43993000Y17860075D01*
X43993000Y17699925D01*
X43961758Y17542858D01*
X43900470Y17394898D01*
X43811498Y17261742D01*
X43698258Y17148502D01*
X43565102Y17059530D01*
X43417142Y16998242D01*
X43260075Y16967000D01*
X43099925Y16967000D01*
X42942858Y16998242D01*
X42794898Y17059530D01*
X42661742Y17148502D01*
X42548502Y17261742D01*
X42459530Y17394898D01*
X42398242Y17542858D01*
X42367000Y17699925D01*
X42367000Y17860075D01*
X42398242Y18017142D01*
X42459530Y18165102D01*
X42548502Y18298258D01*
X42661742Y18411498D01*
X42794898Y18500470D01*
X42942858Y18561758D01*
X43099925Y18593000D01*
X43260075Y18593000D01*
X43417142Y18561758D01*
X43417142Y18561758D01*
G37*
G36*
X40877142Y18561758D02*
X41025102Y18500470D01*
X41158258Y18411498D01*
X41271498Y18298258D01*
X41360470Y18165102D01*
X41421758Y18017142D01*
X41453000Y17860075D01*
X41453000Y17699925D01*
X41421758Y17542858D01*
X41360470Y17394898D01*
X41271498Y17261742D01*
X41158258Y17148502D01*
X41025102Y17059530D01*
X40877142Y16998242D01*
X40720075Y16967000D01*
X40559925Y16967000D01*
X40402858Y16998242D01*
X40254898Y17059530D01*
X40121742Y17148502D01*
X40008502Y17261742D01*
X39919530Y17394898D01*
X39858242Y17542858D01*
X39827000Y17699925D01*
X39827000Y17860075D01*
X39858242Y18017142D01*
X39919530Y18165102D01*
X40008502Y18298258D01*
X40121742Y18411498D01*
X40254898Y18500470D01*
X40402858Y18561758D01*
X40559925Y18593000D01*
X40720075Y18593000D01*
X40877142Y18561758D01*
X40877142Y18561758D01*
G37*
G36*
X38337142Y18561758D02*
X38485102Y18500470D01*
X38618258Y18411498D01*
X38731498Y18298258D01*
X38820470Y18165102D01*
X38881758Y18017142D01*
X38913000Y17860075D01*
X38913000Y17699925D01*
X38881758Y17542858D01*
X38820470Y17394898D01*
X38731498Y17261742D01*
X38618258Y17148502D01*
X38485102Y17059530D01*
X38337142Y16998242D01*
X38180075Y16967000D01*
X38019925Y16967000D01*
X37862858Y16998242D01*
X37714898Y17059530D01*
X37581742Y17148502D01*
X37468502Y17261742D01*
X37379530Y17394898D01*
X37318242Y17542858D01*
X37287000Y17699925D01*
X37287000Y17860075D01*
X37318242Y18017142D01*
X37379530Y18165102D01*
X37468502Y18298258D01*
X37581742Y18411498D01*
X37714898Y18500470D01*
X37862858Y18561758D01*
X38019925Y18593000D01*
X38180075Y18593000D01*
X38337142Y18561758D01*
X38337142Y18561758D01*
G37*
G36*
X25637142Y18561758D02*
X25785102Y18500470D01*
X25918258Y18411498D01*
X26031498Y18298258D01*
X26120470Y18165102D01*
X26181758Y18017142D01*
X26213000Y17860075D01*
X26213000Y17699925D01*
X26181758Y17542858D01*
X26120470Y17394898D01*
X26031498Y17261742D01*
X25918258Y17148502D01*
X25785102Y17059530D01*
X25637142Y16998242D01*
X25480075Y16967000D01*
X25319925Y16967000D01*
X25162858Y16998242D01*
X25014898Y17059530D01*
X24881742Y17148502D01*
X24768502Y17261742D01*
X24679530Y17394898D01*
X24618242Y17542858D01*
X24587000Y17699925D01*
X24587000Y17860075D01*
X24618242Y18017142D01*
X24679530Y18165102D01*
X24768502Y18298258D01*
X24881742Y18411498D01*
X25014898Y18500470D01*
X25162858Y18561758D01*
X25319925Y18593000D01*
X25480075Y18593000D01*
X25637142Y18561758D01*
X25637142Y18561758D01*
G37*
G36*
X35797142Y18561758D02*
X35945102Y18500470D01*
X36078258Y18411498D01*
X36191498Y18298258D01*
X36280470Y18165102D01*
X36341758Y18017142D01*
X36373000Y17860075D01*
X36373000Y17699925D01*
X36341758Y17542858D01*
X36280470Y17394898D01*
X36191498Y17261742D01*
X36078258Y17148502D01*
X35945102Y17059530D01*
X35797142Y16998242D01*
X35640075Y16967000D01*
X35479925Y16967000D01*
X35322858Y16998242D01*
X35174898Y17059530D01*
X35041742Y17148502D01*
X34928502Y17261742D01*
X34839530Y17394898D01*
X34778242Y17542858D01*
X34747000Y17699925D01*
X34747000Y17860075D01*
X34778242Y18017142D01*
X34839530Y18165102D01*
X34928502Y18298258D01*
X35041742Y18411498D01*
X35174898Y18500470D01*
X35322858Y18561758D01*
X35479925Y18593000D01*
X35640075Y18593000D01*
X35797142Y18561758D01*
X35797142Y18561758D01*
G37*
M02*
