M48
;DRILL file {KiCad (5.0.2)-1} date 3/16/2019 10:11:34 AM
;FORMAT={-:-/ absolute / inch / decimal}
FMAT,2
INCH,TZ
T1C0.0236
T2C0.0354
%
G90
G05
T1
X0.5Y0.5
X0.5Y0.1
X0.6Y0.5
X0.6Y0.1
X0.7Y0.5
X0.7Y0.1
X0.8Y0.5
X0.8Y0.1
X0.9Y0.5
X0.9Y0.1
X1.Y0.5
X1.Y0.1
X1.1Y0.5
X1.1Y0.1
X1.2Y0.5
X1.2Y0.1
X1.3Y0.5
X1.3Y0.1
X1.4Y0.5
X1.4Y0.1
X1.5Y0.5
X1.5Y0.1
T2
X1.3Y0.7
X1.4Y0.7
X1.5Y0.7
X1.6Y0.7
X1.7Y0.7
X0.4Y0.7
X0.5Y0.7
X0.6Y0.7
X0.7Y0.7
X0.8Y0.7
X0.9Y0.7
X1.Y0.7
T0
M30
