G04 #@! TF.GenerationSoftware,KiCad,Pcbnew,(5.1.4)-1*
G04 #@! TF.CreationDate,2019-10-15T19:11:32-05:00*
G04 #@! TF.ProjectId,CCDBoard_Hardware,43434442-6f61-4726-945f-486172647761,rev?*
G04 #@! TF.SameCoordinates,Original*
G04 #@! TF.FileFunction,Paste,Top*
G04 #@! TF.FilePolarity,Positive*
%FSLAX46Y46*%
G04 Gerber Fmt 4.6, Leading zero omitted, Abs format (unit mm)*
G04 Created by KiCad (PCBNEW (5.1.4)-1) date 2019-10-15 19:11:32*
%MOMM*%
%LPD*%
G04 APERTURE LIST*
%ADD10C,0.100000*%
%ADD11C,0.950000*%
%ADD12C,1.150000*%
%ADD13R,0.650000X1.560000*%
%ADD14C,0.600000*%
G04 APERTURE END LIST*
D10*
G36*
X123980779Y-111794144D02*
G01*
X124003834Y-111797563D01*
X124026443Y-111803227D01*
X124048387Y-111811079D01*
X124069457Y-111821044D01*
X124089448Y-111833026D01*
X124108168Y-111846910D01*
X124125438Y-111862562D01*
X124141090Y-111879832D01*
X124154974Y-111898552D01*
X124166956Y-111918543D01*
X124176921Y-111939613D01*
X124184773Y-111961557D01*
X124190437Y-111984166D01*
X124193856Y-112007221D01*
X124195000Y-112030500D01*
X124195000Y-112505500D01*
X124193856Y-112528779D01*
X124190437Y-112551834D01*
X124184773Y-112574443D01*
X124176921Y-112596387D01*
X124166956Y-112617457D01*
X124154974Y-112637448D01*
X124141090Y-112656168D01*
X124125438Y-112673438D01*
X124108168Y-112689090D01*
X124089448Y-112702974D01*
X124069457Y-112714956D01*
X124048387Y-112724921D01*
X124026443Y-112732773D01*
X124003834Y-112738437D01*
X123980779Y-112741856D01*
X123957500Y-112743000D01*
X123382500Y-112743000D01*
X123359221Y-112741856D01*
X123336166Y-112738437D01*
X123313557Y-112732773D01*
X123291613Y-112724921D01*
X123270543Y-112714956D01*
X123250552Y-112702974D01*
X123231832Y-112689090D01*
X123214562Y-112673438D01*
X123198910Y-112656168D01*
X123185026Y-112637448D01*
X123173044Y-112617457D01*
X123163079Y-112596387D01*
X123155227Y-112574443D01*
X123149563Y-112551834D01*
X123146144Y-112528779D01*
X123145000Y-112505500D01*
X123145000Y-112030500D01*
X123146144Y-112007221D01*
X123149563Y-111984166D01*
X123155227Y-111961557D01*
X123163079Y-111939613D01*
X123173044Y-111918543D01*
X123185026Y-111898552D01*
X123198910Y-111879832D01*
X123214562Y-111862562D01*
X123231832Y-111846910D01*
X123250552Y-111833026D01*
X123270543Y-111821044D01*
X123291613Y-111811079D01*
X123313557Y-111803227D01*
X123336166Y-111797563D01*
X123359221Y-111794144D01*
X123382500Y-111793000D01*
X123957500Y-111793000D01*
X123980779Y-111794144D01*
X123980779Y-111794144D01*
G37*
D11*
X123670000Y-112268000D03*
D10*
G36*
X122230779Y-111794144D02*
G01*
X122253834Y-111797563D01*
X122276443Y-111803227D01*
X122298387Y-111811079D01*
X122319457Y-111821044D01*
X122339448Y-111833026D01*
X122358168Y-111846910D01*
X122375438Y-111862562D01*
X122391090Y-111879832D01*
X122404974Y-111898552D01*
X122416956Y-111918543D01*
X122426921Y-111939613D01*
X122434773Y-111961557D01*
X122440437Y-111984166D01*
X122443856Y-112007221D01*
X122445000Y-112030500D01*
X122445000Y-112505500D01*
X122443856Y-112528779D01*
X122440437Y-112551834D01*
X122434773Y-112574443D01*
X122426921Y-112596387D01*
X122416956Y-112617457D01*
X122404974Y-112637448D01*
X122391090Y-112656168D01*
X122375438Y-112673438D01*
X122358168Y-112689090D01*
X122339448Y-112702974D01*
X122319457Y-112714956D01*
X122298387Y-112724921D01*
X122276443Y-112732773D01*
X122253834Y-112738437D01*
X122230779Y-112741856D01*
X122207500Y-112743000D01*
X121632500Y-112743000D01*
X121609221Y-112741856D01*
X121586166Y-112738437D01*
X121563557Y-112732773D01*
X121541613Y-112724921D01*
X121520543Y-112714956D01*
X121500552Y-112702974D01*
X121481832Y-112689090D01*
X121464562Y-112673438D01*
X121448910Y-112656168D01*
X121435026Y-112637448D01*
X121423044Y-112617457D01*
X121413079Y-112596387D01*
X121405227Y-112574443D01*
X121399563Y-112551834D01*
X121396144Y-112528779D01*
X121395000Y-112505500D01*
X121395000Y-112030500D01*
X121396144Y-112007221D01*
X121399563Y-111984166D01*
X121405227Y-111961557D01*
X121413079Y-111939613D01*
X121423044Y-111918543D01*
X121435026Y-111898552D01*
X121448910Y-111879832D01*
X121464562Y-111862562D01*
X121481832Y-111846910D01*
X121500552Y-111833026D01*
X121520543Y-111821044D01*
X121541613Y-111811079D01*
X121563557Y-111803227D01*
X121586166Y-111797563D01*
X121609221Y-111794144D01*
X121632500Y-111793000D01*
X122207500Y-111793000D01*
X122230779Y-111794144D01*
X122230779Y-111794144D01*
G37*
D11*
X121920000Y-112268000D03*
D10*
G36*
X153636505Y-109644204D02*
G01*
X153660773Y-109647804D01*
X153684572Y-109653765D01*
X153707671Y-109662030D01*
X153729850Y-109672520D01*
X153750893Y-109685132D01*
X153770599Y-109699747D01*
X153788777Y-109716223D01*
X153805253Y-109734401D01*
X153819868Y-109754107D01*
X153832480Y-109775150D01*
X153842970Y-109797329D01*
X153851235Y-109820428D01*
X153857196Y-109844227D01*
X153860796Y-109868495D01*
X153862000Y-109892999D01*
X153862000Y-110543001D01*
X153860796Y-110567505D01*
X153857196Y-110591773D01*
X153851235Y-110615572D01*
X153842970Y-110638671D01*
X153832480Y-110660850D01*
X153819868Y-110681893D01*
X153805253Y-110701599D01*
X153788777Y-110719777D01*
X153770599Y-110736253D01*
X153750893Y-110750868D01*
X153729850Y-110763480D01*
X153707671Y-110773970D01*
X153684572Y-110782235D01*
X153660773Y-110788196D01*
X153636505Y-110791796D01*
X153612001Y-110793000D01*
X152711999Y-110793000D01*
X152687495Y-110791796D01*
X152663227Y-110788196D01*
X152639428Y-110782235D01*
X152616329Y-110773970D01*
X152594150Y-110763480D01*
X152573107Y-110750868D01*
X152553401Y-110736253D01*
X152535223Y-110719777D01*
X152518747Y-110701599D01*
X152504132Y-110681893D01*
X152491520Y-110660850D01*
X152481030Y-110638671D01*
X152472765Y-110615572D01*
X152466804Y-110591773D01*
X152463204Y-110567505D01*
X152462000Y-110543001D01*
X152462000Y-109892999D01*
X152463204Y-109868495D01*
X152466804Y-109844227D01*
X152472765Y-109820428D01*
X152481030Y-109797329D01*
X152491520Y-109775150D01*
X152504132Y-109754107D01*
X152518747Y-109734401D01*
X152535223Y-109716223D01*
X152553401Y-109699747D01*
X152573107Y-109685132D01*
X152594150Y-109672520D01*
X152616329Y-109662030D01*
X152639428Y-109653765D01*
X152663227Y-109647804D01*
X152687495Y-109644204D01*
X152711999Y-109643000D01*
X153612001Y-109643000D01*
X153636505Y-109644204D01*
X153636505Y-109644204D01*
G37*
D12*
X153162000Y-110218000D03*
D10*
G36*
X153636505Y-111694204D02*
G01*
X153660773Y-111697804D01*
X153684572Y-111703765D01*
X153707671Y-111712030D01*
X153729850Y-111722520D01*
X153750893Y-111735132D01*
X153770599Y-111749747D01*
X153788777Y-111766223D01*
X153805253Y-111784401D01*
X153819868Y-111804107D01*
X153832480Y-111825150D01*
X153842970Y-111847329D01*
X153851235Y-111870428D01*
X153857196Y-111894227D01*
X153860796Y-111918495D01*
X153862000Y-111942999D01*
X153862000Y-112593001D01*
X153860796Y-112617505D01*
X153857196Y-112641773D01*
X153851235Y-112665572D01*
X153842970Y-112688671D01*
X153832480Y-112710850D01*
X153819868Y-112731893D01*
X153805253Y-112751599D01*
X153788777Y-112769777D01*
X153770599Y-112786253D01*
X153750893Y-112800868D01*
X153729850Y-112813480D01*
X153707671Y-112823970D01*
X153684572Y-112832235D01*
X153660773Y-112838196D01*
X153636505Y-112841796D01*
X153612001Y-112843000D01*
X152711999Y-112843000D01*
X152687495Y-112841796D01*
X152663227Y-112838196D01*
X152639428Y-112832235D01*
X152616329Y-112823970D01*
X152594150Y-112813480D01*
X152573107Y-112800868D01*
X152553401Y-112786253D01*
X152535223Y-112769777D01*
X152518747Y-112751599D01*
X152504132Y-112731893D01*
X152491520Y-112710850D01*
X152481030Y-112688671D01*
X152472765Y-112665572D01*
X152466804Y-112641773D01*
X152463204Y-112617505D01*
X152462000Y-112593001D01*
X152462000Y-111942999D01*
X152463204Y-111918495D01*
X152466804Y-111894227D01*
X152472765Y-111870428D01*
X152481030Y-111847329D01*
X152491520Y-111825150D01*
X152504132Y-111804107D01*
X152518747Y-111784401D01*
X152535223Y-111766223D01*
X152553401Y-111749747D01*
X152573107Y-111735132D01*
X152594150Y-111722520D01*
X152616329Y-111712030D01*
X152639428Y-111703765D01*
X152663227Y-111697804D01*
X152687495Y-111694204D01*
X152711999Y-111693000D01*
X153612001Y-111693000D01*
X153636505Y-111694204D01*
X153636505Y-111694204D01*
G37*
D12*
X153162000Y-112268000D03*
D10*
G36*
X138944779Y-94218144D02*
G01*
X138967834Y-94221563D01*
X138990443Y-94227227D01*
X139012387Y-94235079D01*
X139033457Y-94245044D01*
X139053448Y-94257026D01*
X139072168Y-94270910D01*
X139089438Y-94286562D01*
X139105090Y-94303832D01*
X139118974Y-94322552D01*
X139130956Y-94342543D01*
X139140921Y-94363613D01*
X139148773Y-94385557D01*
X139154437Y-94408166D01*
X139157856Y-94431221D01*
X139159000Y-94454500D01*
X139159000Y-95029500D01*
X139157856Y-95052779D01*
X139154437Y-95075834D01*
X139148773Y-95098443D01*
X139140921Y-95120387D01*
X139130956Y-95141457D01*
X139118974Y-95161448D01*
X139105090Y-95180168D01*
X139089438Y-95197438D01*
X139072168Y-95213090D01*
X139053448Y-95226974D01*
X139033457Y-95238956D01*
X139012387Y-95248921D01*
X138990443Y-95256773D01*
X138967834Y-95262437D01*
X138944779Y-95265856D01*
X138921500Y-95267000D01*
X138446500Y-95267000D01*
X138423221Y-95265856D01*
X138400166Y-95262437D01*
X138377557Y-95256773D01*
X138355613Y-95248921D01*
X138334543Y-95238956D01*
X138314552Y-95226974D01*
X138295832Y-95213090D01*
X138278562Y-95197438D01*
X138262910Y-95180168D01*
X138249026Y-95161448D01*
X138237044Y-95141457D01*
X138227079Y-95120387D01*
X138219227Y-95098443D01*
X138213563Y-95075834D01*
X138210144Y-95052779D01*
X138209000Y-95029500D01*
X138209000Y-94454500D01*
X138210144Y-94431221D01*
X138213563Y-94408166D01*
X138219227Y-94385557D01*
X138227079Y-94363613D01*
X138237044Y-94342543D01*
X138249026Y-94322552D01*
X138262910Y-94303832D01*
X138278562Y-94286562D01*
X138295832Y-94270910D01*
X138314552Y-94257026D01*
X138334543Y-94245044D01*
X138355613Y-94235079D01*
X138377557Y-94227227D01*
X138400166Y-94221563D01*
X138423221Y-94218144D01*
X138446500Y-94217000D01*
X138921500Y-94217000D01*
X138944779Y-94218144D01*
X138944779Y-94218144D01*
G37*
D11*
X138684000Y-94742000D03*
D10*
G36*
X138944779Y-92468144D02*
G01*
X138967834Y-92471563D01*
X138990443Y-92477227D01*
X139012387Y-92485079D01*
X139033457Y-92495044D01*
X139053448Y-92507026D01*
X139072168Y-92520910D01*
X139089438Y-92536562D01*
X139105090Y-92553832D01*
X139118974Y-92572552D01*
X139130956Y-92592543D01*
X139140921Y-92613613D01*
X139148773Y-92635557D01*
X139154437Y-92658166D01*
X139157856Y-92681221D01*
X139159000Y-92704500D01*
X139159000Y-93279500D01*
X139157856Y-93302779D01*
X139154437Y-93325834D01*
X139148773Y-93348443D01*
X139140921Y-93370387D01*
X139130956Y-93391457D01*
X139118974Y-93411448D01*
X139105090Y-93430168D01*
X139089438Y-93447438D01*
X139072168Y-93463090D01*
X139053448Y-93476974D01*
X139033457Y-93488956D01*
X139012387Y-93498921D01*
X138990443Y-93506773D01*
X138967834Y-93512437D01*
X138944779Y-93515856D01*
X138921500Y-93517000D01*
X138446500Y-93517000D01*
X138423221Y-93515856D01*
X138400166Y-93512437D01*
X138377557Y-93506773D01*
X138355613Y-93498921D01*
X138334543Y-93488956D01*
X138314552Y-93476974D01*
X138295832Y-93463090D01*
X138278562Y-93447438D01*
X138262910Y-93430168D01*
X138249026Y-93411448D01*
X138237044Y-93391457D01*
X138227079Y-93370387D01*
X138219227Y-93348443D01*
X138213563Y-93325834D01*
X138210144Y-93302779D01*
X138209000Y-93279500D01*
X138209000Y-92704500D01*
X138210144Y-92681221D01*
X138213563Y-92658166D01*
X138219227Y-92635557D01*
X138227079Y-92613613D01*
X138237044Y-92592543D01*
X138249026Y-92572552D01*
X138262910Y-92553832D01*
X138278562Y-92536562D01*
X138295832Y-92520910D01*
X138314552Y-92507026D01*
X138334543Y-92495044D01*
X138355613Y-92485079D01*
X138377557Y-92477227D01*
X138400166Y-92471563D01*
X138423221Y-92468144D01*
X138446500Y-92467000D01*
X138921500Y-92467000D01*
X138944779Y-92468144D01*
X138944779Y-92468144D01*
G37*
D11*
X138684000Y-92992000D03*
D10*
G36*
X119346505Y-109644204D02*
G01*
X119370773Y-109647804D01*
X119394572Y-109653765D01*
X119417671Y-109662030D01*
X119439850Y-109672520D01*
X119460893Y-109685132D01*
X119480599Y-109699747D01*
X119498777Y-109716223D01*
X119515253Y-109734401D01*
X119529868Y-109754107D01*
X119542480Y-109775150D01*
X119552970Y-109797329D01*
X119561235Y-109820428D01*
X119567196Y-109844227D01*
X119570796Y-109868495D01*
X119572000Y-109892999D01*
X119572000Y-110543001D01*
X119570796Y-110567505D01*
X119567196Y-110591773D01*
X119561235Y-110615572D01*
X119552970Y-110638671D01*
X119542480Y-110660850D01*
X119529868Y-110681893D01*
X119515253Y-110701599D01*
X119498777Y-110719777D01*
X119480599Y-110736253D01*
X119460893Y-110750868D01*
X119439850Y-110763480D01*
X119417671Y-110773970D01*
X119394572Y-110782235D01*
X119370773Y-110788196D01*
X119346505Y-110791796D01*
X119322001Y-110793000D01*
X118421999Y-110793000D01*
X118397495Y-110791796D01*
X118373227Y-110788196D01*
X118349428Y-110782235D01*
X118326329Y-110773970D01*
X118304150Y-110763480D01*
X118283107Y-110750868D01*
X118263401Y-110736253D01*
X118245223Y-110719777D01*
X118228747Y-110701599D01*
X118214132Y-110681893D01*
X118201520Y-110660850D01*
X118191030Y-110638671D01*
X118182765Y-110615572D01*
X118176804Y-110591773D01*
X118173204Y-110567505D01*
X118172000Y-110543001D01*
X118172000Y-109892999D01*
X118173204Y-109868495D01*
X118176804Y-109844227D01*
X118182765Y-109820428D01*
X118191030Y-109797329D01*
X118201520Y-109775150D01*
X118214132Y-109754107D01*
X118228747Y-109734401D01*
X118245223Y-109716223D01*
X118263401Y-109699747D01*
X118283107Y-109685132D01*
X118304150Y-109672520D01*
X118326329Y-109662030D01*
X118349428Y-109653765D01*
X118373227Y-109647804D01*
X118397495Y-109644204D01*
X118421999Y-109643000D01*
X119322001Y-109643000D01*
X119346505Y-109644204D01*
X119346505Y-109644204D01*
G37*
D12*
X118872000Y-110218000D03*
D10*
G36*
X119346505Y-111694204D02*
G01*
X119370773Y-111697804D01*
X119394572Y-111703765D01*
X119417671Y-111712030D01*
X119439850Y-111722520D01*
X119460893Y-111735132D01*
X119480599Y-111749747D01*
X119498777Y-111766223D01*
X119515253Y-111784401D01*
X119529868Y-111804107D01*
X119542480Y-111825150D01*
X119552970Y-111847329D01*
X119561235Y-111870428D01*
X119567196Y-111894227D01*
X119570796Y-111918495D01*
X119572000Y-111942999D01*
X119572000Y-112593001D01*
X119570796Y-112617505D01*
X119567196Y-112641773D01*
X119561235Y-112665572D01*
X119552970Y-112688671D01*
X119542480Y-112710850D01*
X119529868Y-112731893D01*
X119515253Y-112751599D01*
X119498777Y-112769777D01*
X119480599Y-112786253D01*
X119460893Y-112800868D01*
X119439850Y-112813480D01*
X119417671Y-112823970D01*
X119394572Y-112832235D01*
X119370773Y-112838196D01*
X119346505Y-112841796D01*
X119322001Y-112843000D01*
X118421999Y-112843000D01*
X118397495Y-112841796D01*
X118373227Y-112838196D01*
X118349428Y-112832235D01*
X118326329Y-112823970D01*
X118304150Y-112813480D01*
X118283107Y-112800868D01*
X118263401Y-112786253D01*
X118245223Y-112769777D01*
X118228747Y-112751599D01*
X118214132Y-112731893D01*
X118201520Y-112710850D01*
X118191030Y-112688671D01*
X118182765Y-112665572D01*
X118176804Y-112641773D01*
X118173204Y-112617505D01*
X118172000Y-112593001D01*
X118172000Y-111942999D01*
X118173204Y-111918495D01*
X118176804Y-111894227D01*
X118182765Y-111870428D01*
X118191030Y-111847329D01*
X118201520Y-111825150D01*
X118214132Y-111804107D01*
X118228747Y-111784401D01*
X118245223Y-111766223D01*
X118263401Y-111749747D01*
X118283107Y-111735132D01*
X118304150Y-111722520D01*
X118326329Y-111712030D01*
X118349428Y-111703765D01*
X118373227Y-111697804D01*
X118397495Y-111694204D01*
X118421999Y-111693000D01*
X119322001Y-111693000D01*
X119346505Y-111694204D01*
X119346505Y-111694204D01*
G37*
D12*
X118872000Y-112268000D03*
D10*
G36*
X116084779Y-96278144D02*
G01*
X116107834Y-96281563D01*
X116130443Y-96287227D01*
X116152387Y-96295079D01*
X116173457Y-96305044D01*
X116193448Y-96317026D01*
X116212168Y-96330910D01*
X116229438Y-96346562D01*
X116245090Y-96363832D01*
X116258974Y-96382552D01*
X116270956Y-96402543D01*
X116280921Y-96423613D01*
X116288773Y-96445557D01*
X116294437Y-96468166D01*
X116297856Y-96491221D01*
X116299000Y-96514500D01*
X116299000Y-97089500D01*
X116297856Y-97112779D01*
X116294437Y-97135834D01*
X116288773Y-97158443D01*
X116280921Y-97180387D01*
X116270956Y-97201457D01*
X116258974Y-97221448D01*
X116245090Y-97240168D01*
X116229438Y-97257438D01*
X116212168Y-97273090D01*
X116193448Y-97286974D01*
X116173457Y-97298956D01*
X116152387Y-97308921D01*
X116130443Y-97316773D01*
X116107834Y-97322437D01*
X116084779Y-97325856D01*
X116061500Y-97327000D01*
X115586500Y-97327000D01*
X115563221Y-97325856D01*
X115540166Y-97322437D01*
X115517557Y-97316773D01*
X115495613Y-97308921D01*
X115474543Y-97298956D01*
X115454552Y-97286974D01*
X115435832Y-97273090D01*
X115418562Y-97257438D01*
X115402910Y-97240168D01*
X115389026Y-97221448D01*
X115377044Y-97201457D01*
X115367079Y-97180387D01*
X115359227Y-97158443D01*
X115353563Y-97135834D01*
X115350144Y-97112779D01*
X115349000Y-97089500D01*
X115349000Y-96514500D01*
X115350144Y-96491221D01*
X115353563Y-96468166D01*
X115359227Y-96445557D01*
X115367079Y-96423613D01*
X115377044Y-96402543D01*
X115389026Y-96382552D01*
X115402910Y-96363832D01*
X115418562Y-96346562D01*
X115435832Y-96330910D01*
X115454552Y-96317026D01*
X115474543Y-96305044D01*
X115495613Y-96295079D01*
X115517557Y-96287227D01*
X115540166Y-96281563D01*
X115563221Y-96278144D01*
X115586500Y-96277000D01*
X116061500Y-96277000D01*
X116084779Y-96278144D01*
X116084779Y-96278144D01*
G37*
D11*
X115824000Y-96802000D03*
D10*
G36*
X116084779Y-98028144D02*
G01*
X116107834Y-98031563D01*
X116130443Y-98037227D01*
X116152387Y-98045079D01*
X116173457Y-98055044D01*
X116193448Y-98067026D01*
X116212168Y-98080910D01*
X116229438Y-98096562D01*
X116245090Y-98113832D01*
X116258974Y-98132552D01*
X116270956Y-98152543D01*
X116280921Y-98173613D01*
X116288773Y-98195557D01*
X116294437Y-98218166D01*
X116297856Y-98241221D01*
X116299000Y-98264500D01*
X116299000Y-98839500D01*
X116297856Y-98862779D01*
X116294437Y-98885834D01*
X116288773Y-98908443D01*
X116280921Y-98930387D01*
X116270956Y-98951457D01*
X116258974Y-98971448D01*
X116245090Y-98990168D01*
X116229438Y-99007438D01*
X116212168Y-99023090D01*
X116193448Y-99036974D01*
X116173457Y-99048956D01*
X116152387Y-99058921D01*
X116130443Y-99066773D01*
X116107834Y-99072437D01*
X116084779Y-99075856D01*
X116061500Y-99077000D01*
X115586500Y-99077000D01*
X115563221Y-99075856D01*
X115540166Y-99072437D01*
X115517557Y-99066773D01*
X115495613Y-99058921D01*
X115474543Y-99048956D01*
X115454552Y-99036974D01*
X115435832Y-99023090D01*
X115418562Y-99007438D01*
X115402910Y-98990168D01*
X115389026Y-98971448D01*
X115377044Y-98951457D01*
X115367079Y-98930387D01*
X115359227Y-98908443D01*
X115353563Y-98885834D01*
X115350144Y-98862779D01*
X115349000Y-98839500D01*
X115349000Y-98264500D01*
X115350144Y-98241221D01*
X115353563Y-98218166D01*
X115359227Y-98195557D01*
X115367079Y-98173613D01*
X115377044Y-98152543D01*
X115389026Y-98132552D01*
X115402910Y-98113832D01*
X115418562Y-98096562D01*
X115435832Y-98080910D01*
X115454552Y-98067026D01*
X115474543Y-98055044D01*
X115495613Y-98045079D01*
X115517557Y-98037227D01*
X115540166Y-98031563D01*
X115563221Y-98028144D01*
X115586500Y-98027000D01*
X116061500Y-98027000D01*
X116084779Y-98028144D01*
X116084779Y-98028144D01*
G37*
D11*
X115824000Y-98552000D03*
D10*
G36*
X117100779Y-85836144D02*
G01*
X117123834Y-85839563D01*
X117146443Y-85845227D01*
X117168387Y-85853079D01*
X117189457Y-85863044D01*
X117209448Y-85875026D01*
X117228168Y-85888910D01*
X117245438Y-85904562D01*
X117261090Y-85921832D01*
X117274974Y-85940552D01*
X117286956Y-85960543D01*
X117296921Y-85981613D01*
X117304773Y-86003557D01*
X117310437Y-86026166D01*
X117313856Y-86049221D01*
X117315000Y-86072500D01*
X117315000Y-86647500D01*
X117313856Y-86670779D01*
X117310437Y-86693834D01*
X117304773Y-86716443D01*
X117296921Y-86738387D01*
X117286956Y-86759457D01*
X117274974Y-86779448D01*
X117261090Y-86798168D01*
X117245438Y-86815438D01*
X117228168Y-86831090D01*
X117209448Y-86844974D01*
X117189457Y-86856956D01*
X117168387Y-86866921D01*
X117146443Y-86874773D01*
X117123834Y-86880437D01*
X117100779Y-86883856D01*
X117077500Y-86885000D01*
X116602500Y-86885000D01*
X116579221Y-86883856D01*
X116556166Y-86880437D01*
X116533557Y-86874773D01*
X116511613Y-86866921D01*
X116490543Y-86856956D01*
X116470552Y-86844974D01*
X116451832Y-86831090D01*
X116434562Y-86815438D01*
X116418910Y-86798168D01*
X116405026Y-86779448D01*
X116393044Y-86759457D01*
X116383079Y-86738387D01*
X116375227Y-86716443D01*
X116369563Y-86693834D01*
X116366144Y-86670779D01*
X116365000Y-86647500D01*
X116365000Y-86072500D01*
X116366144Y-86049221D01*
X116369563Y-86026166D01*
X116375227Y-86003557D01*
X116383079Y-85981613D01*
X116393044Y-85960543D01*
X116405026Y-85940552D01*
X116418910Y-85921832D01*
X116434562Y-85904562D01*
X116451832Y-85888910D01*
X116470552Y-85875026D01*
X116490543Y-85863044D01*
X116511613Y-85853079D01*
X116533557Y-85845227D01*
X116556166Y-85839563D01*
X116579221Y-85836144D01*
X116602500Y-85835000D01*
X117077500Y-85835000D01*
X117100779Y-85836144D01*
X117100779Y-85836144D01*
G37*
D11*
X116840000Y-86360000D03*
D10*
G36*
X117100779Y-84086144D02*
G01*
X117123834Y-84089563D01*
X117146443Y-84095227D01*
X117168387Y-84103079D01*
X117189457Y-84113044D01*
X117209448Y-84125026D01*
X117228168Y-84138910D01*
X117245438Y-84154562D01*
X117261090Y-84171832D01*
X117274974Y-84190552D01*
X117286956Y-84210543D01*
X117296921Y-84231613D01*
X117304773Y-84253557D01*
X117310437Y-84276166D01*
X117313856Y-84299221D01*
X117315000Y-84322500D01*
X117315000Y-84897500D01*
X117313856Y-84920779D01*
X117310437Y-84943834D01*
X117304773Y-84966443D01*
X117296921Y-84988387D01*
X117286956Y-85009457D01*
X117274974Y-85029448D01*
X117261090Y-85048168D01*
X117245438Y-85065438D01*
X117228168Y-85081090D01*
X117209448Y-85094974D01*
X117189457Y-85106956D01*
X117168387Y-85116921D01*
X117146443Y-85124773D01*
X117123834Y-85130437D01*
X117100779Y-85133856D01*
X117077500Y-85135000D01*
X116602500Y-85135000D01*
X116579221Y-85133856D01*
X116556166Y-85130437D01*
X116533557Y-85124773D01*
X116511613Y-85116921D01*
X116490543Y-85106956D01*
X116470552Y-85094974D01*
X116451832Y-85081090D01*
X116434562Y-85065438D01*
X116418910Y-85048168D01*
X116405026Y-85029448D01*
X116393044Y-85009457D01*
X116383079Y-84988387D01*
X116375227Y-84966443D01*
X116369563Y-84943834D01*
X116366144Y-84920779D01*
X116365000Y-84897500D01*
X116365000Y-84322500D01*
X116366144Y-84299221D01*
X116369563Y-84276166D01*
X116375227Y-84253557D01*
X116383079Y-84231613D01*
X116393044Y-84210543D01*
X116405026Y-84190552D01*
X116418910Y-84171832D01*
X116434562Y-84154562D01*
X116451832Y-84138910D01*
X116470552Y-84125026D01*
X116490543Y-84113044D01*
X116511613Y-84103079D01*
X116533557Y-84095227D01*
X116556166Y-84089563D01*
X116579221Y-84086144D01*
X116602500Y-84085000D01*
X117077500Y-84085000D01*
X117100779Y-84086144D01*
X117100779Y-84086144D01*
G37*
D11*
X116840000Y-84610000D03*
D10*
G36*
X139375779Y-87410144D02*
G01*
X139398834Y-87413563D01*
X139421443Y-87419227D01*
X139443387Y-87427079D01*
X139464457Y-87437044D01*
X139484448Y-87449026D01*
X139503168Y-87462910D01*
X139520438Y-87478562D01*
X139536090Y-87495832D01*
X139549974Y-87514552D01*
X139561956Y-87534543D01*
X139571921Y-87555613D01*
X139579773Y-87577557D01*
X139585437Y-87600166D01*
X139588856Y-87623221D01*
X139590000Y-87646500D01*
X139590000Y-88121500D01*
X139588856Y-88144779D01*
X139585437Y-88167834D01*
X139579773Y-88190443D01*
X139571921Y-88212387D01*
X139561956Y-88233457D01*
X139549974Y-88253448D01*
X139536090Y-88272168D01*
X139520438Y-88289438D01*
X139503168Y-88305090D01*
X139484448Y-88318974D01*
X139464457Y-88330956D01*
X139443387Y-88340921D01*
X139421443Y-88348773D01*
X139398834Y-88354437D01*
X139375779Y-88357856D01*
X139352500Y-88359000D01*
X138777500Y-88359000D01*
X138754221Y-88357856D01*
X138731166Y-88354437D01*
X138708557Y-88348773D01*
X138686613Y-88340921D01*
X138665543Y-88330956D01*
X138645552Y-88318974D01*
X138626832Y-88305090D01*
X138609562Y-88289438D01*
X138593910Y-88272168D01*
X138580026Y-88253448D01*
X138568044Y-88233457D01*
X138558079Y-88212387D01*
X138550227Y-88190443D01*
X138544563Y-88167834D01*
X138541144Y-88144779D01*
X138540000Y-88121500D01*
X138540000Y-87646500D01*
X138541144Y-87623221D01*
X138544563Y-87600166D01*
X138550227Y-87577557D01*
X138558079Y-87555613D01*
X138568044Y-87534543D01*
X138580026Y-87514552D01*
X138593910Y-87495832D01*
X138609562Y-87478562D01*
X138626832Y-87462910D01*
X138645552Y-87449026D01*
X138665543Y-87437044D01*
X138686613Y-87427079D01*
X138708557Y-87419227D01*
X138731166Y-87413563D01*
X138754221Y-87410144D01*
X138777500Y-87409000D01*
X139352500Y-87409000D01*
X139375779Y-87410144D01*
X139375779Y-87410144D01*
G37*
D11*
X139065000Y-87884000D03*
D10*
G36*
X141125779Y-87410144D02*
G01*
X141148834Y-87413563D01*
X141171443Y-87419227D01*
X141193387Y-87427079D01*
X141214457Y-87437044D01*
X141234448Y-87449026D01*
X141253168Y-87462910D01*
X141270438Y-87478562D01*
X141286090Y-87495832D01*
X141299974Y-87514552D01*
X141311956Y-87534543D01*
X141321921Y-87555613D01*
X141329773Y-87577557D01*
X141335437Y-87600166D01*
X141338856Y-87623221D01*
X141340000Y-87646500D01*
X141340000Y-88121500D01*
X141338856Y-88144779D01*
X141335437Y-88167834D01*
X141329773Y-88190443D01*
X141321921Y-88212387D01*
X141311956Y-88233457D01*
X141299974Y-88253448D01*
X141286090Y-88272168D01*
X141270438Y-88289438D01*
X141253168Y-88305090D01*
X141234448Y-88318974D01*
X141214457Y-88330956D01*
X141193387Y-88340921D01*
X141171443Y-88348773D01*
X141148834Y-88354437D01*
X141125779Y-88357856D01*
X141102500Y-88359000D01*
X140527500Y-88359000D01*
X140504221Y-88357856D01*
X140481166Y-88354437D01*
X140458557Y-88348773D01*
X140436613Y-88340921D01*
X140415543Y-88330956D01*
X140395552Y-88318974D01*
X140376832Y-88305090D01*
X140359562Y-88289438D01*
X140343910Y-88272168D01*
X140330026Y-88253448D01*
X140318044Y-88233457D01*
X140308079Y-88212387D01*
X140300227Y-88190443D01*
X140294563Y-88167834D01*
X140291144Y-88144779D01*
X140290000Y-88121500D01*
X140290000Y-87646500D01*
X140291144Y-87623221D01*
X140294563Y-87600166D01*
X140300227Y-87577557D01*
X140308079Y-87555613D01*
X140318044Y-87534543D01*
X140330026Y-87514552D01*
X140343910Y-87495832D01*
X140359562Y-87478562D01*
X140376832Y-87462910D01*
X140395552Y-87449026D01*
X140415543Y-87437044D01*
X140436613Y-87427079D01*
X140458557Y-87419227D01*
X140481166Y-87413563D01*
X140504221Y-87410144D01*
X140527500Y-87409000D01*
X141102500Y-87409000D01*
X141125779Y-87410144D01*
X141125779Y-87410144D01*
G37*
D11*
X140815000Y-87884000D03*
D10*
G36*
X148420779Y-111794144D02*
G01*
X148443834Y-111797563D01*
X148466443Y-111803227D01*
X148488387Y-111811079D01*
X148509457Y-111821044D01*
X148529448Y-111833026D01*
X148548168Y-111846910D01*
X148565438Y-111862562D01*
X148581090Y-111879832D01*
X148594974Y-111898552D01*
X148606956Y-111918543D01*
X148616921Y-111939613D01*
X148624773Y-111961557D01*
X148630437Y-111984166D01*
X148633856Y-112007221D01*
X148635000Y-112030500D01*
X148635000Y-112505500D01*
X148633856Y-112528779D01*
X148630437Y-112551834D01*
X148624773Y-112574443D01*
X148616921Y-112596387D01*
X148606956Y-112617457D01*
X148594974Y-112637448D01*
X148581090Y-112656168D01*
X148565438Y-112673438D01*
X148548168Y-112689090D01*
X148529448Y-112702974D01*
X148509457Y-112714956D01*
X148488387Y-112724921D01*
X148466443Y-112732773D01*
X148443834Y-112738437D01*
X148420779Y-112741856D01*
X148397500Y-112743000D01*
X147822500Y-112743000D01*
X147799221Y-112741856D01*
X147776166Y-112738437D01*
X147753557Y-112732773D01*
X147731613Y-112724921D01*
X147710543Y-112714956D01*
X147690552Y-112702974D01*
X147671832Y-112689090D01*
X147654562Y-112673438D01*
X147638910Y-112656168D01*
X147625026Y-112637448D01*
X147613044Y-112617457D01*
X147603079Y-112596387D01*
X147595227Y-112574443D01*
X147589563Y-112551834D01*
X147586144Y-112528779D01*
X147585000Y-112505500D01*
X147585000Y-112030500D01*
X147586144Y-112007221D01*
X147589563Y-111984166D01*
X147595227Y-111961557D01*
X147603079Y-111939613D01*
X147613044Y-111918543D01*
X147625026Y-111898552D01*
X147638910Y-111879832D01*
X147654562Y-111862562D01*
X147671832Y-111846910D01*
X147690552Y-111833026D01*
X147710543Y-111821044D01*
X147731613Y-111811079D01*
X147753557Y-111803227D01*
X147776166Y-111797563D01*
X147799221Y-111794144D01*
X147822500Y-111793000D01*
X148397500Y-111793000D01*
X148420779Y-111794144D01*
X148420779Y-111794144D01*
G37*
D11*
X148110000Y-112268000D03*
D10*
G36*
X150170779Y-111794144D02*
G01*
X150193834Y-111797563D01*
X150216443Y-111803227D01*
X150238387Y-111811079D01*
X150259457Y-111821044D01*
X150279448Y-111833026D01*
X150298168Y-111846910D01*
X150315438Y-111862562D01*
X150331090Y-111879832D01*
X150344974Y-111898552D01*
X150356956Y-111918543D01*
X150366921Y-111939613D01*
X150374773Y-111961557D01*
X150380437Y-111984166D01*
X150383856Y-112007221D01*
X150385000Y-112030500D01*
X150385000Y-112505500D01*
X150383856Y-112528779D01*
X150380437Y-112551834D01*
X150374773Y-112574443D01*
X150366921Y-112596387D01*
X150356956Y-112617457D01*
X150344974Y-112637448D01*
X150331090Y-112656168D01*
X150315438Y-112673438D01*
X150298168Y-112689090D01*
X150279448Y-112702974D01*
X150259457Y-112714956D01*
X150238387Y-112724921D01*
X150216443Y-112732773D01*
X150193834Y-112738437D01*
X150170779Y-112741856D01*
X150147500Y-112743000D01*
X149572500Y-112743000D01*
X149549221Y-112741856D01*
X149526166Y-112738437D01*
X149503557Y-112732773D01*
X149481613Y-112724921D01*
X149460543Y-112714956D01*
X149440552Y-112702974D01*
X149421832Y-112689090D01*
X149404562Y-112673438D01*
X149388910Y-112656168D01*
X149375026Y-112637448D01*
X149363044Y-112617457D01*
X149353079Y-112596387D01*
X149345227Y-112574443D01*
X149339563Y-112551834D01*
X149336144Y-112528779D01*
X149335000Y-112505500D01*
X149335000Y-112030500D01*
X149336144Y-112007221D01*
X149339563Y-111984166D01*
X149345227Y-111961557D01*
X149353079Y-111939613D01*
X149363044Y-111918543D01*
X149375026Y-111898552D01*
X149388910Y-111879832D01*
X149404562Y-111862562D01*
X149421832Y-111846910D01*
X149440552Y-111833026D01*
X149460543Y-111821044D01*
X149481613Y-111811079D01*
X149503557Y-111803227D01*
X149526166Y-111797563D01*
X149549221Y-111794144D01*
X149572500Y-111793000D01*
X150147500Y-111793000D01*
X150170779Y-111794144D01*
X150170779Y-111794144D01*
G37*
D11*
X149860000Y-112268000D03*
D10*
G36*
X115282505Y-83736204D02*
G01*
X115306773Y-83739804D01*
X115330572Y-83745765D01*
X115353671Y-83754030D01*
X115375850Y-83764520D01*
X115396893Y-83777132D01*
X115416599Y-83791747D01*
X115434777Y-83808223D01*
X115451253Y-83826401D01*
X115465868Y-83846107D01*
X115478480Y-83867150D01*
X115488970Y-83889329D01*
X115497235Y-83912428D01*
X115503196Y-83936227D01*
X115506796Y-83960495D01*
X115508000Y-83984999D01*
X115508000Y-84635001D01*
X115506796Y-84659505D01*
X115503196Y-84683773D01*
X115497235Y-84707572D01*
X115488970Y-84730671D01*
X115478480Y-84752850D01*
X115465868Y-84773893D01*
X115451253Y-84793599D01*
X115434777Y-84811777D01*
X115416599Y-84828253D01*
X115396893Y-84842868D01*
X115375850Y-84855480D01*
X115353671Y-84865970D01*
X115330572Y-84874235D01*
X115306773Y-84880196D01*
X115282505Y-84883796D01*
X115258001Y-84885000D01*
X114357999Y-84885000D01*
X114333495Y-84883796D01*
X114309227Y-84880196D01*
X114285428Y-84874235D01*
X114262329Y-84865970D01*
X114240150Y-84855480D01*
X114219107Y-84842868D01*
X114199401Y-84828253D01*
X114181223Y-84811777D01*
X114164747Y-84793599D01*
X114150132Y-84773893D01*
X114137520Y-84752850D01*
X114127030Y-84730671D01*
X114118765Y-84707572D01*
X114112804Y-84683773D01*
X114109204Y-84659505D01*
X114108000Y-84635001D01*
X114108000Y-83984999D01*
X114109204Y-83960495D01*
X114112804Y-83936227D01*
X114118765Y-83912428D01*
X114127030Y-83889329D01*
X114137520Y-83867150D01*
X114150132Y-83846107D01*
X114164747Y-83826401D01*
X114181223Y-83808223D01*
X114199401Y-83791747D01*
X114219107Y-83777132D01*
X114240150Y-83764520D01*
X114262329Y-83754030D01*
X114285428Y-83745765D01*
X114309227Y-83739804D01*
X114333495Y-83736204D01*
X114357999Y-83735000D01*
X115258001Y-83735000D01*
X115282505Y-83736204D01*
X115282505Y-83736204D01*
G37*
D12*
X114808000Y-84310000D03*
D10*
G36*
X115282505Y-85786204D02*
G01*
X115306773Y-85789804D01*
X115330572Y-85795765D01*
X115353671Y-85804030D01*
X115375850Y-85814520D01*
X115396893Y-85827132D01*
X115416599Y-85841747D01*
X115434777Y-85858223D01*
X115451253Y-85876401D01*
X115465868Y-85896107D01*
X115478480Y-85917150D01*
X115488970Y-85939329D01*
X115497235Y-85962428D01*
X115503196Y-85986227D01*
X115506796Y-86010495D01*
X115508000Y-86034999D01*
X115508000Y-86685001D01*
X115506796Y-86709505D01*
X115503196Y-86733773D01*
X115497235Y-86757572D01*
X115488970Y-86780671D01*
X115478480Y-86802850D01*
X115465868Y-86823893D01*
X115451253Y-86843599D01*
X115434777Y-86861777D01*
X115416599Y-86878253D01*
X115396893Y-86892868D01*
X115375850Y-86905480D01*
X115353671Y-86915970D01*
X115330572Y-86924235D01*
X115306773Y-86930196D01*
X115282505Y-86933796D01*
X115258001Y-86935000D01*
X114357999Y-86935000D01*
X114333495Y-86933796D01*
X114309227Y-86930196D01*
X114285428Y-86924235D01*
X114262329Y-86915970D01*
X114240150Y-86905480D01*
X114219107Y-86892868D01*
X114199401Y-86878253D01*
X114181223Y-86861777D01*
X114164747Y-86843599D01*
X114150132Y-86823893D01*
X114137520Y-86802850D01*
X114127030Y-86780671D01*
X114118765Y-86757572D01*
X114112804Y-86733773D01*
X114109204Y-86709505D01*
X114108000Y-86685001D01*
X114108000Y-86034999D01*
X114109204Y-86010495D01*
X114112804Y-85986227D01*
X114118765Y-85962428D01*
X114127030Y-85939329D01*
X114137520Y-85917150D01*
X114150132Y-85896107D01*
X114164747Y-85876401D01*
X114181223Y-85858223D01*
X114199401Y-85841747D01*
X114219107Y-85827132D01*
X114240150Y-85814520D01*
X114262329Y-85804030D01*
X114285428Y-85795765D01*
X114309227Y-85789804D01*
X114333495Y-85786204D01*
X114357999Y-85785000D01*
X115258001Y-85785000D01*
X115282505Y-85786204D01*
X115282505Y-85786204D01*
G37*
D12*
X114808000Y-86360000D03*
D10*
G36*
X123500779Y-83600144D02*
G01*
X123523834Y-83603563D01*
X123546443Y-83609227D01*
X123568387Y-83617079D01*
X123589457Y-83627044D01*
X123609448Y-83639026D01*
X123628168Y-83652910D01*
X123645438Y-83668562D01*
X123661090Y-83685832D01*
X123674974Y-83704552D01*
X123686956Y-83724543D01*
X123696921Y-83745613D01*
X123704773Y-83767557D01*
X123710437Y-83790166D01*
X123713856Y-83813221D01*
X123715000Y-83836500D01*
X123715000Y-84311500D01*
X123713856Y-84334779D01*
X123710437Y-84357834D01*
X123704773Y-84380443D01*
X123696921Y-84402387D01*
X123686956Y-84423457D01*
X123674974Y-84443448D01*
X123661090Y-84462168D01*
X123645438Y-84479438D01*
X123628168Y-84495090D01*
X123609448Y-84508974D01*
X123589457Y-84520956D01*
X123568387Y-84530921D01*
X123546443Y-84538773D01*
X123523834Y-84544437D01*
X123500779Y-84547856D01*
X123477500Y-84549000D01*
X122902500Y-84549000D01*
X122879221Y-84547856D01*
X122856166Y-84544437D01*
X122833557Y-84538773D01*
X122811613Y-84530921D01*
X122790543Y-84520956D01*
X122770552Y-84508974D01*
X122751832Y-84495090D01*
X122734562Y-84479438D01*
X122718910Y-84462168D01*
X122705026Y-84443448D01*
X122693044Y-84423457D01*
X122683079Y-84402387D01*
X122675227Y-84380443D01*
X122669563Y-84357834D01*
X122666144Y-84334779D01*
X122665000Y-84311500D01*
X122665000Y-83836500D01*
X122666144Y-83813221D01*
X122669563Y-83790166D01*
X122675227Y-83767557D01*
X122683079Y-83745613D01*
X122693044Y-83724543D01*
X122705026Y-83704552D01*
X122718910Y-83685832D01*
X122734562Y-83668562D01*
X122751832Y-83652910D01*
X122770552Y-83639026D01*
X122790543Y-83627044D01*
X122811613Y-83617079D01*
X122833557Y-83609227D01*
X122856166Y-83603563D01*
X122879221Y-83600144D01*
X122902500Y-83599000D01*
X123477500Y-83599000D01*
X123500779Y-83600144D01*
X123500779Y-83600144D01*
G37*
D11*
X123190000Y-84074000D03*
D10*
G36*
X121750779Y-83600144D02*
G01*
X121773834Y-83603563D01*
X121796443Y-83609227D01*
X121818387Y-83617079D01*
X121839457Y-83627044D01*
X121859448Y-83639026D01*
X121878168Y-83652910D01*
X121895438Y-83668562D01*
X121911090Y-83685832D01*
X121924974Y-83704552D01*
X121936956Y-83724543D01*
X121946921Y-83745613D01*
X121954773Y-83767557D01*
X121960437Y-83790166D01*
X121963856Y-83813221D01*
X121965000Y-83836500D01*
X121965000Y-84311500D01*
X121963856Y-84334779D01*
X121960437Y-84357834D01*
X121954773Y-84380443D01*
X121946921Y-84402387D01*
X121936956Y-84423457D01*
X121924974Y-84443448D01*
X121911090Y-84462168D01*
X121895438Y-84479438D01*
X121878168Y-84495090D01*
X121859448Y-84508974D01*
X121839457Y-84520956D01*
X121818387Y-84530921D01*
X121796443Y-84538773D01*
X121773834Y-84544437D01*
X121750779Y-84547856D01*
X121727500Y-84549000D01*
X121152500Y-84549000D01*
X121129221Y-84547856D01*
X121106166Y-84544437D01*
X121083557Y-84538773D01*
X121061613Y-84530921D01*
X121040543Y-84520956D01*
X121020552Y-84508974D01*
X121001832Y-84495090D01*
X120984562Y-84479438D01*
X120968910Y-84462168D01*
X120955026Y-84443448D01*
X120943044Y-84423457D01*
X120933079Y-84402387D01*
X120925227Y-84380443D01*
X120919563Y-84357834D01*
X120916144Y-84334779D01*
X120915000Y-84311500D01*
X120915000Y-83836500D01*
X120916144Y-83813221D01*
X120919563Y-83790166D01*
X120925227Y-83767557D01*
X120933079Y-83745613D01*
X120943044Y-83724543D01*
X120955026Y-83704552D01*
X120968910Y-83685832D01*
X120984562Y-83668562D01*
X121001832Y-83652910D01*
X121020552Y-83639026D01*
X121040543Y-83627044D01*
X121061613Y-83617079D01*
X121083557Y-83609227D01*
X121106166Y-83603563D01*
X121129221Y-83600144D01*
X121152500Y-83599000D01*
X121727500Y-83599000D01*
X121750779Y-83600144D01*
X121750779Y-83600144D01*
G37*
D11*
X121440000Y-84074000D03*
D10*
G36*
X117100779Y-88150144D02*
G01*
X117123834Y-88153563D01*
X117146443Y-88159227D01*
X117168387Y-88167079D01*
X117189457Y-88177044D01*
X117209448Y-88189026D01*
X117228168Y-88202910D01*
X117245438Y-88218562D01*
X117261090Y-88235832D01*
X117274974Y-88254552D01*
X117286956Y-88274543D01*
X117296921Y-88295613D01*
X117304773Y-88317557D01*
X117310437Y-88340166D01*
X117313856Y-88363221D01*
X117315000Y-88386500D01*
X117315000Y-88961500D01*
X117313856Y-88984779D01*
X117310437Y-89007834D01*
X117304773Y-89030443D01*
X117296921Y-89052387D01*
X117286956Y-89073457D01*
X117274974Y-89093448D01*
X117261090Y-89112168D01*
X117245438Y-89129438D01*
X117228168Y-89145090D01*
X117209448Y-89158974D01*
X117189457Y-89170956D01*
X117168387Y-89180921D01*
X117146443Y-89188773D01*
X117123834Y-89194437D01*
X117100779Y-89197856D01*
X117077500Y-89199000D01*
X116602500Y-89199000D01*
X116579221Y-89197856D01*
X116556166Y-89194437D01*
X116533557Y-89188773D01*
X116511613Y-89180921D01*
X116490543Y-89170956D01*
X116470552Y-89158974D01*
X116451832Y-89145090D01*
X116434562Y-89129438D01*
X116418910Y-89112168D01*
X116405026Y-89093448D01*
X116393044Y-89073457D01*
X116383079Y-89052387D01*
X116375227Y-89030443D01*
X116369563Y-89007834D01*
X116366144Y-88984779D01*
X116365000Y-88961500D01*
X116365000Y-88386500D01*
X116366144Y-88363221D01*
X116369563Y-88340166D01*
X116375227Y-88317557D01*
X116383079Y-88295613D01*
X116393044Y-88274543D01*
X116405026Y-88254552D01*
X116418910Y-88235832D01*
X116434562Y-88218562D01*
X116451832Y-88202910D01*
X116470552Y-88189026D01*
X116490543Y-88177044D01*
X116511613Y-88167079D01*
X116533557Y-88159227D01*
X116556166Y-88153563D01*
X116579221Y-88150144D01*
X116602500Y-88149000D01*
X117077500Y-88149000D01*
X117100779Y-88150144D01*
X117100779Y-88150144D01*
G37*
D11*
X116840000Y-88674000D03*
D10*
G36*
X117100779Y-89900144D02*
G01*
X117123834Y-89903563D01*
X117146443Y-89909227D01*
X117168387Y-89917079D01*
X117189457Y-89927044D01*
X117209448Y-89939026D01*
X117228168Y-89952910D01*
X117245438Y-89968562D01*
X117261090Y-89985832D01*
X117274974Y-90004552D01*
X117286956Y-90024543D01*
X117296921Y-90045613D01*
X117304773Y-90067557D01*
X117310437Y-90090166D01*
X117313856Y-90113221D01*
X117315000Y-90136500D01*
X117315000Y-90711500D01*
X117313856Y-90734779D01*
X117310437Y-90757834D01*
X117304773Y-90780443D01*
X117296921Y-90802387D01*
X117286956Y-90823457D01*
X117274974Y-90843448D01*
X117261090Y-90862168D01*
X117245438Y-90879438D01*
X117228168Y-90895090D01*
X117209448Y-90908974D01*
X117189457Y-90920956D01*
X117168387Y-90930921D01*
X117146443Y-90938773D01*
X117123834Y-90944437D01*
X117100779Y-90947856D01*
X117077500Y-90949000D01*
X116602500Y-90949000D01*
X116579221Y-90947856D01*
X116556166Y-90944437D01*
X116533557Y-90938773D01*
X116511613Y-90930921D01*
X116490543Y-90920956D01*
X116470552Y-90908974D01*
X116451832Y-90895090D01*
X116434562Y-90879438D01*
X116418910Y-90862168D01*
X116405026Y-90843448D01*
X116393044Y-90823457D01*
X116383079Y-90802387D01*
X116375227Y-90780443D01*
X116369563Y-90757834D01*
X116366144Y-90734779D01*
X116365000Y-90711500D01*
X116365000Y-90136500D01*
X116366144Y-90113221D01*
X116369563Y-90090166D01*
X116375227Y-90067557D01*
X116383079Y-90045613D01*
X116393044Y-90024543D01*
X116405026Y-90004552D01*
X116418910Y-89985832D01*
X116434562Y-89968562D01*
X116451832Y-89952910D01*
X116470552Y-89939026D01*
X116490543Y-89927044D01*
X116511613Y-89917079D01*
X116533557Y-89909227D01*
X116556166Y-89903563D01*
X116579221Y-89900144D01*
X116602500Y-89899000D01*
X117077500Y-89899000D01*
X117100779Y-89900144D01*
X117100779Y-89900144D01*
G37*
D11*
X116840000Y-90424000D03*
D10*
G36*
X145040779Y-95742144D02*
G01*
X145063834Y-95745563D01*
X145086443Y-95751227D01*
X145108387Y-95759079D01*
X145129457Y-95769044D01*
X145149448Y-95781026D01*
X145168168Y-95794910D01*
X145185438Y-95810562D01*
X145201090Y-95827832D01*
X145214974Y-95846552D01*
X145226956Y-95866543D01*
X145236921Y-95887613D01*
X145244773Y-95909557D01*
X145250437Y-95932166D01*
X145253856Y-95955221D01*
X145255000Y-95978500D01*
X145255000Y-96553500D01*
X145253856Y-96576779D01*
X145250437Y-96599834D01*
X145244773Y-96622443D01*
X145236921Y-96644387D01*
X145226956Y-96665457D01*
X145214974Y-96685448D01*
X145201090Y-96704168D01*
X145185438Y-96721438D01*
X145168168Y-96737090D01*
X145149448Y-96750974D01*
X145129457Y-96762956D01*
X145108387Y-96772921D01*
X145086443Y-96780773D01*
X145063834Y-96786437D01*
X145040779Y-96789856D01*
X145017500Y-96791000D01*
X144542500Y-96791000D01*
X144519221Y-96789856D01*
X144496166Y-96786437D01*
X144473557Y-96780773D01*
X144451613Y-96772921D01*
X144430543Y-96762956D01*
X144410552Y-96750974D01*
X144391832Y-96737090D01*
X144374562Y-96721438D01*
X144358910Y-96704168D01*
X144345026Y-96685448D01*
X144333044Y-96665457D01*
X144323079Y-96644387D01*
X144315227Y-96622443D01*
X144309563Y-96599834D01*
X144306144Y-96576779D01*
X144305000Y-96553500D01*
X144305000Y-95978500D01*
X144306144Y-95955221D01*
X144309563Y-95932166D01*
X144315227Y-95909557D01*
X144323079Y-95887613D01*
X144333044Y-95866543D01*
X144345026Y-95846552D01*
X144358910Y-95827832D01*
X144374562Y-95810562D01*
X144391832Y-95794910D01*
X144410552Y-95781026D01*
X144430543Y-95769044D01*
X144451613Y-95759079D01*
X144473557Y-95751227D01*
X144496166Y-95745563D01*
X144519221Y-95742144D01*
X144542500Y-95741000D01*
X145017500Y-95741000D01*
X145040779Y-95742144D01*
X145040779Y-95742144D01*
G37*
D11*
X144780000Y-96266000D03*
D10*
G36*
X145040779Y-93992144D02*
G01*
X145063834Y-93995563D01*
X145086443Y-94001227D01*
X145108387Y-94009079D01*
X145129457Y-94019044D01*
X145149448Y-94031026D01*
X145168168Y-94044910D01*
X145185438Y-94060562D01*
X145201090Y-94077832D01*
X145214974Y-94096552D01*
X145226956Y-94116543D01*
X145236921Y-94137613D01*
X145244773Y-94159557D01*
X145250437Y-94182166D01*
X145253856Y-94205221D01*
X145255000Y-94228500D01*
X145255000Y-94803500D01*
X145253856Y-94826779D01*
X145250437Y-94849834D01*
X145244773Y-94872443D01*
X145236921Y-94894387D01*
X145226956Y-94915457D01*
X145214974Y-94935448D01*
X145201090Y-94954168D01*
X145185438Y-94971438D01*
X145168168Y-94987090D01*
X145149448Y-95000974D01*
X145129457Y-95012956D01*
X145108387Y-95022921D01*
X145086443Y-95030773D01*
X145063834Y-95036437D01*
X145040779Y-95039856D01*
X145017500Y-95041000D01*
X144542500Y-95041000D01*
X144519221Y-95039856D01*
X144496166Y-95036437D01*
X144473557Y-95030773D01*
X144451613Y-95022921D01*
X144430543Y-95012956D01*
X144410552Y-95000974D01*
X144391832Y-94987090D01*
X144374562Y-94971438D01*
X144358910Y-94954168D01*
X144345026Y-94935448D01*
X144333044Y-94915457D01*
X144323079Y-94894387D01*
X144315227Y-94872443D01*
X144309563Y-94849834D01*
X144306144Y-94826779D01*
X144305000Y-94803500D01*
X144305000Y-94228500D01*
X144306144Y-94205221D01*
X144309563Y-94182166D01*
X144315227Y-94159557D01*
X144323079Y-94137613D01*
X144333044Y-94116543D01*
X144345026Y-94096552D01*
X144358910Y-94077832D01*
X144374562Y-94060562D01*
X144391832Y-94044910D01*
X144410552Y-94031026D01*
X144430543Y-94019044D01*
X144451613Y-94009079D01*
X144473557Y-94001227D01*
X144496166Y-93995563D01*
X144519221Y-93992144D01*
X144542500Y-93991000D01*
X145017500Y-93991000D01*
X145040779Y-93992144D01*
X145040779Y-93992144D01*
G37*
D11*
X144780000Y-94516000D03*
D10*
G36*
X141125779Y-89188144D02*
G01*
X141148834Y-89191563D01*
X141171443Y-89197227D01*
X141193387Y-89205079D01*
X141214457Y-89215044D01*
X141234448Y-89227026D01*
X141253168Y-89240910D01*
X141270438Y-89256562D01*
X141286090Y-89273832D01*
X141299974Y-89292552D01*
X141311956Y-89312543D01*
X141321921Y-89333613D01*
X141329773Y-89355557D01*
X141335437Y-89378166D01*
X141338856Y-89401221D01*
X141340000Y-89424500D01*
X141340000Y-89899500D01*
X141338856Y-89922779D01*
X141335437Y-89945834D01*
X141329773Y-89968443D01*
X141321921Y-89990387D01*
X141311956Y-90011457D01*
X141299974Y-90031448D01*
X141286090Y-90050168D01*
X141270438Y-90067438D01*
X141253168Y-90083090D01*
X141234448Y-90096974D01*
X141214457Y-90108956D01*
X141193387Y-90118921D01*
X141171443Y-90126773D01*
X141148834Y-90132437D01*
X141125779Y-90135856D01*
X141102500Y-90137000D01*
X140527500Y-90137000D01*
X140504221Y-90135856D01*
X140481166Y-90132437D01*
X140458557Y-90126773D01*
X140436613Y-90118921D01*
X140415543Y-90108956D01*
X140395552Y-90096974D01*
X140376832Y-90083090D01*
X140359562Y-90067438D01*
X140343910Y-90050168D01*
X140330026Y-90031448D01*
X140318044Y-90011457D01*
X140308079Y-89990387D01*
X140300227Y-89968443D01*
X140294563Y-89945834D01*
X140291144Y-89922779D01*
X140290000Y-89899500D01*
X140290000Y-89424500D01*
X140291144Y-89401221D01*
X140294563Y-89378166D01*
X140300227Y-89355557D01*
X140308079Y-89333613D01*
X140318044Y-89312543D01*
X140330026Y-89292552D01*
X140343910Y-89273832D01*
X140359562Y-89256562D01*
X140376832Y-89240910D01*
X140395552Y-89227026D01*
X140415543Y-89215044D01*
X140436613Y-89205079D01*
X140458557Y-89197227D01*
X140481166Y-89191563D01*
X140504221Y-89188144D01*
X140527500Y-89187000D01*
X141102500Y-89187000D01*
X141125779Y-89188144D01*
X141125779Y-89188144D01*
G37*
D11*
X140815000Y-89662000D03*
D10*
G36*
X139375779Y-89188144D02*
G01*
X139398834Y-89191563D01*
X139421443Y-89197227D01*
X139443387Y-89205079D01*
X139464457Y-89215044D01*
X139484448Y-89227026D01*
X139503168Y-89240910D01*
X139520438Y-89256562D01*
X139536090Y-89273832D01*
X139549974Y-89292552D01*
X139561956Y-89312543D01*
X139571921Y-89333613D01*
X139579773Y-89355557D01*
X139585437Y-89378166D01*
X139588856Y-89401221D01*
X139590000Y-89424500D01*
X139590000Y-89899500D01*
X139588856Y-89922779D01*
X139585437Y-89945834D01*
X139579773Y-89968443D01*
X139571921Y-89990387D01*
X139561956Y-90011457D01*
X139549974Y-90031448D01*
X139536090Y-90050168D01*
X139520438Y-90067438D01*
X139503168Y-90083090D01*
X139484448Y-90096974D01*
X139464457Y-90108956D01*
X139443387Y-90118921D01*
X139421443Y-90126773D01*
X139398834Y-90132437D01*
X139375779Y-90135856D01*
X139352500Y-90137000D01*
X138777500Y-90137000D01*
X138754221Y-90135856D01*
X138731166Y-90132437D01*
X138708557Y-90126773D01*
X138686613Y-90118921D01*
X138665543Y-90108956D01*
X138645552Y-90096974D01*
X138626832Y-90083090D01*
X138609562Y-90067438D01*
X138593910Y-90050168D01*
X138580026Y-90031448D01*
X138568044Y-90011457D01*
X138558079Y-89990387D01*
X138550227Y-89968443D01*
X138544563Y-89945834D01*
X138541144Y-89922779D01*
X138540000Y-89899500D01*
X138540000Y-89424500D01*
X138541144Y-89401221D01*
X138544563Y-89378166D01*
X138550227Y-89355557D01*
X138558079Y-89333613D01*
X138568044Y-89312543D01*
X138580026Y-89292552D01*
X138593910Y-89273832D01*
X138609562Y-89256562D01*
X138626832Y-89240910D01*
X138645552Y-89227026D01*
X138665543Y-89215044D01*
X138686613Y-89205079D01*
X138708557Y-89197227D01*
X138731166Y-89191563D01*
X138754221Y-89188144D01*
X138777500Y-89187000D01*
X139352500Y-89187000D01*
X139375779Y-89188144D01*
X139375779Y-89188144D01*
G37*
D11*
X139065000Y-89662000D03*
D13*
X142748000Y-94742000D03*
X140848000Y-94742000D03*
X140848000Y-92042000D03*
X141798000Y-92042000D03*
X142748000Y-92042000D03*
D10*
G36*
X119544703Y-85335722D02*
G01*
X119559264Y-85337882D01*
X119573543Y-85341459D01*
X119587403Y-85346418D01*
X119600710Y-85352712D01*
X119613336Y-85360280D01*
X119625159Y-85369048D01*
X119636066Y-85378934D01*
X119645952Y-85389841D01*
X119654720Y-85401664D01*
X119662288Y-85414290D01*
X119668582Y-85427597D01*
X119673541Y-85441457D01*
X119677118Y-85455736D01*
X119679278Y-85470297D01*
X119680000Y-85485000D01*
X119680000Y-87235000D01*
X119679278Y-87249703D01*
X119677118Y-87264264D01*
X119673541Y-87278543D01*
X119668582Y-87292403D01*
X119662288Y-87305710D01*
X119654720Y-87318336D01*
X119645952Y-87330159D01*
X119636066Y-87341066D01*
X119625159Y-87350952D01*
X119613336Y-87359720D01*
X119600710Y-87367288D01*
X119587403Y-87373582D01*
X119573543Y-87378541D01*
X119559264Y-87382118D01*
X119544703Y-87384278D01*
X119530000Y-87385000D01*
X119230000Y-87385000D01*
X119215297Y-87384278D01*
X119200736Y-87382118D01*
X119186457Y-87378541D01*
X119172597Y-87373582D01*
X119159290Y-87367288D01*
X119146664Y-87359720D01*
X119134841Y-87350952D01*
X119123934Y-87341066D01*
X119114048Y-87330159D01*
X119105280Y-87318336D01*
X119097712Y-87305710D01*
X119091418Y-87292403D01*
X119086459Y-87278543D01*
X119082882Y-87264264D01*
X119080722Y-87249703D01*
X119080000Y-87235000D01*
X119080000Y-85485000D01*
X119080722Y-85470297D01*
X119082882Y-85455736D01*
X119086459Y-85441457D01*
X119091418Y-85427597D01*
X119097712Y-85414290D01*
X119105280Y-85401664D01*
X119114048Y-85389841D01*
X119123934Y-85378934D01*
X119134841Y-85369048D01*
X119146664Y-85360280D01*
X119159290Y-85352712D01*
X119172597Y-85346418D01*
X119186457Y-85341459D01*
X119200736Y-85337882D01*
X119215297Y-85335722D01*
X119230000Y-85335000D01*
X119530000Y-85335000D01*
X119544703Y-85335722D01*
X119544703Y-85335722D01*
G37*
D14*
X119380000Y-86360000D03*
D10*
G36*
X120814703Y-85335722D02*
G01*
X120829264Y-85337882D01*
X120843543Y-85341459D01*
X120857403Y-85346418D01*
X120870710Y-85352712D01*
X120883336Y-85360280D01*
X120895159Y-85369048D01*
X120906066Y-85378934D01*
X120915952Y-85389841D01*
X120924720Y-85401664D01*
X120932288Y-85414290D01*
X120938582Y-85427597D01*
X120943541Y-85441457D01*
X120947118Y-85455736D01*
X120949278Y-85470297D01*
X120950000Y-85485000D01*
X120950000Y-87235000D01*
X120949278Y-87249703D01*
X120947118Y-87264264D01*
X120943541Y-87278543D01*
X120938582Y-87292403D01*
X120932288Y-87305710D01*
X120924720Y-87318336D01*
X120915952Y-87330159D01*
X120906066Y-87341066D01*
X120895159Y-87350952D01*
X120883336Y-87359720D01*
X120870710Y-87367288D01*
X120857403Y-87373582D01*
X120843543Y-87378541D01*
X120829264Y-87382118D01*
X120814703Y-87384278D01*
X120800000Y-87385000D01*
X120500000Y-87385000D01*
X120485297Y-87384278D01*
X120470736Y-87382118D01*
X120456457Y-87378541D01*
X120442597Y-87373582D01*
X120429290Y-87367288D01*
X120416664Y-87359720D01*
X120404841Y-87350952D01*
X120393934Y-87341066D01*
X120384048Y-87330159D01*
X120375280Y-87318336D01*
X120367712Y-87305710D01*
X120361418Y-87292403D01*
X120356459Y-87278543D01*
X120352882Y-87264264D01*
X120350722Y-87249703D01*
X120350000Y-87235000D01*
X120350000Y-85485000D01*
X120350722Y-85470297D01*
X120352882Y-85455736D01*
X120356459Y-85441457D01*
X120361418Y-85427597D01*
X120367712Y-85414290D01*
X120375280Y-85401664D01*
X120384048Y-85389841D01*
X120393934Y-85378934D01*
X120404841Y-85369048D01*
X120416664Y-85360280D01*
X120429290Y-85352712D01*
X120442597Y-85346418D01*
X120456457Y-85341459D01*
X120470736Y-85337882D01*
X120485297Y-85335722D01*
X120500000Y-85335000D01*
X120800000Y-85335000D01*
X120814703Y-85335722D01*
X120814703Y-85335722D01*
G37*
D14*
X120650000Y-86360000D03*
D10*
G36*
X122084703Y-85335722D02*
G01*
X122099264Y-85337882D01*
X122113543Y-85341459D01*
X122127403Y-85346418D01*
X122140710Y-85352712D01*
X122153336Y-85360280D01*
X122165159Y-85369048D01*
X122176066Y-85378934D01*
X122185952Y-85389841D01*
X122194720Y-85401664D01*
X122202288Y-85414290D01*
X122208582Y-85427597D01*
X122213541Y-85441457D01*
X122217118Y-85455736D01*
X122219278Y-85470297D01*
X122220000Y-85485000D01*
X122220000Y-87235000D01*
X122219278Y-87249703D01*
X122217118Y-87264264D01*
X122213541Y-87278543D01*
X122208582Y-87292403D01*
X122202288Y-87305710D01*
X122194720Y-87318336D01*
X122185952Y-87330159D01*
X122176066Y-87341066D01*
X122165159Y-87350952D01*
X122153336Y-87359720D01*
X122140710Y-87367288D01*
X122127403Y-87373582D01*
X122113543Y-87378541D01*
X122099264Y-87382118D01*
X122084703Y-87384278D01*
X122070000Y-87385000D01*
X121770000Y-87385000D01*
X121755297Y-87384278D01*
X121740736Y-87382118D01*
X121726457Y-87378541D01*
X121712597Y-87373582D01*
X121699290Y-87367288D01*
X121686664Y-87359720D01*
X121674841Y-87350952D01*
X121663934Y-87341066D01*
X121654048Y-87330159D01*
X121645280Y-87318336D01*
X121637712Y-87305710D01*
X121631418Y-87292403D01*
X121626459Y-87278543D01*
X121622882Y-87264264D01*
X121620722Y-87249703D01*
X121620000Y-87235000D01*
X121620000Y-85485000D01*
X121620722Y-85470297D01*
X121622882Y-85455736D01*
X121626459Y-85441457D01*
X121631418Y-85427597D01*
X121637712Y-85414290D01*
X121645280Y-85401664D01*
X121654048Y-85389841D01*
X121663934Y-85378934D01*
X121674841Y-85369048D01*
X121686664Y-85360280D01*
X121699290Y-85352712D01*
X121712597Y-85346418D01*
X121726457Y-85341459D01*
X121740736Y-85337882D01*
X121755297Y-85335722D01*
X121770000Y-85335000D01*
X122070000Y-85335000D01*
X122084703Y-85335722D01*
X122084703Y-85335722D01*
G37*
D14*
X121920000Y-86360000D03*
D10*
G36*
X123354703Y-85335722D02*
G01*
X123369264Y-85337882D01*
X123383543Y-85341459D01*
X123397403Y-85346418D01*
X123410710Y-85352712D01*
X123423336Y-85360280D01*
X123435159Y-85369048D01*
X123446066Y-85378934D01*
X123455952Y-85389841D01*
X123464720Y-85401664D01*
X123472288Y-85414290D01*
X123478582Y-85427597D01*
X123483541Y-85441457D01*
X123487118Y-85455736D01*
X123489278Y-85470297D01*
X123490000Y-85485000D01*
X123490000Y-87235000D01*
X123489278Y-87249703D01*
X123487118Y-87264264D01*
X123483541Y-87278543D01*
X123478582Y-87292403D01*
X123472288Y-87305710D01*
X123464720Y-87318336D01*
X123455952Y-87330159D01*
X123446066Y-87341066D01*
X123435159Y-87350952D01*
X123423336Y-87359720D01*
X123410710Y-87367288D01*
X123397403Y-87373582D01*
X123383543Y-87378541D01*
X123369264Y-87382118D01*
X123354703Y-87384278D01*
X123340000Y-87385000D01*
X123040000Y-87385000D01*
X123025297Y-87384278D01*
X123010736Y-87382118D01*
X122996457Y-87378541D01*
X122982597Y-87373582D01*
X122969290Y-87367288D01*
X122956664Y-87359720D01*
X122944841Y-87350952D01*
X122933934Y-87341066D01*
X122924048Y-87330159D01*
X122915280Y-87318336D01*
X122907712Y-87305710D01*
X122901418Y-87292403D01*
X122896459Y-87278543D01*
X122892882Y-87264264D01*
X122890722Y-87249703D01*
X122890000Y-87235000D01*
X122890000Y-85485000D01*
X122890722Y-85470297D01*
X122892882Y-85455736D01*
X122896459Y-85441457D01*
X122901418Y-85427597D01*
X122907712Y-85414290D01*
X122915280Y-85401664D01*
X122924048Y-85389841D01*
X122933934Y-85378934D01*
X122944841Y-85369048D01*
X122956664Y-85360280D01*
X122969290Y-85352712D01*
X122982597Y-85346418D01*
X122996457Y-85341459D01*
X123010736Y-85337882D01*
X123025297Y-85335722D01*
X123040000Y-85335000D01*
X123340000Y-85335000D01*
X123354703Y-85335722D01*
X123354703Y-85335722D01*
G37*
D14*
X123190000Y-86360000D03*
D10*
G36*
X124624703Y-85335722D02*
G01*
X124639264Y-85337882D01*
X124653543Y-85341459D01*
X124667403Y-85346418D01*
X124680710Y-85352712D01*
X124693336Y-85360280D01*
X124705159Y-85369048D01*
X124716066Y-85378934D01*
X124725952Y-85389841D01*
X124734720Y-85401664D01*
X124742288Y-85414290D01*
X124748582Y-85427597D01*
X124753541Y-85441457D01*
X124757118Y-85455736D01*
X124759278Y-85470297D01*
X124760000Y-85485000D01*
X124760000Y-87235000D01*
X124759278Y-87249703D01*
X124757118Y-87264264D01*
X124753541Y-87278543D01*
X124748582Y-87292403D01*
X124742288Y-87305710D01*
X124734720Y-87318336D01*
X124725952Y-87330159D01*
X124716066Y-87341066D01*
X124705159Y-87350952D01*
X124693336Y-87359720D01*
X124680710Y-87367288D01*
X124667403Y-87373582D01*
X124653543Y-87378541D01*
X124639264Y-87382118D01*
X124624703Y-87384278D01*
X124610000Y-87385000D01*
X124310000Y-87385000D01*
X124295297Y-87384278D01*
X124280736Y-87382118D01*
X124266457Y-87378541D01*
X124252597Y-87373582D01*
X124239290Y-87367288D01*
X124226664Y-87359720D01*
X124214841Y-87350952D01*
X124203934Y-87341066D01*
X124194048Y-87330159D01*
X124185280Y-87318336D01*
X124177712Y-87305710D01*
X124171418Y-87292403D01*
X124166459Y-87278543D01*
X124162882Y-87264264D01*
X124160722Y-87249703D01*
X124160000Y-87235000D01*
X124160000Y-85485000D01*
X124160722Y-85470297D01*
X124162882Y-85455736D01*
X124166459Y-85441457D01*
X124171418Y-85427597D01*
X124177712Y-85414290D01*
X124185280Y-85401664D01*
X124194048Y-85389841D01*
X124203934Y-85378934D01*
X124214841Y-85369048D01*
X124226664Y-85360280D01*
X124239290Y-85352712D01*
X124252597Y-85346418D01*
X124266457Y-85341459D01*
X124280736Y-85337882D01*
X124295297Y-85335722D01*
X124310000Y-85335000D01*
X124610000Y-85335000D01*
X124624703Y-85335722D01*
X124624703Y-85335722D01*
G37*
D14*
X124460000Y-86360000D03*
D10*
G36*
X125894703Y-85335722D02*
G01*
X125909264Y-85337882D01*
X125923543Y-85341459D01*
X125937403Y-85346418D01*
X125950710Y-85352712D01*
X125963336Y-85360280D01*
X125975159Y-85369048D01*
X125986066Y-85378934D01*
X125995952Y-85389841D01*
X126004720Y-85401664D01*
X126012288Y-85414290D01*
X126018582Y-85427597D01*
X126023541Y-85441457D01*
X126027118Y-85455736D01*
X126029278Y-85470297D01*
X126030000Y-85485000D01*
X126030000Y-87235000D01*
X126029278Y-87249703D01*
X126027118Y-87264264D01*
X126023541Y-87278543D01*
X126018582Y-87292403D01*
X126012288Y-87305710D01*
X126004720Y-87318336D01*
X125995952Y-87330159D01*
X125986066Y-87341066D01*
X125975159Y-87350952D01*
X125963336Y-87359720D01*
X125950710Y-87367288D01*
X125937403Y-87373582D01*
X125923543Y-87378541D01*
X125909264Y-87382118D01*
X125894703Y-87384278D01*
X125880000Y-87385000D01*
X125580000Y-87385000D01*
X125565297Y-87384278D01*
X125550736Y-87382118D01*
X125536457Y-87378541D01*
X125522597Y-87373582D01*
X125509290Y-87367288D01*
X125496664Y-87359720D01*
X125484841Y-87350952D01*
X125473934Y-87341066D01*
X125464048Y-87330159D01*
X125455280Y-87318336D01*
X125447712Y-87305710D01*
X125441418Y-87292403D01*
X125436459Y-87278543D01*
X125432882Y-87264264D01*
X125430722Y-87249703D01*
X125430000Y-87235000D01*
X125430000Y-85485000D01*
X125430722Y-85470297D01*
X125432882Y-85455736D01*
X125436459Y-85441457D01*
X125441418Y-85427597D01*
X125447712Y-85414290D01*
X125455280Y-85401664D01*
X125464048Y-85389841D01*
X125473934Y-85378934D01*
X125484841Y-85369048D01*
X125496664Y-85360280D01*
X125509290Y-85352712D01*
X125522597Y-85346418D01*
X125536457Y-85341459D01*
X125550736Y-85337882D01*
X125565297Y-85335722D01*
X125580000Y-85335000D01*
X125880000Y-85335000D01*
X125894703Y-85335722D01*
X125894703Y-85335722D01*
G37*
D14*
X125730000Y-86360000D03*
D10*
G36*
X127164703Y-85335722D02*
G01*
X127179264Y-85337882D01*
X127193543Y-85341459D01*
X127207403Y-85346418D01*
X127220710Y-85352712D01*
X127233336Y-85360280D01*
X127245159Y-85369048D01*
X127256066Y-85378934D01*
X127265952Y-85389841D01*
X127274720Y-85401664D01*
X127282288Y-85414290D01*
X127288582Y-85427597D01*
X127293541Y-85441457D01*
X127297118Y-85455736D01*
X127299278Y-85470297D01*
X127300000Y-85485000D01*
X127300000Y-87235000D01*
X127299278Y-87249703D01*
X127297118Y-87264264D01*
X127293541Y-87278543D01*
X127288582Y-87292403D01*
X127282288Y-87305710D01*
X127274720Y-87318336D01*
X127265952Y-87330159D01*
X127256066Y-87341066D01*
X127245159Y-87350952D01*
X127233336Y-87359720D01*
X127220710Y-87367288D01*
X127207403Y-87373582D01*
X127193543Y-87378541D01*
X127179264Y-87382118D01*
X127164703Y-87384278D01*
X127150000Y-87385000D01*
X126850000Y-87385000D01*
X126835297Y-87384278D01*
X126820736Y-87382118D01*
X126806457Y-87378541D01*
X126792597Y-87373582D01*
X126779290Y-87367288D01*
X126766664Y-87359720D01*
X126754841Y-87350952D01*
X126743934Y-87341066D01*
X126734048Y-87330159D01*
X126725280Y-87318336D01*
X126717712Y-87305710D01*
X126711418Y-87292403D01*
X126706459Y-87278543D01*
X126702882Y-87264264D01*
X126700722Y-87249703D01*
X126700000Y-87235000D01*
X126700000Y-85485000D01*
X126700722Y-85470297D01*
X126702882Y-85455736D01*
X126706459Y-85441457D01*
X126711418Y-85427597D01*
X126717712Y-85414290D01*
X126725280Y-85401664D01*
X126734048Y-85389841D01*
X126743934Y-85378934D01*
X126754841Y-85369048D01*
X126766664Y-85360280D01*
X126779290Y-85352712D01*
X126792597Y-85346418D01*
X126806457Y-85341459D01*
X126820736Y-85337882D01*
X126835297Y-85335722D01*
X126850000Y-85335000D01*
X127150000Y-85335000D01*
X127164703Y-85335722D01*
X127164703Y-85335722D01*
G37*
D14*
X127000000Y-86360000D03*
D10*
G36*
X128434703Y-85335722D02*
G01*
X128449264Y-85337882D01*
X128463543Y-85341459D01*
X128477403Y-85346418D01*
X128490710Y-85352712D01*
X128503336Y-85360280D01*
X128515159Y-85369048D01*
X128526066Y-85378934D01*
X128535952Y-85389841D01*
X128544720Y-85401664D01*
X128552288Y-85414290D01*
X128558582Y-85427597D01*
X128563541Y-85441457D01*
X128567118Y-85455736D01*
X128569278Y-85470297D01*
X128570000Y-85485000D01*
X128570000Y-87235000D01*
X128569278Y-87249703D01*
X128567118Y-87264264D01*
X128563541Y-87278543D01*
X128558582Y-87292403D01*
X128552288Y-87305710D01*
X128544720Y-87318336D01*
X128535952Y-87330159D01*
X128526066Y-87341066D01*
X128515159Y-87350952D01*
X128503336Y-87359720D01*
X128490710Y-87367288D01*
X128477403Y-87373582D01*
X128463543Y-87378541D01*
X128449264Y-87382118D01*
X128434703Y-87384278D01*
X128420000Y-87385000D01*
X128120000Y-87385000D01*
X128105297Y-87384278D01*
X128090736Y-87382118D01*
X128076457Y-87378541D01*
X128062597Y-87373582D01*
X128049290Y-87367288D01*
X128036664Y-87359720D01*
X128024841Y-87350952D01*
X128013934Y-87341066D01*
X128004048Y-87330159D01*
X127995280Y-87318336D01*
X127987712Y-87305710D01*
X127981418Y-87292403D01*
X127976459Y-87278543D01*
X127972882Y-87264264D01*
X127970722Y-87249703D01*
X127970000Y-87235000D01*
X127970000Y-85485000D01*
X127970722Y-85470297D01*
X127972882Y-85455736D01*
X127976459Y-85441457D01*
X127981418Y-85427597D01*
X127987712Y-85414290D01*
X127995280Y-85401664D01*
X128004048Y-85389841D01*
X128013934Y-85378934D01*
X128024841Y-85369048D01*
X128036664Y-85360280D01*
X128049290Y-85352712D01*
X128062597Y-85346418D01*
X128076457Y-85341459D01*
X128090736Y-85337882D01*
X128105297Y-85335722D01*
X128120000Y-85335000D01*
X128420000Y-85335000D01*
X128434703Y-85335722D01*
X128434703Y-85335722D01*
G37*
D14*
X128270000Y-86360000D03*
D10*
G36*
X129704703Y-85335722D02*
G01*
X129719264Y-85337882D01*
X129733543Y-85341459D01*
X129747403Y-85346418D01*
X129760710Y-85352712D01*
X129773336Y-85360280D01*
X129785159Y-85369048D01*
X129796066Y-85378934D01*
X129805952Y-85389841D01*
X129814720Y-85401664D01*
X129822288Y-85414290D01*
X129828582Y-85427597D01*
X129833541Y-85441457D01*
X129837118Y-85455736D01*
X129839278Y-85470297D01*
X129840000Y-85485000D01*
X129840000Y-87235000D01*
X129839278Y-87249703D01*
X129837118Y-87264264D01*
X129833541Y-87278543D01*
X129828582Y-87292403D01*
X129822288Y-87305710D01*
X129814720Y-87318336D01*
X129805952Y-87330159D01*
X129796066Y-87341066D01*
X129785159Y-87350952D01*
X129773336Y-87359720D01*
X129760710Y-87367288D01*
X129747403Y-87373582D01*
X129733543Y-87378541D01*
X129719264Y-87382118D01*
X129704703Y-87384278D01*
X129690000Y-87385000D01*
X129390000Y-87385000D01*
X129375297Y-87384278D01*
X129360736Y-87382118D01*
X129346457Y-87378541D01*
X129332597Y-87373582D01*
X129319290Y-87367288D01*
X129306664Y-87359720D01*
X129294841Y-87350952D01*
X129283934Y-87341066D01*
X129274048Y-87330159D01*
X129265280Y-87318336D01*
X129257712Y-87305710D01*
X129251418Y-87292403D01*
X129246459Y-87278543D01*
X129242882Y-87264264D01*
X129240722Y-87249703D01*
X129240000Y-87235000D01*
X129240000Y-85485000D01*
X129240722Y-85470297D01*
X129242882Y-85455736D01*
X129246459Y-85441457D01*
X129251418Y-85427597D01*
X129257712Y-85414290D01*
X129265280Y-85401664D01*
X129274048Y-85389841D01*
X129283934Y-85378934D01*
X129294841Y-85369048D01*
X129306664Y-85360280D01*
X129319290Y-85352712D01*
X129332597Y-85346418D01*
X129346457Y-85341459D01*
X129360736Y-85337882D01*
X129375297Y-85335722D01*
X129390000Y-85335000D01*
X129690000Y-85335000D01*
X129704703Y-85335722D01*
X129704703Y-85335722D01*
G37*
D14*
X129540000Y-86360000D03*
D10*
G36*
X130974703Y-85335722D02*
G01*
X130989264Y-85337882D01*
X131003543Y-85341459D01*
X131017403Y-85346418D01*
X131030710Y-85352712D01*
X131043336Y-85360280D01*
X131055159Y-85369048D01*
X131066066Y-85378934D01*
X131075952Y-85389841D01*
X131084720Y-85401664D01*
X131092288Y-85414290D01*
X131098582Y-85427597D01*
X131103541Y-85441457D01*
X131107118Y-85455736D01*
X131109278Y-85470297D01*
X131110000Y-85485000D01*
X131110000Y-87235000D01*
X131109278Y-87249703D01*
X131107118Y-87264264D01*
X131103541Y-87278543D01*
X131098582Y-87292403D01*
X131092288Y-87305710D01*
X131084720Y-87318336D01*
X131075952Y-87330159D01*
X131066066Y-87341066D01*
X131055159Y-87350952D01*
X131043336Y-87359720D01*
X131030710Y-87367288D01*
X131017403Y-87373582D01*
X131003543Y-87378541D01*
X130989264Y-87382118D01*
X130974703Y-87384278D01*
X130960000Y-87385000D01*
X130660000Y-87385000D01*
X130645297Y-87384278D01*
X130630736Y-87382118D01*
X130616457Y-87378541D01*
X130602597Y-87373582D01*
X130589290Y-87367288D01*
X130576664Y-87359720D01*
X130564841Y-87350952D01*
X130553934Y-87341066D01*
X130544048Y-87330159D01*
X130535280Y-87318336D01*
X130527712Y-87305710D01*
X130521418Y-87292403D01*
X130516459Y-87278543D01*
X130512882Y-87264264D01*
X130510722Y-87249703D01*
X130510000Y-87235000D01*
X130510000Y-85485000D01*
X130510722Y-85470297D01*
X130512882Y-85455736D01*
X130516459Y-85441457D01*
X130521418Y-85427597D01*
X130527712Y-85414290D01*
X130535280Y-85401664D01*
X130544048Y-85389841D01*
X130553934Y-85378934D01*
X130564841Y-85369048D01*
X130576664Y-85360280D01*
X130589290Y-85352712D01*
X130602597Y-85346418D01*
X130616457Y-85341459D01*
X130630736Y-85337882D01*
X130645297Y-85335722D01*
X130660000Y-85335000D01*
X130960000Y-85335000D01*
X130974703Y-85335722D01*
X130974703Y-85335722D01*
G37*
D14*
X130810000Y-86360000D03*
D10*
G36*
X130974703Y-94635722D02*
G01*
X130989264Y-94637882D01*
X131003543Y-94641459D01*
X131017403Y-94646418D01*
X131030710Y-94652712D01*
X131043336Y-94660280D01*
X131055159Y-94669048D01*
X131066066Y-94678934D01*
X131075952Y-94689841D01*
X131084720Y-94701664D01*
X131092288Y-94714290D01*
X131098582Y-94727597D01*
X131103541Y-94741457D01*
X131107118Y-94755736D01*
X131109278Y-94770297D01*
X131110000Y-94785000D01*
X131110000Y-96535000D01*
X131109278Y-96549703D01*
X131107118Y-96564264D01*
X131103541Y-96578543D01*
X131098582Y-96592403D01*
X131092288Y-96605710D01*
X131084720Y-96618336D01*
X131075952Y-96630159D01*
X131066066Y-96641066D01*
X131055159Y-96650952D01*
X131043336Y-96659720D01*
X131030710Y-96667288D01*
X131017403Y-96673582D01*
X131003543Y-96678541D01*
X130989264Y-96682118D01*
X130974703Y-96684278D01*
X130960000Y-96685000D01*
X130660000Y-96685000D01*
X130645297Y-96684278D01*
X130630736Y-96682118D01*
X130616457Y-96678541D01*
X130602597Y-96673582D01*
X130589290Y-96667288D01*
X130576664Y-96659720D01*
X130564841Y-96650952D01*
X130553934Y-96641066D01*
X130544048Y-96630159D01*
X130535280Y-96618336D01*
X130527712Y-96605710D01*
X130521418Y-96592403D01*
X130516459Y-96578543D01*
X130512882Y-96564264D01*
X130510722Y-96549703D01*
X130510000Y-96535000D01*
X130510000Y-94785000D01*
X130510722Y-94770297D01*
X130512882Y-94755736D01*
X130516459Y-94741457D01*
X130521418Y-94727597D01*
X130527712Y-94714290D01*
X130535280Y-94701664D01*
X130544048Y-94689841D01*
X130553934Y-94678934D01*
X130564841Y-94669048D01*
X130576664Y-94660280D01*
X130589290Y-94652712D01*
X130602597Y-94646418D01*
X130616457Y-94641459D01*
X130630736Y-94637882D01*
X130645297Y-94635722D01*
X130660000Y-94635000D01*
X130960000Y-94635000D01*
X130974703Y-94635722D01*
X130974703Y-94635722D01*
G37*
D14*
X130810000Y-95660000D03*
D10*
G36*
X129704703Y-94635722D02*
G01*
X129719264Y-94637882D01*
X129733543Y-94641459D01*
X129747403Y-94646418D01*
X129760710Y-94652712D01*
X129773336Y-94660280D01*
X129785159Y-94669048D01*
X129796066Y-94678934D01*
X129805952Y-94689841D01*
X129814720Y-94701664D01*
X129822288Y-94714290D01*
X129828582Y-94727597D01*
X129833541Y-94741457D01*
X129837118Y-94755736D01*
X129839278Y-94770297D01*
X129840000Y-94785000D01*
X129840000Y-96535000D01*
X129839278Y-96549703D01*
X129837118Y-96564264D01*
X129833541Y-96578543D01*
X129828582Y-96592403D01*
X129822288Y-96605710D01*
X129814720Y-96618336D01*
X129805952Y-96630159D01*
X129796066Y-96641066D01*
X129785159Y-96650952D01*
X129773336Y-96659720D01*
X129760710Y-96667288D01*
X129747403Y-96673582D01*
X129733543Y-96678541D01*
X129719264Y-96682118D01*
X129704703Y-96684278D01*
X129690000Y-96685000D01*
X129390000Y-96685000D01*
X129375297Y-96684278D01*
X129360736Y-96682118D01*
X129346457Y-96678541D01*
X129332597Y-96673582D01*
X129319290Y-96667288D01*
X129306664Y-96659720D01*
X129294841Y-96650952D01*
X129283934Y-96641066D01*
X129274048Y-96630159D01*
X129265280Y-96618336D01*
X129257712Y-96605710D01*
X129251418Y-96592403D01*
X129246459Y-96578543D01*
X129242882Y-96564264D01*
X129240722Y-96549703D01*
X129240000Y-96535000D01*
X129240000Y-94785000D01*
X129240722Y-94770297D01*
X129242882Y-94755736D01*
X129246459Y-94741457D01*
X129251418Y-94727597D01*
X129257712Y-94714290D01*
X129265280Y-94701664D01*
X129274048Y-94689841D01*
X129283934Y-94678934D01*
X129294841Y-94669048D01*
X129306664Y-94660280D01*
X129319290Y-94652712D01*
X129332597Y-94646418D01*
X129346457Y-94641459D01*
X129360736Y-94637882D01*
X129375297Y-94635722D01*
X129390000Y-94635000D01*
X129690000Y-94635000D01*
X129704703Y-94635722D01*
X129704703Y-94635722D01*
G37*
D14*
X129540000Y-95660000D03*
D10*
G36*
X128434703Y-94635722D02*
G01*
X128449264Y-94637882D01*
X128463543Y-94641459D01*
X128477403Y-94646418D01*
X128490710Y-94652712D01*
X128503336Y-94660280D01*
X128515159Y-94669048D01*
X128526066Y-94678934D01*
X128535952Y-94689841D01*
X128544720Y-94701664D01*
X128552288Y-94714290D01*
X128558582Y-94727597D01*
X128563541Y-94741457D01*
X128567118Y-94755736D01*
X128569278Y-94770297D01*
X128570000Y-94785000D01*
X128570000Y-96535000D01*
X128569278Y-96549703D01*
X128567118Y-96564264D01*
X128563541Y-96578543D01*
X128558582Y-96592403D01*
X128552288Y-96605710D01*
X128544720Y-96618336D01*
X128535952Y-96630159D01*
X128526066Y-96641066D01*
X128515159Y-96650952D01*
X128503336Y-96659720D01*
X128490710Y-96667288D01*
X128477403Y-96673582D01*
X128463543Y-96678541D01*
X128449264Y-96682118D01*
X128434703Y-96684278D01*
X128420000Y-96685000D01*
X128120000Y-96685000D01*
X128105297Y-96684278D01*
X128090736Y-96682118D01*
X128076457Y-96678541D01*
X128062597Y-96673582D01*
X128049290Y-96667288D01*
X128036664Y-96659720D01*
X128024841Y-96650952D01*
X128013934Y-96641066D01*
X128004048Y-96630159D01*
X127995280Y-96618336D01*
X127987712Y-96605710D01*
X127981418Y-96592403D01*
X127976459Y-96578543D01*
X127972882Y-96564264D01*
X127970722Y-96549703D01*
X127970000Y-96535000D01*
X127970000Y-94785000D01*
X127970722Y-94770297D01*
X127972882Y-94755736D01*
X127976459Y-94741457D01*
X127981418Y-94727597D01*
X127987712Y-94714290D01*
X127995280Y-94701664D01*
X128004048Y-94689841D01*
X128013934Y-94678934D01*
X128024841Y-94669048D01*
X128036664Y-94660280D01*
X128049290Y-94652712D01*
X128062597Y-94646418D01*
X128076457Y-94641459D01*
X128090736Y-94637882D01*
X128105297Y-94635722D01*
X128120000Y-94635000D01*
X128420000Y-94635000D01*
X128434703Y-94635722D01*
X128434703Y-94635722D01*
G37*
D14*
X128270000Y-95660000D03*
D10*
G36*
X127164703Y-94635722D02*
G01*
X127179264Y-94637882D01*
X127193543Y-94641459D01*
X127207403Y-94646418D01*
X127220710Y-94652712D01*
X127233336Y-94660280D01*
X127245159Y-94669048D01*
X127256066Y-94678934D01*
X127265952Y-94689841D01*
X127274720Y-94701664D01*
X127282288Y-94714290D01*
X127288582Y-94727597D01*
X127293541Y-94741457D01*
X127297118Y-94755736D01*
X127299278Y-94770297D01*
X127300000Y-94785000D01*
X127300000Y-96535000D01*
X127299278Y-96549703D01*
X127297118Y-96564264D01*
X127293541Y-96578543D01*
X127288582Y-96592403D01*
X127282288Y-96605710D01*
X127274720Y-96618336D01*
X127265952Y-96630159D01*
X127256066Y-96641066D01*
X127245159Y-96650952D01*
X127233336Y-96659720D01*
X127220710Y-96667288D01*
X127207403Y-96673582D01*
X127193543Y-96678541D01*
X127179264Y-96682118D01*
X127164703Y-96684278D01*
X127150000Y-96685000D01*
X126850000Y-96685000D01*
X126835297Y-96684278D01*
X126820736Y-96682118D01*
X126806457Y-96678541D01*
X126792597Y-96673582D01*
X126779290Y-96667288D01*
X126766664Y-96659720D01*
X126754841Y-96650952D01*
X126743934Y-96641066D01*
X126734048Y-96630159D01*
X126725280Y-96618336D01*
X126717712Y-96605710D01*
X126711418Y-96592403D01*
X126706459Y-96578543D01*
X126702882Y-96564264D01*
X126700722Y-96549703D01*
X126700000Y-96535000D01*
X126700000Y-94785000D01*
X126700722Y-94770297D01*
X126702882Y-94755736D01*
X126706459Y-94741457D01*
X126711418Y-94727597D01*
X126717712Y-94714290D01*
X126725280Y-94701664D01*
X126734048Y-94689841D01*
X126743934Y-94678934D01*
X126754841Y-94669048D01*
X126766664Y-94660280D01*
X126779290Y-94652712D01*
X126792597Y-94646418D01*
X126806457Y-94641459D01*
X126820736Y-94637882D01*
X126835297Y-94635722D01*
X126850000Y-94635000D01*
X127150000Y-94635000D01*
X127164703Y-94635722D01*
X127164703Y-94635722D01*
G37*
D14*
X127000000Y-95660000D03*
D10*
G36*
X125894703Y-94635722D02*
G01*
X125909264Y-94637882D01*
X125923543Y-94641459D01*
X125937403Y-94646418D01*
X125950710Y-94652712D01*
X125963336Y-94660280D01*
X125975159Y-94669048D01*
X125986066Y-94678934D01*
X125995952Y-94689841D01*
X126004720Y-94701664D01*
X126012288Y-94714290D01*
X126018582Y-94727597D01*
X126023541Y-94741457D01*
X126027118Y-94755736D01*
X126029278Y-94770297D01*
X126030000Y-94785000D01*
X126030000Y-96535000D01*
X126029278Y-96549703D01*
X126027118Y-96564264D01*
X126023541Y-96578543D01*
X126018582Y-96592403D01*
X126012288Y-96605710D01*
X126004720Y-96618336D01*
X125995952Y-96630159D01*
X125986066Y-96641066D01*
X125975159Y-96650952D01*
X125963336Y-96659720D01*
X125950710Y-96667288D01*
X125937403Y-96673582D01*
X125923543Y-96678541D01*
X125909264Y-96682118D01*
X125894703Y-96684278D01*
X125880000Y-96685000D01*
X125580000Y-96685000D01*
X125565297Y-96684278D01*
X125550736Y-96682118D01*
X125536457Y-96678541D01*
X125522597Y-96673582D01*
X125509290Y-96667288D01*
X125496664Y-96659720D01*
X125484841Y-96650952D01*
X125473934Y-96641066D01*
X125464048Y-96630159D01*
X125455280Y-96618336D01*
X125447712Y-96605710D01*
X125441418Y-96592403D01*
X125436459Y-96578543D01*
X125432882Y-96564264D01*
X125430722Y-96549703D01*
X125430000Y-96535000D01*
X125430000Y-94785000D01*
X125430722Y-94770297D01*
X125432882Y-94755736D01*
X125436459Y-94741457D01*
X125441418Y-94727597D01*
X125447712Y-94714290D01*
X125455280Y-94701664D01*
X125464048Y-94689841D01*
X125473934Y-94678934D01*
X125484841Y-94669048D01*
X125496664Y-94660280D01*
X125509290Y-94652712D01*
X125522597Y-94646418D01*
X125536457Y-94641459D01*
X125550736Y-94637882D01*
X125565297Y-94635722D01*
X125580000Y-94635000D01*
X125880000Y-94635000D01*
X125894703Y-94635722D01*
X125894703Y-94635722D01*
G37*
D14*
X125730000Y-95660000D03*
D10*
G36*
X124624703Y-94635722D02*
G01*
X124639264Y-94637882D01*
X124653543Y-94641459D01*
X124667403Y-94646418D01*
X124680710Y-94652712D01*
X124693336Y-94660280D01*
X124705159Y-94669048D01*
X124716066Y-94678934D01*
X124725952Y-94689841D01*
X124734720Y-94701664D01*
X124742288Y-94714290D01*
X124748582Y-94727597D01*
X124753541Y-94741457D01*
X124757118Y-94755736D01*
X124759278Y-94770297D01*
X124760000Y-94785000D01*
X124760000Y-96535000D01*
X124759278Y-96549703D01*
X124757118Y-96564264D01*
X124753541Y-96578543D01*
X124748582Y-96592403D01*
X124742288Y-96605710D01*
X124734720Y-96618336D01*
X124725952Y-96630159D01*
X124716066Y-96641066D01*
X124705159Y-96650952D01*
X124693336Y-96659720D01*
X124680710Y-96667288D01*
X124667403Y-96673582D01*
X124653543Y-96678541D01*
X124639264Y-96682118D01*
X124624703Y-96684278D01*
X124610000Y-96685000D01*
X124310000Y-96685000D01*
X124295297Y-96684278D01*
X124280736Y-96682118D01*
X124266457Y-96678541D01*
X124252597Y-96673582D01*
X124239290Y-96667288D01*
X124226664Y-96659720D01*
X124214841Y-96650952D01*
X124203934Y-96641066D01*
X124194048Y-96630159D01*
X124185280Y-96618336D01*
X124177712Y-96605710D01*
X124171418Y-96592403D01*
X124166459Y-96578543D01*
X124162882Y-96564264D01*
X124160722Y-96549703D01*
X124160000Y-96535000D01*
X124160000Y-94785000D01*
X124160722Y-94770297D01*
X124162882Y-94755736D01*
X124166459Y-94741457D01*
X124171418Y-94727597D01*
X124177712Y-94714290D01*
X124185280Y-94701664D01*
X124194048Y-94689841D01*
X124203934Y-94678934D01*
X124214841Y-94669048D01*
X124226664Y-94660280D01*
X124239290Y-94652712D01*
X124252597Y-94646418D01*
X124266457Y-94641459D01*
X124280736Y-94637882D01*
X124295297Y-94635722D01*
X124310000Y-94635000D01*
X124610000Y-94635000D01*
X124624703Y-94635722D01*
X124624703Y-94635722D01*
G37*
D14*
X124460000Y-95660000D03*
D10*
G36*
X123354703Y-94635722D02*
G01*
X123369264Y-94637882D01*
X123383543Y-94641459D01*
X123397403Y-94646418D01*
X123410710Y-94652712D01*
X123423336Y-94660280D01*
X123435159Y-94669048D01*
X123446066Y-94678934D01*
X123455952Y-94689841D01*
X123464720Y-94701664D01*
X123472288Y-94714290D01*
X123478582Y-94727597D01*
X123483541Y-94741457D01*
X123487118Y-94755736D01*
X123489278Y-94770297D01*
X123490000Y-94785000D01*
X123490000Y-96535000D01*
X123489278Y-96549703D01*
X123487118Y-96564264D01*
X123483541Y-96578543D01*
X123478582Y-96592403D01*
X123472288Y-96605710D01*
X123464720Y-96618336D01*
X123455952Y-96630159D01*
X123446066Y-96641066D01*
X123435159Y-96650952D01*
X123423336Y-96659720D01*
X123410710Y-96667288D01*
X123397403Y-96673582D01*
X123383543Y-96678541D01*
X123369264Y-96682118D01*
X123354703Y-96684278D01*
X123340000Y-96685000D01*
X123040000Y-96685000D01*
X123025297Y-96684278D01*
X123010736Y-96682118D01*
X122996457Y-96678541D01*
X122982597Y-96673582D01*
X122969290Y-96667288D01*
X122956664Y-96659720D01*
X122944841Y-96650952D01*
X122933934Y-96641066D01*
X122924048Y-96630159D01*
X122915280Y-96618336D01*
X122907712Y-96605710D01*
X122901418Y-96592403D01*
X122896459Y-96578543D01*
X122892882Y-96564264D01*
X122890722Y-96549703D01*
X122890000Y-96535000D01*
X122890000Y-94785000D01*
X122890722Y-94770297D01*
X122892882Y-94755736D01*
X122896459Y-94741457D01*
X122901418Y-94727597D01*
X122907712Y-94714290D01*
X122915280Y-94701664D01*
X122924048Y-94689841D01*
X122933934Y-94678934D01*
X122944841Y-94669048D01*
X122956664Y-94660280D01*
X122969290Y-94652712D01*
X122982597Y-94646418D01*
X122996457Y-94641459D01*
X123010736Y-94637882D01*
X123025297Y-94635722D01*
X123040000Y-94635000D01*
X123340000Y-94635000D01*
X123354703Y-94635722D01*
X123354703Y-94635722D01*
G37*
D14*
X123190000Y-95660000D03*
D10*
G36*
X122084703Y-94635722D02*
G01*
X122099264Y-94637882D01*
X122113543Y-94641459D01*
X122127403Y-94646418D01*
X122140710Y-94652712D01*
X122153336Y-94660280D01*
X122165159Y-94669048D01*
X122176066Y-94678934D01*
X122185952Y-94689841D01*
X122194720Y-94701664D01*
X122202288Y-94714290D01*
X122208582Y-94727597D01*
X122213541Y-94741457D01*
X122217118Y-94755736D01*
X122219278Y-94770297D01*
X122220000Y-94785000D01*
X122220000Y-96535000D01*
X122219278Y-96549703D01*
X122217118Y-96564264D01*
X122213541Y-96578543D01*
X122208582Y-96592403D01*
X122202288Y-96605710D01*
X122194720Y-96618336D01*
X122185952Y-96630159D01*
X122176066Y-96641066D01*
X122165159Y-96650952D01*
X122153336Y-96659720D01*
X122140710Y-96667288D01*
X122127403Y-96673582D01*
X122113543Y-96678541D01*
X122099264Y-96682118D01*
X122084703Y-96684278D01*
X122070000Y-96685000D01*
X121770000Y-96685000D01*
X121755297Y-96684278D01*
X121740736Y-96682118D01*
X121726457Y-96678541D01*
X121712597Y-96673582D01*
X121699290Y-96667288D01*
X121686664Y-96659720D01*
X121674841Y-96650952D01*
X121663934Y-96641066D01*
X121654048Y-96630159D01*
X121645280Y-96618336D01*
X121637712Y-96605710D01*
X121631418Y-96592403D01*
X121626459Y-96578543D01*
X121622882Y-96564264D01*
X121620722Y-96549703D01*
X121620000Y-96535000D01*
X121620000Y-94785000D01*
X121620722Y-94770297D01*
X121622882Y-94755736D01*
X121626459Y-94741457D01*
X121631418Y-94727597D01*
X121637712Y-94714290D01*
X121645280Y-94701664D01*
X121654048Y-94689841D01*
X121663934Y-94678934D01*
X121674841Y-94669048D01*
X121686664Y-94660280D01*
X121699290Y-94652712D01*
X121712597Y-94646418D01*
X121726457Y-94641459D01*
X121740736Y-94637882D01*
X121755297Y-94635722D01*
X121770000Y-94635000D01*
X122070000Y-94635000D01*
X122084703Y-94635722D01*
X122084703Y-94635722D01*
G37*
D14*
X121920000Y-95660000D03*
D10*
G36*
X120814703Y-94635722D02*
G01*
X120829264Y-94637882D01*
X120843543Y-94641459D01*
X120857403Y-94646418D01*
X120870710Y-94652712D01*
X120883336Y-94660280D01*
X120895159Y-94669048D01*
X120906066Y-94678934D01*
X120915952Y-94689841D01*
X120924720Y-94701664D01*
X120932288Y-94714290D01*
X120938582Y-94727597D01*
X120943541Y-94741457D01*
X120947118Y-94755736D01*
X120949278Y-94770297D01*
X120950000Y-94785000D01*
X120950000Y-96535000D01*
X120949278Y-96549703D01*
X120947118Y-96564264D01*
X120943541Y-96578543D01*
X120938582Y-96592403D01*
X120932288Y-96605710D01*
X120924720Y-96618336D01*
X120915952Y-96630159D01*
X120906066Y-96641066D01*
X120895159Y-96650952D01*
X120883336Y-96659720D01*
X120870710Y-96667288D01*
X120857403Y-96673582D01*
X120843543Y-96678541D01*
X120829264Y-96682118D01*
X120814703Y-96684278D01*
X120800000Y-96685000D01*
X120500000Y-96685000D01*
X120485297Y-96684278D01*
X120470736Y-96682118D01*
X120456457Y-96678541D01*
X120442597Y-96673582D01*
X120429290Y-96667288D01*
X120416664Y-96659720D01*
X120404841Y-96650952D01*
X120393934Y-96641066D01*
X120384048Y-96630159D01*
X120375280Y-96618336D01*
X120367712Y-96605710D01*
X120361418Y-96592403D01*
X120356459Y-96578543D01*
X120352882Y-96564264D01*
X120350722Y-96549703D01*
X120350000Y-96535000D01*
X120350000Y-94785000D01*
X120350722Y-94770297D01*
X120352882Y-94755736D01*
X120356459Y-94741457D01*
X120361418Y-94727597D01*
X120367712Y-94714290D01*
X120375280Y-94701664D01*
X120384048Y-94689841D01*
X120393934Y-94678934D01*
X120404841Y-94669048D01*
X120416664Y-94660280D01*
X120429290Y-94652712D01*
X120442597Y-94646418D01*
X120456457Y-94641459D01*
X120470736Y-94637882D01*
X120485297Y-94635722D01*
X120500000Y-94635000D01*
X120800000Y-94635000D01*
X120814703Y-94635722D01*
X120814703Y-94635722D01*
G37*
D14*
X120650000Y-95660000D03*
D10*
G36*
X119544703Y-94635722D02*
G01*
X119559264Y-94637882D01*
X119573543Y-94641459D01*
X119587403Y-94646418D01*
X119600710Y-94652712D01*
X119613336Y-94660280D01*
X119625159Y-94669048D01*
X119636066Y-94678934D01*
X119645952Y-94689841D01*
X119654720Y-94701664D01*
X119662288Y-94714290D01*
X119668582Y-94727597D01*
X119673541Y-94741457D01*
X119677118Y-94755736D01*
X119679278Y-94770297D01*
X119680000Y-94785000D01*
X119680000Y-96535000D01*
X119679278Y-96549703D01*
X119677118Y-96564264D01*
X119673541Y-96578543D01*
X119668582Y-96592403D01*
X119662288Y-96605710D01*
X119654720Y-96618336D01*
X119645952Y-96630159D01*
X119636066Y-96641066D01*
X119625159Y-96650952D01*
X119613336Y-96659720D01*
X119600710Y-96667288D01*
X119587403Y-96673582D01*
X119573543Y-96678541D01*
X119559264Y-96682118D01*
X119544703Y-96684278D01*
X119530000Y-96685000D01*
X119230000Y-96685000D01*
X119215297Y-96684278D01*
X119200736Y-96682118D01*
X119186457Y-96678541D01*
X119172597Y-96673582D01*
X119159290Y-96667288D01*
X119146664Y-96659720D01*
X119134841Y-96650952D01*
X119123934Y-96641066D01*
X119114048Y-96630159D01*
X119105280Y-96618336D01*
X119097712Y-96605710D01*
X119091418Y-96592403D01*
X119086459Y-96578543D01*
X119082882Y-96564264D01*
X119080722Y-96549703D01*
X119080000Y-96535000D01*
X119080000Y-94785000D01*
X119080722Y-94770297D01*
X119082882Y-94755736D01*
X119086459Y-94741457D01*
X119091418Y-94727597D01*
X119097712Y-94714290D01*
X119105280Y-94701664D01*
X119114048Y-94689841D01*
X119123934Y-94678934D01*
X119134841Y-94669048D01*
X119146664Y-94660280D01*
X119159290Y-94652712D01*
X119172597Y-94646418D01*
X119186457Y-94641459D01*
X119200736Y-94637882D01*
X119215297Y-94635722D01*
X119230000Y-94635000D01*
X119530000Y-94635000D01*
X119544703Y-94635722D01*
X119544703Y-94635722D01*
G37*
D14*
X119380000Y-95660000D03*
D10*
G36*
X137126505Y-94168204D02*
G01*
X137150773Y-94171804D01*
X137174572Y-94177765D01*
X137197671Y-94186030D01*
X137219850Y-94196520D01*
X137240893Y-94209132D01*
X137260599Y-94223747D01*
X137278777Y-94240223D01*
X137295253Y-94258401D01*
X137309868Y-94278107D01*
X137322480Y-94299150D01*
X137332970Y-94321329D01*
X137341235Y-94344428D01*
X137347196Y-94368227D01*
X137350796Y-94392495D01*
X137352000Y-94416999D01*
X137352000Y-95067001D01*
X137350796Y-95091505D01*
X137347196Y-95115773D01*
X137341235Y-95139572D01*
X137332970Y-95162671D01*
X137322480Y-95184850D01*
X137309868Y-95205893D01*
X137295253Y-95225599D01*
X137278777Y-95243777D01*
X137260599Y-95260253D01*
X137240893Y-95274868D01*
X137219850Y-95287480D01*
X137197671Y-95297970D01*
X137174572Y-95306235D01*
X137150773Y-95312196D01*
X137126505Y-95315796D01*
X137102001Y-95317000D01*
X136201999Y-95317000D01*
X136177495Y-95315796D01*
X136153227Y-95312196D01*
X136129428Y-95306235D01*
X136106329Y-95297970D01*
X136084150Y-95287480D01*
X136063107Y-95274868D01*
X136043401Y-95260253D01*
X136025223Y-95243777D01*
X136008747Y-95225599D01*
X135994132Y-95205893D01*
X135981520Y-95184850D01*
X135971030Y-95162671D01*
X135962765Y-95139572D01*
X135956804Y-95115773D01*
X135953204Y-95091505D01*
X135952000Y-95067001D01*
X135952000Y-94416999D01*
X135953204Y-94392495D01*
X135956804Y-94368227D01*
X135962765Y-94344428D01*
X135971030Y-94321329D01*
X135981520Y-94299150D01*
X135994132Y-94278107D01*
X136008747Y-94258401D01*
X136025223Y-94240223D01*
X136043401Y-94223747D01*
X136063107Y-94209132D01*
X136084150Y-94196520D01*
X136106329Y-94186030D01*
X136129428Y-94177765D01*
X136153227Y-94171804D01*
X136177495Y-94168204D01*
X136201999Y-94167000D01*
X137102001Y-94167000D01*
X137126505Y-94168204D01*
X137126505Y-94168204D01*
G37*
D12*
X136652000Y-94742000D03*
D10*
G36*
X137126505Y-92118204D02*
G01*
X137150773Y-92121804D01*
X137174572Y-92127765D01*
X137197671Y-92136030D01*
X137219850Y-92146520D01*
X137240893Y-92159132D01*
X137260599Y-92173747D01*
X137278777Y-92190223D01*
X137295253Y-92208401D01*
X137309868Y-92228107D01*
X137322480Y-92249150D01*
X137332970Y-92271329D01*
X137341235Y-92294428D01*
X137347196Y-92318227D01*
X137350796Y-92342495D01*
X137352000Y-92366999D01*
X137352000Y-93017001D01*
X137350796Y-93041505D01*
X137347196Y-93065773D01*
X137341235Y-93089572D01*
X137332970Y-93112671D01*
X137322480Y-93134850D01*
X137309868Y-93155893D01*
X137295253Y-93175599D01*
X137278777Y-93193777D01*
X137260599Y-93210253D01*
X137240893Y-93224868D01*
X137219850Y-93237480D01*
X137197671Y-93247970D01*
X137174572Y-93256235D01*
X137150773Y-93262196D01*
X137126505Y-93265796D01*
X137102001Y-93267000D01*
X136201999Y-93267000D01*
X136177495Y-93265796D01*
X136153227Y-93262196D01*
X136129428Y-93256235D01*
X136106329Y-93247970D01*
X136084150Y-93237480D01*
X136063107Y-93224868D01*
X136043401Y-93210253D01*
X136025223Y-93193777D01*
X136008747Y-93175599D01*
X135994132Y-93155893D01*
X135981520Y-93134850D01*
X135971030Y-93112671D01*
X135962765Y-93089572D01*
X135956804Y-93065773D01*
X135953204Y-93041505D01*
X135952000Y-93017001D01*
X135952000Y-92366999D01*
X135953204Y-92342495D01*
X135956804Y-92318227D01*
X135962765Y-92294428D01*
X135971030Y-92271329D01*
X135981520Y-92249150D01*
X135994132Y-92228107D01*
X136008747Y-92208401D01*
X136025223Y-92190223D01*
X136043401Y-92173747D01*
X136063107Y-92159132D01*
X136084150Y-92146520D01*
X136106329Y-92136030D01*
X136129428Y-92127765D01*
X136153227Y-92121804D01*
X136177495Y-92118204D01*
X136201999Y-92117000D01*
X137102001Y-92117000D01*
X137126505Y-92118204D01*
X137126505Y-92118204D01*
G37*
D12*
X136652000Y-92692000D03*
M02*
