G04 #@! TF.GenerationSoftware,KiCad,Pcbnew,(5.0.2)-1*
G04 #@! TF.CreationDate,2019-03-16T10:11:32-05:00*
G04 #@! TF.ProjectId,CCDBoard_Hardware,43434442-6f61-4726-945f-486172647761,rev?*
G04 #@! TF.SameCoordinates,Original*
G04 #@! TF.FileFunction,Copper,L1,Top*
G04 #@! TF.FilePolarity,Positive*
%FSLAX46Y46*%
G04 Gerber Fmt 4.6, Leading zero omitted, Abs format (unit mm)*
G04 Created by KiCad (PCBNEW (5.0.2)-1) date 3/16/2019 10:11:32 AM*
%MOMM*%
%LPD*%
G01*
G04 APERTURE LIST*
G04 #@! TA.AperFunction,ComponentPad*
%ADD10C,1.200000*%
G04 #@! TD*
G04 #@! TA.AperFunction,ComponentPad*
%ADD11C,1.524000*%
G04 #@! TD*
G04 #@! TA.AperFunction,Conductor*
%ADD12C,0.381000*%
G04 #@! TD*
G04 #@! TA.AperFunction,Conductor*
%ADD13C,0.762000*%
G04 #@! TD*
G04 #@! TA.AperFunction,Conductor*
%ADD14C,0.254000*%
G04 #@! TD*
G04 APERTURE END LIST*
D10*
G04 #@! TO.P,U1,22*
G04 #@! TO.N,GND*
X12700000Y2540000D03*
G04 #@! TO.P,U1,21*
G04 #@! TO.N,OS*
X15240000Y2540000D03*
G04 #@! TO.P,U1,20*
G04 #@! TO.N,N/C*
X17780000Y2540000D03*
G04 #@! TO.P,U1,19*
X20320000Y2540000D03*
G04 #@! TO.P,U1,18*
X22860000Y2540000D03*
G04 #@! TO.P,U1,17*
X25400000Y2540000D03*
G04 #@! TO.P,U1,16*
X27940000Y2540000D03*
G04 #@! TO.P,U1,15*
X30480000Y2540000D03*
G04 #@! TO.P,U1,14*
X33020000Y2540000D03*
G04 #@! TO.P,U1,13*
X35560000Y2540000D03*
G04 #@! TO.P,U1,12*
X38100000Y2540000D03*
G04 #@! TO.P,U1,11*
X38100000Y12700000D03*
G04 #@! TO.P,U1,10*
X35560000Y12700000D03*
G04 #@! TO.P,U1,9*
X33020000Y12700000D03*
G04 #@! TO.P,U1,8*
X30480000Y12700000D03*
G04 #@! TO.P,U1,7*
X27940000Y12700000D03*
G04 #@! TO.P,U1,6*
X25400000Y12700000D03*
G04 #@! TO.P,U1,5*
G04 #@! TO.N,SH*
X22860000Y12700000D03*
G04 #@! TO.P,U1,4*
G04 #@! TO.N,M*
X20320000Y12700000D03*
G04 #@! TO.P,U1,3*
G04 #@! TO.N,ICG*
X17780000Y12700000D03*
G04 #@! TO.P,U1,2*
G04 #@! TO.N,+3V3*
X15240000Y12700000D03*
G04 #@! TO.P,U1,1*
X12700000Y12700000D03*
G04 #@! TD*
D11*
G04 #@! TO.P,Conn1,1*
G04 #@! TO.N,+3V3*
X33020000Y17780000D03*
G04 #@! TO.P,Conn1,2*
G04 #@! TO.N,Sync2*
X35560000Y17780000D03*
G04 #@! TO.P,Conn1,3*
G04 #@! TO.N,Sync1*
X38100000Y17780000D03*
G04 #@! TO.P,Conn1,4*
G04 #@! TO.N,OS*
X40640000Y17780000D03*
G04 #@! TO.P,Conn1,5*
G04 #@! TO.N,GND*
X43180000Y17780000D03*
G04 #@! TD*
G04 #@! TO.P,Conn2,1*
G04 #@! TO.N,+3V3*
X10160000Y17780000D03*
G04 #@! TO.P,Conn2,2*
G04 #@! TO.N,Sync2*
X12700000Y17780000D03*
G04 #@! TO.P,Conn2,3*
G04 #@! TO.N,Sync1*
X15240000Y17780000D03*
G04 #@! TO.P,Conn2,4*
G04 #@! TO.N,ICG*
X17780000Y17780000D03*
G04 #@! TO.P,Conn2,5*
G04 #@! TO.N,SH*
X20320000Y17780000D03*
G04 #@! TO.P,Conn2,6*
G04 #@! TO.N,M*
X22860000Y17780000D03*
G04 #@! TO.P,Conn2,7*
G04 #@! TO.N,GND*
X25400000Y17780000D03*
G04 #@! TD*
D12*
G04 #@! TO.N,Sync2*
X14224000Y19304000D02*
X12700000Y17780000D01*
X34036000Y19304000D02*
X14224000Y19304000D01*
X35560000Y17780000D02*
X34036000Y19304000D01*
D13*
G04 #@! TO.N,+3V3*
X10160000Y15240000D02*
X12700000Y12700000D01*
X10160000Y17780000D02*
X10160000Y15240000D01*
X12700000Y12700000D02*
X15240000Y12700000D01*
X31750000Y16510000D02*
X33020000Y17780000D01*
X31750000Y11684000D02*
X31750000Y16510000D01*
X30480000Y10414000D02*
X31750000Y11684000D01*
X16677472Y10414000D02*
X30480000Y10414000D01*
X15240000Y11851472D02*
X16677472Y10414000D01*
X15240000Y12700000D02*
X15240000Y11851472D01*
D12*
G04 #@! TO.N,ICG*
X17780000Y16702370D02*
X17780000Y12700000D01*
X17780000Y17780000D02*
X17780000Y16702370D01*
G04 #@! TO.N,SH*
X20320000Y17780000D02*
X19050000Y16510000D01*
X19050000Y16510000D02*
X19050000Y12192000D01*
X19050000Y12192000D02*
X19812000Y11430000D01*
X21590000Y11430000D02*
X22860000Y12700000D01*
X19812000Y11430000D02*
X21590000Y11430000D01*
G04 #@! TO.N,M*
X22860000Y15240000D02*
X20320000Y12700000D01*
X22860000Y17780000D02*
X22860000Y15240000D01*
G04 #@! TO.N,OS*
X15240000Y2540000D02*
X17018000Y4318000D01*
X17018000Y4318000D02*
X39624000Y4318000D01*
X40640000Y5334000D02*
X40640000Y17780000D01*
X39624000Y4318000D02*
X40640000Y5334000D01*
G04 #@! TD*
D14*
G04 #@! TO.N,GND*
G36*
X48713698Y20309042D02*
X49138893Y20140695D01*
X49508858Y19871899D01*
X49800356Y19519538D01*
X49995067Y19105756D01*
X50087093Y18623338D01*
X50090000Y18530836D01*
X50090000Y13790982D01*
X50047246Y13894199D01*
X49454199Y14487246D01*
X48679347Y14808200D01*
X47840653Y14808200D01*
X47065801Y14487246D01*
X46472754Y13894199D01*
X46151800Y13119347D01*
X46151800Y12280653D01*
X46472754Y11505801D01*
X47065801Y10912754D01*
X47840653Y10591800D01*
X48679347Y10591800D01*
X49454199Y10912754D01*
X50047246Y11505801D01*
X50090000Y11609018D01*
X50090001Y3630979D01*
X50047246Y3734199D01*
X49454199Y4327246D01*
X48679347Y4648200D01*
X47840653Y4648200D01*
X47065801Y4327246D01*
X46472754Y3734199D01*
X46151800Y2959347D01*
X46151800Y2120653D01*
X46472754Y1345801D01*
X47065801Y752754D01*
X47169018Y710000D01*
X3630982Y710000D01*
X3734199Y752754D01*
X4327246Y1345801D01*
X4648200Y2120653D01*
X4648200Y2959347D01*
X4327246Y3734199D01*
X3734199Y4327246D01*
X2959347Y4648200D01*
X2120653Y4648200D01*
X1345801Y4327246D01*
X752754Y3734199D01*
X710000Y3630982D01*
X710000Y11609018D01*
X752754Y11505801D01*
X1345801Y10912754D01*
X2120653Y10591800D01*
X2959347Y10591800D01*
X3734199Y10912754D01*
X4327246Y11505801D01*
X4648200Y12280653D01*
X4648200Y13119347D01*
X4327246Y13894199D01*
X3734199Y14487246D01*
X2959347Y14808200D01*
X2120653Y14808200D01*
X1345801Y14487246D01*
X752754Y13894199D01*
X710000Y13790982D01*
X710000Y18057881D01*
X8763000Y18057881D01*
X8763000Y17502119D01*
X8975680Y16988663D01*
X9144000Y16820343D01*
X9144001Y15340068D01*
X9124096Y15240000D01*
X9188165Y14917906D01*
X9202950Y14843577D01*
X9427506Y14507505D01*
X9512338Y14450822D01*
X11465000Y12498159D01*
X11465000Y12454343D01*
X11653018Y12000429D01*
X12000429Y11653018D01*
X12454343Y11465000D01*
X12945657Y11465000D01*
X13399571Y11653018D01*
X13430553Y11684000D01*
X14237408Y11684000D01*
X14282950Y11455049D01*
X14507506Y11118977D01*
X14592337Y11062294D01*
X15888294Y9766337D01*
X15944977Y9681505D01*
X16029808Y9624823D01*
X16281047Y9456950D01*
X16281048Y9456950D01*
X16281049Y9456949D01*
X16577407Y9398000D01*
X16677471Y9378096D01*
X16777535Y9398000D01*
X30379937Y9398000D01*
X30480000Y9378096D01*
X30580063Y9398000D01*
X30580065Y9398000D01*
X30876423Y9456949D01*
X31212495Y9681505D01*
X31269180Y9766339D01*
X32397664Y10894823D01*
X32482495Y10951505D01*
X32707051Y11287577D01*
X32744778Y11477246D01*
X32774343Y11465000D01*
X33265657Y11465000D01*
X33719571Y11653018D01*
X34066982Y12000429D01*
X34255000Y12454343D01*
X34255000Y12945657D01*
X34325000Y12945657D01*
X34325000Y12454343D01*
X34513018Y12000429D01*
X34860429Y11653018D01*
X35314343Y11465000D01*
X35805657Y11465000D01*
X36259571Y11653018D01*
X36606982Y12000429D01*
X36795000Y12454343D01*
X36795000Y12945657D01*
X36865000Y12945657D01*
X36865000Y12454343D01*
X37053018Y12000429D01*
X37400429Y11653018D01*
X37854343Y11465000D01*
X38345657Y11465000D01*
X38799571Y11653018D01*
X39146982Y12000429D01*
X39335000Y12454343D01*
X39335000Y12945657D01*
X39146982Y13399571D01*
X38799571Y13746982D01*
X38345657Y13935000D01*
X37854343Y13935000D01*
X37400429Y13746982D01*
X37053018Y13399571D01*
X36865000Y12945657D01*
X36795000Y12945657D01*
X36606982Y13399571D01*
X36259571Y13746982D01*
X35805657Y13935000D01*
X35314343Y13935000D01*
X34860429Y13746982D01*
X34513018Y13399571D01*
X34325000Y12945657D01*
X34255000Y12945657D01*
X34066982Y13399571D01*
X33719571Y13746982D01*
X33265657Y13935000D01*
X32774343Y13935000D01*
X32766000Y13931544D01*
X32766000Y16089160D01*
X33059840Y16383000D01*
X33297881Y16383000D01*
X33811337Y16595680D01*
X34204320Y16988663D01*
X34290000Y17195513D01*
X34375680Y16988663D01*
X34768663Y16595680D01*
X35282119Y16383000D01*
X35837881Y16383000D01*
X36351337Y16595680D01*
X36744320Y16988663D01*
X36830000Y17195513D01*
X36915680Y16988663D01*
X37308663Y16595680D01*
X37822119Y16383000D01*
X38377881Y16383000D01*
X38891337Y16595680D01*
X39284320Y16988663D01*
X39370000Y17195513D01*
X39455680Y16988663D01*
X39814501Y16629842D01*
X39814500Y5675933D01*
X39282068Y5143500D01*
X17099303Y5143500D01*
X17018000Y5159672D01*
X16695905Y5095604D01*
X16570645Y5011907D01*
X16422848Y4913152D01*
X16376793Y4844226D01*
X15307568Y3775000D01*
X14994343Y3775000D01*
X14540429Y3586982D01*
X14193018Y3239571D01*
X14005000Y2785657D01*
X14005000Y2294343D01*
X14193018Y1840429D01*
X14540429Y1493018D01*
X14994343Y1305000D01*
X15485657Y1305000D01*
X15939571Y1493018D01*
X16286982Y1840429D01*
X16475000Y2294343D01*
X16475000Y2607568D01*
X16545000Y2677568D01*
X16545000Y2294343D01*
X16733018Y1840429D01*
X17080429Y1493018D01*
X17534343Y1305000D01*
X18025657Y1305000D01*
X18479571Y1493018D01*
X18826982Y1840429D01*
X19015000Y2294343D01*
X19015000Y2785657D01*
X18826982Y3239571D01*
X18574053Y3492500D01*
X19525947Y3492500D01*
X19273018Y3239571D01*
X19085000Y2785657D01*
X19085000Y2294343D01*
X19273018Y1840429D01*
X19620429Y1493018D01*
X20074343Y1305000D01*
X20565657Y1305000D01*
X21019571Y1493018D01*
X21366982Y1840429D01*
X21555000Y2294343D01*
X21555000Y2785657D01*
X21366982Y3239571D01*
X21114053Y3492500D01*
X22065947Y3492500D01*
X21813018Y3239571D01*
X21625000Y2785657D01*
X21625000Y2294343D01*
X21813018Y1840429D01*
X22160429Y1493018D01*
X22614343Y1305000D01*
X23105657Y1305000D01*
X23559571Y1493018D01*
X23906982Y1840429D01*
X24095000Y2294343D01*
X24095000Y2785657D01*
X23906982Y3239571D01*
X23654053Y3492500D01*
X24605947Y3492500D01*
X24353018Y3239571D01*
X24165000Y2785657D01*
X24165000Y2294343D01*
X24353018Y1840429D01*
X24700429Y1493018D01*
X25154343Y1305000D01*
X25645657Y1305000D01*
X26099571Y1493018D01*
X26446982Y1840429D01*
X26635000Y2294343D01*
X26635000Y2785657D01*
X26446982Y3239571D01*
X26194053Y3492500D01*
X27145947Y3492500D01*
X26893018Y3239571D01*
X26705000Y2785657D01*
X26705000Y2294343D01*
X26893018Y1840429D01*
X27240429Y1493018D01*
X27694343Y1305000D01*
X28185657Y1305000D01*
X28639571Y1493018D01*
X28986982Y1840429D01*
X29175000Y2294343D01*
X29175000Y2785657D01*
X28986982Y3239571D01*
X28734053Y3492500D01*
X29685947Y3492500D01*
X29433018Y3239571D01*
X29245000Y2785657D01*
X29245000Y2294343D01*
X29433018Y1840429D01*
X29780429Y1493018D01*
X30234343Y1305000D01*
X30725657Y1305000D01*
X31179571Y1493018D01*
X31526982Y1840429D01*
X31715000Y2294343D01*
X31715000Y2785657D01*
X31526982Y3239571D01*
X31274053Y3492500D01*
X32225947Y3492500D01*
X31973018Y3239571D01*
X31785000Y2785657D01*
X31785000Y2294343D01*
X31973018Y1840429D01*
X32320429Y1493018D01*
X32774343Y1305000D01*
X33265657Y1305000D01*
X33719571Y1493018D01*
X34066982Y1840429D01*
X34255000Y2294343D01*
X34255000Y2785657D01*
X34066982Y3239571D01*
X33814053Y3492500D01*
X34765947Y3492500D01*
X34513018Y3239571D01*
X34325000Y2785657D01*
X34325000Y2294343D01*
X34513018Y1840429D01*
X34860429Y1493018D01*
X35314343Y1305000D01*
X35805657Y1305000D01*
X36259571Y1493018D01*
X36606982Y1840429D01*
X36795000Y2294343D01*
X36795000Y2785657D01*
X36606982Y3239571D01*
X36354053Y3492500D01*
X37305947Y3492500D01*
X37053018Y3239571D01*
X36865000Y2785657D01*
X36865000Y2294343D01*
X37053018Y1840429D01*
X37400429Y1493018D01*
X37854343Y1305000D01*
X38345657Y1305000D01*
X38799571Y1493018D01*
X39146982Y1840429D01*
X39335000Y2294343D01*
X39335000Y2785657D01*
X39146982Y3239571D01*
X38894053Y3492500D01*
X39542699Y3492500D01*
X39624000Y3476328D01*
X39705301Y3492500D01*
X39705303Y3492500D01*
X39946094Y3540396D01*
X40219152Y3722848D01*
X40265209Y3791777D01*
X41166226Y4692793D01*
X41235152Y4738848D01*
X41417604Y5011906D01*
X41465500Y5252697D01*
X41465500Y5252698D01*
X41481672Y5334000D01*
X41465500Y5415301D01*
X41465500Y16629843D01*
X41824320Y16988663D01*
X42037000Y17502119D01*
X42037000Y18057881D01*
X41824320Y18571337D01*
X41431337Y18964320D01*
X40917881Y19177000D01*
X40362119Y19177000D01*
X39848663Y18964320D01*
X39455680Y18571337D01*
X39370000Y18364487D01*
X39284320Y18571337D01*
X38891337Y18964320D01*
X38377881Y19177000D01*
X37822119Y19177000D01*
X37308663Y18964320D01*
X36915680Y18571337D01*
X36830000Y18364487D01*
X36744320Y18571337D01*
X36351337Y18964320D01*
X35837881Y19177000D01*
X35330433Y19177000D01*
X34677209Y19830223D01*
X34631152Y19899152D01*
X34358094Y20081604D01*
X34117303Y20129500D01*
X34117301Y20129500D01*
X34036000Y20145672D01*
X33954699Y20129500D01*
X14305297Y20129500D01*
X14223999Y20145671D01*
X14142701Y20129500D01*
X14142697Y20129500D01*
X13901906Y20081604D01*
X13808784Y20019382D01*
X13697772Y19945206D01*
X13697771Y19945205D01*
X13628848Y19899152D01*
X13582795Y19830229D01*
X12929567Y19177000D01*
X12422119Y19177000D01*
X11908663Y18964320D01*
X11515680Y18571337D01*
X11430000Y18364487D01*
X11344320Y18571337D01*
X10951337Y18964320D01*
X10437881Y19177000D01*
X9882119Y19177000D01*
X9368663Y18964320D01*
X8975680Y18571337D01*
X8763000Y18057881D01*
X710000Y18057881D01*
X710000Y18497334D01*
X772958Y18995698D01*
X941305Y19420893D01*
X1210101Y19790858D01*
X1562462Y20082356D01*
X1976244Y20277067D01*
X2458662Y20369093D01*
X2551164Y20372000D01*
X48215334Y20372000D01*
X48713698Y20309042D01*
X48713698Y20309042D01*
G37*
X48713698Y20309042D02*
X49138893Y20140695D01*
X49508858Y19871899D01*
X49800356Y19519538D01*
X49995067Y19105756D01*
X50087093Y18623338D01*
X50090000Y18530836D01*
X50090000Y13790982D01*
X50047246Y13894199D01*
X49454199Y14487246D01*
X48679347Y14808200D01*
X47840653Y14808200D01*
X47065801Y14487246D01*
X46472754Y13894199D01*
X46151800Y13119347D01*
X46151800Y12280653D01*
X46472754Y11505801D01*
X47065801Y10912754D01*
X47840653Y10591800D01*
X48679347Y10591800D01*
X49454199Y10912754D01*
X50047246Y11505801D01*
X50090000Y11609018D01*
X50090001Y3630979D01*
X50047246Y3734199D01*
X49454199Y4327246D01*
X48679347Y4648200D01*
X47840653Y4648200D01*
X47065801Y4327246D01*
X46472754Y3734199D01*
X46151800Y2959347D01*
X46151800Y2120653D01*
X46472754Y1345801D01*
X47065801Y752754D01*
X47169018Y710000D01*
X3630982Y710000D01*
X3734199Y752754D01*
X4327246Y1345801D01*
X4648200Y2120653D01*
X4648200Y2959347D01*
X4327246Y3734199D01*
X3734199Y4327246D01*
X2959347Y4648200D01*
X2120653Y4648200D01*
X1345801Y4327246D01*
X752754Y3734199D01*
X710000Y3630982D01*
X710000Y11609018D01*
X752754Y11505801D01*
X1345801Y10912754D01*
X2120653Y10591800D01*
X2959347Y10591800D01*
X3734199Y10912754D01*
X4327246Y11505801D01*
X4648200Y12280653D01*
X4648200Y13119347D01*
X4327246Y13894199D01*
X3734199Y14487246D01*
X2959347Y14808200D01*
X2120653Y14808200D01*
X1345801Y14487246D01*
X752754Y13894199D01*
X710000Y13790982D01*
X710000Y18057881D01*
X8763000Y18057881D01*
X8763000Y17502119D01*
X8975680Y16988663D01*
X9144000Y16820343D01*
X9144001Y15340068D01*
X9124096Y15240000D01*
X9188165Y14917906D01*
X9202950Y14843577D01*
X9427506Y14507505D01*
X9512338Y14450822D01*
X11465000Y12498159D01*
X11465000Y12454343D01*
X11653018Y12000429D01*
X12000429Y11653018D01*
X12454343Y11465000D01*
X12945657Y11465000D01*
X13399571Y11653018D01*
X13430553Y11684000D01*
X14237408Y11684000D01*
X14282950Y11455049D01*
X14507506Y11118977D01*
X14592337Y11062294D01*
X15888294Y9766337D01*
X15944977Y9681505D01*
X16029808Y9624823D01*
X16281047Y9456950D01*
X16281048Y9456950D01*
X16281049Y9456949D01*
X16577407Y9398000D01*
X16677471Y9378096D01*
X16777535Y9398000D01*
X30379937Y9398000D01*
X30480000Y9378096D01*
X30580063Y9398000D01*
X30580065Y9398000D01*
X30876423Y9456949D01*
X31212495Y9681505D01*
X31269180Y9766339D01*
X32397664Y10894823D01*
X32482495Y10951505D01*
X32707051Y11287577D01*
X32744778Y11477246D01*
X32774343Y11465000D01*
X33265657Y11465000D01*
X33719571Y11653018D01*
X34066982Y12000429D01*
X34255000Y12454343D01*
X34255000Y12945657D01*
X34325000Y12945657D01*
X34325000Y12454343D01*
X34513018Y12000429D01*
X34860429Y11653018D01*
X35314343Y11465000D01*
X35805657Y11465000D01*
X36259571Y11653018D01*
X36606982Y12000429D01*
X36795000Y12454343D01*
X36795000Y12945657D01*
X36865000Y12945657D01*
X36865000Y12454343D01*
X37053018Y12000429D01*
X37400429Y11653018D01*
X37854343Y11465000D01*
X38345657Y11465000D01*
X38799571Y11653018D01*
X39146982Y12000429D01*
X39335000Y12454343D01*
X39335000Y12945657D01*
X39146982Y13399571D01*
X38799571Y13746982D01*
X38345657Y13935000D01*
X37854343Y13935000D01*
X37400429Y13746982D01*
X37053018Y13399571D01*
X36865000Y12945657D01*
X36795000Y12945657D01*
X36606982Y13399571D01*
X36259571Y13746982D01*
X35805657Y13935000D01*
X35314343Y13935000D01*
X34860429Y13746982D01*
X34513018Y13399571D01*
X34325000Y12945657D01*
X34255000Y12945657D01*
X34066982Y13399571D01*
X33719571Y13746982D01*
X33265657Y13935000D01*
X32774343Y13935000D01*
X32766000Y13931544D01*
X32766000Y16089160D01*
X33059840Y16383000D01*
X33297881Y16383000D01*
X33811337Y16595680D01*
X34204320Y16988663D01*
X34290000Y17195513D01*
X34375680Y16988663D01*
X34768663Y16595680D01*
X35282119Y16383000D01*
X35837881Y16383000D01*
X36351337Y16595680D01*
X36744320Y16988663D01*
X36830000Y17195513D01*
X36915680Y16988663D01*
X37308663Y16595680D01*
X37822119Y16383000D01*
X38377881Y16383000D01*
X38891337Y16595680D01*
X39284320Y16988663D01*
X39370000Y17195513D01*
X39455680Y16988663D01*
X39814501Y16629842D01*
X39814500Y5675933D01*
X39282068Y5143500D01*
X17099303Y5143500D01*
X17018000Y5159672D01*
X16695905Y5095604D01*
X16570645Y5011907D01*
X16422848Y4913152D01*
X16376793Y4844226D01*
X15307568Y3775000D01*
X14994343Y3775000D01*
X14540429Y3586982D01*
X14193018Y3239571D01*
X14005000Y2785657D01*
X14005000Y2294343D01*
X14193018Y1840429D01*
X14540429Y1493018D01*
X14994343Y1305000D01*
X15485657Y1305000D01*
X15939571Y1493018D01*
X16286982Y1840429D01*
X16475000Y2294343D01*
X16475000Y2607568D01*
X16545000Y2677568D01*
X16545000Y2294343D01*
X16733018Y1840429D01*
X17080429Y1493018D01*
X17534343Y1305000D01*
X18025657Y1305000D01*
X18479571Y1493018D01*
X18826982Y1840429D01*
X19015000Y2294343D01*
X19015000Y2785657D01*
X18826982Y3239571D01*
X18574053Y3492500D01*
X19525947Y3492500D01*
X19273018Y3239571D01*
X19085000Y2785657D01*
X19085000Y2294343D01*
X19273018Y1840429D01*
X19620429Y1493018D01*
X20074343Y1305000D01*
X20565657Y1305000D01*
X21019571Y1493018D01*
X21366982Y1840429D01*
X21555000Y2294343D01*
X21555000Y2785657D01*
X21366982Y3239571D01*
X21114053Y3492500D01*
X22065947Y3492500D01*
X21813018Y3239571D01*
X21625000Y2785657D01*
X21625000Y2294343D01*
X21813018Y1840429D01*
X22160429Y1493018D01*
X22614343Y1305000D01*
X23105657Y1305000D01*
X23559571Y1493018D01*
X23906982Y1840429D01*
X24095000Y2294343D01*
X24095000Y2785657D01*
X23906982Y3239571D01*
X23654053Y3492500D01*
X24605947Y3492500D01*
X24353018Y3239571D01*
X24165000Y2785657D01*
X24165000Y2294343D01*
X24353018Y1840429D01*
X24700429Y1493018D01*
X25154343Y1305000D01*
X25645657Y1305000D01*
X26099571Y1493018D01*
X26446982Y1840429D01*
X26635000Y2294343D01*
X26635000Y2785657D01*
X26446982Y3239571D01*
X26194053Y3492500D01*
X27145947Y3492500D01*
X26893018Y3239571D01*
X26705000Y2785657D01*
X26705000Y2294343D01*
X26893018Y1840429D01*
X27240429Y1493018D01*
X27694343Y1305000D01*
X28185657Y1305000D01*
X28639571Y1493018D01*
X28986982Y1840429D01*
X29175000Y2294343D01*
X29175000Y2785657D01*
X28986982Y3239571D01*
X28734053Y3492500D01*
X29685947Y3492500D01*
X29433018Y3239571D01*
X29245000Y2785657D01*
X29245000Y2294343D01*
X29433018Y1840429D01*
X29780429Y1493018D01*
X30234343Y1305000D01*
X30725657Y1305000D01*
X31179571Y1493018D01*
X31526982Y1840429D01*
X31715000Y2294343D01*
X31715000Y2785657D01*
X31526982Y3239571D01*
X31274053Y3492500D01*
X32225947Y3492500D01*
X31973018Y3239571D01*
X31785000Y2785657D01*
X31785000Y2294343D01*
X31973018Y1840429D01*
X32320429Y1493018D01*
X32774343Y1305000D01*
X33265657Y1305000D01*
X33719571Y1493018D01*
X34066982Y1840429D01*
X34255000Y2294343D01*
X34255000Y2785657D01*
X34066982Y3239571D01*
X33814053Y3492500D01*
X34765947Y3492500D01*
X34513018Y3239571D01*
X34325000Y2785657D01*
X34325000Y2294343D01*
X34513018Y1840429D01*
X34860429Y1493018D01*
X35314343Y1305000D01*
X35805657Y1305000D01*
X36259571Y1493018D01*
X36606982Y1840429D01*
X36795000Y2294343D01*
X36795000Y2785657D01*
X36606982Y3239571D01*
X36354053Y3492500D01*
X37305947Y3492500D01*
X37053018Y3239571D01*
X36865000Y2785657D01*
X36865000Y2294343D01*
X37053018Y1840429D01*
X37400429Y1493018D01*
X37854343Y1305000D01*
X38345657Y1305000D01*
X38799571Y1493018D01*
X39146982Y1840429D01*
X39335000Y2294343D01*
X39335000Y2785657D01*
X39146982Y3239571D01*
X38894053Y3492500D01*
X39542699Y3492500D01*
X39624000Y3476328D01*
X39705301Y3492500D01*
X39705303Y3492500D01*
X39946094Y3540396D01*
X40219152Y3722848D01*
X40265209Y3791777D01*
X41166226Y4692793D01*
X41235152Y4738848D01*
X41417604Y5011906D01*
X41465500Y5252697D01*
X41465500Y5252698D01*
X41481672Y5334000D01*
X41465500Y5415301D01*
X41465500Y16629843D01*
X41824320Y16988663D01*
X42037000Y17502119D01*
X42037000Y18057881D01*
X41824320Y18571337D01*
X41431337Y18964320D01*
X40917881Y19177000D01*
X40362119Y19177000D01*
X39848663Y18964320D01*
X39455680Y18571337D01*
X39370000Y18364487D01*
X39284320Y18571337D01*
X38891337Y18964320D01*
X38377881Y19177000D01*
X37822119Y19177000D01*
X37308663Y18964320D01*
X36915680Y18571337D01*
X36830000Y18364487D01*
X36744320Y18571337D01*
X36351337Y18964320D01*
X35837881Y19177000D01*
X35330433Y19177000D01*
X34677209Y19830223D01*
X34631152Y19899152D01*
X34358094Y20081604D01*
X34117303Y20129500D01*
X34117301Y20129500D01*
X34036000Y20145672D01*
X33954699Y20129500D01*
X14305297Y20129500D01*
X14223999Y20145671D01*
X14142701Y20129500D01*
X14142697Y20129500D01*
X13901906Y20081604D01*
X13808784Y20019382D01*
X13697772Y19945206D01*
X13697771Y19945205D01*
X13628848Y19899152D01*
X13582795Y19830229D01*
X12929567Y19177000D01*
X12422119Y19177000D01*
X11908663Y18964320D01*
X11515680Y18571337D01*
X11430000Y18364487D01*
X11344320Y18571337D01*
X10951337Y18964320D01*
X10437881Y19177000D01*
X9882119Y19177000D01*
X9368663Y18964320D01*
X8975680Y18571337D01*
X8763000Y18057881D01*
X710000Y18057881D01*
X710000Y18497334D01*
X772958Y18995698D01*
X941305Y19420893D01*
X1210101Y19790858D01*
X1562462Y20082356D01*
X1976244Y20277067D01*
X2458662Y20369093D01*
X2551164Y20372000D01*
X48215334Y20372000D01*
X48713698Y20309042D01*
G36*
X31623000Y18057881D02*
X31623000Y17819840D01*
X31102337Y17299177D01*
X31017506Y17242495D01*
X30960823Y17157663D01*
X30792950Y16906423D01*
X30714096Y16510000D01*
X30734001Y16409932D01*
X30734000Y13931544D01*
X30725657Y13935000D01*
X30234343Y13935000D01*
X29780429Y13746982D01*
X29433018Y13399571D01*
X29245000Y12945657D01*
X29245000Y12454343D01*
X29433018Y12000429D01*
X29780429Y11653018D01*
X30135219Y11506059D01*
X30059160Y11430000D01*
X22757432Y11430000D01*
X22792432Y11465000D01*
X23105657Y11465000D01*
X23559571Y11653018D01*
X23906982Y12000429D01*
X24095000Y12454343D01*
X24095000Y12945657D01*
X24165000Y12945657D01*
X24165000Y12454343D01*
X24353018Y12000429D01*
X24700429Y11653018D01*
X25154343Y11465000D01*
X25645657Y11465000D01*
X26099571Y11653018D01*
X26446982Y12000429D01*
X26635000Y12454343D01*
X26635000Y12945657D01*
X26705000Y12945657D01*
X26705000Y12454343D01*
X26893018Y12000429D01*
X27240429Y11653018D01*
X27694343Y11465000D01*
X28185657Y11465000D01*
X28639571Y11653018D01*
X28986982Y12000429D01*
X29175000Y12454343D01*
X29175000Y12945657D01*
X28986982Y13399571D01*
X28639571Y13746982D01*
X28185657Y13935000D01*
X27694343Y13935000D01*
X27240429Y13746982D01*
X26893018Y13399571D01*
X26705000Y12945657D01*
X26635000Y12945657D01*
X26446982Y13399571D01*
X26099571Y13746982D01*
X25645657Y13935000D01*
X25154343Y13935000D01*
X24700429Y13746982D01*
X24353018Y13399571D01*
X24165000Y12945657D01*
X24095000Y12945657D01*
X23906982Y13399571D01*
X23559571Y13746982D01*
X23105657Y13935000D01*
X22722433Y13935000D01*
X23386229Y14598795D01*
X23455152Y14644848D01*
X23637604Y14917906D01*
X23685500Y15158697D01*
X23685500Y15158701D01*
X23701671Y15239999D01*
X23685500Y15321297D01*
X23685500Y16629843D01*
X24044320Y16988663D01*
X24257000Y17502119D01*
X24257000Y18057881D01*
X24082774Y18478500D01*
X31797226Y18478500D01*
X31623000Y18057881D01*
X31623000Y18057881D01*
G37*
X31623000Y18057881D02*
X31623000Y17819840D01*
X31102337Y17299177D01*
X31017506Y17242495D01*
X30960823Y17157663D01*
X30792950Y16906423D01*
X30714096Y16510000D01*
X30734001Y16409932D01*
X30734000Y13931544D01*
X30725657Y13935000D01*
X30234343Y13935000D01*
X29780429Y13746982D01*
X29433018Y13399571D01*
X29245000Y12945657D01*
X29245000Y12454343D01*
X29433018Y12000429D01*
X29780429Y11653018D01*
X30135219Y11506059D01*
X30059160Y11430000D01*
X22757432Y11430000D01*
X22792432Y11465000D01*
X23105657Y11465000D01*
X23559571Y11653018D01*
X23906982Y12000429D01*
X24095000Y12454343D01*
X24095000Y12945657D01*
X24165000Y12945657D01*
X24165000Y12454343D01*
X24353018Y12000429D01*
X24700429Y11653018D01*
X25154343Y11465000D01*
X25645657Y11465000D01*
X26099571Y11653018D01*
X26446982Y12000429D01*
X26635000Y12454343D01*
X26635000Y12945657D01*
X26705000Y12945657D01*
X26705000Y12454343D01*
X26893018Y12000429D01*
X27240429Y11653018D01*
X27694343Y11465000D01*
X28185657Y11465000D01*
X28639571Y11653018D01*
X28986982Y12000429D01*
X29175000Y12454343D01*
X29175000Y12945657D01*
X28986982Y13399571D01*
X28639571Y13746982D01*
X28185657Y13935000D01*
X27694343Y13935000D01*
X27240429Y13746982D01*
X26893018Y13399571D01*
X26705000Y12945657D01*
X26635000Y12945657D01*
X26446982Y13399571D01*
X26099571Y13746982D01*
X25645657Y13935000D01*
X25154343Y13935000D01*
X24700429Y13746982D01*
X24353018Y13399571D01*
X24165000Y12945657D01*
X24095000Y12945657D01*
X23906982Y13399571D01*
X23559571Y13746982D01*
X23105657Y13935000D01*
X22722433Y13935000D01*
X23386229Y14598795D01*
X23455152Y14644848D01*
X23637604Y14917906D01*
X23685500Y15158697D01*
X23685500Y15158701D01*
X23701671Y15239999D01*
X23685500Y15321297D01*
X23685500Y16629843D01*
X24044320Y16988663D01*
X24257000Y17502119D01*
X24257000Y18057881D01*
X24082774Y18478500D01*
X31797226Y18478500D01*
X31623000Y18057881D01*
G04 #@! TD*
M02*
