G04 #@! TF.GenerationSoftware,KiCad,Pcbnew,(5.1.4)-1*
G04 #@! TF.CreationDate,2019-10-15T19:11:32-05:00*
G04 #@! TF.ProjectId,CCDBoard_Hardware,43434442-6f61-4726-945f-486172647761,rev?*
G04 #@! TF.SameCoordinates,Original*
G04 #@! TF.FileFunction,Legend,Top*
G04 #@! TF.FilePolarity,Positive*
%FSLAX46Y46*%
G04 Gerber Fmt 4.6, Leading zero omitted, Abs format (unit mm)*
G04 Created by KiCad (PCBNEW (5.1.4)-1) date 2019-10-15 19:11:32*
%MOMM*%
%LPD*%
G04 APERTURE LIST*
%ADD10C,0.150000*%
%ADD11C,0.010000*%
%ADD12C,0.120000*%
G04 APERTURE END LIST*
D10*
X163705750Y-91884500D02*
X163663416Y-91842166D01*
X163621083Y-91715166D01*
X163621083Y-91630500D01*
X163663416Y-91503500D01*
X163748083Y-91418833D01*
X163832750Y-91376500D01*
X164002083Y-91334166D01*
X164129083Y-91334166D01*
X164298416Y-91376500D01*
X164383083Y-91418833D01*
X164467750Y-91503500D01*
X164510083Y-91630500D01*
X164510083Y-91715166D01*
X164467750Y-91842166D01*
X164425416Y-91884500D01*
X163705750Y-92773500D02*
X163663416Y-92731166D01*
X163621083Y-92604166D01*
X163621083Y-92519500D01*
X163663416Y-92392500D01*
X163748083Y-92307833D01*
X163832750Y-92265500D01*
X164002083Y-92223166D01*
X164129083Y-92223166D01*
X164298416Y-92265500D01*
X164383083Y-92307833D01*
X164467750Y-92392500D01*
X164510083Y-92519500D01*
X164510083Y-92604166D01*
X164467750Y-92731166D01*
X164425416Y-92773500D01*
X163621083Y-93154500D02*
X164510083Y-93154500D01*
X164510083Y-93366166D01*
X164467750Y-93493166D01*
X164383083Y-93577833D01*
X164298416Y-93620166D01*
X164129083Y-93662500D01*
X164002083Y-93662500D01*
X163832750Y-93620166D01*
X163748083Y-93577833D01*
X163663416Y-93493166D01*
X163621083Y-93366166D01*
X163621083Y-93154500D01*
X163663416Y-94085833D02*
X163621083Y-94085833D01*
X163536416Y-94043500D01*
X163494083Y-94001166D01*
X163621083Y-95652166D02*
X164044416Y-95355833D01*
X163621083Y-95144166D02*
X164510083Y-95144166D01*
X164510083Y-95482833D01*
X164467750Y-95567500D01*
X164425416Y-95609833D01*
X164340750Y-95652166D01*
X164213750Y-95652166D01*
X164129083Y-95609833D01*
X164086750Y-95567500D01*
X164044416Y-95482833D01*
X164044416Y-95144166D01*
X164086750Y-96033166D02*
X164086750Y-96329500D01*
X163621083Y-96456500D02*
X163621083Y-96033166D01*
X164510083Y-96033166D01*
X164510083Y-96456500D01*
X164510083Y-96710500D02*
X163621083Y-97006833D01*
X164510083Y-97303166D01*
X163705750Y-97599500D02*
X163663416Y-97641833D01*
X163621083Y-97599500D01*
X163663416Y-97557166D01*
X163705750Y-97599500D01*
X163621083Y-97599500D01*
X163621083Y-99165833D02*
X163621083Y-98657833D01*
X163621083Y-98911833D02*
X164510083Y-98911833D01*
X164383083Y-98827166D01*
X164298416Y-98742500D01*
X164256083Y-98657833D01*
X162137583Y-86529333D02*
X163026583Y-86529333D01*
X162391583Y-86825666D01*
X163026583Y-87122000D01*
X162137583Y-87122000D01*
X162391583Y-87503000D02*
X162391583Y-87926333D01*
X162137583Y-87418333D02*
X163026583Y-87714666D01*
X162137583Y-88011000D01*
X162137583Y-88815333D02*
X162560916Y-88519000D01*
X162137583Y-88307333D02*
X163026583Y-88307333D01*
X163026583Y-88646000D01*
X162984250Y-88730666D01*
X162941916Y-88773000D01*
X162857250Y-88815333D01*
X162730250Y-88815333D01*
X162645583Y-88773000D01*
X162603250Y-88730666D01*
X162560916Y-88646000D01*
X162560916Y-88307333D01*
X162179916Y-89154000D02*
X162137583Y-89281000D01*
X162137583Y-89492666D01*
X162179916Y-89577333D01*
X162222250Y-89619666D01*
X162306916Y-89662000D01*
X162391583Y-89662000D01*
X162476250Y-89619666D01*
X162518583Y-89577333D01*
X162560916Y-89492666D01*
X162603250Y-89323333D01*
X162645583Y-89238666D01*
X162687916Y-89196333D01*
X162772583Y-89154000D01*
X162857250Y-89154000D01*
X162941916Y-89196333D01*
X162984250Y-89238666D01*
X163026583Y-89323333D01*
X163026583Y-89535000D01*
X162984250Y-89662000D01*
X162137583Y-91228333D02*
X162560916Y-90932000D01*
X162137583Y-90720333D02*
X163026583Y-90720333D01*
X163026583Y-91059000D01*
X162984250Y-91143666D01*
X162941916Y-91186000D01*
X162857250Y-91228333D01*
X162730250Y-91228333D01*
X162645583Y-91186000D01*
X162603250Y-91143666D01*
X162560916Y-91059000D01*
X162560916Y-90720333D01*
X163026583Y-91778666D02*
X163026583Y-91948000D01*
X162984250Y-92032666D01*
X162899583Y-92117333D01*
X162730250Y-92159666D01*
X162433916Y-92159666D01*
X162264583Y-92117333D01*
X162179916Y-92032666D01*
X162137583Y-91948000D01*
X162137583Y-91778666D01*
X162179916Y-91694000D01*
X162264583Y-91609333D01*
X162433916Y-91567000D01*
X162730250Y-91567000D01*
X162899583Y-91609333D01*
X162984250Y-91694000D01*
X163026583Y-91778666D01*
X163026583Y-92413666D02*
X162137583Y-92710000D01*
X163026583Y-93006333D01*
X162603250Y-93302666D02*
X162603250Y-93599000D01*
X162137583Y-93726000D02*
X162137583Y-93302666D01*
X163026583Y-93302666D01*
X163026583Y-93726000D01*
X162137583Y-94615000D02*
X162560916Y-94318666D01*
X162137583Y-94107000D02*
X163026583Y-94107000D01*
X163026583Y-94445666D01*
X162984250Y-94530333D01*
X162941916Y-94572666D01*
X162857250Y-94615000D01*
X162730250Y-94615000D01*
X162645583Y-94572666D01*
X162603250Y-94530333D01*
X162560916Y-94445666D01*
X162560916Y-94107000D01*
X162137583Y-95673333D02*
X163026583Y-95673333D01*
X163026583Y-95885000D01*
X162984250Y-96012000D01*
X162899583Y-96096666D01*
X162814916Y-96139000D01*
X162645583Y-96181333D01*
X162518583Y-96181333D01*
X162349250Y-96139000D01*
X162264583Y-96096666D01*
X162179916Y-96012000D01*
X162137583Y-95885000D01*
X162137583Y-95673333D01*
X162603250Y-96562333D02*
X162603250Y-96858666D01*
X162137583Y-96985666D02*
X162137583Y-96562333D01*
X163026583Y-96562333D01*
X163026583Y-96985666D01*
X162179916Y-97324333D02*
X162137583Y-97451333D01*
X162137583Y-97663000D01*
X162179916Y-97747666D01*
X162222250Y-97790000D01*
X162306916Y-97832333D01*
X162391583Y-97832333D01*
X162476250Y-97790000D01*
X162518583Y-97747666D01*
X162560916Y-97663000D01*
X162603250Y-97493666D01*
X162645583Y-97409000D01*
X162687916Y-97366666D01*
X162772583Y-97324333D01*
X162857250Y-97324333D01*
X162941916Y-97366666D01*
X162984250Y-97409000D01*
X163026583Y-97493666D01*
X163026583Y-97705333D01*
X162984250Y-97832333D01*
X162137583Y-98213333D02*
X163026583Y-98213333D01*
X162984250Y-99102333D02*
X163026583Y-99017666D01*
X163026583Y-98890666D01*
X162984250Y-98763666D01*
X162899583Y-98679000D01*
X162814916Y-98636666D01*
X162645583Y-98594333D01*
X162518583Y-98594333D01*
X162349250Y-98636666D01*
X162264583Y-98679000D01*
X162179916Y-98763666D01*
X162137583Y-98890666D01*
X162137583Y-98975333D01*
X162179916Y-99102333D01*
X162222250Y-99144666D01*
X162518583Y-99144666D01*
X162518583Y-98975333D01*
X162137583Y-99525666D02*
X163026583Y-99525666D01*
X162137583Y-100033666D01*
X163026583Y-100033666D01*
X163026583Y-101007333D02*
X163026583Y-101515333D01*
X162137583Y-101261333D02*
X163026583Y-101261333D01*
X162603250Y-101811666D02*
X162603250Y-102108000D01*
X162137583Y-102235000D02*
X162137583Y-101811666D01*
X163026583Y-101811666D01*
X163026583Y-102235000D01*
X162391583Y-102573666D02*
X162391583Y-102997000D01*
X162137583Y-102489000D02*
X163026583Y-102785333D01*
X162137583Y-103081666D01*
X162137583Y-103378000D02*
X163026583Y-103378000D01*
X162391583Y-103674333D01*
X163026583Y-103970666D01*
X162137583Y-103970666D01*
X160654083Y-88413166D02*
X161543083Y-88413166D01*
X160908083Y-88709500D01*
X161543083Y-89005833D01*
X160654083Y-89005833D01*
X160654083Y-89429166D02*
X161543083Y-89429166D01*
X160696416Y-89810166D02*
X160654083Y-89937166D01*
X160654083Y-90148833D01*
X160696416Y-90233500D01*
X160738750Y-90275833D01*
X160823416Y-90318166D01*
X160908083Y-90318166D01*
X160992750Y-90275833D01*
X161035083Y-90233500D01*
X161077416Y-90148833D01*
X161119750Y-89979500D01*
X161162083Y-89894833D01*
X161204416Y-89852500D01*
X161289083Y-89810166D01*
X161373750Y-89810166D01*
X161458416Y-89852500D01*
X161500750Y-89894833D01*
X161543083Y-89979500D01*
X161543083Y-90191166D01*
X161500750Y-90318166D01*
X160696416Y-90656833D02*
X160654083Y-90783833D01*
X160654083Y-90995500D01*
X160696416Y-91080166D01*
X160738750Y-91122500D01*
X160823416Y-91164833D01*
X160908083Y-91164833D01*
X160992750Y-91122500D01*
X161035083Y-91080166D01*
X161077416Y-90995500D01*
X161119750Y-90826166D01*
X161162083Y-90741500D01*
X161204416Y-90699166D01*
X161289083Y-90656833D01*
X161373750Y-90656833D01*
X161458416Y-90699166D01*
X161500750Y-90741500D01*
X161543083Y-90826166D01*
X161543083Y-91037833D01*
X161500750Y-91164833D01*
X161543083Y-91715166D02*
X161543083Y-91884500D01*
X161500750Y-91969166D01*
X161416083Y-92053833D01*
X161246750Y-92096166D01*
X160950416Y-92096166D01*
X160781083Y-92053833D01*
X160696416Y-91969166D01*
X160654083Y-91884500D01*
X160654083Y-91715166D01*
X160696416Y-91630500D01*
X160781083Y-91545833D01*
X160950416Y-91503500D01*
X161246750Y-91503500D01*
X161416083Y-91545833D01*
X161500750Y-91630500D01*
X161543083Y-91715166D01*
X161543083Y-92477166D02*
X160823416Y-92477166D01*
X160738750Y-92519500D01*
X160696416Y-92561833D01*
X160654083Y-92646500D01*
X160654083Y-92815833D01*
X160696416Y-92900500D01*
X160738750Y-92942833D01*
X160823416Y-92985166D01*
X161543083Y-92985166D01*
X160654083Y-93916500D02*
X161077416Y-93620166D01*
X160654083Y-93408500D02*
X161543083Y-93408500D01*
X161543083Y-93747166D01*
X161500750Y-93831833D01*
X161458416Y-93874166D01*
X161373750Y-93916500D01*
X161246750Y-93916500D01*
X161162083Y-93874166D01*
X161119750Y-93831833D01*
X161077416Y-93747166D01*
X161077416Y-93408500D01*
X160654083Y-94297500D02*
X161543083Y-94297500D01*
X160696416Y-95355833D02*
X160654083Y-95482833D01*
X160654083Y-95694500D01*
X160696416Y-95779166D01*
X160738750Y-95821500D01*
X160823416Y-95863833D01*
X160908083Y-95863833D01*
X160992750Y-95821500D01*
X161035083Y-95779166D01*
X161077416Y-95694500D01*
X161119750Y-95525166D01*
X161162083Y-95440500D01*
X161204416Y-95398166D01*
X161289083Y-95355833D01*
X161373750Y-95355833D01*
X161458416Y-95398166D01*
X161500750Y-95440500D01*
X161543083Y-95525166D01*
X161543083Y-95736833D01*
X161500750Y-95863833D01*
X160654083Y-96964500D02*
X160654083Y-96922166D01*
X160696416Y-96837500D01*
X160823416Y-96710500D01*
X161077416Y-96498833D01*
X161204416Y-96414166D01*
X161331416Y-96371833D01*
X161416083Y-96371833D01*
X161500750Y-96414166D01*
X161543083Y-96498833D01*
X161543083Y-96541166D01*
X161500750Y-96625833D01*
X161416083Y-96668166D01*
X161373750Y-96668166D01*
X161289083Y-96625833D01*
X161246750Y-96583500D01*
X161077416Y-96329500D01*
X161035083Y-96287166D01*
X160950416Y-96244833D01*
X160823416Y-96244833D01*
X160738750Y-96287166D01*
X160696416Y-96329500D01*
X160654083Y-96414166D01*
X160654083Y-96541166D01*
X160696416Y-96625833D01*
X160738750Y-96668166D01*
X160908083Y-96795166D01*
X161035083Y-96837500D01*
X161119750Y-96837500D01*
X161543083Y-97218500D02*
X161543083Y-97726500D01*
X160654083Y-97472500D02*
X161543083Y-97472500D01*
X160696416Y-98065166D02*
X160654083Y-98065166D01*
X160569416Y-98022833D01*
X160527083Y-97980500D01*
X161458416Y-99081166D02*
X161500750Y-99123500D01*
X161543083Y-99208166D01*
X161543083Y-99419833D01*
X161500750Y-99504500D01*
X161458416Y-99546833D01*
X161373750Y-99589166D01*
X161289083Y-99589166D01*
X161162083Y-99546833D01*
X160654083Y-99038833D01*
X160654083Y-99589166D01*
X161543083Y-100139500D02*
X161543083Y-100224166D01*
X161500750Y-100308833D01*
X161458416Y-100351166D01*
X161373750Y-100393500D01*
X161204416Y-100435833D01*
X160992750Y-100435833D01*
X160823416Y-100393500D01*
X160738750Y-100351166D01*
X160696416Y-100308833D01*
X160654083Y-100224166D01*
X160654083Y-100139500D01*
X160696416Y-100054833D01*
X160738750Y-100012500D01*
X160823416Y-99970166D01*
X160992750Y-99927833D01*
X161204416Y-99927833D01*
X161373750Y-99970166D01*
X161458416Y-100012500D01*
X161500750Y-100054833D01*
X161543083Y-100139500D01*
X161458416Y-100774500D02*
X161500750Y-100816833D01*
X161543083Y-100901500D01*
X161543083Y-101113166D01*
X161500750Y-101197833D01*
X161458416Y-101240166D01*
X161373750Y-101282500D01*
X161289083Y-101282500D01*
X161162083Y-101240166D01*
X160654083Y-100732166D01*
X160654083Y-101282500D01*
X161543083Y-101832833D02*
X161543083Y-101917500D01*
X161500750Y-102002166D01*
X161458416Y-102044500D01*
X161373750Y-102086833D01*
X161204416Y-102129166D01*
X160992750Y-102129166D01*
X160823416Y-102086833D01*
X160738750Y-102044500D01*
X160696416Y-102002166D01*
X160654083Y-101917500D01*
X160654083Y-101832833D01*
X160696416Y-101748166D01*
X160738750Y-101705833D01*
X160823416Y-101663500D01*
X160992750Y-101621166D01*
X161204416Y-101621166D01*
X161373750Y-101663500D01*
X161458416Y-101705833D01*
X161500750Y-101748166D01*
X161543083Y-101832833D01*
X159170583Y-91291833D02*
X160059583Y-91291833D01*
X159424583Y-91588166D01*
X160059583Y-91884500D01*
X159170583Y-91884500D01*
X159170583Y-92688833D02*
X159636250Y-92688833D01*
X159720916Y-92646500D01*
X159763250Y-92561833D01*
X159763250Y-92392500D01*
X159720916Y-92307833D01*
X159212916Y-92688833D02*
X159170583Y-92604166D01*
X159170583Y-92392500D01*
X159212916Y-92307833D01*
X159297583Y-92265500D01*
X159382250Y-92265500D01*
X159466916Y-92307833D01*
X159509250Y-92392500D01*
X159509250Y-92604166D01*
X159551583Y-92688833D01*
X159212916Y-93069833D02*
X159170583Y-93154500D01*
X159170583Y-93323833D01*
X159212916Y-93408500D01*
X159297583Y-93450833D01*
X159339916Y-93450833D01*
X159424583Y-93408500D01*
X159466916Y-93323833D01*
X159466916Y-93196833D01*
X159509250Y-93112166D01*
X159593916Y-93069833D01*
X159636250Y-93069833D01*
X159720916Y-93112166D01*
X159763250Y-93196833D01*
X159763250Y-93323833D01*
X159720916Y-93408500D01*
X159170583Y-93958833D02*
X159212916Y-93874166D01*
X159255250Y-93831833D01*
X159339916Y-93789500D01*
X159593916Y-93789500D01*
X159678583Y-93831833D01*
X159720916Y-93874166D01*
X159763250Y-93958833D01*
X159763250Y-94085833D01*
X159720916Y-94170500D01*
X159678583Y-94212833D01*
X159593916Y-94255166D01*
X159339916Y-94255166D01*
X159255250Y-94212833D01*
X159212916Y-94170500D01*
X159170583Y-94085833D01*
X159170583Y-93958833D01*
X159763250Y-94636166D02*
X159170583Y-94636166D01*
X159678583Y-94636166D02*
X159720916Y-94678500D01*
X159763250Y-94763166D01*
X159763250Y-94890166D01*
X159720916Y-94974833D01*
X159636250Y-95017166D01*
X159170583Y-95017166D01*
X159424583Y-96075500D02*
X159424583Y-96498833D01*
X159170583Y-95990833D02*
X160059583Y-96287166D01*
X159170583Y-96583500D01*
X159170583Y-96879833D02*
X160059583Y-96879833D01*
X159509250Y-96964500D02*
X159170583Y-97218500D01*
X159763250Y-97218500D02*
X159424583Y-96879833D01*
X159212916Y-97938166D02*
X159170583Y-97853500D01*
X159170583Y-97684166D01*
X159212916Y-97599500D01*
X159297583Y-97557166D01*
X159636250Y-97557166D01*
X159720916Y-97599500D01*
X159763250Y-97684166D01*
X159763250Y-97853500D01*
X159720916Y-97938166D01*
X159636250Y-97980500D01*
X159551583Y-97980500D01*
X159466916Y-97557166D01*
X159170583Y-98361500D02*
X159763250Y-98361500D01*
X159593916Y-98361500D02*
X159678583Y-98403833D01*
X159720916Y-98446166D01*
X159763250Y-98530833D01*
X159763250Y-98615500D01*
X159212916Y-98869500D02*
X159170583Y-98954166D01*
X159170583Y-99123500D01*
X159212916Y-99208166D01*
X159297583Y-99250500D01*
X159339916Y-99250500D01*
X159424583Y-99208166D01*
X159466916Y-99123500D01*
X159466916Y-98996500D01*
X159509250Y-98911833D01*
X159593916Y-98869500D01*
X159636250Y-98869500D01*
X159720916Y-98911833D01*
X159763250Y-98996500D01*
X159763250Y-99123500D01*
X159720916Y-99208166D01*
D11*
G36*
X158835405Y-98076606D02*
G01*
X158813771Y-98102748D01*
X158780562Y-98120607D01*
X158738106Y-98128452D01*
X158729202Y-98128667D01*
X158698632Y-98124907D01*
X158662533Y-98113194D01*
X158619791Y-98092879D01*
X158569290Y-98063314D01*
X158509917Y-98023850D01*
X158440558Y-97973837D01*
X158365741Y-97917001D01*
X158306120Y-97870955D01*
X158258450Y-97834424D01*
X158221383Y-97806443D01*
X158193571Y-97786045D01*
X158173665Y-97772264D01*
X158160317Y-97764135D01*
X158152180Y-97760689D01*
X158147959Y-97760928D01*
X158143939Y-97771104D01*
X158145076Y-97773783D01*
X158147517Y-97785671D01*
X158149361Y-97809591D01*
X158150249Y-97840641D01*
X158150274Y-97844575D01*
X158148754Y-97885661D01*
X158143264Y-97914880D01*
X158134877Y-97933929D01*
X158110120Y-97964019D01*
X158079463Y-97983800D01*
X158046718Y-97992199D01*
X158015695Y-97988141D01*
X157993255Y-97973826D01*
X157978225Y-97957417D01*
X157964611Y-97938904D01*
X157951638Y-97916363D01*
X157938528Y-97887871D01*
X157924504Y-97851504D01*
X157908790Y-97805338D01*
X157890608Y-97747450D01*
X157869182Y-97675915D01*
X157859174Y-97641834D01*
X157840959Y-97587708D01*
X157818634Y-97534156D01*
X157793602Y-97483449D01*
X157767265Y-97437861D01*
X157741027Y-97399666D01*
X157716289Y-97371138D01*
X157694455Y-97354548D01*
X157679973Y-97351407D01*
X157669725Y-97354626D01*
X157664761Y-97363351D01*
X157663720Y-97381896D01*
X157664463Y-97400534D01*
X157669196Y-97444109D01*
X157679212Y-97501193D01*
X157693880Y-97569426D01*
X157712572Y-97646449D01*
X157734656Y-97729903D01*
X157759501Y-97817429D01*
X157786479Y-97906669D01*
X157814957Y-97995262D01*
X157844305Y-98080852D01*
X157852030Y-98102403D01*
X157871130Y-98151396D01*
X157895507Y-98208312D01*
X157923126Y-98268872D01*
X157951953Y-98328795D01*
X157979952Y-98383800D01*
X158005090Y-98429609D01*
X158016949Y-98449317D01*
X158037463Y-98478753D01*
X158061277Y-98508836D01*
X158068132Y-98516686D01*
X158092415Y-98547465D01*
X158102753Y-98572612D01*
X158099518Y-98595537D01*
X158083083Y-98619649D01*
X158079762Y-98623301D01*
X158054970Y-98644421D01*
X158029546Y-98657487D01*
X158024160Y-98658880D01*
X158005229Y-98660316D01*
X157989736Y-98654025D01*
X157971210Y-98637202D01*
X157969126Y-98635027D01*
X157954089Y-98616215D01*
X157933702Y-98586589D01*
X157910658Y-98550235D01*
X157887971Y-98511808D01*
X157860397Y-98465785D01*
X157826839Y-98413539D01*
X157791892Y-98362064D01*
X157765204Y-98325041D01*
X157738255Y-98290600D01*
X157701509Y-98245981D01*
X157656820Y-98193296D01*
X157606040Y-98134655D01*
X157551025Y-98072170D01*
X157493626Y-98007951D01*
X157435698Y-97944110D01*
X157379094Y-97882758D01*
X157344592Y-97845959D01*
X157304797Y-97805568D01*
X157263701Y-97766936D01*
X157223297Y-97731626D01*
X157185580Y-97701202D01*
X157152544Y-97677230D01*
X157126182Y-97661272D01*
X157108488Y-97654894D01*
X157102853Y-97656325D01*
X157101379Y-97668488D01*
X157106174Y-97693424D01*
X157116279Y-97728595D01*
X157130730Y-97771464D01*
X157148567Y-97819493D01*
X157168828Y-97870143D01*
X157190553Y-97920877D01*
X157212779Y-97969155D01*
X157234546Y-98012442D01*
X157244889Y-98031301D01*
X157265833Y-98066645D01*
X157293947Y-98111953D01*
X157326737Y-98163403D01*
X157361707Y-98217173D01*
X157396363Y-98269440D01*
X157428208Y-98316383D01*
X157454748Y-98354179D01*
X157463210Y-98365734D01*
X157515128Y-98435640D01*
X157558805Y-98495108D01*
X157596371Y-98547087D01*
X157629952Y-98594528D01*
X157661678Y-98640380D01*
X157667816Y-98649367D01*
X157710687Y-98712174D01*
X157745276Y-98762566D01*
X157772774Y-98802163D01*
X157794370Y-98832586D01*
X157811256Y-98855456D01*
X157824623Y-98872393D01*
X157835660Y-98885019D01*
X157845558Y-98894953D01*
X157853423Y-98902022D01*
X157875041Y-98920681D01*
X157903848Y-98945449D01*
X157934156Y-98971439D01*
X157938705Y-98975334D01*
X157983934Y-99016884D01*
X158026276Y-99062306D01*
X158068773Y-99115185D01*
X158114467Y-99179105D01*
X158125709Y-99195687D01*
X158156649Y-99243627D01*
X158176989Y-99280940D01*
X158187016Y-99309967D01*
X158187018Y-99333050D01*
X158177280Y-99352532D01*
X158158092Y-99370755D01*
X158148073Y-99378051D01*
X158112618Y-99394709D01*
X158077402Y-99397312D01*
X158046143Y-99386183D01*
X158026406Y-99367499D01*
X158010256Y-99347837D01*
X157987839Y-99323653D01*
X157973933Y-99309786D01*
X157953463Y-99287301D01*
X157928363Y-99255671D01*
X157902774Y-99220236D01*
X157891853Y-99203934D01*
X157843277Y-99130975D01*
X157801408Y-99071899D01*
X157765232Y-99025520D01*
X157733734Y-98990651D01*
X157705899Y-98966104D01*
X157680714Y-98950693D01*
X157672421Y-98947269D01*
X157662352Y-98945231D01*
X157663496Y-98952881D01*
X157666977Y-98959729D01*
X157676745Y-98976040D01*
X157693984Y-99002945D01*
X157716507Y-99037130D01*
X157742128Y-99075280D01*
X157768658Y-99114080D01*
X157772245Y-99119267D01*
X157809768Y-99173792D01*
X157842662Y-99222491D01*
X157876234Y-99273254D01*
X157890865Y-99295635D01*
X157919829Y-99339220D01*
X157946030Y-99376363D01*
X157972858Y-99411452D01*
X158003706Y-99448875D01*
X158041963Y-99493021D01*
X158053579Y-99506184D01*
X158082321Y-99539702D01*
X158100858Y-99564315D01*
X158111073Y-99582979D01*
X158114843Y-99598651D01*
X158115000Y-99602795D01*
X158107229Y-99631824D01*
X158086655Y-99656395D01*
X158057381Y-99672952D01*
X158028157Y-99678067D01*
X158011534Y-99676864D01*
X157996540Y-99671993D01*
X157981123Y-99661567D01*
X157963228Y-99643696D01*
X157940799Y-99616489D01*
X157911783Y-99578059D01*
X157895934Y-99556471D01*
X157873709Y-99526962D01*
X157855067Y-99503915D01*
X157842205Y-99489936D01*
X157837502Y-99487076D01*
X157839223Y-99496684D01*
X157849945Y-99517778D01*
X157868372Y-99548404D01*
X157893207Y-99586608D01*
X157923154Y-99630435D01*
X157956914Y-99677930D01*
X157993192Y-99727137D01*
X158020878Y-99763482D01*
X158041462Y-99793750D01*
X158059561Y-99826816D01*
X158072922Y-99857864D01*
X158079296Y-99882078D01*
X158079389Y-99888742D01*
X158068560Y-99912142D01*
X158044440Y-99931347D01*
X158010579Y-99943940D01*
X157994371Y-99946667D01*
X157969869Y-99948208D01*
X157954539Y-99943668D01*
X157940888Y-99929988D01*
X157935105Y-99922453D01*
X157919482Y-99899557D01*
X157900600Y-99869010D01*
X157885761Y-99843167D01*
X157836825Y-99759910D01*
X157787393Y-99688524D01*
X157734374Y-99625749D01*
X157674679Y-99568324D01*
X157605220Y-99512990D01*
X157522907Y-99456485D01*
X157513866Y-99450656D01*
X157424213Y-99392734D01*
X157344682Y-99340454D01*
X157270814Y-99290855D01*
X157198149Y-99240974D01*
X157196954Y-99240145D01*
X157149511Y-99207936D01*
X157114384Y-99185778D01*
X157090647Y-99173173D01*
X157077372Y-99169622D01*
X157073600Y-99173902D01*
X157076660Y-99185362D01*
X157085005Y-99209262D01*
X157097382Y-99242422D01*
X157112538Y-99281661D01*
X157129221Y-99323799D01*
X157146178Y-99365655D01*
X157162157Y-99404050D01*
X157175903Y-99435802D01*
X157182145Y-99449467D01*
X157213973Y-99515553D01*
X157241715Y-99568987D01*
X157267515Y-99612861D01*
X157293512Y-99650272D01*
X157321849Y-99684312D01*
X157354667Y-99718076D01*
X157392103Y-99752856D01*
X157436824Y-99794958D01*
X157486085Y-99844436D01*
X157536340Y-99897473D01*
X157584040Y-99950248D01*
X157625640Y-99998944D01*
X157653901Y-100034740D01*
X157666516Y-100051554D01*
X157685913Y-100077307D01*
X157708655Y-100107438D01*
X157717700Y-100119407D01*
X157744076Y-100154758D01*
X157775138Y-100197089D01*
X157805851Y-100239515D01*
X157819091Y-100258034D01*
X157848195Y-100296664D01*
X157881091Y-100336770D01*
X157912569Y-100372123D01*
X157926408Y-100386327D01*
X157955336Y-100416498D01*
X157972353Y-100439096D01*
X157979201Y-100456565D01*
X157979533Y-100460967D01*
X157972908Y-100494392D01*
X157952155Y-100519483D01*
X157935920Y-100529629D01*
X157911933Y-100538615D01*
X157888356Y-100538946D01*
X157862589Y-100529565D01*
X157832028Y-100509410D01*
X157794073Y-100477421D01*
X157783001Y-100467338D01*
X157746659Y-100434078D01*
X157707432Y-100398497D01*
X157671293Y-100366003D01*
X157654629Y-100351167D01*
X157626847Y-100324731D01*
X157592707Y-100289489D01*
X157556388Y-100249892D01*
X157522070Y-100210388D01*
X157519579Y-100207417D01*
X157495412Y-100178140D01*
X157471485Y-100148298D01*
X157446423Y-100116044D01*
X157418852Y-100079530D01*
X157387400Y-100036912D01*
X157350691Y-99986341D01*
X157307351Y-99925972D01*
X157256008Y-99853958D01*
X157243589Y-99836492D01*
X157224430Y-99811340D01*
X157207311Y-99791995D01*
X157195856Y-99782537D01*
X157195643Y-99782451D01*
X157179271Y-99781299D01*
X157172488Y-99792868D01*
X157175862Y-99815550D01*
X157179968Y-99826851D01*
X157192412Y-99854866D01*
X157210981Y-99893762D01*
X157233654Y-99939574D01*
X157258408Y-99988338D01*
X157283222Y-100036089D01*
X157306076Y-100078864D01*
X157324946Y-100112698D01*
X157330761Y-100122567D01*
X157346014Y-100148707D01*
X157357000Y-100169194D01*
X157361436Y-100179757D01*
X157361445Y-100179925D01*
X157365616Y-100189862D01*
X157376591Y-100209962D01*
X157392101Y-100236092D01*
X157394007Y-100239191D01*
X157436449Y-100309630D01*
X157472520Y-100373509D01*
X157503025Y-100431601D01*
X157522868Y-100468943D01*
X157546252Y-100510528D01*
X157564683Y-100541667D01*
X157584563Y-100576695D01*
X157603339Y-100614035D01*
X157616000Y-100643267D01*
X157628396Y-100672003D01*
X157641501Y-100696297D01*
X157648998Y-100706767D01*
X157659682Y-100722217D01*
X157675473Y-100749580D01*
X157694601Y-100785294D01*
X157715300Y-100825799D01*
X157735800Y-100867532D01*
X157754332Y-100906932D01*
X157769129Y-100940438D01*
X157778421Y-100964487D01*
X157780331Y-100971253D01*
X157786313Y-100991382D01*
X157792966Y-101002883D01*
X157793350Y-101003152D01*
X157800538Y-101012657D01*
X157812042Y-101032953D01*
X157823679Y-101056166D01*
X157848598Y-101107704D01*
X157873193Y-101157041D01*
X157894788Y-101198850D01*
X157903350Y-101214767D01*
X157912233Y-101232632D01*
X157925782Y-101261871D01*
X157942074Y-101298260D01*
X157957347Y-101333301D01*
X157977254Y-101378698D01*
X157998918Y-101426693D01*
X158019236Y-101470471D01*
X158030608Y-101494167D01*
X158055983Y-101547108D01*
X158077203Y-101593715D01*
X158093325Y-101631768D01*
X158103406Y-101659050D01*
X158106533Y-101672645D01*
X158111011Y-101686377D01*
X158122164Y-101706705D01*
X158126232Y-101712943D01*
X158140151Y-101738036D01*
X158154154Y-101770388D01*
X158160882Y-101789504D01*
X158170120Y-101815848D01*
X158178604Y-101834994D01*
X158183275Y-101841635D01*
X158191508Y-101852614D01*
X158203485Y-101875752D01*
X158217596Y-101907145D01*
X158232225Y-101942889D01*
X158245761Y-101979080D01*
X158256588Y-102011814D01*
X158262113Y-102032419D01*
X158269962Y-102053180D01*
X158283614Y-102078379D01*
X158288403Y-102085787D01*
X158302033Y-102109890D01*
X158318644Y-102145072D01*
X158336159Y-102186254D01*
X158352502Y-102228356D01*
X158365595Y-102266296D01*
X158372780Y-102292206D01*
X158380448Y-102316033D01*
X158393100Y-102345484D01*
X158400353Y-102359891D01*
X158416303Y-102392844D01*
X158431942Y-102430082D01*
X158437734Y-102445746D01*
X158447814Y-102472553D01*
X158457000Y-102493266D01*
X158461541Y-102500987D01*
X158470497Y-102517650D01*
X158480808Y-102545420D01*
X158490708Y-102578761D01*
X158498426Y-102612137D01*
X158500129Y-102621807D01*
X158507733Y-102649304D01*
X158519420Y-102672571D01*
X158522283Y-102676285D01*
X158536412Y-102698182D01*
X158543591Y-102717045D01*
X158550605Y-102740595D01*
X158560294Y-102765447D01*
X158568765Y-102790066D01*
X158572468Y-102811929D01*
X158572469Y-102812013D01*
X158577836Y-102834913D01*
X158585169Y-102848335D01*
X158595019Y-102866579D01*
X158597600Y-102878094D01*
X158601424Y-102893530D01*
X158610989Y-102916034D01*
X158615041Y-102923959D01*
X158626594Y-102952828D01*
X158635128Y-102987158D01*
X158636974Y-103000033D01*
X158644043Y-103046525D01*
X158654364Y-103085315D01*
X158666760Y-103112187D01*
X158669202Y-103115534D01*
X158682247Y-103138953D01*
X158694751Y-103173754D01*
X158705033Y-103214424D01*
X158711203Y-103253375D01*
X158718452Y-103290784D01*
X158731005Y-103330070D01*
X158738140Y-103346508D01*
X158758105Y-103405530D01*
X158763385Y-103445451D01*
X158766860Y-103479794D01*
X158772287Y-103512017D01*
X158776952Y-103530117D01*
X158781283Y-103550391D01*
X158784524Y-103579889D01*
X158786623Y-103614720D01*
X158787529Y-103650991D01*
X158787189Y-103684809D01*
X158785554Y-103712283D01*
X158782572Y-103729520D01*
X158779633Y-103733410D01*
X158761535Y-103725465D01*
X158743226Y-103705154D01*
X158728125Y-103676651D01*
X158724338Y-103665867D01*
X158713953Y-103635629D01*
X158700276Y-103600289D01*
X158692239Y-103581200D01*
X158681567Y-103554451D01*
X158667191Y-103515002D01*
X158650281Y-103466370D01*
X158632008Y-103412070D01*
X158613544Y-103355619D01*
X158596061Y-103300534D01*
X158580728Y-103250330D01*
X158571777Y-103219533D01*
X158564180Y-103194480D01*
X158552242Y-103157416D01*
X158536824Y-103110832D01*
X158518786Y-103057217D01*
X158498989Y-102999062D01*
X158478295Y-102938856D01*
X158457564Y-102879090D01*
X158437657Y-102822252D01*
X158419434Y-102770834D01*
X158403757Y-102727326D01*
X158391486Y-102694216D01*
X158383483Y-102673995D01*
X158382148Y-102671034D01*
X158375159Y-102655038D01*
X158363297Y-102626347D01*
X158347813Y-102588052D01*
X158329959Y-102543245D01*
X158313601Y-102501700D01*
X158277232Y-102408987D01*
X158245542Y-102328692D01*
X158217280Y-102257826D01*
X158191196Y-102193396D01*
X158166040Y-102132413D01*
X158140561Y-102071885D01*
X158113510Y-102008822D01*
X158083635Y-101940234D01*
X158049687Y-101863128D01*
X158010416Y-101774515D01*
X157996829Y-101743934D01*
X157964581Y-101671413D01*
X157938009Y-101611766D01*
X157915925Y-101562386D01*
X157897141Y-101520664D01*
X157880471Y-101483996D01*
X157864726Y-101449773D01*
X157848719Y-101415388D01*
X157831264Y-101378235D01*
X157811172Y-101335706D01*
X157804023Y-101320601D01*
X157783939Y-101277715D01*
X157764261Y-101234895D01*
X157747375Y-101197379D01*
X157736519Y-101172434D01*
X157712949Y-101118736D01*
X157682744Y-101053365D01*
X157647474Y-100979465D01*
X157608708Y-100900175D01*
X157568016Y-100818637D01*
X157526967Y-100737993D01*
X157487131Y-100661383D01*
X157450076Y-100591950D01*
X157417373Y-100532834D01*
X157414098Y-100527077D01*
X157390203Y-100485046D01*
X157368364Y-100446319D01*
X157350393Y-100414133D01*
X157338101Y-100391724D01*
X157334567Y-100385034D01*
X157324511Y-100366385D01*
X157308018Y-100336978D01*
X157286791Y-100299744D01*
X157262533Y-100257612D01*
X157236949Y-100213511D01*
X157211742Y-100170371D01*
X157188616Y-100131121D01*
X157169274Y-100098690D01*
X157155421Y-100076009D01*
X157149924Y-100067534D01*
X157132407Y-100039479D01*
X157111488Y-100001372D01*
X157089604Y-99958183D01*
X157069187Y-99914879D01*
X157052672Y-99876431D01*
X157042804Y-99848887D01*
X157035218Y-99817729D01*
X157034076Y-99793947D01*
X157039046Y-99769399D01*
X157039500Y-99767831D01*
X157054689Y-99727616D01*
X157073964Y-99700613D01*
X157100060Y-99683154D01*
X157103892Y-99681480D01*
X157122861Y-99670364D01*
X157132545Y-99658450D01*
X157132866Y-99656388D01*
X157129007Y-99643214D01*
X157118761Y-99619790D01*
X157104125Y-99590576D01*
X157099757Y-99582418D01*
X157077316Y-99538462D01*
X157053456Y-99487194D01*
X157029264Y-99431448D01*
X157005829Y-99374058D01*
X156984242Y-99317856D01*
X156965590Y-99265675D01*
X156950962Y-99220348D01*
X156941447Y-99184708D01*
X156938133Y-99161923D01*
X156944409Y-99132217D01*
X156960580Y-99099312D01*
X156982666Y-99069710D01*
X157006684Y-99049913D01*
X157006745Y-99049880D01*
X157042842Y-99038089D01*
X157085171Y-99035257D01*
X157125665Y-99041462D01*
X157143870Y-99048567D01*
X157162915Y-99059699D01*
X157192516Y-99078566D01*
X157229483Y-99103015D01*
X157270624Y-99130893D01*
X157312750Y-99160048D01*
X157352669Y-99188327D01*
X157374166Y-99203929D01*
X157406200Y-99226633D01*
X157441835Y-99250582D01*
X157478186Y-99273996D01*
X157512365Y-99295096D01*
X157541484Y-99312103D01*
X157562656Y-99323238D01*
X157572994Y-99326723D01*
X157573277Y-99326612D01*
X157579252Y-99316336D01*
X157584150Y-99299135D01*
X157597443Y-99266979D01*
X157621081Y-99237540D01*
X157649404Y-99217813D01*
X157650173Y-99217484D01*
X157673615Y-99207627D01*
X157650891Y-99173814D01*
X157636629Y-99153382D01*
X157615200Y-99123636D01*
X157589648Y-99088767D01*
X157566157Y-99057157D01*
X157522864Y-98998333D01*
X157489716Y-98950853D01*
X157465843Y-98913203D01*
X157450373Y-98883867D01*
X157442436Y-98861328D01*
X157441162Y-98844070D01*
X157441751Y-98840544D01*
X157455204Y-98812936D01*
X157480265Y-98787064D01*
X157511807Y-98767236D01*
X157539487Y-98758416D01*
X157560548Y-98754219D01*
X157572270Y-98750273D01*
X157573133Y-98749294D01*
X157568077Y-98739125D01*
X157553389Y-98716579D01*
X157529788Y-98682678D01*
X157497994Y-98638447D01*
X157458725Y-98584909D01*
X157437454Y-98556234D01*
X157354544Y-98441619D01*
X157278207Y-98329623D01*
X157209430Y-98221891D01*
X157149203Y-98120067D01*
X157098516Y-98025797D01*
X157058357Y-97940726D01*
X157039687Y-97894677D01*
X157009071Y-97807853D01*
X156987654Y-97734193D01*
X156975437Y-97672647D01*
X156972415Y-97622163D01*
X156978590Y-97581691D01*
X156993958Y-97550179D01*
X157018518Y-97526577D01*
X157039139Y-97515102D01*
X157064059Y-97505488D01*
X157084562Y-97503500D01*
X157110176Y-97508419D01*
X157114086Y-97509450D01*
X157145946Y-97520464D01*
X157180173Y-97537485D01*
X157217723Y-97561351D01*
X157259551Y-97592899D01*
X157306612Y-97632965D01*
X157359861Y-97682389D01*
X157420253Y-97742006D01*
X157488744Y-97812654D01*
X157566289Y-97895172D01*
X157618194Y-97951421D01*
X157644273Y-97979679D01*
X157660843Y-97996648D01*
X157669835Y-98003527D01*
X157673179Y-98001512D01*
X157672804Y-97991803D01*
X157671866Y-97984734D01*
X157668216Y-97967083D01*
X157660623Y-97936464D01*
X157649948Y-97896144D01*
X157637055Y-97849394D01*
X157624964Y-97806934D01*
X157591057Y-97679926D01*
X157564806Y-97560601D01*
X157546816Y-97451812D01*
X157542890Y-97419567D01*
X157541706Y-97373167D01*
X157547509Y-97328755D01*
X157559286Y-97291548D01*
X157571681Y-97271217D01*
X157578211Y-97262125D01*
X157578703Y-97254340D01*
X157571086Y-97246179D01*
X157553287Y-97235955D01*
X157523234Y-97221985D01*
X157496933Y-97210440D01*
X157442388Y-97185927D01*
X157388704Y-97160431D01*
X157341080Y-97136482D01*
X157308930Y-97119046D01*
X157274316Y-97098148D01*
X157232928Y-97071450D01*
X157187120Y-97040651D01*
X157139251Y-97007451D01*
X157091675Y-96973548D01*
X157046750Y-96940641D01*
X157006832Y-96910430D01*
X156974276Y-96884614D01*
X156951440Y-96864892D01*
X156941240Y-96853903D01*
X156931332Y-96824638D01*
X156934457Y-96792205D01*
X156949450Y-96762656D01*
X156961148Y-96750759D01*
X156985744Y-96737011D01*
X157015736Y-96732695D01*
X157054045Y-96737828D01*
X157101116Y-96751580D01*
X157129001Y-96760604D01*
X157149350Y-96766275D01*
X157158171Y-96767496D01*
X157158266Y-96767312D01*
X157153416Y-96759354D01*
X157140560Y-96741627D01*
X157122239Y-96717610D01*
X157117576Y-96711634D01*
X157067242Y-96644943D01*
X157028577Y-96587866D01*
X157000676Y-96538674D01*
X156982632Y-96495641D01*
X156973540Y-96457039D01*
X156972000Y-96434075D01*
X156974424Y-96397989D01*
X156983501Y-96372926D01*
X157001941Y-96353444D01*
X157017342Y-96342957D01*
X157034514Y-96333279D01*
X157051090Y-96326990D01*
X157069023Y-96324615D01*
X157090266Y-96326678D01*
X157116771Y-96333705D01*
X157150489Y-96346218D01*
X157193373Y-96364744D01*
X157247376Y-96389806D01*
X157314449Y-96421928D01*
X157318383Y-96423827D01*
X157366757Y-96446988D01*
X157409762Y-96467218D01*
X157445154Y-96483492D01*
X157470691Y-96494784D01*
X157484131Y-96500069D01*
X157485609Y-96500281D01*
X157480972Y-96493615D01*
X157465932Y-96477396D01*
X157442508Y-96453582D01*
X157412715Y-96424131D01*
X157378571Y-96390999D01*
X157342093Y-96356146D01*
X157305297Y-96321528D01*
X157270202Y-96289103D01*
X157239736Y-96261638D01*
X157196269Y-96221125D01*
X157145777Y-96170853D01*
X157091395Y-96114222D01*
X157036258Y-96054636D01*
X156983501Y-95995495D01*
X156936260Y-95940203D01*
X156897669Y-95892161D01*
X156890435Y-95882612D01*
X156856146Y-95833752D01*
X156830914Y-95791439D01*
X156816234Y-95758202D01*
X156815614Y-95756192D01*
X156808541Y-95731014D01*
X156804251Y-95713066D01*
X156803594Y-95707780D01*
X156805672Y-95697187D01*
X156809777Y-95676359D01*
X156811563Y-95667315D01*
X156825453Y-95626540D01*
X156850734Y-95593091D01*
X156889660Y-95564388D01*
X156911934Y-95552478D01*
X156940334Y-95539300D01*
X156963836Y-95531343D01*
X156988602Y-95527374D01*
X156994414Y-95527156D01*
X156994414Y-95649860D01*
X156960190Y-95652277D01*
X156935896Y-95657514D01*
X156930821Y-95659920D01*
X156921747Y-95674769D01*
X156925644Y-95699485D01*
X156942306Y-95733301D01*
X156956123Y-95754480D01*
X156976255Y-95782711D01*
X156997455Y-95810969D01*
X157020564Y-95840134D01*
X157046423Y-95871082D01*
X157075873Y-95904692D01*
X157109755Y-95941840D01*
X157148911Y-95983405D01*
X157194180Y-96030265D01*
X157246405Y-96083297D01*
X157306426Y-96143379D01*
X157375084Y-96211388D01*
X157453221Y-96288203D01*
X157541677Y-96374701D01*
X157641293Y-96471760D01*
X157672550Y-96502164D01*
X157733985Y-96561790D01*
X157785054Y-96610984D01*
X157827446Y-96651204D01*
X157862850Y-96683911D01*
X157892955Y-96710563D01*
X157919450Y-96732619D01*
X157944025Y-96751538D01*
X157968369Y-96768779D01*
X157994170Y-96785801D01*
X158019380Y-96801731D01*
X158052253Y-96822430D01*
X158082094Y-96841719D01*
X158110933Y-96861073D01*
X158140799Y-96881968D01*
X158173721Y-96905878D01*
X158211729Y-96934279D01*
X158256852Y-96968646D01*
X158311119Y-97010454D01*
X158376560Y-97061179D01*
X158380334Y-97064109D01*
X158425953Y-97099265D01*
X158460011Y-97124732D01*
X158484102Y-97141486D01*
X158499819Y-97150502D01*
X158508754Y-97152757D01*
X158512500Y-97149225D01*
X158512926Y-97145323D01*
X158508635Y-97128591D01*
X158496720Y-97100372D01*
X158478600Y-97063495D01*
X158455694Y-97020789D01*
X158429422Y-96975082D01*
X158417948Y-96956034D01*
X158396176Y-96920049D01*
X158375654Y-96885517D01*
X158359339Y-96857443D01*
X158352902Y-96845967D01*
X158326308Y-96799618D01*
X158292745Y-96744712D01*
X158255372Y-96686258D01*
X158217352Y-96629269D01*
X158203900Y-96609768D01*
X158164761Y-96553673D01*
X158133673Y-96509311D01*
X158109053Y-96474490D01*
X158089314Y-96447020D01*
X158072874Y-96424708D01*
X158058146Y-96405363D01*
X158043548Y-96386794D01*
X158034566Y-96375579D01*
X157925671Y-96246875D01*
X157814525Y-96128343D01*
X157702144Y-96020768D01*
X157589544Y-95924932D01*
X157477740Y-95841619D01*
X157367747Y-95771611D01*
X157260581Y-95715692D01*
X157157258Y-95674644D01*
X157106085Y-95659615D01*
X157072420Y-95653520D01*
X157033510Y-95650272D01*
X156994414Y-95649860D01*
X156994414Y-95527156D01*
X157020795Y-95526165D01*
X157043398Y-95526226D01*
X157083876Y-95527552D01*
X157118107Y-95531561D01*
X157152852Y-95539510D01*
X157194871Y-95552653D01*
X157205873Y-95556405D01*
X157270404Y-95582156D01*
X157343767Y-95617535D01*
X157422428Y-95660600D01*
X157502856Y-95709410D01*
X157581518Y-95762023D01*
X157587078Y-95765948D01*
X157693540Y-95847380D01*
X157800892Y-95940724D01*
X157905716Y-96042491D01*
X158004595Y-96149193D01*
X158094114Y-96257339D01*
X158167976Y-96359134D01*
X158181187Y-96378458D01*
X158199039Y-96404131D01*
X158209065Y-96418400D01*
X158238159Y-96460108D01*
X158269745Y-96506204D01*
X158302426Y-96554564D01*
X158334805Y-96603062D01*
X158365487Y-96649573D01*
X158393075Y-96691971D01*
X158416173Y-96728132D01*
X158433384Y-96755930D01*
X158443312Y-96773239D01*
X158445200Y-96777826D01*
X158449544Y-96785823D01*
X158460848Y-96803685D01*
X158474234Y-96823910D01*
X158499511Y-96863947D01*
X158526844Y-96911322D01*
X158553832Y-96961465D01*
X158578075Y-97009811D01*
X158597173Y-97051791D01*
X158606309Y-97075273D01*
X158616143Y-97111607D01*
X158621632Y-97148252D01*
X158622506Y-97180576D01*
X158618496Y-97203944D01*
X158614219Y-97211195D01*
X158609874Y-97225678D01*
X158614688Y-97244308D01*
X158619910Y-97268525D01*
X158619055Y-97288098D01*
X158609005Y-97304654D01*
X158589328Y-97324223D01*
X158565492Y-97342472D01*
X158542965Y-97355066D01*
X158530616Y-97358200D01*
X158516641Y-97353631D01*
X158494465Y-97341797D01*
X158474736Y-97329179D01*
X158450019Y-97312757D01*
X158415726Y-97290712D01*
X158376775Y-97266179D01*
X158345179Y-97246629D01*
X158269905Y-97199980D01*
X158206494Y-97159321D01*
X158151993Y-97122442D01*
X158103451Y-97087128D01*
X158057918Y-97051167D01*
X158012441Y-97012347D01*
X157964069Y-96968454D01*
X157924500Y-96931241D01*
X157902139Y-96910185D01*
X157881612Y-96891614D01*
X157861345Y-96874552D01*
X157839762Y-96858021D01*
X157815289Y-96841045D01*
X157786351Y-96822646D01*
X157751374Y-96801849D01*
X157708782Y-96777676D01*
X157657001Y-96749151D01*
X157594457Y-96715296D01*
X157519573Y-96675134D01*
X157462178Y-96644459D01*
X157372449Y-96597010D01*
X157296353Y-96557787D01*
X157234049Y-96526866D01*
X157185697Y-96504321D01*
X157151457Y-96490229D01*
X157131489Y-96484663D01*
X157125967Y-96486151D01*
X157128394Y-96501438D01*
X157141712Y-96527413D01*
X157164851Y-96562777D01*
X157196740Y-96606232D01*
X157236308Y-96656479D01*
X157282486Y-96712221D01*
X157334201Y-96772159D01*
X157390384Y-96834994D01*
X157449965Y-96899429D01*
X157511871Y-96964165D01*
X157562241Y-97015187D01*
X157612969Y-97065495D01*
X157653884Y-97105208D01*
X157686884Y-97135963D01*
X157713866Y-97159399D01*
X157736727Y-97177152D01*
X157757364Y-97190861D01*
X157777673Y-97202163D01*
X157780498Y-97203596D01*
X157898649Y-97265441D01*
X158015030Y-97331114D01*
X158126391Y-97398615D01*
X158163236Y-97422677D01*
X158163236Y-97575444D01*
X158159014Y-97575550D01*
X158166646Y-97584725D01*
X158185667Y-97602476D01*
X158215616Y-97628308D01*
X158256027Y-97661728D01*
X158284333Y-97684600D01*
X158335682Y-97725539D01*
X158375167Y-97756410D01*
X158403901Y-97778024D01*
X158422998Y-97791191D01*
X158433570Y-97796722D01*
X158436733Y-97795546D01*
X158430532Y-97788060D01*
X158413620Y-97772154D01*
X158388531Y-97749956D01*
X158357800Y-97723595D01*
X158323962Y-97695199D01*
X158289552Y-97666896D01*
X158257105Y-97640815D01*
X158229156Y-97619084D01*
X158209094Y-97604418D01*
X158179774Y-97584902D01*
X158163236Y-97575444D01*
X158163236Y-97422677D01*
X158229486Y-97465943D01*
X158321065Y-97531099D01*
X158356247Y-97558070D01*
X158400075Y-97593780D01*
X158452122Y-97638161D01*
X158509317Y-97688417D01*
X158568585Y-97741754D01*
X158626854Y-97795378D01*
X158681051Y-97846494D01*
X158728103Y-97892308D01*
X158763061Y-97928030D01*
X158795582Y-97962957D01*
X158817984Y-97988535D01*
X158832097Y-98007414D01*
X158839752Y-98022241D01*
X158842778Y-98035666D01*
X158843133Y-98043913D01*
X158835405Y-98076606D01*
X158835405Y-98076606D01*
G37*
X158835405Y-98076606D02*
X158813771Y-98102748D01*
X158780562Y-98120607D01*
X158738106Y-98128452D01*
X158729202Y-98128667D01*
X158698632Y-98124907D01*
X158662533Y-98113194D01*
X158619791Y-98092879D01*
X158569290Y-98063314D01*
X158509917Y-98023850D01*
X158440558Y-97973837D01*
X158365741Y-97917001D01*
X158306120Y-97870955D01*
X158258450Y-97834424D01*
X158221383Y-97806443D01*
X158193571Y-97786045D01*
X158173665Y-97772264D01*
X158160317Y-97764135D01*
X158152180Y-97760689D01*
X158147959Y-97760928D01*
X158143939Y-97771104D01*
X158145076Y-97773783D01*
X158147517Y-97785671D01*
X158149361Y-97809591D01*
X158150249Y-97840641D01*
X158150274Y-97844575D01*
X158148754Y-97885661D01*
X158143264Y-97914880D01*
X158134877Y-97933929D01*
X158110120Y-97964019D01*
X158079463Y-97983800D01*
X158046718Y-97992199D01*
X158015695Y-97988141D01*
X157993255Y-97973826D01*
X157978225Y-97957417D01*
X157964611Y-97938904D01*
X157951638Y-97916363D01*
X157938528Y-97887871D01*
X157924504Y-97851504D01*
X157908790Y-97805338D01*
X157890608Y-97747450D01*
X157869182Y-97675915D01*
X157859174Y-97641834D01*
X157840959Y-97587708D01*
X157818634Y-97534156D01*
X157793602Y-97483449D01*
X157767265Y-97437861D01*
X157741027Y-97399666D01*
X157716289Y-97371138D01*
X157694455Y-97354548D01*
X157679973Y-97351407D01*
X157669725Y-97354626D01*
X157664761Y-97363351D01*
X157663720Y-97381896D01*
X157664463Y-97400534D01*
X157669196Y-97444109D01*
X157679212Y-97501193D01*
X157693880Y-97569426D01*
X157712572Y-97646449D01*
X157734656Y-97729903D01*
X157759501Y-97817429D01*
X157786479Y-97906669D01*
X157814957Y-97995262D01*
X157844305Y-98080852D01*
X157852030Y-98102403D01*
X157871130Y-98151396D01*
X157895507Y-98208312D01*
X157923126Y-98268872D01*
X157951953Y-98328795D01*
X157979952Y-98383800D01*
X158005090Y-98429609D01*
X158016949Y-98449317D01*
X158037463Y-98478753D01*
X158061277Y-98508836D01*
X158068132Y-98516686D01*
X158092415Y-98547465D01*
X158102753Y-98572612D01*
X158099518Y-98595537D01*
X158083083Y-98619649D01*
X158079762Y-98623301D01*
X158054970Y-98644421D01*
X158029546Y-98657487D01*
X158024160Y-98658880D01*
X158005229Y-98660316D01*
X157989736Y-98654025D01*
X157971210Y-98637202D01*
X157969126Y-98635027D01*
X157954089Y-98616215D01*
X157933702Y-98586589D01*
X157910658Y-98550235D01*
X157887971Y-98511808D01*
X157860397Y-98465785D01*
X157826839Y-98413539D01*
X157791892Y-98362064D01*
X157765204Y-98325041D01*
X157738255Y-98290600D01*
X157701509Y-98245981D01*
X157656820Y-98193296D01*
X157606040Y-98134655D01*
X157551025Y-98072170D01*
X157493626Y-98007951D01*
X157435698Y-97944110D01*
X157379094Y-97882758D01*
X157344592Y-97845959D01*
X157304797Y-97805568D01*
X157263701Y-97766936D01*
X157223297Y-97731626D01*
X157185580Y-97701202D01*
X157152544Y-97677230D01*
X157126182Y-97661272D01*
X157108488Y-97654894D01*
X157102853Y-97656325D01*
X157101379Y-97668488D01*
X157106174Y-97693424D01*
X157116279Y-97728595D01*
X157130730Y-97771464D01*
X157148567Y-97819493D01*
X157168828Y-97870143D01*
X157190553Y-97920877D01*
X157212779Y-97969155D01*
X157234546Y-98012442D01*
X157244889Y-98031301D01*
X157265833Y-98066645D01*
X157293947Y-98111953D01*
X157326737Y-98163403D01*
X157361707Y-98217173D01*
X157396363Y-98269440D01*
X157428208Y-98316383D01*
X157454748Y-98354179D01*
X157463210Y-98365734D01*
X157515128Y-98435640D01*
X157558805Y-98495108D01*
X157596371Y-98547087D01*
X157629952Y-98594528D01*
X157661678Y-98640380D01*
X157667816Y-98649367D01*
X157710687Y-98712174D01*
X157745276Y-98762566D01*
X157772774Y-98802163D01*
X157794370Y-98832586D01*
X157811256Y-98855456D01*
X157824623Y-98872393D01*
X157835660Y-98885019D01*
X157845558Y-98894953D01*
X157853423Y-98902022D01*
X157875041Y-98920681D01*
X157903848Y-98945449D01*
X157934156Y-98971439D01*
X157938705Y-98975334D01*
X157983934Y-99016884D01*
X158026276Y-99062306D01*
X158068773Y-99115185D01*
X158114467Y-99179105D01*
X158125709Y-99195687D01*
X158156649Y-99243627D01*
X158176989Y-99280940D01*
X158187016Y-99309967D01*
X158187018Y-99333050D01*
X158177280Y-99352532D01*
X158158092Y-99370755D01*
X158148073Y-99378051D01*
X158112618Y-99394709D01*
X158077402Y-99397312D01*
X158046143Y-99386183D01*
X158026406Y-99367499D01*
X158010256Y-99347837D01*
X157987839Y-99323653D01*
X157973933Y-99309786D01*
X157953463Y-99287301D01*
X157928363Y-99255671D01*
X157902774Y-99220236D01*
X157891853Y-99203934D01*
X157843277Y-99130975D01*
X157801408Y-99071899D01*
X157765232Y-99025520D01*
X157733734Y-98990651D01*
X157705899Y-98966104D01*
X157680714Y-98950693D01*
X157672421Y-98947269D01*
X157662352Y-98945231D01*
X157663496Y-98952881D01*
X157666977Y-98959729D01*
X157676745Y-98976040D01*
X157693984Y-99002945D01*
X157716507Y-99037130D01*
X157742128Y-99075280D01*
X157768658Y-99114080D01*
X157772245Y-99119267D01*
X157809768Y-99173792D01*
X157842662Y-99222491D01*
X157876234Y-99273254D01*
X157890865Y-99295635D01*
X157919829Y-99339220D01*
X157946030Y-99376363D01*
X157972858Y-99411452D01*
X158003706Y-99448875D01*
X158041963Y-99493021D01*
X158053579Y-99506184D01*
X158082321Y-99539702D01*
X158100858Y-99564315D01*
X158111073Y-99582979D01*
X158114843Y-99598651D01*
X158115000Y-99602795D01*
X158107229Y-99631824D01*
X158086655Y-99656395D01*
X158057381Y-99672952D01*
X158028157Y-99678067D01*
X158011534Y-99676864D01*
X157996540Y-99671993D01*
X157981123Y-99661567D01*
X157963228Y-99643696D01*
X157940799Y-99616489D01*
X157911783Y-99578059D01*
X157895934Y-99556471D01*
X157873709Y-99526962D01*
X157855067Y-99503915D01*
X157842205Y-99489936D01*
X157837502Y-99487076D01*
X157839223Y-99496684D01*
X157849945Y-99517778D01*
X157868372Y-99548404D01*
X157893207Y-99586608D01*
X157923154Y-99630435D01*
X157956914Y-99677930D01*
X157993192Y-99727137D01*
X158020878Y-99763482D01*
X158041462Y-99793750D01*
X158059561Y-99826816D01*
X158072922Y-99857864D01*
X158079296Y-99882078D01*
X158079389Y-99888742D01*
X158068560Y-99912142D01*
X158044440Y-99931347D01*
X158010579Y-99943940D01*
X157994371Y-99946667D01*
X157969869Y-99948208D01*
X157954539Y-99943668D01*
X157940888Y-99929988D01*
X157935105Y-99922453D01*
X157919482Y-99899557D01*
X157900600Y-99869010D01*
X157885761Y-99843167D01*
X157836825Y-99759910D01*
X157787393Y-99688524D01*
X157734374Y-99625749D01*
X157674679Y-99568324D01*
X157605220Y-99512990D01*
X157522907Y-99456485D01*
X157513866Y-99450656D01*
X157424213Y-99392734D01*
X157344682Y-99340454D01*
X157270814Y-99290855D01*
X157198149Y-99240974D01*
X157196954Y-99240145D01*
X157149511Y-99207936D01*
X157114384Y-99185778D01*
X157090647Y-99173173D01*
X157077372Y-99169622D01*
X157073600Y-99173902D01*
X157076660Y-99185362D01*
X157085005Y-99209262D01*
X157097382Y-99242422D01*
X157112538Y-99281661D01*
X157129221Y-99323799D01*
X157146178Y-99365655D01*
X157162157Y-99404050D01*
X157175903Y-99435802D01*
X157182145Y-99449467D01*
X157213973Y-99515553D01*
X157241715Y-99568987D01*
X157267515Y-99612861D01*
X157293512Y-99650272D01*
X157321849Y-99684312D01*
X157354667Y-99718076D01*
X157392103Y-99752856D01*
X157436824Y-99794958D01*
X157486085Y-99844436D01*
X157536340Y-99897473D01*
X157584040Y-99950248D01*
X157625640Y-99998944D01*
X157653901Y-100034740D01*
X157666516Y-100051554D01*
X157685913Y-100077307D01*
X157708655Y-100107438D01*
X157717700Y-100119407D01*
X157744076Y-100154758D01*
X157775138Y-100197089D01*
X157805851Y-100239515D01*
X157819091Y-100258034D01*
X157848195Y-100296664D01*
X157881091Y-100336770D01*
X157912569Y-100372123D01*
X157926408Y-100386327D01*
X157955336Y-100416498D01*
X157972353Y-100439096D01*
X157979201Y-100456565D01*
X157979533Y-100460967D01*
X157972908Y-100494392D01*
X157952155Y-100519483D01*
X157935920Y-100529629D01*
X157911933Y-100538615D01*
X157888356Y-100538946D01*
X157862589Y-100529565D01*
X157832028Y-100509410D01*
X157794073Y-100477421D01*
X157783001Y-100467338D01*
X157746659Y-100434078D01*
X157707432Y-100398497D01*
X157671293Y-100366003D01*
X157654629Y-100351167D01*
X157626847Y-100324731D01*
X157592707Y-100289489D01*
X157556388Y-100249892D01*
X157522070Y-100210388D01*
X157519579Y-100207417D01*
X157495412Y-100178140D01*
X157471485Y-100148298D01*
X157446423Y-100116044D01*
X157418852Y-100079530D01*
X157387400Y-100036912D01*
X157350691Y-99986341D01*
X157307351Y-99925972D01*
X157256008Y-99853958D01*
X157243589Y-99836492D01*
X157224430Y-99811340D01*
X157207311Y-99791995D01*
X157195856Y-99782537D01*
X157195643Y-99782451D01*
X157179271Y-99781299D01*
X157172488Y-99792868D01*
X157175862Y-99815550D01*
X157179968Y-99826851D01*
X157192412Y-99854866D01*
X157210981Y-99893762D01*
X157233654Y-99939574D01*
X157258408Y-99988338D01*
X157283222Y-100036089D01*
X157306076Y-100078864D01*
X157324946Y-100112698D01*
X157330761Y-100122567D01*
X157346014Y-100148707D01*
X157357000Y-100169194D01*
X157361436Y-100179757D01*
X157361445Y-100179925D01*
X157365616Y-100189862D01*
X157376591Y-100209962D01*
X157392101Y-100236092D01*
X157394007Y-100239191D01*
X157436449Y-100309630D01*
X157472520Y-100373509D01*
X157503025Y-100431601D01*
X157522868Y-100468943D01*
X157546252Y-100510528D01*
X157564683Y-100541667D01*
X157584563Y-100576695D01*
X157603339Y-100614035D01*
X157616000Y-100643267D01*
X157628396Y-100672003D01*
X157641501Y-100696297D01*
X157648998Y-100706767D01*
X157659682Y-100722217D01*
X157675473Y-100749580D01*
X157694601Y-100785294D01*
X157715300Y-100825799D01*
X157735800Y-100867532D01*
X157754332Y-100906932D01*
X157769129Y-100940438D01*
X157778421Y-100964487D01*
X157780331Y-100971253D01*
X157786313Y-100991382D01*
X157792966Y-101002883D01*
X157793350Y-101003152D01*
X157800538Y-101012657D01*
X157812042Y-101032953D01*
X157823679Y-101056166D01*
X157848598Y-101107704D01*
X157873193Y-101157041D01*
X157894788Y-101198850D01*
X157903350Y-101214767D01*
X157912233Y-101232632D01*
X157925782Y-101261871D01*
X157942074Y-101298260D01*
X157957347Y-101333301D01*
X157977254Y-101378698D01*
X157998918Y-101426693D01*
X158019236Y-101470471D01*
X158030608Y-101494167D01*
X158055983Y-101547108D01*
X158077203Y-101593715D01*
X158093325Y-101631768D01*
X158103406Y-101659050D01*
X158106533Y-101672645D01*
X158111011Y-101686377D01*
X158122164Y-101706705D01*
X158126232Y-101712943D01*
X158140151Y-101738036D01*
X158154154Y-101770388D01*
X158160882Y-101789504D01*
X158170120Y-101815848D01*
X158178604Y-101834994D01*
X158183275Y-101841635D01*
X158191508Y-101852614D01*
X158203485Y-101875752D01*
X158217596Y-101907145D01*
X158232225Y-101942889D01*
X158245761Y-101979080D01*
X158256588Y-102011814D01*
X158262113Y-102032419D01*
X158269962Y-102053180D01*
X158283614Y-102078379D01*
X158288403Y-102085787D01*
X158302033Y-102109890D01*
X158318644Y-102145072D01*
X158336159Y-102186254D01*
X158352502Y-102228356D01*
X158365595Y-102266296D01*
X158372780Y-102292206D01*
X158380448Y-102316033D01*
X158393100Y-102345484D01*
X158400353Y-102359891D01*
X158416303Y-102392844D01*
X158431942Y-102430082D01*
X158437734Y-102445746D01*
X158447814Y-102472553D01*
X158457000Y-102493266D01*
X158461541Y-102500987D01*
X158470497Y-102517650D01*
X158480808Y-102545420D01*
X158490708Y-102578761D01*
X158498426Y-102612137D01*
X158500129Y-102621807D01*
X158507733Y-102649304D01*
X158519420Y-102672571D01*
X158522283Y-102676285D01*
X158536412Y-102698182D01*
X158543591Y-102717045D01*
X158550605Y-102740595D01*
X158560294Y-102765447D01*
X158568765Y-102790066D01*
X158572468Y-102811929D01*
X158572469Y-102812013D01*
X158577836Y-102834913D01*
X158585169Y-102848335D01*
X158595019Y-102866579D01*
X158597600Y-102878094D01*
X158601424Y-102893530D01*
X158610989Y-102916034D01*
X158615041Y-102923959D01*
X158626594Y-102952828D01*
X158635128Y-102987158D01*
X158636974Y-103000033D01*
X158644043Y-103046525D01*
X158654364Y-103085315D01*
X158666760Y-103112187D01*
X158669202Y-103115534D01*
X158682247Y-103138953D01*
X158694751Y-103173754D01*
X158705033Y-103214424D01*
X158711203Y-103253375D01*
X158718452Y-103290784D01*
X158731005Y-103330070D01*
X158738140Y-103346508D01*
X158758105Y-103405530D01*
X158763385Y-103445451D01*
X158766860Y-103479794D01*
X158772287Y-103512017D01*
X158776952Y-103530117D01*
X158781283Y-103550391D01*
X158784524Y-103579889D01*
X158786623Y-103614720D01*
X158787529Y-103650991D01*
X158787189Y-103684809D01*
X158785554Y-103712283D01*
X158782572Y-103729520D01*
X158779633Y-103733410D01*
X158761535Y-103725465D01*
X158743226Y-103705154D01*
X158728125Y-103676651D01*
X158724338Y-103665867D01*
X158713953Y-103635629D01*
X158700276Y-103600289D01*
X158692239Y-103581200D01*
X158681567Y-103554451D01*
X158667191Y-103515002D01*
X158650281Y-103466370D01*
X158632008Y-103412070D01*
X158613544Y-103355619D01*
X158596061Y-103300534D01*
X158580728Y-103250330D01*
X158571777Y-103219533D01*
X158564180Y-103194480D01*
X158552242Y-103157416D01*
X158536824Y-103110832D01*
X158518786Y-103057217D01*
X158498989Y-102999062D01*
X158478295Y-102938856D01*
X158457564Y-102879090D01*
X158437657Y-102822252D01*
X158419434Y-102770834D01*
X158403757Y-102727326D01*
X158391486Y-102694216D01*
X158383483Y-102673995D01*
X158382148Y-102671034D01*
X158375159Y-102655038D01*
X158363297Y-102626347D01*
X158347813Y-102588052D01*
X158329959Y-102543245D01*
X158313601Y-102501700D01*
X158277232Y-102408987D01*
X158245542Y-102328692D01*
X158217280Y-102257826D01*
X158191196Y-102193396D01*
X158166040Y-102132413D01*
X158140561Y-102071885D01*
X158113510Y-102008822D01*
X158083635Y-101940234D01*
X158049687Y-101863128D01*
X158010416Y-101774515D01*
X157996829Y-101743934D01*
X157964581Y-101671413D01*
X157938009Y-101611766D01*
X157915925Y-101562386D01*
X157897141Y-101520664D01*
X157880471Y-101483996D01*
X157864726Y-101449773D01*
X157848719Y-101415388D01*
X157831264Y-101378235D01*
X157811172Y-101335706D01*
X157804023Y-101320601D01*
X157783939Y-101277715D01*
X157764261Y-101234895D01*
X157747375Y-101197379D01*
X157736519Y-101172434D01*
X157712949Y-101118736D01*
X157682744Y-101053365D01*
X157647474Y-100979465D01*
X157608708Y-100900175D01*
X157568016Y-100818637D01*
X157526967Y-100737993D01*
X157487131Y-100661383D01*
X157450076Y-100591950D01*
X157417373Y-100532834D01*
X157414098Y-100527077D01*
X157390203Y-100485046D01*
X157368364Y-100446319D01*
X157350393Y-100414133D01*
X157338101Y-100391724D01*
X157334567Y-100385034D01*
X157324511Y-100366385D01*
X157308018Y-100336978D01*
X157286791Y-100299744D01*
X157262533Y-100257612D01*
X157236949Y-100213511D01*
X157211742Y-100170371D01*
X157188616Y-100131121D01*
X157169274Y-100098690D01*
X157155421Y-100076009D01*
X157149924Y-100067534D01*
X157132407Y-100039479D01*
X157111488Y-100001372D01*
X157089604Y-99958183D01*
X157069187Y-99914879D01*
X157052672Y-99876431D01*
X157042804Y-99848887D01*
X157035218Y-99817729D01*
X157034076Y-99793947D01*
X157039046Y-99769399D01*
X157039500Y-99767831D01*
X157054689Y-99727616D01*
X157073964Y-99700613D01*
X157100060Y-99683154D01*
X157103892Y-99681480D01*
X157122861Y-99670364D01*
X157132545Y-99658450D01*
X157132866Y-99656388D01*
X157129007Y-99643214D01*
X157118761Y-99619790D01*
X157104125Y-99590576D01*
X157099757Y-99582418D01*
X157077316Y-99538462D01*
X157053456Y-99487194D01*
X157029264Y-99431448D01*
X157005829Y-99374058D01*
X156984242Y-99317856D01*
X156965590Y-99265675D01*
X156950962Y-99220348D01*
X156941447Y-99184708D01*
X156938133Y-99161923D01*
X156944409Y-99132217D01*
X156960580Y-99099312D01*
X156982666Y-99069710D01*
X157006684Y-99049913D01*
X157006745Y-99049880D01*
X157042842Y-99038089D01*
X157085171Y-99035257D01*
X157125665Y-99041462D01*
X157143870Y-99048567D01*
X157162915Y-99059699D01*
X157192516Y-99078566D01*
X157229483Y-99103015D01*
X157270624Y-99130893D01*
X157312750Y-99160048D01*
X157352669Y-99188327D01*
X157374166Y-99203929D01*
X157406200Y-99226633D01*
X157441835Y-99250582D01*
X157478186Y-99273996D01*
X157512365Y-99295096D01*
X157541484Y-99312103D01*
X157562656Y-99323238D01*
X157572994Y-99326723D01*
X157573277Y-99326612D01*
X157579252Y-99316336D01*
X157584150Y-99299135D01*
X157597443Y-99266979D01*
X157621081Y-99237540D01*
X157649404Y-99217813D01*
X157650173Y-99217484D01*
X157673615Y-99207627D01*
X157650891Y-99173814D01*
X157636629Y-99153382D01*
X157615200Y-99123636D01*
X157589648Y-99088767D01*
X157566157Y-99057157D01*
X157522864Y-98998333D01*
X157489716Y-98950853D01*
X157465843Y-98913203D01*
X157450373Y-98883867D01*
X157442436Y-98861328D01*
X157441162Y-98844070D01*
X157441751Y-98840544D01*
X157455204Y-98812936D01*
X157480265Y-98787064D01*
X157511807Y-98767236D01*
X157539487Y-98758416D01*
X157560548Y-98754219D01*
X157572270Y-98750273D01*
X157573133Y-98749294D01*
X157568077Y-98739125D01*
X157553389Y-98716579D01*
X157529788Y-98682678D01*
X157497994Y-98638447D01*
X157458725Y-98584909D01*
X157437454Y-98556234D01*
X157354544Y-98441619D01*
X157278207Y-98329623D01*
X157209430Y-98221891D01*
X157149203Y-98120067D01*
X157098516Y-98025797D01*
X157058357Y-97940726D01*
X157039687Y-97894677D01*
X157009071Y-97807853D01*
X156987654Y-97734193D01*
X156975437Y-97672647D01*
X156972415Y-97622163D01*
X156978590Y-97581691D01*
X156993958Y-97550179D01*
X157018518Y-97526577D01*
X157039139Y-97515102D01*
X157064059Y-97505488D01*
X157084562Y-97503500D01*
X157110176Y-97508419D01*
X157114086Y-97509450D01*
X157145946Y-97520464D01*
X157180173Y-97537485D01*
X157217723Y-97561351D01*
X157259551Y-97592899D01*
X157306612Y-97632965D01*
X157359861Y-97682389D01*
X157420253Y-97742006D01*
X157488744Y-97812654D01*
X157566289Y-97895172D01*
X157618194Y-97951421D01*
X157644273Y-97979679D01*
X157660843Y-97996648D01*
X157669835Y-98003527D01*
X157673179Y-98001512D01*
X157672804Y-97991803D01*
X157671866Y-97984734D01*
X157668216Y-97967083D01*
X157660623Y-97936464D01*
X157649948Y-97896144D01*
X157637055Y-97849394D01*
X157624964Y-97806934D01*
X157591057Y-97679926D01*
X157564806Y-97560601D01*
X157546816Y-97451812D01*
X157542890Y-97419567D01*
X157541706Y-97373167D01*
X157547509Y-97328755D01*
X157559286Y-97291548D01*
X157571681Y-97271217D01*
X157578211Y-97262125D01*
X157578703Y-97254340D01*
X157571086Y-97246179D01*
X157553287Y-97235955D01*
X157523234Y-97221985D01*
X157496933Y-97210440D01*
X157442388Y-97185927D01*
X157388704Y-97160431D01*
X157341080Y-97136482D01*
X157308930Y-97119046D01*
X157274316Y-97098148D01*
X157232928Y-97071450D01*
X157187120Y-97040651D01*
X157139251Y-97007451D01*
X157091675Y-96973548D01*
X157046750Y-96940641D01*
X157006832Y-96910430D01*
X156974276Y-96884614D01*
X156951440Y-96864892D01*
X156941240Y-96853903D01*
X156931332Y-96824638D01*
X156934457Y-96792205D01*
X156949450Y-96762656D01*
X156961148Y-96750759D01*
X156985744Y-96737011D01*
X157015736Y-96732695D01*
X157054045Y-96737828D01*
X157101116Y-96751580D01*
X157129001Y-96760604D01*
X157149350Y-96766275D01*
X157158171Y-96767496D01*
X157158266Y-96767312D01*
X157153416Y-96759354D01*
X157140560Y-96741627D01*
X157122239Y-96717610D01*
X157117576Y-96711634D01*
X157067242Y-96644943D01*
X157028577Y-96587866D01*
X157000676Y-96538674D01*
X156982632Y-96495641D01*
X156973540Y-96457039D01*
X156972000Y-96434075D01*
X156974424Y-96397989D01*
X156983501Y-96372926D01*
X157001941Y-96353444D01*
X157017342Y-96342957D01*
X157034514Y-96333279D01*
X157051090Y-96326990D01*
X157069023Y-96324615D01*
X157090266Y-96326678D01*
X157116771Y-96333705D01*
X157150489Y-96346218D01*
X157193373Y-96364744D01*
X157247376Y-96389806D01*
X157314449Y-96421928D01*
X157318383Y-96423827D01*
X157366757Y-96446988D01*
X157409762Y-96467218D01*
X157445154Y-96483492D01*
X157470691Y-96494784D01*
X157484131Y-96500069D01*
X157485609Y-96500281D01*
X157480972Y-96493615D01*
X157465932Y-96477396D01*
X157442508Y-96453582D01*
X157412715Y-96424131D01*
X157378571Y-96390999D01*
X157342093Y-96356146D01*
X157305297Y-96321528D01*
X157270202Y-96289103D01*
X157239736Y-96261638D01*
X157196269Y-96221125D01*
X157145777Y-96170853D01*
X157091395Y-96114222D01*
X157036258Y-96054636D01*
X156983501Y-95995495D01*
X156936260Y-95940203D01*
X156897669Y-95892161D01*
X156890435Y-95882612D01*
X156856146Y-95833752D01*
X156830914Y-95791439D01*
X156816234Y-95758202D01*
X156815614Y-95756192D01*
X156808541Y-95731014D01*
X156804251Y-95713066D01*
X156803594Y-95707780D01*
X156805672Y-95697187D01*
X156809777Y-95676359D01*
X156811563Y-95667315D01*
X156825453Y-95626540D01*
X156850734Y-95593091D01*
X156889660Y-95564388D01*
X156911934Y-95552478D01*
X156940334Y-95539300D01*
X156963836Y-95531343D01*
X156988602Y-95527374D01*
X156994414Y-95527156D01*
X156994414Y-95649860D01*
X156960190Y-95652277D01*
X156935896Y-95657514D01*
X156930821Y-95659920D01*
X156921747Y-95674769D01*
X156925644Y-95699485D01*
X156942306Y-95733301D01*
X156956123Y-95754480D01*
X156976255Y-95782711D01*
X156997455Y-95810969D01*
X157020564Y-95840134D01*
X157046423Y-95871082D01*
X157075873Y-95904692D01*
X157109755Y-95941840D01*
X157148911Y-95983405D01*
X157194180Y-96030265D01*
X157246405Y-96083297D01*
X157306426Y-96143379D01*
X157375084Y-96211388D01*
X157453221Y-96288203D01*
X157541677Y-96374701D01*
X157641293Y-96471760D01*
X157672550Y-96502164D01*
X157733985Y-96561790D01*
X157785054Y-96610984D01*
X157827446Y-96651204D01*
X157862850Y-96683911D01*
X157892955Y-96710563D01*
X157919450Y-96732619D01*
X157944025Y-96751538D01*
X157968369Y-96768779D01*
X157994170Y-96785801D01*
X158019380Y-96801731D01*
X158052253Y-96822430D01*
X158082094Y-96841719D01*
X158110933Y-96861073D01*
X158140799Y-96881968D01*
X158173721Y-96905878D01*
X158211729Y-96934279D01*
X158256852Y-96968646D01*
X158311119Y-97010454D01*
X158376560Y-97061179D01*
X158380334Y-97064109D01*
X158425953Y-97099265D01*
X158460011Y-97124732D01*
X158484102Y-97141486D01*
X158499819Y-97150502D01*
X158508754Y-97152757D01*
X158512500Y-97149225D01*
X158512926Y-97145323D01*
X158508635Y-97128591D01*
X158496720Y-97100372D01*
X158478600Y-97063495D01*
X158455694Y-97020789D01*
X158429422Y-96975082D01*
X158417948Y-96956034D01*
X158396176Y-96920049D01*
X158375654Y-96885517D01*
X158359339Y-96857443D01*
X158352902Y-96845967D01*
X158326308Y-96799618D01*
X158292745Y-96744712D01*
X158255372Y-96686258D01*
X158217352Y-96629269D01*
X158203900Y-96609768D01*
X158164761Y-96553673D01*
X158133673Y-96509311D01*
X158109053Y-96474490D01*
X158089314Y-96447020D01*
X158072874Y-96424708D01*
X158058146Y-96405363D01*
X158043548Y-96386794D01*
X158034566Y-96375579D01*
X157925671Y-96246875D01*
X157814525Y-96128343D01*
X157702144Y-96020768D01*
X157589544Y-95924932D01*
X157477740Y-95841619D01*
X157367747Y-95771611D01*
X157260581Y-95715692D01*
X157157258Y-95674644D01*
X157106085Y-95659615D01*
X157072420Y-95653520D01*
X157033510Y-95650272D01*
X156994414Y-95649860D01*
X156994414Y-95527156D01*
X157020795Y-95526165D01*
X157043398Y-95526226D01*
X157083876Y-95527552D01*
X157118107Y-95531561D01*
X157152852Y-95539510D01*
X157194871Y-95552653D01*
X157205873Y-95556405D01*
X157270404Y-95582156D01*
X157343767Y-95617535D01*
X157422428Y-95660600D01*
X157502856Y-95709410D01*
X157581518Y-95762023D01*
X157587078Y-95765948D01*
X157693540Y-95847380D01*
X157800892Y-95940724D01*
X157905716Y-96042491D01*
X158004595Y-96149193D01*
X158094114Y-96257339D01*
X158167976Y-96359134D01*
X158181187Y-96378458D01*
X158199039Y-96404131D01*
X158209065Y-96418400D01*
X158238159Y-96460108D01*
X158269745Y-96506204D01*
X158302426Y-96554564D01*
X158334805Y-96603062D01*
X158365487Y-96649573D01*
X158393075Y-96691971D01*
X158416173Y-96728132D01*
X158433384Y-96755930D01*
X158443312Y-96773239D01*
X158445200Y-96777826D01*
X158449544Y-96785823D01*
X158460848Y-96803685D01*
X158474234Y-96823910D01*
X158499511Y-96863947D01*
X158526844Y-96911322D01*
X158553832Y-96961465D01*
X158578075Y-97009811D01*
X158597173Y-97051791D01*
X158606309Y-97075273D01*
X158616143Y-97111607D01*
X158621632Y-97148252D01*
X158622506Y-97180576D01*
X158618496Y-97203944D01*
X158614219Y-97211195D01*
X158609874Y-97225678D01*
X158614688Y-97244308D01*
X158619910Y-97268525D01*
X158619055Y-97288098D01*
X158609005Y-97304654D01*
X158589328Y-97324223D01*
X158565492Y-97342472D01*
X158542965Y-97355066D01*
X158530616Y-97358200D01*
X158516641Y-97353631D01*
X158494465Y-97341797D01*
X158474736Y-97329179D01*
X158450019Y-97312757D01*
X158415726Y-97290712D01*
X158376775Y-97266179D01*
X158345179Y-97246629D01*
X158269905Y-97199980D01*
X158206494Y-97159321D01*
X158151993Y-97122442D01*
X158103451Y-97087128D01*
X158057918Y-97051167D01*
X158012441Y-97012347D01*
X157964069Y-96968454D01*
X157924500Y-96931241D01*
X157902139Y-96910185D01*
X157881612Y-96891614D01*
X157861345Y-96874552D01*
X157839762Y-96858021D01*
X157815289Y-96841045D01*
X157786351Y-96822646D01*
X157751374Y-96801849D01*
X157708782Y-96777676D01*
X157657001Y-96749151D01*
X157594457Y-96715296D01*
X157519573Y-96675134D01*
X157462178Y-96644459D01*
X157372449Y-96597010D01*
X157296353Y-96557787D01*
X157234049Y-96526866D01*
X157185697Y-96504321D01*
X157151457Y-96490229D01*
X157131489Y-96484663D01*
X157125967Y-96486151D01*
X157128394Y-96501438D01*
X157141712Y-96527413D01*
X157164851Y-96562777D01*
X157196740Y-96606232D01*
X157236308Y-96656479D01*
X157282486Y-96712221D01*
X157334201Y-96772159D01*
X157390384Y-96834994D01*
X157449965Y-96899429D01*
X157511871Y-96964165D01*
X157562241Y-97015187D01*
X157612969Y-97065495D01*
X157653884Y-97105208D01*
X157686884Y-97135963D01*
X157713866Y-97159399D01*
X157736727Y-97177152D01*
X157757364Y-97190861D01*
X157777673Y-97202163D01*
X157780498Y-97203596D01*
X157898649Y-97265441D01*
X158015030Y-97331114D01*
X158126391Y-97398615D01*
X158163236Y-97422677D01*
X158163236Y-97575444D01*
X158159014Y-97575550D01*
X158166646Y-97584725D01*
X158185667Y-97602476D01*
X158215616Y-97628308D01*
X158256027Y-97661728D01*
X158284333Y-97684600D01*
X158335682Y-97725539D01*
X158375167Y-97756410D01*
X158403901Y-97778024D01*
X158422998Y-97791191D01*
X158433570Y-97796722D01*
X158436733Y-97795546D01*
X158430532Y-97788060D01*
X158413620Y-97772154D01*
X158388531Y-97749956D01*
X158357800Y-97723595D01*
X158323962Y-97695199D01*
X158289552Y-97666896D01*
X158257105Y-97640815D01*
X158229156Y-97619084D01*
X158209094Y-97604418D01*
X158179774Y-97584902D01*
X158163236Y-97575444D01*
X158163236Y-97422677D01*
X158229486Y-97465943D01*
X158321065Y-97531099D01*
X158356247Y-97558070D01*
X158400075Y-97593780D01*
X158452122Y-97638161D01*
X158509317Y-97688417D01*
X158568585Y-97741754D01*
X158626854Y-97795378D01*
X158681051Y-97846494D01*
X158728103Y-97892308D01*
X158763061Y-97928030D01*
X158795582Y-97962957D01*
X158817984Y-97988535D01*
X158832097Y-98007414D01*
X158839752Y-98022241D01*
X158842778Y-98035666D01*
X158843133Y-98043913D01*
X158835405Y-98076606D01*
G36*
X158581630Y-93419506D02*
G01*
X158561382Y-93443930D01*
X158531783Y-93458474D01*
X158496225Y-93460761D01*
X158486881Y-93459157D01*
X158469239Y-93451446D01*
X158441387Y-93434692D01*
X158406033Y-93410795D01*
X158365888Y-93381658D01*
X158323661Y-93349183D01*
X158282962Y-93316029D01*
X158250407Y-93289572D01*
X158221774Y-93267987D01*
X158199680Y-93253112D01*
X158186743Y-93246787D01*
X158184750Y-93247028D01*
X158187960Y-93254855D01*
X158199562Y-93272977D01*
X158217523Y-93298345D01*
X158231358Y-93316899D01*
X158311010Y-93435415D01*
X158377093Y-93562690D01*
X158428327Y-93696066D01*
X158449065Y-93768492D01*
X158460670Y-93816676D01*
X158467394Y-93852165D01*
X158469336Y-93878450D01*
X158466598Y-93899021D01*
X158459280Y-93917367D01*
X158453631Y-93927295D01*
X158429535Y-93954068D01*
X158399892Y-93967280D01*
X158373052Y-93966498D01*
X158360918Y-93958722D01*
X158339646Y-93940148D01*
X158311254Y-93912720D01*
X158277758Y-93878382D01*
X158243474Y-93841601D01*
X158192678Y-93786660D01*
X158138169Y-93728938D01*
X158081713Y-93670205D01*
X158025074Y-93612228D01*
X157970017Y-93556774D01*
X157918306Y-93505613D01*
X157871706Y-93460511D01*
X157831980Y-93423237D01*
X157800894Y-93395559D01*
X157786895Y-93384117D01*
X157750875Y-93358539D01*
X157711454Y-93334068D01*
X157672387Y-93312688D01*
X157637430Y-93296381D01*
X157610340Y-93287127D01*
X157600489Y-93285760D01*
X157587271Y-93287965D01*
X157584816Y-93298013D01*
X157587069Y-93309017D01*
X157595120Y-93334346D01*
X157609535Y-93372485D01*
X157629240Y-93421034D01*
X157653157Y-93477593D01*
X157680210Y-93539762D01*
X157709323Y-93605140D01*
X157739418Y-93671328D01*
X157769421Y-93735925D01*
X157798253Y-93796532D01*
X157824839Y-93850748D01*
X157848103Y-93896172D01*
X157861429Y-93920734D01*
X157883756Y-93962132D01*
X157911422Y-94015974D01*
X157942967Y-94079199D01*
X157976931Y-94148741D01*
X158011853Y-94221537D01*
X158046274Y-94294525D01*
X158078733Y-94364641D01*
X158107769Y-94428821D01*
X158131923Y-94484002D01*
X158145954Y-94517634D01*
X158161414Y-94555865D01*
X158175084Y-94589598D01*
X158185406Y-94614996D01*
X158190608Y-94627701D01*
X158205962Y-94667063D01*
X158223060Y-94714875D01*
X158241022Y-94768232D01*
X158258970Y-94824233D01*
X158276024Y-94879974D01*
X158291305Y-94932552D01*
X158303932Y-94979064D01*
X158313028Y-95016608D01*
X158317711Y-95042281D01*
X158318152Y-95048693D01*
X158310201Y-95056544D01*
X158288165Y-95060577D01*
X158283989Y-95060789D01*
X158265635Y-95060799D01*
X158253286Y-95056931D01*
X158243027Y-95045914D01*
X158230941Y-95024472D01*
X158223836Y-95010497D01*
X158207747Y-94975778D01*
X158193075Y-94939352D01*
X158185168Y-94916074D01*
X158176807Y-94890137D01*
X158169261Y-94870736D01*
X158166063Y-94864767D01*
X158160402Y-94852968D01*
X158151537Y-94829795D01*
X158141293Y-94800043D01*
X158140309Y-94797034D01*
X158116782Y-94729879D01*
X158086559Y-94652658D01*
X158049365Y-94564778D01*
X158004925Y-94465645D01*
X157952964Y-94354666D01*
X157893206Y-94231246D01*
X157825378Y-94094793D01*
X157749203Y-93944713D01*
X157710767Y-93869934D01*
X157681181Y-93812091D01*
X157652428Y-93754983D01*
X157625990Y-93701621D01*
X157603350Y-93655016D01*
X157585989Y-93618177D01*
X157577423Y-93599001D01*
X157562893Y-93565112D01*
X157550117Y-93535607D01*
X157541090Y-93515080D01*
X157538831Y-93510101D01*
X157532727Y-93495195D01*
X157522598Y-93468602D01*
X157510055Y-93434602D01*
X157501240Y-93410197D01*
X157480299Y-93339757D01*
X157471966Y-93280452D01*
X157476263Y-93232086D01*
X157493213Y-93194466D01*
X157522839Y-93167397D01*
X157530005Y-93163378D01*
X157560337Y-93154217D01*
X157598796Y-93151339D01*
X157637743Y-93154853D01*
X157662033Y-93161495D01*
X157692857Y-93175139D01*
X157729953Y-93193885D01*
X157768807Y-93215184D01*
X157804903Y-93236489D01*
X157833724Y-93255252D01*
X157848415Y-93266635D01*
X157869785Y-93285809D01*
X157896474Y-93309272D01*
X157911915Y-93322652D01*
X157928384Y-93337594D01*
X157954744Y-93362444D01*
X157988883Y-93395167D01*
X158028685Y-93433727D01*
X158072039Y-93476091D01*
X158107539Y-93511035D01*
X158150178Y-93552809D01*
X158189155Y-93590348D01*
X158222784Y-93622079D01*
X158249377Y-93646430D01*
X158267248Y-93661827D01*
X158274546Y-93666734D01*
X158279108Y-93664193D01*
X158278664Y-93655171D01*
X158272471Y-93637570D01*
X158259788Y-93609289D01*
X158239871Y-93568230D01*
X158239297Y-93567067D01*
X158187823Y-93476142D01*
X158121420Y-93380944D01*
X158041134Y-93282810D01*
X157948015Y-93183078D01*
X157906125Y-93141800D01*
X157849410Y-93087384D01*
X157790258Y-93030959D01*
X157730627Y-92974366D01*
X157672476Y-92919450D01*
X157617763Y-92868051D01*
X157568446Y-92822013D01*
X157526485Y-92783178D01*
X157493838Y-92753390D01*
X157482288Y-92743056D01*
X157453958Y-92717555D01*
X157436056Y-92699474D01*
X157426183Y-92685179D01*
X157421940Y-92671038D01*
X157420927Y-92653416D01*
X157420905Y-92650093D01*
X157425813Y-92616314D01*
X157442539Y-92590557D01*
X157473568Y-92569102D01*
X157475821Y-92567931D01*
X157493812Y-92563621D01*
X157516269Y-92567960D01*
X157544744Y-92581787D01*
X157580788Y-92605944D01*
X157625951Y-92641274D01*
X157653543Y-92664329D01*
X157703441Y-92706610D01*
X157744500Y-92741044D01*
X157779847Y-92770049D01*
X157812607Y-92796045D01*
X157845904Y-92821452D01*
X157882863Y-92848689D01*
X157926610Y-92880175D01*
X157980269Y-92918328D01*
X157996466Y-92929807D01*
X158036100Y-92957728D01*
X158064011Y-92976890D01*
X158082179Y-92988481D01*
X158092583Y-92993691D01*
X158097204Y-92993710D01*
X158098067Y-92990832D01*
X158093342Y-92981850D01*
X158080202Y-92961464D01*
X158060195Y-92931959D01*
X158034873Y-92895622D01*
X158005784Y-92854736D01*
X158005754Y-92854694D01*
X157972720Y-92809372D01*
X157943609Y-92771472D01*
X157915868Y-92738393D01*
X157886944Y-92707531D01*
X157854285Y-92676285D01*
X157815336Y-92642052D01*
X157767546Y-92602231D01*
X157720883Y-92564319D01*
X157684985Y-92533077D01*
X157641295Y-92491507D01*
X157592556Y-92442540D01*
X157541513Y-92389103D01*
X157490909Y-92334127D01*
X157443487Y-92280541D01*
X157401991Y-92231274D01*
X157369164Y-92189255D01*
X157367592Y-92187112D01*
X157336257Y-92139312D01*
X157318106Y-92099051D01*
X157312356Y-92064292D01*
X157314063Y-92047433D01*
X157326782Y-92013997D01*
X157348495Y-91985016D01*
X157374958Y-91965387D01*
X157389456Y-91960450D01*
X157416833Y-91959808D01*
X157454071Y-91964771D01*
X157475479Y-91969586D01*
X157475479Y-92109384D01*
X157471533Y-92114281D01*
X157476497Y-92122853D01*
X157489795Y-92141277D01*
X157509033Y-92166303D01*
X157519828Y-92179898D01*
X157556775Y-92224948D01*
X157592436Y-92266582D01*
X157625165Y-92303053D01*
X157653321Y-92332612D01*
X157675260Y-92353512D01*
X157689338Y-92364007D01*
X157693431Y-92364490D01*
X157695567Y-92352593D01*
X157691630Y-92332663D01*
X157690718Y-92329919D01*
X157685477Y-92297151D01*
X157687862Y-92255199D01*
X157696540Y-92213474D01*
X157697392Y-92202335D01*
X157690309Y-92193612D01*
X157672036Y-92184477D01*
X157655991Y-92178235D01*
X157623141Y-92165015D01*
X157584729Y-92148234D01*
X157556370Y-92135011D01*
X157519617Y-92118870D01*
X157492004Y-92110169D01*
X157475479Y-92109384D01*
X157475479Y-91969586D01*
X157495542Y-91974100D01*
X157535622Y-91986552D01*
X157565667Y-91999311D01*
X157587320Y-92008705D01*
X157602438Y-92012237D01*
X157605695Y-92011395D01*
X157604640Y-92005207D01*
X157594269Y-91992811D01*
X157573753Y-91973473D01*
X157542261Y-91946462D01*
X157498965Y-91911044D01*
X157443034Y-91866487D01*
X157429200Y-91855581D01*
X157384306Y-91820943D01*
X157349131Y-91795672D01*
X157320709Y-91777915D01*
X157296076Y-91765818D01*
X157272566Y-91757612D01*
X157146569Y-91718142D01*
X157026111Y-91674316D01*
X156914080Y-91627340D01*
X156813366Y-91578420D01*
X156731419Y-91531631D01*
X156690669Y-91503943D01*
X156663142Y-91479075D01*
X156646217Y-91453869D01*
X156637274Y-91425166D01*
X156635896Y-91416466D01*
X156634362Y-91393266D01*
X156639649Y-91377116D01*
X156654796Y-91360234D01*
X156659570Y-91355816D01*
X156680850Y-91339910D01*
X156700546Y-91330784D01*
X156706095Y-91329934D01*
X156724733Y-91332757D01*
X156755416Y-91340422D01*
X156794369Y-91351725D01*
X156837820Y-91365461D01*
X156881997Y-91380425D01*
X156923126Y-91395412D01*
X156957434Y-91409217D01*
X156965375Y-91412739D01*
X157013309Y-91436488D01*
X157072220Y-91468782D01*
X157139477Y-91508089D01*
X157212447Y-91552879D01*
X157275772Y-91593319D01*
X157313459Y-91617358D01*
X157343481Y-91634731D01*
X157370934Y-91647581D01*
X157400912Y-91658055D01*
X157438511Y-91668295D01*
X157475021Y-91677170D01*
X157517358Y-91687307D01*
X157554741Y-91696368D01*
X157583560Y-91703469D01*
X157600206Y-91707728D01*
X157601710Y-91708148D01*
X157613184Y-91709427D01*
X157612198Y-91704005D01*
X157600766Y-91693965D01*
X157580903Y-91681393D01*
X157570442Y-91675813D01*
X157527725Y-91651890D01*
X157478371Y-91620675D01*
X157427146Y-91585506D01*
X157378815Y-91549720D01*
X157338144Y-91516656D01*
X157321050Y-91501114D01*
X157275894Y-91449904D01*
X157247102Y-91399188D01*
X157234902Y-91349394D01*
X157234466Y-91338250D01*
X157238059Y-91301884D01*
X157250346Y-91268707D01*
X157273589Y-91233444D01*
X157285943Y-91218187D01*
X157319405Y-91178407D01*
X157279052Y-91155596D01*
X157219743Y-91119952D01*
X157172956Y-91087305D01*
X157139998Y-91058626D01*
X157126586Y-91042535D01*
X157111742Y-91007744D01*
X157108095Y-90968467D01*
X157116034Y-90931916D01*
X157120166Y-90923534D01*
X157129043Y-90906544D01*
X157132566Y-90897181D01*
X157126319Y-90890231D01*
X157109344Y-90875996D01*
X157084721Y-90856996D01*
X157071483Y-90847210D01*
X157035806Y-90819502D01*
X156997300Y-90786804D01*
X156958835Y-90751864D01*
X156923282Y-90717426D01*
X156893509Y-90686236D01*
X156872387Y-90661040D01*
X156864846Y-90649540D01*
X156855132Y-90619059D01*
X156852613Y-90583129D01*
X156857246Y-90549296D01*
X156865541Y-90529601D01*
X156882897Y-90509256D01*
X156906031Y-90494689D01*
X156937832Y-90484949D01*
X156981187Y-90479088D01*
X157027033Y-90476523D01*
X157096587Y-90477727D01*
X157180256Y-90485407D01*
X157276646Y-90499240D01*
X157384365Y-90518904D01*
X157502017Y-90544078D01*
X157628209Y-90574439D01*
X157761547Y-90609666D01*
X157900637Y-90649437D01*
X158044086Y-90693430D01*
X158190499Y-90741323D01*
X158226141Y-90753436D01*
X158263241Y-90765475D01*
X158298382Y-90775741D01*
X158325597Y-90782527D01*
X158331975Y-90783736D01*
X158364767Y-90789029D01*
X158333946Y-90761031D01*
X158309876Y-90742192D01*
X158277949Y-90721069D01*
X158249279Y-90704545D01*
X158115712Y-90635701D01*
X157992639Y-90576322D01*
X157877293Y-90525341D01*
X157766909Y-90481692D01*
X157658719Y-90444308D01*
X157549958Y-90412123D01*
X157437859Y-90384071D01*
X157391100Y-90373689D01*
X157369340Y-90369031D01*
X157335754Y-90361855D01*
X157295080Y-90353173D01*
X157255633Y-90344759D01*
X157213152Y-90335484D01*
X157173968Y-90326538D01*
X157142611Y-90318978D01*
X157124400Y-90314107D01*
X157083445Y-90304036D01*
X157031471Y-90294664D01*
X156974392Y-90286786D01*
X156918123Y-90281197D01*
X156868576Y-90278694D01*
X156860646Y-90278633D01*
X156824055Y-90278168D01*
X156800213Y-90276138D01*
X156784953Y-90271695D01*
X156774107Y-90263994D01*
X156770544Y-90260329D01*
X156751412Y-90227861D01*
X156747693Y-90191015D01*
X156756890Y-90159219D01*
X156768185Y-90140746D01*
X156783039Y-90129267D01*
X156804743Y-90123942D01*
X156836584Y-90123930D01*
X156878867Y-90128033D01*
X156902303Y-90130174D01*
X156940211Y-90132841D01*
X156990143Y-90135898D01*
X157049650Y-90139208D01*
X157116286Y-90142631D01*
X157187601Y-90146033D01*
X157247166Y-90148680D01*
X157362417Y-90153955D01*
X157463158Y-90159346D01*
X157551812Y-90165081D01*
X157630800Y-90171387D01*
X157702547Y-90178492D01*
X157769475Y-90186625D01*
X157834007Y-90196013D01*
X157898565Y-90206884D01*
X157932966Y-90213202D01*
X157982890Y-90222546D01*
X158030750Y-90231407D01*
X158072394Y-90239022D01*
X158103669Y-90244630D01*
X158114275Y-90246469D01*
X158137925Y-90249544D01*
X158171311Y-90252665D01*
X158211159Y-90255663D01*
X158254198Y-90258369D01*
X158297154Y-90260614D01*
X158336757Y-90262231D01*
X158369733Y-90263049D01*
X158392810Y-90262900D01*
X158402717Y-90261616D01*
X158402867Y-90261349D01*
X158396972Y-90249249D01*
X158381514Y-90229757D01*
X158359837Y-90206443D01*
X158335281Y-90182881D01*
X158311188Y-90162641D01*
X158308905Y-90160916D01*
X158222214Y-90105470D01*
X158121194Y-90057551D01*
X158006871Y-90017553D01*
X157880274Y-89985869D01*
X157822900Y-89974998D01*
X157774126Y-89966578D01*
X157715884Y-89956518D01*
X157655392Y-89946065D01*
X157599869Y-89936465D01*
X157598533Y-89936234D01*
X157543257Y-89926802D01*
X157482823Y-89916699D01*
X157424442Y-89907119D01*
X157375325Y-89899257D01*
X157374166Y-89899075D01*
X157331713Y-89892383D01*
X157277614Y-89883798D01*
X157216940Y-89874129D01*
X157154762Y-89864183D01*
X157107466Y-89856589D01*
X157054360Y-89848686D01*
X156996722Y-89841203D01*
X156937139Y-89834365D01*
X156878198Y-89828393D01*
X156822485Y-89823509D01*
X156772586Y-89819935D01*
X156731089Y-89817894D01*
X156700578Y-89817608D01*
X156683642Y-89819299D01*
X156681880Y-89820026D01*
X156669778Y-89820166D01*
X156650302Y-89814406D01*
X156649043Y-89813894D01*
X156624264Y-89795287D01*
X156610713Y-89766829D01*
X156609531Y-89732272D01*
X156616481Y-89706944D01*
X156634563Y-89680845D01*
X156662512Y-89668274D01*
X156700645Y-89669101D01*
X156706194Y-89670151D01*
X156763757Y-89679891D01*
X156837529Y-89688897D01*
X156926798Y-89697118D01*
X157030854Y-89704503D01*
X157148985Y-89711001D01*
X157280482Y-89716562D01*
X157420733Y-89721029D01*
X157568453Y-89724984D01*
X157700080Y-89728338D01*
X157816446Y-89731091D01*
X157918379Y-89733244D01*
X158006712Y-89734797D01*
X158082273Y-89735750D01*
X158145894Y-89736104D01*
X158198404Y-89735860D01*
X158240634Y-89735016D01*
X158273414Y-89733575D01*
X158297575Y-89731536D01*
X158313946Y-89728899D01*
X158323359Y-89725666D01*
X158326643Y-89721836D01*
X158326667Y-89721443D01*
X158320399Y-89710236D01*
X158303337Y-89691103D01*
X158278095Y-89666463D01*
X158247284Y-89638734D01*
X158213517Y-89610335D01*
X158179407Y-89583684D01*
X158171687Y-89577982D01*
X158119692Y-89539997D01*
X158079802Y-89510603D01*
X158050413Y-89488447D01*
X158029926Y-89472173D01*
X158016738Y-89460429D01*
X158009248Y-89451859D01*
X158005855Y-89445112D01*
X158004956Y-89438831D01*
X158004933Y-89437008D01*
X158007347Y-89418542D01*
X158015949Y-89408690D01*
X158032785Y-89407389D01*
X158059899Y-89414575D01*
X158099333Y-89430187D01*
X158107836Y-89433860D01*
X158175356Y-89468376D01*
X158247090Y-89514097D01*
X158318419Y-89567783D01*
X158384725Y-89626191D01*
X158392245Y-89633482D01*
X158417781Y-89659046D01*
X158433411Y-89677222D01*
X158441536Y-89692255D01*
X158444555Y-89708389D01*
X158444895Y-89726615D01*
X158440108Y-89762199D01*
X158425647Y-89791321D01*
X158400501Y-89814354D01*
X158363660Y-89831676D01*
X158314113Y-89843661D01*
X158250849Y-89850686D01*
X158172857Y-89853125D01*
X158106780Y-89852247D01*
X158054834Y-89851204D01*
X158006217Y-89850931D01*
X157964502Y-89851396D01*
X157933264Y-89852564D01*
X157918176Y-89853990D01*
X157903430Y-89856222D01*
X157893710Y-89857934D01*
X157890788Y-89859889D01*
X157896438Y-89862848D01*
X157912431Y-89867575D01*
X157940541Y-89874829D01*
X157982540Y-89885375D01*
X158003406Y-89890630D01*
X158082075Y-89913802D01*
X158160181Y-89942955D01*
X158235564Y-89976811D01*
X158306060Y-90014090D01*
X158369509Y-90053513D01*
X158423749Y-90093802D01*
X158466618Y-90133676D01*
X158495955Y-90171857D01*
X158503495Y-90186553D01*
X158517185Y-90231373D01*
X158520865Y-90275706D01*
X158514474Y-90314579D01*
X158505331Y-90333904D01*
X158480278Y-90363321D01*
X158449734Y-90381116D01*
X158409722Y-90389145D01*
X158385003Y-90390078D01*
X158336306Y-90388544D01*
X158274139Y-90384096D01*
X158201646Y-90377089D01*
X158121971Y-90367877D01*
X158038258Y-90356814D01*
X157953652Y-90344253D01*
X157899100Y-90335357D01*
X157824329Y-90323140D01*
X157760988Y-90313702D01*
X157709732Y-90307069D01*
X157671220Y-90303267D01*
X157646108Y-90302320D01*
X157635054Y-90304254D01*
X157638714Y-90309096D01*
X157657746Y-90316870D01*
X157691666Y-90327280D01*
X157750623Y-90345772D01*
X157817290Y-90370159D01*
X157893197Y-90401077D01*
X157979874Y-90439160D01*
X158078849Y-90485044D01*
X158127700Y-90508354D01*
X158219071Y-90553287D01*
X158295931Y-90593423D01*
X158359703Y-90629702D01*
X158411807Y-90663066D01*
X158453664Y-90694456D01*
X158486695Y-90724815D01*
X158512321Y-90755082D01*
X158522396Y-90769835D01*
X158540144Y-90803117D01*
X158545625Y-90831308D01*
X158539248Y-90860541D01*
X158529839Y-90881255D01*
X158514550Y-90906177D01*
X158496803Y-90921489D01*
X158472176Y-90929352D01*
X158436248Y-90931928D01*
X158426055Y-90932000D01*
X158402444Y-90930876D01*
X158375812Y-90927053D01*
X158343355Y-90919860D01*
X158302269Y-90908624D01*
X158249751Y-90892674D01*
X158211715Y-90880602D01*
X158158555Y-90863576D01*
X158107307Y-90847212D01*
X158061529Y-90832643D01*
X158024776Y-90821001D01*
X158000700Y-90813447D01*
X157971500Y-90804321D01*
X157931858Y-90791841D01*
X157887464Y-90777801D01*
X157852533Y-90766709D01*
X157768624Y-90741733D01*
X157671538Y-90715805D01*
X157564932Y-90689790D01*
X157452464Y-90664548D01*
X157337794Y-90640944D01*
X157245109Y-90623491D01*
X157190209Y-90614621D01*
X157137659Y-90607971D01*
X157089975Y-90603675D01*
X157049672Y-90601864D01*
X157019264Y-90602672D01*
X157001267Y-90606233D01*
X156997400Y-90610387D01*
X157004141Y-90623179D01*
X157022820Y-90643366D01*
X157051123Y-90669200D01*
X157086733Y-90698935D01*
X157127335Y-90730823D01*
X157170614Y-90763117D01*
X157214255Y-90794071D01*
X157255941Y-90821937D01*
X157293359Y-90844969D01*
X157319708Y-90859027D01*
X157319708Y-91016667D01*
X157312460Y-91018969D01*
X157318233Y-91026337D01*
X157337855Y-91039463D01*
X157366813Y-91056093D01*
X157397129Y-91073051D01*
X157433856Y-91093816D01*
X157466936Y-91112689D01*
X157494946Y-91127698D01*
X157515778Y-91136984D01*
X157527681Y-91140328D01*
X157528905Y-91137511D01*
X157517703Y-91128314D01*
X157499529Y-91116762D01*
X157475263Y-91102099D01*
X157454610Y-91089377D01*
X157450046Y-91086497D01*
X157428260Y-91074292D01*
X157414064Y-91067535D01*
X157394758Y-91057450D01*
X157370427Y-91042579D01*
X157363415Y-91037922D01*
X157341571Y-91024870D01*
X157323917Y-91017373D01*
X157319708Y-91016667D01*
X157319708Y-90859027D01*
X157324191Y-90861419D01*
X157337562Y-90867048D01*
X157369677Y-90876406D01*
X157405714Y-90883933D01*
X157416500Y-90885528D01*
X157451971Y-90891915D01*
X157497085Y-90902744D01*
X157546749Y-90916509D01*
X157595870Y-90931705D01*
X157639357Y-90946827D01*
X157672117Y-90960368D01*
X157675891Y-90962220D01*
X157718426Y-90985470D01*
X157769119Y-91015867D01*
X157824635Y-91051151D01*
X157881636Y-91089061D01*
X157936787Y-91127340D01*
X157986751Y-91163726D01*
X158028192Y-91195960D01*
X158054472Y-91218639D01*
X158068997Y-91233996D01*
X158077248Y-91249425D01*
X158079843Y-91269132D01*
X158077401Y-91297322D01*
X158071383Y-91333563D01*
X158075277Y-91348594D01*
X158093156Y-91366233D01*
X158104419Y-91374341D01*
X158133754Y-91396714D01*
X158149273Y-91416553D01*
X158152722Y-91437996D01*
X158145850Y-91465182D01*
X158144407Y-91469048D01*
X158132972Y-91493782D01*
X158119225Y-91510946D01*
X158101376Y-91520410D01*
X158077636Y-91522046D01*
X158046213Y-91515724D01*
X158005320Y-91501316D01*
X157953165Y-91478693D01*
X157894866Y-91451080D01*
X157803006Y-91407157D01*
X157724294Y-91370986D01*
X157657107Y-91342047D01*
X157599818Y-91319819D01*
X157550801Y-91303784D01*
X157508430Y-91293420D01*
X157471080Y-91288210D01*
X157437123Y-91287632D01*
X157404935Y-91291167D01*
X157398367Y-91292360D01*
X157373370Y-91298290D01*
X157360586Y-91305706D01*
X157355394Y-91317955D01*
X157354501Y-91324131D01*
X157355019Y-91343094D01*
X157362347Y-91361867D01*
X157378314Y-91382875D01*
X157404752Y-91408543D01*
X157441929Y-91440025D01*
X157465024Y-91458500D01*
X157487388Y-91475277D01*
X157511289Y-91491745D01*
X157538995Y-91509292D01*
X157572775Y-91529309D01*
X157614895Y-91553184D01*
X157667625Y-91582307D01*
X157727586Y-91615000D01*
X157768893Y-91637660D01*
X157808769Y-91659917D01*
X157842787Y-91679275D01*
X157866516Y-91693238D01*
X157867286Y-91693709D01*
X157900402Y-91713357D01*
X157939165Y-91735349D01*
X157980169Y-91757869D01*
X158020006Y-91779099D01*
X158055270Y-91797223D01*
X158082554Y-91810424D01*
X158098067Y-91816776D01*
X158132513Y-91828548D01*
X158176912Y-91846222D01*
X158228338Y-91868388D01*
X158283864Y-91893635D01*
X158340566Y-91920554D01*
X158395518Y-91947733D01*
X158445795Y-91973763D01*
X158488470Y-91997233D01*
X158520619Y-92016733D01*
X158536128Y-92027959D01*
X158539021Y-92036523D01*
X158543186Y-92054816D01*
X158543292Y-92055346D01*
X158544245Y-92074484D01*
X158536697Y-92092391D01*
X158521337Y-92111879D01*
X158501158Y-92131771D01*
X158482469Y-92140812D01*
X158461600Y-92142734D01*
X158434733Y-92138467D01*
X158397300Y-92126660D01*
X158353058Y-92108804D01*
X158305764Y-92086390D01*
X158267400Y-92065688D01*
X158222763Y-92040359D01*
X158174268Y-92013265D01*
X158125497Y-91986366D01*
X158080033Y-91961623D01*
X158041458Y-91940997D01*
X158013355Y-91926448D01*
X158009652Y-91924610D01*
X157985374Y-91915411D01*
X157947958Y-91904555D01*
X157901021Y-91892829D01*
X157848178Y-91881022D01*
X157793048Y-91869925D01*
X157739247Y-91860325D01*
X157690392Y-91853013D01*
X157670500Y-91850626D01*
X157619700Y-91845150D01*
X157662461Y-91885992D01*
X157735747Y-91955776D01*
X157798232Y-92014761D01*
X157814313Y-92029736D01*
X157814313Y-92303399D01*
X157810200Y-92308037D01*
X157810200Y-92308045D01*
X157813743Y-92317172D01*
X157823159Y-92337486D01*
X157836622Y-92365089D01*
X157840903Y-92373662D01*
X157869364Y-92426954D01*
X157901974Y-92482405D01*
X157936622Y-92536880D01*
X157971194Y-92587245D01*
X158003580Y-92630365D01*
X158031666Y-92663105D01*
X158044036Y-92675132D01*
X158070983Y-92696153D01*
X158105233Y-92718987D01*
X158143898Y-92742153D01*
X158184089Y-92764169D01*
X158222917Y-92783553D01*
X158257495Y-92798823D01*
X158284932Y-92808496D01*
X158302341Y-92811092D01*
X158306107Y-92809582D01*
X158305611Y-92799036D01*
X158296944Y-92777644D01*
X158281756Y-92748354D01*
X158261698Y-92714113D01*
X158238422Y-92677867D01*
X158213578Y-92642565D01*
X158209421Y-92637006D01*
X158118590Y-92530442D01*
X158015429Y-92435189D01*
X157931155Y-92371874D01*
X157884691Y-92340543D01*
X157850460Y-92319073D01*
X157827367Y-92306885D01*
X157814313Y-92303399D01*
X157814313Y-92029736D01*
X157851160Y-92064050D01*
X157895779Y-92104743D01*
X157933331Y-92137942D01*
X157965065Y-92164749D01*
X157992224Y-92186265D01*
X158016055Y-92203591D01*
X158037354Y-92217552D01*
X158067766Y-92236155D01*
X158092507Y-92250820D01*
X158108269Y-92259614D01*
X158112080Y-92261267D01*
X158123570Y-92266850D01*
X158144313Y-92282018D01*
X158171570Y-92304404D01*
X158202602Y-92331636D01*
X158234671Y-92361347D01*
X158265037Y-92391167D01*
X158278924Y-92405588D01*
X158315985Y-92446044D01*
X158341997Y-92478207D01*
X158358223Y-92505412D01*
X158365922Y-92530997D01*
X158366357Y-92558295D01*
X158360787Y-92590645D01*
X158356126Y-92609829D01*
X158355088Y-92624955D01*
X158360534Y-92643284D01*
X158373957Y-92668662D01*
X158387348Y-92690262D01*
X158412294Y-92730418D01*
X158428944Y-92761019D01*
X158438905Y-92786245D01*
X158443784Y-92810278D01*
X158445188Y-92837297D01*
X158445200Y-92840755D01*
X158444040Y-92868710D01*
X158438580Y-92886959D01*
X158425850Y-92902679D01*
X158415748Y-92911906D01*
X158379005Y-92935669D01*
X158338423Y-92944424D01*
X158292800Y-92939339D01*
X158258723Y-92932194D01*
X158238659Y-92930275D01*
X158230414Y-92933908D01*
X158231791Y-92943422D01*
X158234081Y-92948091D01*
X158242975Y-92960915D01*
X158260669Y-92983574D01*
X158284818Y-93013157D01*
X158313076Y-93046752D01*
X158321162Y-93056198D01*
X158356481Y-93097390D01*
X158394618Y-93142022D01*
X158430874Y-93184586D01*
X158459351Y-93218158D01*
X158488271Y-93251665D01*
X158517338Y-93284169D01*
X158542427Y-93311111D01*
X158554601Y-93323435D01*
X158575823Y-93346408D01*
X158586278Y-93365630D01*
X158589132Y-93386978D01*
X158589133Y-93387576D01*
X158581630Y-93419506D01*
X158581630Y-93419506D01*
G37*
X158581630Y-93419506D02*
X158561382Y-93443930D01*
X158531783Y-93458474D01*
X158496225Y-93460761D01*
X158486881Y-93459157D01*
X158469239Y-93451446D01*
X158441387Y-93434692D01*
X158406033Y-93410795D01*
X158365888Y-93381658D01*
X158323661Y-93349183D01*
X158282962Y-93316029D01*
X158250407Y-93289572D01*
X158221774Y-93267987D01*
X158199680Y-93253112D01*
X158186743Y-93246787D01*
X158184750Y-93247028D01*
X158187960Y-93254855D01*
X158199562Y-93272977D01*
X158217523Y-93298345D01*
X158231358Y-93316899D01*
X158311010Y-93435415D01*
X158377093Y-93562690D01*
X158428327Y-93696066D01*
X158449065Y-93768492D01*
X158460670Y-93816676D01*
X158467394Y-93852165D01*
X158469336Y-93878450D01*
X158466598Y-93899021D01*
X158459280Y-93917367D01*
X158453631Y-93927295D01*
X158429535Y-93954068D01*
X158399892Y-93967280D01*
X158373052Y-93966498D01*
X158360918Y-93958722D01*
X158339646Y-93940148D01*
X158311254Y-93912720D01*
X158277758Y-93878382D01*
X158243474Y-93841601D01*
X158192678Y-93786660D01*
X158138169Y-93728938D01*
X158081713Y-93670205D01*
X158025074Y-93612228D01*
X157970017Y-93556774D01*
X157918306Y-93505613D01*
X157871706Y-93460511D01*
X157831980Y-93423237D01*
X157800894Y-93395559D01*
X157786895Y-93384117D01*
X157750875Y-93358539D01*
X157711454Y-93334068D01*
X157672387Y-93312688D01*
X157637430Y-93296381D01*
X157610340Y-93287127D01*
X157600489Y-93285760D01*
X157587271Y-93287965D01*
X157584816Y-93298013D01*
X157587069Y-93309017D01*
X157595120Y-93334346D01*
X157609535Y-93372485D01*
X157629240Y-93421034D01*
X157653157Y-93477593D01*
X157680210Y-93539762D01*
X157709323Y-93605140D01*
X157739418Y-93671328D01*
X157769421Y-93735925D01*
X157798253Y-93796532D01*
X157824839Y-93850748D01*
X157848103Y-93896172D01*
X157861429Y-93920734D01*
X157883756Y-93962132D01*
X157911422Y-94015974D01*
X157942967Y-94079199D01*
X157976931Y-94148741D01*
X158011853Y-94221537D01*
X158046274Y-94294525D01*
X158078733Y-94364641D01*
X158107769Y-94428821D01*
X158131923Y-94484002D01*
X158145954Y-94517634D01*
X158161414Y-94555865D01*
X158175084Y-94589598D01*
X158185406Y-94614996D01*
X158190608Y-94627701D01*
X158205962Y-94667063D01*
X158223060Y-94714875D01*
X158241022Y-94768232D01*
X158258970Y-94824233D01*
X158276024Y-94879974D01*
X158291305Y-94932552D01*
X158303932Y-94979064D01*
X158313028Y-95016608D01*
X158317711Y-95042281D01*
X158318152Y-95048693D01*
X158310201Y-95056544D01*
X158288165Y-95060577D01*
X158283989Y-95060789D01*
X158265635Y-95060799D01*
X158253286Y-95056931D01*
X158243027Y-95045914D01*
X158230941Y-95024472D01*
X158223836Y-95010497D01*
X158207747Y-94975778D01*
X158193075Y-94939352D01*
X158185168Y-94916074D01*
X158176807Y-94890137D01*
X158169261Y-94870736D01*
X158166063Y-94864767D01*
X158160402Y-94852968D01*
X158151537Y-94829795D01*
X158141293Y-94800043D01*
X158140309Y-94797034D01*
X158116782Y-94729879D01*
X158086559Y-94652658D01*
X158049365Y-94564778D01*
X158004925Y-94465645D01*
X157952964Y-94354666D01*
X157893206Y-94231246D01*
X157825378Y-94094793D01*
X157749203Y-93944713D01*
X157710767Y-93869934D01*
X157681181Y-93812091D01*
X157652428Y-93754983D01*
X157625990Y-93701621D01*
X157603350Y-93655016D01*
X157585989Y-93618177D01*
X157577423Y-93599001D01*
X157562893Y-93565112D01*
X157550117Y-93535607D01*
X157541090Y-93515080D01*
X157538831Y-93510101D01*
X157532727Y-93495195D01*
X157522598Y-93468602D01*
X157510055Y-93434602D01*
X157501240Y-93410197D01*
X157480299Y-93339757D01*
X157471966Y-93280452D01*
X157476263Y-93232086D01*
X157493213Y-93194466D01*
X157522839Y-93167397D01*
X157530005Y-93163378D01*
X157560337Y-93154217D01*
X157598796Y-93151339D01*
X157637743Y-93154853D01*
X157662033Y-93161495D01*
X157692857Y-93175139D01*
X157729953Y-93193885D01*
X157768807Y-93215184D01*
X157804903Y-93236489D01*
X157833724Y-93255252D01*
X157848415Y-93266635D01*
X157869785Y-93285809D01*
X157896474Y-93309272D01*
X157911915Y-93322652D01*
X157928384Y-93337594D01*
X157954744Y-93362444D01*
X157988883Y-93395167D01*
X158028685Y-93433727D01*
X158072039Y-93476091D01*
X158107539Y-93511035D01*
X158150178Y-93552809D01*
X158189155Y-93590348D01*
X158222784Y-93622079D01*
X158249377Y-93646430D01*
X158267248Y-93661827D01*
X158274546Y-93666734D01*
X158279108Y-93664193D01*
X158278664Y-93655171D01*
X158272471Y-93637570D01*
X158259788Y-93609289D01*
X158239871Y-93568230D01*
X158239297Y-93567067D01*
X158187823Y-93476142D01*
X158121420Y-93380944D01*
X158041134Y-93282810D01*
X157948015Y-93183078D01*
X157906125Y-93141800D01*
X157849410Y-93087384D01*
X157790258Y-93030959D01*
X157730627Y-92974366D01*
X157672476Y-92919450D01*
X157617763Y-92868051D01*
X157568446Y-92822013D01*
X157526485Y-92783178D01*
X157493838Y-92753390D01*
X157482288Y-92743056D01*
X157453958Y-92717555D01*
X157436056Y-92699474D01*
X157426183Y-92685179D01*
X157421940Y-92671038D01*
X157420927Y-92653416D01*
X157420905Y-92650093D01*
X157425813Y-92616314D01*
X157442539Y-92590557D01*
X157473568Y-92569102D01*
X157475821Y-92567931D01*
X157493812Y-92563621D01*
X157516269Y-92567960D01*
X157544744Y-92581787D01*
X157580788Y-92605944D01*
X157625951Y-92641274D01*
X157653543Y-92664329D01*
X157703441Y-92706610D01*
X157744500Y-92741044D01*
X157779847Y-92770049D01*
X157812607Y-92796045D01*
X157845904Y-92821452D01*
X157882863Y-92848689D01*
X157926610Y-92880175D01*
X157980269Y-92918328D01*
X157996466Y-92929807D01*
X158036100Y-92957728D01*
X158064011Y-92976890D01*
X158082179Y-92988481D01*
X158092583Y-92993691D01*
X158097204Y-92993710D01*
X158098067Y-92990832D01*
X158093342Y-92981850D01*
X158080202Y-92961464D01*
X158060195Y-92931959D01*
X158034873Y-92895622D01*
X158005784Y-92854736D01*
X158005754Y-92854694D01*
X157972720Y-92809372D01*
X157943609Y-92771472D01*
X157915868Y-92738393D01*
X157886944Y-92707531D01*
X157854285Y-92676285D01*
X157815336Y-92642052D01*
X157767546Y-92602231D01*
X157720883Y-92564319D01*
X157684985Y-92533077D01*
X157641295Y-92491507D01*
X157592556Y-92442540D01*
X157541513Y-92389103D01*
X157490909Y-92334127D01*
X157443487Y-92280541D01*
X157401991Y-92231274D01*
X157369164Y-92189255D01*
X157367592Y-92187112D01*
X157336257Y-92139312D01*
X157318106Y-92099051D01*
X157312356Y-92064292D01*
X157314063Y-92047433D01*
X157326782Y-92013997D01*
X157348495Y-91985016D01*
X157374958Y-91965387D01*
X157389456Y-91960450D01*
X157416833Y-91959808D01*
X157454071Y-91964771D01*
X157475479Y-91969586D01*
X157475479Y-92109384D01*
X157471533Y-92114281D01*
X157476497Y-92122853D01*
X157489795Y-92141277D01*
X157509033Y-92166303D01*
X157519828Y-92179898D01*
X157556775Y-92224948D01*
X157592436Y-92266582D01*
X157625165Y-92303053D01*
X157653321Y-92332612D01*
X157675260Y-92353512D01*
X157689338Y-92364007D01*
X157693431Y-92364490D01*
X157695567Y-92352593D01*
X157691630Y-92332663D01*
X157690718Y-92329919D01*
X157685477Y-92297151D01*
X157687862Y-92255199D01*
X157696540Y-92213474D01*
X157697392Y-92202335D01*
X157690309Y-92193612D01*
X157672036Y-92184477D01*
X157655991Y-92178235D01*
X157623141Y-92165015D01*
X157584729Y-92148234D01*
X157556370Y-92135011D01*
X157519617Y-92118870D01*
X157492004Y-92110169D01*
X157475479Y-92109384D01*
X157475479Y-91969586D01*
X157495542Y-91974100D01*
X157535622Y-91986552D01*
X157565667Y-91999311D01*
X157587320Y-92008705D01*
X157602438Y-92012237D01*
X157605695Y-92011395D01*
X157604640Y-92005207D01*
X157594269Y-91992811D01*
X157573753Y-91973473D01*
X157542261Y-91946462D01*
X157498965Y-91911044D01*
X157443034Y-91866487D01*
X157429200Y-91855581D01*
X157384306Y-91820943D01*
X157349131Y-91795672D01*
X157320709Y-91777915D01*
X157296076Y-91765818D01*
X157272566Y-91757612D01*
X157146569Y-91718142D01*
X157026111Y-91674316D01*
X156914080Y-91627340D01*
X156813366Y-91578420D01*
X156731419Y-91531631D01*
X156690669Y-91503943D01*
X156663142Y-91479075D01*
X156646217Y-91453869D01*
X156637274Y-91425166D01*
X156635896Y-91416466D01*
X156634362Y-91393266D01*
X156639649Y-91377116D01*
X156654796Y-91360234D01*
X156659570Y-91355816D01*
X156680850Y-91339910D01*
X156700546Y-91330784D01*
X156706095Y-91329934D01*
X156724733Y-91332757D01*
X156755416Y-91340422D01*
X156794369Y-91351725D01*
X156837820Y-91365461D01*
X156881997Y-91380425D01*
X156923126Y-91395412D01*
X156957434Y-91409217D01*
X156965375Y-91412739D01*
X157013309Y-91436488D01*
X157072220Y-91468782D01*
X157139477Y-91508089D01*
X157212447Y-91552879D01*
X157275772Y-91593319D01*
X157313459Y-91617358D01*
X157343481Y-91634731D01*
X157370934Y-91647581D01*
X157400912Y-91658055D01*
X157438511Y-91668295D01*
X157475021Y-91677170D01*
X157517358Y-91687307D01*
X157554741Y-91696368D01*
X157583560Y-91703469D01*
X157600206Y-91707728D01*
X157601710Y-91708148D01*
X157613184Y-91709427D01*
X157612198Y-91704005D01*
X157600766Y-91693965D01*
X157580903Y-91681393D01*
X157570442Y-91675813D01*
X157527725Y-91651890D01*
X157478371Y-91620675D01*
X157427146Y-91585506D01*
X157378815Y-91549720D01*
X157338144Y-91516656D01*
X157321050Y-91501114D01*
X157275894Y-91449904D01*
X157247102Y-91399188D01*
X157234902Y-91349394D01*
X157234466Y-91338250D01*
X157238059Y-91301884D01*
X157250346Y-91268707D01*
X157273589Y-91233444D01*
X157285943Y-91218187D01*
X157319405Y-91178407D01*
X157279052Y-91155596D01*
X157219743Y-91119952D01*
X157172956Y-91087305D01*
X157139998Y-91058626D01*
X157126586Y-91042535D01*
X157111742Y-91007744D01*
X157108095Y-90968467D01*
X157116034Y-90931916D01*
X157120166Y-90923534D01*
X157129043Y-90906544D01*
X157132566Y-90897181D01*
X157126319Y-90890231D01*
X157109344Y-90875996D01*
X157084721Y-90856996D01*
X157071483Y-90847210D01*
X157035806Y-90819502D01*
X156997300Y-90786804D01*
X156958835Y-90751864D01*
X156923282Y-90717426D01*
X156893509Y-90686236D01*
X156872387Y-90661040D01*
X156864846Y-90649540D01*
X156855132Y-90619059D01*
X156852613Y-90583129D01*
X156857246Y-90549296D01*
X156865541Y-90529601D01*
X156882897Y-90509256D01*
X156906031Y-90494689D01*
X156937832Y-90484949D01*
X156981187Y-90479088D01*
X157027033Y-90476523D01*
X157096587Y-90477727D01*
X157180256Y-90485407D01*
X157276646Y-90499240D01*
X157384365Y-90518904D01*
X157502017Y-90544078D01*
X157628209Y-90574439D01*
X157761547Y-90609666D01*
X157900637Y-90649437D01*
X158044086Y-90693430D01*
X158190499Y-90741323D01*
X158226141Y-90753436D01*
X158263241Y-90765475D01*
X158298382Y-90775741D01*
X158325597Y-90782527D01*
X158331975Y-90783736D01*
X158364767Y-90789029D01*
X158333946Y-90761031D01*
X158309876Y-90742192D01*
X158277949Y-90721069D01*
X158249279Y-90704545D01*
X158115712Y-90635701D01*
X157992639Y-90576322D01*
X157877293Y-90525341D01*
X157766909Y-90481692D01*
X157658719Y-90444308D01*
X157549958Y-90412123D01*
X157437859Y-90384071D01*
X157391100Y-90373689D01*
X157369340Y-90369031D01*
X157335754Y-90361855D01*
X157295080Y-90353173D01*
X157255633Y-90344759D01*
X157213152Y-90335484D01*
X157173968Y-90326538D01*
X157142611Y-90318978D01*
X157124400Y-90314107D01*
X157083445Y-90304036D01*
X157031471Y-90294664D01*
X156974392Y-90286786D01*
X156918123Y-90281197D01*
X156868576Y-90278694D01*
X156860646Y-90278633D01*
X156824055Y-90278168D01*
X156800213Y-90276138D01*
X156784953Y-90271695D01*
X156774107Y-90263994D01*
X156770544Y-90260329D01*
X156751412Y-90227861D01*
X156747693Y-90191015D01*
X156756890Y-90159219D01*
X156768185Y-90140746D01*
X156783039Y-90129267D01*
X156804743Y-90123942D01*
X156836584Y-90123930D01*
X156878867Y-90128033D01*
X156902303Y-90130174D01*
X156940211Y-90132841D01*
X156990143Y-90135898D01*
X157049650Y-90139208D01*
X157116286Y-90142631D01*
X157187601Y-90146033D01*
X157247166Y-90148680D01*
X157362417Y-90153955D01*
X157463158Y-90159346D01*
X157551812Y-90165081D01*
X157630800Y-90171387D01*
X157702547Y-90178492D01*
X157769475Y-90186625D01*
X157834007Y-90196013D01*
X157898565Y-90206884D01*
X157932966Y-90213202D01*
X157982890Y-90222546D01*
X158030750Y-90231407D01*
X158072394Y-90239022D01*
X158103669Y-90244630D01*
X158114275Y-90246469D01*
X158137925Y-90249544D01*
X158171311Y-90252665D01*
X158211159Y-90255663D01*
X158254198Y-90258369D01*
X158297154Y-90260614D01*
X158336757Y-90262231D01*
X158369733Y-90263049D01*
X158392810Y-90262900D01*
X158402717Y-90261616D01*
X158402867Y-90261349D01*
X158396972Y-90249249D01*
X158381514Y-90229757D01*
X158359837Y-90206443D01*
X158335281Y-90182881D01*
X158311188Y-90162641D01*
X158308905Y-90160916D01*
X158222214Y-90105470D01*
X158121194Y-90057551D01*
X158006871Y-90017553D01*
X157880274Y-89985869D01*
X157822900Y-89974998D01*
X157774126Y-89966578D01*
X157715884Y-89956518D01*
X157655392Y-89946065D01*
X157599869Y-89936465D01*
X157598533Y-89936234D01*
X157543257Y-89926802D01*
X157482823Y-89916699D01*
X157424442Y-89907119D01*
X157375325Y-89899257D01*
X157374166Y-89899075D01*
X157331713Y-89892383D01*
X157277614Y-89883798D01*
X157216940Y-89874129D01*
X157154762Y-89864183D01*
X157107466Y-89856589D01*
X157054360Y-89848686D01*
X156996722Y-89841203D01*
X156937139Y-89834365D01*
X156878198Y-89828393D01*
X156822485Y-89823509D01*
X156772586Y-89819935D01*
X156731089Y-89817894D01*
X156700578Y-89817608D01*
X156683642Y-89819299D01*
X156681880Y-89820026D01*
X156669778Y-89820166D01*
X156650302Y-89814406D01*
X156649043Y-89813894D01*
X156624264Y-89795287D01*
X156610713Y-89766829D01*
X156609531Y-89732272D01*
X156616481Y-89706944D01*
X156634563Y-89680845D01*
X156662512Y-89668274D01*
X156700645Y-89669101D01*
X156706194Y-89670151D01*
X156763757Y-89679891D01*
X156837529Y-89688897D01*
X156926798Y-89697118D01*
X157030854Y-89704503D01*
X157148985Y-89711001D01*
X157280482Y-89716562D01*
X157420733Y-89721029D01*
X157568453Y-89724984D01*
X157700080Y-89728338D01*
X157816446Y-89731091D01*
X157918379Y-89733244D01*
X158006712Y-89734797D01*
X158082273Y-89735750D01*
X158145894Y-89736104D01*
X158198404Y-89735860D01*
X158240634Y-89735016D01*
X158273414Y-89733575D01*
X158297575Y-89731536D01*
X158313946Y-89728899D01*
X158323359Y-89725666D01*
X158326643Y-89721836D01*
X158326667Y-89721443D01*
X158320399Y-89710236D01*
X158303337Y-89691103D01*
X158278095Y-89666463D01*
X158247284Y-89638734D01*
X158213517Y-89610335D01*
X158179407Y-89583684D01*
X158171687Y-89577982D01*
X158119692Y-89539997D01*
X158079802Y-89510603D01*
X158050413Y-89488447D01*
X158029926Y-89472173D01*
X158016738Y-89460429D01*
X158009248Y-89451859D01*
X158005855Y-89445112D01*
X158004956Y-89438831D01*
X158004933Y-89437008D01*
X158007347Y-89418542D01*
X158015949Y-89408690D01*
X158032785Y-89407389D01*
X158059899Y-89414575D01*
X158099333Y-89430187D01*
X158107836Y-89433860D01*
X158175356Y-89468376D01*
X158247090Y-89514097D01*
X158318419Y-89567783D01*
X158384725Y-89626191D01*
X158392245Y-89633482D01*
X158417781Y-89659046D01*
X158433411Y-89677222D01*
X158441536Y-89692255D01*
X158444555Y-89708389D01*
X158444895Y-89726615D01*
X158440108Y-89762199D01*
X158425647Y-89791321D01*
X158400501Y-89814354D01*
X158363660Y-89831676D01*
X158314113Y-89843661D01*
X158250849Y-89850686D01*
X158172857Y-89853125D01*
X158106780Y-89852247D01*
X158054834Y-89851204D01*
X158006217Y-89850931D01*
X157964502Y-89851396D01*
X157933264Y-89852564D01*
X157918176Y-89853990D01*
X157903430Y-89856222D01*
X157893710Y-89857934D01*
X157890788Y-89859889D01*
X157896438Y-89862848D01*
X157912431Y-89867575D01*
X157940541Y-89874829D01*
X157982540Y-89885375D01*
X158003406Y-89890630D01*
X158082075Y-89913802D01*
X158160181Y-89942955D01*
X158235564Y-89976811D01*
X158306060Y-90014090D01*
X158369509Y-90053513D01*
X158423749Y-90093802D01*
X158466618Y-90133676D01*
X158495955Y-90171857D01*
X158503495Y-90186553D01*
X158517185Y-90231373D01*
X158520865Y-90275706D01*
X158514474Y-90314579D01*
X158505331Y-90333904D01*
X158480278Y-90363321D01*
X158449734Y-90381116D01*
X158409722Y-90389145D01*
X158385003Y-90390078D01*
X158336306Y-90388544D01*
X158274139Y-90384096D01*
X158201646Y-90377089D01*
X158121971Y-90367877D01*
X158038258Y-90356814D01*
X157953652Y-90344253D01*
X157899100Y-90335357D01*
X157824329Y-90323140D01*
X157760988Y-90313702D01*
X157709732Y-90307069D01*
X157671220Y-90303267D01*
X157646108Y-90302320D01*
X157635054Y-90304254D01*
X157638714Y-90309096D01*
X157657746Y-90316870D01*
X157691666Y-90327280D01*
X157750623Y-90345772D01*
X157817290Y-90370159D01*
X157893197Y-90401077D01*
X157979874Y-90439160D01*
X158078849Y-90485044D01*
X158127700Y-90508354D01*
X158219071Y-90553287D01*
X158295931Y-90593423D01*
X158359703Y-90629702D01*
X158411807Y-90663066D01*
X158453664Y-90694456D01*
X158486695Y-90724815D01*
X158512321Y-90755082D01*
X158522396Y-90769835D01*
X158540144Y-90803117D01*
X158545625Y-90831308D01*
X158539248Y-90860541D01*
X158529839Y-90881255D01*
X158514550Y-90906177D01*
X158496803Y-90921489D01*
X158472176Y-90929352D01*
X158436248Y-90931928D01*
X158426055Y-90932000D01*
X158402444Y-90930876D01*
X158375812Y-90927053D01*
X158343355Y-90919860D01*
X158302269Y-90908624D01*
X158249751Y-90892674D01*
X158211715Y-90880602D01*
X158158555Y-90863576D01*
X158107307Y-90847212D01*
X158061529Y-90832643D01*
X158024776Y-90821001D01*
X158000700Y-90813447D01*
X157971500Y-90804321D01*
X157931858Y-90791841D01*
X157887464Y-90777801D01*
X157852533Y-90766709D01*
X157768624Y-90741733D01*
X157671538Y-90715805D01*
X157564932Y-90689790D01*
X157452464Y-90664548D01*
X157337794Y-90640944D01*
X157245109Y-90623491D01*
X157190209Y-90614621D01*
X157137659Y-90607971D01*
X157089975Y-90603675D01*
X157049672Y-90601864D01*
X157019264Y-90602672D01*
X157001267Y-90606233D01*
X156997400Y-90610387D01*
X157004141Y-90623179D01*
X157022820Y-90643366D01*
X157051123Y-90669200D01*
X157086733Y-90698935D01*
X157127335Y-90730823D01*
X157170614Y-90763117D01*
X157214255Y-90794071D01*
X157255941Y-90821937D01*
X157293359Y-90844969D01*
X157319708Y-90859027D01*
X157319708Y-91016667D01*
X157312460Y-91018969D01*
X157318233Y-91026337D01*
X157337855Y-91039463D01*
X157366813Y-91056093D01*
X157397129Y-91073051D01*
X157433856Y-91093816D01*
X157466936Y-91112689D01*
X157494946Y-91127698D01*
X157515778Y-91136984D01*
X157527681Y-91140328D01*
X157528905Y-91137511D01*
X157517703Y-91128314D01*
X157499529Y-91116762D01*
X157475263Y-91102099D01*
X157454610Y-91089377D01*
X157450046Y-91086497D01*
X157428260Y-91074292D01*
X157414064Y-91067535D01*
X157394758Y-91057450D01*
X157370427Y-91042579D01*
X157363415Y-91037922D01*
X157341571Y-91024870D01*
X157323917Y-91017373D01*
X157319708Y-91016667D01*
X157319708Y-90859027D01*
X157324191Y-90861419D01*
X157337562Y-90867048D01*
X157369677Y-90876406D01*
X157405714Y-90883933D01*
X157416500Y-90885528D01*
X157451971Y-90891915D01*
X157497085Y-90902744D01*
X157546749Y-90916509D01*
X157595870Y-90931705D01*
X157639357Y-90946827D01*
X157672117Y-90960368D01*
X157675891Y-90962220D01*
X157718426Y-90985470D01*
X157769119Y-91015867D01*
X157824635Y-91051151D01*
X157881636Y-91089061D01*
X157936787Y-91127340D01*
X157986751Y-91163726D01*
X158028192Y-91195960D01*
X158054472Y-91218639D01*
X158068997Y-91233996D01*
X158077248Y-91249425D01*
X158079843Y-91269132D01*
X158077401Y-91297322D01*
X158071383Y-91333563D01*
X158075277Y-91348594D01*
X158093156Y-91366233D01*
X158104419Y-91374341D01*
X158133754Y-91396714D01*
X158149273Y-91416553D01*
X158152722Y-91437996D01*
X158145850Y-91465182D01*
X158144407Y-91469048D01*
X158132972Y-91493782D01*
X158119225Y-91510946D01*
X158101376Y-91520410D01*
X158077636Y-91522046D01*
X158046213Y-91515724D01*
X158005320Y-91501316D01*
X157953165Y-91478693D01*
X157894866Y-91451080D01*
X157803006Y-91407157D01*
X157724294Y-91370986D01*
X157657107Y-91342047D01*
X157599818Y-91319819D01*
X157550801Y-91303784D01*
X157508430Y-91293420D01*
X157471080Y-91288210D01*
X157437123Y-91287632D01*
X157404935Y-91291167D01*
X157398367Y-91292360D01*
X157373370Y-91298290D01*
X157360586Y-91305706D01*
X157355394Y-91317955D01*
X157354501Y-91324131D01*
X157355019Y-91343094D01*
X157362347Y-91361867D01*
X157378314Y-91382875D01*
X157404752Y-91408543D01*
X157441929Y-91440025D01*
X157465024Y-91458500D01*
X157487388Y-91475277D01*
X157511289Y-91491745D01*
X157538995Y-91509292D01*
X157572775Y-91529309D01*
X157614895Y-91553184D01*
X157667625Y-91582307D01*
X157727586Y-91615000D01*
X157768893Y-91637660D01*
X157808769Y-91659917D01*
X157842787Y-91679275D01*
X157866516Y-91693238D01*
X157867286Y-91693709D01*
X157900402Y-91713357D01*
X157939165Y-91735349D01*
X157980169Y-91757869D01*
X158020006Y-91779099D01*
X158055270Y-91797223D01*
X158082554Y-91810424D01*
X158098067Y-91816776D01*
X158132513Y-91828548D01*
X158176912Y-91846222D01*
X158228338Y-91868388D01*
X158283864Y-91893635D01*
X158340566Y-91920554D01*
X158395518Y-91947733D01*
X158445795Y-91973763D01*
X158488470Y-91997233D01*
X158520619Y-92016733D01*
X158536128Y-92027959D01*
X158539021Y-92036523D01*
X158543186Y-92054816D01*
X158543292Y-92055346D01*
X158544245Y-92074484D01*
X158536697Y-92092391D01*
X158521337Y-92111879D01*
X158501158Y-92131771D01*
X158482469Y-92140812D01*
X158461600Y-92142734D01*
X158434733Y-92138467D01*
X158397300Y-92126660D01*
X158353058Y-92108804D01*
X158305764Y-92086390D01*
X158267400Y-92065688D01*
X158222763Y-92040359D01*
X158174268Y-92013265D01*
X158125497Y-91986366D01*
X158080033Y-91961623D01*
X158041458Y-91940997D01*
X158013355Y-91926448D01*
X158009652Y-91924610D01*
X157985374Y-91915411D01*
X157947958Y-91904555D01*
X157901021Y-91892829D01*
X157848178Y-91881022D01*
X157793048Y-91869925D01*
X157739247Y-91860325D01*
X157690392Y-91853013D01*
X157670500Y-91850626D01*
X157619700Y-91845150D01*
X157662461Y-91885992D01*
X157735747Y-91955776D01*
X157798232Y-92014761D01*
X157814313Y-92029736D01*
X157814313Y-92303399D01*
X157810200Y-92308037D01*
X157810200Y-92308045D01*
X157813743Y-92317172D01*
X157823159Y-92337486D01*
X157836622Y-92365089D01*
X157840903Y-92373662D01*
X157869364Y-92426954D01*
X157901974Y-92482405D01*
X157936622Y-92536880D01*
X157971194Y-92587245D01*
X158003580Y-92630365D01*
X158031666Y-92663105D01*
X158044036Y-92675132D01*
X158070983Y-92696153D01*
X158105233Y-92718987D01*
X158143898Y-92742153D01*
X158184089Y-92764169D01*
X158222917Y-92783553D01*
X158257495Y-92798823D01*
X158284932Y-92808496D01*
X158302341Y-92811092D01*
X158306107Y-92809582D01*
X158305611Y-92799036D01*
X158296944Y-92777644D01*
X158281756Y-92748354D01*
X158261698Y-92714113D01*
X158238422Y-92677867D01*
X158213578Y-92642565D01*
X158209421Y-92637006D01*
X158118590Y-92530442D01*
X158015429Y-92435189D01*
X157931155Y-92371874D01*
X157884691Y-92340543D01*
X157850460Y-92319073D01*
X157827367Y-92306885D01*
X157814313Y-92303399D01*
X157814313Y-92029736D01*
X157851160Y-92064050D01*
X157895779Y-92104743D01*
X157933331Y-92137942D01*
X157965065Y-92164749D01*
X157992224Y-92186265D01*
X158016055Y-92203591D01*
X158037354Y-92217552D01*
X158067766Y-92236155D01*
X158092507Y-92250820D01*
X158108269Y-92259614D01*
X158112080Y-92261267D01*
X158123570Y-92266850D01*
X158144313Y-92282018D01*
X158171570Y-92304404D01*
X158202602Y-92331636D01*
X158234671Y-92361347D01*
X158265037Y-92391167D01*
X158278924Y-92405588D01*
X158315985Y-92446044D01*
X158341997Y-92478207D01*
X158358223Y-92505412D01*
X158365922Y-92530997D01*
X158366357Y-92558295D01*
X158360787Y-92590645D01*
X158356126Y-92609829D01*
X158355088Y-92624955D01*
X158360534Y-92643284D01*
X158373957Y-92668662D01*
X158387348Y-92690262D01*
X158412294Y-92730418D01*
X158428944Y-92761019D01*
X158438905Y-92786245D01*
X158443784Y-92810278D01*
X158445188Y-92837297D01*
X158445200Y-92840755D01*
X158444040Y-92868710D01*
X158438580Y-92886959D01*
X158425850Y-92902679D01*
X158415748Y-92911906D01*
X158379005Y-92935669D01*
X158338423Y-92944424D01*
X158292800Y-92939339D01*
X158258723Y-92932194D01*
X158238659Y-92930275D01*
X158230414Y-92933908D01*
X158231791Y-92943422D01*
X158234081Y-92948091D01*
X158242975Y-92960915D01*
X158260669Y-92983574D01*
X158284818Y-93013157D01*
X158313076Y-93046752D01*
X158321162Y-93056198D01*
X158356481Y-93097390D01*
X158394618Y-93142022D01*
X158430874Y-93184586D01*
X158459351Y-93218158D01*
X158488271Y-93251665D01*
X158517338Y-93284169D01*
X158542427Y-93311111D01*
X158554601Y-93323435D01*
X158575823Y-93346408D01*
X158586278Y-93365630D01*
X158589132Y-93386978D01*
X158589133Y-93387576D01*
X158581630Y-93419506D01*
D10*
X109682283Y-110236000D02*
G75*
G03X109682283Y-110236000I-4018283J0D01*
G01*
X165054283Y-110236000D02*
G75*
G03X165054283Y-110236000I-4018283J0D01*
G01*
X165054283Y-80264000D02*
G75*
G03X165054283Y-80264000I-4018283J0D01*
G01*
D12*
X113464000Y-90678000D02*
G75*
G03X113464000Y-90678000I-1450000J0D01*
G01*
X122623733Y-112778000D02*
X122966267Y-112778000D01*
X122623733Y-111758000D02*
X122966267Y-111758000D01*
X117528000Y-78994000D02*
G75*
G03X117528000Y-78994000I-1450000J0D01*
G01*
X114724000Y-108770000D02*
X114724000Y-99670000D01*
X156324000Y-108770000D02*
X114724000Y-108770000D01*
X156324000Y-99670000D02*
X156324000Y-108770000D01*
X114724000Y-99670000D02*
X156324000Y-99670000D01*
X153872000Y-111504252D02*
X153872000Y-110981748D01*
X152452000Y-111504252D02*
X152452000Y-110981748D01*
X138174000Y-94038267D02*
X138174000Y-93695733D01*
X139194000Y-94038267D02*
X139194000Y-93695733D01*
X119582000Y-111504252D02*
X119582000Y-110981748D01*
X118162000Y-111504252D02*
X118162000Y-110981748D01*
X116334000Y-97848267D02*
X116334000Y-97505733D01*
X115314000Y-97848267D02*
X115314000Y-97505733D01*
X116330000Y-85656267D02*
X116330000Y-85313733D01*
X117350000Y-85656267D02*
X117350000Y-85313733D01*
X139768733Y-87374000D02*
X140111267Y-87374000D01*
X139768733Y-88394000D02*
X140111267Y-88394000D01*
X149156267Y-111758000D02*
X148813733Y-111758000D01*
X149156267Y-112778000D02*
X148813733Y-112778000D01*
X115518000Y-85596252D02*
X115518000Y-85073748D01*
X114098000Y-85596252D02*
X114098000Y-85073748D01*
X122143733Y-84584000D02*
X122486267Y-84584000D01*
X122143733Y-83564000D02*
X122486267Y-83564000D01*
X117350000Y-89377733D02*
X117350000Y-89720267D01*
X116330000Y-89377733D02*
X116330000Y-89720267D01*
X144270000Y-95219733D02*
X144270000Y-95562267D01*
X145290000Y-95219733D02*
X145290000Y-95562267D01*
X140111267Y-90172000D02*
X139768733Y-90172000D01*
X140111267Y-89152000D02*
X139768733Y-89152000D01*
X138102000Y-84836000D02*
G75*
G03X138102000Y-84836000I-1450000J0D01*
G01*
X134546000Y-78994000D02*
G75*
G03X134546000Y-78994000I-1450000J0D01*
G01*
X152072000Y-95504000D02*
G75*
G03X152072000Y-95504000I-1450000J0D01*
G01*
X113464000Y-96266000D02*
G75*
G03X113464000Y-96266000I-1450000J0D01*
G01*
X143408000Y-94292000D02*
X143408000Y-91842000D01*
X140188000Y-92492000D02*
X140188000Y-94292000D01*
X118820000Y-94870000D02*
X118820000Y-96685000D01*
X118585000Y-94870000D02*
X118820000Y-94870000D01*
X118585000Y-91010000D02*
X118585000Y-94870000D01*
X118585000Y-87150000D02*
X118820000Y-87150000D01*
X118585000Y-91010000D02*
X118585000Y-87150000D01*
X131605000Y-94870000D02*
X131370000Y-94870000D01*
X131605000Y-91010000D02*
X131605000Y-94870000D01*
X131605000Y-87150000D02*
X131370000Y-87150000D01*
X131605000Y-91010000D02*
X131605000Y-87150000D01*
X135942000Y-93978252D02*
X135942000Y-93455748D01*
X137362000Y-93978252D02*
X137362000Y-93455748D01*
D10*
X109648857Y-88749142D02*
X109601238Y-88796761D01*
X109458380Y-88844380D01*
X109363142Y-88844380D01*
X109220285Y-88796761D01*
X109125047Y-88701523D01*
X109077428Y-88606285D01*
X109029809Y-88415809D01*
X109029809Y-88272952D01*
X109077428Y-88082476D01*
X109125047Y-87987238D01*
X109220285Y-87892000D01*
X109363142Y-87844380D01*
X109458380Y-87844380D01*
X109601238Y-87892000D01*
X109648857Y-87939619D01*
X110553619Y-88844380D02*
X110077428Y-88844380D01*
X110077428Y-87844380D01*
X110886952Y-88844380D02*
X110886952Y-87844380D01*
X111458380Y-88844380D02*
X111029809Y-88272952D01*
X111458380Y-87844380D02*
X110886952Y-88415809D01*
X112506000Y-87844380D02*
X113077428Y-87844380D01*
X112791714Y-88844380D02*
X112791714Y-87844380D01*
X113410761Y-88844380D02*
X113410761Y-87844380D01*
X113791714Y-87844380D01*
X113886952Y-87892000D01*
X113934571Y-87939619D01*
X113982190Y-88034857D01*
X113982190Y-88177714D01*
X113934571Y-88272952D01*
X113886952Y-88320571D01*
X113791714Y-88368190D01*
X113410761Y-88368190D01*
X125563333Y-112625142D02*
X125515714Y-112672761D01*
X125372857Y-112720380D01*
X125277619Y-112720380D01*
X125134761Y-112672761D01*
X125039523Y-112577523D01*
X124991904Y-112482285D01*
X124944285Y-112291809D01*
X124944285Y-112148952D01*
X124991904Y-111958476D01*
X125039523Y-111863238D01*
X125134761Y-111768000D01*
X125277619Y-111720380D01*
X125372857Y-111720380D01*
X125515714Y-111768000D01*
X125563333Y-111815619D01*
X125896666Y-111720380D02*
X126515714Y-111720380D01*
X126182380Y-112101333D01*
X126325238Y-112101333D01*
X126420476Y-112148952D01*
X126468095Y-112196571D01*
X126515714Y-112291809D01*
X126515714Y-112529904D01*
X126468095Y-112625142D01*
X126420476Y-112672761D01*
X126325238Y-112720380D01*
X126039523Y-112720380D01*
X125944285Y-112672761D01*
X125896666Y-112625142D01*
X108958380Y-78446380D02*
X109529809Y-78446380D01*
X109244095Y-79446380D02*
X109244095Y-78446380D01*
X109863142Y-79446380D02*
X109863142Y-78779714D01*
X109863142Y-78970190D02*
X109910761Y-78874952D01*
X109958380Y-78827333D01*
X110053619Y-78779714D01*
X110148857Y-78779714D01*
X110482190Y-79446380D02*
X110482190Y-78779714D01*
X110482190Y-78446380D02*
X110434571Y-78494000D01*
X110482190Y-78541619D01*
X110529809Y-78494000D01*
X110482190Y-78446380D01*
X110482190Y-78541619D01*
X111386952Y-78779714D02*
X111386952Y-79589238D01*
X111339333Y-79684476D01*
X111291714Y-79732095D01*
X111196476Y-79779714D01*
X111053619Y-79779714D01*
X110958380Y-79732095D01*
X111386952Y-79398761D02*
X111291714Y-79446380D01*
X111101238Y-79446380D01*
X111006000Y-79398761D01*
X110958380Y-79351142D01*
X110910761Y-79255904D01*
X110910761Y-78970190D01*
X110958380Y-78874952D01*
X111006000Y-78827333D01*
X111101238Y-78779714D01*
X111291714Y-78779714D01*
X111386952Y-78827333D01*
X112482190Y-78446380D02*
X113053619Y-78446380D01*
X112767904Y-79446380D02*
X112767904Y-78446380D01*
X113386952Y-79446380D02*
X113386952Y-78446380D01*
X113767904Y-78446380D01*
X113863142Y-78494000D01*
X113910761Y-78541619D01*
X113958380Y-78636857D01*
X113958380Y-78779714D01*
X113910761Y-78874952D01*
X113863142Y-78922571D01*
X113767904Y-78970190D01*
X113386952Y-78970190D01*
X133858095Y-110450380D02*
X133858095Y-111259904D01*
X133905714Y-111355142D01*
X133953333Y-111402761D01*
X134048571Y-111450380D01*
X134239047Y-111450380D01*
X134334285Y-111402761D01*
X134381904Y-111355142D01*
X134429523Y-111259904D01*
X134429523Y-110450380D01*
X135429523Y-111450380D02*
X134858095Y-111450380D01*
X135143809Y-111450380D02*
X135143809Y-110450380D01*
X135048571Y-110593238D01*
X134953333Y-110688476D01*
X134858095Y-110736095D01*
X155027333Y-111609142D02*
X154979714Y-111656761D01*
X154836857Y-111704380D01*
X154741619Y-111704380D01*
X154598761Y-111656761D01*
X154503523Y-111561523D01*
X154455904Y-111466285D01*
X154408285Y-111275809D01*
X154408285Y-111132952D01*
X154455904Y-110942476D01*
X154503523Y-110847238D01*
X154598761Y-110752000D01*
X154741619Y-110704380D01*
X154836857Y-110704380D01*
X154979714Y-110752000D01*
X155027333Y-110799619D01*
X155979714Y-111704380D02*
X155408285Y-111704380D01*
X155694000Y-111704380D02*
X155694000Y-110704380D01*
X155598761Y-110847238D01*
X155503523Y-110942476D01*
X155408285Y-110990095D01*
X138517333Y-91797142D02*
X138469714Y-91844761D01*
X138326857Y-91892380D01*
X138231619Y-91892380D01*
X138088761Y-91844761D01*
X137993523Y-91749523D01*
X137945904Y-91654285D01*
X137898285Y-91463809D01*
X137898285Y-91320952D01*
X137945904Y-91130476D01*
X137993523Y-91035238D01*
X138088761Y-90940000D01*
X138231619Y-90892380D01*
X138326857Y-90892380D01*
X138469714Y-90940000D01*
X138517333Y-90987619D01*
X138898285Y-90987619D02*
X138945904Y-90940000D01*
X139041142Y-90892380D01*
X139279238Y-90892380D01*
X139374476Y-90940000D01*
X139422095Y-90987619D01*
X139469714Y-91082857D01*
X139469714Y-91178095D01*
X139422095Y-91320952D01*
X138850666Y-91892380D01*
X139469714Y-91892380D01*
X116673333Y-111609142D02*
X116625714Y-111656761D01*
X116482857Y-111704380D01*
X116387619Y-111704380D01*
X116244761Y-111656761D01*
X116149523Y-111561523D01*
X116101904Y-111466285D01*
X116054285Y-111275809D01*
X116054285Y-111132952D01*
X116101904Y-110942476D01*
X116149523Y-110847238D01*
X116244761Y-110752000D01*
X116387619Y-110704380D01*
X116482857Y-110704380D01*
X116625714Y-110752000D01*
X116673333Y-110799619D01*
X117530476Y-111037714D02*
X117530476Y-111704380D01*
X117292380Y-110656761D02*
X117054285Y-111371047D01*
X117673333Y-111371047D01*
X115657333Y-95607142D02*
X115609714Y-95654761D01*
X115466857Y-95702380D01*
X115371619Y-95702380D01*
X115228761Y-95654761D01*
X115133523Y-95559523D01*
X115085904Y-95464285D01*
X115038285Y-95273809D01*
X115038285Y-95130952D01*
X115085904Y-94940476D01*
X115133523Y-94845238D01*
X115228761Y-94750000D01*
X115371619Y-94702380D01*
X115466857Y-94702380D01*
X115609714Y-94750000D01*
X115657333Y-94797619D01*
X116562095Y-94702380D02*
X116085904Y-94702380D01*
X116038285Y-95178571D01*
X116085904Y-95130952D01*
X116181142Y-95083333D01*
X116419238Y-95083333D01*
X116514476Y-95130952D01*
X116562095Y-95178571D01*
X116609714Y-95273809D01*
X116609714Y-95511904D01*
X116562095Y-95607142D01*
X116514476Y-95654761D01*
X116419238Y-95702380D01*
X116181142Y-95702380D01*
X116085904Y-95654761D01*
X116038285Y-95607142D01*
X118197333Y-84685142D02*
X118149714Y-84732761D01*
X118006857Y-84780380D01*
X117911619Y-84780380D01*
X117768761Y-84732761D01*
X117673523Y-84637523D01*
X117625904Y-84542285D01*
X117578285Y-84351809D01*
X117578285Y-84208952D01*
X117625904Y-84018476D01*
X117673523Y-83923238D01*
X117768761Y-83828000D01*
X117911619Y-83780380D01*
X118006857Y-83780380D01*
X118149714Y-83828000D01*
X118197333Y-83875619D01*
X119054476Y-83780380D02*
X118864000Y-83780380D01*
X118768761Y-83828000D01*
X118721142Y-83875619D01*
X118625904Y-84018476D01*
X118578285Y-84208952D01*
X118578285Y-84589904D01*
X118625904Y-84685142D01*
X118673523Y-84732761D01*
X118768761Y-84780380D01*
X118959238Y-84780380D01*
X119054476Y-84732761D01*
X119102095Y-84685142D01*
X119149714Y-84589904D01*
X119149714Y-84351809D01*
X119102095Y-84256571D01*
X119054476Y-84208952D01*
X118959238Y-84161333D01*
X118768761Y-84161333D01*
X118673523Y-84208952D01*
X118625904Y-84256571D01*
X118578285Y-84351809D01*
X139773333Y-86811142D02*
X139725714Y-86858761D01*
X139582857Y-86906380D01*
X139487619Y-86906380D01*
X139344761Y-86858761D01*
X139249523Y-86763523D01*
X139201904Y-86668285D01*
X139154285Y-86477809D01*
X139154285Y-86334952D01*
X139201904Y-86144476D01*
X139249523Y-86049238D01*
X139344761Y-85954000D01*
X139487619Y-85906380D01*
X139582857Y-85906380D01*
X139725714Y-85954000D01*
X139773333Y-86001619D01*
X140344761Y-86334952D02*
X140249523Y-86287333D01*
X140201904Y-86239714D01*
X140154285Y-86144476D01*
X140154285Y-86096857D01*
X140201904Y-86001619D01*
X140249523Y-85954000D01*
X140344761Y-85906380D01*
X140535238Y-85906380D01*
X140630476Y-85954000D01*
X140678095Y-86001619D01*
X140725714Y-86096857D01*
X140725714Y-86144476D01*
X140678095Y-86239714D01*
X140630476Y-86287333D01*
X140535238Y-86334952D01*
X140344761Y-86334952D01*
X140249523Y-86382571D01*
X140201904Y-86430190D01*
X140154285Y-86525428D01*
X140154285Y-86715904D01*
X140201904Y-86811142D01*
X140249523Y-86858761D01*
X140344761Y-86906380D01*
X140535238Y-86906380D01*
X140630476Y-86858761D01*
X140678095Y-86811142D01*
X140725714Y-86715904D01*
X140725714Y-86525428D01*
X140678095Y-86430190D01*
X140630476Y-86382571D01*
X140535238Y-86334952D01*
X145883333Y-112625142D02*
X145835714Y-112672761D01*
X145692857Y-112720380D01*
X145597619Y-112720380D01*
X145454761Y-112672761D01*
X145359523Y-112577523D01*
X145311904Y-112482285D01*
X145264285Y-112291809D01*
X145264285Y-112148952D01*
X145311904Y-111958476D01*
X145359523Y-111863238D01*
X145454761Y-111768000D01*
X145597619Y-111720380D01*
X145692857Y-111720380D01*
X145835714Y-111768000D01*
X145883333Y-111815619D01*
X146359523Y-112720380D02*
X146550000Y-112720380D01*
X146645238Y-112672761D01*
X146692857Y-112625142D01*
X146788095Y-112482285D01*
X146835714Y-112291809D01*
X146835714Y-111910857D01*
X146788095Y-111815619D01*
X146740476Y-111768000D01*
X146645238Y-111720380D01*
X146454761Y-111720380D01*
X146359523Y-111768000D01*
X146311904Y-111815619D01*
X146264285Y-111910857D01*
X146264285Y-112148952D01*
X146311904Y-112244190D01*
X146359523Y-112291809D01*
X146454761Y-112339428D01*
X146645238Y-112339428D01*
X146740476Y-112291809D01*
X146788095Y-112244190D01*
X146835714Y-112148952D01*
X113387142Y-86494857D02*
X113434761Y-86542476D01*
X113482380Y-86685333D01*
X113482380Y-86780571D01*
X113434761Y-86923428D01*
X113339523Y-87018666D01*
X113244285Y-87066285D01*
X113053809Y-87113904D01*
X112910952Y-87113904D01*
X112720476Y-87066285D01*
X112625238Y-87018666D01*
X112530000Y-86923428D01*
X112482380Y-86780571D01*
X112482380Y-86685333D01*
X112530000Y-86542476D01*
X112577619Y-86494857D01*
X113482380Y-85542476D02*
X113482380Y-86113904D01*
X113482380Y-85828190D02*
X112482380Y-85828190D01*
X112625238Y-85923428D01*
X112720476Y-86018666D01*
X112768095Y-86113904D01*
X112482380Y-84923428D02*
X112482380Y-84828190D01*
X112530000Y-84732952D01*
X112577619Y-84685333D01*
X112672857Y-84637714D01*
X112863333Y-84590095D01*
X113101428Y-84590095D01*
X113291904Y-84637714D01*
X113387142Y-84685333D01*
X113434761Y-84732952D01*
X113482380Y-84828190D01*
X113482380Y-84923428D01*
X113434761Y-85018666D01*
X113387142Y-85066285D01*
X113291904Y-85113904D01*
X113101428Y-85161523D01*
X112863333Y-85161523D01*
X112672857Y-85113904D01*
X112577619Y-85066285D01*
X112530000Y-85018666D01*
X112482380Y-84923428D01*
X122148333Y-83096380D02*
X121815000Y-82620190D01*
X121576904Y-83096380D02*
X121576904Y-82096380D01*
X121957857Y-82096380D01*
X122053095Y-82144000D01*
X122100714Y-82191619D01*
X122148333Y-82286857D01*
X122148333Y-82429714D01*
X122100714Y-82524952D01*
X122053095Y-82572571D01*
X121957857Y-82620190D01*
X121576904Y-82620190D01*
X123100714Y-83096380D02*
X122529285Y-83096380D01*
X122815000Y-83096380D02*
X122815000Y-82096380D01*
X122719761Y-82239238D01*
X122624523Y-82334476D01*
X122529285Y-82382095D01*
X115768380Y-89715666D02*
X115292190Y-90049000D01*
X115768380Y-90287095D02*
X114768380Y-90287095D01*
X114768380Y-89906142D01*
X114816000Y-89810904D01*
X114863619Y-89763285D01*
X114958857Y-89715666D01*
X115101714Y-89715666D01*
X115196952Y-89763285D01*
X115244571Y-89810904D01*
X115292190Y-89906142D01*
X115292190Y-90287095D01*
X114863619Y-89334714D02*
X114816000Y-89287095D01*
X114768380Y-89191857D01*
X114768380Y-88953761D01*
X114816000Y-88858523D01*
X114863619Y-88810904D01*
X114958857Y-88763285D01*
X115054095Y-88763285D01*
X115196952Y-88810904D01*
X115768380Y-89382333D01*
X115768380Y-88763285D01*
X146662380Y-95162666D02*
X146186190Y-95496000D01*
X146662380Y-95734095D02*
X145662380Y-95734095D01*
X145662380Y-95353142D01*
X145710000Y-95257904D01*
X145757619Y-95210285D01*
X145852857Y-95162666D01*
X145995714Y-95162666D01*
X146090952Y-95210285D01*
X146138571Y-95257904D01*
X146186190Y-95353142D01*
X146186190Y-95734095D01*
X145662380Y-94829333D02*
X145662380Y-94210285D01*
X146043333Y-94543619D01*
X146043333Y-94400761D01*
X146090952Y-94305523D01*
X146138571Y-94257904D01*
X146233809Y-94210285D01*
X146471904Y-94210285D01*
X146567142Y-94257904D01*
X146614761Y-94305523D01*
X146662380Y-94400761D01*
X146662380Y-94686476D01*
X146614761Y-94781714D01*
X146567142Y-94829333D01*
X142327333Y-90114380D02*
X141994000Y-89638190D01*
X141755904Y-90114380D02*
X141755904Y-89114380D01*
X142136857Y-89114380D01*
X142232095Y-89162000D01*
X142279714Y-89209619D01*
X142327333Y-89304857D01*
X142327333Y-89447714D01*
X142279714Y-89542952D01*
X142232095Y-89590571D01*
X142136857Y-89638190D01*
X141755904Y-89638190D01*
X143184476Y-89447714D02*
X143184476Y-90114380D01*
X142946380Y-89066761D02*
X142708285Y-89781047D01*
X143327333Y-89781047D01*
X134366285Y-81748380D02*
X134699619Y-82748380D01*
X135032952Y-81748380D01*
X135366285Y-82748380D02*
X135366285Y-82081714D01*
X135366285Y-81748380D02*
X135318666Y-81796000D01*
X135366285Y-81843619D01*
X135413904Y-81796000D01*
X135366285Y-81748380D01*
X135366285Y-81843619D01*
X136271047Y-82748380D02*
X136271047Y-81748380D01*
X136271047Y-82700761D02*
X136175809Y-82748380D01*
X135985333Y-82748380D01*
X135890095Y-82700761D01*
X135842476Y-82653142D01*
X135794857Y-82557904D01*
X135794857Y-82272190D01*
X135842476Y-82176952D01*
X135890095Y-82129333D01*
X135985333Y-82081714D01*
X136175809Y-82081714D01*
X136271047Y-82129333D01*
X137366285Y-81748380D02*
X137937714Y-81748380D01*
X137652000Y-82748380D02*
X137652000Y-81748380D01*
X138271047Y-82748380D02*
X138271047Y-81748380D01*
X138652000Y-81748380D01*
X138747238Y-81796000D01*
X138794857Y-81843619D01*
X138842476Y-81938857D01*
X138842476Y-82081714D01*
X138794857Y-82176952D01*
X138747238Y-82224571D01*
X138652000Y-82272190D01*
X138271047Y-82272190D01*
X135191809Y-78922571D02*
X135525142Y-78922571D01*
X135668000Y-79446380D02*
X135191809Y-79446380D01*
X135191809Y-78446380D01*
X135668000Y-78446380D01*
X136287047Y-78446380D02*
X136477523Y-78446380D01*
X136572761Y-78494000D01*
X136668000Y-78589238D01*
X136715619Y-78779714D01*
X136715619Y-79113047D01*
X136668000Y-79303523D01*
X136572761Y-79398761D01*
X136477523Y-79446380D01*
X136287047Y-79446380D01*
X136191809Y-79398761D01*
X136096571Y-79303523D01*
X136048952Y-79113047D01*
X136048952Y-78779714D01*
X136096571Y-78589238D01*
X136191809Y-78494000D01*
X136287047Y-78446380D01*
X137096571Y-79398761D02*
X137239428Y-79446380D01*
X137477523Y-79446380D01*
X137572761Y-79398761D01*
X137620380Y-79351142D01*
X137668000Y-79255904D01*
X137668000Y-79160666D01*
X137620380Y-79065428D01*
X137572761Y-79017809D01*
X137477523Y-78970190D01*
X137287047Y-78922571D01*
X137191809Y-78874952D01*
X137144190Y-78827333D01*
X137096571Y-78732095D01*
X137096571Y-78636857D01*
X137144190Y-78541619D01*
X137191809Y-78494000D01*
X137287047Y-78446380D01*
X137525142Y-78446380D01*
X137668000Y-78494000D01*
X138715619Y-78446380D02*
X139287047Y-78446380D01*
X139001333Y-79446380D02*
X139001333Y-78446380D01*
X139620380Y-79446380D02*
X139620380Y-78446380D01*
X140001333Y-78446380D01*
X140096571Y-78494000D01*
X140144190Y-78541619D01*
X140191809Y-78636857D01*
X140191809Y-78779714D01*
X140144190Y-78874952D01*
X140096571Y-78922571D01*
X140001333Y-78970190D01*
X139620380Y-78970190D01*
X147169619Y-93416380D02*
X147169619Y-92416380D01*
X147550571Y-92416380D01*
X147645809Y-92464000D01*
X147693428Y-92511619D01*
X147741047Y-92606857D01*
X147741047Y-92749714D01*
X147693428Y-92844952D01*
X147645809Y-92892571D01*
X147550571Y-92940190D01*
X147169619Y-92940190D01*
X148122000Y-93130666D02*
X148598190Y-93130666D01*
X148026761Y-93416380D02*
X148360095Y-92416380D01*
X148693428Y-93416380D01*
X149645809Y-92416380D02*
X149979142Y-93416380D01*
X150312476Y-92416380D01*
X150645809Y-93416380D02*
X150645809Y-92749714D01*
X150645809Y-92416380D02*
X150598190Y-92464000D01*
X150645809Y-92511619D01*
X150693428Y-92464000D01*
X150645809Y-92416380D01*
X150645809Y-92511619D01*
X151550571Y-93416380D02*
X151550571Y-92416380D01*
X151550571Y-93368761D02*
X151455333Y-93416380D01*
X151264857Y-93416380D01*
X151169619Y-93368761D01*
X151122000Y-93321142D01*
X151074380Y-93225904D01*
X151074380Y-92940190D01*
X151122000Y-92844952D01*
X151169619Y-92797333D01*
X151264857Y-92749714D01*
X151455333Y-92749714D01*
X151550571Y-92797333D01*
X152645809Y-92416380D02*
X153217238Y-92416380D01*
X152931523Y-93416380D02*
X152931523Y-92416380D01*
X153550571Y-93416380D02*
X153550571Y-92416380D01*
X153931523Y-92416380D01*
X154026761Y-92464000D01*
X154074380Y-92511619D01*
X154122000Y-92606857D01*
X154122000Y-92749714D01*
X154074380Y-92844952D01*
X154026761Y-92892571D01*
X153931523Y-92940190D01*
X153550571Y-92940190D01*
X110085428Y-99210761D02*
X110228285Y-99258380D01*
X110466380Y-99258380D01*
X110561619Y-99210761D01*
X110609238Y-99163142D01*
X110656857Y-99067904D01*
X110656857Y-98972666D01*
X110609238Y-98877428D01*
X110561619Y-98829809D01*
X110466380Y-98782190D01*
X110275904Y-98734571D01*
X110180666Y-98686952D01*
X110133047Y-98639333D01*
X110085428Y-98544095D01*
X110085428Y-98448857D01*
X110133047Y-98353619D01*
X110180666Y-98306000D01*
X110275904Y-98258380D01*
X110514000Y-98258380D01*
X110656857Y-98306000D01*
X110942571Y-98258380D02*
X111514000Y-98258380D01*
X111228285Y-99258380D02*
X111228285Y-98258380D01*
X112466380Y-98258380D02*
X113037809Y-98258380D01*
X112752095Y-99258380D02*
X112752095Y-98258380D01*
X113371142Y-99258380D02*
X113371142Y-98258380D01*
X113752095Y-98258380D01*
X113847333Y-98306000D01*
X113894952Y-98353619D01*
X113942571Y-98448857D01*
X113942571Y-98591714D01*
X113894952Y-98686952D01*
X113847333Y-98734571D01*
X113752095Y-98782190D01*
X113371142Y-98782190D01*
X140970095Y-95972380D02*
X140970095Y-96781904D01*
X141017714Y-96877142D01*
X141065333Y-96924761D01*
X141160571Y-96972380D01*
X141351047Y-96972380D01*
X141446285Y-96924761D01*
X141493904Y-96877142D01*
X141541523Y-96781904D01*
X141541523Y-95972380D01*
X141970095Y-96067619D02*
X142017714Y-96020000D01*
X142112952Y-95972380D01*
X142351047Y-95972380D01*
X142446285Y-96020000D01*
X142493904Y-96067619D01*
X142541523Y-96162857D01*
X142541523Y-96258095D01*
X142493904Y-96400952D01*
X141922476Y-96972380D01*
X142541523Y-96972380D01*
X132294380Y-91771904D02*
X133103904Y-91771904D01*
X133199142Y-91724285D01*
X133246761Y-91676666D01*
X133294380Y-91581428D01*
X133294380Y-91390952D01*
X133246761Y-91295714D01*
X133199142Y-91248095D01*
X133103904Y-91200476D01*
X132294380Y-91200476D01*
X132294380Y-90819523D02*
X132294380Y-90200476D01*
X132675333Y-90533809D01*
X132675333Y-90390952D01*
X132722952Y-90295714D01*
X132770571Y-90248095D01*
X132865809Y-90200476D01*
X133103904Y-90200476D01*
X133199142Y-90248095D01*
X133246761Y-90295714D01*
X133294380Y-90390952D01*
X133294380Y-90676666D01*
X133246761Y-90771904D01*
X133199142Y-90819523D01*
X136485333Y-91289142D02*
X136437714Y-91336761D01*
X136294857Y-91384380D01*
X136199619Y-91384380D01*
X136056761Y-91336761D01*
X135961523Y-91241523D01*
X135913904Y-91146285D01*
X135866285Y-90955809D01*
X135866285Y-90812952D01*
X135913904Y-90622476D01*
X135961523Y-90527238D01*
X136056761Y-90432000D01*
X136199619Y-90384380D01*
X136294857Y-90384380D01*
X136437714Y-90432000D01*
X136485333Y-90479619D01*
X136818666Y-90384380D02*
X137485333Y-90384380D01*
X137056761Y-91384380D01*
M02*
