G04 #@! TF.GenerationSoftware,KiCad,Pcbnew,(5.1.4)-1*
G04 #@! TF.CreationDate,2019-10-15T19:11:32-05:00*
G04 #@! TF.ProjectId,CCDBoard_Hardware,43434442-6f61-4726-945f-486172647761,rev?*
G04 #@! TF.SameCoordinates,Original*
G04 #@! TF.FileFunction,Copper,L2,Bot*
G04 #@! TF.FilePolarity,Positive*
%FSLAX46Y46*%
G04 Gerber Fmt 4.6, Leading zero omitted, Abs format (unit mm)*
G04 Created by KiCad (PCBNEW (5.1.4)-1) date 2019-10-15 19:11:32*
%MOMM*%
%LPD*%
G04 APERTURE LIST*
%ADD10C,1.524000*%
%ADD11C,0.800000*%
%ADD12C,0.381000*%
%ADD13C,0.254000*%
G04 APERTURE END LIST*
D10*
X112014000Y-90678000D03*
X116078000Y-78994000D03*
X147320000Y-109220000D03*
X144780000Y-109220000D03*
X142240000Y-109220000D03*
X121920000Y-109220000D03*
X124460000Y-109220000D03*
X127000000Y-109220000D03*
X129540000Y-109220000D03*
X132080000Y-109220000D03*
X134620000Y-109220000D03*
X139700000Y-109220000D03*
X149860000Y-109220000D03*
X137160000Y-109220000D03*
X121920000Y-99210000D03*
X124460000Y-99210000D03*
X127000000Y-99210000D03*
X129540000Y-99210000D03*
X132080000Y-99210000D03*
X134620000Y-99210000D03*
X137160000Y-99210000D03*
X139700000Y-99210000D03*
X142240000Y-99210000D03*
X144780000Y-99210000D03*
X147320000Y-99210000D03*
X149860000Y-99210000D03*
X106172000Y-88900000D03*
X106172000Y-91440000D03*
X106172000Y-93980000D03*
X106172000Y-96520000D03*
X106172000Y-96520000D03*
X120777000Y-80645000D03*
X120777000Y-80645000D03*
X123317000Y-80645000D03*
X125857000Y-80645000D03*
X128397000Y-80645000D03*
X136652000Y-84836000D03*
X133096000Y-78994000D03*
X150622000Y-95504000D03*
X112014000Y-96266000D03*
D11*
X136652000Y-96520000D03*
X114808000Y-87884000D03*
X119888000Y-84074000D03*
X116840000Y-92202000D03*
D12*
X121666000Y-78994000D02*
X116078000Y-78994000D01*
X123317000Y-80645000D02*
X121666000Y-78994000D01*
X127508000Y-78994000D02*
X133096000Y-78994000D01*
X125857000Y-80645000D02*
X127508000Y-78994000D01*
X119888000Y-85090000D02*
X119888000Y-84074000D01*
X123190000Y-88392000D02*
X119888000Y-85090000D01*
X127000000Y-109220000D02*
X123190000Y-105410000D01*
X123190000Y-105410000D02*
X123190000Y-88392000D01*
X116840000Y-92767685D02*
X116840000Y-92202000D01*
X116840000Y-95207630D02*
X116840000Y-92767685D01*
X120842370Y-99210000D02*
X116840000Y-95207630D01*
X121920000Y-99210000D02*
X120842370Y-99210000D01*
D13*
G36*
X163013438Y-76449981D02*
G01*
X163449600Y-76581666D01*
X163851883Y-76795564D01*
X164204952Y-77083519D01*
X164495371Y-77434576D01*
X164712069Y-77835350D01*
X164846797Y-78270584D01*
X164895435Y-78733338D01*
X164895461Y-78740715D01*
X164895460Y-111749994D01*
X164850019Y-112213437D01*
X164718334Y-112649602D01*
X164504438Y-113051880D01*
X164216481Y-113404952D01*
X163865421Y-113695373D01*
X163464651Y-113912069D01*
X163029413Y-114046797D01*
X162566654Y-114095435D01*
X162559571Y-114095460D01*
X104150006Y-114095460D01*
X103686563Y-114050019D01*
X103250398Y-113918334D01*
X102848120Y-113704438D01*
X102495048Y-113416481D01*
X102204627Y-113065421D01*
X101987931Y-112664651D01*
X101853203Y-112229413D01*
X101804565Y-111766654D01*
X101804540Y-111759571D01*
X101804540Y-110058696D01*
X103863800Y-110058696D01*
X103863800Y-110413304D01*
X103932981Y-110761099D01*
X104068684Y-111088714D01*
X104265694Y-111383560D01*
X104516440Y-111634306D01*
X104811286Y-111831316D01*
X105138901Y-111967019D01*
X105486696Y-112036200D01*
X105841304Y-112036200D01*
X106189099Y-111967019D01*
X106516714Y-111831316D01*
X106811560Y-111634306D01*
X107062306Y-111383560D01*
X107259316Y-111088714D01*
X107395019Y-110761099D01*
X107464200Y-110413304D01*
X107464200Y-110058696D01*
X107395019Y-109710901D01*
X107259316Y-109383286D01*
X107078545Y-109112743D01*
X123371000Y-109112743D01*
X123371000Y-109327257D01*
X123412850Y-109537650D01*
X123494941Y-109735835D01*
X123614119Y-109914197D01*
X123765803Y-110065881D01*
X123944165Y-110185059D01*
X124142350Y-110267150D01*
X124352743Y-110309000D01*
X124567257Y-110309000D01*
X124777650Y-110267150D01*
X124975835Y-110185059D01*
X125154197Y-110065881D01*
X125305881Y-109914197D01*
X125425059Y-109735835D01*
X125507150Y-109537650D01*
X125549000Y-109327257D01*
X125549000Y-109112743D01*
X125507150Y-108902350D01*
X125425059Y-108704165D01*
X125305881Y-108525803D01*
X125154197Y-108374119D01*
X124975835Y-108254941D01*
X124777650Y-108172850D01*
X124567257Y-108131000D01*
X124352743Y-108131000D01*
X124142350Y-108172850D01*
X123944165Y-108254941D01*
X123765803Y-108374119D01*
X123614119Y-108525803D01*
X123494941Y-108704165D01*
X123412850Y-108902350D01*
X123371000Y-109112743D01*
X107078545Y-109112743D01*
X107062306Y-109088440D01*
X106811560Y-108837694D01*
X106516714Y-108640684D01*
X106189099Y-108504981D01*
X105841304Y-108435800D01*
X105486696Y-108435800D01*
X105138901Y-108504981D01*
X104811286Y-108640684D01*
X104516440Y-108837694D01*
X104265694Y-109088440D01*
X104068684Y-109383286D01*
X103932981Y-109710901D01*
X103863800Y-110058696D01*
X101804540Y-110058696D01*
X101804540Y-96412743D01*
X105083000Y-96412743D01*
X105083000Y-96627257D01*
X105124850Y-96837650D01*
X105206941Y-97035835D01*
X105326119Y-97214197D01*
X105477803Y-97365881D01*
X105656165Y-97485059D01*
X105854350Y-97567150D01*
X106064743Y-97609000D01*
X106279257Y-97609000D01*
X106489650Y-97567150D01*
X106687835Y-97485059D01*
X106866197Y-97365881D01*
X107017881Y-97214197D01*
X107137059Y-97035835D01*
X107219150Y-96837650D01*
X107261000Y-96627257D01*
X107261000Y-96412743D01*
X107219150Y-96202350D01*
X107201088Y-96158743D01*
X110925000Y-96158743D01*
X110925000Y-96373257D01*
X110966850Y-96583650D01*
X111048941Y-96781835D01*
X111168119Y-96960197D01*
X111319803Y-97111881D01*
X111498165Y-97231059D01*
X111696350Y-97313150D01*
X111906743Y-97355000D01*
X112121257Y-97355000D01*
X112331650Y-97313150D01*
X112529835Y-97231059D01*
X112708197Y-97111881D01*
X112859881Y-96960197D01*
X112979059Y-96781835D01*
X113061150Y-96583650D01*
X113103000Y-96373257D01*
X113103000Y-96158743D01*
X113061150Y-95948350D01*
X112979059Y-95750165D01*
X112859881Y-95571803D01*
X112708197Y-95420119D01*
X112529835Y-95300941D01*
X112331650Y-95218850D01*
X112121257Y-95177000D01*
X111906743Y-95177000D01*
X111696350Y-95218850D01*
X111498165Y-95300941D01*
X111319803Y-95420119D01*
X111168119Y-95571803D01*
X111048941Y-95750165D01*
X110966850Y-95948350D01*
X110925000Y-96158743D01*
X107201088Y-96158743D01*
X107137059Y-96004165D01*
X107017881Y-95825803D01*
X106866197Y-95674119D01*
X106687835Y-95554941D01*
X106489650Y-95472850D01*
X106279257Y-95431000D01*
X106064743Y-95431000D01*
X105854350Y-95472850D01*
X105656165Y-95554941D01*
X105477803Y-95674119D01*
X105326119Y-95825803D01*
X105206941Y-96004165D01*
X105124850Y-96202350D01*
X105083000Y-96412743D01*
X101804540Y-96412743D01*
X101804540Y-93872743D01*
X105083000Y-93872743D01*
X105083000Y-94087257D01*
X105124850Y-94297650D01*
X105206941Y-94495835D01*
X105326119Y-94674197D01*
X105477803Y-94825881D01*
X105656165Y-94945059D01*
X105854350Y-95027150D01*
X106064743Y-95069000D01*
X106279257Y-95069000D01*
X106489650Y-95027150D01*
X106687835Y-94945059D01*
X106866197Y-94825881D01*
X107017881Y-94674197D01*
X107137059Y-94495835D01*
X107219150Y-94297650D01*
X107261000Y-94087257D01*
X107261000Y-93872743D01*
X107219150Y-93662350D01*
X107137059Y-93464165D01*
X107017881Y-93285803D01*
X106866197Y-93134119D01*
X106687835Y-93014941D01*
X106489650Y-92932850D01*
X106279257Y-92891000D01*
X106064743Y-92891000D01*
X105854350Y-92932850D01*
X105656165Y-93014941D01*
X105477803Y-93134119D01*
X105326119Y-93285803D01*
X105206941Y-93464165D01*
X105124850Y-93662350D01*
X105083000Y-93872743D01*
X101804540Y-93872743D01*
X101804540Y-91332743D01*
X105083000Y-91332743D01*
X105083000Y-91547257D01*
X105124850Y-91757650D01*
X105206941Y-91955835D01*
X105326119Y-92134197D01*
X105477803Y-92285881D01*
X105656165Y-92405059D01*
X105854350Y-92487150D01*
X106064743Y-92529000D01*
X106279257Y-92529000D01*
X106489650Y-92487150D01*
X106687835Y-92405059D01*
X106866197Y-92285881D01*
X107017881Y-92134197D01*
X107020420Y-92130397D01*
X116113000Y-92130397D01*
X116113000Y-92273603D01*
X116140938Y-92414058D01*
X116195741Y-92546364D01*
X116275302Y-92665436D01*
X116322500Y-92712634D01*
X116322500Y-92793097D01*
X116322501Y-92793107D01*
X116322500Y-95182217D01*
X116319997Y-95207630D01*
X116322500Y-95233042D01*
X116329989Y-95309077D01*
X116359580Y-95406626D01*
X116407633Y-95496528D01*
X116472302Y-95575328D01*
X116492048Y-95591533D01*
X120458472Y-99557958D01*
X120474672Y-99577698D01*
X120553472Y-99642367D01*
X120643373Y-99690420D01*
X120740922Y-99720011D01*
X120800053Y-99725835D01*
X120842370Y-99730003D01*
X120867783Y-99727500D01*
X120956054Y-99727500D01*
X121074119Y-99904197D01*
X121225803Y-100055881D01*
X121404165Y-100175059D01*
X121602350Y-100257150D01*
X121812743Y-100299000D01*
X122027257Y-100299000D01*
X122237650Y-100257150D01*
X122435835Y-100175059D01*
X122614197Y-100055881D01*
X122672500Y-99997578D01*
X122672500Y-105384587D01*
X122669997Y-105410000D01*
X122672500Y-105435412D01*
X122679989Y-105511447D01*
X122709580Y-105608996D01*
X122757633Y-105698898D01*
X122822302Y-105777698D01*
X122842048Y-105793903D01*
X125952459Y-108904314D01*
X125911000Y-109112743D01*
X125911000Y-109327257D01*
X125952850Y-109537650D01*
X126034941Y-109735835D01*
X126154119Y-109914197D01*
X126305803Y-110065881D01*
X126484165Y-110185059D01*
X126682350Y-110267150D01*
X126892743Y-110309000D01*
X127107257Y-110309000D01*
X127317650Y-110267150D01*
X127515835Y-110185059D01*
X127694197Y-110065881D01*
X127845881Y-109914197D01*
X127965059Y-109735835D01*
X128047150Y-109537650D01*
X128089000Y-109327257D01*
X128089000Y-109112743D01*
X128451000Y-109112743D01*
X128451000Y-109327257D01*
X128492850Y-109537650D01*
X128574941Y-109735835D01*
X128694119Y-109914197D01*
X128845803Y-110065881D01*
X129024165Y-110185059D01*
X129222350Y-110267150D01*
X129432743Y-110309000D01*
X129647257Y-110309000D01*
X129857650Y-110267150D01*
X130055835Y-110185059D01*
X130234197Y-110065881D01*
X130385881Y-109914197D01*
X130505059Y-109735835D01*
X130587150Y-109537650D01*
X130629000Y-109327257D01*
X130629000Y-109112743D01*
X130991000Y-109112743D01*
X130991000Y-109327257D01*
X131032850Y-109537650D01*
X131114941Y-109735835D01*
X131234119Y-109914197D01*
X131385803Y-110065881D01*
X131564165Y-110185059D01*
X131762350Y-110267150D01*
X131972743Y-110309000D01*
X132187257Y-110309000D01*
X132397650Y-110267150D01*
X132595835Y-110185059D01*
X132774197Y-110065881D01*
X132925881Y-109914197D01*
X133045059Y-109735835D01*
X133127150Y-109537650D01*
X133169000Y-109327257D01*
X133169000Y-109112743D01*
X133531000Y-109112743D01*
X133531000Y-109327257D01*
X133572850Y-109537650D01*
X133654941Y-109735835D01*
X133774119Y-109914197D01*
X133925803Y-110065881D01*
X134104165Y-110185059D01*
X134302350Y-110267150D01*
X134512743Y-110309000D01*
X134727257Y-110309000D01*
X134937650Y-110267150D01*
X135135835Y-110185059D01*
X135314197Y-110065881D01*
X135465881Y-109914197D01*
X135585059Y-109735835D01*
X135667150Y-109537650D01*
X135709000Y-109327257D01*
X135709000Y-109112743D01*
X136071000Y-109112743D01*
X136071000Y-109327257D01*
X136112850Y-109537650D01*
X136194941Y-109735835D01*
X136314119Y-109914197D01*
X136465803Y-110065881D01*
X136644165Y-110185059D01*
X136842350Y-110267150D01*
X137052743Y-110309000D01*
X137267257Y-110309000D01*
X137477650Y-110267150D01*
X137675835Y-110185059D01*
X137854197Y-110065881D01*
X138005881Y-109914197D01*
X138125059Y-109735835D01*
X138207150Y-109537650D01*
X138249000Y-109327257D01*
X138249000Y-109112743D01*
X138611000Y-109112743D01*
X138611000Y-109327257D01*
X138652850Y-109537650D01*
X138734941Y-109735835D01*
X138854119Y-109914197D01*
X139005803Y-110065881D01*
X139184165Y-110185059D01*
X139382350Y-110267150D01*
X139592743Y-110309000D01*
X139807257Y-110309000D01*
X140017650Y-110267150D01*
X140215835Y-110185059D01*
X140394197Y-110065881D01*
X140545881Y-109914197D01*
X140665059Y-109735835D01*
X140747150Y-109537650D01*
X140789000Y-109327257D01*
X140789000Y-109112743D01*
X141151000Y-109112743D01*
X141151000Y-109327257D01*
X141192850Y-109537650D01*
X141274941Y-109735835D01*
X141394119Y-109914197D01*
X141545803Y-110065881D01*
X141724165Y-110185059D01*
X141922350Y-110267150D01*
X142132743Y-110309000D01*
X142347257Y-110309000D01*
X142557650Y-110267150D01*
X142755835Y-110185059D01*
X142934197Y-110065881D01*
X143085881Y-109914197D01*
X143205059Y-109735835D01*
X143287150Y-109537650D01*
X143329000Y-109327257D01*
X143329000Y-109112743D01*
X143691000Y-109112743D01*
X143691000Y-109327257D01*
X143732850Y-109537650D01*
X143814941Y-109735835D01*
X143934119Y-109914197D01*
X144085803Y-110065881D01*
X144264165Y-110185059D01*
X144462350Y-110267150D01*
X144672743Y-110309000D01*
X144887257Y-110309000D01*
X145097650Y-110267150D01*
X145295835Y-110185059D01*
X145474197Y-110065881D01*
X145625881Y-109914197D01*
X145745059Y-109735835D01*
X145827150Y-109537650D01*
X145869000Y-109327257D01*
X145869000Y-109112743D01*
X146231000Y-109112743D01*
X146231000Y-109327257D01*
X146272850Y-109537650D01*
X146354941Y-109735835D01*
X146474119Y-109914197D01*
X146625803Y-110065881D01*
X146804165Y-110185059D01*
X147002350Y-110267150D01*
X147212743Y-110309000D01*
X147427257Y-110309000D01*
X147637650Y-110267150D01*
X147835835Y-110185059D01*
X148014197Y-110065881D01*
X148021382Y-110058696D01*
X159235800Y-110058696D01*
X159235800Y-110413304D01*
X159304981Y-110761099D01*
X159440684Y-111088714D01*
X159637694Y-111383560D01*
X159888440Y-111634306D01*
X160183286Y-111831316D01*
X160510901Y-111967019D01*
X160858696Y-112036200D01*
X161213304Y-112036200D01*
X161561099Y-111967019D01*
X161888714Y-111831316D01*
X162183560Y-111634306D01*
X162434306Y-111383560D01*
X162631316Y-111088714D01*
X162767019Y-110761099D01*
X162836200Y-110413304D01*
X162836200Y-110058696D01*
X162767019Y-109710901D01*
X162631316Y-109383286D01*
X162434306Y-109088440D01*
X162183560Y-108837694D01*
X161888714Y-108640684D01*
X161561099Y-108504981D01*
X161213304Y-108435800D01*
X160858696Y-108435800D01*
X160510901Y-108504981D01*
X160183286Y-108640684D01*
X159888440Y-108837694D01*
X159637694Y-109088440D01*
X159440684Y-109383286D01*
X159304981Y-109710901D01*
X159235800Y-110058696D01*
X148021382Y-110058696D01*
X148165881Y-109914197D01*
X148285059Y-109735835D01*
X148367150Y-109537650D01*
X148409000Y-109327257D01*
X148409000Y-109112743D01*
X148367150Y-108902350D01*
X148285059Y-108704165D01*
X148165881Y-108525803D01*
X148014197Y-108374119D01*
X147835835Y-108254941D01*
X147637650Y-108172850D01*
X147427257Y-108131000D01*
X147212743Y-108131000D01*
X147002350Y-108172850D01*
X146804165Y-108254941D01*
X146625803Y-108374119D01*
X146474119Y-108525803D01*
X146354941Y-108704165D01*
X146272850Y-108902350D01*
X146231000Y-109112743D01*
X145869000Y-109112743D01*
X145827150Y-108902350D01*
X145745059Y-108704165D01*
X145625881Y-108525803D01*
X145474197Y-108374119D01*
X145295835Y-108254941D01*
X145097650Y-108172850D01*
X144887257Y-108131000D01*
X144672743Y-108131000D01*
X144462350Y-108172850D01*
X144264165Y-108254941D01*
X144085803Y-108374119D01*
X143934119Y-108525803D01*
X143814941Y-108704165D01*
X143732850Y-108902350D01*
X143691000Y-109112743D01*
X143329000Y-109112743D01*
X143287150Y-108902350D01*
X143205059Y-108704165D01*
X143085881Y-108525803D01*
X142934197Y-108374119D01*
X142755835Y-108254941D01*
X142557650Y-108172850D01*
X142347257Y-108131000D01*
X142132743Y-108131000D01*
X141922350Y-108172850D01*
X141724165Y-108254941D01*
X141545803Y-108374119D01*
X141394119Y-108525803D01*
X141274941Y-108704165D01*
X141192850Y-108902350D01*
X141151000Y-109112743D01*
X140789000Y-109112743D01*
X140747150Y-108902350D01*
X140665059Y-108704165D01*
X140545881Y-108525803D01*
X140394197Y-108374119D01*
X140215835Y-108254941D01*
X140017650Y-108172850D01*
X139807257Y-108131000D01*
X139592743Y-108131000D01*
X139382350Y-108172850D01*
X139184165Y-108254941D01*
X139005803Y-108374119D01*
X138854119Y-108525803D01*
X138734941Y-108704165D01*
X138652850Y-108902350D01*
X138611000Y-109112743D01*
X138249000Y-109112743D01*
X138207150Y-108902350D01*
X138125059Y-108704165D01*
X138005881Y-108525803D01*
X137854197Y-108374119D01*
X137675835Y-108254941D01*
X137477650Y-108172850D01*
X137267257Y-108131000D01*
X137052743Y-108131000D01*
X136842350Y-108172850D01*
X136644165Y-108254941D01*
X136465803Y-108374119D01*
X136314119Y-108525803D01*
X136194941Y-108704165D01*
X136112850Y-108902350D01*
X136071000Y-109112743D01*
X135709000Y-109112743D01*
X135667150Y-108902350D01*
X135585059Y-108704165D01*
X135465881Y-108525803D01*
X135314197Y-108374119D01*
X135135835Y-108254941D01*
X134937650Y-108172850D01*
X134727257Y-108131000D01*
X134512743Y-108131000D01*
X134302350Y-108172850D01*
X134104165Y-108254941D01*
X133925803Y-108374119D01*
X133774119Y-108525803D01*
X133654941Y-108704165D01*
X133572850Y-108902350D01*
X133531000Y-109112743D01*
X133169000Y-109112743D01*
X133127150Y-108902350D01*
X133045059Y-108704165D01*
X132925881Y-108525803D01*
X132774197Y-108374119D01*
X132595835Y-108254941D01*
X132397650Y-108172850D01*
X132187257Y-108131000D01*
X131972743Y-108131000D01*
X131762350Y-108172850D01*
X131564165Y-108254941D01*
X131385803Y-108374119D01*
X131234119Y-108525803D01*
X131114941Y-108704165D01*
X131032850Y-108902350D01*
X130991000Y-109112743D01*
X130629000Y-109112743D01*
X130587150Y-108902350D01*
X130505059Y-108704165D01*
X130385881Y-108525803D01*
X130234197Y-108374119D01*
X130055835Y-108254941D01*
X129857650Y-108172850D01*
X129647257Y-108131000D01*
X129432743Y-108131000D01*
X129222350Y-108172850D01*
X129024165Y-108254941D01*
X128845803Y-108374119D01*
X128694119Y-108525803D01*
X128574941Y-108704165D01*
X128492850Y-108902350D01*
X128451000Y-109112743D01*
X128089000Y-109112743D01*
X128047150Y-108902350D01*
X127965059Y-108704165D01*
X127845881Y-108525803D01*
X127694197Y-108374119D01*
X127515835Y-108254941D01*
X127317650Y-108172850D01*
X127107257Y-108131000D01*
X126892743Y-108131000D01*
X126684314Y-108172459D01*
X123707500Y-105195645D01*
X123707500Y-99997578D01*
X123765803Y-100055881D01*
X123944165Y-100175059D01*
X124142350Y-100257150D01*
X124352743Y-100299000D01*
X124567257Y-100299000D01*
X124777650Y-100257150D01*
X124975835Y-100175059D01*
X125154197Y-100055881D01*
X125305881Y-99904197D01*
X125425059Y-99725835D01*
X125507150Y-99527650D01*
X125549000Y-99317257D01*
X125549000Y-99102743D01*
X125911000Y-99102743D01*
X125911000Y-99317257D01*
X125952850Y-99527650D01*
X126034941Y-99725835D01*
X126154119Y-99904197D01*
X126305803Y-100055881D01*
X126484165Y-100175059D01*
X126682350Y-100257150D01*
X126892743Y-100299000D01*
X127107257Y-100299000D01*
X127317650Y-100257150D01*
X127515835Y-100175059D01*
X127694197Y-100055881D01*
X127845881Y-99904197D01*
X127965059Y-99725835D01*
X128047150Y-99527650D01*
X128089000Y-99317257D01*
X128089000Y-99102743D01*
X128451000Y-99102743D01*
X128451000Y-99317257D01*
X128492850Y-99527650D01*
X128574941Y-99725835D01*
X128694119Y-99904197D01*
X128845803Y-100055881D01*
X129024165Y-100175059D01*
X129222350Y-100257150D01*
X129432743Y-100299000D01*
X129647257Y-100299000D01*
X129857650Y-100257150D01*
X130055835Y-100175059D01*
X130234197Y-100055881D01*
X130385881Y-99904197D01*
X130505059Y-99725835D01*
X130587150Y-99527650D01*
X130629000Y-99317257D01*
X130629000Y-99102743D01*
X130991000Y-99102743D01*
X130991000Y-99317257D01*
X131032850Y-99527650D01*
X131114941Y-99725835D01*
X131234119Y-99904197D01*
X131385803Y-100055881D01*
X131564165Y-100175059D01*
X131762350Y-100257150D01*
X131972743Y-100299000D01*
X132187257Y-100299000D01*
X132397650Y-100257150D01*
X132595835Y-100175059D01*
X132774197Y-100055881D01*
X132925881Y-99904197D01*
X133045059Y-99725835D01*
X133127150Y-99527650D01*
X133169000Y-99317257D01*
X133169000Y-99102743D01*
X133531000Y-99102743D01*
X133531000Y-99317257D01*
X133572850Y-99527650D01*
X133654941Y-99725835D01*
X133774119Y-99904197D01*
X133925803Y-100055881D01*
X134104165Y-100175059D01*
X134302350Y-100257150D01*
X134512743Y-100299000D01*
X134727257Y-100299000D01*
X134937650Y-100257150D01*
X135135835Y-100175059D01*
X135314197Y-100055881D01*
X135465881Y-99904197D01*
X135585059Y-99725835D01*
X135667150Y-99527650D01*
X135709000Y-99317257D01*
X135709000Y-99102743D01*
X136071000Y-99102743D01*
X136071000Y-99317257D01*
X136112850Y-99527650D01*
X136194941Y-99725835D01*
X136314119Y-99904197D01*
X136465803Y-100055881D01*
X136644165Y-100175059D01*
X136842350Y-100257150D01*
X137052743Y-100299000D01*
X137267257Y-100299000D01*
X137477650Y-100257150D01*
X137675835Y-100175059D01*
X137854197Y-100055881D01*
X138005881Y-99904197D01*
X138125059Y-99725835D01*
X138207150Y-99527650D01*
X138249000Y-99317257D01*
X138249000Y-99102743D01*
X138611000Y-99102743D01*
X138611000Y-99317257D01*
X138652850Y-99527650D01*
X138734941Y-99725835D01*
X138854119Y-99904197D01*
X139005803Y-100055881D01*
X139184165Y-100175059D01*
X139382350Y-100257150D01*
X139592743Y-100299000D01*
X139807257Y-100299000D01*
X140017650Y-100257150D01*
X140215835Y-100175059D01*
X140394197Y-100055881D01*
X140545881Y-99904197D01*
X140665059Y-99725835D01*
X140747150Y-99527650D01*
X140789000Y-99317257D01*
X140789000Y-99102743D01*
X141151000Y-99102743D01*
X141151000Y-99317257D01*
X141192850Y-99527650D01*
X141274941Y-99725835D01*
X141394119Y-99904197D01*
X141545803Y-100055881D01*
X141724165Y-100175059D01*
X141922350Y-100257150D01*
X142132743Y-100299000D01*
X142347257Y-100299000D01*
X142557650Y-100257150D01*
X142755835Y-100175059D01*
X142934197Y-100055881D01*
X143085881Y-99904197D01*
X143205059Y-99725835D01*
X143287150Y-99527650D01*
X143329000Y-99317257D01*
X143329000Y-99102743D01*
X143691000Y-99102743D01*
X143691000Y-99317257D01*
X143732850Y-99527650D01*
X143814941Y-99725835D01*
X143934119Y-99904197D01*
X144085803Y-100055881D01*
X144264165Y-100175059D01*
X144462350Y-100257150D01*
X144672743Y-100299000D01*
X144887257Y-100299000D01*
X145097650Y-100257150D01*
X145295835Y-100175059D01*
X145474197Y-100055881D01*
X145625881Y-99904197D01*
X145745059Y-99725835D01*
X145827150Y-99527650D01*
X145869000Y-99317257D01*
X145869000Y-99102743D01*
X146231000Y-99102743D01*
X146231000Y-99317257D01*
X146272850Y-99527650D01*
X146354941Y-99725835D01*
X146474119Y-99904197D01*
X146625803Y-100055881D01*
X146804165Y-100175059D01*
X147002350Y-100257150D01*
X147212743Y-100299000D01*
X147427257Y-100299000D01*
X147637650Y-100257150D01*
X147835835Y-100175059D01*
X148014197Y-100055881D01*
X148165881Y-99904197D01*
X148285059Y-99725835D01*
X148367150Y-99527650D01*
X148409000Y-99317257D01*
X148409000Y-99102743D01*
X148771000Y-99102743D01*
X148771000Y-99317257D01*
X148812850Y-99527650D01*
X148894941Y-99725835D01*
X149014119Y-99904197D01*
X149165803Y-100055881D01*
X149344165Y-100175059D01*
X149542350Y-100257150D01*
X149752743Y-100299000D01*
X149967257Y-100299000D01*
X150177650Y-100257150D01*
X150375835Y-100175059D01*
X150554197Y-100055881D01*
X150705881Y-99904197D01*
X150825059Y-99725835D01*
X150907150Y-99527650D01*
X150949000Y-99317257D01*
X150949000Y-99102743D01*
X150907150Y-98892350D01*
X150825059Y-98694165D01*
X150705881Y-98515803D01*
X150554197Y-98364119D01*
X150375835Y-98244941D01*
X150177650Y-98162850D01*
X149967257Y-98121000D01*
X149752743Y-98121000D01*
X149542350Y-98162850D01*
X149344165Y-98244941D01*
X149165803Y-98364119D01*
X149014119Y-98515803D01*
X148894941Y-98694165D01*
X148812850Y-98892350D01*
X148771000Y-99102743D01*
X148409000Y-99102743D01*
X148367150Y-98892350D01*
X148285059Y-98694165D01*
X148165881Y-98515803D01*
X148014197Y-98364119D01*
X147835835Y-98244941D01*
X147637650Y-98162850D01*
X147427257Y-98121000D01*
X147212743Y-98121000D01*
X147002350Y-98162850D01*
X146804165Y-98244941D01*
X146625803Y-98364119D01*
X146474119Y-98515803D01*
X146354941Y-98694165D01*
X146272850Y-98892350D01*
X146231000Y-99102743D01*
X145869000Y-99102743D01*
X145827150Y-98892350D01*
X145745059Y-98694165D01*
X145625881Y-98515803D01*
X145474197Y-98364119D01*
X145295835Y-98244941D01*
X145097650Y-98162850D01*
X144887257Y-98121000D01*
X144672743Y-98121000D01*
X144462350Y-98162850D01*
X144264165Y-98244941D01*
X144085803Y-98364119D01*
X143934119Y-98515803D01*
X143814941Y-98694165D01*
X143732850Y-98892350D01*
X143691000Y-99102743D01*
X143329000Y-99102743D01*
X143287150Y-98892350D01*
X143205059Y-98694165D01*
X143085881Y-98515803D01*
X142934197Y-98364119D01*
X142755835Y-98244941D01*
X142557650Y-98162850D01*
X142347257Y-98121000D01*
X142132743Y-98121000D01*
X141922350Y-98162850D01*
X141724165Y-98244941D01*
X141545803Y-98364119D01*
X141394119Y-98515803D01*
X141274941Y-98694165D01*
X141192850Y-98892350D01*
X141151000Y-99102743D01*
X140789000Y-99102743D01*
X140747150Y-98892350D01*
X140665059Y-98694165D01*
X140545881Y-98515803D01*
X140394197Y-98364119D01*
X140215835Y-98244941D01*
X140017650Y-98162850D01*
X139807257Y-98121000D01*
X139592743Y-98121000D01*
X139382350Y-98162850D01*
X139184165Y-98244941D01*
X139005803Y-98364119D01*
X138854119Y-98515803D01*
X138734941Y-98694165D01*
X138652850Y-98892350D01*
X138611000Y-99102743D01*
X138249000Y-99102743D01*
X138207150Y-98892350D01*
X138125059Y-98694165D01*
X138005881Y-98515803D01*
X137854197Y-98364119D01*
X137675835Y-98244941D01*
X137477650Y-98162850D01*
X137267257Y-98121000D01*
X137052743Y-98121000D01*
X136842350Y-98162850D01*
X136644165Y-98244941D01*
X136465803Y-98364119D01*
X136314119Y-98515803D01*
X136194941Y-98694165D01*
X136112850Y-98892350D01*
X136071000Y-99102743D01*
X135709000Y-99102743D01*
X135667150Y-98892350D01*
X135585059Y-98694165D01*
X135465881Y-98515803D01*
X135314197Y-98364119D01*
X135135835Y-98244941D01*
X134937650Y-98162850D01*
X134727257Y-98121000D01*
X134512743Y-98121000D01*
X134302350Y-98162850D01*
X134104165Y-98244941D01*
X133925803Y-98364119D01*
X133774119Y-98515803D01*
X133654941Y-98694165D01*
X133572850Y-98892350D01*
X133531000Y-99102743D01*
X133169000Y-99102743D01*
X133127150Y-98892350D01*
X133045059Y-98694165D01*
X132925881Y-98515803D01*
X132774197Y-98364119D01*
X132595835Y-98244941D01*
X132397650Y-98162850D01*
X132187257Y-98121000D01*
X131972743Y-98121000D01*
X131762350Y-98162850D01*
X131564165Y-98244941D01*
X131385803Y-98364119D01*
X131234119Y-98515803D01*
X131114941Y-98694165D01*
X131032850Y-98892350D01*
X130991000Y-99102743D01*
X130629000Y-99102743D01*
X130587150Y-98892350D01*
X130505059Y-98694165D01*
X130385881Y-98515803D01*
X130234197Y-98364119D01*
X130055835Y-98244941D01*
X129857650Y-98162850D01*
X129647257Y-98121000D01*
X129432743Y-98121000D01*
X129222350Y-98162850D01*
X129024165Y-98244941D01*
X128845803Y-98364119D01*
X128694119Y-98515803D01*
X128574941Y-98694165D01*
X128492850Y-98892350D01*
X128451000Y-99102743D01*
X128089000Y-99102743D01*
X128047150Y-98892350D01*
X127965059Y-98694165D01*
X127845881Y-98515803D01*
X127694197Y-98364119D01*
X127515835Y-98244941D01*
X127317650Y-98162850D01*
X127107257Y-98121000D01*
X126892743Y-98121000D01*
X126682350Y-98162850D01*
X126484165Y-98244941D01*
X126305803Y-98364119D01*
X126154119Y-98515803D01*
X126034941Y-98694165D01*
X125952850Y-98892350D01*
X125911000Y-99102743D01*
X125549000Y-99102743D01*
X125507150Y-98892350D01*
X125425059Y-98694165D01*
X125305881Y-98515803D01*
X125154197Y-98364119D01*
X124975835Y-98244941D01*
X124777650Y-98162850D01*
X124567257Y-98121000D01*
X124352743Y-98121000D01*
X124142350Y-98162850D01*
X123944165Y-98244941D01*
X123765803Y-98364119D01*
X123707500Y-98422422D01*
X123707500Y-95396743D01*
X149533000Y-95396743D01*
X149533000Y-95611257D01*
X149574850Y-95821650D01*
X149656941Y-96019835D01*
X149776119Y-96198197D01*
X149927803Y-96349881D01*
X150106165Y-96469059D01*
X150304350Y-96551150D01*
X150514743Y-96593000D01*
X150729257Y-96593000D01*
X150939650Y-96551150D01*
X151137835Y-96469059D01*
X151316197Y-96349881D01*
X151467881Y-96198197D01*
X151587059Y-96019835D01*
X151669150Y-95821650D01*
X151711000Y-95611257D01*
X151711000Y-95396743D01*
X151669150Y-95186350D01*
X151587059Y-94988165D01*
X151467881Y-94809803D01*
X151316197Y-94658119D01*
X151137835Y-94538941D01*
X150939650Y-94456850D01*
X150729257Y-94415000D01*
X150514743Y-94415000D01*
X150304350Y-94456850D01*
X150106165Y-94538941D01*
X149927803Y-94658119D01*
X149776119Y-94809803D01*
X149656941Y-94988165D01*
X149574850Y-95186350D01*
X149533000Y-95396743D01*
X123707500Y-95396743D01*
X123707500Y-88417412D01*
X123710003Y-88391999D01*
X123700011Y-88290551D01*
X123670420Y-88193003D01*
X123622367Y-88103102D01*
X123557698Y-88024302D01*
X123537958Y-88008102D01*
X120405500Y-84875645D01*
X120405500Y-84728743D01*
X135563000Y-84728743D01*
X135563000Y-84943257D01*
X135604850Y-85153650D01*
X135686941Y-85351835D01*
X135806119Y-85530197D01*
X135957803Y-85681881D01*
X136136165Y-85801059D01*
X136334350Y-85883150D01*
X136544743Y-85925000D01*
X136759257Y-85925000D01*
X136969650Y-85883150D01*
X137167835Y-85801059D01*
X137346197Y-85681881D01*
X137497881Y-85530197D01*
X137617059Y-85351835D01*
X137699150Y-85153650D01*
X137741000Y-84943257D01*
X137741000Y-84728743D01*
X137699150Y-84518350D01*
X137617059Y-84320165D01*
X137497881Y-84141803D01*
X137346197Y-83990119D01*
X137167835Y-83870941D01*
X136969650Y-83788850D01*
X136759257Y-83747000D01*
X136544743Y-83747000D01*
X136334350Y-83788850D01*
X136136165Y-83870941D01*
X135957803Y-83990119D01*
X135806119Y-84141803D01*
X135686941Y-84320165D01*
X135604850Y-84518350D01*
X135563000Y-84728743D01*
X120405500Y-84728743D01*
X120405500Y-84584634D01*
X120452698Y-84537436D01*
X120532259Y-84418364D01*
X120587062Y-84286058D01*
X120615000Y-84145603D01*
X120615000Y-84002397D01*
X120587062Y-83861942D01*
X120532259Y-83729636D01*
X120452698Y-83610564D01*
X120351436Y-83509302D01*
X120232364Y-83429741D01*
X120100058Y-83374938D01*
X119959603Y-83347000D01*
X119816397Y-83347000D01*
X119675942Y-83374938D01*
X119543636Y-83429741D01*
X119424564Y-83509302D01*
X119323302Y-83610564D01*
X119243741Y-83729636D01*
X119188938Y-83861942D01*
X119161000Y-84002397D01*
X119161000Y-84145603D01*
X119188938Y-84286058D01*
X119243741Y-84418364D01*
X119323302Y-84537436D01*
X119370500Y-84584634D01*
X119370500Y-85064587D01*
X119367997Y-85090000D01*
X119370500Y-85115412D01*
X119377989Y-85191447D01*
X119407580Y-85288996D01*
X119455633Y-85378898D01*
X119520302Y-85457698D01*
X119540048Y-85473903D01*
X122672501Y-88606357D01*
X122672500Y-98422422D01*
X122614197Y-98364119D01*
X122435835Y-98244941D01*
X122237650Y-98162850D01*
X122027257Y-98121000D01*
X121812743Y-98121000D01*
X121602350Y-98162850D01*
X121404165Y-98244941D01*
X121225803Y-98364119D01*
X121074119Y-98515803D01*
X120996377Y-98632151D01*
X117357500Y-94993275D01*
X117357500Y-92712634D01*
X117404698Y-92665436D01*
X117484259Y-92546364D01*
X117539062Y-92414058D01*
X117567000Y-92273603D01*
X117567000Y-92130397D01*
X117539062Y-91989942D01*
X117484259Y-91857636D01*
X117404698Y-91738564D01*
X117303436Y-91637302D01*
X117184364Y-91557741D01*
X117052058Y-91502938D01*
X116911603Y-91475000D01*
X116768397Y-91475000D01*
X116627942Y-91502938D01*
X116495636Y-91557741D01*
X116376564Y-91637302D01*
X116275302Y-91738564D01*
X116195741Y-91857636D01*
X116140938Y-91989942D01*
X116113000Y-92130397D01*
X107020420Y-92130397D01*
X107137059Y-91955835D01*
X107219150Y-91757650D01*
X107261000Y-91547257D01*
X107261000Y-91332743D01*
X107219150Y-91122350D01*
X107137059Y-90924165D01*
X107017881Y-90745803D01*
X106866197Y-90594119D01*
X106831213Y-90570743D01*
X110925000Y-90570743D01*
X110925000Y-90785257D01*
X110966850Y-90995650D01*
X111048941Y-91193835D01*
X111168119Y-91372197D01*
X111319803Y-91523881D01*
X111498165Y-91643059D01*
X111696350Y-91725150D01*
X111906743Y-91767000D01*
X112121257Y-91767000D01*
X112331650Y-91725150D01*
X112529835Y-91643059D01*
X112708197Y-91523881D01*
X112859881Y-91372197D01*
X112979059Y-91193835D01*
X113061150Y-90995650D01*
X113103000Y-90785257D01*
X113103000Y-90570743D01*
X113061150Y-90360350D01*
X112979059Y-90162165D01*
X112859881Y-89983803D01*
X112708197Y-89832119D01*
X112529835Y-89712941D01*
X112331650Y-89630850D01*
X112121257Y-89589000D01*
X111906743Y-89589000D01*
X111696350Y-89630850D01*
X111498165Y-89712941D01*
X111319803Y-89832119D01*
X111168119Y-89983803D01*
X111048941Y-90162165D01*
X110966850Y-90360350D01*
X110925000Y-90570743D01*
X106831213Y-90570743D01*
X106687835Y-90474941D01*
X106489650Y-90392850D01*
X106279257Y-90351000D01*
X106064743Y-90351000D01*
X105854350Y-90392850D01*
X105656165Y-90474941D01*
X105477803Y-90594119D01*
X105326119Y-90745803D01*
X105206941Y-90924165D01*
X105124850Y-91122350D01*
X105083000Y-91332743D01*
X101804540Y-91332743D01*
X101804540Y-80537743D01*
X119688000Y-80537743D01*
X119688000Y-80752257D01*
X119729850Y-80962650D01*
X119811941Y-81160835D01*
X119931119Y-81339197D01*
X120082803Y-81490881D01*
X120261165Y-81610059D01*
X120459350Y-81692150D01*
X120669743Y-81734000D01*
X120884257Y-81734000D01*
X121094650Y-81692150D01*
X121292835Y-81610059D01*
X121471197Y-81490881D01*
X121622881Y-81339197D01*
X121742059Y-81160835D01*
X121824150Y-80962650D01*
X121866000Y-80752257D01*
X121866000Y-80537743D01*
X121824150Y-80327350D01*
X121742059Y-80129165D01*
X121622881Y-79950803D01*
X121471197Y-79799119D01*
X121292835Y-79679941D01*
X121094650Y-79597850D01*
X120884257Y-79556000D01*
X120669743Y-79556000D01*
X120459350Y-79597850D01*
X120261165Y-79679941D01*
X120082803Y-79799119D01*
X119931119Y-79950803D01*
X119811941Y-80129165D01*
X119729850Y-80327350D01*
X119688000Y-80537743D01*
X101804540Y-80537743D01*
X101804540Y-78886743D01*
X114989000Y-78886743D01*
X114989000Y-79101257D01*
X115030850Y-79311650D01*
X115112941Y-79509835D01*
X115232119Y-79688197D01*
X115383803Y-79839881D01*
X115562165Y-79959059D01*
X115760350Y-80041150D01*
X115970743Y-80083000D01*
X116185257Y-80083000D01*
X116395650Y-80041150D01*
X116593835Y-79959059D01*
X116772197Y-79839881D01*
X116923881Y-79688197D01*
X117041946Y-79511500D01*
X121451645Y-79511500D01*
X122269459Y-80329314D01*
X122228000Y-80537743D01*
X122228000Y-80752257D01*
X122269850Y-80962650D01*
X122351941Y-81160835D01*
X122471119Y-81339197D01*
X122622803Y-81490881D01*
X122801165Y-81610059D01*
X122999350Y-81692150D01*
X123209743Y-81734000D01*
X123424257Y-81734000D01*
X123634650Y-81692150D01*
X123832835Y-81610059D01*
X124011197Y-81490881D01*
X124162881Y-81339197D01*
X124282059Y-81160835D01*
X124364150Y-80962650D01*
X124406000Y-80752257D01*
X124406000Y-80537743D01*
X124768000Y-80537743D01*
X124768000Y-80752257D01*
X124809850Y-80962650D01*
X124891941Y-81160835D01*
X125011119Y-81339197D01*
X125162803Y-81490881D01*
X125341165Y-81610059D01*
X125539350Y-81692150D01*
X125749743Y-81734000D01*
X125964257Y-81734000D01*
X126174650Y-81692150D01*
X126372835Y-81610059D01*
X126551197Y-81490881D01*
X126702881Y-81339197D01*
X126822059Y-81160835D01*
X126904150Y-80962650D01*
X126946000Y-80752257D01*
X126946000Y-80537743D01*
X127308000Y-80537743D01*
X127308000Y-80752257D01*
X127349850Y-80962650D01*
X127431941Y-81160835D01*
X127551119Y-81339197D01*
X127702803Y-81490881D01*
X127881165Y-81610059D01*
X128079350Y-81692150D01*
X128289743Y-81734000D01*
X128504257Y-81734000D01*
X128714650Y-81692150D01*
X128912835Y-81610059D01*
X129091197Y-81490881D01*
X129242881Y-81339197D01*
X129362059Y-81160835D01*
X129444150Y-80962650D01*
X129486000Y-80752257D01*
X129486000Y-80537743D01*
X129444150Y-80327350D01*
X129362059Y-80129165D01*
X129333683Y-80086696D01*
X159235800Y-80086696D01*
X159235800Y-80441304D01*
X159304981Y-80789099D01*
X159440684Y-81116714D01*
X159637694Y-81411560D01*
X159888440Y-81662306D01*
X160183286Y-81859316D01*
X160510901Y-81995019D01*
X160858696Y-82064200D01*
X161213304Y-82064200D01*
X161561099Y-81995019D01*
X161888714Y-81859316D01*
X162183560Y-81662306D01*
X162434306Y-81411560D01*
X162631316Y-81116714D01*
X162767019Y-80789099D01*
X162836200Y-80441304D01*
X162836200Y-80086696D01*
X162767019Y-79738901D01*
X162631316Y-79411286D01*
X162434306Y-79116440D01*
X162183560Y-78865694D01*
X161888714Y-78668684D01*
X161561099Y-78532981D01*
X161213304Y-78463800D01*
X160858696Y-78463800D01*
X160510901Y-78532981D01*
X160183286Y-78668684D01*
X159888440Y-78865694D01*
X159637694Y-79116440D01*
X159440684Y-79411286D01*
X159304981Y-79738901D01*
X159235800Y-80086696D01*
X129333683Y-80086696D01*
X129242881Y-79950803D01*
X129091197Y-79799119D01*
X128912835Y-79679941D01*
X128714650Y-79597850D01*
X128504257Y-79556000D01*
X128289743Y-79556000D01*
X128079350Y-79597850D01*
X127881165Y-79679941D01*
X127702803Y-79799119D01*
X127551119Y-79950803D01*
X127431941Y-80129165D01*
X127349850Y-80327350D01*
X127308000Y-80537743D01*
X126946000Y-80537743D01*
X126904541Y-80329314D01*
X127722355Y-79511500D01*
X132132054Y-79511500D01*
X132250119Y-79688197D01*
X132401803Y-79839881D01*
X132580165Y-79959059D01*
X132778350Y-80041150D01*
X132988743Y-80083000D01*
X133203257Y-80083000D01*
X133413650Y-80041150D01*
X133611835Y-79959059D01*
X133790197Y-79839881D01*
X133941881Y-79688197D01*
X134061059Y-79509835D01*
X134143150Y-79311650D01*
X134185000Y-79101257D01*
X134185000Y-78886743D01*
X134143150Y-78676350D01*
X134061059Y-78478165D01*
X133941881Y-78299803D01*
X133790197Y-78148119D01*
X133611835Y-78028941D01*
X133413650Y-77946850D01*
X133203257Y-77905000D01*
X132988743Y-77905000D01*
X132778350Y-77946850D01*
X132580165Y-78028941D01*
X132401803Y-78148119D01*
X132250119Y-78299803D01*
X132132054Y-78476500D01*
X127533413Y-78476500D01*
X127508000Y-78473997D01*
X127482587Y-78476500D01*
X127406552Y-78483989D01*
X127309003Y-78513580D01*
X127219102Y-78561633D01*
X127140302Y-78626302D01*
X127124097Y-78646048D01*
X126172686Y-79597459D01*
X125964257Y-79556000D01*
X125749743Y-79556000D01*
X125539350Y-79597850D01*
X125341165Y-79679941D01*
X125162803Y-79799119D01*
X125011119Y-79950803D01*
X124891941Y-80129165D01*
X124809850Y-80327350D01*
X124768000Y-80537743D01*
X124406000Y-80537743D01*
X124364150Y-80327350D01*
X124282059Y-80129165D01*
X124162881Y-79950803D01*
X124011197Y-79799119D01*
X123832835Y-79679941D01*
X123634650Y-79597850D01*
X123424257Y-79556000D01*
X123209743Y-79556000D01*
X123001314Y-79597459D01*
X122049903Y-78646048D01*
X122033698Y-78626302D01*
X121954898Y-78561633D01*
X121864997Y-78513580D01*
X121767448Y-78483989D01*
X121691413Y-78476500D01*
X121666000Y-78473997D01*
X121640587Y-78476500D01*
X117041946Y-78476500D01*
X116923881Y-78299803D01*
X116772197Y-78148119D01*
X116593835Y-78028941D01*
X116395650Y-77946850D01*
X116185257Y-77905000D01*
X115970743Y-77905000D01*
X115760350Y-77946850D01*
X115562165Y-78028941D01*
X115383803Y-78148119D01*
X115232119Y-78299803D01*
X115112941Y-78478165D01*
X115030850Y-78676350D01*
X114989000Y-78886743D01*
X101804540Y-78886743D01*
X101804540Y-78750006D01*
X101849981Y-78286562D01*
X101981666Y-77850400D01*
X102195564Y-77448117D01*
X102483519Y-77095048D01*
X102834576Y-76804629D01*
X103235350Y-76587931D01*
X103670584Y-76453203D01*
X104133338Y-76404565D01*
X104140429Y-76404540D01*
X162549994Y-76404540D01*
X163013438Y-76449981D01*
X163013438Y-76449981D01*
G37*
X163013438Y-76449981D02*
X163449600Y-76581666D01*
X163851883Y-76795564D01*
X164204952Y-77083519D01*
X164495371Y-77434576D01*
X164712069Y-77835350D01*
X164846797Y-78270584D01*
X164895435Y-78733338D01*
X164895461Y-78740715D01*
X164895460Y-111749994D01*
X164850019Y-112213437D01*
X164718334Y-112649602D01*
X164504438Y-113051880D01*
X164216481Y-113404952D01*
X163865421Y-113695373D01*
X163464651Y-113912069D01*
X163029413Y-114046797D01*
X162566654Y-114095435D01*
X162559571Y-114095460D01*
X104150006Y-114095460D01*
X103686563Y-114050019D01*
X103250398Y-113918334D01*
X102848120Y-113704438D01*
X102495048Y-113416481D01*
X102204627Y-113065421D01*
X101987931Y-112664651D01*
X101853203Y-112229413D01*
X101804565Y-111766654D01*
X101804540Y-111759571D01*
X101804540Y-110058696D01*
X103863800Y-110058696D01*
X103863800Y-110413304D01*
X103932981Y-110761099D01*
X104068684Y-111088714D01*
X104265694Y-111383560D01*
X104516440Y-111634306D01*
X104811286Y-111831316D01*
X105138901Y-111967019D01*
X105486696Y-112036200D01*
X105841304Y-112036200D01*
X106189099Y-111967019D01*
X106516714Y-111831316D01*
X106811560Y-111634306D01*
X107062306Y-111383560D01*
X107259316Y-111088714D01*
X107395019Y-110761099D01*
X107464200Y-110413304D01*
X107464200Y-110058696D01*
X107395019Y-109710901D01*
X107259316Y-109383286D01*
X107078545Y-109112743D01*
X123371000Y-109112743D01*
X123371000Y-109327257D01*
X123412850Y-109537650D01*
X123494941Y-109735835D01*
X123614119Y-109914197D01*
X123765803Y-110065881D01*
X123944165Y-110185059D01*
X124142350Y-110267150D01*
X124352743Y-110309000D01*
X124567257Y-110309000D01*
X124777650Y-110267150D01*
X124975835Y-110185059D01*
X125154197Y-110065881D01*
X125305881Y-109914197D01*
X125425059Y-109735835D01*
X125507150Y-109537650D01*
X125549000Y-109327257D01*
X125549000Y-109112743D01*
X125507150Y-108902350D01*
X125425059Y-108704165D01*
X125305881Y-108525803D01*
X125154197Y-108374119D01*
X124975835Y-108254941D01*
X124777650Y-108172850D01*
X124567257Y-108131000D01*
X124352743Y-108131000D01*
X124142350Y-108172850D01*
X123944165Y-108254941D01*
X123765803Y-108374119D01*
X123614119Y-108525803D01*
X123494941Y-108704165D01*
X123412850Y-108902350D01*
X123371000Y-109112743D01*
X107078545Y-109112743D01*
X107062306Y-109088440D01*
X106811560Y-108837694D01*
X106516714Y-108640684D01*
X106189099Y-108504981D01*
X105841304Y-108435800D01*
X105486696Y-108435800D01*
X105138901Y-108504981D01*
X104811286Y-108640684D01*
X104516440Y-108837694D01*
X104265694Y-109088440D01*
X104068684Y-109383286D01*
X103932981Y-109710901D01*
X103863800Y-110058696D01*
X101804540Y-110058696D01*
X101804540Y-96412743D01*
X105083000Y-96412743D01*
X105083000Y-96627257D01*
X105124850Y-96837650D01*
X105206941Y-97035835D01*
X105326119Y-97214197D01*
X105477803Y-97365881D01*
X105656165Y-97485059D01*
X105854350Y-97567150D01*
X106064743Y-97609000D01*
X106279257Y-97609000D01*
X106489650Y-97567150D01*
X106687835Y-97485059D01*
X106866197Y-97365881D01*
X107017881Y-97214197D01*
X107137059Y-97035835D01*
X107219150Y-96837650D01*
X107261000Y-96627257D01*
X107261000Y-96412743D01*
X107219150Y-96202350D01*
X107201088Y-96158743D01*
X110925000Y-96158743D01*
X110925000Y-96373257D01*
X110966850Y-96583650D01*
X111048941Y-96781835D01*
X111168119Y-96960197D01*
X111319803Y-97111881D01*
X111498165Y-97231059D01*
X111696350Y-97313150D01*
X111906743Y-97355000D01*
X112121257Y-97355000D01*
X112331650Y-97313150D01*
X112529835Y-97231059D01*
X112708197Y-97111881D01*
X112859881Y-96960197D01*
X112979059Y-96781835D01*
X113061150Y-96583650D01*
X113103000Y-96373257D01*
X113103000Y-96158743D01*
X113061150Y-95948350D01*
X112979059Y-95750165D01*
X112859881Y-95571803D01*
X112708197Y-95420119D01*
X112529835Y-95300941D01*
X112331650Y-95218850D01*
X112121257Y-95177000D01*
X111906743Y-95177000D01*
X111696350Y-95218850D01*
X111498165Y-95300941D01*
X111319803Y-95420119D01*
X111168119Y-95571803D01*
X111048941Y-95750165D01*
X110966850Y-95948350D01*
X110925000Y-96158743D01*
X107201088Y-96158743D01*
X107137059Y-96004165D01*
X107017881Y-95825803D01*
X106866197Y-95674119D01*
X106687835Y-95554941D01*
X106489650Y-95472850D01*
X106279257Y-95431000D01*
X106064743Y-95431000D01*
X105854350Y-95472850D01*
X105656165Y-95554941D01*
X105477803Y-95674119D01*
X105326119Y-95825803D01*
X105206941Y-96004165D01*
X105124850Y-96202350D01*
X105083000Y-96412743D01*
X101804540Y-96412743D01*
X101804540Y-93872743D01*
X105083000Y-93872743D01*
X105083000Y-94087257D01*
X105124850Y-94297650D01*
X105206941Y-94495835D01*
X105326119Y-94674197D01*
X105477803Y-94825881D01*
X105656165Y-94945059D01*
X105854350Y-95027150D01*
X106064743Y-95069000D01*
X106279257Y-95069000D01*
X106489650Y-95027150D01*
X106687835Y-94945059D01*
X106866197Y-94825881D01*
X107017881Y-94674197D01*
X107137059Y-94495835D01*
X107219150Y-94297650D01*
X107261000Y-94087257D01*
X107261000Y-93872743D01*
X107219150Y-93662350D01*
X107137059Y-93464165D01*
X107017881Y-93285803D01*
X106866197Y-93134119D01*
X106687835Y-93014941D01*
X106489650Y-92932850D01*
X106279257Y-92891000D01*
X106064743Y-92891000D01*
X105854350Y-92932850D01*
X105656165Y-93014941D01*
X105477803Y-93134119D01*
X105326119Y-93285803D01*
X105206941Y-93464165D01*
X105124850Y-93662350D01*
X105083000Y-93872743D01*
X101804540Y-93872743D01*
X101804540Y-91332743D01*
X105083000Y-91332743D01*
X105083000Y-91547257D01*
X105124850Y-91757650D01*
X105206941Y-91955835D01*
X105326119Y-92134197D01*
X105477803Y-92285881D01*
X105656165Y-92405059D01*
X105854350Y-92487150D01*
X106064743Y-92529000D01*
X106279257Y-92529000D01*
X106489650Y-92487150D01*
X106687835Y-92405059D01*
X106866197Y-92285881D01*
X107017881Y-92134197D01*
X107020420Y-92130397D01*
X116113000Y-92130397D01*
X116113000Y-92273603D01*
X116140938Y-92414058D01*
X116195741Y-92546364D01*
X116275302Y-92665436D01*
X116322500Y-92712634D01*
X116322500Y-92793097D01*
X116322501Y-92793107D01*
X116322500Y-95182217D01*
X116319997Y-95207630D01*
X116322500Y-95233042D01*
X116329989Y-95309077D01*
X116359580Y-95406626D01*
X116407633Y-95496528D01*
X116472302Y-95575328D01*
X116492048Y-95591533D01*
X120458472Y-99557958D01*
X120474672Y-99577698D01*
X120553472Y-99642367D01*
X120643373Y-99690420D01*
X120740922Y-99720011D01*
X120800053Y-99725835D01*
X120842370Y-99730003D01*
X120867783Y-99727500D01*
X120956054Y-99727500D01*
X121074119Y-99904197D01*
X121225803Y-100055881D01*
X121404165Y-100175059D01*
X121602350Y-100257150D01*
X121812743Y-100299000D01*
X122027257Y-100299000D01*
X122237650Y-100257150D01*
X122435835Y-100175059D01*
X122614197Y-100055881D01*
X122672500Y-99997578D01*
X122672500Y-105384587D01*
X122669997Y-105410000D01*
X122672500Y-105435412D01*
X122679989Y-105511447D01*
X122709580Y-105608996D01*
X122757633Y-105698898D01*
X122822302Y-105777698D01*
X122842048Y-105793903D01*
X125952459Y-108904314D01*
X125911000Y-109112743D01*
X125911000Y-109327257D01*
X125952850Y-109537650D01*
X126034941Y-109735835D01*
X126154119Y-109914197D01*
X126305803Y-110065881D01*
X126484165Y-110185059D01*
X126682350Y-110267150D01*
X126892743Y-110309000D01*
X127107257Y-110309000D01*
X127317650Y-110267150D01*
X127515835Y-110185059D01*
X127694197Y-110065881D01*
X127845881Y-109914197D01*
X127965059Y-109735835D01*
X128047150Y-109537650D01*
X128089000Y-109327257D01*
X128089000Y-109112743D01*
X128451000Y-109112743D01*
X128451000Y-109327257D01*
X128492850Y-109537650D01*
X128574941Y-109735835D01*
X128694119Y-109914197D01*
X128845803Y-110065881D01*
X129024165Y-110185059D01*
X129222350Y-110267150D01*
X129432743Y-110309000D01*
X129647257Y-110309000D01*
X129857650Y-110267150D01*
X130055835Y-110185059D01*
X130234197Y-110065881D01*
X130385881Y-109914197D01*
X130505059Y-109735835D01*
X130587150Y-109537650D01*
X130629000Y-109327257D01*
X130629000Y-109112743D01*
X130991000Y-109112743D01*
X130991000Y-109327257D01*
X131032850Y-109537650D01*
X131114941Y-109735835D01*
X131234119Y-109914197D01*
X131385803Y-110065881D01*
X131564165Y-110185059D01*
X131762350Y-110267150D01*
X131972743Y-110309000D01*
X132187257Y-110309000D01*
X132397650Y-110267150D01*
X132595835Y-110185059D01*
X132774197Y-110065881D01*
X132925881Y-109914197D01*
X133045059Y-109735835D01*
X133127150Y-109537650D01*
X133169000Y-109327257D01*
X133169000Y-109112743D01*
X133531000Y-109112743D01*
X133531000Y-109327257D01*
X133572850Y-109537650D01*
X133654941Y-109735835D01*
X133774119Y-109914197D01*
X133925803Y-110065881D01*
X134104165Y-110185059D01*
X134302350Y-110267150D01*
X134512743Y-110309000D01*
X134727257Y-110309000D01*
X134937650Y-110267150D01*
X135135835Y-110185059D01*
X135314197Y-110065881D01*
X135465881Y-109914197D01*
X135585059Y-109735835D01*
X135667150Y-109537650D01*
X135709000Y-109327257D01*
X135709000Y-109112743D01*
X136071000Y-109112743D01*
X136071000Y-109327257D01*
X136112850Y-109537650D01*
X136194941Y-109735835D01*
X136314119Y-109914197D01*
X136465803Y-110065881D01*
X136644165Y-110185059D01*
X136842350Y-110267150D01*
X137052743Y-110309000D01*
X137267257Y-110309000D01*
X137477650Y-110267150D01*
X137675835Y-110185059D01*
X137854197Y-110065881D01*
X138005881Y-109914197D01*
X138125059Y-109735835D01*
X138207150Y-109537650D01*
X138249000Y-109327257D01*
X138249000Y-109112743D01*
X138611000Y-109112743D01*
X138611000Y-109327257D01*
X138652850Y-109537650D01*
X138734941Y-109735835D01*
X138854119Y-109914197D01*
X139005803Y-110065881D01*
X139184165Y-110185059D01*
X139382350Y-110267150D01*
X139592743Y-110309000D01*
X139807257Y-110309000D01*
X140017650Y-110267150D01*
X140215835Y-110185059D01*
X140394197Y-110065881D01*
X140545881Y-109914197D01*
X140665059Y-109735835D01*
X140747150Y-109537650D01*
X140789000Y-109327257D01*
X140789000Y-109112743D01*
X141151000Y-109112743D01*
X141151000Y-109327257D01*
X141192850Y-109537650D01*
X141274941Y-109735835D01*
X141394119Y-109914197D01*
X141545803Y-110065881D01*
X141724165Y-110185059D01*
X141922350Y-110267150D01*
X142132743Y-110309000D01*
X142347257Y-110309000D01*
X142557650Y-110267150D01*
X142755835Y-110185059D01*
X142934197Y-110065881D01*
X143085881Y-109914197D01*
X143205059Y-109735835D01*
X143287150Y-109537650D01*
X143329000Y-109327257D01*
X143329000Y-109112743D01*
X143691000Y-109112743D01*
X143691000Y-109327257D01*
X143732850Y-109537650D01*
X143814941Y-109735835D01*
X143934119Y-109914197D01*
X144085803Y-110065881D01*
X144264165Y-110185059D01*
X144462350Y-110267150D01*
X144672743Y-110309000D01*
X144887257Y-110309000D01*
X145097650Y-110267150D01*
X145295835Y-110185059D01*
X145474197Y-110065881D01*
X145625881Y-109914197D01*
X145745059Y-109735835D01*
X145827150Y-109537650D01*
X145869000Y-109327257D01*
X145869000Y-109112743D01*
X146231000Y-109112743D01*
X146231000Y-109327257D01*
X146272850Y-109537650D01*
X146354941Y-109735835D01*
X146474119Y-109914197D01*
X146625803Y-110065881D01*
X146804165Y-110185059D01*
X147002350Y-110267150D01*
X147212743Y-110309000D01*
X147427257Y-110309000D01*
X147637650Y-110267150D01*
X147835835Y-110185059D01*
X148014197Y-110065881D01*
X148021382Y-110058696D01*
X159235800Y-110058696D01*
X159235800Y-110413304D01*
X159304981Y-110761099D01*
X159440684Y-111088714D01*
X159637694Y-111383560D01*
X159888440Y-111634306D01*
X160183286Y-111831316D01*
X160510901Y-111967019D01*
X160858696Y-112036200D01*
X161213304Y-112036200D01*
X161561099Y-111967019D01*
X161888714Y-111831316D01*
X162183560Y-111634306D01*
X162434306Y-111383560D01*
X162631316Y-111088714D01*
X162767019Y-110761099D01*
X162836200Y-110413304D01*
X162836200Y-110058696D01*
X162767019Y-109710901D01*
X162631316Y-109383286D01*
X162434306Y-109088440D01*
X162183560Y-108837694D01*
X161888714Y-108640684D01*
X161561099Y-108504981D01*
X161213304Y-108435800D01*
X160858696Y-108435800D01*
X160510901Y-108504981D01*
X160183286Y-108640684D01*
X159888440Y-108837694D01*
X159637694Y-109088440D01*
X159440684Y-109383286D01*
X159304981Y-109710901D01*
X159235800Y-110058696D01*
X148021382Y-110058696D01*
X148165881Y-109914197D01*
X148285059Y-109735835D01*
X148367150Y-109537650D01*
X148409000Y-109327257D01*
X148409000Y-109112743D01*
X148367150Y-108902350D01*
X148285059Y-108704165D01*
X148165881Y-108525803D01*
X148014197Y-108374119D01*
X147835835Y-108254941D01*
X147637650Y-108172850D01*
X147427257Y-108131000D01*
X147212743Y-108131000D01*
X147002350Y-108172850D01*
X146804165Y-108254941D01*
X146625803Y-108374119D01*
X146474119Y-108525803D01*
X146354941Y-108704165D01*
X146272850Y-108902350D01*
X146231000Y-109112743D01*
X145869000Y-109112743D01*
X145827150Y-108902350D01*
X145745059Y-108704165D01*
X145625881Y-108525803D01*
X145474197Y-108374119D01*
X145295835Y-108254941D01*
X145097650Y-108172850D01*
X144887257Y-108131000D01*
X144672743Y-108131000D01*
X144462350Y-108172850D01*
X144264165Y-108254941D01*
X144085803Y-108374119D01*
X143934119Y-108525803D01*
X143814941Y-108704165D01*
X143732850Y-108902350D01*
X143691000Y-109112743D01*
X143329000Y-109112743D01*
X143287150Y-108902350D01*
X143205059Y-108704165D01*
X143085881Y-108525803D01*
X142934197Y-108374119D01*
X142755835Y-108254941D01*
X142557650Y-108172850D01*
X142347257Y-108131000D01*
X142132743Y-108131000D01*
X141922350Y-108172850D01*
X141724165Y-108254941D01*
X141545803Y-108374119D01*
X141394119Y-108525803D01*
X141274941Y-108704165D01*
X141192850Y-108902350D01*
X141151000Y-109112743D01*
X140789000Y-109112743D01*
X140747150Y-108902350D01*
X140665059Y-108704165D01*
X140545881Y-108525803D01*
X140394197Y-108374119D01*
X140215835Y-108254941D01*
X140017650Y-108172850D01*
X139807257Y-108131000D01*
X139592743Y-108131000D01*
X139382350Y-108172850D01*
X139184165Y-108254941D01*
X139005803Y-108374119D01*
X138854119Y-108525803D01*
X138734941Y-108704165D01*
X138652850Y-108902350D01*
X138611000Y-109112743D01*
X138249000Y-109112743D01*
X138207150Y-108902350D01*
X138125059Y-108704165D01*
X138005881Y-108525803D01*
X137854197Y-108374119D01*
X137675835Y-108254941D01*
X137477650Y-108172850D01*
X137267257Y-108131000D01*
X137052743Y-108131000D01*
X136842350Y-108172850D01*
X136644165Y-108254941D01*
X136465803Y-108374119D01*
X136314119Y-108525803D01*
X136194941Y-108704165D01*
X136112850Y-108902350D01*
X136071000Y-109112743D01*
X135709000Y-109112743D01*
X135667150Y-108902350D01*
X135585059Y-108704165D01*
X135465881Y-108525803D01*
X135314197Y-108374119D01*
X135135835Y-108254941D01*
X134937650Y-108172850D01*
X134727257Y-108131000D01*
X134512743Y-108131000D01*
X134302350Y-108172850D01*
X134104165Y-108254941D01*
X133925803Y-108374119D01*
X133774119Y-108525803D01*
X133654941Y-108704165D01*
X133572850Y-108902350D01*
X133531000Y-109112743D01*
X133169000Y-109112743D01*
X133127150Y-108902350D01*
X133045059Y-108704165D01*
X132925881Y-108525803D01*
X132774197Y-108374119D01*
X132595835Y-108254941D01*
X132397650Y-108172850D01*
X132187257Y-108131000D01*
X131972743Y-108131000D01*
X131762350Y-108172850D01*
X131564165Y-108254941D01*
X131385803Y-108374119D01*
X131234119Y-108525803D01*
X131114941Y-108704165D01*
X131032850Y-108902350D01*
X130991000Y-109112743D01*
X130629000Y-109112743D01*
X130587150Y-108902350D01*
X130505059Y-108704165D01*
X130385881Y-108525803D01*
X130234197Y-108374119D01*
X130055835Y-108254941D01*
X129857650Y-108172850D01*
X129647257Y-108131000D01*
X129432743Y-108131000D01*
X129222350Y-108172850D01*
X129024165Y-108254941D01*
X128845803Y-108374119D01*
X128694119Y-108525803D01*
X128574941Y-108704165D01*
X128492850Y-108902350D01*
X128451000Y-109112743D01*
X128089000Y-109112743D01*
X128047150Y-108902350D01*
X127965059Y-108704165D01*
X127845881Y-108525803D01*
X127694197Y-108374119D01*
X127515835Y-108254941D01*
X127317650Y-108172850D01*
X127107257Y-108131000D01*
X126892743Y-108131000D01*
X126684314Y-108172459D01*
X123707500Y-105195645D01*
X123707500Y-99997578D01*
X123765803Y-100055881D01*
X123944165Y-100175059D01*
X124142350Y-100257150D01*
X124352743Y-100299000D01*
X124567257Y-100299000D01*
X124777650Y-100257150D01*
X124975835Y-100175059D01*
X125154197Y-100055881D01*
X125305881Y-99904197D01*
X125425059Y-99725835D01*
X125507150Y-99527650D01*
X125549000Y-99317257D01*
X125549000Y-99102743D01*
X125911000Y-99102743D01*
X125911000Y-99317257D01*
X125952850Y-99527650D01*
X126034941Y-99725835D01*
X126154119Y-99904197D01*
X126305803Y-100055881D01*
X126484165Y-100175059D01*
X126682350Y-100257150D01*
X126892743Y-100299000D01*
X127107257Y-100299000D01*
X127317650Y-100257150D01*
X127515835Y-100175059D01*
X127694197Y-100055881D01*
X127845881Y-99904197D01*
X127965059Y-99725835D01*
X128047150Y-99527650D01*
X128089000Y-99317257D01*
X128089000Y-99102743D01*
X128451000Y-99102743D01*
X128451000Y-99317257D01*
X128492850Y-99527650D01*
X128574941Y-99725835D01*
X128694119Y-99904197D01*
X128845803Y-100055881D01*
X129024165Y-100175059D01*
X129222350Y-100257150D01*
X129432743Y-100299000D01*
X129647257Y-100299000D01*
X129857650Y-100257150D01*
X130055835Y-100175059D01*
X130234197Y-100055881D01*
X130385881Y-99904197D01*
X130505059Y-99725835D01*
X130587150Y-99527650D01*
X130629000Y-99317257D01*
X130629000Y-99102743D01*
X130991000Y-99102743D01*
X130991000Y-99317257D01*
X131032850Y-99527650D01*
X131114941Y-99725835D01*
X131234119Y-99904197D01*
X131385803Y-100055881D01*
X131564165Y-100175059D01*
X131762350Y-100257150D01*
X131972743Y-100299000D01*
X132187257Y-100299000D01*
X132397650Y-100257150D01*
X132595835Y-100175059D01*
X132774197Y-100055881D01*
X132925881Y-99904197D01*
X133045059Y-99725835D01*
X133127150Y-99527650D01*
X133169000Y-99317257D01*
X133169000Y-99102743D01*
X133531000Y-99102743D01*
X133531000Y-99317257D01*
X133572850Y-99527650D01*
X133654941Y-99725835D01*
X133774119Y-99904197D01*
X133925803Y-100055881D01*
X134104165Y-100175059D01*
X134302350Y-100257150D01*
X134512743Y-100299000D01*
X134727257Y-100299000D01*
X134937650Y-100257150D01*
X135135835Y-100175059D01*
X135314197Y-100055881D01*
X135465881Y-99904197D01*
X135585059Y-99725835D01*
X135667150Y-99527650D01*
X135709000Y-99317257D01*
X135709000Y-99102743D01*
X136071000Y-99102743D01*
X136071000Y-99317257D01*
X136112850Y-99527650D01*
X136194941Y-99725835D01*
X136314119Y-99904197D01*
X136465803Y-100055881D01*
X136644165Y-100175059D01*
X136842350Y-100257150D01*
X137052743Y-100299000D01*
X137267257Y-100299000D01*
X137477650Y-100257150D01*
X137675835Y-100175059D01*
X137854197Y-100055881D01*
X138005881Y-99904197D01*
X138125059Y-99725835D01*
X138207150Y-99527650D01*
X138249000Y-99317257D01*
X138249000Y-99102743D01*
X138611000Y-99102743D01*
X138611000Y-99317257D01*
X138652850Y-99527650D01*
X138734941Y-99725835D01*
X138854119Y-99904197D01*
X139005803Y-100055881D01*
X139184165Y-100175059D01*
X139382350Y-100257150D01*
X139592743Y-100299000D01*
X139807257Y-100299000D01*
X140017650Y-100257150D01*
X140215835Y-100175059D01*
X140394197Y-100055881D01*
X140545881Y-99904197D01*
X140665059Y-99725835D01*
X140747150Y-99527650D01*
X140789000Y-99317257D01*
X140789000Y-99102743D01*
X141151000Y-99102743D01*
X141151000Y-99317257D01*
X141192850Y-99527650D01*
X141274941Y-99725835D01*
X141394119Y-99904197D01*
X141545803Y-100055881D01*
X141724165Y-100175059D01*
X141922350Y-100257150D01*
X142132743Y-100299000D01*
X142347257Y-100299000D01*
X142557650Y-100257150D01*
X142755835Y-100175059D01*
X142934197Y-100055881D01*
X143085881Y-99904197D01*
X143205059Y-99725835D01*
X143287150Y-99527650D01*
X143329000Y-99317257D01*
X143329000Y-99102743D01*
X143691000Y-99102743D01*
X143691000Y-99317257D01*
X143732850Y-99527650D01*
X143814941Y-99725835D01*
X143934119Y-99904197D01*
X144085803Y-100055881D01*
X144264165Y-100175059D01*
X144462350Y-100257150D01*
X144672743Y-100299000D01*
X144887257Y-100299000D01*
X145097650Y-100257150D01*
X145295835Y-100175059D01*
X145474197Y-100055881D01*
X145625881Y-99904197D01*
X145745059Y-99725835D01*
X145827150Y-99527650D01*
X145869000Y-99317257D01*
X145869000Y-99102743D01*
X146231000Y-99102743D01*
X146231000Y-99317257D01*
X146272850Y-99527650D01*
X146354941Y-99725835D01*
X146474119Y-99904197D01*
X146625803Y-100055881D01*
X146804165Y-100175059D01*
X147002350Y-100257150D01*
X147212743Y-100299000D01*
X147427257Y-100299000D01*
X147637650Y-100257150D01*
X147835835Y-100175059D01*
X148014197Y-100055881D01*
X148165881Y-99904197D01*
X148285059Y-99725835D01*
X148367150Y-99527650D01*
X148409000Y-99317257D01*
X148409000Y-99102743D01*
X148771000Y-99102743D01*
X148771000Y-99317257D01*
X148812850Y-99527650D01*
X148894941Y-99725835D01*
X149014119Y-99904197D01*
X149165803Y-100055881D01*
X149344165Y-100175059D01*
X149542350Y-100257150D01*
X149752743Y-100299000D01*
X149967257Y-100299000D01*
X150177650Y-100257150D01*
X150375835Y-100175059D01*
X150554197Y-100055881D01*
X150705881Y-99904197D01*
X150825059Y-99725835D01*
X150907150Y-99527650D01*
X150949000Y-99317257D01*
X150949000Y-99102743D01*
X150907150Y-98892350D01*
X150825059Y-98694165D01*
X150705881Y-98515803D01*
X150554197Y-98364119D01*
X150375835Y-98244941D01*
X150177650Y-98162850D01*
X149967257Y-98121000D01*
X149752743Y-98121000D01*
X149542350Y-98162850D01*
X149344165Y-98244941D01*
X149165803Y-98364119D01*
X149014119Y-98515803D01*
X148894941Y-98694165D01*
X148812850Y-98892350D01*
X148771000Y-99102743D01*
X148409000Y-99102743D01*
X148367150Y-98892350D01*
X148285059Y-98694165D01*
X148165881Y-98515803D01*
X148014197Y-98364119D01*
X147835835Y-98244941D01*
X147637650Y-98162850D01*
X147427257Y-98121000D01*
X147212743Y-98121000D01*
X147002350Y-98162850D01*
X146804165Y-98244941D01*
X146625803Y-98364119D01*
X146474119Y-98515803D01*
X146354941Y-98694165D01*
X146272850Y-98892350D01*
X146231000Y-99102743D01*
X145869000Y-99102743D01*
X145827150Y-98892350D01*
X145745059Y-98694165D01*
X145625881Y-98515803D01*
X145474197Y-98364119D01*
X145295835Y-98244941D01*
X145097650Y-98162850D01*
X144887257Y-98121000D01*
X144672743Y-98121000D01*
X144462350Y-98162850D01*
X144264165Y-98244941D01*
X144085803Y-98364119D01*
X143934119Y-98515803D01*
X143814941Y-98694165D01*
X143732850Y-98892350D01*
X143691000Y-99102743D01*
X143329000Y-99102743D01*
X143287150Y-98892350D01*
X143205059Y-98694165D01*
X143085881Y-98515803D01*
X142934197Y-98364119D01*
X142755835Y-98244941D01*
X142557650Y-98162850D01*
X142347257Y-98121000D01*
X142132743Y-98121000D01*
X141922350Y-98162850D01*
X141724165Y-98244941D01*
X141545803Y-98364119D01*
X141394119Y-98515803D01*
X141274941Y-98694165D01*
X141192850Y-98892350D01*
X141151000Y-99102743D01*
X140789000Y-99102743D01*
X140747150Y-98892350D01*
X140665059Y-98694165D01*
X140545881Y-98515803D01*
X140394197Y-98364119D01*
X140215835Y-98244941D01*
X140017650Y-98162850D01*
X139807257Y-98121000D01*
X139592743Y-98121000D01*
X139382350Y-98162850D01*
X139184165Y-98244941D01*
X139005803Y-98364119D01*
X138854119Y-98515803D01*
X138734941Y-98694165D01*
X138652850Y-98892350D01*
X138611000Y-99102743D01*
X138249000Y-99102743D01*
X138207150Y-98892350D01*
X138125059Y-98694165D01*
X138005881Y-98515803D01*
X137854197Y-98364119D01*
X137675835Y-98244941D01*
X137477650Y-98162850D01*
X137267257Y-98121000D01*
X137052743Y-98121000D01*
X136842350Y-98162850D01*
X136644165Y-98244941D01*
X136465803Y-98364119D01*
X136314119Y-98515803D01*
X136194941Y-98694165D01*
X136112850Y-98892350D01*
X136071000Y-99102743D01*
X135709000Y-99102743D01*
X135667150Y-98892350D01*
X135585059Y-98694165D01*
X135465881Y-98515803D01*
X135314197Y-98364119D01*
X135135835Y-98244941D01*
X134937650Y-98162850D01*
X134727257Y-98121000D01*
X134512743Y-98121000D01*
X134302350Y-98162850D01*
X134104165Y-98244941D01*
X133925803Y-98364119D01*
X133774119Y-98515803D01*
X133654941Y-98694165D01*
X133572850Y-98892350D01*
X133531000Y-99102743D01*
X133169000Y-99102743D01*
X133127150Y-98892350D01*
X133045059Y-98694165D01*
X132925881Y-98515803D01*
X132774197Y-98364119D01*
X132595835Y-98244941D01*
X132397650Y-98162850D01*
X132187257Y-98121000D01*
X131972743Y-98121000D01*
X131762350Y-98162850D01*
X131564165Y-98244941D01*
X131385803Y-98364119D01*
X131234119Y-98515803D01*
X131114941Y-98694165D01*
X131032850Y-98892350D01*
X130991000Y-99102743D01*
X130629000Y-99102743D01*
X130587150Y-98892350D01*
X130505059Y-98694165D01*
X130385881Y-98515803D01*
X130234197Y-98364119D01*
X130055835Y-98244941D01*
X129857650Y-98162850D01*
X129647257Y-98121000D01*
X129432743Y-98121000D01*
X129222350Y-98162850D01*
X129024165Y-98244941D01*
X128845803Y-98364119D01*
X128694119Y-98515803D01*
X128574941Y-98694165D01*
X128492850Y-98892350D01*
X128451000Y-99102743D01*
X128089000Y-99102743D01*
X128047150Y-98892350D01*
X127965059Y-98694165D01*
X127845881Y-98515803D01*
X127694197Y-98364119D01*
X127515835Y-98244941D01*
X127317650Y-98162850D01*
X127107257Y-98121000D01*
X126892743Y-98121000D01*
X126682350Y-98162850D01*
X126484165Y-98244941D01*
X126305803Y-98364119D01*
X126154119Y-98515803D01*
X126034941Y-98694165D01*
X125952850Y-98892350D01*
X125911000Y-99102743D01*
X125549000Y-99102743D01*
X125507150Y-98892350D01*
X125425059Y-98694165D01*
X125305881Y-98515803D01*
X125154197Y-98364119D01*
X124975835Y-98244941D01*
X124777650Y-98162850D01*
X124567257Y-98121000D01*
X124352743Y-98121000D01*
X124142350Y-98162850D01*
X123944165Y-98244941D01*
X123765803Y-98364119D01*
X123707500Y-98422422D01*
X123707500Y-95396743D01*
X149533000Y-95396743D01*
X149533000Y-95611257D01*
X149574850Y-95821650D01*
X149656941Y-96019835D01*
X149776119Y-96198197D01*
X149927803Y-96349881D01*
X150106165Y-96469059D01*
X150304350Y-96551150D01*
X150514743Y-96593000D01*
X150729257Y-96593000D01*
X150939650Y-96551150D01*
X151137835Y-96469059D01*
X151316197Y-96349881D01*
X151467881Y-96198197D01*
X151587059Y-96019835D01*
X151669150Y-95821650D01*
X151711000Y-95611257D01*
X151711000Y-95396743D01*
X151669150Y-95186350D01*
X151587059Y-94988165D01*
X151467881Y-94809803D01*
X151316197Y-94658119D01*
X151137835Y-94538941D01*
X150939650Y-94456850D01*
X150729257Y-94415000D01*
X150514743Y-94415000D01*
X150304350Y-94456850D01*
X150106165Y-94538941D01*
X149927803Y-94658119D01*
X149776119Y-94809803D01*
X149656941Y-94988165D01*
X149574850Y-95186350D01*
X149533000Y-95396743D01*
X123707500Y-95396743D01*
X123707500Y-88417412D01*
X123710003Y-88391999D01*
X123700011Y-88290551D01*
X123670420Y-88193003D01*
X123622367Y-88103102D01*
X123557698Y-88024302D01*
X123537958Y-88008102D01*
X120405500Y-84875645D01*
X120405500Y-84728743D01*
X135563000Y-84728743D01*
X135563000Y-84943257D01*
X135604850Y-85153650D01*
X135686941Y-85351835D01*
X135806119Y-85530197D01*
X135957803Y-85681881D01*
X136136165Y-85801059D01*
X136334350Y-85883150D01*
X136544743Y-85925000D01*
X136759257Y-85925000D01*
X136969650Y-85883150D01*
X137167835Y-85801059D01*
X137346197Y-85681881D01*
X137497881Y-85530197D01*
X137617059Y-85351835D01*
X137699150Y-85153650D01*
X137741000Y-84943257D01*
X137741000Y-84728743D01*
X137699150Y-84518350D01*
X137617059Y-84320165D01*
X137497881Y-84141803D01*
X137346197Y-83990119D01*
X137167835Y-83870941D01*
X136969650Y-83788850D01*
X136759257Y-83747000D01*
X136544743Y-83747000D01*
X136334350Y-83788850D01*
X136136165Y-83870941D01*
X135957803Y-83990119D01*
X135806119Y-84141803D01*
X135686941Y-84320165D01*
X135604850Y-84518350D01*
X135563000Y-84728743D01*
X120405500Y-84728743D01*
X120405500Y-84584634D01*
X120452698Y-84537436D01*
X120532259Y-84418364D01*
X120587062Y-84286058D01*
X120615000Y-84145603D01*
X120615000Y-84002397D01*
X120587062Y-83861942D01*
X120532259Y-83729636D01*
X120452698Y-83610564D01*
X120351436Y-83509302D01*
X120232364Y-83429741D01*
X120100058Y-83374938D01*
X119959603Y-83347000D01*
X119816397Y-83347000D01*
X119675942Y-83374938D01*
X119543636Y-83429741D01*
X119424564Y-83509302D01*
X119323302Y-83610564D01*
X119243741Y-83729636D01*
X119188938Y-83861942D01*
X119161000Y-84002397D01*
X119161000Y-84145603D01*
X119188938Y-84286058D01*
X119243741Y-84418364D01*
X119323302Y-84537436D01*
X119370500Y-84584634D01*
X119370500Y-85064587D01*
X119367997Y-85090000D01*
X119370500Y-85115412D01*
X119377989Y-85191447D01*
X119407580Y-85288996D01*
X119455633Y-85378898D01*
X119520302Y-85457698D01*
X119540048Y-85473903D01*
X122672501Y-88606357D01*
X122672500Y-98422422D01*
X122614197Y-98364119D01*
X122435835Y-98244941D01*
X122237650Y-98162850D01*
X122027257Y-98121000D01*
X121812743Y-98121000D01*
X121602350Y-98162850D01*
X121404165Y-98244941D01*
X121225803Y-98364119D01*
X121074119Y-98515803D01*
X120996377Y-98632151D01*
X117357500Y-94993275D01*
X117357500Y-92712634D01*
X117404698Y-92665436D01*
X117484259Y-92546364D01*
X117539062Y-92414058D01*
X117567000Y-92273603D01*
X117567000Y-92130397D01*
X117539062Y-91989942D01*
X117484259Y-91857636D01*
X117404698Y-91738564D01*
X117303436Y-91637302D01*
X117184364Y-91557741D01*
X117052058Y-91502938D01*
X116911603Y-91475000D01*
X116768397Y-91475000D01*
X116627942Y-91502938D01*
X116495636Y-91557741D01*
X116376564Y-91637302D01*
X116275302Y-91738564D01*
X116195741Y-91857636D01*
X116140938Y-91989942D01*
X116113000Y-92130397D01*
X107020420Y-92130397D01*
X107137059Y-91955835D01*
X107219150Y-91757650D01*
X107261000Y-91547257D01*
X107261000Y-91332743D01*
X107219150Y-91122350D01*
X107137059Y-90924165D01*
X107017881Y-90745803D01*
X106866197Y-90594119D01*
X106831213Y-90570743D01*
X110925000Y-90570743D01*
X110925000Y-90785257D01*
X110966850Y-90995650D01*
X111048941Y-91193835D01*
X111168119Y-91372197D01*
X111319803Y-91523881D01*
X111498165Y-91643059D01*
X111696350Y-91725150D01*
X111906743Y-91767000D01*
X112121257Y-91767000D01*
X112331650Y-91725150D01*
X112529835Y-91643059D01*
X112708197Y-91523881D01*
X112859881Y-91372197D01*
X112979059Y-91193835D01*
X113061150Y-90995650D01*
X113103000Y-90785257D01*
X113103000Y-90570743D01*
X113061150Y-90360350D01*
X112979059Y-90162165D01*
X112859881Y-89983803D01*
X112708197Y-89832119D01*
X112529835Y-89712941D01*
X112331650Y-89630850D01*
X112121257Y-89589000D01*
X111906743Y-89589000D01*
X111696350Y-89630850D01*
X111498165Y-89712941D01*
X111319803Y-89832119D01*
X111168119Y-89983803D01*
X111048941Y-90162165D01*
X110966850Y-90360350D01*
X110925000Y-90570743D01*
X106831213Y-90570743D01*
X106687835Y-90474941D01*
X106489650Y-90392850D01*
X106279257Y-90351000D01*
X106064743Y-90351000D01*
X105854350Y-90392850D01*
X105656165Y-90474941D01*
X105477803Y-90594119D01*
X105326119Y-90745803D01*
X105206941Y-90924165D01*
X105124850Y-91122350D01*
X105083000Y-91332743D01*
X101804540Y-91332743D01*
X101804540Y-80537743D01*
X119688000Y-80537743D01*
X119688000Y-80752257D01*
X119729850Y-80962650D01*
X119811941Y-81160835D01*
X119931119Y-81339197D01*
X120082803Y-81490881D01*
X120261165Y-81610059D01*
X120459350Y-81692150D01*
X120669743Y-81734000D01*
X120884257Y-81734000D01*
X121094650Y-81692150D01*
X121292835Y-81610059D01*
X121471197Y-81490881D01*
X121622881Y-81339197D01*
X121742059Y-81160835D01*
X121824150Y-80962650D01*
X121866000Y-80752257D01*
X121866000Y-80537743D01*
X121824150Y-80327350D01*
X121742059Y-80129165D01*
X121622881Y-79950803D01*
X121471197Y-79799119D01*
X121292835Y-79679941D01*
X121094650Y-79597850D01*
X120884257Y-79556000D01*
X120669743Y-79556000D01*
X120459350Y-79597850D01*
X120261165Y-79679941D01*
X120082803Y-79799119D01*
X119931119Y-79950803D01*
X119811941Y-80129165D01*
X119729850Y-80327350D01*
X119688000Y-80537743D01*
X101804540Y-80537743D01*
X101804540Y-78886743D01*
X114989000Y-78886743D01*
X114989000Y-79101257D01*
X115030850Y-79311650D01*
X115112941Y-79509835D01*
X115232119Y-79688197D01*
X115383803Y-79839881D01*
X115562165Y-79959059D01*
X115760350Y-80041150D01*
X115970743Y-80083000D01*
X116185257Y-80083000D01*
X116395650Y-80041150D01*
X116593835Y-79959059D01*
X116772197Y-79839881D01*
X116923881Y-79688197D01*
X117041946Y-79511500D01*
X121451645Y-79511500D01*
X122269459Y-80329314D01*
X122228000Y-80537743D01*
X122228000Y-80752257D01*
X122269850Y-80962650D01*
X122351941Y-81160835D01*
X122471119Y-81339197D01*
X122622803Y-81490881D01*
X122801165Y-81610059D01*
X122999350Y-81692150D01*
X123209743Y-81734000D01*
X123424257Y-81734000D01*
X123634650Y-81692150D01*
X123832835Y-81610059D01*
X124011197Y-81490881D01*
X124162881Y-81339197D01*
X124282059Y-81160835D01*
X124364150Y-80962650D01*
X124406000Y-80752257D01*
X124406000Y-80537743D01*
X124768000Y-80537743D01*
X124768000Y-80752257D01*
X124809850Y-80962650D01*
X124891941Y-81160835D01*
X125011119Y-81339197D01*
X125162803Y-81490881D01*
X125341165Y-81610059D01*
X125539350Y-81692150D01*
X125749743Y-81734000D01*
X125964257Y-81734000D01*
X126174650Y-81692150D01*
X126372835Y-81610059D01*
X126551197Y-81490881D01*
X126702881Y-81339197D01*
X126822059Y-81160835D01*
X126904150Y-80962650D01*
X126946000Y-80752257D01*
X126946000Y-80537743D01*
X127308000Y-80537743D01*
X127308000Y-80752257D01*
X127349850Y-80962650D01*
X127431941Y-81160835D01*
X127551119Y-81339197D01*
X127702803Y-81490881D01*
X127881165Y-81610059D01*
X128079350Y-81692150D01*
X128289743Y-81734000D01*
X128504257Y-81734000D01*
X128714650Y-81692150D01*
X128912835Y-81610059D01*
X129091197Y-81490881D01*
X129242881Y-81339197D01*
X129362059Y-81160835D01*
X129444150Y-80962650D01*
X129486000Y-80752257D01*
X129486000Y-80537743D01*
X129444150Y-80327350D01*
X129362059Y-80129165D01*
X129333683Y-80086696D01*
X159235800Y-80086696D01*
X159235800Y-80441304D01*
X159304981Y-80789099D01*
X159440684Y-81116714D01*
X159637694Y-81411560D01*
X159888440Y-81662306D01*
X160183286Y-81859316D01*
X160510901Y-81995019D01*
X160858696Y-82064200D01*
X161213304Y-82064200D01*
X161561099Y-81995019D01*
X161888714Y-81859316D01*
X162183560Y-81662306D01*
X162434306Y-81411560D01*
X162631316Y-81116714D01*
X162767019Y-80789099D01*
X162836200Y-80441304D01*
X162836200Y-80086696D01*
X162767019Y-79738901D01*
X162631316Y-79411286D01*
X162434306Y-79116440D01*
X162183560Y-78865694D01*
X161888714Y-78668684D01*
X161561099Y-78532981D01*
X161213304Y-78463800D01*
X160858696Y-78463800D01*
X160510901Y-78532981D01*
X160183286Y-78668684D01*
X159888440Y-78865694D01*
X159637694Y-79116440D01*
X159440684Y-79411286D01*
X159304981Y-79738901D01*
X159235800Y-80086696D01*
X129333683Y-80086696D01*
X129242881Y-79950803D01*
X129091197Y-79799119D01*
X128912835Y-79679941D01*
X128714650Y-79597850D01*
X128504257Y-79556000D01*
X128289743Y-79556000D01*
X128079350Y-79597850D01*
X127881165Y-79679941D01*
X127702803Y-79799119D01*
X127551119Y-79950803D01*
X127431941Y-80129165D01*
X127349850Y-80327350D01*
X127308000Y-80537743D01*
X126946000Y-80537743D01*
X126904541Y-80329314D01*
X127722355Y-79511500D01*
X132132054Y-79511500D01*
X132250119Y-79688197D01*
X132401803Y-79839881D01*
X132580165Y-79959059D01*
X132778350Y-80041150D01*
X132988743Y-80083000D01*
X133203257Y-80083000D01*
X133413650Y-80041150D01*
X133611835Y-79959059D01*
X133790197Y-79839881D01*
X133941881Y-79688197D01*
X134061059Y-79509835D01*
X134143150Y-79311650D01*
X134185000Y-79101257D01*
X134185000Y-78886743D01*
X134143150Y-78676350D01*
X134061059Y-78478165D01*
X133941881Y-78299803D01*
X133790197Y-78148119D01*
X133611835Y-78028941D01*
X133413650Y-77946850D01*
X133203257Y-77905000D01*
X132988743Y-77905000D01*
X132778350Y-77946850D01*
X132580165Y-78028941D01*
X132401803Y-78148119D01*
X132250119Y-78299803D01*
X132132054Y-78476500D01*
X127533413Y-78476500D01*
X127508000Y-78473997D01*
X127482587Y-78476500D01*
X127406552Y-78483989D01*
X127309003Y-78513580D01*
X127219102Y-78561633D01*
X127140302Y-78626302D01*
X127124097Y-78646048D01*
X126172686Y-79597459D01*
X125964257Y-79556000D01*
X125749743Y-79556000D01*
X125539350Y-79597850D01*
X125341165Y-79679941D01*
X125162803Y-79799119D01*
X125011119Y-79950803D01*
X124891941Y-80129165D01*
X124809850Y-80327350D01*
X124768000Y-80537743D01*
X124406000Y-80537743D01*
X124364150Y-80327350D01*
X124282059Y-80129165D01*
X124162881Y-79950803D01*
X124011197Y-79799119D01*
X123832835Y-79679941D01*
X123634650Y-79597850D01*
X123424257Y-79556000D01*
X123209743Y-79556000D01*
X123001314Y-79597459D01*
X122049903Y-78646048D01*
X122033698Y-78626302D01*
X121954898Y-78561633D01*
X121864997Y-78513580D01*
X121767448Y-78483989D01*
X121691413Y-78476500D01*
X121666000Y-78473997D01*
X121640587Y-78476500D01*
X117041946Y-78476500D01*
X116923881Y-78299803D01*
X116772197Y-78148119D01*
X116593835Y-78028941D01*
X116395650Y-77946850D01*
X116185257Y-77905000D01*
X115970743Y-77905000D01*
X115760350Y-77946850D01*
X115562165Y-78028941D01*
X115383803Y-78148119D01*
X115232119Y-78299803D01*
X115112941Y-78478165D01*
X115030850Y-78676350D01*
X114989000Y-78886743D01*
X101804540Y-78886743D01*
X101804540Y-78750006D01*
X101849981Y-78286562D01*
X101981666Y-77850400D01*
X102195564Y-77448117D01*
X102483519Y-77095048D01*
X102834576Y-76804629D01*
X103235350Y-76587931D01*
X103670584Y-76453203D01*
X104133338Y-76404565D01*
X104140429Y-76404540D01*
X162549994Y-76404540D01*
X163013438Y-76449981D01*
M02*
