G04 #@! TF.GenerationSoftware,KiCad,Pcbnew,(5.0.2)-1*
G04 #@! TF.CreationDate,2019-03-16T10:13:35-05:00*
G04 #@! TF.ProjectId,CCDBoard_Hardware,43434442-6f61-4726-945f-486172647761,rev?*
G04 #@! TF.SameCoordinates,Original*
G04 #@! TF.FileFunction,Legend,Bot*
G04 #@! TF.FilePolarity,Positive*
%FSLAX46Y46*%
G04 Gerber Fmt 4.6, Leading zero omitted, Abs format (unit mm)*
G04 Created by KiCad (PCBNEW (5.0.2)-1) date 3/16/2019 10:13:35 AM*
%MOMM*%
%LPD*%
G01*
G04 APERTURE LIST*
%ADD10C,0.200000*%
%ADD11C,0.300000*%
%ADD12C,0.150000*%
G04 APERTURE END LIST*
D10*
X7173631Y10922000D02*
G75*
G03X7173631Y10922000I-1077631J0D01*
G01*
D11*
X44818714Y10909285D02*
X44890142Y10837857D01*
X45104428Y10766428D01*
X45247285Y10766428D01*
X45461571Y10837857D01*
X45604428Y10980714D01*
X45675857Y11123571D01*
X45747285Y11409285D01*
X45747285Y11623571D01*
X45675857Y11909285D01*
X45604428Y12052142D01*
X45461571Y12195000D01*
X45247285Y12266428D01*
X45104428Y12266428D01*
X44890142Y12195000D01*
X44818714Y12123571D01*
X43318714Y10909285D02*
X43390142Y10837857D01*
X43604428Y10766428D01*
X43747285Y10766428D01*
X43961571Y10837857D01*
X44104428Y10980714D01*
X44175857Y11123571D01*
X44247285Y11409285D01*
X44247285Y11623571D01*
X44175857Y11909285D01*
X44104428Y12052142D01*
X43961571Y12195000D01*
X43747285Y12266428D01*
X43604428Y12266428D01*
X43390142Y12195000D01*
X43318714Y12123571D01*
X42675857Y10766428D02*
X42675857Y12266428D01*
X42318714Y12266428D01*
X42104428Y12195000D01*
X41961571Y12052142D01*
X41890142Y11909285D01*
X41818714Y11623571D01*
X41818714Y11409285D01*
X41890142Y11123571D01*
X41961571Y10980714D01*
X42104428Y10837857D01*
X42318714Y10766428D01*
X42675857Y10766428D01*
X40675857Y11552142D02*
X40461571Y11480714D01*
X40390142Y11409285D01*
X40318714Y11266428D01*
X40318714Y11052142D01*
X40390142Y10909285D01*
X40461571Y10837857D01*
X40604428Y10766428D01*
X41175857Y10766428D01*
X41175857Y12266428D01*
X40675857Y12266428D01*
X40533000Y12195000D01*
X40461571Y12123571D01*
X40390142Y11980714D01*
X40390142Y11837857D01*
X40461571Y11695000D01*
X40533000Y11623571D01*
X40675857Y11552142D01*
X41175857Y11552142D01*
X39461571Y10766428D02*
X39604428Y10837857D01*
X39675857Y10909285D01*
X39747285Y11052142D01*
X39747285Y11480714D01*
X39675857Y11623571D01*
X39604428Y11695000D01*
X39461571Y11766428D01*
X39247285Y11766428D01*
X39104428Y11695000D01*
X39033000Y11623571D01*
X38961571Y11480714D01*
X38961571Y11052142D01*
X39033000Y10909285D01*
X39104428Y10837857D01*
X39247285Y10766428D01*
X39461571Y10766428D01*
X37675857Y10766428D02*
X37675857Y11552142D01*
X37747285Y11695000D01*
X37890142Y11766428D01*
X38175857Y11766428D01*
X38318714Y11695000D01*
X37675857Y10837857D02*
X37818714Y10766428D01*
X38175857Y10766428D01*
X38318714Y10837857D01*
X38390142Y10980714D01*
X38390142Y11123571D01*
X38318714Y11266428D01*
X38175857Y11337857D01*
X37818714Y11337857D01*
X37675857Y11409285D01*
X36961571Y10766428D02*
X36961571Y11766428D01*
X36961571Y11480714D02*
X36890142Y11623571D01*
X36818714Y11695000D01*
X36675857Y11766428D01*
X36533000Y11766428D01*
X35390142Y10766428D02*
X35390142Y12266428D01*
X35390142Y10837857D02*
X35533000Y10766428D01*
X35818714Y10766428D01*
X35961571Y10837857D01*
X36033000Y10909285D01*
X36104428Y11052142D01*
X36104428Y11480714D01*
X36033000Y11623571D01*
X35961571Y11695000D01*
X35818714Y11766428D01*
X35533000Y11766428D01*
X35390142Y11695000D01*
X33532999Y10766428D02*
X33532999Y12266428D01*
X33532999Y11552142D02*
X32675857Y11552142D01*
X32675857Y10766428D02*
X32675857Y12266428D01*
X31318714Y10766428D02*
X31318714Y11552142D01*
X31390142Y11695000D01*
X31533000Y11766428D01*
X31818714Y11766428D01*
X31961571Y11695000D01*
X31318714Y10837857D02*
X31461571Y10766428D01*
X31818714Y10766428D01*
X31961571Y10837857D01*
X32032999Y10980714D01*
X32032999Y11123571D01*
X31961571Y11266428D01*
X31818714Y11337857D01*
X31461571Y11337857D01*
X31318714Y11409285D01*
X30604428Y10766428D02*
X30604428Y11766428D01*
X30604428Y11480714D02*
X30533000Y11623571D01*
X30461571Y11695000D01*
X30318714Y11766428D01*
X30175857Y11766428D01*
X29033000Y10766428D02*
X29033000Y12266428D01*
X29033000Y10837857D02*
X29175857Y10766428D01*
X29461571Y10766428D01*
X29604428Y10837857D01*
X29675857Y10909285D01*
X29747285Y11052142D01*
X29747285Y11480714D01*
X29675857Y11623571D01*
X29604428Y11695000D01*
X29461571Y11766428D01*
X29175857Y11766428D01*
X29033000Y11695000D01*
X28461571Y11766428D02*
X28175857Y10766428D01*
X27890142Y11480714D01*
X27604428Y10766428D01*
X27318714Y11766428D01*
X26104428Y10766428D02*
X26104428Y11552142D01*
X26175857Y11695000D01*
X26318714Y11766428D01*
X26604428Y11766428D01*
X26747285Y11695000D01*
X26104428Y10837857D02*
X26247285Y10766428D01*
X26604428Y10766428D01*
X26747285Y10837857D01*
X26818714Y10980714D01*
X26818714Y11123571D01*
X26747285Y11266428D01*
X26604428Y11337857D01*
X26247285Y11337857D01*
X26104428Y11409285D01*
X25390142Y10766428D02*
X25390142Y11766428D01*
X25390142Y11480714D02*
X25318714Y11623571D01*
X25247285Y11695000D01*
X25104428Y11766428D01*
X24961571Y11766428D01*
X23890142Y10837857D02*
X24033000Y10766428D01*
X24318714Y10766428D01*
X24461571Y10837857D01*
X24533000Y10980714D01*
X24533000Y11552142D01*
X24461571Y11695000D01*
X24318714Y11766428D01*
X24033000Y11766428D01*
X23890142Y11695000D01*
X23818714Y11552142D01*
X23818714Y11409285D01*
X24533000Y11266428D01*
X23104428Y10837857D02*
X23104428Y10766428D01*
X23175857Y10623571D01*
X23247285Y10552142D01*
X20461571Y10766428D02*
X20961571Y11480714D01*
X21318714Y10766428D02*
X21318714Y12266428D01*
X20747285Y12266428D01*
X20604428Y12195000D01*
X20533000Y12123571D01*
X20461571Y11980714D01*
X20461571Y11766428D01*
X20533000Y11623571D01*
X20604428Y11552142D01*
X20747285Y11480714D01*
X21318714Y11480714D01*
X19247285Y10837857D02*
X19390142Y10766428D01*
X19675857Y10766428D01*
X19818714Y10837857D01*
X19890142Y10980714D01*
X19890142Y11552142D01*
X19818714Y11695000D01*
X19675857Y11766428D01*
X19390142Y11766428D01*
X19247285Y11695000D01*
X19175857Y11552142D01*
X19175857Y11409285D01*
X19890142Y11266428D01*
X18675857Y11766428D02*
X18318714Y10766428D01*
X17961571Y11766428D01*
X15461571Y10766428D02*
X16318714Y10766428D01*
X15890142Y10766428D02*
X15890142Y12266428D01*
X16033000Y12052142D01*
X16175857Y11909285D01*
X16318714Y11837857D01*
X45675857Y8216428D02*
X45675857Y9716428D01*
X45175857Y8645000D01*
X44675857Y9716428D01*
X44675857Y8216428D01*
X43318714Y8216428D02*
X43318714Y9002142D01*
X43390142Y9145000D01*
X43533000Y9216428D01*
X43818714Y9216428D01*
X43961571Y9145000D01*
X43318714Y8287857D02*
X43461571Y8216428D01*
X43818714Y8216428D01*
X43961571Y8287857D01*
X44033000Y8430714D01*
X44033000Y8573571D01*
X43961571Y8716428D01*
X43818714Y8787857D01*
X43461571Y8787857D01*
X43318714Y8859285D01*
X42604428Y8216428D02*
X42604428Y9216428D01*
X42604428Y8930714D02*
X42533000Y9073571D01*
X42461571Y9145000D01*
X42318714Y9216428D01*
X42175857Y9216428D01*
X41747285Y8287857D02*
X41604428Y8216428D01*
X41318714Y8216428D01*
X41175857Y8287857D01*
X41104428Y8430714D01*
X41104428Y8502142D01*
X41175857Y8645000D01*
X41318714Y8716428D01*
X41533000Y8716428D01*
X41675857Y8787857D01*
X41747285Y8930714D01*
X41747285Y9002142D01*
X41675857Y9145000D01*
X41533000Y9216428D01*
X41318714Y9216428D01*
X41175857Y9145000D01*
X38461571Y8216428D02*
X38961571Y8930714D01*
X39318714Y8216428D02*
X39318714Y9716428D01*
X38747285Y9716428D01*
X38604428Y9645000D01*
X38533000Y9573571D01*
X38461571Y9430714D01*
X38461571Y9216428D01*
X38533000Y9073571D01*
X38604428Y9002142D01*
X38747285Y8930714D01*
X39318714Y8930714D01*
X37604428Y8216428D02*
X37747285Y8287857D01*
X37818714Y8359285D01*
X37890142Y8502142D01*
X37890142Y8930714D01*
X37818714Y9073571D01*
X37747285Y9145000D01*
X37604428Y9216428D01*
X37390142Y9216428D01*
X37247285Y9145000D01*
X37175857Y9073571D01*
X37104428Y8930714D01*
X37104428Y8502142D01*
X37175857Y8359285D01*
X37247285Y8287857D01*
X37390142Y8216428D01*
X37604428Y8216428D01*
X36604428Y9216428D02*
X36247285Y8216428D01*
X35890142Y9216428D01*
X34747285Y8287857D02*
X34890142Y8216428D01*
X35175857Y8216428D01*
X35318714Y8287857D01*
X35390142Y8430714D01*
X35390142Y9002142D01*
X35318714Y9145000D01*
X35175857Y9216428D01*
X34890142Y9216428D01*
X34747285Y9145000D01*
X34675857Y9002142D01*
X34675857Y8859285D01*
X35390142Y8716428D01*
X34033000Y8216428D02*
X34033000Y9216428D01*
X34033000Y8930714D02*
X33961571Y9073571D01*
X33890142Y9145000D01*
X33747285Y9216428D01*
X33604428Y9216428D01*
X31961571Y8216428D02*
X31961571Y9716428D01*
X31604428Y9716428D01*
X31390142Y9645000D01*
X31247285Y9502142D01*
X31175857Y9359285D01*
X31104428Y9073571D01*
X31104428Y8859285D01*
X31175857Y8573571D01*
X31247285Y8430714D01*
X31390142Y8287857D01*
X31604428Y8216428D01*
X31961571Y8216428D01*
X29890142Y8287857D02*
X30033000Y8216428D01*
X30318714Y8216428D01*
X30461571Y8287857D01*
X30533000Y8430714D01*
X30533000Y9002142D01*
X30461571Y9145000D01*
X30318714Y9216428D01*
X30033000Y9216428D01*
X29890142Y9145000D01*
X29818714Y9002142D01*
X29818714Y8859285D01*
X30533000Y8716428D01*
X29247285Y8287857D02*
X29104428Y8216428D01*
X28818714Y8216428D01*
X28675857Y8287857D01*
X28604428Y8430714D01*
X28604428Y8502142D01*
X28675857Y8645000D01*
X28818714Y8716428D01*
X29033000Y8716428D01*
X29175857Y8787857D01*
X29247285Y8930714D01*
X29247285Y9002142D01*
X29175857Y9145000D01*
X29033000Y9216428D01*
X28818714Y9216428D01*
X28675857Y9145000D01*
X27961571Y8216428D02*
X27961571Y9216428D01*
X27961571Y9716428D02*
X28033000Y9645000D01*
X27961571Y9573571D01*
X27890142Y9645000D01*
X27961571Y9716428D01*
X27961571Y9573571D01*
X26604428Y9216428D02*
X26604428Y8002142D01*
X26675857Y7859285D01*
X26747285Y7787857D01*
X26890142Y7716428D01*
X27104428Y7716428D01*
X27247285Y7787857D01*
X26604428Y8287857D02*
X26747285Y8216428D01*
X27033000Y8216428D01*
X27175857Y8287857D01*
X27247285Y8359285D01*
X27318714Y8502142D01*
X27318714Y8930714D01*
X27247285Y9073571D01*
X27175857Y9145000D01*
X27033000Y9216428D01*
X26747285Y9216428D01*
X26604428Y9145000D01*
X25890142Y9216428D02*
X25890142Y8216428D01*
X25890142Y9073571D02*
X25818714Y9145000D01*
X25675857Y9216428D01*
X25461571Y9216428D01*
X25318714Y9145000D01*
X25247285Y9002142D01*
X25247285Y8216428D01*
X23604428Y9716428D02*
X22747285Y9716428D01*
X23175857Y8216428D02*
X23175857Y9716428D01*
X21675857Y8287857D02*
X21818714Y8216428D01*
X22104428Y8216428D01*
X22247285Y8287857D01*
X22318714Y8430714D01*
X22318714Y9002142D01*
X22247285Y9145000D01*
X22104428Y9216428D01*
X21818714Y9216428D01*
X21675857Y9145000D01*
X21604428Y9002142D01*
X21604428Y8859285D01*
X22318714Y8716428D01*
X20318714Y8216428D02*
X20318714Y9002142D01*
X20390142Y9145000D01*
X20533000Y9216428D01*
X20818714Y9216428D01*
X20961571Y9145000D01*
X20318714Y8287857D02*
X20461571Y8216428D01*
X20818714Y8216428D01*
X20961571Y8287857D01*
X21033000Y8430714D01*
X21033000Y8573571D01*
X20961571Y8716428D01*
X20818714Y8787857D01*
X20461571Y8787857D01*
X20318714Y8859285D01*
X19604428Y8216428D02*
X19604428Y9216428D01*
X19604428Y9073571D02*
X19533000Y9145000D01*
X19390142Y9216428D01*
X19175857Y9216428D01*
X19033000Y9145000D01*
X18961571Y9002142D01*
X18961571Y8216428D01*
X18961571Y9002142D02*
X18890142Y9145000D01*
X18747285Y9216428D01*
X18533000Y9216428D01*
X18390142Y9145000D01*
X18318714Y9002142D01*
X18318714Y8216428D01*
X45675857Y5666428D02*
X45675857Y7166428D01*
X45175857Y6095000D01*
X44675857Y7166428D01*
X44675857Y5666428D01*
X43961571Y5666428D02*
X43961571Y6666428D01*
X43961571Y7166428D02*
X44033000Y7095000D01*
X43961571Y7023571D01*
X43890142Y7095000D01*
X43961571Y7166428D01*
X43961571Y7023571D01*
X43318714Y5737857D02*
X43175857Y5666428D01*
X42890142Y5666428D01*
X42747285Y5737857D01*
X42675857Y5880714D01*
X42675857Y5952142D01*
X42747285Y6095000D01*
X42890142Y6166428D01*
X43104428Y6166428D01*
X43247285Y6237857D01*
X43318714Y6380714D01*
X43318714Y6452142D01*
X43247285Y6595000D01*
X43104428Y6666428D01*
X42890142Y6666428D01*
X42747285Y6595000D01*
X42104428Y5737857D02*
X41961571Y5666428D01*
X41675857Y5666428D01*
X41533000Y5737857D01*
X41461571Y5880714D01*
X41461571Y5952142D01*
X41533000Y6095000D01*
X41675857Y6166428D01*
X41890142Y6166428D01*
X42033000Y6237857D01*
X42104428Y6380714D01*
X42104428Y6452142D01*
X42033000Y6595000D01*
X41890142Y6666428D01*
X41675857Y6666428D01*
X41533000Y6595000D01*
X40604428Y5666428D02*
X40747285Y5737857D01*
X40818714Y5809285D01*
X40890142Y5952142D01*
X40890142Y6380714D01*
X40818714Y6523571D01*
X40747285Y6595000D01*
X40604428Y6666428D01*
X40390142Y6666428D01*
X40247285Y6595000D01*
X40175857Y6523571D01*
X40104428Y6380714D01*
X40104428Y5952142D01*
X40175857Y5809285D01*
X40247285Y5737857D01*
X40390142Y5666428D01*
X40604428Y5666428D01*
X38818714Y6666428D02*
X38818714Y5666428D01*
X39461571Y6666428D02*
X39461571Y5880714D01*
X39390142Y5737857D01*
X39247285Y5666428D01*
X39033000Y5666428D01*
X38890142Y5737857D01*
X38818714Y5809285D01*
X38104428Y5666428D02*
X38104428Y6666428D01*
X38104428Y6380714D02*
X38033000Y6523571D01*
X37961571Y6595000D01*
X37818714Y6666428D01*
X37675857Y6666428D01*
X37175857Y5666428D02*
X37175857Y6666428D01*
X37175857Y7166428D02*
X37247285Y7095000D01*
X37175857Y7023571D01*
X37104428Y7095000D01*
X37175857Y7166428D01*
X37175857Y7023571D01*
X35390142Y5737857D02*
X35175857Y5666428D01*
X34818714Y5666428D01*
X34675857Y5737857D01*
X34604428Y5809285D01*
X34533000Y5952142D01*
X34533000Y6095000D01*
X34604428Y6237857D01*
X34675857Y6309285D01*
X34818714Y6380714D01*
X35104428Y6452142D01*
X35247285Y6523571D01*
X35318714Y6595000D01*
X35390142Y6737857D01*
X35390142Y6880714D01*
X35318714Y7023571D01*
X35247285Y7095000D01*
X35104428Y7166428D01*
X34747285Y7166428D01*
X34533000Y7095000D01*
X32675857Y5666428D02*
X32747285Y5666428D01*
X32890142Y5737857D01*
X33104428Y5952142D01*
X33461571Y6380714D01*
X33604428Y6595000D01*
X33675857Y6809285D01*
X33675857Y6952142D01*
X33604428Y7095000D01*
X33461571Y7166428D01*
X33390142Y7166428D01*
X33247285Y7095000D01*
X33175857Y6952142D01*
X33175857Y6880714D01*
X33247285Y6737857D01*
X33318714Y6666428D01*
X33747285Y6380714D01*
X33818714Y6309285D01*
X33890142Y6166428D01*
X33890142Y5952142D01*
X33818714Y5809285D01*
X33747285Y5737857D01*
X33604428Y5666428D01*
X33390142Y5666428D01*
X33247285Y5737857D01*
X33175857Y5809285D01*
X32961571Y6095000D01*
X32890142Y6309285D01*
X32890142Y6452142D01*
X32247285Y7166428D02*
X31390142Y7166428D01*
X31818714Y5666428D02*
X31818714Y7166428D01*
X30818714Y5737857D02*
X30818714Y5666428D01*
X30890142Y5523571D01*
X30961571Y5452142D01*
X29104428Y7023571D02*
X29033000Y7095000D01*
X28890142Y7166428D01*
X28533000Y7166428D01*
X28390142Y7095000D01*
X28318714Y7023571D01*
X28247285Y6880714D01*
X28247285Y6737857D01*
X28318714Y6523571D01*
X29175857Y5666428D01*
X28247285Y5666428D01*
X27318714Y7166428D02*
X27175857Y7166428D01*
X27033000Y7095000D01*
X26961571Y7023571D01*
X26890142Y6880714D01*
X26818714Y6595000D01*
X26818714Y6237857D01*
X26890142Y5952142D01*
X26961571Y5809285D01*
X27033000Y5737857D01*
X27175857Y5666428D01*
X27318714Y5666428D01*
X27461571Y5737857D01*
X27533000Y5809285D01*
X27604428Y5952142D01*
X27675857Y6237857D01*
X27675857Y6595000D01*
X27604428Y6880714D01*
X27533000Y7023571D01*
X27461571Y7095000D01*
X27318714Y7166428D01*
X25390142Y5666428D02*
X26247285Y5666428D01*
X25818714Y5666428D02*
X25818714Y7166428D01*
X25961571Y6952142D01*
X26104428Y6809285D01*
X26247285Y6737857D01*
X24675857Y5666428D02*
X24390142Y5666428D01*
X24247285Y5737857D01*
X24175857Y5809285D01*
X24033000Y6023571D01*
X23961571Y6309285D01*
X23961571Y6880714D01*
X24033000Y7023571D01*
X24104428Y7095000D01*
X24247285Y7166428D01*
X24533000Y7166428D01*
X24675857Y7095000D01*
X24747285Y7023571D01*
X24818714Y6880714D01*
X24818714Y6523571D01*
X24747285Y6380714D01*
X24675857Y6309285D01*
X24533000Y6237857D01*
X24247285Y6237857D01*
X24104428Y6309285D01*
X24033000Y6380714D01*
X23961571Y6523571D01*
X45747285Y3545000D02*
X45033000Y3545000D01*
X45890142Y3116428D02*
X45390142Y4616428D01*
X44890142Y3116428D01*
X44390142Y4116428D02*
X44390142Y3116428D01*
X44390142Y3973571D02*
X44318714Y4045000D01*
X44175857Y4116428D01*
X43961571Y4116428D01*
X43818714Y4045000D01*
X43747285Y3902142D01*
X43747285Y3116428D01*
X42390142Y3116428D02*
X42390142Y4616428D01*
X42390142Y3187857D02*
X42533000Y3116428D01*
X42818714Y3116428D01*
X42961571Y3187857D01*
X43033000Y3259285D01*
X43104428Y3402142D01*
X43104428Y3830714D01*
X43033000Y3973571D01*
X42961571Y4045000D01*
X42818714Y4116428D01*
X42533000Y4116428D01*
X42390142Y4045000D01*
X41675857Y3116428D02*
X41675857Y4116428D01*
X41675857Y3830714D02*
X41604428Y3973571D01*
X41533000Y4045000D01*
X41390142Y4116428D01*
X41247285Y4116428D01*
X40175857Y3187857D02*
X40318714Y3116428D01*
X40604428Y3116428D01*
X40747285Y3187857D01*
X40818714Y3330714D01*
X40818714Y3902142D01*
X40747285Y4045000D01*
X40604428Y4116428D01*
X40318714Y4116428D01*
X40175857Y4045000D01*
X40104428Y3902142D01*
X40104428Y3759285D01*
X40818714Y3616428D01*
X39604428Y4116428D02*
X39318714Y3116428D01*
X39033000Y3830714D01*
X38747285Y3116428D01*
X38461571Y4116428D01*
X36961571Y4616428D02*
X36461571Y3116428D01*
X35961571Y4616428D01*
X34818714Y3116428D02*
X34818714Y3902142D01*
X34890142Y4045000D01*
X35033000Y4116428D01*
X35318714Y4116428D01*
X35461571Y4045000D01*
X34818714Y3187857D02*
X34961571Y3116428D01*
X35318714Y3116428D01*
X35461571Y3187857D01*
X35533000Y3330714D01*
X35533000Y3473571D01*
X35461571Y3616428D01*
X35318714Y3687857D01*
X34961571Y3687857D01*
X34818714Y3759285D01*
X34104428Y4116428D02*
X34104428Y3116428D01*
X34104428Y3973571D02*
X34033000Y4045000D01*
X33890142Y4116428D01*
X33675857Y4116428D01*
X33533000Y4045000D01*
X33461571Y3902142D01*
X33461571Y3116428D01*
X31604428Y3116428D02*
X31604428Y4616428D01*
X31604428Y3902142D02*
X30747285Y3902142D01*
X30747285Y3116428D02*
X30747285Y4616428D01*
X29818714Y3116428D02*
X29961571Y3187857D01*
X30033000Y3259285D01*
X30104428Y3402142D01*
X30104428Y3830714D01*
X30033000Y3973571D01*
X29961571Y4045000D01*
X29818714Y4116428D01*
X29604428Y4116428D01*
X29461571Y4045000D01*
X29390142Y3973571D01*
X29318714Y3830714D01*
X29318714Y3402142D01*
X29390142Y3259285D01*
X29461571Y3187857D01*
X29604428Y3116428D01*
X29818714Y3116428D01*
X28675857Y3116428D02*
X28675857Y4116428D01*
X28675857Y3830714D02*
X28604428Y3973571D01*
X28533000Y4045000D01*
X28390142Y4116428D01*
X28247285Y4116428D01*
X27747285Y4116428D02*
X27747285Y3116428D01*
X27747285Y3973571D02*
X27675857Y4045000D01*
X27533000Y4116428D01*
X27318714Y4116428D01*
X27175857Y4045000D01*
X27104428Y3902142D01*
X27104428Y3116428D01*
D12*
G04 #@! TO.C,U1*
X46205200Y2795000D02*
X4605200Y2795000D01*
X4605200Y12445000D02*
X4605200Y2795000D01*
X46205200Y12445000D02*
X46205200Y2795000D01*
X46205200Y12445000D02*
X4605200Y12445000D01*
X47232380Y5739304D02*
X48041904Y5739304D01*
X48137142Y5691685D01*
X48184761Y5644066D01*
X48232380Y5548828D01*
X48232380Y5358352D01*
X48184761Y5263114D01*
X48137142Y5215495D01*
X48041904Y5167876D01*
X47232380Y5167876D01*
X48232380Y4167876D02*
X48232380Y4739304D01*
X48232380Y4453590D02*
X47232380Y4453590D01*
X47375238Y4548828D01*
X47470476Y4644066D01*
X47518095Y4739304D01*
G04 #@! TD*
M02*
