G04 #@! TF.GenerationSoftware,KiCad,Pcbnew,(5.1.2)-2*
G04 #@! TF.CreationDate,2019-10-20T18:32:25-05:00*
G04 #@! TF.ProjectId,LaserDiode_Breakout_Hardware,4c617365-7244-4696-9f64-655f42726561,rev?*
G04 #@! TF.SameCoordinates,Original*
G04 #@! TF.FileFunction,Soldermask,Top*
G04 #@! TF.FilePolarity,Negative*
%FSLAX46Y46*%
G04 Gerber Fmt 4.6, Leading zero omitted, Abs format (unit mm)*
G04 Created by KiCad (PCBNEW (5.1.2)-2) date 2019-10-20 18:32:25*
%MOMM*%
%LPD*%
G04 APERTURE LIST*
%ADD10C,0.100000*%
G04 APERTURE END LIST*
D10*
G36*
X-730367856Y105683518D02*
G01*
X-730215950Y105668557D01*
X-729923586Y105579869D01*
X-729923583Y105579868D01*
X-729654142Y105435849D01*
X-729417971Y105242028D01*
X-729224150Y105005857D01*
X-729080131Y104736416D01*
X-729080130Y104736413D01*
X-728991442Y104444049D01*
X-728961496Y104140000D01*
X-728991442Y103835951D01*
X-729080130Y103543587D01*
X-729080131Y103543584D01*
X-729224150Y103274143D01*
X-729417971Y103037972D01*
X-729654142Y102844151D01*
X-729923583Y102700132D01*
X-729923586Y102700131D01*
X-730215950Y102611443D01*
X-730367856Y102596482D01*
X-730443808Y102589001D01*
X-732596192Y102589001D01*
X-732672144Y102596482D01*
X-732824050Y102611443D01*
X-733116414Y102700131D01*
X-733116417Y102700132D01*
X-733385858Y102844151D01*
X-733622029Y103037972D01*
X-733815850Y103274143D01*
X-733959869Y103543584D01*
X-733959870Y103543587D01*
X-734048558Y103835951D01*
X-734078504Y104140000D01*
X-734048558Y104444049D01*
X-733959870Y104736413D01*
X-733959869Y104736416D01*
X-733815850Y105005857D01*
X-733622029Y105242028D01*
X-733385858Y105435849D01*
X-733116417Y105579868D01*
X-733116414Y105579869D01*
X-732824050Y105668557D01*
X-732672144Y105683518D01*
X-732596192Y105690999D01*
X-730443808Y105690999D01*
X-730367856Y105683518D01*
X-730367856Y105683518D01*
G37*
G36*
X-722747856Y105683518D02*
G01*
X-722595950Y105668557D01*
X-722303586Y105579869D01*
X-722303583Y105579868D01*
X-722034142Y105435849D01*
X-721797971Y105242028D01*
X-721604150Y105005857D01*
X-721460131Y104736416D01*
X-721460130Y104736413D01*
X-721371442Y104444049D01*
X-721341496Y104140000D01*
X-721371442Y103835951D01*
X-721460130Y103543587D01*
X-721460131Y103543584D01*
X-721604150Y103274143D01*
X-721797971Y103037972D01*
X-722034142Y102844151D01*
X-722303583Y102700132D01*
X-722303586Y102700131D01*
X-722595950Y102611443D01*
X-722747856Y102596482D01*
X-722823808Y102589001D01*
X-724976192Y102589001D01*
X-725052144Y102596482D01*
X-725204050Y102611443D01*
X-725496414Y102700131D01*
X-725496417Y102700132D01*
X-725765858Y102844151D01*
X-726002029Y103037972D01*
X-726195850Y103274143D01*
X-726339869Y103543584D01*
X-726339870Y103543587D01*
X-726428558Y103835951D01*
X-726458504Y104140000D01*
X-726428558Y104444049D01*
X-726339870Y104736413D01*
X-726339869Y104736416D01*
X-726195850Y105005857D01*
X-726002029Y105242028D01*
X-725765858Y105435849D01*
X-725496417Y105579868D01*
X-725496414Y105579869D01*
X-725204050Y105668557D01*
X-725052144Y105683518D01*
X-724976192Y105690999D01*
X-722823808Y105690999D01*
X-722747856Y105683518D01*
X-722747856Y105683518D01*
G37*
G36*
X-740112643Y109444913D02*
G01*
X-739965407Y109415626D01*
X-739688021Y109300729D01*
X-739438379Y109133923D01*
X-739226077Y108921621D01*
X-739059271Y108671979D01*
X-738944374Y108394593D01*
X-738885800Y108100121D01*
X-738885800Y107799879D01*
X-738944374Y107505407D01*
X-739059271Y107228021D01*
X-739226077Y106978379D01*
X-739438379Y106766077D01*
X-739688021Y106599271D01*
X-739965407Y106484374D01*
X-740112643Y106455087D01*
X-740259878Y106425800D01*
X-740560122Y106425800D01*
X-740707357Y106455087D01*
X-740854593Y106484374D01*
X-741131979Y106599271D01*
X-741381621Y106766077D01*
X-741593923Y106978379D01*
X-741760729Y107228021D01*
X-741875626Y107505407D01*
X-741934200Y107799879D01*
X-741934200Y108100121D01*
X-741875626Y108394593D01*
X-741760729Y108671979D01*
X-741593923Y108921621D01*
X-741381621Y109133923D01*
X-741131979Y109300729D01*
X-740854593Y109415626D01*
X-740707357Y109444913D01*
X-740560122Y109474200D01*
X-740259878Y109474200D01*
X-740112643Y109444913D01*
X-740112643Y109444913D01*
G37*
G36*
X-714712643Y109444913D02*
G01*
X-714565407Y109415626D01*
X-714288021Y109300729D01*
X-714038379Y109133923D01*
X-713826077Y108921621D01*
X-713659271Y108671979D01*
X-713544374Y108394593D01*
X-713485800Y108100121D01*
X-713485800Y107799879D01*
X-713544374Y107505407D01*
X-713659271Y107228021D01*
X-713826077Y106978379D01*
X-714038379Y106766077D01*
X-714288021Y106599271D01*
X-714565407Y106484374D01*
X-714712643Y106455087D01*
X-714859878Y106425800D01*
X-715160122Y106425800D01*
X-715307357Y106455087D01*
X-715454593Y106484374D01*
X-715731979Y106599271D01*
X-715981621Y106766077D01*
X-716193923Y106978379D01*
X-716360729Y107228021D01*
X-716475626Y107505407D01*
X-716534200Y107799879D01*
X-716534200Y108100121D01*
X-716475626Y108394593D01*
X-716360729Y108671979D01*
X-716193923Y108921621D01*
X-715981621Y109133923D01*
X-715731979Y109300729D01*
X-715454593Y109415626D01*
X-715307357Y109444913D01*
X-715160122Y109474200D01*
X-714859878Y109474200D01*
X-714712643Y109444913D01*
X-714712643Y109444913D01*
G37*
G36*
X-726202858Y110648309D02*
G01*
X-726054899Y110587022D01*
X-725921745Y110498052D01*
X-725808499Y110384806D01*
X-725719529Y110251652D01*
X-725658242Y110103693D01*
X-725627000Y109946626D01*
X-725627000Y109786476D01*
X-725658242Y109629409D01*
X-725719529Y109481450D01*
X-725808499Y109348296D01*
X-725921745Y109235050D01*
X-726054899Y109146080D01*
X-726202858Y109084793D01*
X-726359925Y109053551D01*
X-726520075Y109053551D01*
X-726677142Y109084793D01*
X-726825101Y109146080D01*
X-726958255Y109235050D01*
X-727071501Y109348296D01*
X-727160471Y109481450D01*
X-727221758Y109629409D01*
X-727253000Y109786476D01*
X-727253000Y109946626D01*
X-727221758Y110103693D01*
X-727160471Y110251652D01*
X-727071501Y110384806D01*
X-726958255Y110498052D01*
X-726825101Y110587022D01*
X-726677142Y110648309D01*
X-726520075Y110679551D01*
X-726359925Y110679551D01*
X-726202858Y110648309D01*
X-726202858Y110648309D01*
G37*
G36*
X-728742858Y110648309D02*
G01*
X-728594899Y110587022D01*
X-728461745Y110498052D01*
X-728348499Y110384806D01*
X-728259529Y110251652D01*
X-728198242Y110103693D01*
X-728167000Y109946626D01*
X-728167000Y109786476D01*
X-728198242Y109629409D01*
X-728259529Y109481450D01*
X-728348499Y109348296D01*
X-728461745Y109235050D01*
X-728594899Y109146080D01*
X-728742858Y109084793D01*
X-728899925Y109053551D01*
X-729060075Y109053551D01*
X-729217142Y109084793D01*
X-729365101Y109146080D01*
X-729498255Y109235050D01*
X-729611501Y109348296D01*
X-729700471Y109481450D01*
X-729761758Y109629409D01*
X-729793000Y109786476D01*
X-729793000Y109946626D01*
X-729761758Y110103693D01*
X-729700471Y110251652D01*
X-729611501Y110384806D01*
X-729498255Y110498052D01*
X-729365101Y110587022D01*
X-729217142Y110648309D01*
X-729060075Y110679551D01*
X-728899925Y110679551D01*
X-728742858Y110648309D01*
X-728742858Y110648309D01*
G37*
G36*
X-727546949Y117377520D02*
G01*
X-727496080Y117356449D01*
X-727445214Y117335380D01*
X-727353658Y117274204D01*
X-727275796Y117196342D01*
X-727214620Y117104786D01*
X-727193551Y117053920D01*
X-727172480Y117003051D01*
X-727151000Y116895059D01*
X-727151000Y116784941D01*
X-727172480Y116676949D01*
X-727193551Y116626080D01*
X-727214620Y116575214D01*
X-727275796Y116483658D01*
X-727353658Y116405796D01*
X-727445214Y116344620D01*
X-727496080Y116323551D01*
X-727546949Y116302480D01*
X-727654941Y116281000D01*
X-727765059Y116281000D01*
X-727873051Y116302480D01*
X-727923920Y116323551D01*
X-727974786Y116344620D01*
X-728066342Y116405796D01*
X-728144204Y116483658D01*
X-728205380Y116575214D01*
X-728226449Y116626080D01*
X-728247520Y116676949D01*
X-728269000Y116784941D01*
X-728269000Y116895059D01*
X-728247520Y117003051D01*
X-728226449Y117053920D01*
X-728205380Y117104786D01*
X-728144204Y117196342D01*
X-728066342Y117274204D01*
X-727974786Y117335380D01*
X-727923920Y117356449D01*
X-727873051Y117377520D01*
X-727765059Y117399000D01*
X-727654941Y117399000D01*
X-727546949Y117377520D01*
X-727546949Y117377520D01*
G37*
G36*
X-726202858Y118891758D02*
G01*
X-726054899Y118830471D01*
X-725921745Y118741501D01*
X-725808499Y118628255D01*
X-725719529Y118495101D01*
X-725658242Y118347142D01*
X-725627000Y118190075D01*
X-725627000Y118029925D01*
X-725658242Y117872858D01*
X-725719529Y117724899D01*
X-725808499Y117591745D01*
X-725921745Y117478499D01*
X-726054899Y117389529D01*
X-726202858Y117328242D01*
X-726359925Y117297000D01*
X-726520075Y117297000D01*
X-726677142Y117328242D01*
X-726825101Y117389529D01*
X-726958255Y117478499D01*
X-727071501Y117591745D01*
X-727160471Y117724899D01*
X-727221758Y117872858D01*
X-727253000Y118029925D01*
X-727253000Y118190075D01*
X-727221758Y118347142D01*
X-727160471Y118495101D01*
X-727071501Y118628255D01*
X-726958255Y118741501D01*
X-726825101Y118830471D01*
X-726677142Y118891758D01*
X-726520075Y118923000D01*
X-726359925Y118923000D01*
X-726202858Y118891758D01*
X-726202858Y118891758D01*
G37*
G36*
X-728742858Y118891758D02*
G01*
X-728594899Y118830471D01*
X-728461745Y118741501D01*
X-728348499Y118628255D01*
X-728259529Y118495101D01*
X-728198242Y118347142D01*
X-728167000Y118190075D01*
X-728167000Y118029925D01*
X-728198242Y117872858D01*
X-728259529Y117724899D01*
X-728348499Y117591745D01*
X-728461745Y117478499D01*
X-728594899Y117389529D01*
X-728742858Y117328242D01*
X-728899925Y117297000D01*
X-729060075Y117297000D01*
X-729217142Y117328242D01*
X-729365101Y117389529D01*
X-729498255Y117478499D01*
X-729611501Y117591745D01*
X-729700471Y117724899D01*
X-729761758Y117872858D01*
X-729793000Y118029925D01*
X-729793000Y118190075D01*
X-729761758Y118347142D01*
X-729700471Y118495101D01*
X-729611501Y118628255D01*
X-729498255Y118741501D01*
X-729365101Y118830471D01*
X-729217142Y118891758D01*
X-729060075Y118923000D01*
X-728899925Y118923000D01*
X-728742858Y118891758D01*
X-728742858Y118891758D01*
G37*
M02*
