G04 #@! TF.GenerationSoftware,KiCad,Pcbnew,(5.0.0)*
G04 #@! TF.CreationDate,2019-10-20T18:36:36-05:00*
G04 #@! TF.ProjectId,LaserDiode_Breakout_Hardware,4C6173657244696F64655F427265616B,rev?*
G04 #@! TF.SameCoordinates,Original*
G04 #@! TF.FileFunction,Legend,Top*
G04 #@! TF.FilePolarity,Positive*
%FSLAX46Y46*%
G04 Gerber Fmt 4.6, Leading zero omitted, Abs format (unit mm)*
G04 Created by KiCad (PCBNEW (5.0.0)) date 10/20/19 18:36:36*
%MOMM*%
%LPD*%
G01*
G04 APERTURE LIST*
%ADD10C,0.254000*%
%ADD11C,0.010000*%
%ADD12C,0.150000*%
G04 APERTURE END LIST*
D10*
X-737821619Y120190380D02*
X-738305428Y120190380D01*
X-738305428Y121206380D01*
X-737047523Y120190380D02*
X-737047523Y120722571D01*
X-737095904Y120819333D01*
X-737192666Y120867714D01*
X-737386190Y120867714D01*
X-737482952Y120819333D01*
X-737047523Y120238761D02*
X-737144285Y120190380D01*
X-737386190Y120190380D01*
X-737482952Y120238761D01*
X-737531333Y120335523D01*
X-737531333Y120432285D01*
X-737482952Y120529047D01*
X-737386190Y120577428D01*
X-737144285Y120577428D01*
X-737047523Y120625809D01*
X-736612095Y120238761D02*
X-736515333Y120190380D01*
X-736321809Y120190380D01*
X-736225047Y120238761D01*
X-736176666Y120335523D01*
X-736176666Y120383904D01*
X-736225047Y120480666D01*
X-736321809Y120529047D01*
X-736466952Y120529047D01*
X-736563714Y120577428D01*
X-736612095Y120674190D01*
X-736612095Y120722571D01*
X-736563714Y120819333D01*
X-736466952Y120867714D01*
X-736321809Y120867714D01*
X-736225047Y120819333D01*
X-735354190Y120238761D02*
X-735450952Y120190380D01*
X-735644476Y120190380D01*
X-735741238Y120238761D01*
X-735789619Y120335523D01*
X-735789619Y120722571D01*
X-735741238Y120819333D01*
X-735644476Y120867714D01*
X-735450952Y120867714D01*
X-735354190Y120819333D01*
X-735305809Y120722571D01*
X-735305809Y120625809D01*
X-735789619Y120529047D01*
X-734870380Y120190380D02*
X-734870380Y120867714D01*
X-734870380Y120674190D02*
X-734822000Y120770952D01*
X-734773619Y120819333D01*
X-734676857Y120867714D01*
X-734580095Y120867714D01*
X-733467333Y120190380D02*
X-733467333Y121206380D01*
X-733225428Y121206380D01*
X-733080285Y121158000D01*
X-732983523Y121061238D01*
X-732935142Y120964476D01*
X-732886761Y120770952D01*
X-732886761Y120625809D01*
X-732935142Y120432285D01*
X-732983523Y120335523D01*
X-733080285Y120238761D01*
X-733225428Y120190380D01*
X-733467333Y120190380D01*
X-732451333Y120190380D02*
X-732451333Y120867714D01*
X-732451333Y121206380D02*
X-732499714Y121158000D01*
X-732451333Y121109619D01*
X-732402952Y121158000D01*
X-732451333Y121206380D01*
X-732451333Y121109619D01*
X-731822380Y120190380D02*
X-731919142Y120238761D01*
X-731967523Y120287142D01*
X-732015904Y120383904D01*
X-732015904Y120674190D01*
X-731967523Y120770952D01*
X-731919142Y120819333D01*
X-731822380Y120867714D01*
X-731677238Y120867714D01*
X-731580476Y120819333D01*
X-731532095Y120770952D01*
X-731483714Y120674190D01*
X-731483714Y120383904D01*
X-731532095Y120287142D01*
X-731580476Y120238761D01*
X-731677238Y120190380D01*
X-731822380Y120190380D01*
X-730612857Y120190380D02*
X-730612857Y121206380D01*
X-730612857Y120238761D02*
X-730709619Y120190380D01*
X-730903142Y120190380D01*
X-730999904Y120238761D01*
X-731048285Y120287142D01*
X-731096666Y120383904D01*
X-731096666Y120674190D01*
X-731048285Y120770952D01*
X-730999904Y120819333D01*
X-730903142Y120867714D01*
X-730709619Y120867714D01*
X-730612857Y120819333D01*
X-729742000Y120238761D02*
X-729838761Y120190380D01*
X-730032285Y120190380D01*
X-730129047Y120238761D01*
X-730177428Y120335523D01*
X-730177428Y120722571D01*
X-730129047Y120819333D01*
X-730032285Y120867714D01*
X-729838761Y120867714D01*
X-729742000Y120819333D01*
X-729693619Y120722571D01*
X-729693619Y120625809D01*
X-730177428Y120529047D01*
X-728145428Y120722571D02*
X-728000285Y120674190D01*
X-727951904Y120625809D01*
X-727903523Y120529047D01*
X-727903523Y120383904D01*
X-727951904Y120287142D01*
X-728000285Y120238761D01*
X-728097047Y120190380D01*
X-728484095Y120190380D01*
X-728484095Y121206380D01*
X-728145428Y121206380D01*
X-728048666Y121158000D01*
X-728000285Y121109619D01*
X-727951904Y121012857D01*
X-727951904Y120916095D01*
X-728000285Y120819333D01*
X-728048666Y120770952D01*
X-728145428Y120722571D01*
X-728484095Y120722571D01*
X-727468095Y120190380D02*
X-727468095Y120867714D01*
X-727468095Y120674190D02*
X-727419714Y120770952D01*
X-727371333Y120819333D01*
X-727274571Y120867714D01*
X-727177809Y120867714D01*
X-726452095Y120238761D02*
X-726548857Y120190380D01*
X-726742380Y120190380D01*
X-726839142Y120238761D01*
X-726887523Y120335523D01*
X-726887523Y120722571D01*
X-726839142Y120819333D01*
X-726742380Y120867714D01*
X-726548857Y120867714D01*
X-726452095Y120819333D01*
X-726403714Y120722571D01*
X-726403714Y120625809D01*
X-726887523Y120529047D01*
X-725532857Y120190380D02*
X-725532857Y120722571D01*
X-725581238Y120819333D01*
X-725678000Y120867714D01*
X-725871523Y120867714D01*
X-725968285Y120819333D01*
X-725532857Y120238761D02*
X-725629619Y120190380D01*
X-725871523Y120190380D01*
X-725968285Y120238761D01*
X-726016666Y120335523D01*
X-726016666Y120432285D01*
X-725968285Y120529047D01*
X-725871523Y120577428D01*
X-725629619Y120577428D01*
X-725532857Y120625809D01*
X-725049047Y120190380D02*
X-725049047Y121206380D01*
X-724952285Y120577428D02*
X-724662000Y120190380D01*
X-724662000Y120867714D02*
X-725049047Y120480666D01*
X-724081428Y120190380D02*
X-724178190Y120238761D01*
X-724226571Y120287142D01*
X-724274952Y120383904D01*
X-724274952Y120674190D01*
X-724226571Y120770952D01*
X-724178190Y120819333D01*
X-724081428Y120867714D01*
X-723936285Y120867714D01*
X-723839523Y120819333D01*
X-723791142Y120770952D01*
X-723742761Y120674190D01*
X-723742761Y120383904D01*
X-723791142Y120287142D01*
X-723839523Y120238761D01*
X-723936285Y120190380D01*
X-724081428Y120190380D01*
X-722871904Y120867714D02*
X-722871904Y120190380D01*
X-723307333Y120867714D02*
X-723307333Y120335523D01*
X-723258952Y120238761D01*
X-723162190Y120190380D01*
X-723017047Y120190380D01*
X-722920285Y120238761D01*
X-722871904Y120287142D01*
X-722533238Y120867714D02*
X-722146190Y120867714D01*
X-722388095Y121206380D02*
X-722388095Y120335523D01*
X-722339714Y120238761D01*
X-722242952Y120190380D01*
X-722146190Y120190380D01*
X-720694761Y120722571D02*
X-720549619Y120674190D01*
X-720501238Y120625809D01*
X-720452857Y120529047D01*
X-720452857Y120383904D01*
X-720501238Y120287142D01*
X-720549619Y120238761D01*
X-720646380Y120190380D01*
X-721033428Y120190380D01*
X-721033428Y121206380D01*
X-720694761Y121206380D01*
X-720598000Y121158000D01*
X-720549619Y121109619D01*
X-720501238Y121012857D01*
X-720501238Y120916095D01*
X-720549619Y120819333D01*
X-720598000Y120770952D01*
X-720694761Y120722571D01*
X-721033428Y120722571D01*
X-719872285Y120190380D02*
X-719969047Y120238761D01*
X-720017428Y120287142D01*
X-720065809Y120383904D01*
X-720065809Y120674190D01*
X-720017428Y120770952D01*
X-719969047Y120819333D01*
X-719872285Y120867714D01*
X-719727142Y120867714D01*
X-719630380Y120819333D01*
X-719582000Y120770952D01*
X-719533619Y120674190D01*
X-719533619Y120383904D01*
X-719582000Y120287142D01*
X-719630380Y120238761D01*
X-719727142Y120190380D01*
X-719872285Y120190380D01*
X-718662761Y120190380D02*
X-718662761Y120722571D01*
X-718711142Y120819333D01*
X-718807904Y120867714D01*
X-719001428Y120867714D01*
X-719098190Y120819333D01*
X-718662761Y120238761D02*
X-718759523Y120190380D01*
X-719001428Y120190380D01*
X-719098190Y120238761D01*
X-719146571Y120335523D01*
X-719146571Y120432285D01*
X-719098190Y120529047D01*
X-719001428Y120577428D01*
X-718759523Y120577428D01*
X-718662761Y120625809D01*
X-718178952Y120190380D02*
X-718178952Y120867714D01*
X-718178952Y120674190D02*
X-718130571Y120770952D01*
X-718082190Y120819333D01*
X-717985428Y120867714D01*
X-717888666Y120867714D01*
X-717114571Y120190380D02*
X-717114571Y121206380D01*
X-717114571Y120238761D02*
X-717211333Y120190380D01*
X-717404857Y120190380D01*
X-717501619Y120238761D01*
X-717550000Y120287142D01*
X-717598380Y120383904D01*
X-717598380Y120674190D01*
X-717550000Y120770952D01*
X-717501619Y120819333D01*
X-717404857Y120867714D01*
X-717211333Y120867714D01*
X-717114571Y120819333D01*
D11*
G04 #@! TO.C,G\002A\002A\002A*
G36*
X-710762599Y120570434D02*
X-710713700Y120563382D01*
X-710673886Y120551807D01*
X-710667813Y120549178D01*
X-710643442Y120537884D01*
X-710665853Y120541675D01*
X-710743855Y120550423D01*
X-710816915Y120549840D01*
X-710881716Y120539963D01*
X-710884392Y120539299D01*
X-710959905Y120514466D01*
X-711038595Y120477255D01*
X-711120730Y120427447D01*
X-711206578Y120364823D01*
X-711296408Y120289166D01*
X-711390489Y120200257D01*
X-711489088Y120097876D01*
X-711592474Y119981807D01*
X-711643992Y119921032D01*
X-711691720Y119863388D01*
X-711737318Y119807177D01*
X-711781499Y119751366D01*
X-711824978Y119694921D01*
X-711868470Y119636809D01*
X-711912689Y119575999D01*
X-711958350Y119511457D01*
X-712006168Y119442149D01*
X-712056856Y119367044D01*
X-712111130Y119285107D01*
X-712169704Y119195307D01*
X-712233292Y119096611D01*
X-712302609Y118987984D01*
X-712378371Y118868395D01*
X-712442038Y118767412D01*
X-712587225Y118533288D01*
X-712726868Y118301188D01*
X-712858723Y118074858D01*
X-712891908Y118016618D01*
X-712921897Y117963999D01*
X-712956642Y117903480D01*
X-712993280Y117840015D01*
X-713028952Y117778560D01*
X-713060252Y117724999D01*
X-713091426Y117671559D01*
X-713125623Y117612377D01*
X-713160203Y117552058D01*
X-713192527Y117495206D01*
X-713219955Y117446426D01*
X-713220832Y117444852D01*
X-713244487Y117402485D01*
X-713266928Y117362426D01*
X-713286661Y117327332D01*
X-713302194Y117299857D01*
X-713312034Y117282655D01*
X-713312343Y117282122D01*
X-713331136Y117249862D01*
X-713360138Y117326946D01*
X-713375350Y117365069D01*
X-713394261Y117408853D01*
X-713415925Y117456436D01*
X-713439391Y117505958D01*
X-713463711Y117555557D01*
X-713487936Y117603372D01*
X-713511118Y117647541D01*
X-713532307Y117686203D01*
X-713550556Y117717497D01*
X-713564914Y117739561D01*
X-713574434Y117750535D01*
X-713576502Y117751412D01*
X-713581522Y117745166D01*
X-713592297Y117727847D01*
X-713607585Y117701580D01*
X-713626143Y117668494D01*
X-713643080Y117637486D01*
X-713670428Y117587039D01*
X-713699754Y117533290D01*
X-713730164Y117477843D01*
X-713760765Y117422304D01*
X-713790665Y117368278D01*
X-713818969Y117317371D01*
X-713844786Y117271188D01*
X-713867221Y117231334D01*
X-713885382Y117199415D01*
X-713898375Y117177036D01*
X-713905308Y117165803D01*
X-713905946Y117164971D01*
X-713906464Y117168250D01*
X-713902493Y117182979D01*
X-713894788Y117206617D01*
X-713887082Y117228471D01*
X-713868367Y117279894D01*
X-713847563Y117336621D01*
X-713825266Y117397068D01*
X-713802070Y117459652D01*
X-713778569Y117522788D01*
X-713755359Y117584894D01*
X-713733033Y117644384D01*
X-713712186Y117699676D01*
X-713693414Y117749186D01*
X-713677310Y117791329D01*
X-713664469Y117824523D01*
X-713655487Y117847183D01*
X-713650956Y117857725D01*
X-713650636Y117858241D01*
X-713644335Y117855320D01*
X-713632516Y117842243D01*
X-713617444Y117821609D01*
X-713613244Y117815286D01*
X-713597661Y117792255D01*
X-713584961Y117775112D01*
X-713577415Y117766881D01*
X-713576638Y117766567D01*
X-713571908Y117772927D01*
X-713561274Y117790623D01*
X-713545800Y117817776D01*
X-713526549Y117852506D01*
X-713504584Y117892930D01*
X-713493471Y117913652D01*
X-713467300Y117962381D01*
X-713435965Y118020280D01*
X-713401582Y118083472D01*
X-713366264Y118148077D01*
X-713332124Y118210217D01*
X-713311401Y118247747D01*
X-713281320Y118302187D01*
X-713245985Y118366288D01*
X-713207294Y118436597D01*
X-713167147Y118509659D01*
X-713127444Y118582018D01*
X-713090084Y118650220D01*
X-713077059Y118674030D01*
X-713016525Y118783859D01*
X-712957066Y118890029D01*
X-712899327Y118991456D01*
X-712843952Y119087063D01*
X-712791584Y119175766D01*
X-712742868Y119256488D01*
X-712698448Y119328146D01*
X-712658968Y119389660D01*
X-712625072Y119439949D01*
X-712599469Y119475248D01*
X-712563607Y119518491D01*
X-712531622Y119549582D01*
X-712504046Y119568225D01*
X-712481407Y119574125D01*
X-712464237Y119566985D01*
X-712456258Y119555208D01*
X-712448863Y119535252D01*
X-712447590Y119523520D01*
X-712451799Y119521953D01*
X-712460848Y119532494D01*
X-712462758Y119535524D01*
X-712477173Y119553034D01*
X-712490567Y119557928D01*
X-712490744Y119557896D01*
X-712504784Y119548935D01*
X-712524229Y119526557D01*
X-712548842Y119491183D01*
X-712578388Y119443231D01*
X-712612630Y119383120D01*
X-712651331Y119311271D01*
X-712694257Y119228102D01*
X-712741170Y119134032D01*
X-712791833Y119029480D01*
X-712809914Y118991530D01*
X-712827721Y118953587D01*
X-712849455Y118906587D01*
X-712874569Y118851761D01*
X-712902516Y118790338D01*
X-712932751Y118723547D01*
X-712964725Y118652617D01*
X-712997892Y118578779D01*
X-713031705Y118503261D01*
X-713065617Y118427293D01*
X-713099082Y118352105D01*
X-713131552Y118278926D01*
X-713162481Y118208986D01*
X-713191321Y118143513D01*
X-713217527Y118083739D01*
X-713240550Y118030891D01*
X-713259845Y117986200D01*
X-713274864Y117950894D01*
X-713285061Y117926205D01*
X-713289888Y117913360D01*
X-713290171Y117911779D01*
X-713285598Y117917124D01*
X-713273885Y117933233D01*
X-713256193Y117958441D01*
X-713233680Y117991086D01*
X-713207503Y118029506D01*
X-713187177Y118059605D01*
X-713153292Y118109646D01*
X-713113176Y118168364D01*
X-713067852Y118234295D01*
X-713018344Y118305976D01*
X-712965677Y118381943D01*
X-712910873Y118460735D01*
X-712854958Y118540889D01*
X-712798955Y118620940D01*
X-712743888Y118699427D01*
X-712690781Y118774886D01*
X-712640659Y118845855D01*
X-712594544Y118910870D01*
X-712553461Y118968469D01*
X-712518434Y119017188D01*
X-712490487Y119055565D01*
X-712482603Y119066236D01*
X-712346231Y119247571D01*
X-712216179Y119415797D01*
X-712092165Y119571208D01*
X-711973907Y119714097D01*
X-711861123Y119844759D01*
X-711753531Y119963487D01*
X-711650849Y120070576D01*
X-711552796Y120166320D01*
X-711459088Y120251013D01*
X-711369445Y120324948D01*
X-711283584Y120388420D01*
X-711201223Y120441723D01*
X-711122080Y120485151D01*
X-711121559Y120485410D01*
X-711062565Y120513565D01*
X-711012354Y120534701D01*
X-710967250Y120550041D01*
X-710923573Y120560810D01*
X-710877646Y120568231D01*
X-710869755Y120569199D01*
X-710816109Y120572522D01*
X-710762599Y120570434D01*
X-710762599Y120570434D01*
G37*
X-710762599Y120570434D02*
X-710713700Y120563382D01*
X-710673886Y120551807D01*
X-710667813Y120549178D01*
X-710643442Y120537884D01*
X-710665853Y120541675D01*
X-710743855Y120550423D01*
X-710816915Y120549840D01*
X-710881716Y120539963D01*
X-710884392Y120539299D01*
X-710959905Y120514466D01*
X-711038595Y120477255D01*
X-711120730Y120427447D01*
X-711206578Y120364823D01*
X-711296408Y120289166D01*
X-711390489Y120200257D01*
X-711489088Y120097876D01*
X-711592474Y119981807D01*
X-711643992Y119921032D01*
X-711691720Y119863388D01*
X-711737318Y119807177D01*
X-711781499Y119751366D01*
X-711824978Y119694921D01*
X-711868470Y119636809D01*
X-711912689Y119575999D01*
X-711958350Y119511457D01*
X-712006168Y119442149D01*
X-712056856Y119367044D01*
X-712111130Y119285107D01*
X-712169704Y119195307D01*
X-712233292Y119096611D01*
X-712302609Y118987984D01*
X-712378371Y118868395D01*
X-712442038Y118767412D01*
X-712587225Y118533288D01*
X-712726868Y118301188D01*
X-712858723Y118074858D01*
X-712891908Y118016618D01*
X-712921897Y117963999D01*
X-712956642Y117903480D01*
X-712993280Y117840015D01*
X-713028952Y117778560D01*
X-713060252Y117724999D01*
X-713091426Y117671559D01*
X-713125623Y117612377D01*
X-713160203Y117552058D01*
X-713192527Y117495206D01*
X-713219955Y117446426D01*
X-713220832Y117444852D01*
X-713244487Y117402485D01*
X-713266928Y117362426D01*
X-713286661Y117327332D01*
X-713302194Y117299857D01*
X-713312034Y117282655D01*
X-713312343Y117282122D01*
X-713331136Y117249862D01*
X-713360138Y117326946D01*
X-713375350Y117365069D01*
X-713394261Y117408853D01*
X-713415925Y117456436D01*
X-713439391Y117505958D01*
X-713463711Y117555557D01*
X-713487936Y117603372D01*
X-713511118Y117647541D01*
X-713532307Y117686203D01*
X-713550556Y117717497D01*
X-713564914Y117739561D01*
X-713574434Y117750535D01*
X-713576502Y117751412D01*
X-713581522Y117745166D01*
X-713592297Y117727847D01*
X-713607585Y117701580D01*
X-713626143Y117668494D01*
X-713643080Y117637486D01*
X-713670428Y117587039D01*
X-713699754Y117533290D01*
X-713730164Y117477843D01*
X-713760765Y117422304D01*
X-713790665Y117368278D01*
X-713818969Y117317371D01*
X-713844786Y117271188D01*
X-713867221Y117231334D01*
X-713885382Y117199415D01*
X-713898375Y117177036D01*
X-713905308Y117165803D01*
X-713905946Y117164971D01*
X-713906464Y117168250D01*
X-713902493Y117182979D01*
X-713894788Y117206617D01*
X-713887082Y117228471D01*
X-713868367Y117279894D01*
X-713847563Y117336621D01*
X-713825266Y117397068D01*
X-713802070Y117459652D01*
X-713778569Y117522788D01*
X-713755359Y117584894D01*
X-713733033Y117644384D01*
X-713712186Y117699676D01*
X-713693414Y117749186D01*
X-713677310Y117791329D01*
X-713664469Y117824523D01*
X-713655487Y117847183D01*
X-713650956Y117857725D01*
X-713650636Y117858241D01*
X-713644335Y117855320D01*
X-713632516Y117842243D01*
X-713617444Y117821609D01*
X-713613244Y117815286D01*
X-713597661Y117792255D01*
X-713584961Y117775112D01*
X-713577415Y117766881D01*
X-713576638Y117766567D01*
X-713571908Y117772927D01*
X-713561274Y117790623D01*
X-713545800Y117817776D01*
X-713526549Y117852506D01*
X-713504584Y117892930D01*
X-713493471Y117913652D01*
X-713467300Y117962381D01*
X-713435965Y118020280D01*
X-713401582Y118083472D01*
X-713366264Y118148077D01*
X-713332124Y118210217D01*
X-713311401Y118247747D01*
X-713281320Y118302187D01*
X-713245985Y118366288D01*
X-713207294Y118436597D01*
X-713167147Y118509659D01*
X-713127444Y118582018D01*
X-713090084Y118650220D01*
X-713077059Y118674030D01*
X-713016525Y118783859D01*
X-712957066Y118890029D01*
X-712899327Y118991456D01*
X-712843952Y119087063D01*
X-712791584Y119175766D01*
X-712742868Y119256488D01*
X-712698448Y119328146D01*
X-712658968Y119389660D01*
X-712625072Y119439949D01*
X-712599469Y119475248D01*
X-712563607Y119518491D01*
X-712531622Y119549582D01*
X-712504046Y119568225D01*
X-712481407Y119574125D01*
X-712464237Y119566985D01*
X-712456258Y119555208D01*
X-712448863Y119535252D01*
X-712447590Y119523520D01*
X-712451799Y119521953D01*
X-712460848Y119532494D01*
X-712462758Y119535524D01*
X-712477173Y119553034D01*
X-712490567Y119557928D01*
X-712490744Y119557896D01*
X-712504784Y119548935D01*
X-712524229Y119526557D01*
X-712548842Y119491183D01*
X-712578388Y119443231D01*
X-712612630Y119383120D01*
X-712651331Y119311271D01*
X-712694257Y119228102D01*
X-712741170Y119134032D01*
X-712791833Y119029480D01*
X-712809914Y118991530D01*
X-712827721Y118953587D01*
X-712849455Y118906587D01*
X-712874569Y118851761D01*
X-712902516Y118790338D01*
X-712932751Y118723547D01*
X-712964725Y118652617D01*
X-712997892Y118578779D01*
X-713031705Y118503261D01*
X-713065617Y118427293D01*
X-713099082Y118352105D01*
X-713131552Y118278926D01*
X-713162481Y118208986D01*
X-713191321Y118143513D01*
X-713217527Y118083739D01*
X-713240550Y118030891D01*
X-713259845Y117986200D01*
X-713274864Y117950894D01*
X-713285061Y117926205D01*
X-713289888Y117913360D01*
X-713290171Y117911779D01*
X-713285598Y117917124D01*
X-713273885Y117933233D01*
X-713256193Y117958441D01*
X-713233680Y117991086D01*
X-713207503Y118029506D01*
X-713187177Y118059605D01*
X-713153292Y118109646D01*
X-713113176Y118168364D01*
X-713067852Y118234295D01*
X-713018344Y118305976D01*
X-712965677Y118381943D01*
X-712910873Y118460735D01*
X-712854958Y118540889D01*
X-712798955Y118620940D01*
X-712743888Y118699427D01*
X-712690781Y118774886D01*
X-712640659Y118845855D01*
X-712594544Y118910870D01*
X-712553461Y118968469D01*
X-712518434Y119017188D01*
X-712490487Y119055565D01*
X-712482603Y119066236D01*
X-712346231Y119247571D01*
X-712216179Y119415797D01*
X-712092165Y119571208D01*
X-711973907Y119714097D01*
X-711861123Y119844759D01*
X-711753531Y119963487D01*
X-711650849Y120070576D01*
X-711552796Y120166320D01*
X-711459088Y120251013D01*
X-711369445Y120324948D01*
X-711283584Y120388420D01*
X-711201223Y120441723D01*
X-711122080Y120485151D01*
X-711121559Y120485410D01*
X-711062565Y120513565D01*
X-711012354Y120534701D01*
X-710967250Y120550041D01*
X-710923573Y120560810D01*
X-710877646Y120568231D01*
X-710869755Y120569199D01*
X-710816109Y120572522D01*
X-710762599Y120570434D01*
G36*
X-713911824Y117150030D02*
X-713915559Y117146294D01*
X-713919294Y117150030D01*
X-713915559Y117153765D01*
X-713911824Y117150030D01*
X-713911824Y117150030D01*
G37*
X-713911824Y117150030D02*
X-713915559Y117146294D01*
X-713919294Y117150030D01*
X-713915559Y117153765D01*
X-713911824Y117150030D01*
G36*
X-713210937Y118904908D02*
X-713214849Y118895904D01*
X-713227572Y118876750D01*
X-713234871Y118866415D01*
X-713248525Y118846259D01*
X-713261904Y118824136D01*
X-713275846Y118798276D01*
X-713291191Y118766910D01*
X-713308778Y118728269D01*
X-713329448Y118680584D01*
X-713354039Y118622085D01*
X-713375932Y118569148D01*
X-713394551Y118523440D01*
X-713417515Y118466311D01*
X-713443828Y118400296D01*
X-713472494Y118327927D01*
X-713502518Y118251740D01*
X-713532905Y118174267D01*
X-713562658Y118098042D01*
X-713590782Y118025599D01*
X-713616281Y117959472D01*
X-713638161Y117902195D01*
X-713642514Y117890704D01*
X-713650578Y117869377D01*
X-713692481Y117926756D01*
X-713711008Y117950745D01*
X-713726652Y117968455D01*
X-713737249Y117977567D01*
X-713740264Y117977964D01*
X-713744444Y117970337D01*
X-713754549Y117950382D01*
X-713770023Y117919232D01*
X-713790311Y117878024D01*
X-713814858Y117827890D01*
X-713843108Y117769967D01*
X-713874508Y117705388D01*
X-713908501Y117635289D01*
X-713944532Y117560803D01*
X-713958911Y117531030D01*
X-714041695Y117359637D01*
X-714118513Y117200809D01*
X-714189819Y117053618D01*
X-714256068Y116917138D01*
X-714317711Y116790440D01*
X-714375204Y116672598D01*
X-714428998Y116562684D01*
X-714479549Y116459771D01*
X-714527310Y116362932D01*
X-714572733Y116271239D01*
X-714616273Y116183764D01*
X-714658383Y116099582D01*
X-714682353Y116051853D01*
X-714714840Y115986876D01*
X-714742581Y115931017D01*
X-714766563Y115882996D01*
X-714787772Y115841529D01*
X-714807195Y115805333D01*
X-714825819Y115773127D01*
X-714844629Y115743627D01*
X-714864613Y115715551D01*
X-714886758Y115687616D01*
X-714912050Y115658540D01*
X-714941475Y115627040D01*
X-714976021Y115591834D01*
X-715016673Y115551638D01*
X-715064418Y115505171D01*
X-715120244Y115451150D01*
X-715185137Y115388292D01*
X-715215442Y115358841D01*
X-715270103Y115305355D01*
X-715323581Y115252468D01*
X-715374480Y115201598D01*
X-715421404Y115154163D01*
X-715462958Y115111581D01*
X-715497747Y115075272D01*
X-715524375Y115046654D01*
X-715539875Y115029047D01*
X-715582029Y114979482D01*
X-715633146Y114920874D01*
X-715691730Y114854852D01*
X-715756287Y114783042D01*
X-715825322Y114707075D01*
X-715897338Y114628577D01*
X-715970843Y114549178D01*
X-716044339Y114470505D01*
X-716116334Y114394187D01*
X-716185330Y114321851D01*
X-716249834Y114255127D01*
X-716260389Y114244313D01*
X-716296087Y114207688D01*
X-716327961Y114174788D01*
X-716354633Y114147051D01*
X-716374727Y114125913D01*
X-716386863Y114112815D01*
X-716389911Y114109081D01*
X-716380728Y114105810D01*
X-716359924Y114099825D01*
X-716330410Y114091868D01*
X-716295101Y114082682D01*
X-716256911Y114073011D01*
X-716218751Y114063596D01*
X-716183537Y114055180D01*
X-716154181Y114048507D01*
X-716142840Y114046102D01*
X-716094861Y114037055D01*
X-716059993Y114032291D01*
X-716037058Y114031721D01*
X-716024878Y114035258D01*
X-716023075Y114037220D01*
X-716015937Y114044262D01*
X-715999787Y114058257D01*
X-715977335Y114076895D01*
X-715961001Y114090121D01*
X-715902736Y114136861D01*
X-715961692Y114081255D01*
X-716020649Y114025649D01*
X-715995310Y114021114D01*
X-715950397Y114014618D01*
X-715896567Y114009356D01*
X-715835857Y114005313D01*
X-715770309Y114002474D01*
X-715701961Y114000824D01*
X-715632854Y114000349D01*
X-715565026Y114001033D01*
X-715500519Y114002861D01*
X-715441370Y114005819D01*
X-715389621Y114009891D01*
X-715347310Y114015063D01*
X-715316478Y114021320D01*
X-715303118Y114026181D01*
X-715294576Y114034995D01*
X-715279457Y114055479D01*
X-715258566Y114086314D01*
X-715232710Y114126178D01*
X-715202694Y114173754D01*
X-715169323Y114227720D01*
X-715133403Y114286757D01*
X-715095741Y114349545D01*
X-715057141Y114414765D01*
X-715018409Y114481096D01*
X-714980351Y114547219D01*
X-714943772Y114611814D01*
X-714923927Y114647383D01*
X-714892435Y114703202D01*
X-714858613Y114761479D01*
X-714824432Y114818931D01*
X-714791864Y114872275D01*
X-714762881Y114918229D01*
X-714744453Y114946206D01*
X-714716883Y114988304D01*
X-714684864Y115039451D01*
X-714650918Y115095479D01*
X-714617565Y115152222D01*
X-714587325Y115205512D01*
X-714584299Y115210979D01*
X-714547173Y115276570D01*
X-714510664Y115337192D01*
X-714472147Y115396920D01*
X-714428995Y115459828D01*
X-714379688Y115528479D01*
X-714274100Y115676005D01*
X-714174323Y115821760D01*
X-714078037Y115969338D01*
X-713982922Y116122335D01*
X-713886659Y116284344D01*
X-713841928Y116361883D01*
X-713815086Y116408006D01*
X-713790661Y116447819D01*
X-713766450Y116484442D01*
X-713740252Y116520993D01*
X-713709866Y116560593D01*
X-713673089Y116606361D01*
X-713646864Y116638294D01*
X-713610670Y116682199D01*
X-713574668Y116725991D01*
X-713540899Y116767181D01*
X-713511406Y116803275D01*
X-713488229Y116831781D01*
X-713478582Y116843736D01*
X-713455364Y116872337D01*
X-713425967Y116908102D01*
X-713393885Y116946801D01*
X-713362608Y116984210D01*
X-713357437Y116990357D01*
X-713331971Y117021192D01*
X-713310363Y117048491D01*
X-713294300Y117070030D01*
X-713285470Y117083586D01*
X-713284294Y117086670D01*
X-713286288Y117097888D01*
X-713291416Y117118276D01*
X-713298404Y117143442D01*
X-713305975Y117168996D01*
X-713312853Y117190547D01*
X-713317763Y117203702D01*
X-713318853Y117205593D01*
X-713325376Y117202568D01*
X-713339393Y117191467D01*
X-713356777Y117175711D01*
X-713374018Y117160175D01*
X-713382088Y117155027D01*
X-713380524Y117160556D01*
X-713380112Y117161236D01*
X-713369667Y117179397D01*
X-713356818Y117203249D01*
X-713351749Y117213052D01*
X-713341554Y117232215D01*
X-713335301Y117239656D01*
X-713330378Y117237080D01*
X-713326090Y117229792D01*
X-713322069Y117223679D01*
X-713316991Y117221585D01*
X-713308935Y117224709D01*
X-713295982Y117234252D01*
X-713276210Y117251415D01*
X-713247700Y117277399D01*
X-713242906Y117281805D01*
X-713158352Y117358894D01*
X-713083024Y117426126D01*
X-713015811Y117484429D01*
X-712955599Y117534731D01*
X-712901275Y117577961D01*
X-712851727Y117615046D01*
X-712805842Y117646915D01*
X-712802442Y117649171D01*
X-712741624Y117686829D01*
X-712689583Y117713636D01*
X-712646576Y117729499D01*
X-712612863Y117734328D01*
X-712588703Y117728030D01*
X-712585794Y117726025D01*
X-712577819Y117719039D01*
X-712579304Y117715628D01*
X-712592412Y117714461D01*
X-712604876Y117714297D01*
X-712638181Y117709357D01*
X-712671227Y117693550D01*
X-712672698Y117692624D01*
X-712698864Y117674136D01*
X-712732754Y117647403D01*
X-712771614Y117614832D01*
X-712812690Y117578830D01*
X-712853230Y117541804D01*
X-712890479Y117506161D01*
X-712918236Y117477973D01*
X-712941287Y117453401D01*
X-712970489Y117421898D01*
X-713004308Y117385153D01*
X-713041212Y117344854D01*
X-713079666Y117302691D01*
X-713118140Y117260352D01*
X-713155099Y117219526D01*
X-713189010Y117181902D01*
X-713218342Y117149168D01*
X-713241561Y117123014D01*
X-713257134Y117105128D01*
X-713262242Y117098976D01*
X-713278708Y117078043D01*
X-713258502Y116987036D01*
X-713241904Y116907990D01*
X-713228998Y116835648D01*
X-713219296Y116765786D01*
X-713212309Y116694182D01*
X-713207549Y116616611D01*
X-713204528Y116528851D01*
X-713204273Y116518039D01*
X-713203337Y116396590D01*
X-713206592Y116285725D01*
X-713214427Y116181583D01*
X-713227228Y116080300D01*
X-713245382Y115978012D01*
X-713269031Y115871873D01*
X-713320743Y115689772D01*
X-713386118Y115513070D01*
X-713464630Y115342486D01*
X-713555751Y115178738D01*
X-713658957Y115022543D01*
X-713773720Y114874620D01*
X-713899515Y114735685D01*
X-714035816Y114606456D01*
X-714182096Y114487652D01*
X-714337830Y114379990D01*
X-714383257Y114351819D01*
X-714538293Y114265753D01*
X-714700471Y114190465D01*
X-714867306Y114126893D01*
X-715036313Y114075972D01*
X-715205008Y114038639D01*
X-715222912Y114035492D01*
X-715262183Y114027498D01*
X-715287522Y114019254D01*
X-715299744Y114010709D01*
X-715306521Y114001045D01*
X-715320482Y113980916D01*
X-715340350Y113952171D01*
X-715364847Y113916659D01*
X-715392698Y113876229D01*
X-715414672Y113844294D01*
X-715496656Y113727903D01*
X-715573779Y113624386D01*
X-715646883Y113532809D01*
X-715716809Y113452237D01*
X-715784399Y113381733D01*
X-715850493Y113320363D01*
X-715915933Y113267191D01*
X-715965320Y113231975D01*
X-716008847Y113205399D01*
X-716058955Y113179059D01*
X-716110892Y113155156D01*
X-716159905Y113135890D01*
X-716198205Y113124182D01*
X-716259470Y113113304D01*
X-716325764Y113108467D01*
X-716390575Y113109894D01*
X-716438326Y113115947D01*
X-716526856Y113140315D01*
X-716611703Y113179135D01*
X-716692753Y113232352D01*
X-716720809Y113254880D01*
X-716742465Y113271744D01*
X-716760093Y113280498D01*
X-716780134Y113283691D01*
X-716794379Y113284000D01*
X-716894493Y113289868D01*
X-716996078Y113306813D01*
X-717020237Y113313370D01*
X-716468141Y113313370D01*
X-716457799Y113306883D01*
X-716448089Y113303850D01*
X-716433919Y113302220D01*
X-716409411Y113301421D01*
X-716379150Y113301572D01*
X-716369647Y113301820D01*
X-716326069Y113304967D01*
X-716290110Y113312205D01*
X-716259241Y113323002D01*
X-716208743Y113346059D01*
X-716163551Y113372463D01*
X-716119636Y113404982D01*
X-716072968Y113446383D01*
X-716056424Y113462323D01*
X-716032009Y113486645D01*
X-716013861Y113505571D01*
X-716003327Y113517625D01*
X-716001749Y113521330D01*
X-716003589Y113520363D01*
X-716080804Y113472406D01*
X-716147522Y113434163D01*
X-716204312Y113405308D01*
X-716207030Y113404046D01*
X-716247121Y113386862D01*
X-716293037Y113369302D01*
X-716340624Y113352761D01*
X-716385729Y113338638D01*
X-716424199Y113328327D01*
X-716444446Y113324207D01*
X-716463663Y113319298D01*
X-716468141Y113313370D01*
X-717020237Y113313370D01*
X-717095691Y113333848D01*
X-717189890Y113369988D01*
X-717275234Y113414245D01*
X-717297476Y113428220D01*
X-717323201Y113443188D01*
X-717348487Y113454822D01*
X-717363236Y113459478D01*
X-717382688Y113465256D01*
X-717410027Y113475695D01*
X-717439817Y113488694D01*
X-717444162Y113490735D01*
X-717503924Y113527253D01*
X-717504020Y113527344D01*
X-716776514Y113527344D01*
X-716774036Y113521421D01*
X-716767053Y113513413D01*
X-716765405Y113511658D01*
X-716756059Y113502442D01*
X-716746771Y113496744D01*
X-716734652Y113494478D01*
X-716716813Y113495555D01*
X-716690365Y113499889D01*
X-716652419Y113507392D01*
X-716648749Y113508137D01*
X-716618221Y113514944D01*
X-716583246Y113523701D01*
X-716546528Y113533608D01*
X-716510772Y113543865D01*
X-716478682Y113553672D01*
X-716452960Y113562230D01*
X-716436312Y113568740D01*
X-716431440Y113572400D01*
X-716431445Y113572406D01*
X-716439526Y113572437D01*
X-716458731Y113570169D01*
X-716485499Y113566054D01*
X-716496901Y113564103D01*
X-716529492Y113559144D01*
X-716571507Y113553857D01*
X-716617461Y113548881D01*
X-716660742Y113544949D01*
X-716706755Y113541194D01*
X-716739608Y113538106D01*
X-716761031Y113535136D01*
X-716772756Y113531732D01*
X-716776514Y113527344D01*
X-717504020Y113527344D01*
X-717555742Y113575878D01*
X-717599116Y113635765D01*
X-717633546Y113706064D01*
X-717658532Y113785931D01*
X-717673574Y113874516D01*
X-717674182Y113880416D01*
X-717679439Y113912541D01*
X-717688670Y113950633D01*
X-717699971Y113986927D01*
X-717701073Y113989971D01*
X-717730315Y114079973D01*
X-717734077Y114094559D01*
X-717588499Y114094559D01*
X-717585241Y114041124D01*
X-717581939Y114008585D01*
X-717575215Y113981906D01*
X-717562919Y113953993D01*
X-717553554Y113936536D01*
X-717489985Y113833713D01*
X-717420965Y113744392D01*
X-717346021Y113667986D01*
X-717314677Y113641231D01*
X-717269853Y113604919D01*
X-717221294Y113609550D01*
X-717196000Y113612345D01*
X-717177338Y113615126D01*
X-717169623Y113617178D01*
X-717168022Y113619190D01*
X-717169448Y113621842D01*
X-717176249Y113626798D01*
X-717190773Y113635722D01*
X-717215370Y113650275D01*
X-717221294Y113653766D01*
X-717302943Y113708782D01*
X-717376257Y113773114D01*
X-717442430Y113848093D01*
X-717502655Y113935050D01*
X-717551366Y114021921D01*
X-717588499Y114094559D01*
X-717734077Y114094559D01*
X-717756890Y114183002D01*
X-717780441Y114297322D01*
X-717800607Y114421200D01*
X-717816343Y114546530D01*
X-717819776Y114585645D01*
X-717822656Y114633237D01*
X-717824967Y114687038D01*
X-717826694Y114744783D01*
X-717827822Y114804205D01*
X-717828333Y114863038D01*
X-717828213Y114919015D01*
X-717827445Y114969870D01*
X-717826013Y115013337D01*
X-717823902Y115047148D01*
X-717821095Y115069038D01*
X-717820031Y115073206D01*
X-717815914Y115084507D01*
X-717813626Y115085080D01*
X-717812525Y115073414D01*
X-717812071Y115054530D01*
X-717809645Y114995176D01*
X-717804418Y114924692D01*
X-717796830Y114846534D01*
X-717787323Y114764154D01*
X-717776340Y114681009D01*
X-717764322Y114600554D01*
X-717751711Y114526242D01*
X-717738948Y114461529D01*
X-717732768Y114434353D01*
X-717721354Y114388855D01*
X-717709256Y114343982D01*
X-717697165Y114301955D01*
X-717685772Y114264994D01*
X-717675769Y114235321D01*
X-717667846Y114215156D01*
X-717662694Y114206721D01*
X-717661934Y114206696D01*
X-717655072Y114218789D01*
X-717651642Y114242545D01*
X-717651638Y114275086D01*
X-717655056Y114313535D01*
X-717661889Y114355015D01*
X-717662221Y114356637D01*
X-717673042Y114412317D01*
X-717681836Y114465611D01*
X-717688809Y114519054D01*
X-717694171Y114575184D01*
X-717698128Y114636536D01*
X-717700890Y114705648D01*
X-717702663Y114785054D01*
X-717703532Y114860294D01*
X-717704696Y115005783D01*
X-717661694Y115005783D01*
X-717660976Y114976755D01*
X-717659494Y114940610D01*
X-717657378Y114899944D01*
X-717654757Y114857348D01*
X-717651761Y114815417D01*
X-717648521Y114776744D01*
X-717646464Y114755706D01*
X-717642314Y114720641D01*
X-717636800Y114680432D01*
X-717630412Y114638013D01*
X-717623642Y114596316D01*
X-717616979Y114558276D01*
X-717610914Y114526825D01*
X-717605938Y114504896D01*
X-717603062Y114496164D01*
X-717599028Y114499198D01*
X-717591630Y114514162D01*
X-717581877Y114538698D01*
X-717570781Y114570449D01*
X-717569416Y114574605D01*
X-717552609Y114624725D01*
X-717537579Y114666813D01*
X-717524895Y114699438D01*
X-717515125Y114721168D01*
X-717508838Y114730572D01*
X-717507449Y114730586D01*
X-717507700Y114722497D01*
X-717510676Y114702711D01*
X-717515883Y114674119D01*
X-717522829Y114639614D01*
X-717523529Y114636286D01*
X-717533067Y114589186D01*
X-717543227Y114535890D01*
X-717552529Y114484284D01*
X-717557315Y114456003D01*
X-717571858Y114366858D01*
X-717549157Y114301679D01*
X-717530162Y114251698D01*
X-717506672Y114196890D01*
X-717480668Y114141372D01*
X-717454126Y114089259D01*
X-717429025Y114044669D01*
X-717415013Y114022545D01*
X-717379388Y113975364D01*
X-717336157Y113926760D01*
X-717289848Y113881436D01*
X-717244992Y113844096D01*
X-717238778Y113839552D01*
X-717216167Y113824684D01*
X-717188324Y113808303D01*
X-717158231Y113791918D01*
X-717128873Y113777038D01*
X-717103232Y113765170D01*
X-717084292Y113757825D01*
X-717075037Y113756510D01*
X-717074855Y113756656D01*
X-717076230Y113764422D01*
X-717082690Y113782154D01*
X-717092920Y113806315D01*
X-717095193Y113811365D01*
X-717117249Y113862122D01*
X-717142060Y113922879D01*
X-717168002Y113989348D01*
X-717193451Y114057245D01*
X-717216782Y114122284D01*
X-717236371Y114180178D01*
X-717243571Y114202883D01*
X-717256021Y114244497D01*
X-717269453Y114291530D01*
X-717283264Y114341634D01*
X-717296849Y114392460D01*
X-717309602Y114441661D01*
X-717320921Y114486888D01*
X-717330200Y114525793D01*
X-717336835Y114556028D01*
X-717340221Y114575246D01*
X-717340529Y114579504D01*
X-717337805Y114576642D01*
X-717330207Y114561372D01*
X-717318377Y114535172D01*
X-717302958Y114499519D01*
X-717284591Y114455892D01*
X-717263919Y114405768D01*
X-717248271Y114367236D01*
X-717215464Y114286608D01*
X-717186619Y114217385D01*
X-717160519Y114156957D01*
X-717135943Y114102714D01*
X-717111674Y114052045D01*
X-717086494Y114002342D01*
X-717059184Y113950995D01*
X-717028525Y113895393D01*
X-717025213Y113889470D01*
X-716995416Y113836641D01*
X-716971649Y113795592D01*
X-716952924Y113764909D01*
X-716938253Y113743183D01*
X-716926649Y113729002D01*
X-716917122Y113720954D01*
X-716908686Y113717628D01*
X-716904705Y113717294D01*
X-716891165Y113721274D01*
X-716868855Y113732014D01*
X-716841253Y113747719D01*
X-716820506Y113760795D01*
X-716790054Y113781747D01*
X-716752340Y113809135D01*
X-716711579Y113839824D01*
X-716671982Y113870679D01*
X-716660938Y113879517D01*
X-716653777Y113885383D01*
X-716220236Y113885383D01*
X-716216500Y113881647D01*
X-716212765Y113885383D01*
X-716216500Y113889118D01*
X-716220236Y113885383D01*
X-716653777Y113885383D01*
X-716646067Y113891699D01*
X-716205294Y113891699D01*
X-716199584Y113893114D01*
X-716182514Y113904059D01*
X-716154178Y113924469D01*
X-716114668Y113954278D01*
X-716094632Y113969688D01*
X-716069473Y113989672D01*
X-716049900Y114006277D01*
X-716038209Y114017483D01*
X-716036025Y114021162D01*
X-716042605Y114017997D01*
X-716058251Y114007438D01*
X-716080387Y113991457D01*
X-716106435Y113972025D01*
X-716133820Y113951112D01*
X-716159963Y113930689D01*
X-716182289Y113912727D01*
X-716198221Y113899197D01*
X-716205182Y113892069D01*
X-716205294Y113891699D01*
X-716646067Y113891699D01*
X-716628783Y113905856D01*
X-716593480Y113935485D01*
X-716556737Y113966889D01*
X-716520267Y113998553D01*
X-716485780Y114028962D01*
X-716454986Y114056601D01*
X-716429596Y114079956D01*
X-716411320Y114097512D01*
X-716401869Y114107754D01*
X-716401015Y114109691D01*
X-716408488Y114112965D01*
X-716427216Y114120284D01*
X-716454415Y114130580D01*
X-716487300Y114142786D01*
X-716488980Y114143404D01*
X-716662979Y114215007D01*
X-716830944Y114299413D01*
X-716991867Y114395875D01*
X-717144739Y114503647D01*
X-717288550Y114621983D01*
X-717422293Y114750139D01*
X-717544958Y114887369D01*
X-717613170Y114974221D01*
X-717632034Y114998979D01*
X-717647593Y115018453D01*
X-717657724Y115030038D01*
X-717660316Y115032118D01*
X-717661517Y115025102D01*
X-717661694Y115005783D01*
X-717704696Y115005783D01*
X-717705475Y115103089D01*
X-717755425Y115185265D01*
X-717846597Y115349518D01*
X-717924438Y115520382D01*
X-717988976Y115697940D01*
X-718040239Y115882274D01*
X-718078255Y116073467D01*
X-718096278Y116205000D01*
X-718099761Y116246604D01*
X-718102343Y116299708D01*
X-718104026Y116360898D01*
X-718104808Y116426760D01*
X-718104689Y116493880D01*
X-718103670Y116558845D01*
X-718101751Y116618239D01*
X-718098932Y116668650D01*
X-718096278Y116698059D01*
X-718066963Y116894251D01*
X-718024205Y117083927D01*
X-717967990Y117267122D01*
X-717898304Y117443870D01*
X-717815133Y117614204D01*
X-717718463Y117778159D01*
X-717608280Y117935768D01*
X-717565695Y117990471D01*
X-717527662Y118035780D01*
X-717481335Y118087460D01*
X-717429855Y118142264D01*
X-717376364Y118196950D01*
X-717324002Y118248271D01*
X-717275913Y118292983D01*
X-717254912Y118311452D01*
X-717104663Y118430718D01*
X-716946687Y118537309D01*
X-716781549Y118630980D01*
X-716609817Y118711482D01*
X-716432058Y118778569D01*
X-716248838Y118831993D01*
X-716060723Y118871509D01*
X-715925147Y118890911D01*
X-715869552Y118895942D01*
X-715803282Y118899657D01*
X-715730217Y118902028D01*
X-715654233Y118903024D01*
X-715579209Y118902615D01*
X-715509022Y118900772D01*
X-715447551Y118897463D01*
X-715417147Y118894834D01*
X-715223681Y118867744D01*
X-715036228Y118826995D01*
X-714854630Y118772521D01*
X-714678727Y118704257D01*
X-714508360Y118622135D01*
X-714343370Y118526091D01*
X-714183597Y118416059D01*
X-714098589Y118350121D01*
X-714065980Y118322505D01*
X-714027085Y118287507D01*
X-713984171Y118247365D01*
X-713939505Y118204314D01*
X-713895354Y118160590D01*
X-713853985Y118118431D01*
X-713817665Y118080073D01*
X-713788660Y118047751D01*
X-713773618Y118029524D01*
X-713757813Y118009835D01*
X-713745659Y117995893D01*
X-713740000Y117990853D01*
X-713735868Y117997222D01*
X-713725871Y118015392D01*
X-713710824Y118043801D01*
X-713691540Y118080887D01*
X-713668836Y118125087D01*
X-713643525Y118174838D01*
X-713626234Y118209069D01*
X-713572623Y118314400D01*
X-713521064Y118413543D01*
X-713472004Y118505723D01*
X-713425888Y118590168D01*
X-713383165Y118666104D01*
X-713344281Y118732759D01*
X-713309682Y118789360D01*
X-713279815Y118835132D01*
X-713255127Y118869304D01*
X-713236065Y118891103D01*
X-713228562Y118897266D01*
X-713215590Y118904962D01*
X-713210937Y118904908D01*
X-713210937Y118904908D01*
G37*
X-713210937Y118904908D02*
X-713214849Y118895904D01*
X-713227572Y118876750D01*
X-713234871Y118866415D01*
X-713248525Y118846259D01*
X-713261904Y118824136D01*
X-713275846Y118798276D01*
X-713291191Y118766910D01*
X-713308778Y118728269D01*
X-713329448Y118680584D01*
X-713354039Y118622085D01*
X-713375932Y118569148D01*
X-713394551Y118523440D01*
X-713417515Y118466311D01*
X-713443828Y118400296D01*
X-713472494Y118327927D01*
X-713502518Y118251740D01*
X-713532905Y118174267D01*
X-713562658Y118098042D01*
X-713590782Y118025599D01*
X-713616281Y117959472D01*
X-713638161Y117902195D01*
X-713642514Y117890704D01*
X-713650578Y117869377D01*
X-713692481Y117926756D01*
X-713711008Y117950745D01*
X-713726652Y117968455D01*
X-713737249Y117977567D01*
X-713740264Y117977964D01*
X-713744444Y117970337D01*
X-713754549Y117950382D01*
X-713770023Y117919232D01*
X-713790311Y117878024D01*
X-713814858Y117827890D01*
X-713843108Y117769967D01*
X-713874508Y117705388D01*
X-713908501Y117635289D01*
X-713944532Y117560803D01*
X-713958911Y117531030D01*
X-714041695Y117359637D01*
X-714118513Y117200809D01*
X-714189819Y117053618D01*
X-714256068Y116917138D01*
X-714317711Y116790440D01*
X-714375204Y116672598D01*
X-714428998Y116562684D01*
X-714479549Y116459771D01*
X-714527310Y116362932D01*
X-714572733Y116271239D01*
X-714616273Y116183764D01*
X-714658383Y116099582D01*
X-714682353Y116051853D01*
X-714714840Y115986876D01*
X-714742581Y115931017D01*
X-714766563Y115882996D01*
X-714787772Y115841529D01*
X-714807195Y115805333D01*
X-714825819Y115773127D01*
X-714844629Y115743627D01*
X-714864613Y115715551D01*
X-714886758Y115687616D01*
X-714912050Y115658540D01*
X-714941475Y115627040D01*
X-714976021Y115591834D01*
X-715016673Y115551638D01*
X-715064418Y115505171D01*
X-715120244Y115451150D01*
X-715185137Y115388292D01*
X-715215442Y115358841D01*
X-715270103Y115305355D01*
X-715323581Y115252468D01*
X-715374480Y115201598D01*
X-715421404Y115154163D01*
X-715462958Y115111581D01*
X-715497747Y115075272D01*
X-715524375Y115046654D01*
X-715539875Y115029047D01*
X-715582029Y114979482D01*
X-715633146Y114920874D01*
X-715691730Y114854852D01*
X-715756287Y114783042D01*
X-715825322Y114707075D01*
X-715897338Y114628577D01*
X-715970843Y114549178D01*
X-716044339Y114470505D01*
X-716116334Y114394187D01*
X-716185330Y114321851D01*
X-716249834Y114255127D01*
X-716260389Y114244313D01*
X-716296087Y114207688D01*
X-716327961Y114174788D01*
X-716354633Y114147051D01*
X-716374727Y114125913D01*
X-716386863Y114112815D01*
X-716389911Y114109081D01*
X-716380728Y114105810D01*
X-716359924Y114099825D01*
X-716330410Y114091868D01*
X-716295101Y114082682D01*
X-716256911Y114073011D01*
X-716218751Y114063596D01*
X-716183537Y114055180D01*
X-716154181Y114048507D01*
X-716142840Y114046102D01*
X-716094861Y114037055D01*
X-716059993Y114032291D01*
X-716037058Y114031721D01*
X-716024878Y114035258D01*
X-716023075Y114037220D01*
X-716015937Y114044262D01*
X-715999787Y114058257D01*
X-715977335Y114076895D01*
X-715961001Y114090121D01*
X-715902736Y114136861D01*
X-715961692Y114081255D01*
X-716020649Y114025649D01*
X-715995310Y114021114D01*
X-715950397Y114014618D01*
X-715896567Y114009356D01*
X-715835857Y114005313D01*
X-715770309Y114002474D01*
X-715701961Y114000824D01*
X-715632854Y114000349D01*
X-715565026Y114001033D01*
X-715500519Y114002861D01*
X-715441370Y114005819D01*
X-715389621Y114009891D01*
X-715347310Y114015063D01*
X-715316478Y114021320D01*
X-715303118Y114026181D01*
X-715294576Y114034995D01*
X-715279457Y114055479D01*
X-715258566Y114086314D01*
X-715232710Y114126178D01*
X-715202694Y114173754D01*
X-715169323Y114227720D01*
X-715133403Y114286757D01*
X-715095741Y114349545D01*
X-715057141Y114414765D01*
X-715018409Y114481096D01*
X-714980351Y114547219D01*
X-714943772Y114611814D01*
X-714923927Y114647383D01*
X-714892435Y114703202D01*
X-714858613Y114761479D01*
X-714824432Y114818931D01*
X-714791864Y114872275D01*
X-714762881Y114918229D01*
X-714744453Y114946206D01*
X-714716883Y114988304D01*
X-714684864Y115039451D01*
X-714650918Y115095479D01*
X-714617565Y115152222D01*
X-714587325Y115205512D01*
X-714584299Y115210979D01*
X-714547173Y115276570D01*
X-714510664Y115337192D01*
X-714472147Y115396920D01*
X-714428995Y115459828D01*
X-714379688Y115528479D01*
X-714274100Y115676005D01*
X-714174323Y115821760D01*
X-714078037Y115969338D01*
X-713982922Y116122335D01*
X-713886659Y116284344D01*
X-713841928Y116361883D01*
X-713815086Y116408006D01*
X-713790661Y116447819D01*
X-713766450Y116484442D01*
X-713740252Y116520993D01*
X-713709866Y116560593D01*
X-713673089Y116606361D01*
X-713646864Y116638294D01*
X-713610670Y116682199D01*
X-713574668Y116725991D01*
X-713540899Y116767181D01*
X-713511406Y116803275D01*
X-713488229Y116831781D01*
X-713478582Y116843736D01*
X-713455364Y116872337D01*
X-713425967Y116908102D01*
X-713393885Y116946801D01*
X-713362608Y116984210D01*
X-713357437Y116990357D01*
X-713331971Y117021192D01*
X-713310363Y117048491D01*
X-713294300Y117070030D01*
X-713285470Y117083586D01*
X-713284294Y117086670D01*
X-713286288Y117097888D01*
X-713291416Y117118276D01*
X-713298404Y117143442D01*
X-713305975Y117168996D01*
X-713312853Y117190547D01*
X-713317763Y117203702D01*
X-713318853Y117205593D01*
X-713325376Y117202568D01*
X-713339393Y117191467D01*
X-713356777Y117175711D01*
X-713374018Y117160175D01*
X-713382088Y117155027D01*
X-713380524Y117160556D01*
X-713380112Y117161236D01*
X-713369667Y117179397D01*
X-713356818Y117203249D01*
X-713351749Y117213052D01*
X-713341554Y117232215D01*
X-713335301Y117239656D01*
X-713330378Y117237080D01*
X-713326090Y117229792D01*
X-713322069Y117223679D01*
X-713316991Y117221585D01*
X-713308935Y117224709D01*
X-713295982Y117234252D01*
X-713276210Y117251415D01*
X-713247700Y117277399D01*
X-713242906Y117281805D01*
X-713158352Y117358894D01*
X-713083024Y117426126D01*
X-713015811Y117484429D01*
X-712955599Y117534731D01*
X-712901275Y117577961D01*
X-712851727Y117615046D01*
X-712805842Y117646915D01*
X-712802442Y117649171D01*
X-712741624Y117686829D01*
X-712689583Y117713636D01*
X-712646576Y117729499D01*
X-712612863Y117734328D01*
X-712588703Y117728030D01*
X-712585794Y117726025D01*
X-712577819Y117719039D01*
X-712579304Y117715628D01*
X-712592412Y117714461D01*
X-712604876Y117714297D01*
X-712638181Y117709357D01*
X-712671227Y117693550D01*
X-712672698Y117692624D01*
X-712698864Y117674136D01*
X-712732754Y117647403D01*
X-712771614Y117614832D01*
X-712812690Y117578830D01*
X-712853230Y117541804D01*
X-712890479Y117506161D01*
X-712918236Y117477973D01*
X-712941287Y117453401D01*
X-712970489Y117421898D01*
X-713004308Y117385153D01*
X-713041212Y117344854D01*
X-713079666Y117302691D01*
X-713118140Y117260352D01*
X-713155099Y117219526D01*
X-713189010Y117181902D01*
X-713218342Y117149168D01*
X-713241561Y117123014D01*
X-713257134Y117105128D01*
X-713262242Y117098976D01*
X-713278708Y117078043D01*
X-713258502Y116987036D01*
X-713241904Y116907990D01*
X-713228998Y116835648D01*
X-713219296Y116765786D01*
X-713212309Y116694182D01*
X-713207549Y116616611D01*
X-713204528Y116528851D01*
X-713204273Y116518039D01*
X-713203337Y116396590D01*
X-713206592Y116285725D01*
X-713214427Y116181583D01*
X-713227228Y116080300D01*
X-713245382Y115978012D01*
X-713269031Y115871873D01*
X-713320743Y115689772D01*
X-713386118Y115513070D01*
X-713464630Y115342486D01*
X-713555751Y115178738D01*
X-713658957Y115022543D01*
X-713773720Y114874620D01*
X-713899515Y114735685D01*
X-714035816Y114606456D01*
X-714182096Y114487652D01*
X-714337830Y114379990D01*
X-714383257Y114351819D01*
X-714538293Y114265753D01*
X-714700471Y114190465D01*
X-714867306Y114126893D01*
X-715036313Y114075972D01*
X-715205008Y114038639D01*
X-715222912Y114035492D01*
X-715262183Y114027498D01*
X-715287522Y114019254D01*
X-715299744Y114010709D01*
X-715306521Y114001045D01*
X-715320482Y113980916D01*
X-715340350Y113952171D01*
X-715364847Y113916659D01*
X-715392698Y113876229D01*
X-715414672Y113844294D01*
X-715496656Y113727903D01*
X-715573779Y113624386D01*
X-715646883Y113532809D01*
X-715716809Y113452237D01*
X-715784399Y113381733D01*
X-715850493Y113320363D01*
X-715915933Y113267191D01*
X-715965320Y113231975D01*
X-716008847Y113205399D01*
X-716058955Y113179059D01*
X-716110892Y113155156D01*
X-716159905Y113135890D01*
X-716198205Y113124182D01*
X-716259470Y113113304D01*
X-716325764Y113108467D01*
X-716390575Y113109894D01*
X-716438326Y113115947D01*
X-716526856Y113140315D01*
X-716611703Y113179135D01*
X-716692753Y113232352D01*
X-716720809Y113254880D01*
X-716742465Y113271744D01*
X-716760093Y113280498D01*
X-716780134Y113283691D01*
X-716794379Y113284000D01*
X-716894493Y113289868D01*
X-716996078Y113306813D01*
X-717020237Y113313370D01*
X-716468141Y113313370D01*
X-716457799Y113306883D01*
X-716448089Y113303850D01*
X-716433919Y113302220D01*
X-716409411Y113301421D01*
X-716379150Y113301572D01*
X-716369647Y113301820D01*
X-716326069Y113304967D01*
X-716290110Y113312205D01*
X-716259241Y113323002D01*
X-716208743Y113346059D01*
X-716163551Y113372463D01*
X-716119636Y113404982D01*
X-716072968Y113446383D01*
X-716056424Y113462323D01*
X-716032009Y113486645D01*
X-716013861Y113505571D01*
X-716003327Y113517625D01*
X-716001749Y113521330D01*
X-716003589Y113520363D01*
X-716080804Y113472406D01*
X-716147522Y113434163D01*
X-716204312Y113405308D01*
X-716207030Y113404046D01*
X-716247121Y113386862D01*
X-716293037Y113369302D01*
X-716340624Y113352761D01*
X-716385729Y113338638D01*
X-716424199Y113328327D01*
X-716444446Y113324207D01*
X-716463663Y113319298D01*
X-716468141Y113313370D01*
X-717020237Y113313370D01*
X-717095691Y113333848D01*
X-717189890Y113369988D01*
X-717275234Y113414245D01*
X-717297476Y113428220D01*
X-717323201Y113443188D01*
X-717348487Y113454822D01*
X-717363236Y113459478D01*
X-717382688Y113465256D01*
X-717410027Y113475695D01*
X-717439817Y113488694D01*
X-717444162Y113490735D01*
X-717503924Y113527253D01*
X-717504020Y113527344D01*
X-716776514Y113527344D01*
X-716774036Y113521421D01*
X-716767053Y113513413D01*
X-716765405Y113511658D01*
X-716756059Y113502442D01*
X-716746771Y113496744D01*
X-716734652Y113494478D01*
X-716716813Y113495555D01*
X-716690365Y113499889D01*
X-716652419Y113507392D01*
X-716648749Y113508137D01*
X-716618221Y113514944D01*
X-716583246Y113523701D01*
X-716546528Y113533608D01*
X-716510772Y113543865D01*
X-716478682Y113553672D01*
X-716452960Y113562230D01*
X-716436312Y113568740D01*
X-716431440Y113572400D01*
X-716431445Y113572406D01*
X-716439526Y113572437D01*
X-716458731Y113570169D01*
X-716485499Y113566054D01*
X-716496901Y113564103D01*
X-716529492Y113559144D01*
X-716571507Y113553857D01*
X-716617461Y113548881D01*
X-716660742Y113544949D01*
X-716706755Y113541194D01*
X-716739608Y113538106D01*
X-716761031Y113535136D01*
X-716772756Y113531732D01*
X-716776514Y113527344D01*
X-717504020Y113527344D01*
X-717555742Y113575878D01*
X-717599116Y113635765D01*
X-717633546Y113706064D01*
X-717658532Y113785931D01*
X-717673574Y113874516D01*
X-717674182Y113880416D01*
X-717679439Y113912541D01*
X-717688670Y113950633D01*
X-717699971Y113986927D01*
X-717701073Y113989971D01*
X-717730315Y114079973D01*
X-717734077Y114094559D01*
X-717588499Y114094559D01*
X-717585241Y114041124D01*
X-717581939Y114008585D01*
X-717575215Y113981906D01*
X-717562919Y113953993D01*
X-717553554Y113936536D01*
X-717489985Y113833713D01*
X-717420965Y113744392D01*
X-717346021Y113667986D01*
X-717314677Y113641231D01*
X-717269853Y113604919D01*
X-717221294Y113609550D01*
X-717196000Y113612345D01*
X-717177338Y113615126D01*
X-717169623Y113617178D01*
X-717168022Y113619190D01*
X-717169448Y113621842D01*
X-717176249Y113626798D01*
X-717190773Y113635722D01*
X-717215370Y113650275D01*
X-717221294Y113653766D01*
X-717302943Y113708782D01*
X-717376257Y113773114D01*
X-717442430Y113848093D01*
X-717502655Y113935050D01*
X-717551366Y114021921D01*
X-717588499Y114094559D01*
X-717734077Y114094559D01*
X-717756890Y114183002D01*
X-717780441Y114297322D01*
X-717800607Y114421200D01*
X-717816343Y114546530D01*
X-717819776Y114585645D01*
X-717822656Y114633237D01*
X-717824967Y114687038D01*
X-717826694Y114744783D01*
X-717827822Y114804205D01*
X-717828333Y114863038D01*
X-717828213Y114919015D01*
X-717827445Y114969870D01*
X-717826013Y115013337D01*
X-717823902Y115047148D01*
X-717821095Y115069038D01*
X-717820031Y115073206D01*
X-717815914Y115084507D01*
X-717813626Y115085080D01*
X-717812525Y115073414D01*
X-717812071Y115054530D01*
X-717809645Y114995176D01*
X-717804418Y114924692D01*
X-717796830Y114846534D01*
X-717787323Y114764154D01*
X-717776340Y114681009D01*
X-717764322Y114600554D01*
X-717751711Y114526242D01*
X-717738948Y114461529D01*
X-717732768Y114434353D01*
X-717721354Y114388855D01*
X-717709256Y114343982D01*
X-717697165Y114301955D01*
X-717685772Y114264994D01*
X-717675769Y114235321D01*
X-717667846Y114215156D01*
X-717662694Y114206721D01*
X-717661934Y114206696D01*
X-717655072Y114218789D01*
X-717651642Y114242545D01*
X-717651638Y114275086D01*
X-717655056Y114313535D01*
X-717661889Y114355015D01*
X-717662221Y114356637D01*
X-717673042Y114412317D01*
X-717681836Y114465611D01*
X-717688809Y114519054D01*
X-717694171Y114575184D01*
X-717698128Y114636536D01*
X-717700890Y114705648D01*
X-717702663Y114785054D01*
X-717703532Y114860294D01*
X-717704696Y115005783D01*
X-717661694Y115005783D01*
X-717660976Y114976755D01*
X-717659494Y114940610D01*
X-717657378Y114899944D01*
X-717654757Y114857348D01*
X-717651761Y114815417D01*
X-717648521Y114776744D01*
X-717646464Y114755706D01*
X-717642314Y114720641D01*
X-717636800Y114680432D01*
X-717630412Y114638013D01*
X-717623642Y114596316D01*
X-717616979Y114558276D01*
X-717610914Y114526825D01*
X-717605938Y114504896D01*
X-717603062Y114496164D01*
X-717599028Y114499198D01*
X-717591630Y114514162D01*
X-717581877Y114538698D01*
X-717570781Y114570449D01*
X-717569416Y114574605D01*
X-717552609Y114624725D01*
X-717537579Y114666813D01*
X-717524895Y114699438D01*
X-717515125Y114721168D01*
X-717508838Y114730572D01*
X-717507449Y114730586D01*
X-717507700Y114722497D01*
X-717510676Y114702711D01*
X-717515883Y114674119D01*
X-717522829Y114639614D01*
X-717523529Y114636286D01*
X-717533067Y114589186D01*
X-717543227Y114535890D01*
X-717552529Y114484284D01*
X-717557315Y114456003D01*
X-717571858Y114366858D01*
X-717549157Y114301679D01*
X-717530162Y114251698D01*
X-717506672Y114196890D01*
X-717480668Y114141372D01*
X-717454126Y114089259D01*
X-717429025Y114044669D01*
X-717415013Y114022545D01*
X-717379388Y113975364D01*
X-717336157Y113926760D01*
X-717289848Y113881436D01*
X-717244992Y113844096D01*
X-717238778Y113839552D01*
X-717216167Y113824684D01*
X-717188324Y113808303D01*
X-717158231Y113791918D01*
X-717128873Y113777038D01*
X-717103232Y113765170D01*
X-717084292Y113757825D01*
X-717075037Y113756510D01*
X-717074855Y113756656D01*
X-717076230Y113764422D01*
X-717082690Y113782154D01*
X-717092920Y113806315D01*
X-717095193Y113811365D01*
X-717117249Y113862122D01*
X-717142060Y113922879D01*
X-717168002Y113989348D01*
X-717193451Y114057245D01*
X-717216782Y114122284D01*
X-717236371Y114180178D01*
X-717243571Y114202883D01*
X-717256021Y114244497D01*
X-717269453Y114291530D01*
X-717283264Y114341634D01*
X-717296849Y114392460D01*
X-717309602Y114441661D01*
X-717320921Y114486888D01*
X-717330200Y114525793D01*
X-717336835Y114556028D01*
X-717340221Y114575246D01*
X-717340529Y114579504D01*
X-717337805Y114576642D01*
X-717330207Y114561372D01*
X-717318377Y114535172D01*
X-717302958Y114499519D01*
X-717284591Y114455892D01*
X-717263919Y114405768D01*
X-717248271Y114367236D01*
X-717215464Y114286608D01*
X-717186619Y114217385D01*
X-717160519Y114156957D01*
X-717135943Y114102714D01*
X-717111674Y114052045D01*
X-717086494Y114002342D01*
X-717059184Y113950995D01*
X-717028525Y113895393D01*
X-717025213Y113889470D01*
X-716995416Y113836641D01*
X-716971649Y113795592D01*
X-716952924Y113764909D01*
X-716938253Y113743183D01*
X-716926649Y113729002D01*
X-716917122Y113720954D01*
X-716908686Y113717628D01*
X-716904705Y113717294D01*
X-716891165Y113721274D01*
X-716868855Y113732014D01*
X-716841253Y113747719D01*
X-716820506Y113760795D01*
X-716790054Y113781747D01*
X-716752340Y113809135D01*
X-716711579Y113839824D01*
X-716671982Y113870679D01*
X-716660938Y113879517D01*
X-716653777Y113885383D01*
X-716220236Y113885383D01*
X-716216500Y113881647D01*
X-716212765Y113885383D01*
X-716216500Y113889118D01*
X-716220236Y113885383D01*
X-716653777Y113885383D01*
X-716646067Y113891699D01*
X-716205294Y113891699D01*
X-716199584Y113893114D01*
X-716182514Y113904059D01*
X-716154178Y113924469D01*
X-716114668Y113954278D01*
X-716094632Y113969688D01*
X-716069473Y113989672D01*
X-716049900Y114006277D01*
X-716038209Y114017483D01*
X-716036025Y114021162D01*
X-716042605Y114017997D01*
X-716058251Y114007438D01*
X-716080387Y113991457D01*
X-716106435Y113972025D01*
X-716133820Y113951112D01*
X-716159963Y113930689D01*
X-716182289Y113912727D01*
X-716198221Y113899197D01*
X-716205182Y113892069D01*
X-716205294Y113891699D01*
X-716646067Y113891699D01*
X-716628783Y113905856D01*
X-716593480Y113935485D01*
X-716556737Y113966889D01*
X-716520267Y113998553D01*
X-716485780Y114028962D01*
X-716454986Y114056601D01*
X-716429596Y114079956D01*
X-716411320Y114097512D01*
X-716401869Y114107754D01*
X-716401015Y114109691D01*
X-716408488Y114112965D01*
X-716427216Y114120284D01*
X-716454415Y114130580D01*
X-716487300Y114142786D01*
X-716488980Y114143404D01*
X-716662979Y114215007D01*
X-716830944Y114299413D01*
X-716991867Y114395875D01*
X-717144739Y114503647D01*
X-717288550Y114621983D01*
X-717422293Y114750139D01*
X-717544958Y114887369D01*
X-717613170Y114974221D01*
X-717632034Y114998979D01*
X-717647593Y115018453D01*
X-717657724Y115030038D01*
X-717660316Y115032118D01*
X-717661517Y115025102D01*
X-717661694Y115005783D01*
X-717704696Y115005783D01*
X-717705475Y115103089D01*
X-717755425Y115185265D01*
X-717846597Y115349518D01*
X-717924438Y115520382D01*
X-717988976Y115697940D01*
X-718040239Y115882274D01*
X-718078255Y116073467D01*
X-718096278Y116205000D01*
X-718099761Y116246604D01*
X-718102343Y116299708D01*
X-718104026Y116360898D01*
X-718104808Y116426760D01*
X-718104689Y116493880D01*
X-718103670Y116558845D01*
X-718101751Y116618239D01*
X-718098932Y116668650D01*
X-718096278Y116698059D01*
X-718066963Y116894251D01*
X-718024205Y117083927D01*
X-717967990Y117267122D01*
X-717898304Y117443870D01*
X-717815133Y117614204D01*
X-717718463Y117778159D01*
X-717608280Y117935768D01*
X-717565695Y117990471D01*
X-717527662Y118035780D01*
X-717481335Y118087460D01*
X-717429855Y118142264D01*
X-717376364Y118196950D01*
X-717324002Y118248271D01*
X-717275913Y118292983D01*
X-717254912Y118311452D01*
X-717104663Y118430718D01*
X-716946687Y118537309D01*
X-716781549Y118630980D01*
X-716609817Y118711482D01*
X-716432058Y118778569D01*
X-716248838Y118831993D01*
X-716060723Y118871509D01*
X-715925147Y118890911D01*
X-715869552Y118895942D01*
X-715803282Y118899657D01*
X-715730217Y118902028D01*
X-715654233Y118903024D01*
X-715579209Y118902615D01*
X-715509022Y118900772D01*
X-715447551Y118897463D01*
X-715417147Y118894834D01*
X-715223681Y118867744D01*
X-715036228Y118826995D01*
X-714854630Y118772521D01*
X-714678727Y118704257D01*
X-714508360Y118622135D01*
X-714343370Y118526091D01*
X-714183597Y118416059D01*
X-714098589Y118350121D01*
X-714065980Y118322505D01*
X-714027085Y118287507D01*
X-713984171Y118247365D01*
X-713939505Y118204314D01*
X-713895354Y118160590D01*
X-713853985Y118118431D01*
X-713817665Y118080073D01*
X-713788660Y118047751D01*
X-713773618Y118029524D01*
X-713757813Y118009835D01*
X-713745659Y117995893D01*
X-713740000Y117990853D01*
X-713735868Y117997222D01*
X-713725871Y118015392D01*
X-713710824Y118043801D01*
X-713691540Y118080887D01*
X-713668836Y118125087D01*
X-713643525Y118174838D01*
X-713626234Y118209069D01*
X-713572623Y118314400D01*
X-713521064Y118413543D01*
X-713472004Y118505723D01*
X-713425888Y118590168D01*
X-713383165Y118666104D01*
X-713344281Y118732759D01*
X-713309682Y118789360D01*
X-713279815Y118835132D01*
X-713255127Y118869304D01*
X-713236065Y118891103D01*
X-713228562Y118897266D01*
X-713215590Y118904962D01*
X-713210937Y118904908D01*
D12*
G04 #@! TO.C,REF\002A\002A*
X-736391717Y107950000D02*
G75*
G03X-736391717Y107950000I-4018283J0D01*
G01*
X-710991717Y107950000D02*
G75*
G03X-710991717Y107950000I-4018283J0D01*
G01*
G04 #@! TO.C,Conn1*
X-731520000Y113676551D02*
X-724027000Y113676551D01*
X-724027000Y113676551D02*
X-724027000Y112406551D01*
X-731520000Y112406551D02*
X-731520000Y113676551D01*
X-724027000Y107326551D02*
X-731520000Y107326551D01*
X-731520000Y112406551D02*
X-724027000Y112406551D01*
X-724027000Y112406551D02*
X-724027000Y107326551D01*
X-731520000Y112406551D02*
X-731520000Y107326551D01*
G04 #@! TD*
M02*
