G04 #@! TF.GenerationSoftware,KiCad,Pcbnew,(5.0.0)*
G04 #@! TF.CreationDate,2019-10-20T18:36:36-05:00*
G04 #@! TF.ProjectId,LaserDiode_Breakout_Hardware,4C6173657244696F64655F427265616B,rev?*
G04 #@! TF.SameCoordinates,Original*
G04 #@! TF.FileFunction,Soldermask,Top*
G04 #@! TF.FilePolarity,Negative*
%FSLAX46Y46*%
G04 Gerber Fmt 4.6, Leading zero omitted, Abs format (unit mm)*
G04 Created by KiCad (PCBNEW (5.0.0)) date 10/20/19 18:36:36*
%MOMM*%
%LPD*%
G01*
G04 APERTURE LIST*
%ADD10C,0.100000*%
G04 APERTURE END LIST*
D10*
G36*
X-730367856Y105683518D02*
X-730215950Y105668557D01*
X-730021041Y105609432D01*
X-729923585Y105579869D01*
X-729779564Y105502888D01*
X-729654141Y105435848D01*
X-729654139Y105435847D01*
X-729654140Y105435847D01*
X-729417971Y105242028D01*
X-729224152Y105005859D01*
X-729080130Y104736414D01*
X-729080130Y104736413D01*
X-728991442Y104444049D01*
X-728961496Y104140000D01*
X-728991442Y103835951D01*
X-729050567Y103641042D01*
X-729080130Y103543586D01*
X-729157111Y103399565D01*
X-729224151Y103274142D01*
X-729417971Y103037972D01*
X-729654141Y102844152D01*
X-729779564Y102777112D01*
X-729923585Y102700131D01*
X-730021041Y102670568D01*
X-730215950Y102611443D01*
X-730367856Y102596482D01*
X-730443808Y102589001D01*
X-732596192Y102589001D01*
X-732672144Y102596482D01*
X-732824050Y102611443D01*
X-733018959Y102670568D01*
X-733116415Y102700131D01*
X-733260436Y102777112D01*
X-733385859Y102844152D01*
X-733622029Y103037972D01*
X-733815849Y103274142D01*
X-733882889Y103399565D01*
X-733959870Y103543586D01*
X-733989433Y103641042D01*
X-734048558Y103835951D01*
X-734078504Y104140000D01*
X-734048558Y104444049D01*
X-733959870Y104736413D01*
X-733959870Y104736414D01*
X-733815848Y105005859D01*
X-733622029Y105242028D01*
X-733385860Y105435847D01*
X-733385861Y105435847D01*
X-733385859Y105435848D01*
X-733260436Y105502888D01*
X-733116415Y105579869D01*
X-733018959Y105609432D01*
X-732824050Y105668557D01*
X-732672144Y105683518D01*
X-732596192Y105690999D01*
X-730443808Y105690999D01*
X-730367856Y105683518D01*
X-730367856Y105683518D01*
G37*
G36*
X-722747856Y105683518D02*
X-722595950Y105668557D01*
X-722401041Y105609432D01*
X-722303585Y105579869D01*
X-722159564Y105502888D01*
X-722034141Y105435848D01*
X-722034139Y105435847D01*
X-722034140Y105435847D01*
X-721797971Y105242028D01*
X-721604152Y105005859D01*
X-721460130Y104736414D01*
X-721460130Y104736413D01*
X-721371442Y104444049D01*
X-721341496Y104140000D01*
X-721371442Y103835951D01*
X-721430567Y103641042D01*
X-721460130Y103543586D01*
X-721537111Y103399565D01*
X-721604151Y103274142D01*
X-721797971Y103037972D01*
X-722034141Y102844152D01*
X-722159564Y102777112D01*
X-722303585Y102700131D01*
X-722401041Y102670568D01*
X-722595950Y102611443D01*
X-722747856Y102596482D01*
X-722823808Y102589001D01*
X-724976192Y102589001D01*
X-725052144Y102596482D01*
X-725204050Y102611443D01*
X-725398959Y102670568D01*
X-725496415Y102700131D01*
X-725640436Y102777112D01*
X-725765859Y102844152D01*
X-726002029Y103037972D01*
X-726195849Y103274142D01*
X-726262889Y103399565D01*
X-726339870Y103543586D01*
X-726369433Y103641042D01*
X-726428558Y103835951D01*
X-726458504Y104140000D01*
X-726428558Y104444049D01*
X-726339870Y104736413D01*
X-726339870Y104736414D01*
X-726195848Y105005859D01*
X-726002029Y105242028D01*
X-725765860Y105435847D01*
X-725765861Y105435847D01*
X-725765859Y105435848D01*
X-725640436Y105502888D01*
X-725496415Y105579869D01*
X-725398959Y105609432D01*
X-725204050Y105668557D01*
X-725052144Y105683518D01*
X-724976192Y105690999D01*
X-722823808Y105690999D01*
X-722747856Y105683518D01*
X-722747856Y105683518D01*
G37*
G36*
X-740112643Y109444913D02*
X-739965407Y109415626D01*
X-739688021Y109300729D01*
X-739589729Y109235052D01*
X-739438376Y109133921D01*
X-739226079Y108921624D01*
X-739226077Y108921621D01*
X-739059271Y108671979D01*
X-738944374Y108394593D01*
X-738885800Y108100121D01*
X-738885800Y107799879D01*
X-738944374Y107505407D01*
X-739059271Y107228021D01*
X-739224953Y106980062D01*
X-739226079Y106978376D01*
X-739438376Y106766079D01*
X-739438379Y106766077D01*
X-739688021Y106599271D01*
X-739965407Y106484374D01*
X-740112643Y106455087D01*
X-740259878Y106425800D01*
X-740560122Y106425800D01*
X-740707357Y106455087D01*
X-740854593Y106484374D01*
X-741131979Y106599271D01*
X-741381621Y106766077D01*
X-741381624Y106766079D01*
X-741593921Y106978376D01*
X-741595047Y106980062D01*
X-741760729Y107228021D01*
X-741875626Y107505407D01*
X-741934200Y107799879D01*
X-741934200Y108100121D01*
X-741875626Y108394593D01*
X-741760729Y108671979D01*
X-741593923Y108921621D01*
X-741593921Y108921624D01*
X-741381624Y109133921D01*
X-741230271Y109235052D01*
X-741131979Y109300729D01*
X-740854593Y109415626D01*
X-740707357Y109444913D01*
X-740560122Y109474200D01*
X-740259878Y109474200D01*
X-740112643Y109444913D01*
X-740112643Y109444913D01*
G37*
G36*
X-714712643Y109444913D02*
X-714565407Y109415626D01*
X-714288021Y109300729D01*
X-714189729Y109235052D01*
X-714038376Y109133921D01*
X-713826079Y108921624D01*
X-713826077Y108921621D01*
X-713659271Y108671979D01*
X-713544374Y108394593D01*
X-713485800Y108100121D01*
X-713485800Y107799879D01*
X-713544374Y107505407D01*
X-713659271Y107228021D01*
X-713824953Y106980062D01*
X-713826079Y106978376D01*
X-714038376Y106766079D01*
X-714038379Y106766077D01*
X-714288021Y106599271D01*
X-714565407Y106484374D01*
X-714712643Y106455087D01*
X-714859878Y106425800D01*
X-715160122Y106425800D01*
X-715307357Y106455087D01*
X-715454593Y106484374D01*
X-715731979Y106599271D01*
X-715981621Y106766077D01*
X-715981624Y106766079D01*
X-716193921Y106978376D01*
X-716195047Y106980062D01*
X-716360729Y107228021D01*
X-716475626Y107505407D01*
X-716534200Y107799879D01*
X-716534200Y108100121D01*
X-716475626Y108394593D01*
X-716360729Y108671979D01*
X-716193923Y108921621D01*
X-716193921Y108921624D01*
X-715981624Y109133921D01*
X-715830271Y109235052D01*
X-715731979Y109300729D01*
X-715454593Y109415626D01*
X-715307357Y109444913D01*
X-715160122Y109474200D01*
X-714859878Y109474200D01*
X-714712643Y109444913D01*
X-714712643Y109444913D01*
G37*
G36*
X-726202858Y110648309D02*
X-726054898Y110587021D01*
X-725921742Y110498049D01*
X-725808502Y110384809D01*
X-725719530Y110251653D01*
X-725658242Y110103693D01*
X-725627000Y109946626D01*
X-725627000Y109786476D01*
X-725658242Y109629409D01*
X-725719530Y109481449D01*
X-725808502Y109348293D01*
X-725921742Y109235053D01*
X-726054898Y109146081D01*
X-726054899Y109146080D01*
X-726054900Y109146080D01*
X-726084254Y109133921D01*
X-726202858Y109084793D01*
X-726359925Y109053551D01*
X-726520075Y109053551D01*
X-726677142Y109084793D01*
X-726795746Y109133921D01*
X-726825100Y109146080D01*
X-726825101Y109146080D01*
X-726825102Y109146081D01*
X-726958258Y109235053D01*
X-727071498Y109348293D01*
X-727160470Y109481449D01*
X-727221758Y109629409D01*
X-727253000Y109786476D01*
X-727253000Y109946626D01*
X-727221758Y110103693D01*
X-727160470Y110251653D01*
X-727071498Y110384809D01*
X-726958258Y110498049D01*
X-726825102Y110587021D01*
X-726677142Y110648309D01*
X-726520075Y110679551D01*
X-726359925Y110679551D01*
X-726202858Y110648309D01*
X-726202858Y110648309D01*
G37*
G36*
X-728742858Y110648309D02*
X-728594898Y110587021D01*
X-728461742Y110498049D01*
X-728348502Y110384809D01*
X-728259530Y110251653D01*
X-728198242Y110103693D01*
X-728167000Y109946626D01*
X-728167000Y109786476D01*
X-728198242Y109629409D01*
X-728259530Y109481449D01*
X-728348502Y109348293D01*
X-728461742Y109235053D01*
X-728594898Y109146081D01*
X-728594899Y109146080D01*
X-728594900Y109146080D01*
X-728624254Y109133921D01*
X-728742858Y109084793D01*
X-728899925Y109053551D01*
X-729060075Y109053551D01*
X-729217142Y109084793D01*
X-729335746Y109133921D01*
X-729365100Y109146080D01*
X-729365101Y109146080D01*
X-729365102Y109146081D01*
X-729498258Y109235053D01*
X-729611498Y109348293D01*
X-729700470Y109481449D01*
X-729761758Y109629409D01*
X-729793000Y109786476D01*
X-729793000Y109946626D01*
X-729761758Y110103693D01*
X-729700470Y110251653D01*
X-729611498Y110384809D01*
X-729498258Y110498049D01*
X-729365102Y110587021D01*
X-729217142Y110648309D01*
X-729060075Y110679551D01*
X-728899925Y110679551D01*
X-728742858Y110648309D01*
X-728742858Y110648309D01*
G37*
G36*
X-727546947Y117377519D02*
X-727496080Y117356449D01*
X-727445214Y117335380D01*
X-727354892Y117275028D01*
X-727353655Y117274202D01*
X-727275798Y117196345D01*
X-727275796Y117196342D01*
X-727214620Y117104786D01*
X-727193551Y117053920D01*
X-727172481Y117003053D01*
X-727151000Y116895058D01*
X-727151000Y116784942D01*
X-727172481Y116676947D01*
X-727193551Y116626080D01*
X-727214620Y116575214D01*
X-727214621Y116575213D01*
X-727275798Y116483655D01*
X-727353655Y116405798D01*
X-727353658Y116405796D01*
X-727445214Y116344620D01*
X-727496080Y116323551D01*
X-727546947Y116302481D01*
X-727654942Y116281000D01*
X-727765058Y116281000D01*
X-727873053Y116302481D01*
X-727923920Y116323551D01*
X-727974786Y116344620D01*
X-728066342Y116405796D01*
X-728066345Y116405798D01*
X-728144202Y116483655D01*
X-728205379Y116575213D01*
X-728205380Y116575214D01*
X-728226449Y116626080D01*
X-728247519Y116676947D01*
X-728269000Y116784942D01*
X-728269000Y116895058D01*
X-728247519Y117003053D01*
X-728226449Y117053920D01*
X-728205380Y117104786D01*
X-728144204Y117196342D01*
X-728144202Y117196345D01*
X-728066345Y117274202D01*
X-728065108Y117275028D01*
X-727974786Y117335380D01*
X-727923920Y117356449D01*
X-727873053Y117377519D01*
X-727765058Y117399000D01*
X-727654942Y117399000D01*
X-727546947Y117377519D01*
X-727546947Y117377519D01*
G37*
G36*
X-726202858Y118891758D02*
X-726054898Y118830470D01*
X-725921742Y118741498D01*
X-725808502Y118628258D01*
X-725719530Y118495102D01*
X-725658242Y118347142D01*
X-725627000Y118190075D01*
X-725627000Y118029925D01*
X-725658242Y117872858D01*
X-725719530Y117724898D01*
X-725808502Y117591742D01*
X-725921742Y117478502D01*
X-726054898Y117389530D01*
X-726202858Y117328242D01*
X-726359925Y117297000D01*
X-726520075Y117297000D01*
X-726677142Y117328242D01*
X-726825102Y117389530D01*
X-726958258Y117478502D01*
X-727071498Y117591742D01*
X-727160470Y117724898D01*
X-727221758Y117872858D01*
X-727253000Y118029925D01*
X-727253000Y118190075D01*
X-727221758Y118347142D01*
X-727160470Y118495102D01*
X-727071498Y118628258D01*
X-726958258Y118741498D01*
X-726825102Y118830470D01*
X-726677142Y118891758D01*
X-726520075Y118923000D01*
X-726359925Y118923000D01*
X-726202858Y118891758D01*
X-726202858Y118891758D01*
G37*
G36*
X-728742858Y118891758D02*
X-728594898Y118830470D01*
X-728461742Y118741498D01*
X-728348502Y118628258D01*
X-728259530Y118495102D01*
X-728198242Y118347142D01*
X-728167000Y118190075D01*
X-728167000Y118029925D01*
X-728198242Y117872858D01*
X-728259530Y117724898D01*
X-728348502Y117591742D01*
X-728461742Y117478502D01*
X-728594898Y117389530D01*
X-728742858Y117328242D01*
X-728899925Y117297000D01*
X-729060075Y117297000D01*
X-729217142Y117328242D01*
X-729365102Y117389530D01*
X-729498258Y117478502D01*
X-729611498Y117591742D01*
X-729700470Y117724898D01*
X-729761758Y117872858D01*
X-729793000Y118029925D01*
X-729793000Y118190075D01*
X-729761758Y118347142D01*
X-729700470Y118495102D01*
X-729611498Y118628258D01*
X-729498258Y118741498D01*
X-729365102Y118830470D01*
X-729217142Y118891758D01*
X-729060075Y118923000D01*
X-728899925Y118923000D01*
X-728742858Y118891758D01*
X-728742858Y118891758D01*
G37*
M02*
